<svg version="1.1" id="Layer_1" xmlns="http://www.w3.org/2000/svg" xmlns:xlink="http://www.w3.org/1999/xlink" x="0" y="0" viewBox="0 0 448.43 205" style="enable-background:new 0 0 448.43 205" xml:space="preserve"><style>.st3{fill:#d25142}.st4{fill:#f5f1e9}</style><g style="opacity:.5"><defs><path id="SVGID_1_" d="M4.62 6.94h443.81V205H4.62z"/></defs><clipPath id="SVGID_2_"><use xlink:href="#SVGID_1_" style="overflow:visible"/></clipPath><path d="M448.04 38.31v-.62l-.39.13v-.62l-.39.13v-.62l-.39.13v-.62l-.39.13v-.62l-.39.13v-.62l-.39.13v-.62l-.39.13v-.62l-.39.13v-.62l-.39.13v-.62l-.39.13v-.61l-.39.13v-.62l-.39.13v-.62l-.39.13v-.62l-.39.13v-.62l-.39.13v-.62l-.39.13v-.62l-.39.13v-.62l-.39.13v-.62l-.39.13v-.61l-.39.13v-.62l-.39.13v-.62l-.39.13v-.62l-.39.13v-.62l-.39.13v-.62l-.39.13v-.62l-.39.13v-.62l-.39.13v-.62l-.39.13v-.62l-.39.13v-.62l-.39.13v-.62l-.39.13v-.62l-.39.13v-.62l-.39.13v-.62l-.39.13v-.62l-.39.13v-.62l-.39.13v-.62l-.39.13v-.62l-3.08 1.01-4.63 1.51c-.7.23-1.37.44-2.02.63l.01-.15-.44.08.05-.57-.44.08.05-.57-.44.08.05-.57-.44.08.05-.57-.44.08.05-.57-.44.08.05-.57-.44.08.05-.57-.44.08.05-.57-.44.08.05-.57-.44.08.05-.57-.44.08.05-.57-.44.08.05-.57-.44.08.05-.57-.44.08.05-.57-.44.08.05-.57-.44.08.05-.57-.44.08.05-.57-.44.08.05-.57-.44.08.05-.57-.44.08.05-.57-.44.08.05-.57-.44.08.05-.57-.44.08.05-.57-.44.08.05-.57-.53.11.05-.57-.44.08.05-.57-.44.08.05-.57-.44.08.05-.57-.44.08.05-.57-.44.08.05-.57-.44.08.05-.57-.44.08.05-.57-3.02.53-4.53.8L382.58 12l-3.24.57-2.16.38.23 2.18.34 3.27c.47 4.46.65 7.84.65 12.07v.08l.01.64-30.5 5.38c-7.01 1.24-11.09 1.74-16.78 2.09l-3.32.2-1.7.1.03-.47-.43.08.04-.56-.43.08.04-.57-.43.08.04-.57-.43.08.04-.56-.43.08.04-.56-.43.08.04-.57-.43.08.04-.57-.43.08.04-.56-.43.08.04-.57-.43.08.04-.57-.43.08.04-.57-.43.08.04-.56-.43.08.04-.57-.43.08.04-.57-.43.08.04-.57-.43.08.04-.57-.43.08.04-.56-.43.08.04-.56-.43.08.04-.56-.43.07.04-.56-.43.08.04-.56-.43.08.04-.57-.43.08.04-.57-.43.08.04-.57-.43.08.04-.57-2.97.52-4.45.78-21.98 3.88-3.29.58-2.19.39.26 2.21.39 3.31c.54 4.58.64 6.78.64 14.71v11.78c0 10.27-.6 19.67-1.17 23.29-.73 4.13-2.05 7.64-4.14 10.85V76.55c0-7.65.1-9.63.54-14.78l.39-4.57.26-3.05-.44.08.05-.57-.44.08.05-.57-.44.08.05-.57-.44.08.05-.57-.44.08.05-.57-.44.08.05-.57-.44.08.05-.57-.44.08.05-.57-.44.08.05-.57-.44.08.05-.57-.44.08.05-.57-.44.08.05-.57-.44.08.05-.57-.44.08.05-.57-.44.08.05-.57-.44.08.05-.57-.44.08.05-.57-.44.08.05-.57-.44.08.05-.57-.44.08.05-.57-.44.08.05-.57-.49.09.05-.57-.44.08.05-.57-.44.08.05-.57-.44.08.05-.57-.44.08.05-.57-.44.08.05-.57-.44.08.05-.57-.44.08.05-.57-.44.08.05-.57-.44.08.05-.57-.44.08.05-.57-.44.08.05-.57-.44.08.05-.57-.44.08.05-.57-.44.08.05-.57-.44.08.05-.57-.44.08.05-.57-3.02.53-4.52.8-21.98 3.88-3.28.58-2.18.39.26 2.2.38 3.31c.52 4.44.64 7.22.64 14.16v19.74l-.13-.07.09-.22-.48-.27.09-.22-.48-.27.09-.22-.49-.27.09-.22-.48-.27.09-.22-.5-.26.09-.22-.48-.27.09-.22-.48-.27.09-.22-.48-.27.09-.22-1.85-1.03-2.78-1.55c-8.34-4.65-10.34-6.11-15.3-11.21l-3.97-4.08-2.64-2.72-1.26 3.57-1.89 5.36c-3.23 9.13-6.21 15.62-10.63 23.14-.88 1.53-1.79 3.02-2.71 4.45l-.31-.22.09-.14-.48-.35.09-.14-.48-.35.09-.14-.48-.35.09-.14-.48-.35.09-.14-.48-.35.09-.14-.48-.35.09-.14-.48-.35.09-.14-.48-.35.09-.14-.48-.35.09-.14-.48-.35.09-.14-.48-.35.09-.14-.48-.35.09-.14-.48-.35.09-.14-.48-.35.09-.14-.48-.35.09-.14-.48-.35.09-.14-.48-.35.09-.14-.48-.35.09-.14-.48-.35.09-.14-.48-.35.09-.14-.48-.35.09-.14-1.83-1.33-2.74-1.99c-9.87-7.19-17.44-11.26-32.38-17.4l-2.59-1.06-1.73-.71-1.08 1.52-1.63 2.28-10.69 14.99v-.27l-.39.13v-.61l-3.08.99-2.82.91.02-.19-.47.08.07-.57-.47.08.07-.57-.47.08.08-.57-.47.08.07-.57-.47.08.07-.57-.46.08.07-.57-.47.08.07-.57-.47.08.08-.57-.47.08.07-.57-.47.08.07-.57-.47.08.08-.57-.47.08.07-.57-.47.08.07-.57-.47.08.07-.57-.47.08.07-.57-.47.08.08-.57-.47.08.07-.57-.47.08.08-.57-.47.08.08-.57-.47.08.07-.57-.46.08.07-.57-.47.08.07-.57-.47.08.08-.57-.47.08.07-.57-.47.08.07-.57-.47.08.08-.57-.47.08.07-.57-.47.08.07-.57-.46.08.07-.57-.47.08.07-.57-.46.08.08-.57-.47.08.07-.57-.47.08.07-.57-.46.08.07-.57-3.16.56-4.74.83-20.39 3.6-3.44.6-2.29.4.38 2.3.57 3.44c.33 2.03.47 4.67.49 10.08l-.38.07.06-.57-.45.08.06-.57-.45.08.06-.57-.45.08.06-.57-.45.08.05-.57-.45.08.06-.57-.45.08.06-.57-.45.08.05-.57-.45.08.06-.57-.45.08.05-.57-.45.08.06-.57-.45.08.06-.57-.45.08.05-.57-.45.08.06-.57-.45.08.05-.57-.45.08.06-.57-.45.08.06-.57-.45.08.05-.57-.45.08.06-.57-.45.08.05-.57-.45.08.06-.57-.45.08.06-.57-.45.08.06-.57-.45.08.06-.57-.45.08.06-.57-.45.08.06-.57-.45.08.06-.57-.45.08.06-.57-.45.08.06-.57-3.06.54-4.58.81-20.73 3.66-3.35.59-2.23.39.31 2.25.47 3.37c.53 3.85.62 6.15.62 11.08v3.33c-7.83 1.37-9.89 1.62-14.53 1.82l-3.38.15-2.25.1v32.66l.39-.1v.59l.39-.1v.59l.39-.1v.59l.39-.1v.59l.39-.1v.59l.39-.1v.59l.39-.1v.59l.39-.1v.59l.39-.1v.59l.39-.1v.59l.39-.1v.59l.39-.1v.59l.39-.1v.59l.39-.1v.59l.39-.1v.59l.39-.1v.59l.39-.1v.59l.39-.1v.59l.39-.1v.59l.39-.1v.59l.39-.1v.59l.39-.1v.66l.39-.1v.59l.39-.1v.59l.39-.1v.59l.39-.1v.59l.39-.1v.59l.39-.1v.59l.39-.1v.59l.39-.1v.59l.39-.1v.59l.39-.1v.59l.39-.1v.59l.39-.1v.59l.39-.1v.59l.39-.1v.59l.39-.1v.59l.39-.1v.59l2.96-.79.92-.25-.33 2.35.47-.08-.08.57.47-.08-.08.57.47-.08-.08.57.47-.08-.08.57.47-.08-.08.57.47-.08-.08.57.47-.08-.08.57.47-.08-.08.57.47-.08-.08.57.47-.08-.08.57.47-.08-.08.57.47-.08-.08.57.47-.08-.08.57.47-.08-.08.57.69-.11-.08.57.47-.08-.08.57.47-.08-.08.57.47-.08-.08.57.47-.08-.08.57.47-.08-.08.57.47-.08-.01.07-1.94.92.51.43-.12.06.51.43-.12.06.51.43-.12.06.51.43-.12.06.51.43-.12.06.51.43-.12.06.51.43-.12.06.51.43-.12.06.51.43-.12.06.51.43-.12.06.51.43-.12.06.51.43-.12.06.51.43-.12.06.51.43-.12.06.51.43-.12.06.51.43-.12.06.51.43-.12.06.51.43-.12.06.51.43-.12.06.51.43-.12.06.51.43-.12.06.51.43-.12.06.51.43-.12.06.51.43-.12.06.51.43-.12.06.51.43-.12.06.51.43-.12.06.51.43-.12.06.51.43-.12.06.51.43-.12.06.51.43-.12.06.51.43-.12.06.51.43-.12.06.51.43-.12.06.51.43-.12.06.51.43-.12.06.51.43-.12.06.51.43-.12.06 2.8 2.36 2.05 1.73 1.02 1.92.1-.06.29.55.1-.06.29.55.1-.06.29.55.1-.06.29.55.1-.06.29.55.1-.06.29.55.1-.06.29.54.1-.06.29.55.1-.06.29.54.1-.06.29.55.1-.06.29.55.1-.06.29.55.1-.06.29.55.1-.06.29.55.1-.06.29.55.1-.06.29.55.1-.06.29.55.1-.06.29.55.1-.06.29.55.1-.06.29.54.1-.06.29.55.1-.06.29.55.1-.06.29.55.1-.05.29.54.1-.06.29.55.1-.06.29.54.1-.06.29.55.1-.06.29.55.1-.06.29.55.1-.06.29.55.1-.06.29.55.1-.06.29.54.1-.06.29.55.1-.06.29.55.1-.06.29.54.1-.06.29.55.1-.06.29.54.1-.06.29.55 2.1-1.16 3.14-1.74c12.1-6.69 18.38-11.24 24.86-18.03 10.87-11.3 16.54-23.83 18.36-40.6.38-3.66.54-6.16.7-11.57l.25-.04c7.18-1.27 10.23-1.7 15.5-2.19l3.2-.3 2.14-.2v-20.15l.83.3c7.29 2.65 13.74 5.99 20.07 10.42-.23.14-.45.27-.68.4-10.2 6.03-21.46 10.71-32.57 13.54l-3.52.9-2.34.6.66 2.33.99 3.49 5.89 20.72 1.14 4.01.76 2.67.22-.1.17.59.22-.11.17.59.22-.1.17.59.22-.1.17.59.22-.1.17.59.22-.1.17.59.22-.11.17.59.22-.11.17.6.22-.11.17.59.22-.11.17.6.22-.11.17.59.22-.1.17.59.22-.1.17.59.22-.11.17.59.22-.11.17.59.22-.1.17.59.22-.1.17.59.22-.11.17.59.22-.1.17.59.22-.1.17.59.22-.1.17.59.22-.11.17.59.22-.1.17.59.22-.1.17.59.22-.11.17.59.22-.1.17.59.22-.1.17.59.22-.1.17.59.22-.11.17.59.22-.11.17.59.22-.1.17.59.22-.1.17.59.22-.11.17.59.22-.11.17.6.22-.1.17.59.22-.1.17.6.22-.11.17.6.22-.11.17.59 2.51-1.19 3.77-1.78c2.39-1.13 3.21-1.46 5.91-2.56l1.95-.79c21.64-8.82 32.72-15.06 45.6-25.68 13.58-11.13 23.47-23.68 32.41-41.29l-.04.31.47-.08-.08.57.47-.08-.08.57.47-.08-.08.57.47-.08-.08.57.47-.08-.08.57.47-.08-.08.57.47-.08-.08.57.47-.08-.08.57.47-.08-.08.57.47-.08-.08.57.47-.08-.08.57.47-.08-.08.57.47-.08-.08.57.47-.08-.08.57.47-.08-.08.57.32-.06-2.39.87.47.46-.08.03.48.46-.08.03.47.46-.08.03.47.46-.08.03.47.46-.08.03.47.46-.08.03.47.46-.08.03.47.46-.08.03.47.46-.08.03.47.46-.08.03.47.46-.08.03.47.46-.08.03.47.46-.08.03.47.46-.08.03.47.46-.08.03.47.46-.08.03.47.46-.08.03.47.46-.08.03.47.46-.08.03.47.46-.08.03.47.46-.08.03.47.46-.08.03.47.46-.08.03.47.46-.08.03.47.46-.08.03.48.46-.08.03.47.46-.08.03.47.46-.08.03.47.46-.08.03.47.46-.08.03.47.46-.08.03.47.46-.08.03.47.46-.08.03.47.46-.08.03 2.54 2.47c.35.81.68 1.66 1.02 2.58l1.32 3.6.88 2.4.18-.08.21.58.18-.08.21.57.18-.08.21.57.18-.08.21.57.18-.08.21.57.18-.08.21.57.18-.08.21.57.18-.08.21.57.18-.08.21.57.18-.08.21.57.18-.08.21.57.18-.08.21.57.18-.08.21.57.18-.08.21.57.18-.09.21.57.18-.08.21.57.18-.09.21.57.18-.08.21.57.18-.08.21.57.18-.08.21.57.18-.08.21.57.18-.08.21.57.18-.08.21.57.18-.08.21.57.18-.08.21.57.18-.08.21.57.18-.08.21.57.18-.08.21.57.18-.08.21.57.18-.08.21.57.18-.08.21.57.18-.08.21.57.18-.08.21.57.18-.09.21.57.18-.08.21.57.18-.08.21.57.18-.08.21.57.18-.08.21.57 2.32-1.07 3.48-1.61c11.38-5.26 17.83-8.95 24.64-14.09 12.7-9.51 20.88-20.46 24.92-33.4l.26.19-.14.09.54.4-.14.09.54.4-.14.09.54.4-.14.09.54.4-.14.09.53.4-.14.09.54.39-.14.09 2.72 2.02 4.08 3.02c.5.37.97.72 1.42 1.07l1.07 1.86.08-.06.33.57.08-.06.31.55.08-.06.31.55.08-.06.31.55.08-.06.31.54.08-.06.32.54.08-.06.31.54.08-.05.32.54.08-.05.31.55.08-.06.31.54.08-.06.31.55.08-.06.31.55.08-.06.31.54.08-.06.32.55.08-.06.31.55.08-.06.31.55.08-.06.31.55.08-.06.31.55.08-.06.31.55.08-.06.31.54.08-.06.31.54.08-.06.31.55.08-.06.32.55.08-.05.31.54.08-.06.31.55.08-.06.31.55.08-.06.31.55.08-.06.31.55.08-.06.31.55.08-.06.31.54.08-.06.32.55.08-.06.31.54 2.11-1.53 3.17-2.29c7.92-5.72 14.92-11.44 21.22-17.37l-.3 1.9.48-.08-.09.57.48-.08-.09.57.48-.09-.09.57.48-.09-.09.57.48-.08-.09.57.48-.09-.09.57.48-.08-.09.57.48-.08-.09.57.48-.08-.09.57.48-.08-.09.57.48-.08-.09.57.48-.09-.09.57.48-.08-.09.57.48-.08-.09.57.48-.08-.09.57.48-.08-.09.57.48-.08-.09.57.48-.09-.09.57.48-.09-.09.57.48-.09-.09.58.48-.09-.09.57.48-.08-.09.57.48-.08-.09.57.48-.08-.09.58.48-.09-.09.57.48-.09-.09.57.48-.08-.09.57.48-.08-.09.57.48-.08-.09.57.48-.08-.09.57.48-.09-.09.57.48-.08-.09.57.48-.09-.09.57.48-.09-.09.57.48-.08-.09.58.48-.09-.09.57.48-.08-.09.57.48-.08-.09.57 3.25-.57 4.87-.86 21.75-3.83 3.28-.58 2.19-.39-.26-2.2-.38-3.31c-.46-3.93-.75-9.74-.75-14.81l-.51-43.81 2.33-.41c8.1-1.43 11.51-1.91 15.22-2.15l3.3-.21 2.2-.14v-32.8l-.13.13z" style="clip-path:url(#SVGID_2_);fill:#9caeaf"/></g><path d="M443.42 31.37v-.62l-.39.13v-.62l-.39.13v-.62l-.39.13v-.62l-.39.13v-.61l-.39.13v-.62l-.39.13v-.62l-.39.13v-.62l-.39.13v-.62l-.39.13v-.62l-.39.13v-.62l-.39.13v-.62l-.39.13v-.62l-.39.13v-.61l-.39.13v-.62l-.39.13v-.62l-.39.13v-.62l-.39.13v-.62l-.39.13v-.62l-.39.13v-.62l-.39.13v-.62l-.39.13v-.62l-.39.13v-.62l-.39.13v-.62l-.39.13v-.62l-.39.13v-.62l-.39.13v-.62l-.39.13v-.62l-.39.13v-.62l-.39.13v-.62l-.39.13v-.62l-.39.13v-.62l-.39.13v-.61l-.39.13v-.62l-.39.13v-.62l-.39.13v-.62l-.39.13v-.62l-.39.13v-.62l-3.08 1.01-4.63 1.51c-.7.23-1.37.44-2.02.63l.01-.15-.44.08.05-.57-.44.08.05-.57-.44.08.05-.57-.44.08.05-.57-.44.08.05-.57-.44.08.05-.57-.44.08.05-.57-.44.08.05-.57-.44.08.05-.57-.44.08.05-.57-.44.08.05-.57-.44.08.05-.57-.44.08.05-.57-.44.08.05-.57-.44.08.05-.57-.44.08.05-.57-.44.08.05-.57-.44.08.05-.57-.44.08.05-.57-.44.08.05-.57-.44.08-.03-.55-.44.08.05-.57-.44.08.05-.57-.44.08.05-.57-.44.08.05-.57-.44.08.05-.57-.44.08.05-.57-.44.08.05-.57-.44.08.05-.57-.44.08.05-.57-.44.08.05-.57-.44.08.03-.56-3.02.53-4.53.8-21.19 3.73-3.24.57-2.16.38.23 2.18.34 3.27c.47 4.46.65 7.85.65 12.07v.08l.01.64-30.5 5.38c-7.01 1.24-11.09 1.74-16.78 2.09l-3.32.2-1.7.1.03-.47-.43.08.04-.56-.43.08.04-.57-.43.08.04-.56-.43.08.04-.56-.43.08.04-.56-.43.08.04-.57-.43.08.04-.57-.43.08.04-.56-.43.08.04-.57-.43.08.04-.57-.43.08.04-.57-.43.08.04-.56-.43.08.04-.57-.44.06.04-.57-.43.08.04-.57-.43.08.04-.57-.43.08.04-.57-.43.08.04-.57-.43.08.04-.56-.43.08.04-.56-.43.08.04-.56-.43.08.04-.56-.43.08.04-.57-.43.08.04-.57-.43.08.04-.57-2.97.52-4.45.78-21.98 3.88-3.29.58-2.19.39.26 2.21.39 3.31c.54 4.58.64 6.78.64 14.71v11.78c0 10.27-.6 19.67-1.17 23.29-.73 4.13-2.06 7.64-4.14 10.85V69.62c0-7.65.1-9.63.55-14.78l.39-4.57.26-3.05-.44.08.05-.57-.44.08.05-.57-.44.08.05-.57-.44.08.05-.57-.44.08.05-.57-.44.08.05-.57-.44.08.05-.57-.44.08.05-.57-.44.08.05-.57-.44.08.05-.57-.44.08.05-.57-.44.08.05-.57-.44.08.05-.57-.44.08.05-.57-.44.08.05-.57-.44.08.05-.57-.44.08.05-.57-.44.08.05-.57-.44.08.05-.57-.44.08.05-.57-.44.08.05-.57-.44.08.05-.57-.44.08.05-.57-.44.08.05-.57-.44.08.05-.57-.44.08.05-.57-.44.08.05-.57-.44.08.05-.57-.44.08.05-.57-.44.08.05-.57-.44.08.05-.57-.44.08.05-.57-.44.08.05-.57-.44.08.05-.57-.44.08.05-.57-.44.08.05-.57-.44.08.05-.57-.44.08.05-.57-3.02.53-4.52.8-21.98 3.88-3.28.58-2.18.39.26 2.2.38 3.31c.51 4.44.64 7.22.64 14.16V74.2l-.13-.07.09-.22-.48-.27.09-.22-.49-.27.09-.22-.48-.27.09-.22-.49-.27.09-.22-.48-.27.09-.22-.48-.27.09-.22-.48-.27.09-.22-.48-.27.09-.22-1.85-1.03-2.78-1.55c-8.34-4.65-10.34-6.11-15.3-11.21l-3.97-4.08-2.64-2.72-1.26 3.57-1.89 5.36c-3.23 9.14-6.21 15.62-10.63 23.14-.88 1.53-1.79 3.02-2.71 4.45l-.31-.22.09-.14-.48-.35.09-.14-.48-.35.09-.14-.48-.35.09-.14-.48-.35.09-.14-.54-.33.09-.14-.48-.35.09-.14-.48-.35.09-.14-.48-.35.09-.14-.49-.35.09-.14-.48-.35.09-.14-.48-.35.09-.14-.48-.35.09-.14-.48-.35.09-.14-.48-.35.09-.14-.48-.35.09-.14-.48-.35.09-.14-.48-.35.09-.14-.48-.35.09-.14-.48-.35.09-.14-.48-.35.09-.14-.48-.35.09-.14-1.83-1.33-2.74-2c-9.87-7.19-17.44-11.26-32.38-17.4l-2.59-1.06-1.73-.71-1.08 1.52-1.63 2.28-10.7 15.01v-.27l-.39.13v-.62l-3.08.99-2.82.91.03-.19-.47.08.08-.57-.47.08.07-.57-.47.08.07-.57-.47.08.08-.57-.47.08.07-.57-.47.08.08-.57-.47.08.07-.57-.47.08.07-.57-.47.08.08-.57-.47.08.07-.57-.47.08.07-.57-.46.08.07-.57-.46.08.07-.57-.47.08.08-.57-.47.08.07-.57-.47.08.07-.57-.46.08.07-.57-.47.08.07-.57-.47.08.07-.57-.47.08.08-.57-.47.08.07-.57-.47.08.07-.57-.47.08.07-.57-.47.08.08-.57-.47.08.07-.57-.47.08.07-.57-.46.08.07-.57-.47.08.07-.57-.46.08.08-.57-.47.08.08-.57-.47.08.08-.57-.47.08.08-.57-.47.08.07-.57-.47.08.07-.57-3.16.56-4.73.83-20.39 3.6-3.44.61-2.29.41.38 2.3.57 3.44c.33 2.03.47 4.67.48 10.08l-.38.07.05-.57-.45.08.06-.57-.45.08.06-.57-.45.08.06-.57-.45.08.06-.57-.45.08.05-.57-.45.08.06-.57-.45.08.06-.57-.45.08.06-.57-.45.08.06-.57-.45.08.06-.57-.45.08.06-.57-.45.08.06-.57-.45.08.06-.57-.45.08.06-.57-.45.08.05-.57-.45.08.06-.57-.45.08.06-.57-.45.08.05-.57-.45.08.06-.57-.45.08.05-.57-.45.08.06-.57-.45.08.06-.57-.45.08.05-.57-.45.08.06-.57-.45.08.05-.57-.45.08.06-.57-.45.08.06-.57-.45.08.06-.57-3.05.54-4.58.81-20.73 3.66-3.21.63-2.23.39.31 2.25.47 3.37c.53 3.85.62 6.15.62 11.08v3.33c-7.83 1.37-9.9 1.62-14.53 1.82l-3.38.15-2.26.1v32.65l.39-.1v.59l.39-.1v.59l.39-.1v.59l.39-.1v.59l.39-.1v.59l.39-.1v.59l.39-.1v.59l.39-.11v.59l.39-.1v.59l.39-.1v.59l.39-.1v.59l.39-.1v.59l.39-.1v.59l.39-.1v.59l.39-.1v.59l.39-.1v.59l.39-.1v.59l.39-.1v.59l.39-.1v.59l.39-.1v.59l.39-.1v.59l.39-.1v.59l.39-.1v.59l.39-.1v.59l.39-.1v.59l.39-.1v.59l.39-.1v.59l.39-.1v.59l.39-.1v.59l.39-.1v.59l.39-.1v.59l.39-.1v.59l.39-.1v.59l.39-.1v.59l.39-.1v.59l.39-.1v.59l.39-.1v.59l.39-.1v.59l2.96-.79.92-.24-.33 2.34.47-.08-.08.57.47-.08-.08.57.47-.08-.08.57.47-.08-.08.57.47-.08-.08.57.47-.08-.08.57.47-.08-.08.57.47-.08-.08.57.47-.08-.08.57.47-.08-.08.57.47-.08-.08.57.47-.08-.08.57.47-.08-.08.57.47-.08-.08.57.47-.08-.08.57.47-.08-.08.57.47-.08-.08.57.47-.08-.08.57.47-.08-.08.57.47-.08-.08.57.47-.08-.01.07-1.93.92.51.43-.12.06.51.43-.12.06.51.43-.12.06.51.43-.12.06.51.43-.12.06.51.43-.12.06.51.43-.12.06.51.43-.12.06.51.43-.12.06.51.43-.12.06.51.43-.12.06.51.43-.12.06.51.43-.12.06.51.43-.12.06.51.43-.12.06.51.43-.12.06.51.43-.12.06.51.43-.12.06.51.43-.12.06.51.43-.12.06.51.43-.01.02.51.43-.12.06.51.43-.12.06.51.43-.12.06.51.43-.12.06.52.43-.12.06.51.43-.12.06.51.43-.12.06.51.43-.12.06.51.43-.12.06.51.43-.12.06.51.43-.12.06.51.43-.12.06.51.43-.12.06.51.43-.12.06.51.43-.12.06.51.43-.12.06.51.43-.12.06 2.8 2.36 2.05 1.73 1.02 1.92.1-.06.29.55.1-.06.29.55.1-.06.29.55.1-.06.29.55.1-.06.29.55.1-.06.29.55.1-.06.29.54.1-.06.29.55.1-.06.29.54.1-.06.29.55.1-.06.29.55.1-.06.29.54.1-.06.29.55.1-.06.29.55.1-.06.29.55.1-.06.29.55.1-.06.29.55.1-.06.29.55.1-.06.29.55.1-.06.29.54.1-.06.29.55.1-.06.29.55.1-.06.29.55.1-.05.29.54.1-.06.29.55.1-.06.29.55.1-.06.29.55.1-.06.29.54.1-.06.29.55.1-.06.29.55.1-.06.29.55.1-.06.29.54.1-.06.29.55.1-.06.29.55.1-.06.29.54.1-.06.29.55.1-.06.29.54.1-.06.29.55 2.1-1.16 3.14-1.74c12.1-6.69 18.38-11.24 24.86-18.03 10.87-11.3 16.54-23.83 18.36-40.6.38-3.66.54-6.16.7-11.57l.25-.04c7.19-1.27 10.23-1.7 15.5-2.19l3.2-.3 2.14-.2v-20.15l.83.3c7.29 2.65 13.74 5.99 20.07 10.42-.23.14-.46.27-.68.4-10.2 6.03-21.46 10.71-32.57 13.54l-3.52.9-2.35.6.66 2.33.99 3.49 5.89 20.71 1.14 4.01.76 2.67.22-.1.17.59.22-.1.17.59.22-.11.17.59.22-.11.17.59.22-.1.17.59.22-.11.17.6.22-.11.17.59.22-.1.17.6.22-.1.17.59.22-.11.17.59.22-.1.17.59.22-.1.17.59.22-.1.17.59.22-.1.17.59.22-.11.17.59.22-.1.17.59.22-.1.17.59.22-.1.17.59.22-.1.17.59.22-.1.17.59.22-.1.17.59.22-.11.17.59.22-.1.17.59.22-.1.17.59.22-.1.17.59.22-.11.17.59.22-.1.17.59.22-.1.17.59.22-.1.17.59.22-.11.17.59.22-.11.17.59.22-.1.17.59.22-.1.17.59.22-.11.17.6.22-.1.17.59.22-.1.17.59.22-.11.17.59.22-.1.17.59 2.51-1.19 3.77-1.78c2.39-1.13 3.21-1.46 5.91-2.56l1.95-.79c21.64-8.82 32.72-15.06 45.6-25.68 13.58-11.13 23.47-23.68 32.4-41.29l-.04.31.47-.08-.08.57.47-.08-.08.57.47-.08-.08.57.47-.08-.08.57.47-.08-.08.57.47-.08-.08.57.47-.08-.08.57.47-.08-.08.57.47-.08-.08.57.47-.08-.08.57.47-.08-.08.57.47-.08-.08.57.47-.08-.08.57.47-.08-.08.57.47-.08-.08.57.32-.06-2.39.87.47.46-.08.03.47.46-.08.03.47.46-.08.03.47.46-.08.03.47.46-.08.03.47.46-.08.03.47.46-.08.03.47.46-.08.03.47.46-.08.03.47.46-.08.03.48.46-.08.03.47.46-.08.03.47.46-.08.03.47.46-.08.03.47.46-.08.03.47.46-.08.03.47.46-.08.03.47.46-.08.03.47.46-.08.03.47.46-.08.03.47.46-.08.03.47.46-.08.03.47.46-.08.03.47.46-.08.03.47.46-.08.03.48.46-.08.03.47.46-.08.03.47.46-.08.03.47.46-.08.03.47.46-.08.03.47.46-.08.03.47.46-.08.03.47.46-.08.03.47.46-.08.03 2.54 2.47c.35.81.68 1.66 1.02 2.58l1.32 3.6.88 2.4.18-.08.21.58.18-.08.21.57.18-.08.21.57.18-.08.21.57.18-.08.21.57.18-.08.21.57.18-.08.21.57.18-.08.21.57.18-.08.21.57.18-.08.21.57.18-.08.21.57.18-.08.21.57.18-.08.21.57.18-.08.21.57.18-.08.21.57.18-.08.21.57.18-.08.21.57.18-.08.21.57.18-.09.21.57.18-.08.21.58.18-.08.21.57.18-.08.21.57.18-.08.21.57.18-.08.21.57.18-.08.21.57.18-.08.21.57.18-.08.21.57.18-.08.21.57.18-.08.21.57.18-.08.21.57.18-.08.21.57.18-.08.21.57.18-.08.21.57.18-.08.21.57.18-.08.21.57.18-.08.21.57.18-.08.21.57.18-.08.21.57 2.32-1.07 3.48-1.61c11.38-5.26 17.83-8.95 24.64-14.09 12.7-9.51 20.88-20.46 24.93-33.4l.26.19-.14.09.53.4-.14.09.53.4-.14.09.53.39-.14.09.54.4-.14.09.53.4-.14.09.54.39-.14.09 2.72 2.02 4.08 3.02c.5.37.97.72 1.42 1.07l1.07 1.86.08-.05.33.57.08-.05.32.55.08-.06.31.55.08-.06.31.55.08-.06.31.54.08-.06.31.54.08-.06.31.54.08-.06.32.55.08-.05.32.55.08-.06.31.54.08-.06.31.55.08-.06.31.55.08-.06.31.54.08-.06.31.55.08-.06.32.55.08-.06.31.55.08-.06.31.55.08-.06.31.55.08-.06.31.54.08-.06.31.54.08-.05.31.54.08-.06.32.55.08-.06.31.54.08-.05.31.54.08-.06.31.55.08-.06.31.55.08-.06.31.55.08-.06.31.54.08-.06.31.55.08-.06.31.54.08-.06.31.55.08-.06.31.54 2.11-1.53 3.17-2.29c7.92-5.72 14.92-11.44 21.22-17.37l-.3 1.9.48-.08-.09.57.48-.08-.09.57.48-.09-.09.57.48-.09-.09.57.48-.09-.09.58.48-.09-.09.57.48-.09-.09.57.48-.08-.09.57.48-.08-.09.57.48-.08-.09.57.48-.08-.09.57.48-.08-.09.57.48-.08-.09.57.48-.08-.09.57.48-.08-.09.57.48-.08-.09.57.48-.09-.09.58.48-.08-.09.57.48-.09-.09.57.48-.08-.09.58.48-.08-.09.57.48-.08-.09.57.48-.08-.09.57.48-.08-.09.57.48-.08-.09.57.48-.08-.09.57.48-.08-.09.57.48-.08-.09.57.48-.08-.09.57.48-.08-.09.57.48-.09-.09.57.48-.09-.09.58.48-.09-.09.57.48-.09-.09.57.48-.09-.09.57.48-.08-.09.57.48-.08-.09.57.48-.08-.09.57 3.25-.57 4.87-.86 21.75-3.84 3.28-.58 2.19-.38-.26-2.2-.39-3.31c-.46-3.93-.75-9.74-.75-14.81l-.51-43.81 2.33-.41c8.1-1.43 11.51-1.91 15.22-2.15l3.3-.21 2.2-.14V31.25l-.13.12zm-293.28 70.7-3.03-2.63c-9.59-8.34-18.75-13.83-29.7-17.82l-3.99-1.45v21.35l-3.21.3c-5.35.5-8.43.93-15.69 2.21l-2.14.38c-.18 6.57-.31 9.18-.74 13.3-1.77 16.22-7.24 28.32-17.72 39.23-6.3 6.59-12.43 11.03-24.3 17.59l-3.14 1.74-1.68-3.17c-3.41-6.42-5.66-9.19-11.5-14.11l-4.2-3.53 4.96-2.35c10.69-5.08 16.17-8.53 20.92-13.17 7.04-6.84 9.98-13.88 10.83-25.93.08-1.42.1-2.19.15-4.92l-16.77 2.96v9.73c0 5.46.11 8.38.43 11.19l.37 3.3-3.27.58-20.73 3.66-4.78.84.67-4.81c.44-3.16.65-6.83.65-11.53v-8.26l-.05.01c-8.03 1.42-9.48 1.67-15.68 3.32l-4.44 1.18V93.89l3.38-.15c4.97-.21 7.04-.48 15.85-2.03l.93-.16v-5.31c0-5.06-.09-7.41-.65-11.41l-.47-3.37 3.35-.59 20.73-3.66 4.58-.81-.45 4.63c-.44 4.44-.44 4.7-.44 11.29v4.52l17.18-3.03V79.3c0-6.62-.13-9.65-.52-12.02l-.57-3.44 3.44-.61 20.39-3.59 4.74-.83-.62 4.77c-.38 2.96-.42 3.24-.51 15.6l.25-.04c8.26-1.46 11.34-2.1 15.84-3.55l4.62-1.49v5.43l2.32-3.26L128.76 58l1.63-2.28 2.59 1.06c14.74 6.06 22.2 10.06 31.89 17.12l2.74 1.99-1.88 2.82-13.37 20.03-2.22 3.33zm67.91-28.13c-10.57 24.76-21.57 40.33-37.93 53.74-12.67 10.45-23.6 16.6-44.98 25.31l-1.95.79c-2.75 1.11-3.58 1.45-6.03 2.61l-3.77 1.78-1.14-4.01-5.89-20.71-.99-3.49 3.52-.9c11.32-2.88 22.79-7.65 33.18-13.79 13.78-8.12 23.63-18.16 31.94-32.59 4.5-7.66 7.54-14.26 10.82-23.55l1.89-5.36 3.97 4.08c5.11 5.25 7.33 6.88 15.84 11.62l2.78 1.55-1.26 2.92zm13.24 23.09-4.76.84.65-4.79c.56-4.12.65-8.15.65-16.19V54.45c0-7.04-.13-9.88-.66-14.43l-.38-3.3 3.28-.58 21.98-3.88 4.52-.8-.39 4.57c-.45 5.23-.55 7.24-.55 14.98v22.55c0 8.14.12 11.52.55 15.74l.33 3.26-3.23.57-21.99 3.9zm77.56-70.33c-.44 6.22-.56 7.9-.56 15.15v13.26c0 15.47-.91 27.01-2.72 34.32-3.57 13.6-11.7 25.01-24.85 34.86-6.66 5.03-13 8.65-24.21 13.83l-3.48 1.61-1.32-3.6c-2.44-6.67-4.94-10.42-10.7-16.02l-4.04-3.92 5.29-1.92c10.4-3.79 16.05-6.51 21.59-10.43 9.16-6.51 13.78-13.29 15.44-22.66.58-3.72 1.2-13.25 1.2-23.66V45.73c0-8.05-.1-10.29-.66-14.99l-.39-3.31 3.29-.58 21.98-3.88 4.45-.78-.31 4.51zm117.73-5.93v22.68l-3.3.22c-3.81.25-7.28.74-15.48 2.18l-4.3.76.53 45.78c0 5.15.3 11.08.77 15.09l.39 3.31-3.28.58-21.75 3.83-4.87.86.77-4.89c.61-3.89.86-7.78.86-13.43v-1.55l-.23-21.52v-1.14c-10.51 14.71-23.91 27.75-41.42 40.39l-3.17 2.29-1.95-3.39c-3.62-6.29-6.06-8.97-12.41-13.68l-4.08-3.02 4.26-2.77c19.45-12.67 32.47-24.7 42.22-39.19L344.6 56.9c-8.31 1.47-12.58 2.47-16.79 3.62l-4.46 1.22V34.29l3.31-.2c5.8-.35 9.94-.87 17.05-2.12l32.48-5.73-.05-2.62v-.07c0-4.32-.19-7.77-.66-12.32l-.34-3.27 3.24-.57 21.19-3.74 4.53-.8-.4 4.58c-.32 3.67-.44 5.54-.44 10.76v3.38l2.99-.53c7.69-1.36 11.22-2.17 15.72-3.64l4.63-1.51v4.88zM326.07 70.58v.6l.39-.11v.6l.39-.11v.6l.39-.11v.6l.39-.11v.6l.39-.11v.6l.39-.11v.59l.39-.11v.6l.39-.11v.6l.39-.11v.6l.39-.11v.6l.39-.11v.6l.39-.11v.6l.39-.11v.6l.39-.11v.59l.39-.11v.6l.39-.11v.6l.39-.11v.6l.39-.11v.15c-2.44 1.95-5.02 3.91-7.79 5.89.14-3.64.2-7.56.2-11.73v-3.57l.15-.04v.6l.42-.1z" style="fill:#2a3768"/><path class="st3" d="M89.15 83.38c.11-16.79.11-16.79.57-20.27l-20.39 3.6c.45 2.75.57 6.13.57 12.59v7.48l-24.24 4.28v-8.72c0-6.68 0-7.02.45-11.64l-20.73 3.66c.57 4.09.68 6.56.68 11.89v8.27l-3.85.68c-8.95 1.58-11.22 1.86-16.32 2.08v19.37c6.34-1.69 7.82-1.95 15.97-3.38l4.19-.74v12.46c0 4.99-.23 8.76-.68 12.02l20.73-3.66c-.34-3-.45-6.04-.45-11.59v-12.69l23.9-4.22c-.11 6.48-.11 7.27-.23 9.33-.9 12.85-4.19 20.79-11.9 28.27-5.1 4.98-10.88 8.6-21.86 13.83 6.12 5.15 8.72 8.32 12.35 15.16 11.44-6.32 17.33-10.53 23.45-16.94 9.97-10.37 15.07-21.58 16.77-37.17.46-4.39.57-6.9.79-15.89l4.99-.88c7.36-1.3 10.54-1.74 15.97-2.25V78.93c-4.65 1.5-7.82 2.17-16.31 3.67l-4.42.78zm29.47-5.08c11.33 4.12 20.96 9.9 30.81 18.47l13.37-20.03c-9.52-6.93-16.88-10.85-31.16-16.71L118.62 78.3zm35.23 40.01c-10.65 6.3-22.55 11.23-34.1 14.17l5.89 20.72c3.06-1.45 3.74-1.68 8.16-3.48 21.07-8.59 31.84-14.68 44.07-24.77 15.86-13 26.62-28.26 36.93-52.4-8.5-4.73-11.1-6.54-16.65-12.24-3.28 9.3-6.35 16.07-11.1 24.16-8.73 15.14-18.92 25.43-33.2 33.84"/><path class="st4" d="m165.74 78.7 1.88-2.82-2.74-2c-9.7-7.06-17.15-11.07-31.89-17.12l-2.59-1.06-1.63 2.28-13.03 18.27-2.32 3.26v-5.43l-4.61 1.49c-4.51 1.45-7.59 2.1-15.84 3.55l-.25.04c.09-12.36.12-12.64.51-15.6l.62-4.77-4.73.83-20.39 3.6-3.44.61.57 3.44c.39 2.36.52 5.39.52 12.02v4.52L49.2 86.84v-4.51c0-6.6 0-6.85.44-11.29l.46-4.63-4.58.81-20.73 3.66-3.35.59.47 3.37c.55 3.99.65 6.35.65 11.41v5.31l-.93.16c-8.81 1.55-10.89 1.82-15.85 2.03l-3.38.15v27.34l4.44-1.18c6.2-1.65 7.65-1.9 15.68-3.32l.05-.01v8.26c0 4.7-.2 8.36-.65 11.53l-.67 4.81 4.78-.84 20.73-3.66 3.27-.58-.37-3.3c-.32-2.81-.43-5.74-.43-11.19v-9.73L66 109.07c-.05 2.73-.07 3.49-.15 4.92-.85 12.05-3.78 19.09-10.83 25.93-4.76 4.64-10.23 8.09-20.92 13.17l-4.96 2.35 4.2 3.53c5.84 4.92 8.1 7.69 11.5 14.11l1.68 3.17 3.14-1.74c11.87-6.56 18-11 24.3-17.59 10.49-10.91 15.96-23.01 17.72-39.23.43-4.11.56-6.72.74-13.3l2.14-.38c7.26-1.28 10.34-1.71 15.69-2.21l3.2-.3V80.17l3.99 1.45c10.96 3.98 20.12 9.48 29.71 17.82l3.03 2.63 2.23-3.34 13.33-20.03zm-55.85 19.61c-5.44.51-8.61.95-15.98 2.25l-4.98.88c-.23 8.99-.34 11.5-.79 15.89-1.7 15.6-6.8 26.8-16.77 37.17-6.12 6.4-12.01 10.62-23.45 16.94-3.63-6.84-6.23-10.01-12.35-15.16 10.99-5.22 16.77-8.85 21.86-13.83 7.7-7.48 10.99-15.42 11.9-28.27.11-2.06.11-2.85.23-9.33l-23.9 4.22v12.69c0 5.55.11 8.59.45 11.59L25.37 137c.45-3.25.68-7.03.68-12.02v-12.46l-4.19.74c-8.16 1.44-9.63 1.7-15.98 3.38V97.27c5.1-.22 7.36-.51 16.31-2.08l3.85-.68v-8.27c0-5.32-.11-7.8-.68-11.89l20.73-3.66c-.45 4.61-.45 4.95-.45 11.64v8.72l24.24-4.28V79.3c0-6.46-.12-9.84-.57-12.59l20.39-3.6c-.45 3.48-.45 3.48-.57 20.27l4.42-.78c8.5-1.5 11.67-2.17 16.32-3.67v19.38zm52.91-21.57-13.37 20.03c-9.86-8.57-19.48-14.35-30.82-18.47l13.03-18.27c14.28 5.86 21.64 9.78 31.16 16.71"/><path class="st4" d="m200.68 57.85-3.97-4.08-1.89 5.36c-3.28 9.29-6.31 15.89-10.82 23.55-8.32 14.43-18.16 24.47-31.94 32.59-10.39 6.14-21.86 10.91-33.18 13.79l-3.52.89.99 3.49 5.89 20.71 1.14 4.01 3.77-1.78c2.45-1.16 3.28-1.5 6.03-2.61l1.95-.79c21.39-8.71 32.32-14.87 44.99-25.31 16.37-13.41 27.36-28.98 37.93-53.73l1.25-2.92-2.78-1.55c-8.51-4.74-10.73-6.37-15.84-11.62m14.12 14.7c-10.31 24.14-21.07 39.4-36.93 52.4-12.23 10.09-23 16.18-44.07 24.77-4.42 1.8-5.1 2.03-8.16 3.48l-5.89-20.72c11.56-2.94 23.45-7.88 34.1-14.17 14.28-8.41 24.47-18.7 33.2-33.84 4.76-8.09 7.82-14.86 11.1-24.16 5.55 5.71 8.16 7.51 16.65 12.24"/><path class="st3" d="m252.65 35.74-21.98 3.88c.57 4.89.68 7.93.68 14.84v22.43c0 8.5-.11 12.48-.68 16.66l21.98-3.88c-.45-4.45-.57-8.06-.57-16.1V51.03c0-7.93.12-9.99.57-15.29m31.38 9.99v11.78c0 9.86-.57 19.93-1.25 24.24-1.81 10.29-6.91 17.87-16.88 24.96-5.78 4.08-11.56 6.91-22.43 10.87 6.12 5.95 8.95 10.2 11.56 17.34 11.1-5.13 17.11-8.57 23.56-13.45 12.46-9.34 20.17-19.98 23.57-32.93 1.7-6.87 2.6-17.91 2.6-33.43V41.85c0-7.25.11-8.97.57-15.4l-21.98 3.88c.57 4.77.68 7.13.68 15.4"/><path class="st4" d="m282.74 26.85-3.29.58.39 3.31c.56 4.7.66 6.94.66 14.99v11.78c0 10.41-.62 19.94-1.2 23.66-1.66 9.37-6.28 16.15-15.44 22.66-5.55 3.91-11.2 6.64-21.59 10.43l-5.29 1.93 4.04 3.92c5.76 5.6 8.26 9.34 10.7 16.02l1.32 3.6 3.48-1.61c11.21-5.18 17.55-8.8 24.21-13.83 13.15-9.85 21.28-21.25 24.85-34.85 1.81-7.32 2.72-18.85 2.72-34.32V41.85c0-7.25.12-8.92.56-15.15l.32-4.51-4.45.79-21.99 3.87zm22.02 15v13.26c0 15.52-.91 26.56-2.61 33.43-3.4 12.95-11.1 23.6-23.57 32.93-6.46 4.88-12.46 8.32-23.56 13.45-2.61-7.13-5.44-11.39-11.56-17.34 10.88-3.96 16.66-6.79 22.43-10.87 9.97-7.09 15.07-14.67 16.88-24.96.68-4.31 1.25-14.38 1.25-24.24V45.73c0-8.27-.11-10.63-.68-15.4l21.98-3.88c-.44 6.43-.56 8.15-.56 15.4"/><path class="st4" d="m256.49 92.58-.33-3.26c-.43-4.23-.55-7.61-.55-15.75V51.03c0-7.74.1-9.75.55-14.98l.39-4.58-4.52.8-21.98 3.88-3.28.58.38 3.31c.53 4.55.66 7.39.66 14.43V76.9c0 8.04-.09 12.07-.65 16.19l-.65 4.79 4.76-.84 21.98-3.88 3.24-.58zm-3.84-2.91-21.98 3.88c.57-4.18.68-8.16.68-16.66V54.45c0-6.91-.11-9.95-.68-14.84l21.98-3.88c-.45 5.29-.57 7.35-.57 15.28v22.55c0 8.06.12 11.66.57 16.11"/><path class="st3" d="M399.71 25.79V18.2c0-5.21.11-7.16.45-11.07l-21.19 3.74c.45 4.34.68 7.92.68 12.68l.11 5.64-35.46 6.25c-7.25 1.28-11.56 1.81-17.45 2.17V57.1c4.65-1.27 9.18-2.3 17.11-3.69l23.34-4.12c-10.43 18.04-24.59 32.09-47.47 47.01 6.8 5.03 9.52 8.07 13.37 14.75 21.19-15.29 36.03-30.94 47.13-49.55-.11 4.21-.11 5.8-.11 8.63v4.53l.23 21.49v1.59c0 5.55-.23 9.67-.9 13.98l21.75-3.84c-.45-3.89-.79-9.83-.79-15.49l-.57-48.73 7.25-1.28c8.04-1.42 11.78-1.96 15.86-2.23V20.77c-4.53 1.48-8.16 2.35-16.2 3.76l-7.14 1.26z"/><path class="st4" d="m406.24 21.05-2.99.53V18.2c0-5.22.12-7.1.44-10.76l.4-4.58-4.53.8-21.19 3.74-3.24.57.34 3.27c.48 4.55.66 8 .66 12.31v.08l.05 2.62-32.48 5.73c-7.11 1.25-11.25 1.77-17.05 2.12l-3.32.2v27.43l4.46-1.22c4.21-1.15 8.48-2.16 16.79-3.62l15.54-2.74c-9.74 14.49-22.76 26.52-42.22 39.19l-4.26 2.77 4.08 3.02c6.35 4.7 8.79 7.39 12.41 13.68l1.95 3.39 3.17-2.29c17.51-12.64 30.91-25.67 41.42-40.39v1.14l.23 21.52v1.55c0 5.65-.25 9.54-.86 13.43l-.77 4.89 4.87-.86 21.75-3.83 3.28-.58-.39-3.31c-.47-4.01-.77-9.93-.77-15.09l-.53-45.78 4.3-.76c8.19-1.44 11.67-1.94 15.48-2.18l3.3-.21V15.9l-4.63 1.51c-4.48 1.47-8 2.29-15.69 3.64m16.81 19.09c-4.08.27-7.82.81-15.86 2.23l-7.25 1.28.57 48.73c0 5.66.34 11.61.79 15.49l-21.75 3.83c.68-4.31.9-8.43.9-13.98v-1.59l-.23-21.49v-4.53c0-2.83 0-4.42.11-8.63-11.1 18.61-25.94 34.26-47.13 49.55-3.85-6.68-6.57-9.72-13.37-14.75 22.89-14.91 37.05-28.97 47.47-47.01l-23.34 4.12c-7.93 1.4-12.46 2.42-17.11 3.69V37.61c5.89-.36 10.2-.89 17.45-2.17l35.46-6.25-.11-5.64c0-4.76-.23-8.34-.68-12.68l21.19-3.74c-.34 3.91-.45 5.86-.45 11.07v7.59l7.14-1.26c8.04-1.42 11.67-2.28 16.2-3.76v19.37z"/></svg>