<svg version="1.1" id="Layer_1" xmlns="http://www.w3.org/2000/svg" x="0" y="0" viewBox="0 0 141.25 141.25" style="enable-background:new 0 0 141.25 141.25" xml:space="preserve"><style>.st3{fill:#fff}.st4{fill:#2a3768}</style><path d="M141.25 70.63c0 39.01-31.62 70.63-70.63 70.63C31.62 141.25 0 109.63 0 70.63 0 31.62 31.62 0 70.63 0c39 0 70.62 31.62 70.62 70.63" style="fill:#718484"/><path d="M122.35 63.35c-1.24-2.1-2.89-3.87-4.47-5.75-1.57-1.92-3.05-3.73-4.63-5.52-3.61-4.14-6.54-7.16-7.37-8.15-.69-.83-1.05-1.38-1.12-1.67-.84-.39-2.53-1.56-5.03-3.23-1.67-1.09-4.13-2.55-7.22-3.76-1.54-.61-3.23-1.15-5.02-1.58-1.8-.42-3.7-.82-5.61-1.18-3.82-.73-7.75-1.24-11.36-1.33-3.62-.11-6.9.24-9.42.72-4.75.91-8.8 2.45-12.39 4.09-3.58 1.67-6.71 3.46-9.63 5.28-.36.23-.72.46-1.08.68-.36.23-.74.45-1 .66-.57.43-.85 1.02-1.31 1.82-.44.79-1.11 1.49-1.72 2.05-.64.58-1.21 1.07-1.75 1.67-2.21 2.36-4.04 5.05-5.64 8.14-1.16 2.21-2.15 4.42-3.22 6.52-1.04 2.11-2.25 4.07-3.39 5.89-1.11 1.85-2.27 3.58-2.87 5.39-.62 1.84-.94 3.76-1.26 5.64-.69 3.79-1.25 7.31-1.53 10.82-.09 1.74-.45 3.57.18 4.79.64 1.31 2.07 2.27 3.44 3.32 1.38 1.03 2.76 2.02 4.26 2.79 1.5.78 3.11 1.38 4.81 1.85.76.21 1.54.39 2.33.56 0-.81.07-1.58.29-2.24.09-.28.24-.58.45-.84-.15-.38-.13-.9-.09-1.38.03-.32.07-.63.08-.87.02-.6.07-1.22.33-1.77.05-.1.12-.22.24-.23.31.34.48.77.65 1.19.32.8.64 1.59.95 2.39.21.06.42.13.59.21.96.48 1.6 1.12 2.18 1.73.95 1.07 1.66 2.13 2.31 3.23.57-.24 1.17-.43 1.81-.53.24-.04.47-.05.7-.06-.96-.69-1.84-1.49-2.6-2.39-2.13-2.54-3.36-5.74-3.95-9.01-1.31.32-2.62.63-3.93.95.2-3.57 1.3-7.08 3.17-10.12l-4.39.24c.59-2.09 1.83-3.83 3.27-5.43-.02 0-.04-.01-.05-.01-2.75-.68-5.39-1.81-7.77-3.34-.83-.53-1.72-1.29-1.65-2.27 2.75-.38 5.48-.98 8.14-1.8.65-.2 1.4-.48 2.17-.7 1.41-2.59 3.57-4.07 5.8-4.36.23-.04.47-.07.7-.09.12-.2.25-.39.38-.58 2.32-3.4 4.5-6.89 6.55-10.46.31-.54.88-1.16 1.42-.87.42.23.42.81.37 1.29-.02.18-.04.35-.05.53-.38 3.82-.51 7.67-.39 11.51.01.26.02.52.04.78.02.01.03.02.05.03.43.3.92.65 1.42 1.05 1 .81 2.01 1.85 2.87 2.89.87 1.04 1.55 2.11 1.99 2.93.1.21.2.4.28.56.09.2.17.41.21.55.08.3.08.42.02.4a.619.619 0 0 1-.11-.09c.01.02.03.05.04.07-.01 0-.01.01-.02.01h.06c.07.02-.04.17-.47.48-.42.27-.91.52-1.6.81-1.35.57-3.27 1.13-5.35 1.55-.43.09-.88.18-1.32.26-.05.26-.1.49-.11.64-.35 3.6-.08 6.34.33 9.89.38 3.28 1.39 6.46 2.07 9.69.17-.09.36-.17.56-.2.05-.01.1-.01.15-.01.07-.32.21-.67.37-.99.14-.29.29-.57.39-.79.24-.55.5-1.12.94-1.53.08-.08.19-.16.31-.13.17.42.18.89.18 1.35l.04 2.71v.15c.08.06.17.12.24.18 1.31 1.27 1.79 2.84 2.23 4.51.14.64.26 1.31.34 2.01 3.73.3 7.68.46 11.96.45 6.13-.01 11.85-.19 18-.64 1.07-.08 2.13-.18 3.2-.27-1.09-.34-2.52-.88-2.74-.95-1.03-.33-2.11-.57-3.19-.78-1.96.58-4.02.95-6.02 1.26-4.5.68-9.6 1.31-13.9-.08-.95.35-1.96.68-3.12.93-.75.16-1.52.3-2.28.21.14-.95.85-1.68 1.4-2.46.12-.18.23-.37.34-.55-.88-.67-1.7-1.46-2.42-2.46-4.84-6.64 2.48-22.03 6.99-27.94 5.85-7.67 11.87-8.42 19.21.64 2.26 2.79 4.23 5.75 6.17 8.76 2.13 3.3 3.12 6.73 3.48 10.72.11 1.19.15 2.41-.19 3.55-.31 1.04-.93 1.97-1.65 2.79-1.04 1.18-2.28 2.12-3.63 2.87.42.68.92 1.31 1.52 1.84.51.45 1.13.93 1.28 1.56 1.09-.09 2.18-.17 3.27-.27.01-.82.07-1.6.16-2.37.08-.6.2-1.21.42-1.84.22-.62.54-1.28 1.13-1.84.04-.04.08-.06.12-.1l-.03-2.67c0-.46-.01-.92.15-1.35.11-.03.22.04.31.12.45.4.73.96.98 1.51.1.22.26.49.41.77.13.25.25.51.34.76.09.01.18.01.28.03.63.14 1.05.6 1.3.96.15.22.26.42.35.62.5-2.1.83-4.23 1.07-6.52.52-4.86.12-8.96-1.22-15.43-.31-.05-.62-.09-.92-.14-2.34-.39-4.39-.91-5.82-1.47-.73-.28-1.24-.53-1.66-.79-.37-.25-.48-.38-.46-.43-.01 0-.02-.01-.02-.01l.03-.06c-.01-.05.01-.15.05-.35.08-.34.26-.75.48-1.23a19.4 19.4 0 0 1 2.35-3.68c.98-1.21 2.23-2.47 3.73-3.54.05-.29.09-.56.11-.81.11-1.45.17-2.9.2-4.35.04-2.27.09-4.52.23-6.77.07-1.12.16-2.25.29-3.38 2.36 2.19 2.76 5.74 4.38 8.52.52.88 1.16 1.69 1.63 2.61.23.45.52 1.11.75 1.82.29.01.57.03.85.1.62.1 1.25.19 1.9.45 1.27.48 2.39 1.31 3.29 2.37.5.58.93 1.22 1.3 1.93.61.23 1.18.55 1.82.73 2.52.74 5.15 1.09 7.77 1.03.02.41-.22.8-.5 1.1-.7.77-1.65 1.21-2.56 1.68-.92.47-1.51 1.03-2.27 1.65-.93.75-2.15 1.09-3.34 1.29-.16.4-.38.81-.71 1.19 1.05 1.41 2.57 3.56 3.04 4.56.86 1.82 1.39 5.36 1.32 7.37-1.49-.9-2.6-1.42-3.88-1.5.73 2.2 1.06 6.87.96 9.57.27-.73.54-1.46.81-2.2.16-.43.32-.87.62-1.21.12.01.19.12.25.23.27.54.33 1.16.37 1.76.01.24.06.55.1.87.06.52.09 1.07-.09 1.47.16.2.3.4.39.59.27.57.35 1.12.41 1.62.01.09 0 .18.01.28.21-.07.43-.15.64-.22 1.86-.67 3.68-1.3 5.42-2.11 1.76-.79 3.46-1.69 5.06-2.73 1.37-.9 2.69-1.93 3.59-3.19.21-.24.3-.52.45-.76.11-.26.18-.49.26-.76.1-.59.23-1.15.3-1.69.06-.55.14-1.07.18-1.59.03-.52.06-1.04.08-1.55.03-2.06-.11-4.13-.62-6.8-.5-2.62-1.38-5.86-2.62-8.99-1.23-3.14-2.77-6.17-4.21-8.5m-70.56 47.72a.17.17 0 0 0 0 .1c.08 1.17.21 2.34.05 3.31-.09.39-.17.9-.43 1.32-.1.22-.28.4-.41.59-.18.16-.32.33-.49.44-.63.46-1.26.62-2.02.93-1.2.45-2.74.85-4.63 1.17-.95.15-1.98.29-3.11.28-1.12.02-2.34-.08-3.57-.45-1.02-.3-2.07-.8-3.01-1.49-.95-.68-1.81-1.54-2.59-2.36-.62-.66-1.24-1.43-1.72-2.12-.23-.35-.44-.71-.55-1.01l-.07-.2v-.04c.11-.07.29-.17.45-.23.27-.13.53-.27.69-.44.05-.06.07-.12.1-.18.27.95.54 1.75.76 2.3.42 1.09 1.07 1.52 1.38 1.38.33-.15.35-.74-.09-1.87-.58-1.52-.99-3.15-1.3-4.78-.29-1.62-.5-3.32-.36-4.83.03-.4.14-.75.26-1.03.15-.28.28-.35.45-.37.41-.06 1.23.42 1.82 1.02 1.24 1.23 2.2 2.77 2.92 4.06.22.39.71.54 1.11.34l.02-.01c1.59-.81 2.97-.76 4.03-.71 1.51.11 3.06.59 4 1.3l.01.01c.36.28.88.21 1.16-.15.09-.12.15-.27.16-.41.18-1.57.33-3.21.78-4.64.08-.27.23-.5.37-.65.15-.14.25-.17.5-.14.25.05.55.2.84.36.23.15.44.34.62.54.74.88 1.14 2 1.44 3.07.3 1.09.46 2.24.52 3.53.01.66 0 1.36-.09 2.06zm61.07-1.11c.09.09.2.17.34.25.14.09.47.2.72.34.01.04-.03.15-.06.27-.3.91-1.06 2.15-1.92 3.15-.97 1.14-2.56 2.59-3.74 3.3-1.21.74-1.98.83-3.37 1.09-.43.07-.87.12-1.31.14-1.01.05-2.06 0-3.1-.08-1.41-.12-2.82-.32-4.1-.74-1.23-.41-2.38-1.21-2.92-2.3-.31-.6-.38-1.33-.48-2.15-.1-.81-.21-1.62-.34-2.43-.32-2.03-.45-3.74-.31-5.35.11-1.57.44-3.02 1.22-3.74.34-.32 1.09-.68 1.26-.59.1.01.21.09.36.27.14.21.28.46.38.77.45 1.21.66 2.68.86 4.23.05.41.43.7.84.64.14-.02.27-.08.37-.16l.02-.01c1.02-.83 3.62-1.79 6.44-1.37.61.11 1.17.3 1.67.53l.02.01c.35.17.77.02.94-.32.67-1.29 1.36-2.53 2.34-3.7.88-1.08 2.69-2.62 3.18-.77.35 1.14.22 3.4-.08 5.44-.3 2.07-.84 4.02-1.21 5.02-.35 1-.34 1.67-.05 1.88.27.2.89-.16 1.35-1.41.27-.72.49-1.46.68-2.21m-6.02-12c.81.63 1.68 1.18 2.58 1.67-.35.24-.68.51-.97.79-1.26 1.28-2.12 2.68-2.8 3.94-.47-.17-.9-.28-1.31-.35 1.43-1.7 2.26-3.85 2.5-6.05m-77.68 13.66c0-.01.01-.02.02-.03-.03.02-.05.03-.02.03" style="fill:#e1d29d"/><path d="m78.54 96.92.01-.02a.45.45 0 0 1 .59-.21c.09.05.17.12.21.21.81 1.72 1.48 3.18 1.89 4.17-1.17-5.7-1.78-9.46-3.26-16.21-.26 1.13-.64 2.6-1.06 4.2-.07.26-.33.41-.59.35a.49.49 0 0 1-.34-.33l-.01-.03c-.38-1.26-.79-2.59-1.18-3.9-.35 1.15-.65 2.15-.87 2.86-.04.13-.09.28-.31.99-.12.37-.51.57-.87.46a.704.704 0 0 1-.45-.44c-.14-.39-.58-1.66-1.44-4.11-.65 1.7-1.2 3.08-1.69 4.26l-.01.03c-.14.34-.53.5-.87.36a.689.689 0 0 1-.39-.43c-.43-1.49-.86-3-1.29-4.5l-.19.6c-.06.18-.11.37-.17.56-.23.73-.64 2.04-1.09 3.49v.01a.46.46 0 0 1-.88-.01c-.51-1.79-1.07-3.81-1.43-5.26-.11 1.41-.32 3.52-.58 5.95-.42 3.88-.97 8.53-1.51 12.54h.16c.25-.74 1.32-2.88 2.7-5.45a.51.51 0 0 1 .92.04l.02.04c.53 1.25 1.09 2.62 1.63 3.98.23-.39.45-.77.67-1.15.51-.85.99-1.67 1.7-2.85a.719.719 0 0 1 1.3.14c.36 1.05.76 2.2 1.32 3.84.42-.71.94-1.58 1.51-2.54.32-.54.66-1.11 1.02-1.71l.01-.01c.19-.31.59-.42.91-.23.13.08.22.19.27.32.52 1.28 1.09 2.67 1.67 4.07.68-1.42 1.36-2.81 1.97-4.08" style="fill:#b94d3b"/><path class="st3" d="M135.06 62.53c.01 0 .01.01.02.01-.01.01-.02.01-.04.02-.97.6-2.23 1.14-3.56 1.76-.68.32-1.37.61-2.14 1.09-.1.06-.2.13-.32.23-.09.11-.32.18-.41.7-.01.16.04.41.09.49.04.08.09.17.14.25.09.13.17.22.26.33.33.36.66.64.99.93.51.45 1.05.9 1.5 1.37h-.01c-1.47 0-3-.14-4.46-.14a53.127 53.127 0 0 0-3.42-6.65c-1.06-1.83-2.32-3.45-3.56-5.05.19-.47.41-.93.61-1.39 1.86-4.15 2.39-8.75 2.9-13.27l.42-3.76c.1-.91.21-1.82.38-2.71.16-.8.37-1.59.47-2.4.12-.91.09-1.83.05-2.75-.03-.69-.24-1.53-1.14-1.43-.35.04-.67.24-.97.43-1.46.93-2.93 1.88-4.05 3.19-.58.68-1.05 1.44-1.58 2.15-.61.82-1.3 1.57-1.99 2.32-.96 1.05-1.93 2.1-2.89 3.15-1.06 1.15-2.11 2.35-2.76 3.76-1.79-1.64-3.26-2.63-4.07-3-.09-.04-.16-.06-.23-.09-.29-.56-1.45-1.82-3.86-3.55.16-.18.32-.37.48-.55.7-.8 1.41-1.55 2.18-2.21.77-.68 1.59-1.15 2.56-1.72.93-.56 1.84-1.14 2.75-1.74 1.36-.91 2.78-1.92 4.19-3.02 1.4-1.09 2.78-2.23 4.16-3.26 1.37-1.03 2.75-1.94 4.09-2.62.67-.33 1.33-.62 1.97-.84.32-.12.63-.2.93-.29.14-.04.31-.09.37-.1.05.05.13.16.22.31l.43.66c.27.44.54.87.81 1.3.52.86.99 1.71 1.41 2.58.85 1.74 1.4 3.49 1.69 5.54.24 1.56.3 3.9.41 5.51.2 3.34.19 5.9-.22 9.22-.27 2.22-.68 4.73-1.07 6.94-.1.57-.2 1.31-.28 2.06-.06.74-.17 1.51-.06 2.23.05.34.16.68.36 1 .19.31.43.52.67.72.48.36.98.6 1.54.8.43.15.88.28 1.32.41.23.07.41.13.64.22.24.08.48.16.73.25.45.19.94.38 1.35.61M17 70.74c1.47-2.6 3.19-5.02 4.58-7.74.84-1.59 1.66-3.39 2.59-5.3-.75-1.65-1.29-3.39-1.8-5.12-.48-1.62-.93-3.24-1.37-4.88-.23-.86-.46-1.73-.56-2.61-.11-.9-.09-1.81-.15-2.72-.22-3.11-1.44-6.19-.92-9.27.05-.27.11-.56.29-.77.25-.3.69-.39 1.07-.31.38.07.72.28 1.04.5 2.03 1.41 3.79 3.27 5.63 4.92 1.91 1.71 3.82 3.42 5.72 5.13.42.38.85.77 1.17 1.24.24-.39.46-.84.81-1.36.4-.62 1.06-1.16 1.61-1.48 2.82-1.81 5.78-3.53 8.84-5.08-.42-.4-.95-.8-1.71-1.19-1.03-.55-2.2-1.18-3.39-1.82-2.39-1.26-4.86-2.67-6.45-3.39-1.49-.71-2.87-.97-4.25-1.22-1.36-.24-2.7-.58-3.83-1.15-1.13-.55-2.08-1.17-3.06-1.65s-2.01-.86-3.14-1.15c-.81-.2-1.6-.33-2.37-.4-.38-.03-.76-.05-1.13-.06h-.55c-.06 0-.12 0-.16.01 0 .01 0 .01-.01.02-.03.1-.06.3-.09.48-.06.35-.12.7-.17 1.05-.11.69-.23 1.35-.33 2-.46 2.59-.58 4.92-.62 7.3-.03 4.74.41 9.58 1.63 16.81.36 2.07.59 4.13.98 6.12.11.44.24.91.33 1.42.08.51.17 1.09-.09 1.79-.11.35-.46.7-.73.86-.25.16-.5.28-.74.38-.48.2-.94.33-1.36.48-.22.07-.38.13-.61.23l-.67.25c-.43.16-.85.32-1.25.49-.41.17-.81.36-1.15.56l-.24.15c.09.06.18.12.29.18.27.15.57.3.86.44.6.29 1.21.56 1.83.83.54.24 1.08.48 1.63.74.45.23.83.4 1.25.78.05.04.12.13.18.19.07.1.15.24.16.37.02.13.03.28.02.39-.02.09-.05.17-.08.25-.12.3-.26.46-.4.63-.54.63-1.11 1.08-1.76 1.76-.16.17-.33.34-.48.52-.05.06-.11.12-.16.19.17.02.36.03.54.04.76.02 1.55-.01 2.28-.05.15-.25.3-.52.45-.78m71.42 5.79c.32.04.94.2 1.61.32 1.38.27 3.29.55 5.35.74 4.12.42 8.82.39 11.03.27.16-.01.34-.01.54-.02.18-.02.28-.02.42-.07.25-.08.49-.23.73-.7.47-.92.54-3.02-.55-5.39-.6-1.27-1.34-2.2-2.11-2.88-.8-.67-1.59-1.09-2.57-1.27-1.92-.45-4.1-.36-6.76 1.11-.26.16-.61.38-1.02.63-.39.27-.84.59-1.31.95-.94.73-1.92 1.68-2.8 2.62-.88.94-1.62 1.9-2.18 2.6-.14.18-.27.34-.38.48-.09.11-.17.18-.26.26-.18.15-.32.29-.38.31-.02.01-.03-.01-.04-.04l-.03.06c.01 0 .02.01.02.01 0-.01 0-.02.01-.02.07-.02.37.01.68.03m-35.75-.85c-.7-.78-1.69-1.87-2.93-2.98-1.24-1.11-2.73-2.25-4.37-3.09-1.63-.85-3.4-1.33-5-1.33-.51.05-1.02-.01-1.51.14-.5.1-1 .18-1.42.36-.86.35-1.67.96-2.34 1.79-.69.82-1.25 1.87-1.64 3.09-.36 1.19-.59 2.69-.2 3.96.12.37.3.68.52.88.25.2.43.28.95.3 1.16.04 2.39.05 3.63.02 2.49-.04 5.04-.23 7.34-.5 2.29-.27 4.32-.62 5.76-.94.71-.15 1.32-.31 1.68-.37.29-.03.55-.07.68-.07.01 0 .01-.01.02-.01-.01-.02-.03-.05-.04-.07-.08-.07-.18-.17-.31-.3-.2-.17-.47-.48-.82-.88m34.14-17.32c.12.73.1 1.48-.01 2.21-.07.46-.19.92-.34 1.37-.34 1.01-.85 1.97-1.6 2.72-1.65 1.63-4.48 1.98-6.12.17-.93-1.03-1.01-2.09-.74-3.38.27-1.3 1.07-1.49 2.2-2.07.97-.51 1.73-1.08 2.28-2.06.41-.72.73-1.51 1.29-2.12.11-.12.24-.25.41-.3.33-.11.69.1.95.32.91.8 1.48 1.95 1.68 3.14m-24.02 1.58c-.05-.06-.09-.11-.14-.16-.52-.54-1.23-.85-1.9-1.2a13.85 13.85 0 0 1-3.31-2.43c-.32-.32-.66-.67-1.1-.79-.62-.16-1.29.23-1.64.77-.35.54-.44 1.21-.49 1.85-.2 2.75-.09 5.95 2.46 7.6 2.05 1.32 5.25.83 6.48-1.41.61-1.11.62-2.52.03-3.63-.11-.21-.24-.42-.39-.6m11.56 46.65c2-.3 4.05-.68 6.02-1.26-.62-.12-1.24-.24-1.85-.35-3.35-.6-7.66-.21-11.55-.11-2.6.07-4.43.87-6.52 1.63 4.3 1.4 9.39.77 13.9.09m10.39-3.03c-.68-1.12-1.14-2.39-1.44-3.67-.49-2.07-.86-3.72-1.18-5.81-.28-1.79-.8-4.15-.86-5.95-.02-.63-.42-1.48-.54-2.11-.16-.85-.03-1.35-.06-2.22-.03-.93.2-1.86.52-2.73.31-.85.7-1.66 1.17-2.43.07-.12.15-.25.11-.38-.08-.23-.42-.2-.65-.12-1.73.63-3.39 1.49-5.18 1.93-1.36.34-2.76.43-4.16.49-2.18.09-4.38.11-6.54-.23-1.09-.17-2.16-.44-3.18-.85-1.05-.42-1.91-1.14-2.97-1.53-.12-.04-.28-.08-.36.02-.04.05-.06.12-.06.19-.05.65.27 1.27.49 1.88.75 2.17.72 4.33.43 6.56-.22 1.66-.58 3.41-.61 5.09-.01.53.15 1.02.12 1.55-.05.83-.26 1.67-.42 2.49l-.36 1.85c-.25 1.3-.71 2.56-.95 3.84-.22 1.12-.64 2.23-1.23 3.22-.88-.67-1.7-1.46-2.42-2.46-4.84-6.64 2.48-22.03 6.99-27.93 5.85-7.67 11.87-8.42 19.21.64 2.26 2.79 4.23 5.75 6.17 8.76 2.13 3.3 3.12 6.73 3.48 10.72.11 1.19.15 2.41-.19 3.55-.31 1.04-.93 1.97-1.65 2.79-1.1 1.16-2.33 2.09-3.68 2.85m25.23-14.31c1.28.08 2.38.61 3.88 1.5.07-2.02-.45-5.55-1.32-7.37-.47-1-1.99-3.15-3.04-4.56-.1.11-.2.23-.32.33-.59.57-1.59.81-2.24.8-.7.02-1.43.02-2.16.02v.08c.17 3.92-.54 8-3.19 11.06-.56.64-1.33 1.26-2.16 1.1-.2-.06-.22-2.59-.17-2.88.19-.95.1-1.86 0-2.82-.17-1.56-.33-3.12-.5-4.68-.06-.57-.12-1.15-.28-1.7-.05-.19-.12-.38-.18-.57-.58-.07-1.15-.14-1.71-.23 1.34 6.47 1.74 10.57 1.22 15.43-.24 2.29-.57 4.42-1.07 6.52.07.15.14.3.2.45.45 1.12.66 2.18.82 3.23.44-.21.89-.37 1.35-.52.88-.27 1.79-.44 2.75-.53.57-.05 1.2-.06 1.95.01.17.02.36.04.55.08 1.42-1.7 2.25-3.85 2.49-6.04.81.63 1.68 1.18 2.58 1.67.12-.08.23-.17.36-.24.3-.18.67-.33 1.09-.41.02-.05.04-.11.06-.16.1-2.7-.23-7.37-.96-9.57m-64.96-8.57c.01-.15.06-.38.11-.64-.26.05-.51.09-.77.13-.22 2.11-.46 4.22-.4 6.33.02.58.06 1.15.12 1.72.25 2.43.8 4.82 1 7.25.03.33.01.73-.27.89-1.89-1.21-3.05-3.25-4.14-5.2-.73-1.3-1.28-2.52-1.82-3.88-.38-.97-.76-1.94-1.04-2.93-.28-.97-.34-1.92-.48-2.91-.03-.19-.07-.37-.11-.55-.8.03-1.51.04-2.07.02-.17 0-.35 0-.57-.01-.23-.02-.6-.02-.97-.14-.37-.09-.78-.3-1.16-.59-.36-.31-.7-.7-.93-1.16-.01-.03-.02-.06-.04-.09-.02-.01-.04-.01-.06-.01-1.44 1.6-2.68 3.34-3.27 5.43l4.39-.24a21.797 21.797 0 0 0-3.17 10.12c1.31-.32 2.62-.63 3.93-.95.58 3.26 1.82 6.46 3.95 9.01.76.9 1.64 1.7 2.6 2.39 1.33-.1 2.55.05 3.6.29.72.18 1.36.4 1.94.67.13-1.21.3-2.35.67-3.51.13-.38.3-.77.56-1.16.17-.26.46-.52.8-.7-.68-3.23-1.69-6.41-2.07-9.69-.41-3.56-.68-6.29-.33-9.89"/><path class="st3" d="M74.17 98.75c.37.84.91 2.07 1.53 3.46-1.35.02-2.53.04-3.58.06.92-1.57 1.59-2.73 2.05-3.52m-9.53-11.43c.42-1.56.87-3.17 1.32-4.72.01-.03.03-.05.04-.08-1.13-.05-2.05-.11-2.58-.17h-.51c.01.1.01.24.01.44.39.89 1.01 2.53 1.72 4.53m2.23 15.05c.8-.01 1.84-.03 3.19-.06-.43-1.25-.78-2.31-1.09-3.27-.66 1.04-1.34 2.1-2.1 3.33m-5.69.14c1.65-.04 3.09-.08 4.21-.1-.13-.37-.3-.82-.48-1.32-.21-.58-.57-1.58-.97-2.72-1.09 1.73-2.21 3.46-2.76 4.14m20.17-.39c-.44-.61-1.32-2.09-2.34-3.91-.56 1.32-1.15 2.68-1.7 3.97.89-.02 1.85-.03 2.87-.05.42 0 .81 0 1.17-.01M67.96 84.64c.21.68.42 1.36.66 2.11l1.57-4.08c-.47-.01-.94-.02-1.4-.04-.52-.02-1.01-.03-1.49-.05v.01l.01.02c.22.68.44 1.37.65 2.03m9.8-.81c-.07-.31-.15-.67-.23-1.07-.68 0-1.41 0-2.19-.01.01.02.02.03.02.05.39 1.55.79 3.09 1.15 4.53.5-1.46.93-2.67 1.25-3.5m-4.81 2.88c.42-1.28.86-2.61 1.29-3.94l.01-.02c0-.01.01-.01.01-.02-.88-.01-1.77-.02-2.67-.04.22.64.68 2 1.2 3.53.04.16.1.33.16.49"/><path class="st4" d="M74.85 73.97c-.89-.17-1.82-.45-2.72-.47-.9-.02-1.81-.03-2.71-.07-.83-.04-1.66.02-2.47.17-.21.04-.42.08-.63.13-.4.1-.85.26-1.01.64-.21.49.17 1.03.57 1.39a6.725 6.725 0 0 0 4.24 1.71c2.04.07 4.05-.82 5.59-2.16.08-.07.17-.15.22-.25.14-.26 0-.61-.24-.79-.24-.18-.55-.24-.84-.3m-6.74-35.15c.03.26-.57.53-1.39.78-.27.24-.73.51-1.3.71-.44.16-.93.3-1.43.42-.11.3-.27.6-.44.87.78-.23 2.05-.34 3.03-.19.15.02.29.05.5.08h.01a1.132 1.132 0 0 1 .78 1.74c-.41.62-.86 1.29-1.58 2.28-1.03 1.39-2.94 3.78-3.53 3.33-.29-.22.02-1.21.43-2.17-.12-.02-.22-.04-.28-.07-.08-.04-.25-.11-.61-.26-.37-.17-.35-.57-.7-.74-.15-.08-.56-.43-.41-.93.13-.52 1.12-.87 1.57-.63.29.14.54.26.89.52.14.11.29.24.44.38v-.01c.14-.23.43-.69 1.07-1.7.02-.04.04-.06.06-.09-.01 0-.03-.01-.04-.01-.45-.07-1.82-.41-2.22-.82-.34.36-.66.71-1.13 1.27-.7.79-1.81 2.48-2.48 2.18-.6-.26-.02-2.34.4-2.93.11-.16.29-.52.84-1.24.16-.2.32-.35.47-.47h-.01c-.37.03-.84.08-1.14.15l-.08.02a1.119 1.119 0 0 1-.66-2.13c.03-.01.08-.03.12-.04h.02c.45-.17 1.17-.4 2.04-.55 1.25-.23 2.95-.32 4.32-.27 1.33.03 2.38.16 2.44.52m2.29 9.46c-.37-.26-1.29-.07-1.59.35-.3.43.07.92.2 1.01.33.23.25.62.58.84.31.2.46.27.53.32.23.16 1.21.36 1.59-.16.43-.61-.17-1.36-.54-1.73-.32-.32-.53-.46-.77-.63m5.83-.08c-.6-.29-.95-.37-1.33-.48-.6-.16-1.56.24-1.76.71-.19.5.55.93.77.99.53.16.64.56 1.13.69.45.12.63.17.72.21.16.06.5.1.85.11.35 0 .73-.02.94-.27.24-.28.15-.7-.17-1.09-.31-.39-.8-.7-1.15-.87m-9.82.71c-.28-.3-1.18-.35-1.6-.04-.42.32-.18.92-.06 1.05.28.32.12.69.44.99.29.27.44.37.51.43.22.22 1.24.54 1.63.01.44-.59-.05-1.35-.33-1.75-.24-.32-.41-.49-.59-.69m-5.54 1.97c.33-.36.5-.6.7-.86.3-.4.28-1.39-.09-1.75-.39-.36-1.01.07-1.14.23-.32.39-.73.33-1.02.75-.26.39-.35.59-.41.67-.22.31-.44 1.52.14 1.82.66.34 1.41-.44 1.82-.86m8.46-7.65c.14.26.37.54.7.65.35.1.52-.11.5-.26 0-.09-.03-.18-.02-.26.02-.11 0-.03.05-.12.02-.02.08-.08.13-.11.02-.02.05-.04.07-.06.04-.04.07-.1.11-.16.15-.37.21-.92.23-1.27.04-.61 0-.96-.02-1.37-.04-.62-.78-1.5-1.29-1.51-.53 0-.66.85-.64 1.09.04.59-.32.83-.26 1.42.06.54.08.78.1.9 0 .23.1.59.34 1.06m4.34 3.89c.75.09 1.21-2.45 1.22-3.9.03-1.21-.04-1.92-.11-2.73-.12-1.26-1.02-2.88-1.53-2.81-.52.07-.51 1.64-.47 2.08.11 1.07-.21 1.52-.13 2.54.07.96.09 1.39.1 1.6.04.74.3 3.14.92 3.22m-42.16 31.9c.24.46.58.85.94 1.16.38.29.78.5 1.16.59.36.12.73.12.97.14.21 0 .4 0 .57.01.55.01 1.26.01 2.06-.02.04.18.09.36.11.55.14.99.2 1.94.48 2.91.29 1 .67 1.97 1.04 2.93.54 1.37 1.1 2.58 1.82 3.89 1.09 1.96 2.26 3.99 4.14 5.2.28-.17.3-.57.27-.89-.2-2.43-.75-4.82-1-7.25-.06-.57-.1-1.15-.12-1.72-.06-2.1.18-4.22.4-6.33.26-.04.51-.08.77-.13.44-.08.89-.16 1.32-.26 2.08-.43 4-.99 5.35-1.55.69-.29 1.18-.54 1.6-.81.43-.31.54-.46.47-.48h-.06c-.12 0-.39.04-.68.07-.35.06-.97.22-1.68.37-1.44.32-3.46.67-5.76.94-2.29.27-4.85.45-7.34.5-1.24.03-2.47.01-3.63-.03-.53-.02-.71-.09-.95-.29-.22-.2-.4-.52-.52-.88-.39-1.28-.16-2.77.2-3.96.39-1.22.95-2.27 1.64-3.09.68-.83 1.48-1.43 2.34-1.79.42-.18.92-.26 1.42-.36.49-.14 1-.08 1.51-.14 1.6 0 3.37.48 5 1.33 1.63.84 3.13 1.98 4.37 3.09 1.24 1.11 2.23 2.2 2.93 2.98.35.41.62.71.81.89.14.13.23.23.31.3.04.04.09.08.11.09.06.02.06-.1-.02-.4-.04-.14-.11-.35-.21-.55-.08-.17-.18-.36-.28-.56-.44-.82-1.12-1.89-1.99-2.93-.86-1.04-1.88-2.08-2.87-2.89-.5-.4-.99-.75-1.42-1.05-.02-.01-.03-.02-.04-.03-.01-.26-.03-.52-.04-.78-.12-3.84.01-7.69.39-11.51.02-.18.03-.35.05-.53.05-.47.05-1.06-.37-1.29-.54-.29-1.11.33-1.42.87-2.05 3.57-4.23 7.06-6.55 10.46-.13.19-.26.38-.38.58-.24.03-.47.06-.7.1-2.23.29-4.39 1.78-5.8 4.36-.77.22-1.52.5-2.17.7-2.66.82-5.38 1.42-8.14 1.8-.07.98.82 1.74 1.65 2.27a25.893 25.893 0 0 0 7.82 3.35c.02.01.04.01.06.01.04 0 .05.03.06.06m66.96 1.11c.16.55.22 1.13.28 1.7.17 1.56.33 3.12.5 4.68.1.96.19 1.88 0 2.82-.06.29-.03 2.81.16 2.88.83.16 1.61-.46 2.16-1.1 2.65-3.06 3.35-7.13 3.19-11.06v-.08c.74 0 1.46 0 2.17-.02.65.02 1.66-.23 2.24-.8.12-.11.22-.22.32-.33.33-.38.55-.79.71-1.19 1.19-.21 2.41-.54 3.34-1.29.77-.62 1.36-1.18 2.27-1.65.91-.47 1.86-.91 2.56-1.68.28-.31.52-.69.5-1.1-2.62.06-5.25-.3-7.77-1.03-.64-.19-1.22-.5-1.82-.73-.37-.71-.81-1.36-1.3-1.93-.9-1.06-2.02-1.89-3.29-2.37-.65-.26-1.28-.35-1.9-.45-.28-.07-.57-.09-.85-.1-.23-.71-.52-1.37-.75-1.82-.47-.91-1.11-1.72-1.63-2.61-1.62-2.78-2.02-6.33-4.38-8.52-.13 1.13-.22 2.25-.29 3.38-.14 2.25-.19 4.5-.22 6.77-.02 1.45-.08 2.9-.2 4.35-.02.24-.06.52-.11.81a19.19 19.19 0 0 0-3.73 3.53c-1.11 1.38-1.89 2.7-2.35 3.68-.22.49-.4.89-.48 1.23-.05.19-.06.3-.05.35 0 .03.01.05.03.04.06-.02.2-.16.38-.31.09-.08.17-.15.26-.26.11-.14.24-.3.38-.48.55-.7 1.29-1.67 2.18-2.6.88-.94 1.86-1.89 2.8-2.62.47-.36.92-.68 1.31-.95.41-.25.75-.47 1.02-.63 2.66-1.47 4.85-1.56 6.76-1.11.98.18 1.77.6 2.57 1.27.77.68 1.52 1.61 2.11 2.88 1.09 2.37 1.02 4.47.55 5.39-.23.46-.48.62-.73.7-.13.05-.23.05-.42.07-.2.01-.38.02-.54.02-2.21.12-6.91.14-11.03-.27-2.06-.19-3.97-.47-5.35-.74-.68-.12-1.29-.28-1.61-.32-.31-.02-.61-.04-.68-.03-.01 0-.01.02-.01.02-.02.05.09.18.46.43.42.25.93.51 1.66.79 1.43.56 3.48 1.07 5.82 1.47.3.05.61.09.92.14.56.08 1.13.16 1.71.23.05.17.12.36.17.55"/><path class="st4" d="M136.73 62.3c-.1-.36-.27-.51-.4-.65-.27-.25-.51-.38-.75-.51-.96-.49-1.8-.72-2.72-1.06-.91-.29-1.79-.51-2.43-.92-.33-.21-.5-.39-.57-.64-.09-.29-.1-.68-.06-1.12.18-2.1.58-4.05.91-6.17.6-3.65.92-6.83.9-9.63 0-2.8-.16-5.25-.33-7.68-.09-1.22-.22-2.46-.51-3.72-.29-1.27-.77-2.52-1.37-3.76-.6-1.24-1.34-2.47-2.16-3.75-.21-.32-.42-.64-.63-.98-.1-.15-.21-.35-.43-.58-.18-.23-.66-.5-1.06-.47-.39.01-.57.09-.78.14-.21.06-.42.12-.64.18-.42.14-.85.28-1.27.46-4.77 1.99-7.3 5.07-12.82 8.93-.74.52-1.7 1.16-2.76 1.84-.54.33-1.1.68-1.67 1.03-.59.35-1.21.77-1.76 1.22-1.1.91-2.01 1.95-2.78 2.84-.13.15-.24.28-.36.42-2.55-1.65-5.28-3.06-8.15-4.11-1.47-.55-2.98-1-4.51-1.35-1.51-.35-3.02-.67-4.54-.98-6.06-1.21-12.32-2-18.58-1.37-4.7.46-9.61 1.82-14.32 3.8-1.13.48-2.25.99-3.36 1.52-.34-.35-.71-.73-1.16-1.04-.49-.35-.98-.62-1.45-.87l-2.8-1.53-5.63-3.07c-.73-.38-1.51-.75-2.35-1.06-.85-.32-1.76-.53-2.62-.7-.87-.17-1.72-.32-2.51-.55-.79-.22-1.51-.54-2.24-.94-1.44-.81-3.02-1.76-4.59-2.25-1.55-.53-3.05-.77-4.34-.84-.57-.03-1.11-.04-1.67-.02-.16.01-.42.02-.72.18s-.49.44-.58.65c-.18.45-.18.68-.23.93-.18 1.01-.36 1.99-.53 2.98-.4 1.95-.55 3.98-.55 6.11 0 1.63-.05 3.96.09 5.6.25 3.37.55 5.93 1.03 9.27.33 2.22.79 4.71 1.08 6.91.07.56.2 1.29.32 2.02.06.35.14.78.24 1.11.09.34.17.65.22.91.1.5.11.95.01 1.2-.05.12-.09.17-.16.2-.11.08-.32.18-.53.27-.34.15-.75.28-1.2.43-.23.08-.48.16-.72.27-.22.09-.45.17-.68.26-.49.19-1 .39-1.53.64-.54.26-1.09.5-1.7 1.01l-.24.25c-.08.12-.17.23-.23.4-.05.21-.13.37 0 .74.1.21.22.33.31.42.36.31.66.46.98.63.63.33 1.28.61 1.96.9.67.29 1.37.59 2.07.92.34.17.7.34.99.53.02.01.03.02.05.04-.32.43-.88.94-1.43 1.44-.28.27-.57.53-.87.85-.15.16-.29.32-.45.55l-.11.17c-.04.09-.08.17-.11.26-.03.06-.07.23-.06.4 0 .08.01.17.02.25.03.11.1.24.17.34.27.31.49.35.63.4.16.05.28.07.4.09.24.04.46.05.67.06.42.02.82.01 1.22 0l.65-.03c-.26.65-.47 1.32-.65 1.98-.39 1.44-.65 2.87-.89 4.28-.48 2.78-1.03 5.64-1.33 8.54-.16 1.45-.29 2.92-.37 4.41-.04.73-.1 1.53.03 2.39.12.86.52 1.72 1.05 2.38.8 1.04 1.91 1.84 2.99 2.64 1.09.81 2.24 1.67 3.47 2.43 2.49 1.55 5.29 2.47 7.6 3.01.55.13 1.1.24 1.64.35.08.78.21 1.58.34 2.37.15.8.33 1.58.51 2.3-.09-.08-.2-.16-.34-.24-.14-.05-.37-.13-.72-.14-.59-.6-1.17-1.2-1.76-1.8-.32-.33-.65-.66-1.06-.85-.1.06-.13.19-.13.31-.03.6.16 1.19.38 1.76.08.22.16.53.26.84.1.32.22.65.38.92-.01.03-.03.05-.04.08-.22.77.04 1.35.27 1.79.44.73.98 1.21 1.51 1.68.52.45 1.03.89 1.5 1.4.53.56 1.2 1.27 1.93 1.92.74.65 1.58 1.19 2.29 1.53 1.47.64 2.26 1.01 3.85 1.23.49.07.98.08 1.47.12 1.12.02 2.24-.01 3.35-.14 1.52-.17 2.98-.47 4.46-.88 1.45-.44 3-1.01 4.22-2.33.69-.77 1.04-1.79 1.15-2.7.11-.93.06-1.79-.01-2.64-.02-.31-.05-.61-.06-.78.08-.77.09-1.49.07-2.18.36.03.7.06 1.07.09 6.47.47 13.8.4 20.2.19 3.27-.09 8.54-.48 11.81-.73 1.64-.13 3.08-.23 4.52-.33.11 1.78.52 3.72.68 5.41.04.44.12 1.04.31 1.67.2.63.54 1.23.85 1.62.6.78 1.15 1.32 2 1.78 1.36.7 3.02 1.01 5 1.18 1.96.11 4.34.32 7.14-.48 1.15-.33 2.36-.96 3.4-1.77 1.04-.8 1.93-1.74 2.68-2.6.62-.72 1.25-1.31 1.93-2.06.32-.39.65-.78.9-1.33.13-.27.24-.61.26-1.03.01-.21-.04-.45-.12-.68.16-.28.27-.62.37-.95.09-.31.16-.62.24-.84.2-.57.38-1.17.33-1.77-.01-.12-.04-.25-.14-.3-.41.2-.73.54-1.04.88-.56.6-1.12 1.21-1.68 1.81-.13.01-.25.02-.36.04-.2.04-.35.1-.48.17.13-.57.24-1.14.34-1.71.18-1.13.33-2.27.37-3.44 1.36-.48 2.73-.98 4.18-1.53 1.84-.72 3.69-1.58 5.57-2.62.94-.52 1.88-1.09 2.8-1.75.92-.65 1.84-1.38 2.66-2.3.41-.46.8-.97 1.09-1.56.18-.27.26-.63.37-.95.11-.33.13-.61.19-.92.13-.6.22-1.22.27-1.84.08-.62.11-1.25.14-1.89.23-5.6-1.18-11.79-3.43-17.41.76.02 1.63.08 2.49.13.6.02 1.2.05 1.81.02.16-.01.31-.02.48-.05.08-.01.18-.04.28-.07l.19-.08c.1-.06.17-.1.27-.23.06-.08.1-.17.13-.26.02-.08.01-.09.02-.14 0-.08 0-.16-.01-.24-.02-.18-.07-.22-.11-.34-.09-.21-.18-.29-.27-.43-.74-.83-1.3-1.24-1.84-1.76-.27-.25-.54-.49-.79-.75-.07-.07-.13-.14-.19-.21.32-.2.77-.42 1.16-.61 1.21-.57 2.47-1.08 3.74-1.72.45-.25.84-.4 1.38-.89l.11-.12c.05-.07.09-.14.13-.21.04-.06.09-.25.1-.38-.03-.14-.05-.21-.07-.31M14.28 71.59c-.19-.01-.37-.02-.54-.04.05-.06.1-.13.16-.19.16-.18.33-.35.48-.52.65-.68 1.22-1.14 1.76-1.76.14-.17.27-.33.4-.63.03-.08.05-.17.08-.25.02-.11.01-.26-.02-.39-.01-.13-.1-.27-.16-.37-.05-.07-.13-.16-.18-.2-.43-.38-.8-.55-1.25-.78-.55-.27-1.09-.5-1.63-.74-.62-.27-1.24-.55-1.83-.83-.3-.14-.59-.29-.86-.44-.1-.06-.2-.12-.29-.18.07-.05.16-.1.24-.16.34-.2.75-.39 1.15-.56.41-.17.83-.34 1.26-.49l.67-.25c.23-.1.39-.15.61-.23.42-.14.88-.28 1.36-.48.24-.1.49-.22.74-.38.26-.16.61-.52.73-.86.26-.71.17-1.29.09-1.79-.09-.51-.22-.98-.33-1.42-.38-1.99-.62-4.05-.98-6.12-1.22-7.24-1.66-12.08-1.63-16.81.04-2.37.16-4.7.62-7.3.11-.65.22-1.32.33-2 .06-.34.11-.69.17-1.05.03-.17.06-.38.09-.47 0-.01 0-.01.01-.02.04 0 .09 0 .16-.01h.55c.37 0 .75.02 1.13.06.77.07 1.56.2 2.37.4 1.13.29 2.16.67 3.14 1.15.98.48 1.94 1.1 3.06 1.65 1.13.58 2.47.91 3.83 1.15 1.38.25 2.76.51 4.25 1.22 1.58.72 4.05 2.13 6.45 3.39 1.19.64 2.36 1.27 3.39 1.82.76.38 1.29.79 1.71 1.19-3.05 1.55-6.01 3.27-8.84 5.08-.55.33-1.21.86-1.61 1.48-.34.52-.56.96-.81 1.36-.32-.47-.75-.86-1.17-1.24-1.9-1.71-3.81-3.42-5.72-5.13-1.84-1.64-3.6-3.51-5.63-4.92-.32-.22-.66-.43-1.04-.51-.38-.07-.82.02-1.07.31-.18.21-.25.5-.29.77-.52 3.07.7 6.16.92 9.27.06.91.04 1.82.15 2.72.1.88.33 1.75.56 2.61.44 1.63.9 3.25 1.37 4.88.51 1.74 1.05 3.47 1.8 5.12-.93 1.9-1.74 3.7-2.59 5.29-1.38 2.72-3.1 5.14-4.58 7.74-.15.26-.3.53-.44.81-.75.04-1.54.07-2.3.05m14.88 40.03c-.03.01-.01-.01.02-.03-.01 0-.01.02-.02.03m22.68 2.86c-.09.39-.17.91-.43 1.32-.1.23-.28.4-.41.59-.18.16-.32.33-.49.44-.63.46-1.26.62-2.02.93-1.2.45-2.74.85-4.64 1.17-.95.15-1.98.29-3.1.28-1.12.02-2.34-.08-3.57-.45-1.02-.3-2.07-.8-3.01-1.49-.95-.68-1.81-1.54-2.59-2.36-.62-.66-1.24-1.43-1.72-2.12-.23-.35-.44-.71-.55-1.01l-.07-.2v-.04c.11-.07.29-.17.45-.23.27-.13.53-.28.69-.44.05-.06.07-.12.1-.18.27.95.54 1.75.76 2.3.42 1.09 1.07 1.51 1.38 1.38.33-.15.35-.74-.09-1.87-.58-1.52-.99-3.15-1.3-4.78-.29-1.62-.5-3.32-.36-4.83.03-.4.14-.75.26-1.03.15-.28.28-.35.45-.37.41-.06 1.23.42 1.82 1.02 1.24 1.23 2.2 2.77 2.92 4.06.22.39.71.54 1.11.34l.02-.01c1.58-.81 2.97-.76 4.03-.71 1.51.11 3.06.59 4 1.31l.01.01c.36.28.88.21 1.16-.15.09-.12.15-.26.16-.41.18-1.57.33-3.21.78-4.64.08-.27.23-.5.37-.65.15-.14.25-.17.5-.14.25.05.55.2.84.36.23.15.44.34.62.54.74.88 1.15 2 1.45 3.07.3 1.1.46 2.24.52 3.53a13 13 0 0 1-.08 2.06v.01a.17.17 0 0 0 0 .1c.06 1.15.18 2.32.03 3.29m62.11-3.96zm-.74-.31c.14.09.47.2.72.34.01.04-.03.15-.06.27-.3.91-1.06 2.15-1.92 3.15-.97 1.14-2.56 2.59-3.74 3.3-1.21.74-1.98.83-3.37 1.09-.43.07-.87.12-1.31.14-1.01.05-2.06 0-3.1-.08-1.41-.12-2.82-.32-4.1-.74-1.23-.41-2.38-1.21-2.92-2.3-.31-.6-.38-1.33-.48-2.15-.1-.81-.21-1.62-.34-2.44-.32-2.03-.45-3.74-.31-5.35.11-1.57.44-3.02 1.22-3.74.34-.32 1.09-.68 1.26-.59.1.01.21.09.36.27.14.21.28.46.39.77.44 1.21.66 2.68.86 4.23.05.41.43.7.84.64.14-.02.27-.08.37-.16l.02-.01c1.02-.83 3.62-1.79 6.44-1.37.61.11 1.17.3 1.67.53l.02.01c.35.17.76.02.94-.32.67-1.29 1.36-2.53 2.34-3.7.88-1.08 2.69-2.62 3.18-.77.35 1.14.22 3.4-.08 5.44-.3 2.07-.84 4.02-1.21 5.02-.35 1-.34 1.67-.05 1.88.27.2.89-.16 1.35-1.41.26-.74.48-1.48.67-2.22.08.11.2.2.34.27m15.97-29.37c.51 2.67.65 4.74.62 6.8-.03.51-.06 1.02-.08 1.55-.04.52-.12 1.05-.18 1.6-.07.55-.2 1.1-.3 1.69-.08.27-.15.5-.26.76-.16.24-.24.52-.46.76-.9 1.26-2.22 2.29-3.59 3.19-1.6 1.04-3.3 1.94-5.06 2.73-1.74.81-3.57 1.44-5.42 2.11-.21.08-.43.15-.64.22-.01-.09 0-.18-.01-.28-.06-.5-.14-1.05-.41-1.62-.09-.2-.23-.4-.39-.59.18-.39.15-.95.09-1.47-.04-.32-.09-.63-.1-.87-.04-.6-.1-1.22-.37-1.76-.05-.1-.13-.21-.24-.22-.3.34-.46.78-.62 1.21-.27.73-.54 1.46-.81 2.2-.02.05-.04.1-.06.16-.42.07-.79.23-1.09.41-.13.07-.24.16-.36.24-.36.24-.68.51-.97.79-1.26 1.28-2.12 2.68-2.8 3.93-.47-.17-.9-.28-1.31-.35-.19-.03-.37-.06-.55-.08-.75-.07-1.38-.07-1.95-.01-.97.08-1.88.26-2.75.53-.46.15-.91.31-1.35.52-.15-1.05-.37-2.11-.82-3.23-.06-.14-.12-.29-.2-.45-.09-.2-.2-.41-.35-.62-.25-.37-.66-.83-1.3-.96-.1-.02-.19-.02-.28-.03-.08-.26-.21-.51-.34-.76-.15-.29-.31-.56-.41-.77-.25-.55-.53-1.11-.98-1.51-.09-.08-.2-.15-.31-.12-.16.43-.15.9-.15 1.35l.03 2.67c-.04.03-.08.06-.12.1-.59.56-.91 1.23-1.13 1.84-.22.63-.34 1.23-.42 1.84-.1.78-.15 1.56-.16 2.37-1.08.1-2.18.18-3.27.27-.16-.62-.77-1.11-1.28-1.56-.6-.53-1.11-1.16-1.53-1.85-.68-1.12-1.14-2.39-1.44-3.67-.49-2.06-.86-3.72-1.19-5.81-.28-1.79-.8-4.15-.86-5.95-.02-.63-.42-1.48-.54-2.11-.16-.85-.03-1.35-.06-2.22-.03-.93.2-1.86.52-2.74.31-.85.7-1.66 1.17-2.43.07-.12.15-.25.11-.38-.08-.24-.42-.2-.65-.12-1.73.63-3.39 1.49-5.18 1.93-1.36.34-2.76.43-4.16.49-2.18.09-4.38.11-6.54-.23-1.09-.17-2.16-.44-3.18-.85-1.05-.42-1.91-1.14-2.97-1.53-.12-.04-.28-.08-.36.02-.04.05-.06.12-.06.19-.05.65.27 1.27.49 1.88.75 2.17.72 4.33.43 6.56-.22 1.66-.58 3.41-.61 5.09-.01.53.15 1.02.12 1.55-.05.83-.26 1.67-.42 2.49L59 97.58c-.25 1.3-.71 2.56-.95 3.84-.22 1.12-.64 2.23-1.23 3.22-.11.19-.22.38-.34.55-.55.78-1.26 1.52-1.4 2.46.76.09 1.53-.05 2.28-.21 1.16-.25 2.16-.58 3.12-.93 2.09-.75 3.92-1.55 6.52-1.63 3.89-.11 8.19-.49 11.55.11.61.11 1.23.22 1.85.35 1.08.21 2.16.45 3.19.78.23.07 1.65.6 2.74.95-1.07.09-2.12.19-3.2.27-6.15.45-11.87.62-18 .63-4.27.01-8.23-.16-11.96-.45-.08-.69-.19-1.37-.34-2.01-.43-1.67-.92-3.24-2.23-4.51l-.24-.18v-.15l-.04-2.71c-.01-.46-.02-.92-.18-1.35-.11-.03-.22.05-.31.13-.44.42-.7.98-.94 1.53-.09.22-.24.49-.39.79-.16.32-.3.66-.37.99-.05 0-.1 0-.15.01-.2.03-.39.11-.56.2-.34.18-.63.45-.8.7-.26.39-.43.78-.56 1.16-.38 1.16-.54 2.31-.67 3.51-.57-.27-1.21-.49-1.94-.67-1.05-.24-2.27-.39-3.6-.29-.23.02-.46.03-.7.06-.64.1-1.23.29-1.81.53-.65-1.09-1.35-2.15-2.31-3.22-.58-.61-1.21-1.25-2.17-1.73-.18-.08-.38-.15-.59-.21-.32-.8-.64-1.59-.95-2.39-.17-.42-.35-.86-.65-1.19-.12.01-.19.13-.24.23-.26.54-.31 1.16-.33 1.77-.01.24-.05.55-.08.87-.04.48-.06.99.09 1.38-.21.27-.36.56-.45.84-.22.67-.29 1.43-.29 2.24-.79-.17-1.57-.35-2.33-.56-1.7-.47-3.31-1.07-4.81-1.85-1.5-.77-2.88-1.76-4.26-2.79-1.38-1.04-2.81-2.01-3.44-3.32-.63-1.22-.27-3.04-.18-4.79.28-3.51.84-7.03 1.53-10.82.32-1.88.64-3.8 1.26-5.64.6-1.8 1.76-3.54 2.87-5.38 1.15-1.83 2.35-3.79 3.39-5.89 1.07-2.1 2.06-4.3 3.22-6.52 1.59-3.08 3.43-5.78 5.64-8.14.54-.6 1.11-1.09 1.75-1.67.61-.55 1.28-1.26 1.72-2.05.45-.8.74-1.4 1.31-1.82.27-.21.65-.43 1-.67l1.08-.69c2.91-1.81 6.04-3.61 9.63-5.28 3.59-1.64 7.64-3.19 12.39-4.09 2.53-.48 5.8-.83 9.42-.72 3.61.09 7.54.61 11.36 1.33 1.91.36 3.81.76 5.61 1.18 1.79.42 3.48.97 5.02 1.58 3.09 1.21 5.55 2.67 7.22 3.77 2.5 1.67 4.2 2.84 5.04 3.23.07.3.42.85 1.12 1.67.82.99 3.75 4.02 7.37 8.15 1.58 1.79 3.05 3.6 4.63 5.52 1.58 1.88 3.23 3.65 4.47 5.75 1.44 2.33 2.98 5.36 4.2 8.5 1.19 3.14 2.07 6.38 2.58 9m-54.3 16.1a.697.697 0 0 0-.27-.32.668.668 0 0 0-.91.23l-.01.01c-.36.6-.7 1.17-1.02 1.71-.57.95-1.09 1.82-1.51 2.53-.56-1.63-.96-2.78-1.32-3.84a.728.728 0 0 0-1.31-.14c-.7 1.18-1.19 2-1.7 2.85-.22.37-.44.76-.67 1.15-.54-1.36-1.1-2.73-1.63-3.98l-.02-.04a.51.51 0 0 0-.92-.04c-1.38 2.58-2.45 4.71-2.7 5.45h-.16c.54-4 1.1-8.65 1.51-12.54.26-2.42.47-4.54.58-5.95.36 1.45.91 3.47 1.43 5.26.04.14.15.27.3.31.24.08.5-.06.58-.3v-.01c.46-1.45.86-2.76 1.09-3.49.06-.19.12-.38.17-.56l.19-.6c.43 1.5.86 3.01 1.29 4.5.05.19.19.35.39.43.34.14.73-.02.87-.36l.01-.03c.49-1.18 1.04-2.56 1.69-4.26.86 2.46 1.3 3.72 1.44 4.11.07.2.23.37.45.44.37.12.76-.09.87-.45.22-.71.27-.86.31-.99.22-.71.52-1.71.87-2.86.4 1.31.8 2.64 1.18 3.9l.01.03a.483.483 0 0 0 .93-.02c.42-1.6.8-3.07 1.06-4.2 1.48 6.75 2.09 10.51 3.26 16.21-.41-1-1.07-2.46-1.89-4.17a.429.429 0 0 0-.21-.21.434.434 0 0 0-.59.2l-.01.02c-.61 1.26-1.3 2.66-2 4.09-.54-1.4-1.11-2.79-1.63-4.07m.82 5.28c-1.35.02-2.53.04-3.58.06.92-1.58 1.59-2.74 2.05-3.53.37.84.91 2.07 1.53 3.47m-5.64.1c-1.35.02-2.38.04-3.19.06.76-1.24 1.43-2.29 2.09-3.33.31.96.67 2.02 1.1 3.27m-4.67.08c-1.12.03-2.57.06-4.21.1.55-.68 1.67-2.4 2.76-4.14.41 1.14.76 2.14.97 2.72.18.5.35.96.48 1.32m-2.48-20.06h.51c.53.06 1.45.12 2.58.17-.01.03-.03.05-.04.08-.45 1.54-.89 3.16-1.31 4.72-.71-1.99-1.33-3.64-1.72-4.54-.01-.18-.01-.33-.02-.43m4.39.23c.48.02.97.04 1.49.05.46.01.93.03 1.4.04-.65 1.69-1.15 2.99-1.58 4.08l-.65-2.11c-.21-.66-.43-1.34-.65-2.04l-.01-.02m4.28.13c.9.02 1.8.03 2.67.04 0 .01-.01.01-.01.02l-.01.02c-.44 1.33-.87 2.65-1.29 3.94-.05-.16-.11-.33-.16-.49-.52-1.53-.98-2.89-1.2-3.53m3.76.05c.78.01 1.52.01 2.19.01.09.4.16.76.23 1.08-.32.82-.75 2.04-1.25 3.5-.37-1.44-.76-2.98-1.15-4.53 0-.03-.02-.04-.02-.06m3.67 15.47c1.02 1.81 1.89 3.29 2.34 3.91-.37 0-.76.01-1.17.01-1.02.02-1.98.04-2.87.05.56-1.29 1.14-2.65 1.7-3.97m56.03-35.66c-.97.6-2.23 1.14-3.56 1.76-.68.32-1.37.62-2.14 1.09-.1.06-.2.13-.32.23-.09.11-.32.18-.41.7-.01.16.04.41.08.49.04.08.09.17.14.25.09.13.17.22.26.33.33.36.66.64.99.94.51.45 1.05.9 1.5 1.37h-.02c-1.46 0-3-.14-4.46-.14a53.127 53.127 0 0 0-3.42-6.65c-1.06-1.83-2.32-3.45-3.56-5.05.19-.47.41-.93.61-1.39 1.86-4.15 2.39-8.75 2.9-13.27l.42-3.76c.1-.91.21-1.82.38-2.71.16-.8.37-1.59.47-2.4.12-.91.09-1.83.06-2.75-.03-.69-.24-1.53-1.14-1.43-.35.04-.67.24-.97.43-1.45.93-2.93 1.88-4.05 3.19-.58.68-1.05 1.44-1.58 2.15-.61.82-1.3 1.57-1.99 2.32-.97 1.05-1.93 2.1-2.89 3.15-1.06 1.15-2.11 2.35-2.76 3.76-1.79-1.64-3.26-2.63-4.07-3-.09-.04-.16-.06-.23-.09-.29-.56-1.45-1.82-3.86-3.55.16-.18.32-.37.48-.55.7-.8 1.4-1.56 2.17-2.21.77-.68 1.6-1.15 2.56-1.72a75.807 75.807 0 0 0 6.94-4.76c1.4-1.09 2.78-2.23 4.16-3.26 1.37-1.03 2.75-1.94 4.09-2.62.67-.33 1.33-.62 1.97-.84.32-.12.63-.2.93-.29.14-.04.31-.09.37-.1.05.05.13.16.22.31l.43.66c.27.44.54.87.81 1.3.52.86.99 1.71 1.41 2.58.85 1.74 1.4 3.49 1.69 5.54.24 1.56.3 3.9.41 5.51.2 3.34.19 5.9-.22 9.22-.27 2.22-.68 4.73-1.07 6.94-.1.57-.2 1.31-.28 2.06-.06.74-.17 1.51-.06 2.23.05.34.16.68.36 1 .19.31.43.52.67.72.48.36.98.6 1.54.8.43.15.88.28 1.31.41.23.07.41.13.65.21.24.08.48.16.73.25.47.16.96.35 1.37.58.01 0 .01.01.02.01-.02.04-.03.04-.04.05"/></svg>