<svg version="1.1" id="Layer_1" xmlns="http://www.w3.org/2000/svg" x="0" y="0" viewBox="0 0 122.39 134.64" style="enable-background:new 0 0 122.39 134.64" xml:space="preserve"><style>.st0{fill:#2a3189}</style><path class="st0" d="M53.09 4.84c-.16 1.32.5 2.47.76 3.4.08.25.12.45.17.73.06.29.13.58.19.87.14.6.3 1.24.5 1.95.13.48.35 1.27.76 2.92.29 1.2.68 2.83 1.07 4.59.38 1.72.63 3.61.77 5.36.14 1.75.18 3.37.2 4.54.01 1.18.01 1.91.01 1.91l-.07 5.63c-.09 3.18.22 7.11-.13 9.62-.16 1.08-.36 1.98-.49 2.72-.13.73-.23 1.26-.29 1.63-.19 1.04-.31 1.92-.37 2.75l-.04.61c-.02.22-.02.45-.02.66.01.41.05.78.05 1.12.07.18-.26.6-.26 1.12l.33-.13c-.21-.06-.41-.26-.45-.57-.11.28-.04.67.21.91l.33-.13c.14-.3.5-.4.76-.96.19-.42.29-.83.4-1.19.12-.38.23-.74.35-1.11.24-.81.45-1.69.65-2.74.07-.36.17-.89.3-1.6.13-.71.34-1.62.51-2.81.39-2.95.05-6.74.15-9.88.04-3.17.06-5.64.06-5.64s0-.75-.01-1.94c-.02-1.2-.05-2.85-.2-4.67-.14-1.82-.41-3.8-.81-5.62-.39-1.78-.78-3.41-1.08-4.64-.42-1.68-.64-2.48-.78-2.98-.21-.73-.42-1.37-.65-1.96-.11-.29-.23-.57-.35-.84-.12-.27-.28-.6-.46-.85-.72-1.06-1.59-1.56-2.07-2.78z"/><path class="st0" d="M44.66 50.95c.82.99 1.37 1.89 2.18 2.74.4.43.88.84 1.46 1.21.55.34 1.13.67 1.82 1.01.48.21 1.23.63 2.97 1.18.55.18 1.54.41 2.36.51.82.12 1.51.15 1.51.15s.57.04 1.31.04c.74.01 1.64-.06 2.28-.16 2.48-.38 3.82-1.19 4.51-1.54 1.4-.77 2.32-1.58 3.11-2.41.79-.83 1.43-1.7 2.19-2.74-2.34 1.11-3.78 2.06-6.23 3.43-.61.3-1.8 1-3.87 1.31-.55.08-1.35.14-2.01.14-.66 0-1.18-.03-1.18-.03s-.62-.03-1.36-.15c-.75-.1-1.57-.29-2.07-.44-1.53-.48-2.25-.87-2.69-1.07-.64-.3-1.21-.56-1.81-.84-.5-.22-.97-.47-1.44-.74-.9-.5-1.84-1.1-3.04-1.6z"/><path class="st0" d="M48.18 37.21c-2.26-1.24-3.44-2.36-6.22-3.67-.38-.17-.95-.44-1.69-.71-.37-.12-.78-.26-1.21-.4-.45-.15-.91-.3-1.37-.45-.6-.24-1.24-.28-1.87-.43-.63-.13-1.26-.25-1.9-.38l-.96-.19c-.37-.07-.76-.1-1.13-.1-1.49 0-2.8.38-4.05.55-.64.1-1.32.18-2.02.32-.72.14-1.39.33-2.07.53-1.35.42-2.67.94-3.96 1.51-1.26.56-2.6 1.11-3.9 1.88-.64.38-1.29.81-1.89 1.34-.59.51-1.11 1.06-1.6 1.6-.5.55-.95 1.02-1.48 1.55-.53.54-1.04 1.1-1.52 1.68-.48.57-.95 1.16-1.41 1.74l-.69.87c-.24.3-.48.62-.7.94-.9 1.29-1.62 2.62-2.34 3.97-1.45 2.79-2.29 5.88-2.83 8.91C.79 61.3.31 64.39.11 67.53-.11 70.67.04 73.88.46 77c.41 3.13 1.05 6.22 1.88 9.25.22.76.35 1.4.5 2.2.14.76.35 1.61.62 2.37.54 1.53 1.13 2.91 1.7 4.37.57 1.44 1.15 2.87 1.72 4.3.58 1.42 1.17 2.75 1.73 4.19.29.71.59 1.43.94 2.12.36.67.72 1.34 1.07 2.01.36.67.71 1.34 1.07 2 .33.63.75 1.41 1.23 2.03 3.53 4.73 6.86 9.49 10.55 13.78.46.54.99 1.06 1.38 1.51.41.49.81 1.04 1.27 1.6.46.55.96 1.12 1.61 1.6.59.42 1.13.78 1.73 1.16.3.18.6.36.92.53.31.17.73.34 1.08.44.73.22 1.43.31 2.08.39 1.22.14 2.53.42 3.87.47.68.05 1.33-.04 1.99-.08l.97-.08.41-.04c.12-.01.25-.01.39-.01.28 0 .6.01.95-.01.38-.02.69-.08 1-.12.62-.1 1.22-.23 1.81-.37 1.18-.3 2.27-.57 3.42-.96 1.12-.39 2.16-.85 3.15-1.27 2.01-.89 3.81-1.74 5.56-1.9 1.8-.15 3.58.04 5.05.59.74.27 1.43.62 2.04 1.03.32.22.56.4.91.67.36.28.73.5 1.07.69.7.38 1.26.71 1.93 1.06.64.33 1.33.61 1.93.81 1.15.41 2.23.8 3.24 1.04.98.26 2 .3 2.63.3 1.35.01 2.06-.02 2.06-.02s.72-.01 2.06-.12a37.782 37.782 0 0 0 4.05-.56c.58-.11 1.19-.27 1.82-.47 1.26-.41 2.62-1.04 3.93-2 .16-.12.32-.25.49-.37.19-.15.39-.35.54-.53.32-.38.52-.7.71-.91.49-.5 1.18-1.12 1.79-1.81.31-.35.62-.74.9-1.18.13-.2.15-.23.29-.37.12-.11.26-.24.44-.38s.38-.3.6-.5c.23-.22.4-.42.56-.61.33-.39.62-.76.91-1.09.62-.64 1.4-1.42 2.09-2.18.36-.39.71-.79 1.06-1.21l.52-.63.26-.32c.05-.07.11-.13.19-.21.16-.16.39-.36.64-.65.27-.33.41-.65.53-.86.16-.32.55-.79.88-1.21.35-.44.74-.91 1.09-1.47.31-.49.61-.97.92-1.47.62-.99 1.26-2.01 1.9-3.04.16-.24.32-.47.48-.69.18-.24.3-.37.56-.65.45-.52.83-1.06 1.19-1.61.34-.54.69-1.08 1.04-1.62.36-.58.68-1.18.97-1.78.3-.62.54-1.19.83-1.74.29-.56.6-1.12.93-1.69 1.34-2.26 2.73-4.7 3.88-7.27.58-1.29 1.13-2.6 1.62-3.98.48-1.37.88-2.74 1.36-4.05.47-1.3 1.1-2.62 1.59-4.09.24-.74.44-1.51.55-2.32.1-.81.11-1.57.14-2.29.02-.36.04-.71.07-1.05.04-.39.07-.8.08-1.19.03-.79.01-1.55-.01-2.3-.03-1.51-.1-3.07-.34-4.63-.24-1.59-.66-3.06-1.04-4.55-.4-1.49-.84-2.99-1.36-4.47-.52-1.48-1.1-2.95-1.79-4.38-.68-1.38-1.36-2.77-2.05-4.16-.35-.68-.64-1.37-1.07-2.15-.42-.73-.9-1.4-1.38-2.03-.49-.63-.94-1.23-1.47-1.87-.25-.3-.48-.58-.68-.85-.1-.15-.17-.25-.28-.43-.12-.21-.27-.4-.42-.59-.62-.74-1.29-1.19-1.75-1.66-.25-.25-.53-.57-.9-.88-.19-.16-.4-.31-.63-.44l-.52-.28c-1.37-.71-2.72-1.5-4.21-2.15a27.861 27.861 0 0 0-6.87-2.04c-.78-.13-1.62-.19-2.28-.29-.36-.06-.62-.11-.98-.23-.44-.13-.89-.21-1.32-.24-.86-.08-1.65-.02-2.37-.02-1.44.02-2.97-.17-4.62 0-1.67.17-3.18.78-4.54 1.31-.68.27-1.37.53-2.05.8-.21.08-.55.13-.99.24-.21.06-.48.15-.7.26-.22.11-.41.23-.57.34-.33.21-.52.34-.71.39l-1.04.27c-.38.09-.87.31-1.13.42-.31.13-.62.25-.94.35-1.26.41-2.66.65-4.01.82-.67.08-1.32.11-2 .11H63.3c-.66.02-1.2-.11-1.9-.25-.34-.07-.71-.14-1.09-.19l-.55-.06-.18-.01c-1.05-.06-1.85-.09-2.54-.22-.69-.12-1.26-.27-1.64-.37-.7-.19-1.35-.36-1.98-.48-.62-.11-1.19-.18-1.76-.23-1.11-.14-2.19-.15-3.48-.13 1.14.59 2.1 1.06 3.14 1.48.52.21 1.06.4 1.64.59.57.2 1.2.42 1.95.62.4.11 1.01.28 1.81.42.8.15 1.8.19 2.73.25l.63.06c.3.04.6.09.94.16.64.13 1.47.31 2.21.29h2.14c.73.01 1.49-.03 2.23-.12 1.47-.19 2.9-.42 4.39-.9.37-.12.73-.25 1.09-.4.41-.18.58-.26.91-.35l1.07-.28c.52-.15.94-.44 1.22-.63.15-.1.27-.17.38-.23.1-.05.19-.08.33-.12.27-.08.67-.12 1.15-.29.69-.27 1.39-.54 2.09-.82 1.39-.55 2.7-1.06 4.03-1.19 1.35-.14 2.83.02 4.43.01.79-.01 1.52-.05 2.18.01.33.03.64.08.93.17.36.12.85.23 1.24.29.85.12 1.54.16 2.27.29a26.173 26.173 0 0 1 6.38 1.9c1.35.59 2.68 1.36 4.06 2.08l.51.27c.1.06.21.13.32.23.22.19.46.45.76.75.63.64 1.26 1.08 1.63 1.54.1.12.18.23.26.36.09.15.23.37.35.54.26.36.53.68.77.98.47.56.95 1.2 1.41 1.79.46.6.89 1.21 1.24 1.82.32.57.65 1.31 1 2.01.69 1.39 1.37 2.79 2.05 4.18.65 1.35 1.21 2.75 1.71 4.17.49 1.42.92 2.87 1.31 4.33.38 1.47.79 2.93 1 4.34.22 1.44.29 2.9.32 4.38.02.75.03 1.48.01 2.19-.01.36-.03.69-.07 1.04-.04.4-.07.79-.08 1.17-.04 1.55-.13 2.77-.59 4.09-.43 1.31-1.06 2.62-1.57 4.03-.51 1.39-.91 2.77-1.37 4.07-.46 1.29-.99 2.58-1.55 3.82-1.13 2.5-2.43 4.8-3.8 7.11-.34.58-.66 1.17-.97 1.78-.32.61-.59 1.23-.85 1.78-.27.56-.56 1.1-.87 1.6-.34.53-.68 1.05-1.01 1.58a13 13 0 0 1-1.03 1.4c-.16.18-.45.5-.64.76-.21.27-.39.54-.56.81-.65 1.03-1.28 2.05-1.91 3.04-.31.5-.63 1-.93 1.49-.27.42-.6.84-.95 1.28-.36.47-.72.85-1.08 1.51-.15.28-.24.46-.32.55-.1.12-.28.29-.51.51-.11.11-.23.24-.35.39l-.24.31-.5.6c-.33.39-.67.78-1.01 1.15-.69.77-1.34 1.41-2.09 2.19-.37.4-.67.8-.96 1.14-.31.38-.48.53-.88.84-.18.15-.4.32-.61.52-.2.18-.44.52-.55.7-.21.33-.45.63-.72.93-.54.61-1.12 1.12-1.77 1.78-.36.39-.58.75-.77.97-.1.12-.17.19-.29.28l-.41.32c-1.11.82-2.29 1.36-3.38 1.72-1.08.36-2.13.52-3.07.67-.92.14-1.71.22-2.36.28-1.28.11-1.97.12-1.97.12s-.68.03-1.97.02c-.69 0-1.31-.03-2.2-.25-.86-.2-1.86-.56-3.05-.99-.58-.2-1.1-.41-1.68-.71-.55-.28-1.23-.68-1.85-1.02-.31-.18-.6-.36-.86-.55-.27-.21-.66-.51-1.01-.75-.73-.49-1.56-.91-2.46-1.24-1.8-.66-3.81-.87-5.92-.7-2.19.22-4.2 1.2-6.14 2.05-1 .43-1.99.87-3.01 1.22-.99.33-2.14.63-3.24.91-.55.13-1.11.25-1.67.34-.6.11-.96.11-1.65.11-.16 0-.34.01-.52.02l-.51.05-.87.07c-.58.03-1.17.13-1.75.08-1.17-.04-2.37-.3-3.72-.46-.63-.08-1.23-.16-1.76-.32-.28-.08-.47-.16-.74-.31-.27-.14-.53-.29-.8-.46-.53-.32-1.09-.71-1.6-1.07-.44-.32-.85-.76-1.25-1.26-.41-.5-.81-1.05-1.28-1.62-.5-.6-.97-1.04-1.41-1.56-3.56-4.14-6.88-8.87-10.44-13.65-.43-.56-.72-1.1-1.08-1.79-.35-.65-.7-1.3-1.04-1.96-.35-.65-.7-1.31-1.05-1.97-.32-.66-.61-1.34-.89-2.03l-.86-2.11c-.29-.71-.63-1.43-.9-2.13-.56-1.41-1.13-2.82-1.69-4.24-.55-1.41-1.17-2.87-1.66-4.25-.24-.7-.4-1.36-.55-2.12-.13-.73-.32-1.6-.53-2.33-.8-2.96-1.43-5.96-1.82-8.99-.41-3.04-.54-6.06-.33-9.09.19-3.03.66-6.04 1.23-9.02.53-2.98 1.31-5.82 2.64-8.37.69-1.3 1.4-2.6 2.21-3.75.2-.29.41-.56.63-.84l.69-.87c.46-.58.91-1.14 1.37-1.69.46-.55.93-1.07 1.42-1.57.51-.49 1.05-1.08 1.52-1.59.49-.52.96-1.02 1.45-1.45.48-.42 1.02-.78 1.6-1.13 1.14-.68 2.41-1.21 3.69-1.77 1.25-.55 2.5-1.05 3.75-1.43 1.27-.41 2.44-.6 3.81-.79 1.39-.2 2.63-.54 3.75-.53.28 0 .54.02.8.07l.93.19c.61.12 1.22.25 1.83.37.6.14 1.23.19 1.78.41.43.14.85.28 1.28.42.41.13.79.26 1.13.37.68.25 1.21.5 1.57.65 2.66 1.2 4.45 1.85 7.05 1.88zm9.78-16.41c.12-.65.73-.81 1.12-1.33.4-.45.72-.9 1.05-1.26.73-.78 1.5-1.67 2.44-2.76a27.42 27.42 0 0 1 2.01-2.09c.84-.81 2.19-1.81 3.45-2.76a85.74 85.74 0 0 1 4.08-2.9 28.07 28.07 0 0 1 4.55-2.49c1.62-.71 3.35-1.34 5.07-1.89 1.72-.54 3.46-.95 5.17-1.04 1.87-.09 3.67-.33 5.34-.32 1.64 0 3.26.37 4.78.81 3.05.91 5.66 2.37 7.74 3.76 1.04.7 1.96 1.39 2.74 2.03.76.66 1.41 1.23 1.95 1.7.66.66.41.44.46.48.04-.06-.13.19-.11.16 0 0-.08.12-.34.4-.12.14-.31.32-.55.67-.15.22-.33.48-.54.76-.83 1.12-2.21 2.61-4.22 4.11-2 1.49-4.57 3.07-7.47 4.55-1.45.74-3 1.46-4.6 2.14-1.63.7-3.21 1.32-4.94 1.72-1.71.4-3.49.64-5.26.64-.88 0-1.77-.04-2.63-.16-.8-.13-1.89-.3-2.76-.36-.44-.04-.87-.09-1.26-.17-.45-.08-.89-.16-1.33-.24-.89-.16-1.78-.33-2.65-.48-.86-.14-1.67-.26-2.47-.44-.4-.09-.79-.18-1.18-.28l-.58-.16-.5-.15c-.46-.14-.89-.29-1.29-.43-.41-.15-.79-.28-1.04-.41-.56-.28-1.04-.64-1.41-.87-1.45-.91-2.71-1.1-3.61-1.42-.49-.17-1.06-.41-1.65-.51-.27-.05-.54-.1-.79-.2-.24-.09-.49-.25-.54-.58-.12.31.05.7.28.93.22.25.48.43.72.6.46.31.8.65 1.29 1.01 1.05.74 2.14 1.08 3.23 1.8.32.2.82.59 1.6.99.42.21.83.35 1.25.5.43.15.89.31 1.38.46l.53.16.62.17c.41.11.84.21 1.26.3.85.19 1.74.32 2.61.46.85.16 1.7.31 2.57.47l1.32.24c.49.09.97.15 1.43.19.95.07 1.68.19 2.69.35.96.13 1.93.18 2.89.17 1.93 0 3.85-.26 5.7-.69 1.85-.42 3.65-1.12 5.26-1.82 1.64-.7 3.23-1.44 4.72-2.2 3-1.53 5.63-3.14 7.76-4.73 2.14-1.6 3.67-3.25 4.6-4.5.23-.31.43-.6.6-.85.08-.13.24-.29.37-.44.27-.3.44-.51.44-.51s.04-.05.12-.16c.06-.08.24-.34.37-.71.11-.36.15-.88-.15-1.36-.07-.12-.16-.24-.26-.36l-.2-.23-.4-.4c-.58-.5-1.28-1.11-2.09-1.82-.83-.68-1.79-1.4-2.89-2.14-2.2-1.47-4.96-3.02-8.27-4.01C95.9.42 94.12.01 92.21 0c-1.87-.02-3.67.24-5.46.32-1.95.11-3.85.56-5.65 1.13-1.8.58-3.55 1.21-5.27 1.96-1.71.74-3.37 1.65-4.84 2.65-1.48.98-2.87 1.99-4.17 2.97-.65.5-1.28.98-1.9 1.46-.3.23-.63.49-.92.74l-.44.38-.34.31c-.34.31-.64.62-.92.9-.54.56-.96 1.04-1.23 1.35-1 1.19-1.63 2.19-2.16 3.25-.27.57-.4 1.11-.57 1.62-.07.26-.18.48-.31.78-.09.3-.19.67-.07.98z"/></svg>