<svg version="1.1" id="Layer_1" xmlns="http://www.w3.org/2000/svg" x="0" y="0" viewBox="0 0 141.25 141.25" style="enable-background:new 0 0 141.25 141.25" xml:space="preserve"><style>.st0{fill:#2a3768}</style><path class="st0" d="M141.25 70.63c0 39.01-31.62 70.63-70.63 70.63C31.62 141.25 0 109.63 0 70.63 0 31.62 31.62 0 70.63 0c39 0 70.62 31.62 70.62 70.63"/><path class="st0" d="M76.63 124.45c-.6 0-1.21 0-1.8-.01-8.72-.12-16.42-1.04-21.45-1.71-6.08-.77-11-1.8-14.21-2.97-1.22-.43-2.22-.89-2.94-1.23-.25-.12-.47-.22-.68-.31-.56-.26-.93-.45-1.13-.56l-.09-.04c-.44-.2-.87-.41-1.29-.63l-1.22-.58c-.61-.31-1.19-.69-1.87-1.14-.33-.22-.68-.44-1.05-.68l-.07-.04-.06-.05c-.22-.19-.46-.38-.7-.58-.86-.7-1.83-1.49-2.73-2.55-2.75-2.99-4.75-6.95-5.61-11.13-.05-.31-.1-.58-.15-.85-.16-.92-.33-1.87-.36-2.89-.13-1.16-.1-2.43-.06-3.66v-.19c.22-3.25.65-5.86 1.36-8.27.15-.65.38-1.33.6-1.99l.04-.11c.08-.23.16-.46.23-.69.15-.47.3-.95.52-1.43l.82-2.02c.28-.67.56-1.32.81-2 .22-.57.42-1.16.63-1.74.3-.84.6-1.69.94-2.54.33-.84.65-1.58.98-2.25.19-.39.39-.76.6-1.13.04-.07.08-.14.13-.22-.15-.43-.44-1.02-.62-1.41-.33-.68-.7-1.36-1.08-2.05-.84-1.52-1.55-3.05-2.21-4.48-1.43-3.15-2.71-6.49-3.78-9.35-.24-.6-.49-1.22-.76-1.85-.39-.93-.79-1.89-1.16-2.89-.62-1.75-1.17-3.65-1.05-5.76.05-1.54.81-2.94 2.02-3.71.9-.53 1.88-.78 3.03-.78.21 0 .42.01.62.02 1.64.12 3.13.57 4.44.97.33.1.66.2.99.29 2.8.82 6.46 1.98 10.04 3.71l4.72 2.64.04.03c.52.37.93.71 1.33 1.04l.32-2.73c.25-2.01.5-3.99.78-5.97.05-.31.09-.58.13-.86.1-.72.2-1.47.46-2.32l.73-2.77c.44-1.7.95-3.68 1.51-5.6.42-1.44.93-3.14 1.57-4.88.27-.73.6-1.59 1.01-2.47.42-.86.84-1.72 1.58-2.6.3-.35.9-1.05 2.03-1.38.23-.07.5-.11.77-.11.38 0 .77.07 1.1.21.38.12.69.38.93.6l.3.3c.67.71 1.26 1.4 1.79 2.04 1.03 1.23 2.08 2.59 3.31 4.3 4.32 6.11 7.53 12.03 10.03 18.5.4-.72.79-1.48 1.17-2.26.55-1.09 1.15-2.24 1.91-3.35.73-1.09 1.53-2.1 2.35-3.12l.3-.38c.68-.85 1.39-1.73 2.02-2.62l2.35-3.34c1.42-1.98 3.35-4.56 5.7-6.97 1.13-1.16 2.33-2.26 3.59-3.27.51-.4 1.21-.87 2.14-.95.09-.01.21-.02.32-.02.79 0 1.61.3 2.26.83 1.1.92 1.57 1.98 1.91 2.98.15.47.22.88.28 1.23l.04.26c.08.41.13.82.18 1.23l.01.1c.09.67.16 1.35.22 2.04l.05.55c.16 1.9.27 3.83.34 5.29.17 3.48.26 7.09.36 11.11l.09 2.88c.02.48.04.87.08 1.36.04.54.08 1.08.09 1.61.01.51.01 1.1-.02 1.74.99-.59 2.15-1.21 3.42-1.84l5.71-2.83a133.514 133.514 0 0 1 9.32-4.15l1.62-.64.83-.32c.39-.15.81-.28 1.33-.34.1-.01.24-.02.38-.02.53 0 1.29.12 1.96.72.83.75.93 1.68.97 2.04.06.77.08 1.41.06 2.05-.04 1.23-.21 2.5-.52 3.89-.28 1.23-.6 2.4-.91 3.54-.31 1.14-.64 2.33-.9 3.52-.69 2.74-1.4 5.12-2.2 7.32-.45 1.23-.93 2.44-1.44 3.6l-.4.88c-.18.37-.34.67-.5.97l-.91 1.65c-.51.95-1.08 2.06-1.37 3.07-.05.21-.08.36-.09.46.32.6.61 1.15.89 1.71 2.41 4.78 4.2 9.79 5.3 14.87 1.25 5.55 1.43 10.91.55 15.93-1 5.67-3.58 10.7-7.27 14.16-1.66 1.62-3.83 3.03-6.62 4.28-2.2.96-4.53 1.71-7.15 2.29-4.82 1.07-9.55 1.38-13.94 1.54l-2.28.07c-3.01.07-5.87.16-8.69.16z"/><path d="M93.59 13.69c.62 0 1.21.28 1.59.6.88.74 1.27 1.6 1.59 2.52.16.49.21.92.28 1.34.08.43.13.85.18 1.27.12.85.19 1.7.27 2.56.14 1.72.25 3.46.34 5.24.17 3.56.27 7.25.36 11.08l.09 2.89c.02.5.04.92.08 1.43.04.51.07 1.03.09 1.54.01 1.22-.01 2.45-.16 3.71.18-.12.35-.25.54-.37 1.27-.83 2.88-1.71 4.52-2.53 1.86-.92 3.77-1.87 5.71-2.84a130.867 130.867 0 0 1 9.25-4.12c.54-.21 1.08-.42 1.62-.64l.82-.31c.3-.11.65-.23 1.07-.28.08-.01.17-.02.27-.02.38 0 .87.1 1.27.45.5.45.59 1.03.63 1.38.05.66.07 1.26.05 1.89-.04 1.25-.23 2.49-.49 3.7-.55 2.43-1.28 4.66-1.82 7.07-.6 2.4-1.3 4.81-2.16 7.18-.43 1.19-.9 2.37-1.42 3.54l-.39.87c-.16.33-.31.61-.47.89l-.91 1.65c-.58 1.09-1.15 2.21-1.46 3.29-.07.27-.12.52-.13.74 0 .1.01.18.01.25.04.04-.01.03.1.22.31.57.61 1.14.9 1.72 2.33 4.61 4.11 9.54 5.21 14.63 1.14 5.07 1.44 10.4.55 15.53-.9 5.11-3.2 10.05-6.96 13.58-1.83 1.8-4.08 3.08-6.33 4.09-2.27.99-4.61 1.7-6.95 2.23-4.68 1.04-9.32 1.35-13.75 1.52-3.78.1-7.43.24-10.94.24-.6 0-1.2 0-1.79-.01-8.11-.11-15.33-.9-21.32-1.7-6.01-.76-10.82-1.76-13.99-2.91-1.6-.56-2.75-1.16-3.56-1.52-.56-.26-.91-.44-1.08-.54a.694.694 0 0 0-.13-.05c-.43-.2-.84-.4-1.25-.61-.35-.17-.76-.36-1.25-.59-.8-.41-1.71-1.06-2.82-1.75-.99-.84-2.23-1.72-3.31-3.01-2.26-2.46-4.45-6.09-5.39-10.67-.18-1.15-.44-2.33-.48-3.56-.13-1.23-.09-2.49-.06-3.79.17-2.58.52-5.3 1.31-8.01.16-.69.39-1.36.62-2.04.24-.68.42-1.38.72-2.05.28-.68.55-1.36.83-2.05.29-.67.56-1.33.82-2.03.52-1.38.99-2.82 1.57-4.27.28-.73.59-1.45.95-2.17.18-.36.37-.72.57-1.07.1-.18.21-.35.32-.53l.03-.05v-.03c-.12-.56-.48-1.32-.8-2-.34-.7-.72-1.39-1.1-2.09-.79-1.44-1.49-2.91-2.18-4.41-1.36-3-2.58-6.14-3.75-9.29-.6-1.53-1.32-3.08-1.91-4.73-.58-1.64-1.1-3.41-.99-5.35.03-1 .46-2.2 1.54-2.89.82-.48 1.68-.61 2.47-.61.19 0 .37.01.55.02 1.9.14 3.6.77 5.22 1.23 3.36.98 6.68 2.1 9.88 3.65 1.54.86 3.08 1.72 4.61 2.58.84.59 1.41 1.14 2.08 1.66.23.18.46.35.68.51l.01-.07.16-1.52c.12-1.01.24-2.01.35-3.01.25-2 .5-3.98.78-5.94.17-.99.22-1.93.55-3.03.25-.94.49-1.88.74-2.8.48-1.88.97-3.74 1.5-5.58.47-1.61.96-3.21 1.54-4.81.29-.8.61-1.59.98-2.39.39-.79.77-1.59 1.43-2.37.32-.38.75-.83 1.52-1.05a1.854 1.854 0 0 1 1.23.08c.19.05.4.22.58.38l.26.26c.62.65 1.18 1.31 1.74 1.98a70.79 70.79 0 0 1 3.26 4.24c3.92 5.55 7.7 12.03 10.63 20.22.87-1.19 1.59-2.6 2.35-4.12.52-1.04 1.11-2.17 1.84-3.22.71-1.06 1.5-2.06 2.3-3.06.8-1 1.62-2 2.36-3.04.76-1.09 1.55-2.21 2.35-3.34 1.63-2.27 3.43-4.62 5.59-6.84 1.08-1.11 2.25-2.18 3.5-3.19.35-.27.88-.66 1.58-.73.06-.05.13-.05.21-.05M28.45 68.57s-.05-.03-.08-.05c-.01 0-.01 0-.02-.01.07.05.09.06.1.06m65.14-56.96c-.15 0-.3.01-.45.02-1.32.12-2.28.88-2.64 1.16-1.3 1.05-2.54 2.18-3.7 3.37-2.4 2.46-4.36 5.07-5.79 7.08l-.73 1.04-1.63 2.32c-.6.85-1.27 1.67-1.97 2.55l-.32.39c-.84 1.05-1.65 2.08-2.41 3.2-.79 1.16-1.43 2.39-1.97 3.45l-.12.24c-2.4-5.74-5.41-11.1-9.3-16.6a73.603 73.603 0 0 0-3.37-4.37c-.51-.62-1.13-1.34-1.83-2.08l-.26-.28-.04-.04-.04-.04c-.31-.28-.73-.63-1.28-.81-.45-.18-.95-.27-1.46-.27-.38 0-.75.05-1.09.15-1.4.41-2.17 1.31-2.5 1.69-.83.99-1.3 1.95-1.71 2.79l-.01.01-.02.04c-.43.92-.77 1.8-1.04 2.55-.65 1.78-1.17 3.5-1.59 4.96-.55 1.9-1.05 3.83-1.52 5.64l-.19.74-.53 2.03c-.27.92-.38 1.73-.48 2.45-.04.27-.07.53-.12.8v.06c-.25 1.8-.51 3.75-.78 5.98l-.11.91-.09-.05-4.61-2.58-.05-.03-.05-.03c-3.65-1.77-7.37-2.95-10.2-3.78-.33-.09-.66-.19-.99-.29-1.37-.42-2.92-.89-4.66-1.01-.24-.02-.47-.03-.7-.03-1.35 0-2.5.3-3.53.9l-.03.02-.03.02c-1.5.95-2.43 2.66-2.5 4.58-.13 2.25.46 4.27 1.11 6.11.37 1.04.78 2.01 1.18 2.95.26.62.52 1.23.76 1.84 1.06 2.85 2.35 6.22 3.79 9.39.66 1.46 1.39 3.01 2.24 4.56.37.68.73 1.35 1.06 2.01.09.19.26.54.4.86-.16.28-.33.61-.51.96-.34.7-.67 1.46-1.02 2.34-.34.88-.65 1.74-.95 2.57-.21.58-.42 1.16-.63 1.73-.24.64-.49 1.23-.79 1.95l-.56 1.37-.28.68c-.23.53-.4 1.05-.54 1.51-.07.22-.14.44-.22.66l-.04.11c-.23.67-.46 1.36-.63 2.1-.72 2.47-1.16 5.14-1.38 8.4v.08l-.01.18c-.03 1.24-.06 2.52.07 3.81.04 1.06.21 2.06.37 2.95.05.27.09.53.14.79l.01.04.01.05c.89 4.34 2.97 8.47 5.86 11.63.95 1.12 1.96 1.94 2.84 2.66.24.19.47.38.69.57l.11.1.13.08c.37.23.71.45 1.03.66.68.44 1.32.86 1.95 1.18l.02.01.02.01.22.1 1.01.48c.51.26.91.45 1.3.64l.05.02c.18.1.5.27 1.13.56.24.11.46.21.69.32.75.35 1.78.83 3.06 1.28 3.31 1.21 8.17 2.22 14.42 3.01 5.04.68 12.78 1.6 21.56 1.72.6.01 1.21.01 1.82.01 2.85 0 5.73-.09 8.78-.18l2.22-.06c4.46-.17 9.24-.48 14.14-1.57 2.69-.6 5.08-1.37 7.33-2.35 2.92-1.31 5.19-2.78 6.96-4.51 3.82-3.58 6.51-8.82 7.55-14.7.9-5.16.71-10.66-.57-16.35-1.12-5.16-2.93-10.24-5.39-15.11-.23-.47-.48-.94-.73-1.41 0-.01 0-.02.01-.03.27-.91.81-1.95 1.29-2.86l.9-1.62c.17-.31.34-.63.52-.99l.01-.02.01-.02.39-.87c.53-1.2 1.02-2.43 1.47-3.68.81-2.22 1.54-4.64 2.22-7.39l.01-.03.01-.03c.26-1.17.57-2.28.89-3.46.32-1.15.65-2.35.93-3.6.32-1.45.5-2.79.54-4.09.03-.66.01-1.34-.05-2.13v-.08c-.05-.42-.19-1.68-1.31-2.69a3.98 3.98 0 0 0-2.66-.99c-.18 0-.36.01-.51.03-.62.07-1.13.24-1.55.39l-.83.32-1.06.42-.58.23c-1.09.43-2.17.89-3.24 1.34-2.09.9-4.17 1.86-6.17 2.85l-2.58 1.28-3.14 1.56c-.67.33-1.31.66-1.9.98-.01-.55-.04-1.09-.09-1.64-.04-.47-.06-.84-.08-1.33l-.04-1.21-.05-1.66c-.1-3.98-.19-7.58-.36-11.12-.07-1.47-.18-3.4-.34-5.32l-.05-.56c-.06-.68-.13-1.39-.23-2.11-.06-.45-.11-.9-.2-1.37l-.04-.23c-.06-.37-.14-.83-.31-1.36-.39-1.13-.95-2.39-2.23-3.47-.85-.7-1.91-1.09-2.94-1.09" style="fill:#f5f1e9"/><path class="st0" d="M121.02 86.23c-1.1-5.08-2.89-10.02-5.21-14.63-.29-.58-.59-1.15-.89-1.72-.11-.19-.06-.18-.1-.22-.01-.07-.02-.15-.02-.25.01-.22.06-.47.13-.74.31-1.08.88-2.2 1.46-3.29l.91-1.65c.15-.28.31-.57.46-.89l.39-.87c.51-1.17.98-2.35 1.42-3.54.86-2.38 1.56-4.79 2.16-7.18.54-2.4 1.27-4.63 1.82-7.06.27-1.2.45-2.45.49-3.7.02-.63 0-1.24-.05-1.89-.04-.35-.13-.93-.63-1.38-.5-.45-1.13-.48-1.53-.44-.42.05-.77.17-1.07.28l-.82.31-1.62.63c-1.07.43-2.13.87-3.17 1.32-2.09.9-4.11 1.83-6.07 2.8-1.95.96-3.85 1.91-5.71 2.83-1.64.81-3.25 1.69-4.52 2.53-.2.13-.36.25-.54.37.15-1.26.17-2.49.16-3.71-.01-.51-.04-1.03-.08-1.54-.05-.51-.07-.92-.09-1.43l-.09-2.89c-.1-3.83-.19-7.52-.36-11.08-.09-1.78-.19-3.52-.34-5.24-.08-.86-.15-1.71-.27-2.56-.05-.42-.1-.84-.18-1.27-.08-.42-.12-.85-.28-1.34-.31-.91-.71-1.78-1.59-2.52-.43-.36-1.11-.66-1.82-.58-.69.06-1.23.45-1.58.72a43.078 43.078 0 0 0-3.5 3.19c-2.16 2.21-3.96 4.56-5.59 6.84-.8 1.14-1.58 2.25-2.35 3.34-.75 1.05-1.56 2.04-2.36 3.04-.8 1-1.59 2-2.3 3.06-.72 1.06-1.31 2.18-1.84 3.22-.76 1.53-1.48 2.93-2.35 4.12-2.93-8.19-6.71-14.67-10.63-20.22a75.212 75.212 0 0 0-3.26-4.24c-.57-.68-1.13-1.33-1.74-1.98l-.26-.26c-.18-.16-.39-.33-.57-.38-.36-.16-.86-.19-1.23-.08-.78.23-1.2.68-1.52 1.05-.66.79-1.05 1.58-1.43 2.37-.37.79-.68 1.59-.98 2.39-.59 1.59-1.08 3.2-1.54 4.81-.53 1.84-1.02 3.7-1.5 5.58-.24.93-.49 1.87-.74 2.8-.33 1.1-.38 2.04-.55 3.03-.28 1.97-.53 3.95-.78 5.94-.12 1-.24 2-.35 3.01l-.16 1.52-.01.07c-.23-.16-.45-.33-.68-.51-.67-.53-1.24-1.07-2.08-1.66-1.53-.86-3.07-1.72-4.61-2.58-3.19-1.55-6.51-2.67-9.87-3.65-1.61-.46-3.31-1.09-5.22-1.23-.94-.06-2.02 0-3.02.6-1.08.69-1.5 1.89-1.54 2.89-.11 1.94.41 3.71.99 5.35.59 1.64 1.31 3.2 1.91 4.73 1.17 3.14 2.39 6.28 3.75 9.29.69 1.51 1.38 2.98 2.17 4.41.38.7.76 1.4 1.1 2.09.33.68.69 1.44.8 2v.03l-.03.05c-.11.18-.22.35-.32.53-.2.35-.39.71-.57 1.07-.35.72-.66 1.45-.95 2.17-.57 1.45-1.05 2.89-1.57 4.27-.26.69-.54 1.35-.82 2.03-.28.69-.56 1.37-.84 2.05-.3.67-.48 1.38-.72 2.05-.23.68-.46 1.36-.62 2.04-.8 2.71-1.14 5.43-1.31 8.01-.03 1.3-.07 2.56.06 3.79.04 1.23.3 2.41.48 3.56.94 4.58 3.12 8.21 5.39 10.67 1.09 1.29 2.32 2.17 3.31 3.01 1.11.69 2.01 1.35 2.82 1.75.49.23.9.43 1.25.59.41.21.82.41 1.25.61.04.02.09.04.13.06.17.1.52.28 1.08.54.81.36 1.96.96 3.56 1.52 3.18 1.16 7.99 2.15 13.99 2.91 5.99.81 13.21 1.59 21.32 1.7 4.06.06 8.3-.1 12.73-.22 4.43-.17 9.07-.48 13.75-1.52 2.34-.52 4.68-1.23 6.95-2.23 2.25-1.01 4.5-2.3 6.34-4.09 3.76-3.52 6.06-8.47 6.96-13.58.9-5.1.59-10.43-.55-15.5M28.37 68.52c.06.04.16.1-.02-.01 0 0 .01 0 .02.01"/><path d="M53.93 110.13c.39-1.08 1.15-1.97 1.69-2.97 1.3-2.4 3-5.21 5.27-6.79 1.33-.93 2.7-1.87 4.25-2.38 1.69-.56 3.23-.03 4.79.76 1.16.58 2.05 1.58 2.94 2.5 1.17 1.2 2.17 2.58 3.23 3.88 1.02 1.25 1.6 2.84 2.57 4.15.59.79 1.07 1.89.81 2.9-.15.6-.64.04-1.04-.2-1.17-.71-2.38-1.37-3.59-2.02-2.52-1.34-5.13-2.74-7.86-3.58-.28-.09-.56-.16-.84-.22-2.01-.39-4.39 1.03-6.08 1.92-1.18.63-2.33 1.31-3.46 2-.53.32-.98.75-1.51 1.07-.24.15-.75.68-.99.73-.21.04-.42-.16-.46-.37-.01-.04-.01-.08-.01-.12 0-.38.17-.94.29-1.26m1.63 4.27c.6.32 1.38.71 2.06.73 1.23.42 2.45.35 3.7.59 1.09.21 2.03.24 3.16.14 1.1-.1 2.27.13 3.38.14 1.83.01 3.62-.28 5.45-.42.86-.07 1.72-.23 2.57-.31.71-.07 1.54-.09 2.13-.55-.83-.75-2.04-1.3-2.99-1.93-1.04-.69-2.08-1.38-3.14-2.04-1.53-.96-3.33-2.17-5.18-2.32-2.12-.17-4.55 1.27-6.33 2.25-1.15.63-2.28 1.33-3.35 2.09-.25.18-1.87 1.13-1.65 1.5.04.05.1.08.19.13" style="fill:#e1d29d"/><path d="M73.52 77.13c.05-.24.13-.46.27-.66.78-1.07 3.62-.32 4.71-.24 1.8.12 3.61.22 5.41.31 3.77.2 7.54.14 11.31.2 3.51.06 7.34-.12 10.59 1.35.38.17.77.4.97.77.19.35.18.78.16 1.17-.2 4.74.14 9.3-1.79 13.76-2.87 6.63-8.63 7.09-15.04 6.53-.66-.06-1.32-.12-1.96-.3-2.84-.82-6.1-2.05-8.58-3.69-1.3-.86-2.59-1.77-3.6-2.95-1.32-1.54-1.53-3.18-1.97-5.07a30.39 30.39 0 0 1-.55-10.71c.01-.16.03-.32.07-.47m-44.51 3.96c-.02 1.58.08 3.15.31 4.71.43 3 .83 7.29 3.33 9.29 2.07 1.65 4.39 3.14 7.07 3.39 4.69.42 11.04.66 15.19-1.92 4.36-2.72 7.28-5.28 8.06-10.57.43-2.93.24-5.92-.02-8.88-.14-1.63-7.14-1.58-8.13-1.64-5.24-.3-10.5-.3-15.74-.23-2.78.04-6.24-.2-8.75 1.14-.26.14-.52.3-.67.55-.57.99-.63 3.04-.65 4.16" style="fill:#fff"/><path class="st0" d="M51.01 73.32c.44-.27 2.75-.3 3.16.02.51.4.37 2.12.37 2.72-.01 1.33-.2 4.33-2.26 3.77-1.51-.41-1.6-3.08-1.68-4.35-.01-.07-.01-.15-.01-.23-.05-.66-.08-1.63.42-1.93m29.97 3.29c-.05 1.36-.17 2.5.85 3.57.74.78 1.96 1.17 2.63.07.24-.38.35-.82.44-1.26.14-.7.22-1.42.24-2.14.03-1.03-.35-1.62-1.33-1.79-1.29-.22-2.78-.31-2.82 1.28 0 .09-.01.18-.01.27"/></svg>