<svg version="1.1" id="Layer_1" xmlns="http://www.w3.org/2000/svg" x="0" y="0" viewBox="0 0 154.79 141.25" style="enable-background:new 0 0 154.79 141.25" xml:space="preserve"><style>.st0{fill:#f5f1e9}.st1{fill:#2a3768}</style><path class="st0" d="M148.02 70.63c0 39.01-31.62 70.63-70.63 70.63-39.01 0-70.63-31.62-70.63-70.63C6.76 31.62 38.38 0 77.39 0c39 0 70.63 31.62 70.63 70.63"/><path class="st0" d="M110.16 78.27c.5.08 1.27.56 2.32 1.23 1.94 1.24 4.13 2.31 6.48 3.07 2.87.96 6.37 1.76 9.33 2.13 3.58.45 6.63.34 9.22.15 2.6-.1 4.52-.73 6.15-1.45 1.03-.46 1.85-.78 2.85-1.36.98-.57 2.41-1.66 3.23-2.46.45-.52.88-1.07 1.29-1.65.26-.45.5-.92.72-1.4.51-1.13.94-2.3 1.27-3.41.25-.83.42-1.63.51-2.4.1-.76.08-1.52-.14-2.11-.19-.56-.78-.94-1.47-1.24-.7-.29-1.48-.49-2.33-.65-.83-.16-1.84-.32-2.88-.49-.98-.17-2-.23-2.85-.24-2.24 0-4.31 0-6.4-.01-2.09-.02-4.24.02-6.58-.28-1.33-.17-2.87-.49-4.48-.99-1.62-.5-3.3-1.16-5.01-1.83-3.53-1.31-6.87-3.43-9.84-4.98-.99-.52-1.99-1-3.01-1.43-.51-.21-1.02-.41-1.54-.59l-1.61-.57c-2.13-.76-4.21-1.71-6.22-1.36-.75.13-1.31.26-1.7.3-.38.04-.61-.02-.65-.17v-.04l-2.07.57.12.06c.33.16.67.31.96.53.7.48.93 1.17.93 1.4-.04.86-1.01 1.02-1.64.37-.64-.58-1.12-1.38-1.9-1.87-.92-.63-2.1-1.28-3.12-1.77-2.45-1.2-4.34-1.49-5.65-1.81-.43-.09-.74-.24-1.17-.35-.44-.11-1.17-.19-1.61-.31-.86-.21-1.88-.29-2.77-.35-1.34-.09-2.37-.13-3.71-.05-.65.03-1.57.01-2.21.12-1.66.28-3.13.28-4.81.61-1.91.38-5.08 1.18-7.37 2.26-1.53.69-2.99 1.52-4.29 2.56-.95.79-1.66-.18-.75-.94.22-.19.56-.44.95-.73-.48.01-1.1-.05-1.89-.14-2.21-.25-4.55-.3-6.81.28-1.38.36-2.86.89-4.21 1.64-1.36.77-2.77 1.63-4.05 2.33-6.23 3.47-11.02 4.86-14.53 5.46-1.14.16-2.02.2-3.17.27-1.19.1-3.08.12-4.2.16-2.24.07-4.8.47-7.02.95-1.66.36-3.12.75-4.51 1.26-1.37.52-2.79 1.12-3.93 2.2-.28.26-.52.57-.72.91-.09.17-.16.35-.21.54-.05.21-.07.46-.11.69-.1.46-.06.94-.08 1.39.03.45.07.88.13 1.27.39 2.01 1.15 3.8 2.23 5.39 1.09 1.58 2.55 2.94 4.4 3.92 1.04.6 2.39 1.02 3.87 1.37 1.48.26 3.23.39 4.97.51 1.75.09 3.55.12 5.31.04 1.76-.08 3.46-.32 5.04-.63 4.19-.83 8.13-2.7 11.61-5.19.8-.61 1.39-.92 1.76-1 0-.25-.01-.5.01-.74.12-2.25.81-4.4 1.77-6.39 1.05-2.01 2.43-3.67 3.82-5.31 2.15-2.44 2.74-1.3.91.78-.45.53-1.09 1.29-1.78 2.2-.68.92-1.44 1.99-1.98 3.16-1.16 2.37-1.59 5.11-1.48 6.83.12 3.27 1.6 5.53 3.28 6.99 1.74 1.46 3.69 2.24 5.99 2.89 3.31.9 6.2 1.26 8.8 1.4 1.28.06 2.56.03 3.8.09 1.24.05 2.43.13 3.63.21 2.39.15 4.78.32 7.47.18 2.73-.12 5.79-.4 9.55-.25 2.15.11 4.11.36 6.22.44 3.68.15 7.32-.19 10.53-1.8 1.18-.54 2.28-1.33 3.26-2.1.38-.35.73-.79 1.05-1.25.52-.75.89-1.35 1.17-1.96.27-.59.44-1.28.55-2.2.1-.9.21-2.06.17-3.17-.06-1.09-.35-2.23-.64-3.11-.54-1.59-1.48-2.98-2.32-4.36-.98-1.6-1.58-2.93-1.69-3.39-.39-1.59.96-1.25 2.34.95 1.24 2.03 2.07 4.26 2.82 6.54.24.7.43 1.46.57 2.27.05.28.08.57.1.86.34.33.72.66 1.13.99 0-.37.2-.5.52-.44"/><path class="st1" d="M107.86 74.55c-.76-2.29-1.59-4.51-2.82-6.54-1.38-2.2-2.73-2.53-2.34-.95.1.46.7 1.79 1.69 3.39.85 1.38 1.78 2.77 2.32 4.36.3.88.58 2.01.64 3.11.04 1.12-.07 2.27-.17 3.17-.11.92-.28 1.61-.55 2.2-.29.61-.66 1.21-1.17 1.96-.32.46-.67.9-1.05 1.25-.98.77-2.08 1.56-3.26 2.1-3.21 1.6-6.84 1.95-10.53 1.8-2.11-.08-4.08-.33-6.22-.44-3.76-.15-6.82.13-9.55.25-2.69.14-5.08-.02-7.47-.18-1.2-.08-2.39-.16-3.63-.21-1.24-.06-2.52-.03-3.8-.09-2.59-.14-5.49-.5-8.8-1.4-2.29-.65-4.25-1.43-5.99-2.89-1.68-1.46-3.16-3.72-3.28-6.99-.11-1.72.32-4.46 1.48-6.83.54-1.17 1.3-2.24 1.98-3.16.69-.92 1.33-1.68 1.78-2.2 1.83-2.08 1.24-3.22-.91-.78-1.39 1.65-2.77 3.3-3.82 5.31-.96 1.99-1.66 4.14-1.77 6.39-.01.24-.01.49-.01.74-.37.08-.96.39-1.76 1-3.49 2.49-7.42 4.36-11.61 5.19-1.58.31-3.28.55-5.04.63-1.76.08-3.56.06-5.31-.04-1.75-.12-3.5-.24-4.97-.51-1.48-.34-2.83-.76-3.87-1.37-1.85-.98-3.31-2.34-4.4-3.92a14.356 14.356 0 0 1-2.23-5.39c-.06-.39-.1-.82-.13-1.27.02-.45-.01-.93.08-1.39.04-.23.06-.48.11-.69.05-.19.12-.37.21-.54.2-.34.44-.66.72-.91 1.14-1.07 2.56-1.67 3.93-2.19 1.39-.51 2.85-.9 4.51-1.26 2.22-.48 4.77-.88 7.02-.95 1.12-.05 3.01-.06 4.2-.16 1.15-.06 2.04-.1 3.17-.27 3.5-.6 8.29-1.99 14.53-5.46 1.28-.69 2.69-1.56 4.05-2.33 1.35-.75 2.83-1.28 4.21-1.64 2.26-.59 4.6-.53 6.81-.28.79.09 1.42.15 1.89.14-.4.28-.73.54-.95.73-.91.76-.2 1.72.75.93 1.29-1.04 2.76-1.87 4.29-2.56 2.29-1.08 5.46-1.88 7.37-2.26 1.68-.33 3.15-.32 4.81-.61.64-.11 1.56-.09 2.21-.12 1.34-.08 2.37-.04 3.71.05.89.07 1.91.14 2.77.35.44.12 1.16.2 1.61.31.43.11.74.26 1.17.35 1.31.32 3.2.61 5.65 1.81 1.01.48 2.19 1.14 3.12 1.77.78.5 1.26 1.29 1.9 1.87.63.66 1.61.49 1.64-.37 0-.24-.23-.92-.93-1.4-.29-.22-.63-.37-.96-.53l-.12-.06c-.28-.15-.56-.28-.83-.45-.65-.47-1.65-1.1-2.37-1.4-.73-.31-1.06-.58-1.79-.89l-.68-.27c-.52-.22-1.05-.39-1.57-.59-1.46-.49-2.94-.8-4.45-1.11-.86-.17-1.66-.37-2.54-.47-3.02-.32-5.04-.28-7.02-.18-1.97.12-3.9.3-6.73.87-1.96.44-3.44.89-6.04 1.95-.69.3-1.74.8-2.7 1.39-.14.08-.27.17-.41.26-.07-.15-.22-.32-.47-.51-.39-.32-1.97-1-4.06-.91-1.8.08-3.53.56-5.27 1-.98.25-2.17.6-3.32 1.11-1.16.49-2.21 1.17-3 1.67-1.65 1.05-2.59 1.45-4.31 2.36-.53.28-1.07.54-1.6.8-1.24.57-2.5 1.11-3.8 1.56-3.53 1.26-7.17 2.07-10.95 2.22-1.06.04-2.15.02-3.23.08-1.07.06-2.14.15-3.24.3-3.79.54-6.91 1.29-9.6 2.41-1.34.58-2.6 1.25-3.6 2.32-.49.52-.91 1.27-1.01 2l-.14.99L0 72.1c.04 2.62.86 5.15 2.47 7.5.83 1.16 1.85 2.27 3.13 3.25 1.3.95 2.85 1.76 4.64 2.3 1.24.37 2.48.55 3.65.66 1.17.1 2.35.19 3.58.23 2.47.07 5.23.12 8.72-.45 1.86-.28 4.73-1.02 7.31-2.19 2.6-1.14 4.85-2.67 6.04-3.51.48-.37.84-.71 1.09-1.01.08 1.18.31 2.4.79 3.57.72 1.73 1.94 3.29 3.4 4.41.73.57 1.51 1.03 2.29 1.42.79.37 1.57.68 2.33.93 1.52.5 2.95.83 4.17 1.06 2.15.4 4.14.68 6.15.81 1.02.07 2.02.05 2.99.07.99.03 2 .05 3.05.08 1.6.04 3.9.27 5.54.29 1.69.03 3.2-.05 4.67-.14 1.47-.08 2.95-.17 4.61-.22 1.11-.03 2.29-.05 3.46.01 1.17.06 2.36.15 3.46.27 1.13.12 2.96.18 4.11.2 1.12.03 1.99.09 3.11 0 1.74-.15 3.84-.52 6.17-1.57 1.16-.53 2.38-1.21 3.56-2.15l.46-.34c.16-.14.32-.28.47-.43.29-.3.55-.62.8-.95.49-.67.95-1.39 1.36-2.22.67-1.46.83-3.06.95-4.68.03-.52.03-1.07 0-1.61-.02-.29-.05-.58-.1-.86-.14-.81-.33-1.57-.57-2.28"/><path class="st1" d="M154.78 69.39c-.03-.23-.06-.45-.1-.67-.04-.22-.14-.46-.21-.68-.07-.22-.26-.44-.4-.65-.15-.2-.33-.35-.5-.49-.71-.53-1.44-.81-2.14-1.03-.7-.22-1.38-.37-2.05-.5-1.35-.23-2.56-.45-3.9-.59-2.6-.21-5.13-.17-7.95-.16-2.83.01-5.89.14-9.4-.81-2.44-.65-4.55-1.51-6.92-2.42-2.33-.89-4.74-2.25-7.91-4-.85-.46-1.94-1.04-3.19-1.61-1.23-.58-2.68-1.07-4.01-1.53-1.35-.47-2.67-1-3.92-1.31-1.25-.33-2.44-.33-3.22-.19-1.53.26-2.17.99-2.15 1.27 0 .01-.01.03 0 .04.04.15.26.21.65.17.39-.04.94-.17 1.7-.3 2.01-.35 4.08.6 6.22 1.36l1.61.57c.52.18 1.03.38 1.54.59 1.02.43 2.02.91 3.01 1.43 2.97 1.55 6.31 3.67 9.84 4.98 1.71.67 3.4 1.33 5.01 1.83 1.61.5 3.16.83 4.48.99 2.34.31 4.49.26 6.58.28 2.09 0 4.16 0 6.4.01.85.01 1.87.07 2.85.24 1.04.17 2.05.33 2.88.49.85.16 1.63.37 2.33.65.69.3 1.28.68 1.47 1.24.22.59.24 1.35.14 2.11-.09.77-.26 1.57-.51 2.4-.33 1.11-.76 2.29-1.27 3.42-.22.48-.46.95-.72 1.4-.04.08-.08.16-.13.23-.3.52-.64.93-1.06 1.32l-.1.1c-.82.8-2.25 1.89-3.23 2.46-.99.58-1.81.91-2.84 1.36-1.63.72-3.55 1.35-6.15 1.45-2.59.19-5.64.3-9.22-.15-2.96-.37-6.46-1.17-9.33-2.13-2.35-.76-4.54-1.82-6.48-3.07-1.06-.67-1.82-1.15-2.32-1.23-.32-.06-.52.07-.49.4.01.17.08.38.22.65.22.45 1.38 1.8 3.37 2.66 1.7.74 3.49 1.1 5.23 1.66 1.94.65 4.87 1.49 6.87 1.77 2.03.29 3.08.54 5.13.68.63.03 1.26.07 1.89.08 1.45.04 2.91.02 4.36-.05 1.01-.06 1.95-.09 3-.22 1.02-.15 2.01-.41 2.98-.74a23.51 23.51 0 0 0 5.42-2.77c.97-.66 1.87-1.35 2.69-2.19.41-.4.82-.92 1.1-1.43.31-.5.56-1.01.82-1.54.84-1.83 1.44-3.57 1.81-5.27.15-.83.27-1.68.22-2.56"/><path d="M57.64 81.23c.27.94-.37 1.7-1.21 2.06-.83.37-1.61.84-2.51 1.04-.85.18-1.71.22-2.58.26-.83.03-1.67-.16-2.5.01-1.59.33-4.05-1.21-3.64-3.07.18-.83.68-1.47 1.32-1.93.93-.66 2.16-.94 3.25-.9 1.26.05 2.36.18 3.58-.09 1.15-.25 2.21.42 3.07 1.08.53.41 1.04.9 1.22 1.54m41.34-1.69c-.84.18-1.71.07-2.56.11-.67.03-1.34.16-1.98.37-.4.14-.8.31-1.17.51-.65.36-1.31.92-1.33 1.67-.02.57.36 1.1.83 1.41.48.32 1.04.46 1.59.61l4.09 1.05c.37.1.75.19 1.14.17 1.23-.06 2.95-.16 4.03-.82.84-.51 2.21-1.78 2.06-2.84-.1-.75-.63-1.37-1.23-1.82-1.94-1.44-3.42-.86-5.47-.42" style="fill:#d09dae"/><path class="st1" d="M58.42 70.6c.68 2.23.09 3.76-.37 4.57-.56.97-2.81 1.83-3.79-.28-.68-1.47-.15-3.74.63-4.76.76-.98 2.84-1.8 3.53.47m35.97 4.81c.56-.86 1.01-3.25.04-4.82-.94-1.52-2.79-1.29-3.54.12-.73 1.36-.92 3.42-.07 4.71.96 1.46 2.99.88 3.57-.01m-14.5 1.27c-.39-.2-.87-.15-1.23.1-.24.17-.51.63-.12.83.7.35 1.31 1.06.76 1.82-.59.8-1.59.3-2.39-.04-1.06-.46-2.14-.84-3.29-.49-.94.29-1.82.82-2.79 1.01-.1.02-.35.03-.39.02a.723.723 0 0 1-.44-.38c-.18-.41.06-.91.35-1.2.28-.28.16-.65-.2-.78-.4-.15-.93.01-1.22.31-.93.95-1.05 2.54.36 3.1 1.27.5 2.75-.22 3.91-.7.21-.08.53-.22.65-.25.06-.02.33-.09.28-.08-.05.01.22.01.29.02.73.11 1.4.52 2.08.78 1.41.54 3.09.43 4.15-.76.42-.47.68-1.08.58-1.71-.11-.76-.72-1.29-1.34-1.6"/></svg>