<svg version="1.1" id="Layer_1" xmlns="http://www.w3.org/2000/svg" x="0" y="0" viewBox="0 0 750.23 224.18" style="enable-background:new 0 0 750.23 224.18" xml:space="preserve"><style>.st0{fill:#283484}</style><path class="st0" d="M22.95 222.68c-.32 0-.64-.1-.9-.3-.19-.14-.33-.32-.44-.52-.08-.04-.16-.09-.23-.14-.19-.14-.33-.32-.44-.52-.08-.04-.16-.09-.23-.14-.19-.14-.33-.32-.44-.52-.08-.04-.16-.09-.23-.14-.19-.14-.33-.32-.44-.52-.08-.04-.16-.09-.23-.14-.19-.14-.33-.32-.44-.52-.08-.04-.16-.09-.23-.14-.19-.14-.33-.32-.44-.52-.08-.04-.16-.09-.23-.14-.19-.14-.33-.32-.44-.52-.08-.04-.16-.09-.23-.14-.19-.14-.33-.32-.44-.52-.08-.04-.16-.09-.23-.14-.19-.14-.33-.32-.44-.52-.08-.04-.16-.09-.23-.14-.19-.14-.33-.32-.44-.52-.08-.04-.16-.09-.23-.14-.19-.14-.33-.32-.44-.52-.08-.04-.16-.09-.23-.14-.19-.14-.33-.32-.44-.52-.08-.04-.16-.09-.23-.14-.19-.14-.33-.32-.44-.52-.08-.04-.16-.09-.23-.14-.19-.14-.33-.32-.44-.52a1.46 1.46 0 0 1-.67-.66c-.08-.04-.16-.09-.23-.14-.19-.14-.33-.32-.44-.52-.08-.04-.16-.09-.23-.14-.19-.14-.33-.32-.44-.52-.08-.04-.16-.09-.23-.14-.19-.14-.33-.32-.44-.52-.08-.04-.16-.09-.23-.14-.19-.14-.33-.32-.44-.52-.08-.04-.16-.09-.23-.14-.19-.14-.33-.32-.44-.52-.08-.04-.16-.09-.23-.14-.19-.14-.33-.32-.44-.52-.08-.04-.16-.09-.23-.14-.19-.14-.33-.32-.44-.52-.08-.04-.16-.09-.23-.14-.19-.14-.33-.32-.44-.52-.08-.04-.16-.09-.23-.14-.19-.14-.33-.32-.44-.52-.08-.04-.16-.09-.23-.14-.19-.14-.33-.32-.44-.52-.08-.04-.16-.09-.23-.14-.19-.14-.33-.32-.44-.52-.08-.04-.16-.09-.23-.14-.19-.14-.33-.32-.44-.52-.08-.04-.16-.09-.23-.14-.19-.14-.33-.32-.44-.52-.08-.04-.16-.09-.23-.14-.19-.14-.33-.32-.44-.52-.08-.04-.16-.09-.23-.14-.19-.14-.33-.32-.44-.52a1.492 1.492 0 0 1-.83-1.34v-24.4c0-.81.64-1.47 1.45-1.5l2.9-.09c4.33-.14 6.63-.44 16.37-2.16l35.38-6.24v-5.03l-12.69 2.24c-9.02 1.59-12.55 2.31-16.42 3.36l-3.78 1.02a1.494 1.494 0 0 1-1.3-.26c-.18-.14-.33-.32-.43-.52a1.538 1.538 0 0 1-.67-.67 1.538 1.538 0 0 1-.67-.67 1.538 1.538 0 0 1-.67-.67 1.538 1.538 0 0 1-.67-.67 1.538 1.538 0 0 1-.67-.67 1.538 1.538 0 0 1-.67-.67 1.538 1.538 0 0 1-.67-.67 1.538 1.538 0 0 1-.67-.67 1.538 1.538 0 0 1-.67-.67 1.538 1.538 0 0 1-.67-.67 1.538 1.538 0 0 1-.67-.67 1.538 1.538 0 0 1-.67-.67 1.538 1.538 0 0 1-.67-.67 1.538 1.538 0 0 1-.67-.67 1.538 1.538 0 0 1-.67-.67 1.538 1.538 0 0 1-.67-.67 1.538 1.538 0 0 1-.67-.67 1.538 1.538 0 0 1-.67-.67 1.538 1.538 0 0 1-.67-.67 1.538 1.538 0 0 1-.67-.67 1.538 1.538 0 0 1-.67-.67 1.538 1.538 0 0 1-.67-.67 1.538 1.538 0 0 1-.67-.67 1.538 1.538 0 0 1-.67-.67 1.538 1.538 0 0 1-.67-.67 1.538 1.538 0 0 1-.67-.67 1.538 1.538 0 0 1-.67-.67 1.538 1.538 0 0 1-.67-.67 1.538 1.538 0 0 1-.67-.67 1.492 1.492 0 0 1-.83-1.34v-24.34c0-.81.64-1.47 1.45-1.5l2.9-.09c4.36-.14 7.2-.45 16.47-2.08l44.87-7.91c5.41-.95 7.97-1.51 10.56-2.14l3.95-.92a1.521 1.521 0 0 1 1.31.31c.16.13.28.29.37.47.1.05.2.12.29.19.16.13.28.29.37.47.1.05.2.12.29.19.16.13.28.29.37.47.1.05.2.12.29.19.16.13.28.29.37.47.1.05.2.12.29.19.16.13.28.29.37.47.1.05.2.12.29.19.16.13.28.29.37.47.1.05.2.12.29.19.16.13.28.29.37.47.1.05.2.12.29.19.16.13.28.29.37.47.1.05.2.12.29.19.16.13.28.29.37.47.1.05.2.12.29.19.16.13.28.29.37.47.1.05.2.12.29.19.16.13.28.29.37.47.1.05.2.12.29.19.16.13.28.29.37.47.1.05.2.12.29.19.16.13.28.29.37.47.1.05.2.12.29.19.16.13.28.29.37.47.1.05.2.12.29.19.16.13.28.29.37.47.1.05.2.12.29.19.16.13.28.29.37.47.1.05.2.12.29.19.16.13.28.29.37.47.1.05.2.12.29.19.16.13.28.29.37.47.1.05.2.12.29.19.16.13.28.29.37.47.1.05.2.12.29.19.16.13.28.29.37.47.1.05.2.12.29.19.16.13.28.29.37.47.1.05.2.12.29.19.16.13.28.29.37.47.1.05.2.12.29.19.16.13.28.29.37.47.1.05.2.12.29.19.16.13.28.29.37.47.1.05.2.12.29.19.04.04.08.07.12.11h.02c-.1-.2-.15-.43-.15-.66v-23c0-.81.65-1.48 1.46-1.5l2.93-.07c3.55-.09 7.01-.52 13.7-1.7l31.18-5.5c7.6-1.34 11.58-2.24 14.66-3.3l3.98-1.37c.16-.06.32-.08.49-.08.31 0 .61.1.87.28.2.14.36.33.47.55.07.03.13.07.2.12.2.14.36.33.47.55.07.03.13.07.2.12.2.14.36.33.47.55.07.03.13.07.2.12.2.14.36.33.47.55.07.03.13.07.2.12.2.14.36.33.47.55.07.03.13.07.2.12.2.14.36.33.47.55.07.03.13.07.2.12.2.14.36.33.47.55.07.03.13.07.2.12.2.14.36.33.47.55.07.03.13.07.2.12.2.14.36.33.47.55.07.03.13.07.2.12.2.14.36.33.47.55.07.03.13.07.2.12.2.14.36.33.47.55.07.03.13.07.2.12.2.14.36.33.47.55.07.03.13.07.2.12.2.14.36.33.47.55.07.03.13.07.2.12.2.14.36.33.47.55.07.03.13.07.2.12.2.14.36.33.47.55.07.03.13.07.2.12.2.14.36.33.47.55.07.03.13.07.2.12.2.14.36.33.47.55.07.03.13.07.2.12.2.14.36.33.47.55.07.03.13.07.2.12.2.14.36.33.47.55.07.03.13.07.2.12.2.14.36.33.47.55.04.02.09.05.13.07v-1.94c0-.81.65-1.48 1.46-1.5l2.91-.08c3.45-.1 6.18-.37 14.21-1.78l14.37-2.53c0-4.73-.1-6.51-.55-9.98l-.37-2.84c-.1-.79.44-1.53 1.23-1.67l25.3-4.46c.09-.02.17-.02.26-.02.38 0 .75.15 1.03.41.09.08.16.18.23.27l13.82-6.19c.2-.09.41-.13.61-.13.33 0 .65.11.92.31l12.42-5.74c.2-.09.42-.14.63-.14.42 0 .83.18 1.13.51l.36.4c.11.07.22.16.31.26l.36.4c.11.07.22.16.31.26l.36.4c.11.07.22.16.31.26l.36.41c.11.07.22.16.31.26l.36.41c.11.07.22.16.31.26l.36.41c.11.07.22.16.31.26l.36.4c.11.07.22.16.31.26l.36.4c.11.07.22.16.31.26l.36.4c.11.07.22.16.31.26l.36.4c.11.07.22.16.31.26l.36.4c.11.07.22.16.31.26l.36.4c.11.07.22.16.31.26l.36.4c.11.07.22.16.31.26l.36.4c.11.07.22.16.31.26l.36.4c.11.07.22.16.31.26l.36.41c.11.07.22.16.31.26l.36.4c.11.07.22.16.31.26l.36.4c.11.07.22.16.31.26l.36.4c.11.07.22.16.31.26l.36.4c.11.07.22.16.31.26l.36.4c.1.06.19.13.27.22a55.78 55.78 0 0 0-.44-4.93l-.4-2.88c-.11-.8.43-1.55 1.23-1.68l26.32-4.51a1.51 1.51 0 0 1 1.29.4c.12.12.23.26.3.41.13.07.26.15.36.26.12.12.22.26.3.41.13.07.25.15.36.26.12.12.23.26.3.41.13.07.25.15.36.26.12.12.23.26.3.41.13.07.26.15.37.26.12.12.23.26.3.41.13.07.26.15.36.26.12.12.23.26.3.41.13.07.26.15.36.26.12.12.23.26.3.41.13.07.26.15.36.26.12.12.22.26.3.41.13.07.26.15.36.26.12.12.22.26.3.41.13.07.26.15.36.26.12.12.22.26.3.41.13.07.25.15.36.26.12.12.23.26.3.41.13.07.26.15.36.26.12.12.23.26.3.41.13.07.25.15.36.26.12.12.23.26.3.41.13.07.26.15.36.26.12.12.23.26.3.41.13.07.25.15.36.26.12.12.23.26.3.41.13.07.26.15.37.26.12.12.23.26.3.41.13.07.26.15.36.26.12.12.23.26.3.41.13.07.26.15.36.26.12.12.22.26.3.41.13.07.26.15.36.26.12.12.23.26.3.41.13.07.26.15.36.26.12.12.22.26.3.41.13.07.26.15.36.26.12.12.23.26.3.41.13.07.26.15.36.26.12.12.23.26.3.41.13.07.26.15.36.26.12.12.22.26.3.41.13.07.25.15.36.26.12.12.23.26.3.41.13.07.26.15.36.26.12.12.23.26.3.41.13.07.26.15.36.26.12.12.23.26.3.41.13.07.25.15.36.26.12.12.23.26.3.41.13.07.26.15.37.26.12.12.23.26.3.41.13.07.25.15.36.26.12.12.23.26.3.41.13.07.26.15.36.26.12.12.23.26.3.41.13.07.26.15.36.26.34.33.51.8.45 1.27l-.53 4.03c-.45 3.43-.55 5.75-.65 11.44l-.11 9.6c5.81-5.92 10.61-12.88 14.3-20.76l2.03-4.34c.22-.47.66-.79 1.18-.85.06-.01.12-.01.18-.01.45 0 .88.2 1.17.56l.25.31c.16.09.3.21.41.35l.25.31c.16.09.3.21.41.35l.25.31c.16.09.3.21.41.35l.25.31c.16.09.3.21.41.35l.25.31c.16.09.3.21.41.35l.25.31c.16.09.3.21.41.35l.25.31c.16.09.3.21.41.35l.25.31c.16.09.3.21.41.35l.25.31c.16.09.3.21.41.35l.25.31c.16.09.3.21.41.35l.25.31c.16.09.3.21.41.35l.25.31c.16.09.3.21.41.35l.25.31c.16.09.3.21.41.35l.25.31c.16.09.3.21.41.35l.25.31c.16.09.3.21.42.36l.25.31c.16.09.3.21.41.35l.25.31c.16.09.3.21.41.35l.25.31c.16.09.3.21.41.35l.25.31c.16.09.3.21.41.35l.25.31c.06.03.11.07.16.11.6.37 1.22.75 1.89 1.13l2.64 1.51c.26.15.46.36.59.62l.07.04c.24.14.44.34.57.58V84.07c0-.81.64-1.48 1.46-1.5l4.27-.13c3.82-.11 8.33-.72 17.9-2.41 0 0 28.8-5.85 28.81-5.85 9.18-1.62 12.46-2.38 18.27-4.01l5.59-1.56c.13-.04.27-.06.4-.06.32 0 .64.1.91.31.18.14.33.32.43.52.08.04.16.09.23.15.18.14.33.32.43.52.08.04.16.09.23.15.18.14.33.32.43.52.08.04.16.09.23.15.18.14.33.32.43.52.08.04.16.09.23.15.18.14.33.32.43.52.08.04.16.09.23.15.18.14.33.32.43.52.08.04.16.09.23.15.18.14.33.32.43.52.08.04.16.09.23.14.18.14.33.32.43.52.08.04.16.09.23.15.18.14.33.32.43.52.08.04.16.09.23.15.01.01.03.02.04.04l10.08-17.21c-.26-.14-.48-.37-.61-.64-.28-.14-.52-.37-.67-.67-.28-.14-.52-.37-.67-.67-.28-.14-.52-.37-.67-.67-.28-.14-.52-.37-.67-.67a1.49 1.49 0 0 1-.68-.7c-.21-.44-.19-.96.06-1.39l11.92-20.69c.27-.47.77-.75 1.3-.75.09 0 .18.01.27.02l2.08.38c11.71 2.14 20.36 4.51 28.91 7.91l3.12 1.24c.34.14.62.39.78.72.29.15.52.38.67.67.29.15.52.38.67.67.29.15.52.38.67.67.29.15.52.38.67.67.29.15.52.38.67.67.29.15.52.38.67.67.29.15.52.38.67.67.29.15.52.38.67.67.29.14.52.38.67.67.29.15.52.38.67.67.29.15.52.38.67.67.29.15.52.38.67.67.29.15.52.38.67.67.29.15.52.38.67.67.29.15.52.38.67.67.29.15.52.38.67.67.29.15.52.38.67.67.29.15.52.38.67.67.21.11.4.26.54.46 1.51-3.29 2.91-6.95 4.44-11.53l1.41-4.24c.16-.47.54-.84 1.02-.97a1.559 1.559 0 0 1 1.38.31l3.39 2.91c5.47 4.69 7.99 6.51 13.11 8.7l2.69 1.15c.34.15.6.4.75.7.3.15.52.39.67.67.3.15.52.39.67.67.3.15.52.39.67.67.3.15.52.39.67.66.3.15.52.39.67.67.3.15.52.39.67.67.3.15.52.39.67.67.3.15.52.39.67.67.01 0 .01.01.02.01V37.03c0-.8.63-1.46 1.43-1.5l2.87-.13c4.2-.19 6.34-.48 11.54-1.4l39.98-7.05c4.5-.79 5.86-1.12 8.49-1.77l3.88-.97a1.514 1.514 0 0 1 1.31.3c.17.14.3.3.39.49.1.05.19.11.27.18.17.14.3.3.39.49.1.05.19.11.27.18.17.14.3.3.39.49.1.05.19.11.27.18.17.14.3.3.39.49.1.05.19.11.27.18.17.14.3.3.39.49.1.05.19.11.27.18.17.14.3.3.39.49.1.05.19.11.27.18.17.14.3.3.39.49.1.05.19.11.27.18.17.14.3.3.39.49.1.05.19.11.27.18.17.14.3.3.39.49.1.05.19.11.27.18.17.14.3.3.39.49.1.05.19.11.27.18.17.14.3.3.39.49.1.05.19.11.27.18.17.14.3.3.39.49.1.05.19.11.27.18.17.14.3.3.39.49.1.05.19.11.27.18.17.14.3.3.39.49.1.05.19.11.27.18.17.14.3.3.39.49.1.05.19.11.27.18.17.14.3.3.39.49.1.05.19.11.27.18.17.14.3.3.39.49.1.05.19.11.27.18.17.14.3.3.39.49.1.05.19.11.27.18.17.14.3.3.39.49.1.05.19.11.27.18.17.14.3.3.39.49.1.05.19.11.27.18.17.14.3.3.39.49.1.05.19.11.27.18.17.14.3.3.39.49.1.05.19.11.27.18.17.14.3.3.39.49.1.05.19.11.27.18.17.14.3.3.39.49.1.05.19.11.27.18.17.14.3.3.39.49.1.05.19.11.27.18.17.14.3.3.39.49.1.05.19.11.27.18.17.14.3.3.39.49.1.05.19.11.27.18.17.14.3.3.39.49.1.05.19.11.27.18.17.14.3.3.39.49.1.05.19.11.27.18.17.14.3.3.39.49.1.05.19.11.27.18.37.3.57.75.55 1.22l-.16 4c-.09 2.29-.19 5.81-.19 8.81v5.81c8.1-2.47 16.19-6.02 23.53-10.31.48-.28.96-.56 1.45-.86a75.237 75.237 0 0 0-11.13-4.97l-3.77-1.34c-.37-.13-.66-.4-.84-.74-.29-.15-.52-.38-.67-.67-.29-.15-.52-.38-.67-.67-.29-.15-.52-.38-.67-.67-.29-.15-.52-.38-.67-.67-.29-.15-.52-.38-.67-.67-.29-.15-.52-.38-.67-.67-.29-.15-.52-.38-.67-.67-.29-.15-.52-.38-.67-.67-.29-.15-.52-.38-.67-.67-.29-.15-.52-.38-.67-.67-.29-.15-.52-.38-.67-.67-.29-.15-.52-.38-.67-.67-.29-.15-.52-.38-.67-.67-.29-.15-.52-.38-.67-.67-.29-.15-.52-.38-.67-.67-.29-.15-.52-.38-.67-.67-.29-.15-.52-.38-.67-.67-.29-.15-.52-.38-.67-.67-.29-.15-.52-.38-.67-.67-.29-.15-.52-.38-.67-.67-.29-.15-.52-.38-.67-.67-.29-.15-.52-.38-.67-.67-.29-.15-.52-.38-.67-.67-.29-.14-.52-.38-.67-.66-.29-.15-.52-.38-.67-.67-.29-.15-.52-.38-.67-.67-.29-.15-.52-.38-.67-.67-.29-.15-.52-.38-.67-.67-.29-.14-.52-.38-.67-.66-.36-.18-.64-.5-.76-.89-.14-.45-.06-.94.22-1.32l14.96-20.7a1.507 1.507 0 0 1 1.78-.51l2.18.87c12.84 5.16 19.34 8.58 27.82 14.64l2.38 1.7c.19.14.34.31.45.51l.21.15c.19.14.34.31.45.51l.21.15c.19.14.34.31.45.51l.21.15c.19.14.34.31.45.51l.21.15c.19.14.34.31.45.51l.21.15c.19.14.34.31.45.51l.21.15c.19.14.34.31.45.51l.21.15c.19.14.34.31.45.51l.21.15c.19.14.34.31.45.51l.21.15c.19.14.34.32.45.51l.21.15c.19.14.34.31.45.51l.22.15c.19.14.34.31.45.51l.22.15c.19.14.34.31.45.51l.22.15c.19.14.34.31.45.51l.22.15c.19.14.34.31.45.51l.03.02c.79-1.21 1.54-2.42 2.26-3.66 3.84-6.44 6.42-11.98 9.22-19.78l1.61-4.48c.17-.48.58-.85 1.09-.96.11-.02.22-.04.32-.04.4 0 .78.16 1.07.44l.58.58c.03.03.06.05.09.08l.58.59c.03.02.06.05.08.08l.59.59c.03.02.72.71.74.74l.59.59c.03.02.05.05.08.07l.59.59c.03.02.05.05.08.07l1.14 1.15c3.06 2.92 5.11 4.31 11.54 7.83l2.4 1.31c.28.15.49.38.62.64l.04.02c.28.15.49.38.62.64l.04.02c.28.15.49.38.62.64l.04.02c.28.15.49.38.62.64l.04.02c.28.15.49.38.62.64l.04.02c.28.15.49.38.62.64l.04.02c.28.15.49.38.62.64l.04.02c.28.15.49.38.62.64l.04.02c.28.15.49.38.62.64l.04.02c.28.15.49.38.62.64l.04.02c.28.15.49.38.62.64l.04.02c.28.15.49.38.62.64l.04.02c.28.15.49.38.62.64l.04.02c.28.15.49.38.62.64l.04.02c.28.15.49.38.62.64l.04.02c.28.15.49.38.62.64l.04.02c.28.15.49.38.62.64l.04.02c.28.15.49.38.62.64l.04.02c.28.15.49.38.62.64l.04.02c.28.15.49.38.62.64l.04.02c.28.15.49.38.62.64l.05.02c.28.15.49.38.62.64l.04.02c.28.15.49.38.62.64l.04.02c.28.15.49.38.62.64l.04.02c.28.15.49.38.62.64l.04.02c.28.15.49.38.62.64l.04.02c.28.15.49.38.62.64l.04.02c.28.15.49.38.62.64l.04.02c.28.15.49.38.62.64l.04.02c.28.15.49.38.62.64l.04.02c.68.37.97 1.2.66 1.91l-1.09 2.51c-9.23 21.3-18.83 34.72-33.16 46.31-11.06 9.01-20.58 14.31-39.18 21.83l-1.69.68c-2.34.94-3.05 1.22-5.13 2.2l-3.18 1.49c-.2.09-.42.14-.64.14a1.5 1.5 0 0 1-.62-.13c-.31-.14-.57-.39-.72-.69-.29-.15-.52-.38-.67-.67-.29-.15-.52-.38-.67-.67-.29-.15-.52-.38-.67-.67-.29-.15-.52-.38-.67-.67-.29-.15-.52-.38-.67-.67-.29-.15-.52-.38-.67-.67-.29-.15-.52-.38-.67-.67-.29-.15-.52-.38-.67-.67-.29-.15-.52-.38-.67-.67a1.58 1.58 0 0 1-.67-.66c-.29-.15-.52-.38-.67-.67-.29-.15-.52-.38-.67-.67-.29-.15-.52-.38-.67-.67-.29-.15-.52-.38-.67-.67a1.58 1.58 0 0 1-.67-.66c-.29-.15-.52-.38-.67-.67-.29-.15-.52-.38-.67-.67-.29-.15-.52-.38-.67-.67-.29-.15-.52-.38-.67-.67-.29-.15-.52-.38-.67-.67a1.58 1.58 0 0 1-.67-.66c-.29-.15-.52-.38-.67-.67-.29-.15-.52-.38-.67-.67-.29-.15-.52-.38-.67-.67-.29-.15-.52-.38-.67-.67-.29-.15-.52-.38-.67-.67-.29-.15-.52-.38-.67-.67-.07-.04-.14-.08-.2-.12v9.01c0 4.08.17 8.25.47 11.43l.26 2.75c.07.78-.46 1.48-1.23 1.62l-21.69 3.82c-.09.01-.17.02-.26.02-.35 0-.69-.12-.96-.35-.16-.13-.29-.29-.38-.47-.1-.05-.2-.12-.29-.19-.16-.13-.29-.29-.38-.47-.1-.05-.2-.12-.29-.19-.16-.13-.29-.29-.38-.47-.1-.05-.2-.12-.29-.19-.16-.13-.29-.29-.38-.47-.1-.05-.2-.12-.29-.19-.16-.13-.29-.29-.38-.47-.01-.01-.02-.01-.03-.02l-26.79 4.72c-5.58.98-8.87 1.67-11.74 2.44l-3.78 1.01c-.13.04-.26.05-.39.05-.33 0-.65-.11-.91-.31-.18-.14-.33-.32-.43-.52a1.538 1.538 0 0 1-.67-.67 1.538 1.538 0 0 1-.67-.67 1.538 1.538 0 0 1-.67-.67 1.538 1.538 0 0 1-.67-.67 1.538 1.538 0 0 1-.67-.67 1.538 1.538 0 0 1-.67-.67 1.538 1.538 0 0 1-.67-.67 1.538 1.538 0 0 1-.67-.67 1.538 1.538 0 0 1-.67-.67 1.538 1.538 0 0 1-.67-.67 1.538 1.538 0 0 1-.67-.67 1.538 1.538 0 0 1-.67-.67 1.538 1.538 0 0 1-.67-.67 1.538 1.538 0 0 1-.67-.67c-.08-.04-.16-.09-.24-.15-.18-.14-.33-.32-.43-.51-.08-.04-.16-.09-.24-.15-.18-.14-.33-.32-.43-.51-.08-.04-.16-.09-.24-.15-.18-.14-.33-.32-.43-.51a1.538 1.538 0 0 1-.67-.67c-.08-.04-.16-.09-.24-.15-.18-.14-.33-.32-.43-.51a1.538 1.538 0 0 1-.67-.67 1.538 1.538 0 0 1-.67-.67 1.538 1.538 0 0 1-.67-.67 1.538 1.538 0 0 1-.67-.67 1.538 1.538 0 0 1-.67-.67 1.538 1.538 0 0 1-.67-.67 1.538 1.538 0 0 1-.67-.67 1.538 1.538 0 0 1-.67-.67 1.538 1.538 0 0 1-.67-.67 1.538 1.538 0 0 1-.67-.67 1.492 1.492 0 0 1-.83-1.34v-4.62c-.43.57-.86 1.14-1.31 1.72-10.27 13.43-22.77 23.45-39.31 31.53-5.66 2.79-9.94 4.57-18.29 7.58-2.62.91-4.4 1.65-6.6 2.63l-3.17 1.41c-.19.09-.4.13-.61.13-.22 0-.43-.05-.64-.14a1.49 1.49 0 0 1-.7-.68c-.29-.15-.52-.38-.67-.67-.29-.15-.52-.38-.67-.67-.29-.15-.52-.38-.67-.67-.29-.15-.52-.38-.67-.67-.29-.15-.52-.38-.67-.67-.29-.15-.52-.38-.67-.67-.29-.15-.52-.38-.67-.67-.29-.15-.52-.38-.67-.67-.29-.15-.52-.38-.67-.67-.29-.15-.52-.38-.67-.67-.29-.15-.52-.38-.67-.67-.29-.15-.52-.38-.66-.66-.29-.15-.52-.38-.67-.67-.29-.15-.52-.38-.67-.67-.29-.15-.52-.38-.67-.67-.29-.15-.52-.38-.67-.67-.29-.15-.52-.38-.67-.67-.29-.15-.52-.38-.67-.67-.29-.15-.52-.38-.67-.67-.29-.15-.52-.38-.67-.67-.29-.15-.52-.38-.67-.67-.29-.15-.52-.38-.67-.67-.29-.15-.52-.38-.67-.67-.29-.15-.52-.38-.67-.67-.29-.15-.52-.38-.67-.67-.29-.15-.52-.38-.67-.67-.29-.15-.52-.38-.67-.67-.29-.15-.52-.38-.67-.67-.29-.15-.52-.38-.67-.67-.38-.19-.65-.53-.77-.93l-1.78-6.31c-3.67.36-7.84 1.04-16.38 2.54 0 0-28.61 5.82-28.62 5.82-10.1 1.78-13.03 2.38-18.48 3.78l-5.5 1.42c-.12.03-.25.05-.37.05-.33 0-.65-.11-.92-.31-.18-.14-.32-.31-.42-.51a.974.974 0 0 1-.24-.15c-.18-.14-.32-.31-.42-.51a1.475 1.475 0 0 1-.66-.66 1.475 1.475 0 0 1-.66-.66.974.974 0 0 1-.24-.15c-.18-.14-.32-.31-.42-.51a1.475 1.475 0 0 1-.66-.66 1.475 1.475 0 0 1-.66-.66c-.08-.04-.17-.09-.24-.15-.01-.01-.03-.02-.04-.03-14.47 23.17-33 37.36-61.57 47.26l-.21.08c-3.31 1.2-3.39 1.24-4.46 2.04l-2.06 1.55c-.27.2-.59.3-.9.3-.38 0-.76-.14-1.05-.43l-12.04-11.74c-.05-.04-.09-.09-.13-.14l-.54-.52c-.05-.04-.09-.09-.13-.14l-.54-.53c-.05-.04-.09-.09-.13-.14l-.54-.53c-.05-.04-.09-.09-.13-.14l-.54-.53c-.05-.05-.09-.09-.13-.15 0 0-.57-.55-.58-.57.12.26.17.56.13.85-.06.42-.29.79-.65 1.03l-2.92 1.97c-8.15 5.5-9 6.07-15.63 11.44l-2.63 2.13c-.27.22-.6.33-.94.33-.08 0-.16-.01-.25-.02-.42-.07-.8-.32-1.02-.68l-.08-.13c-.24-.12-.44-.31-.58-.54l-.08-.13c-.24-.12-.44-.31-.58-.54l-.08-.13c-.24-.12-.44-.31-.58-.54l-.08-.13c-.24-.12-.44-.31-.58-.54l-.08-.13c-.24-.12-.44-.31-.58-.54l-.08-.13c-.24-.12-.44-.31-.58-.54l-.08-.13c-.24-.12-.44-.31-.58-.54l-.08-.13c-.24-.12-.44-.31-.58-.54l-.08-.13c-.24-.12-.44-.31-.58-.54l-.08-.13c-.24-.12-.44-.31-.58-.54l-.08-.13c-.24-.12-.44-.31-.58-.54l-.08-.13c-.24-.12-.44-.31-.58-.54l-.08-.13c-.24-.12-.44-.31-.58-.54l-.08-.13c-.24-.12-.44-.31-.58-.54l-.08-.13c-.24-.12-.44-.31-.58-.54l-.08-.13c-.24-.12-.44-.31-.58-.54l-.08-.13c-.24-.12-.44-.31-.58-.54l-.08-.13c-.24-.12-.44-.31-.58-.54l-.08-.13c-.24-.12-.44-.31-.58-.54l-.08-.13c-.24-.12-.44-.31-.58-.54l-.08-.13c-.24-.12-.44-.31-.58-.54l-.08-.13c-.24-.12-.44-.31-.58-.54l-.08-.13a1.5 1.5 0 0 1-.57-.52v5.78c0 8.19.1 10.83.53 13.42l.48 2.92a1.5 1.5 0 0 1-1.22 1.72l-25.63 4.52c-.09.01-.17.02-.26.02a1.492 1.492 0 0 1-1.34-.83c-.13-.07-.25-.15-.36-.26-.12-.12-.23-.26-.3-.41-.13-.07-.25-.15-.36-.26-.12-.12-.23-.26-.3-.41-.13-.07-.25-.15-.36-.26-.12-.12-.23-.26-.3-.41-.13-.07-.25-.15-.36-.26-.12-.12-.23-.26-.3-.41-.13-.07-.25-.15-.36-.26-.12-.12-.23-.26-.3-.41-.13-.07-.25-.15-.36-.26-.12-.12-.23-.26-.3-.41-.13-.07-.25-.15-.36-.26-.12-.12-.23-.26-.3-.41-.13-.07-.25-.15-.36-.26-.12-.12-.23-.26-.3-.41-.13-.07-.25-.15-.36-.26-.12-.12-.23-.26-.3-.41a1.55 1.55 0 0 1-.37-.26 1.73 1.73 0 0 1-.3-.41c-.13-.07-.26-.15-.36-.26a1.73 1.73 0 0 1-.3-.41c-.13-.07-.26-.15-.36-.26a1.73 1.73 0 0 1-.3-.41c-.13-.07-.26-.15-.36-.26a1.73 1.73 0 0 1-.3-.41c-.13-.07-.26-.15-.36-.26a1.73 1.73 0 0 1-.3-.41c-.1-.05-.19-.11-.28-.18-.9 1.66-1.84 3.27-2.83 4.88l-1.36 2.21c-.28.46-.77.71-1.28.71-.2 0-.4-.04-.59-.12l-2.38-1.02c-6.29-2.7-10.1-3.9-15.1-4.75l-4.68-.79c-.47-.08-.88-.38-1.09-.8-.28-.14-.52-.38-.67-.67-.28-.14-.52-.38-.67-.67-.29-.14-.52-.38-.67-.67-.28-.14-.52-.38-.66-.66-.28-.14-.52-.38-.67-.67-.28-.14-.52-.38-.67-.67-.28-.14-.52-.38-.67-.67-.28-.14-.52-.38-.67-.67-.28-.14-.52-.38-.67-.67-.28-.14-.52-.38-.67-.67-.28-.14-.52-.38-.67-.67-.28-.14-.52-.38-.66-.67-.29-.14-.52-.38-.67-.67-.02-.01-.03-.02-.05-.03-3.36 5.25-7.19 10.05-11.41 14.27-7.67 7.72-14.95 12.94-28.86 20.69l-2.77 1.54c-.23.12-.48.19-.73.19-.15 0-.3-.02-.45-.07a1.46 1.46 0 0 1-.89-.76c-.29-.14-.52-.38-.67-.67a1.43 1.43 0 0 1-.66-.67c-.29-.14-.52-.38-.67-.67-.29-.14-.52-.38-.67-.67-.29-.14-.52-.38-.67-.67-.29-.14-.52-.38-.67-.67-.29-.14-.52-.38-.66-.66-.29-.14-.52-.38-.67-.67-.29-.14-.52-.38-.67-.67-.29-.14-.52-.38-.67-.67-.29-.14-.52-.38-.67-.67a1.43 1.43 0 0 1-.66-.67c-.29-.14-.52-.38-.67-.67-.29-.14-.52-.38-.67-.67-.29-.14-.52-.38-.67-.67-.29-.14-.52-.38-.67-.67-.29-.14-.52-.38-.67-.67-.29-.14-.52-.38-.67-.67-.29-.14-.52-.38-.67-.67-.29-.14-.52-.38-.67-.67-.29-.14-.52-.38-.67-.67-.29-.14-.52-.38-.67-.67a1.43 1.43 0 0 1-.66-.67c-.29-.14-.52-.38-.67-.67-.29-.14-.52-.38-.67-.67-.29-.14-.52-.38-.67-.67-.29-.14-.52-.38-.67-.67-.29-.14-.52-.38-.67-.67a1.43 1.43 0 0 1-.66-.67 1.52 1.52 0 0 1-.67-.68l-1.39-2.85c-1.1-2.27-2.19-4.06-3.53-5.8a1.35 1.35 0 0 0-.09-.11l-.45-.41c-.09-.08-.17-.17-.24-.27l-.43-.39c-.09-.08-.17-.17-.24-.27l-.43-.39c-.09-.08-.17-.17-.24-.28l-.43-.39c-.09-.08-.17-.17-.24-.27l-.43-.39c-.09-.08-.17-.17-.24-.27l-.43-.39c-.09-.08-.17-.18-.24-.28l-.43-.39c-.09-.08-.17-.18-.24-.28l-.43-.39c-.09-.08-.17-.18-.24-.28l-.43-.39c-.09-.08-.17-.18-.24-.28l-.43-.39c-.09-.08-.17-.18-.24-.28l-.43-.39c-.09-.08-.17-.18-.24-.28l-.43-.39c-.09-.08-.17-.18-.24-.28l-.43-.39c-.09-.08-.17-.18-.24-.28l-.43-.39c-.09-.08-.17-.18-.24-.28l-.43-.39a1.5 1.5 0 0 1 .42-2.49l3.35-1.44c-.01-.02-.02-.03-.02-.05-.09-.04-.17-.1-.25-.16-.18-.14-.32-.31-.42-.51-.09-.04-.17-.1-.25-.16-.18-.14-.32-.31-.42-.51-.09-.04-.17-.1-.25-.16-.18-.14-.32-.31-.42-.51-.09-.04-.17-.1-.25-.16-.18-.14-.32-.31-.42-.51-.09-.04-.17-.1-.25-.16-.18-.14-.32-.31-.42-.51a.963.963 0 0 1-.25-.16c-.18-.14-.32-.31-.42-.51a.963.963 0 0 1-.25-.16c-.18-.14-.32-.31-.42-.51a.963.963 0 0 1-.25-.16c-.18-.14-.32-.31-.42-.51a.963.963 0 0 1-.25-.16c-.18-.14-.32-.31-.42-.51a.963.963 0 0 1-.25-.16c-.18-.14-.32-.31-.41-.5v31.53c0 8.16.11 10.2.57 15.38l.24 2.74c.07.78-.47 1.47-1.23 1.61l-24.61 4.34c-.09.01-.17.02-.26.02-.35 0-.69-.12-.96-.35-.16-.13-.29-.3-.38-.48-.1-.05-.2-.12-.29-.19-.16-.13-.28-.29-.38-.47-.1-.05-.2-.12-.29-.19-.16-.13-.28-.29-.38-.47-.1-.05-.2-.12-.29-.19-.16-.13-.28-.29-.38-.47-.1-.05-.2-.12-.29-.19-.16-.13-.28-.29-.38-.47-.1-.05-.2-.12-.29-.19-.16-.13-.28-.29-.38-.47-.1-.05-.2-.12-.29-.19-.13-.11-.24-.24-.33-.38l-30.33 5.35c-9.12 1.61-12.16 2.25-16.26 3.42l-3.82 1.09c1.19.97 1.05.99.91.99zm261.16-94.04c.56 2.43 1.22 4.83 1.96 7.18l.05-7.49c-.61.08-1.27.19-2.01.31zM469.3 97.19c.62-.2 1.24-.4 1.87-.62-.22-.14-.4-.34-.52-.58-.28-.14-.52-.38-.67-.67a1.58 1.58 0 0 1-.67-.66s-.01 0-.01-.01v2.54z"/><path class="st0" d="m707.85 3 .66.67.66.67.67.66.66.67.66.67.68.66.66.67.48.48c3.29 3.15 5.61 4.66 11.89 8.09l2.4 1.31-.11.24.77.42-.11.24.77.42-.11.24.77.42-.11.24.77.42-.11.24.77.42-.11.24.77.42-.11.24.77.42-.11.24.77.42-.11.24.77.42-.11.24.77.42-.11.24.77.42-.11.24.77.42-.11.24.77.42-.11.24.77.42-.11.24.77.42-.11.24.77.42-.11.24.77.42-.11.24.77.42-.11.24.77.42-.11.24.77.42-.11.24.77.42-.11.24.77.42-.11.24.77.42-.11.24.77.42-.11.24.77.42-.11.24.77.42-.11.24.77.42-.11.24.77.42-.11.24.77.42-.11.24.77.42-.93 2.65c-9.12 21.06-18.61 34.31-32.73 45.74-10.93 8.9-20.35 14.15-38.8 21.6l-1.69.68c-2.37.95-3.09 1.24-5.2 2.23l-3.18 1.49-.25-.86-.42.2-.25-.86-.42.2-.25-.86-.42.2-.25-.86-.42.2-.25-.86-.42.19-.25-.86-.42.19-.25-.86-.42.2-.25-.86-.42.2-.25-.86-.42.2-.25-.86-.42.2-.25-.86-.42.19-.25-.86-.42.2-.25-.86-.42.2-.25-.86-.42.2-.25-.86-.42.19-.25-.86-.42.19-.25-.86-.42.19-.15-.88-.42.2-.25-.86-.42.2-.25-.86-.42.2-.24-.88-.42.2-.25-.86-.42.19-.25-.86-.42.2-.25-.86-.42.2-.25-.86-.42.2-.25-.86-.42.19-.25-.86-.42.19-.25-.86-.42.19-.25-.86-.42.19-.25-.86-.42.19-.97-3.37-.07-.25v15.18c0 4.13.17 8.35.48 11.57l.26 2.75-2.72.48-15.44 2.72-3.52.62v-.78l-.66.12v-.78l-.66.12v-.78l-.67.12v-.78l-.67.12v-.78l-.67.12v-.32l-27.76 4.89c-5.63.99-8.95 1.68-11.86 2.47l-3.78 1.01v-.84l-.66.18v-.84l-.67.18v-.84l-.66.18v-.84l-.67.18v-.84l-.66.18v-.84l-.67.18v-.84l-.66.18v-.84l-.66.18v-.84l-.67.18v-.84l-.67.18v-.84l-.67.18v-.84l-.66.18v-.84l-.67.18v-.84l-.66.18v-.84l-.67.18v-.84l-.67.18v-.84l-.67.18v-.84l-.66.18v-.84l-.67.18v-.84l-.66.18v-.84l-.67.18v-.84l-.66.18v-.84l-.67.18v-.84l-.66.18v-.84l-.66.18v-.84l-.67.18v-.84l-.67.18v-.84l-.67.18v-.84l-.66.18v-.84l-.67.18v-9.31c-1.24 1.84-2.56 3.64-3.99 5.49-10.13 13.25-22.46 23.14-38.79 31.11-5.61 2.77-9.84 4.52-18.14 7.52-2.65.92-4.46 1.67-6.7 2.67l-3.17 1.41-.24-.85-.42.19-.24-.85-.42.19-.24-.85-.42.19-.24-.85-.42.19-.24-.85-.42.19-.24-.85-.42.19-.24-.85-.42.19-.24-.85-.42.19-.24-.85-.42.19-.24-.85-.42.19-.24-.85-.42.19-.24-.85-.42.19-.24-.85-.42.19-.24-.85-.42.19-.24-.85-.42.19-.24-.85-.42.19-.24-.85-.42.19-.24-.85-.42.19-.24-.85-.42.19-.24-.85-.42.19-.24-.85-.42.19-.24-.85-.42.19-.24-.85-.42.19-.3-1.14-.42.19-.24-.85-.42.19-.24-.85-.42.19-.26-.87-.42.19-.24-.85-.42.19-.24-.85-.42.19-.24-.85-.42.19-.94-3.34-1.18-4.17c-4.09.33-8.23 1-17.74 2.67l-28.55 5.8-.04.01-.04.01c-10.13 1.79-13.09 2.39-18.58 3.81l-1.76.45-3.75.96v-.84l-.66.17v-.84l-.67.17v-.84l-.67.17v-.84l-.67.17v-.84l-.67.17v-.84l-.67.17v-.84l-.67.17v-.84l-.67.17v-.84l-.51.13c-14.41 23.85-33.01 38.37-61.85 48.37l-.23.08c-3.31 1.2-3.58 1.3-4.85 2.26l-2.06 1.56-1.85-1.8-8.7-8.48-1.5-1.46.01-.01-.67-.65.01-.01-.67-.65.01-.01-.67-.65.01-.01-.67-.65.01-.01-.67-.65.01-.01-.67-.65.01-.01-.67-.65.01-.01-.67-.65.01-.01-.67-.65.01-.01-.67-.65.01-.01-.67-.65.01-.01-.67-.65.01-.01-.67-.65.01-.01-.67-.65.01-.01-.67-.65.01-.01-.67-.65.01-.01-.67-.65.01-.01-.67-.65.01-.01-.67-.65.01-.01-.67-.65.01-.01-.67-.65.01-.01-.67-.65.01-.01-.4-.39c2.13 4.01 4.53 7.65 7.15 10.82l2.1 2.55-2.74 1.85-.18.12c-8.19 5.53-9.05 6.1-15.74 11.52l-2.63 2.13-.5-.8-.16.13-.5-.8-.16.13-.5-.8-.16.13-.5-.8-.16.13-.5-.8-.16.13-.5-.8-.16.13-.5-.8-.16.13-.5-.8-.16.13-.5-.8-.16.13-.5-.8-.16.13-.5-.8-.16.13-.5-.8-.16.13-.5-.8-.16.13-.5-.8-.16.13-.5-.8-.16.13-.5-.8-.16.13-.5-.8-.16.13-.5-.8-.16.13-.5-.8-.16.13-.5-.8-.16.13-.5-.8-.16.13-.5-.8-.16.13-.5-.8-.16.13-.5-.8-.16.13-.5-.8-.16.13-.5-.8-.16.13-.5-.8-.16.13-.1-.16v9.41c0 8.29.11 10.97.55 13.66l.48 2.92-2.92.51-18.67 3.29-4.04.71.11-.8-.77.14.11-.8-.77.14.11-.8-.77.14.11-.8-.77.14.11-.8-.77.14.11-.8-.77.14.11-.8-.77.14.11-.8-.77.14.11-.8-.77.14.11-.8-.77.14.11-.8-.77.14.11-.8-.77.14.11-.8-.77.14.11-.8-.77.14.11-.8-.77.14.11-.8-.77.14.11-.8-.77.14c-1.16 2.23-2.4 4.42-3.74 6.58l-1.36 2.2-2.38-1.02c-6.41-2.76-10.31-3.98-15.45-4.85l-4.68-.79.35-.49-1.01-.17.35-.49-1.01-.17.35-.49-1.01-.17.35-.49-1.01-.17.35-.49-1.01-.17.35-.49-1.01-.17.35-.49-1.01-.17.35-.49-1.01-.17.35-.49-1.01-.17.35-.49-1.01-.17.35-.49-1.01-.17.35-.49-1.01-.17.35-.49-1.01-.17.35-.49-1.01-.17.35-.49-1.01-.17.35-.49-.57-.1c-3.58 5.89-7.66 11.12-12.31 15.77-7.56 7.61-14.76 12.76-28.53 20.43l-2.77 1.55-.4-.82-.27.15-.4-.82-.27.15-.4-.81-.27.15-.4-.82-.27.15-.4-.82-.27.15-.4-.82-.27.15-.4-.82-.27.15-.4-.82-.27.15-.4-.82-.27.15-.4-.82-.27.15-.4-.82-.27.15-.4-.82-.27.15-.4-.82-.27.15-.4-.82-.27.15-.4-.82-.27.15-.4-.82-.27.15-.4-.82-.27.15-.4-.82-.27.15-.4-.82-.27.15-.4-.82-.27.15-.4-.82-.27.15-.4-.82-.27.15-.4-.82-.27.15-.4-.82-.27.15-.4-.82-.27.15-.4-.82-.27.15-.4-.82-.27.15-.4-.82-.27.15-.4-.82-.27.15-.4-.82-.27.15-1.39-2.85c-1.11-2.29-2.25-4.19-3.7-6.08l-.03-.03h.01c-.04-.06-.09-.11-.13-.17l-.54-.49.04-.02-.71-.65.04-.02-.71-.65.04-.02-.71-.65.04-.02-.71-.65.04-.02-.71-.65.04-.02-.71-.65.04-.02-.71-.65.04-.02-.71-.65.04-.02-.71-.65.04-.02-.71-.65.04-.02-.71-.65.04-.02-.71-.65.04-.02-.71-.65.04-.02-.71-.65 4.27-1.84c.39-.17.75-.33 1.13-.49v-.71l-.67.17v-.83l-.67.17v-.83l-.67.17v-.83l-.67.17v-.83l-.67.17V165l-.67.17v-.83l-.67.17v-.83l-.66.17V163l-.67.17v-.83l-.67.17v-.83l-.67.17v-.83l-.67.17v-.83l-.67.17v-.83l-.67.17v-.83l-.67.17v-.83l-.67.17v-.83l-.17.04v35.66c0 8.23.11 10.28.57 15.52l.24 2.74-2.71.48-18.38 3.24-3.52.62v-.78l-.67.12v-.78l-.67.12v-.78l-.67.12v-.78l-.67.12v-.78l-.67.12v-.78l-.73.06v-.78l-.67.12v-.2l-31.22 5.5c-9.18 1.62-12.25 2.26-16.41 3.45l-3.82 1.09v-.86l-.67.19v-.86l-.66.19v-.86l-.67.19v-.86l-.67.19v-.86l-.67.19V217l-.67.19v-.86l-.67.19v-.86l-.67.19V215l-.67.19v-.86l-.67.19v-.86l-.67.19V213l-.66.19v-.85l-.67.19v-.86l-.67.19V211l-.67.19v-.86l-.67.19v-.86l-.67.19V209l-.67.19v-.85l-.67.19v-.86l-.67.19V207l-.67.19v-.86l-.66.19v-.85l-.67.19V205l-.67.19v-.86l-.67.19v-.86l-.67.19v-.86l-.56.23v-.86l-.67.19v-.86l-.67.19v-.86l-.66.21v-24.4l2.9-.09c4.43-.14 6.75-.45 16.59-2.18l36.62-6.46v-8.08l-14.45 2.55c-9.07 1.6-12.63 2.33-16.55 3.39l-3.78 1.02v-.84l-.67.18v-.84l-.67.18v-.84l-.67.18v-.84l-.67.18v-.84l-.65.14v-.84l-.67.18v-.84l-.67.18v-.84l-.66.17v-.84l-.67.18v-.84l-.67.18v-.84l-.66.16v-.84l-.66.18v-.84l-.67.18v-.84l-.67.18v-.84l-.67.18v-.84l-.67.18v-.84l-.67.18v-.84l-.64.15v-.84l-.67.18v-.84l-.67.18v-.84l-.66.16v-.84l-.66.18v-.84l-.67.18v-.84l-.67.18v-.84l-.67.18v-.84l-.67.18v-.84l-.67.18v-.84l-.67.18v-.84l-.67.18v-.84l-.67.18v-24.34l2.9-.09c4.44-.15 7.32-.45 16.68-2.11l44.87-7.91c5.45-.96 8.03-1.52 10.66-2.16l3.94-.92-.05.83.71-.17-.05.83.71-.17-.05.83.71-.17-.05.83.71-.17-.05.83.71-.17-.05.83.71-.17-.05.83.71-.17-.05.83.71-.17-.05.83.71-.17-.05.83.71-.17-.05.83.71-.17-.05.83.71-.17-.05.83.71-.17-.05.83.71-.17-.05.83.71-.17-.05.83.71-.17-.05.83.71-.17-.05.83.71-.17-.05.83.71-.17-.05.83.71-.17-.05.83.71-.17-.05.83.71-.17.1.9.71-.17-.05.83.71-.17-.03.56c1.37-.1 2.77-.25 4.48-.49v-.62l-.67.18v-.84l-.67.18v-.84l-.67.18v-23l2.93-.07c3.64-.09 7.15-.52 13.92-1.72l31.18-5.5c7.69-1.36 11.72-2.27 14.89-3.36l3.98-1.37v.89l.67-.23v.89l.66-.23v.89l.67-.23v.89l.67-.23v.89l.67-.23v.89l.66-.23v.89l.67-.23v.89l.67-.23v.89l.67-.23v.89l.67-.23v.89l.67-.23v.89l.67-.23v.89l.66-.23v.89l.67-.23v.89l.67-.23v.89l.67-.23v.89l.66-.23v.89l.67-.23v.89l.67-.23v.89l.67-.23v.89l.67-.23v.89l.66-.23v.89l.67-.23v.89l.31-.11V98.7l2.91-.08c3.52-.1 6.3-.37 14.42-1.81l15.61-2.75v-1.24c0-4.83-.1-6.64-.56-10.2l-.37-2.84 2.82-.5 18.47-3.26 4-.71-.1.8.76-.13-.06.46 3.49-1.56 9.58-4.29 2.02-.9.55.63 2.28-1.05 9.09-4.2 2.03-.94.61.69.06-.03.61.69.06-.03.61.69.06-.03.61.69.06-.03.61.69.06-.03.61.69.06-.03.61.69.06-.03.61.69.06-.03.61.69.06-.03.61.69.06-.03.61.69.06-.03.61.69.06-.03.61.69.06-.03.61.69.06-.03.61.69.06-.03.61.69.06-.03.61.69.06-.03.61.69.06-.03.61.69.06-.03.61.69.06-.03.61.69.06-.03.61.69.06-.03.61.69.06-.03.61.69.06-.03.61.69.06-.03.02.03c-.03-3.6-.2-6.3-.55-8.86l-.4-2.88 2.86-.49 19.45-3.33 4.01-.69-.1.8.77-.13-.1.8.77-.13-.1.8.77-.13-.1.8.77-.13-.1.8.77-.13-.1.8.77-.13-.1.8.77-.13-.1.8.77-.13-.1.8.77-.13-.1.8.77-.13-.1.8.77-.13-.1.8.77-.13-.1.8.77-.13-.1.8.77-.13-.1.8.77-.13-.1.8.77-.13-.1.8.77-.13-.1.8.77-.13-.1.8.77-.13-.1.8.77-.13-.1.8.77-.13-.1.8.77-.13-.1.8.77-.13-.1.8.77-.13-.1.8.77-.13-.1.8.77-.13-.1.8.77-.13-.1.8.77-.13-.1.8.77-.13-.1.8.77-.13-.53 4.03c-.46 3.51-.56 5.86-.66 11.61l-.15 13.2c7.11-6.55 12.87-14.46 17.2-23.7l2.03-4.34.62.76.05-.1.62.76.05-.1.62.76.05-.1.62.76.05-.1.62.76.05-.1.62.76.05-.1.62.76.05-.1.62.76.05-.1.62.76.05-.1.62.76.05-.1.62.76.05-.1.62.76.05-.1.62.76.05-.1.62.76.05-.1.62.76.05-.1.62.76.05-.1.62.76.05-.1.62.76.05-.1.62.76.05-.1.42.52.24.15v-.01l.02.02c.64.4 1.32.81 2.05 1.23l2.64 1.51-.13.21.79.45-.13.21.79.45-.13.21.79.45-.13.21.79.45-.13.21.79.45-.13.21.28.16V84.07l2.91-.09 1.37-.04c3.9-.12 8.47-.73 18.11-2.43l28.74-5.84.04-.01.04-.01c9.24-1.63 12.54-2.4 18.41-4.04l1.78-.5 3.81-1.06v.85l.66-.19v.85l.67-.19v.85l.67-.19v.85l.67-.19v.85l.66-.19v.85l.67-.19v.85l.67-.19v.85l.67-.19v.85l.67-.19v.85l.67-.19v.85l.55-.15 1.77-3.02 8.99-15.35 1.09-1.86.29.06.03-.05-.96-.16.29-.51-.96-.16.29-.51-.96-.16.29-.51-.96-.16.29-.51-.96-.16.29-.51-.96-.16.29-.51-.96-.16 2.16-3.75 8.7-15.11 1.06-1.83 2.08.38c11.61 2.12 20.17 4.46 28.62 7.83l3.12 1.24-.18.33.84.34-.18.33.84.34-.18.33.84.34-.18.33.84.34-.18.33.84.34-.18.33.84.34-.18.33.84.34-.18.33.84.34-.18.33.84.34-.18.33.84.34-.18.33.84.34-.18.33.84.34-.18.33.84.34-.18.33.84.34-.18.33.84.34-.18.33.84.34-.18.33.84.34-.18.33.84.34-.18.33.84.34-.18.33.84.34-.18.33.84.34-.18.33.43.17c1.98-4 3.67-8.28 5.49-13.78l1.41-4.24 3.39 2.91c5.61 4.81 8.2 6.67 13.5 8.94l2.69 1.15-.13.32.8.34-.13.32.8.34-.13.32.8.34-.13.32.8.34-.13.32.8.34-.13.32.8.34-.13.32.8.34-.13.32.8.34-.13.32.8.34-.13.32.8.34-.13.32.8.34-.13.32.8.34-.13.32.8.34-.13.32.8.34-.13.32.8.34-.13.32.8.34-.13.32.6.26v-1.69l-.27.08V60l-.67.2v-.87l-.67.2v-.87l-.66.2V58l-.66.2V37.03l2.87-.13c4.28-.19 6.46-.49 11.73-1.42l39.98-7.05c4.55-.8 5.92-1.13 8.59-1.8l3.88-.97-.03.84.7-.17-.03.84.7-.17-.03.84.7-.17-.03.84.7-.17-.03.84.7-.17-.03.84.7-.17-.03.84.7-.17-.03.84.7-.17-.03.84.7-.17-.03.84.7-.17-.03.84.7-.17-.03.84.7-.17-.03.84.7-.17-.03.84.7-.17-.03.84.7-.17-.03.84.7-.17-.03.84.7-.17-.03.84.7-.17-.03.84.7-.17-.03.84.7-.17-.03.84.7-.17-.03.84.7-.17-.03.84.7-.17-.03.84.7-.17-.03.84.7-.17-.03.84.7-.17-.03.84.7-.17-.03.84.7-.17-.03.84.7-.17-.03.84.7-.17-.16 4c-.09 2.32-.19 5.86-.19 8.87v7.82c8.84-2.52 17.69-6.29 25.78-11.02 1.24-.72 2.43-1.47 3.6-2.22-4.28-2.54-8.71-4.6-13.54-6.32l-3.77-1.34.25-.34-.91-.32.25-.34-.91-.32.25-.34-.91-.32.25-.34-.91-.32.25-.34-.91-.32.25-.34-.91-.32.25-.34-.91-.32.25-.34-.91-.32.25-.34-.91-.32.25-.34-.91-.32.25-.34-.91-.32.25-.34-.91-.32.25-.34-.91-.32.25-.34-.91-.32.25-.34-.91-.32.25-.34-.91-.32.25-.34-.91-.32.25-.34-.91-.32.25-.34-.91-.32.25-.34-.91-.32.25-.34-.91-.32.25-.34-.91-.32.25-.34-.91-.32.25-.34-.91-.32.25-.34-1.5-.6.25-.34-.91-.32.25-.34-.91-.32.25-.34-.93-.33.25-.34-.91-.32.25-.34-.91-.32 2.34-3.24 11.24-15.55 1.37-1.9 2.18.87c12.71 5.11 19.14 8.49 27.51 14.47l2.38 1.7-.09.13.75.54-.09.13.75.54-.09.13.75.54-.09.13.75.54-.09.13.75.54-.09.13.75.54-.09.13.75.54-.09.13.75.54-.09.13.75.54-.09.13.75.54-.09.13.75.54-.09.13.75.54-.09.13.75.54-.09.13.75.54-.09.13.75.54-.09.13.75.54-.09.13.33.23c1.15-1.68 2.26-3.44 3.34-5.28 3.88-6.51 6.5-12.13 9.33-20.03L707.85 3M242.21 76.91l.08-.01-.07-.08-.01.09m212.96 1.32.24-.07-.24-.05v.12m.66.67.24-.07-.24-.05v.12m.67.66.24-.07-.24-.05v.12m.66.67.24-.07-.24-.05v.12m.67.66.24-.07-.24-.05v.12m.66.67.24-.07-.24-.05v.12m.67.66.24-.07-.24-.05v.12m.66.67.24-.07-.24-.05v.12m.67.66.24-.07-.24-.05v.12m.66.67.24-.07-.24-.05v.12m101.66.65c.33-.03.66-.07 1.01-.11v-.58l-.67.18v-.21c-.11.24-.22.48-.34.72m-100.99.01.24-.07-.24-.05v.12m.66.67.24-.07-.24-.05v.12m.67.66.24-.07-.24-.05v.12m.66.67.24-.07-.24-.05v.12m.67.66.24-.07-.24-.05v.12m.66.67.24-.07-.24-.05v.12m.67.66.24-.07-.24-.05v.12m.66.67.24-.07-.24-.05v.12m.67.66.24-.07-.24-.05v.12m.66 9.02c2.03-.6 4.14-1.3 6.28-2.09l.17-.3-.94-.19.28-.47-.94-.19.28-.47-.94-.19.28-.47-.94-.19.28-.47-.94-.19.28-.47-.94-.19.28-.47-.94-.19.28-.47-.94-.19.28-.47-.97-.23.28-.47-.47-.1v8.47m-275.92 34.09c.34-1.15.65-2.29.93-3.42l-.5.14v-.85l-.67.18v-.85l-.66.18v-.85l-.67.18v-.85l-.66.18v-.85l-.67.18v-.85l-.31.09v4.15l.13.11-.03.05.7.61-.03.05.7.61-.03.05.7.61-.03.05.7.61-.03.05.43.44m95.17 9.69c.35-1.06.43-2.24.5-5.86l.08-10.54c-1.43.19-3.1.44-5.35.82l.35 1.53c1.13 4.89 2.63 9.61 4.42 14.05M707.85 0a2.971 2.971 0 0 0-2.82 1.99l-1.61 4.48c-2.76 7.7-5.31 13.17-9.08 19.51-.4.69-.81 1.37-1.23 2.04-.18-.25-.4-.47-.67-.67-.18-.25-.4-.47-.67-.66-.18-.25-.4-.47-.67-.67-.18-.25-.4-.47-.66-.66-.18-.25-.4-.47-.67-.67-.18-.25-.4-.47-.67-.67-.18-.25-.4-.47-.67-.67-.18-.25-.4-.47-.67-.66-.18-.25-.4-.47-.66-.66-.18-.25-.4-.47-.66-.67-.18-.25-.4-.47-.67-.67-.18-.25-.4-.47-.67-.67-.19-.26-.41-.49-.69-.68l-2.38-1.7c-8.59-6.14-15.16-9.6-28.13-14.81l-2.18-.87a2.995 2.995 0 0 0-3.55 1.02l-1.37 1.9-11.24 15.55-2.34 3.24a3.017 3.017 0 0 0 .67 4.19c.19.25.41.48.66.66.19.26.41.48.67.67.19.25.41.48.66.66.19.26.41.48.67.67.19.25.41.48.66.66.19.26.41.48.67.67.19.26.41.48.66.67.19.25.41.48.66.66.19.26.41.48.67.67.19.25.41.48.66.66.19.26.41.48.67.67.19.25.41.48.66.66.19.26.41.48.67.67.19.25.41.48.66.66.19.26.41.48.67.67.19.25.41.48.66.66.19.26.41.48.67.67.18.25.41.48.66.66.19.26.41.48.67.67.19.25.41.48.66.66.19.26.41.48.67.67.19.25.41.48.66.66.19.26.41.48.67.67.19.26.41.48.66.67.19.25.41.48.66.66.19.26.41.48.67.67.19.25.41.48.67.66.19.25.41.48.66.66.19.26.41.48.67.67.35.48.84.86 1.42 1.06l3.77 1.34c3 1.07 5.83 2.27 8.56 3.64-6.41 3.67-13.38 6.76-20.39 9.05v-3.77c0-2.96.1-6.46.19-8.75l.16-4c.04-.94-.37-1.85-1.1-2.45l-.13-.1c-.15-.21-.33-.4-.53-.56-.04-.04-.09-.07-.13-.1-.15-.21-.33-.4-.53-.56-.04-.04-.09-.07-.13-.1-.15-.21-.33-.4-.53-.56-.04-.04-.09-.07-.13-.1-.15-.21-.33-.4-.53-.56l-.13-.1c-.15-.21-.33-.4-.53-.56-.04-.04-.09-.07-.13-.1-.15-.21-.33-.4-.53-.56l-.13-.1c-.15-.21-.33-.4-.53-.56-.04-.04-.09-.07-.13-.1-.15-.21-.33-.4-.53-.56l-.13-.1c-.15-.21-.33-.4-.53-.56-.04-.04-.09-.07-.13-.1-.15-.21-.33-.4-.53-.56l-.13-.1c-.15-.21-.33-.4-.53-.56-.04-.04-.09-.07-.13-.1-.15-.21-.33-.4-.53-.56l-.13-.1c-.15-.21-.33-.4-.53-.56-.04-.04-.09-.07-.13-.1-.15-.21-.33-.4-.53-.56-.04-.04-.09-.07-.13-.1-.15-.21-.33-.4-.53-.56-.04-.04-.09-.07-.13-.1-.15-.21-.33-.4-.53-.56-.04-.04-.09-.07-.13-.1-.15-.21-.33-.4-.53-.56l-.13-.1c-.15-.21-.33-.4-.53-.56-.04-.04-.09-.07-.13-.1-.15-.21-.33-.4-.53-.56l-.13-.1c-.15-.21-.33-.4-.53-.56-.04-.04-.09-.07-.13-.1-.15-.21-.33-.4-.53-.56l-.13-.1c-.15-.21-.33-.4-.53-.56-.04-.04-.09-.07-.13-.1-.15-.21-.33-.4-.53-.56l-.13-.1c-.15-.21-.33-.4-.53-.56-.04-.04-.09-.07-.13-.1-.15-.21-.33-.4-.53-.56l-.13-.1c-.15-.21-.33-.4-.53-.56-.04-.04-.09-.07-.13-.1-.15-.21-.33-.4-.53-.56l-.13-.1c-.15-.21-.33-.4-.53-.56-.04-.04-.09-.07-.13-.1-.15-.21-.33-.4-.53-.56l-.13-.1a2.99 2.99 0 0 0-3.15-1.14l-3.88.97c-2.6.65-3.93.97-8.39 1.75l-39.98 7.05c-5.2.92-7.2 1.19-11.35 1.38l-2.87.13c-1.6.07-2.87 1.39-2.87 3v15.19c-.03-.02-.06-.05-.09-.07-.18-.25-.41-.48-.67-.66-.18-.25-.41-.48-.67-.67-.18-.25-.41-.48-.67-.67-.18-.25-.41-.48-.66-.67-.31-.42-.73-.77-1.25-.99l-2.69-1.15c-4.98-2.13-7.3-3.81-12.73-8.46l-3.39-2.91c-.55-.47-1.25-.72-1.95-.72-.27 0-.54.04-.8.11-.96.27-1.73 1-2.05 1.95l-1.41 4.24c-1.2 3.63-2.33 6.66-3.49 9.38-.09-.09-.19-.17-.3-.25-.19-.26-.41-.48-.67-.67-.19-.26-.41-.48-.67-.67-.19-.26-.41-.48-.67-.67-.19-.25-.41-.48-.66-.66-.19-.26-.41-.48-.67-.67-.19-.25-.41-.48-.66-.66-.19-.26-.41-.48-.67-.67-.19-.26-.41-.48-.66-.66-.19-.26-.41-.48-.67-.67-.19-.25-.41-.48-.66-.66-.19-.26-.41-.48-.67-.67-.19-.26-.41-.48-.67-.67-.19-.25-.41-.48-.66-.66-.19-.26-.41-.48-.67-.67-.19-.26-.41-.48-.66-.66-.19-.26-.41-.48-.67-.67-.33-.45-.78-.81-1.32-1.02l-3.12-1.24c-8.65-3.44-17.38-5.84-29.2-7.99l-2.08-.38a2.998 2.998 0 0 0-3.14 1.45l-1.06 1.83-8.7 15.11-2.16 3.75c-.49.85-.53 1.89-.11 2.78.22.46.55.85.95 1.14.19.26.41.48.67.67.19.26.41.48.67.67.19.26.41.48.67.67.13.19.29.35.46.5l-8.49 14.49c-.05-.04-.1-.09-.16-.13-.02-.01-.03-.03-.05-.04-.17-.24-.38-.45-.61-.63-.02-.01-.03-.03-.05-.04-.17-.24-.38-.45-.61-.63-.02-.01-.03-.03-.05-.04-.17-.24-.38-.45-.61-.63-.02-.01-.03-.03-.05-.04-.17-.24-.38-.45-.61-.63-.02-.01-.03-.03-.05-.04-.17-.24-.38-.45-.61-.63-.02-.01-.03-.03-.05-.04-.17-.24-.38-.45-.61-.63-.02-.01-.03-.03-.05-.04-.17-.24-.38-.45-.61-.63-.53-.4-1.17-.61-1.81-.61-.27 0-.54.04-.81.11l-3.81 1.06-1.79.5c-5.76 1.61-9.01 2.37-18.12 3.97-.03 0-.09.02-.12.02l-28.73 5.83c-9.46 1.67-13.92 2.27-17.65 2.38l-1.37.04-2.91.09a3.004 3.004 0 0 0-2.91 3v14.21l-1.63-.93c-.63-.36-1.21-.71-1.78-1.06l-.11-.13c-.16-.2-.35-.38-.56-.53l-.11-.13c-.16-.2-.35-.38-.56-.53l-.11-.13c-.16-.2-.35-.38-.56-.53l-.11-.13c-.16-.2-.35-.38-.56-.53l-.11-.13c-.16-.2-.35-.38-.56-.53l-.11-.13c-.16-.2-.35-.38-.56-.53l-.11-.13c-.16-.2-.35-.38-.56-.53l-.11-.13c-.16-.2-.35-.38-.56-.53l-.11-.13c-.16-.2-.35-.38-.56-.53l-.11-.13c-.16-.2-.35-.38-.56-.53l-.11-.13c-.16-.2-.35-.38-.56-.53l-.11-.13c-.16-.2-.35-.38-.56-.53l-.11-.13c-.16-.2-.35-.38-.56-.53l-.11-.13c-.16-.2-.35-.38-.56-.53l-.11-.13c-.16-.2-.35-.38-.56-.53l-.11-.13c-.16-.2-.35-.38-.56-.53l-.11-.13c-.16-.2-.35-.38-.56-.53l-.11-.13c-.16-.2-.35-.38-.56-.53l-.11-.13c-.16-.2-.35-.38-.56-.53l-.11-.13a2.983 2.983 0 0 0-2.33-1.11c-.12 0-.24.01-.36.02-1.03.12-1.92.77-2.35 1.71l-2.03 4.34c-3.05 6.5-6.87 12.38-11.4 17.53l.07-5.72c.1-5.61.2-7.89.63-11.25l.53-4.03c.12-.94-.21-1.89-.9-2.55-.1-.1-.21-.18-.32-.26-.1-.14-.22-.28-.35-.4-.1-.1-.21-.18-.32-.26-.1-.14-.22-.28-.35-.4-.1-.1-.21-.18-.32-.26-.1-.14-.22-.28-.35-.4-.1-.1-.21-.18-.32-.26-.1-.14-.22-.28-.35-.4-.1-.1-.21-.18-.32-.26-.1-.14-.22-.28-.35-.4-.1-.1-.21-.18-.32-.26-.1-.14-.22-.28-.35-.4-.1-.1-.21-.18-.32-.26-.1-.14-.22-.28-.35-.4-.1-.1-.21-.18-.32-.26-.1-.14-.22-.28-.35-.4-.1-.1-.21-.18-.32-.26-.1-.14-.22-.28-.35-.4-.1-.1-.21-.18-.32-.26-.1-.14-.22-.28-.35-.4-.1-.1-.21-.18-.32-.26-.1-.14-.22-.28-.35-.4-.1-.1-.21-.18-.32-.26-.1-.14-.22-.28-.35-.4-.1-.1-.21-.18-.32-.26-.1-.14-.22-.28-.35-.4-.1-.1-.21-.18-.32-.26-.1-.14-.22-.28-.35-.4-.1-.1-.21-.18-.32-.26-.1-.14-.22-.28-.35-.4-.1-.1-.21-.18-.32-.26-.1-.14-.22-.28-.35-.4-.1-.1-.21-.18-.32-.26-.1-.14-.22-.28-.35-.4-.1-.1-.21-.18-.32-.26-.1-.14-.22-.28-.35-.4-.1-.1-.21-.18-.32-.26-.1-.14-.22-.28-.35-.4-.1-.1-.21-.18-.32-.26-.1-.14-.22-.28-.35-.4-.1-.1-.21-.18-.32-.26-.1-.14-.22-.28-.35-.4-.1-.1-.21-.18-.32-.26-.1-.14-.22-.28-.35-.4-.1-.1-.21-.18-.32-.26-.1-.14-.22-.28-.35-.4-.1-.1-.21-.18-.32-.26-.1-.14-.22-.28-.35-.4-.1-.1-.21-.18-.32-.26-.1-.14-.22-.28-.35-.4-.1-.1-.21-.18-.32-.26-.1-.14-.22-.28-.35-.4-.1-.1-.21-.18-.32-.26-.1-.14-.22-.28-.35-.4-.1-.1-.21-.18-.32-.26-.1-.14-.22-.28-.35-.4-.1-.1-.21-.18-.32-.26-.1-.14-.22-.28-.35-.4-.1-.1-.21-.18-.32-.26a3.004 3.004 0 0 0-2.43-1.24c-.17 0-.34.01-.51.04l-4.01.69-19.45 3.33-2.86.49c-1.6.27-2.69 1.76-2.46 3.37l.4 2.88c.04.26.07.53.1.8-.04-.03-.08-.06-.11-.09l-.22-.26c-.13-.15-.28-.29-.44-.41l-.23-.26c-.13-.15-.28-.29-.44-.41l-.22-.26c-.13-.15-.28-.29-.44-.41l-.22-.26c-.13-.15-.28-.29-.44-.41l-.22-.26c-.13-.15-.28-.29-.44-.41l-.22-.26c-.13-.15-.28-.29-.44-.41l-.22-.26c-.13-.15-.28-.29-.44-.41l-.22-.26c-.13-.15-.28-.29-.44-.41l-.22-.26c-.13-.15-.28-.29-.44-.41l-.22-.26c-.13-.15-.28-.29-.44-.41l-.22-.26c-.13-.15-.28-.29-.44-.41l-.23-.26c-.13-.15-.28-.29-.44-.41l-.22-.26c-.13-.15-.28-.29-.44-.41l-.22-.26c-.13-.15-.28-.29-.44-.41l-.22-.26c-.13-.15-.28-.29-.44-.41l-.22-.26c-.13-.15-.28-.29-.44-.41l-.22-.25a3.004 3.004 0 0 0-2.25-1.02c-.42 0-.85.09-1.26.28l-1.99.66-9.09 4.2-.64.3c-.3-.1-.62-.15-.94-.15-.41 0-.83.09-1.22.26l-2.02.9-9.58 4.29-1.33.6a2.936 2.936 0 0 0-2.05-.37l-4 .71-18.47 3.26-2.82.5a2.994 2.994 0 0 0-2.45 3.34l.37 2.84c.4 3.11.52 4.75.53 8.53l-13.12 2.31c-7.93 1.4-10.62 1.66-13.99 1.76l-2.91.08c-1.13.03-2.09.68-2.58 1.62-.16-.19-.34-.36-.54-.5-.18-.25-.41-.48-.67-.67-.18-.25-.41-.48-.66-.66-.18-.25-.41-.48-.67-.67-.18-.25-.41-.48-.67-.67-.18-.25-.41-.48-.66-.66-.18-.25-.41-.48-.67-.67-.18-.25-.41-.48-.67-.67-.18-.25-.41-.48-.67-.67-.18-.25-.41-.48-.66-.66-.18-.25-.41-.48-.67-.67-.18-.25-.41-.48-.66-.66-.18-.25-.41-.48-.67-.67-.18-.25-.41-.48-.66-.66-.18-.25-.41-.48-.67-.67-.18-.25-.41-.48-.66-.66a2.97 2.97 0 0 0-.69-.68 3.003 3.003 0 0 0-2.72-.4l-3.98 1.37c-3 1.04-6.91 1.91-14.43 3.24L118.16 96c-6.61 1.16-10.01 1.59-13.48 1.67l-2.93.07a3.001 3.001 0 0 0-2.93 3v19.91c-.06-.06-.12-.11-.18-.16s-.11-.09-.17-.13c-.14-.19-.31-.37-.49-.53-.06-.05-.11-.09-.17-.13a2.785 2.785 0 0 0-.67-.66 3.117 3.117 0 0 0-.67-.66 3.117 3.117 0 0 0-.67-.66 3.117 3.117 0 0 0-.67-.66c-.14-.19-.31-.37-.49-.53-.06-.05-.11-.09-.17-.13-.14-.19-.31-.37-.49-.53-.06-.05-.11-.09-.17-.13a2.785 2.785 0 0 0-.67-.66 3.117 3.117 0 0 0-.67-.66 3.117 3.117 0 0 0-.67-.66c-.14-.19-.31-.37-.49-.53-.06-.05-.11-.09-.17-.13a3.117 3.117 0 0 0-.67-.66 3.117 3.117 0 0 0-.67-.66 3.117 3.117 0 0 0-.67-.66 3.117 3.117 0 0 0-.67-.66 3.117 3.117 0 0 0-.67-.66c-.14-.19-.31-.37-.49-.53-.06-.05-.11-.09-.17-.13-.14-.19-.31-.37-.49-.53-.06-.05-.11-.09-.17-.13a2.785 2.785 0 0 0-.67-.66c-.14-.19-.31-.37-.5-.53-.55-.46-1.23-.71-1.93-.71-.23 0-.45.03-.68.08l-3.94.92c-2.6.63-5.14 1.18-10.5 2.13l-44.87 7.91c-9.19 1.62-11.99 1.92-16.26 2.06l-2.9.09c-1.62.05-2.9 1.38-2.9 3v24.34c0 .93.43 1.81 1.18 2.38.02.02.04.03.06.05.17.23.37.44.6.62.02.02.04.03.06.05.17.23.37.44.6.62.02.02.04.03.06.05.17.23.37.44.6.62.02.02.04.03.06.05.17.23.37.44.6.62.02.02.04.03.06.05.17.23.37.44.6.62.02.02.04.03.06.05.17.23.37.44.6.62.02.02.04.03.06.05.17.23.37.44.6.62.02.02.04.03.06.05.17.23.37.44.6.62.02.02.04.03.06.05.17.23.37.44.6.62.02.02.04.03.06.05.17.23.37.44.6.62.02.02.04.03.06.05.17.23.37.44.6.62.02.02.04.03.06.05.17.23.37.44.6.62.02.02.04.03.06.05.17.23.37.44.6.62.02.02.04.03.06.05.17.23.37.44.6.62.02.02.04.03.06.05.17.23.37.44.6.62.02.02.04.03.06.05.17.23.37.44.6.62.02.02.04.03.06.05.17.23.37.44.6.62.02.02.04.03.06.05.17.23.37.44.6.62.02.02.04.03.06.05.17.23.37.44.6.62.02.02.04.03.06.05.17.23.37.44.6.62.02.02.04.03.06.05.17.23.37.44.6.62.02.02.04.03.06.05.17.23.37.44.6.62.02.02.04.03.06.05.17.23.37.44.6.62.02.02.04.03.06.05.17.23.37.44.6.62.02.02.04.03.06.05.17.23.37.44.6.62.02.02.04.03.06.05.17.23.37.44.6.62.02.02.04.03.06.05.17.23.37.44.6.62.02.02.04.03.06.05.17.23.37.44.6.62.02.02.04.03.06.05.17.23.37.44.6.62.02.02.04.03.06.05a2.967 2.967 0 0 0 2.42 1.24c.26 0 .52-.03.78-.1l3.78-1.02c3.82-1.03 7.32-1.75 16.29-3.33l10.93-1.93v1.99l-34.14 6.02c-9.65 1.7-11.92 2-16.16 2.14l-2.9.09c-1.62.05-2.9 1.38-2.9 3v24.4c0 .94.44 1.83 1.19 2.4.01.01.03.02.04.03.17.24.38.45.62.63.01.01.03.02.04.03.17.24.38.45.62.63.01.01.03.02.04.03.17.24.38.45.62.63.01.01.03.02.04.03.17.24.38.45.62.63.01.01.03.02.04.03.17.24.38.45.62.63.01.01.03.02.04.03.17.24.38.45.62.63.01.01.03.02.04.03.17.24.38.45.62.63.01.01.03.02.04.03.17.24.38.45.62.63.01.01.03.02.04.03.17.24.38.45.62.63.01.01.03.02.04.03.17.24.38.45.62.63.01.01.03.02.04.03.17.24.38.45.62.63.01.01.03.02.04.03.17.24.38.45.62.63.01.01.03.02.04.03.17.24.38.45.62.63.01.01.03.02.04.03.17.24.38.45.62.63.01.01.03.02.04.03.17.24.38.45.62.63.01.01.03.02.04.03.17.24.38.45.62.63.01.01.03.02.04.03.17.24.38.45.62.63.01.01.03.02.04.03.17.24.38.45.62.63.01.01.03.02.04.03.17.24.38.45.62.63.01.01.03.02.04.03.17.24.38.45.62.63.01.01.03.02.04.03.17.24.38.45.62.63.01.01.03.02.04.03.17.24.38.45.62.63.01.01.03.02.04.03.17.24.38.45.62.63.01.01.03.02.04.03.17.24.38.45.62.63.01.01.03.02.04.03.17.24.38.45.62.63.01.01.03.02.04.03.17.24.38.45.62.63.01.01.03.02.04.03.17.24.38.45.62.63.01.01.03.02.04.03.17.24.38.45.62.63.01.01.03.02.04.03.17.24.38.45.62.63.01.01.03.02.04.03.17.24.38.45.62.63.53.4 1.16.61 1.81.61.28 0 .55-.04.82-.12l3.82-1.09c4.04-1.16 7.05-1.79 16.11-3.38l29.54-5.21c.02.02.04.03.06.05.14.2.31.38.5.54.05.05.11.09.17.13.14.2.31.38.5.54.05.05.11.09.17.13.14.2.31.38.5.54.05.05.11.09.17.13.14.2.31.38.5.54.05.05.11.09.17.13.14.2.31.38.5.54.05.05.11.09.17.13a2.976 2.976 0 0 0 2.95 1.19l3.52-.62 18.38-3.24 2.71-.48c1.53-.27 2.6-1.67 2.47-3.22l-.24-2.74c-.46-5.12-.56-7.15-.56-15.25v-20.23c.11.16.25.3.39.43l.32.29c.1.13.22.26.34.37l.32.29c.1.13.22.26.34.37l.32.29c.1.13.22.26.34.37l.32.29c.1.13.22.26.34.37l.32.3c.1.13.22.26.34.37l.32.29c.1.13.22.26.34.37l.32.29c.1.13.22.26.34.37l.32.29c.1.13.22.26.34.37l.32.29c.1.13.22.26.34.37l.32.29c.1.13.22.26.34.37l.32.29c.1.13.22.26.34.37l.32.29c.1.13.22.26.34.37l.32.29c.1.13.22.26.34.37l.32.29c.1.13.22.26.34.37l.32.29c.04.05.08.1.12.14 1.23 1.62 2.25 3.31 3.28 5.43l1.39 2.85c.22.45.54.83.94 1.12.19.26.41.48.66.66.19.26.41.48.67.67.19.26.41.48.67.67.19.26.41.48.66.66.19.26.41.48.67.67.19.26.41.48.66.66.19.26.41.48.67.67.19.26.41.48.66.66.19.26.41.48.67.67.19.26.41.48.66.66.19.26.41.48.67.67.19.26.41.48.66.66.19.26.41.48.67.67.19.26.41.48.66.66.19.26.41.48.67.67.19.26.41.48.66.66.19.26.41.48.67.67.19.26.41.48.66.66.19.26.41.48.67.67.19.26.41.48.67.67.19.26.41.48.66.66.19.26.41.48.67.67.19.26.41.48.66.66.19.26.41.48.67.67.19.26.41.48.66.66.19.26.41.48.67.67.19.26.41.48.67.66.19.26.41.48.66.66.19.26.41.48.67.67a3.035 3.035 0 0 0 2.43 1.24 3 3 0 0 0 1.46-.38l2.77-1.55c14.04-7.82 21.41-13.11 29.19-20.94 3.86-3.86 7.41-8.2 10.57-12.93.02.02.04.03.07.05.19.26.41.48.67.67.19.26.41.48.66.66.19.26.41.48.67.67.19.26.41.48.67.67.19.26.41.48.67.67.19.26.41.48.66.66.19.26.41.48.67.67.19.26.41.48.66.66.19.26.41.48.67.67.19.26.41.48.66.66.19.26.41.48.67.67.46.63 1.14 1.06 1.93 1.2l4.68.79c4.87.82 8.6 2 14.76 4.65l2.38 1.02c.38.17.79.24 1.18.24 1.01 0 1.99-.52 2.56-1.43l1.36-2.2c.66-1.06 1.29-2.13 1.9-3.2l.17.14c.1.14.22.28.35.4.1.1.21.18.32.26.1.14.22.28.35.4.1.1.21.18.32.26.1.14.22.28.35.4.1.1.21.18.32.26.1.14.22.28.35.4.1.1.21.18.32.26.1.14.22.28.35.4.1.1.21.18.32.26.1.14.22.28.35.4.1.1.21.18.32.26.1.14.22.28.35.4.1.1.21.18.32.26.1.14.22.28.35.4.1.1.21.18.32.26.1.14.22.28.35.4.1.1.21.18.32.26.1.14.22.28.35.4.1.1.21.18.32.26.1.14.22.28.35.4.1.1.21.18.32.26.1.14.22.28.35.4.1.1.21.18.32.26a3.004 3.004 0 0 0 2.43 1.24c.17 0 .35-.02.52-.05l4.04-.71 18.67-3.29 2.92-.51c1.62-.29 2.7-1.82 2.44-3.44l-.48-2.92c-.41-2.5-.51-5.08-.51-13.18v-2.16c.19.25.41.47.66.66.19.26.41.48.67.67.19.26.41.48.67.67.19.26.41.48.66.66.19.26.41.48.67.67.19.26.41.48.67.67.19.26.41.48.67.67.19.26.41.48.66.66.19.26.41.48.67.67.19.26.41.48.67.67.19.26.41.48.67.67.19.26.41.48.66.66.19.26.41.48.67.67.19.26.41.48.67.67.19.26.41.48.67.67.19.26.41.48.67.67.19.26.41.48.67.67.19.26.41.48.66.66.19.26.41.48.67.67a2.994 2.994 0 0 0 2.43 1.24c.68 0 1.35-.23 1.89-.67l2.63-2.13c6.59-5.33 7.43-5.9 15.53-11.36l.18-.12 2.74-1.85c.14-.09.27-.2.38-.31l.11.11c.06.07.12.13.18.19l.48.47c.06.07.12.13.18.2l.48.47c.06.07.12.13.18.2l1.5 1.46 8.7 8.48 1.85 1.8a2.992 2.992 0 0 0 3.9.24l2.06-1.56c.9-.68.9-.68 4.06-1.83l.23-.08c28.22-9.78 46.79-23.74 61.3-46.28.06.06.12.11.19.16.02.02.05.04.08.06.16.23.36.43.59.61.02.02.05.04.08.06.16.23.36.43.59.61.02.02.05.04.08.06.16.23.36.43.59.61.02.02.05.04.08.06.16.23.36.43.59.61.02.02.05.04.08.06a3.013 3.013 0 0 0 2.43 1.24c.25 0 .5-.03.75-.09l3.75-.96 1.76-.45c5.4-1.39 8.32-1.99 18.36-3.76.02 0 .08-.01.1-.02l.05-.01 28.51-5.8c7.52-1.32 11.62-2 14.98-2.39l.49 1.75.94 3.34c.18.65.58 1.22 1.13 1.61.18.25.41.48.66.66.18.25.41.48.66.66.18.25.41.48.67.67.18.25.41.48.67.67.18.25.41.48.67.67.18.25.41.48.66.66.18.25.41.48.67.67.18.25.41.48.66.66.18.25.41.48.67.67.18.25.41.48.67.67.18.25.41.48.67.67.18.25.41.48.66.66.18.25.41.48.67.67.18.25.41.48.66.66.18.25.41.48.67.67.18.25.41.48.67.67.18.25.41.48.67.67.18.25.41.48.66.66.18.25.41.48.66.66.18.25.41.48.67.67.18.25.41.48.67.67.18.25.41.48.67.67.18.25.41.48.66.66.18.25.41.48.67.67.18.25.41.48.66.66.18.25.41.48.67.67.18.25.41.48.67.67.18.25.41.48.67.67.18.25.41.48.66.66.29.41.69.74 1.15.95.4.19.84.28 1.27.28.42 0 .83-.09 1.22-.26l3.17-1.41c2.16-.96 3.91-1.69 6.46-2.58 8.45-3.05 12.76-4.84 18.48-7.66 16.01-7.82 28.29-17.45 38.45-30.2v.22c0 .93.43 1.81 1.17 2.38.02.02.04.03.06.05.17.23.37.44.6.62.02.02.04.03.06.05.17.23.37.44.6.62.02.02.04.03.06.05.17.23.37.44.6.62.02.02.04.03.06.05.17.23.37.44.6.62.02.02.04.03.06.05.17.23.37.44.6.62.02.02.04.03.06.05.17.23.37.44.6.62.02.02.04.03.06.05.17.23.37.44.6.62.02.02.04.03.06.05.17.23.37.44.6.62.02.02.04.03.06.05.17.23.37.44.6.62.02.02.04.03.06.05.17.23.37.44.6.62.02.02.04.03.06.05.17.23.37.44.6.62.02.02.04.03.06.05.17.23.37.44.6.62.02.02.04.03.06.05.17.23.37.44.6.62.02.02.04.03.06.05.17.23.37.44.6.62.02.02.04.03.06.05.17.23.37.44.6.62.02.02.04.03.06.05.17.23.37.44.6.62.02.02.04.03.06.05.17.23.37.44.6.62.02.02.04.03.06.05.17.23.37.44.6.62.02.02.04.03.06.05.17.23.37.44.6.62.02.02.04.03.06.05.17.23.37.44.6.62.02.02.04.03.06.05.17.23.37.44.6.62.02.02.04.03.06.05.17.23.37.44.6.62.02.02.04.03.06.05.17.23.37.44.6.62.02.02.04.03.06.05.17.23.37.44.6.62.02.02.04.03.06.05.17.23.37.44.6.62.02.02.04.03.06.05.17.23.37.44.6.62.02.02.04.03.06.05.17.23.37.44.6.62.02.02.04.03.06.05.17.23.37.44.6.62.02.02.04.03.06.05.17.23.37.44.6.62.02.02.04.03.06.05a2.974 2.974 0 0 0 2.43 1.24c.26 0 .52-.03.78-.1l3.78-1.01c2.82-.76 6.07-1.43 11.61-2.41l25.95-4.58.02.02c.05.05.11.09.17.13.14.2.31.38.5.54.05.05.11.09.17.13.14.2.31.38.5.54.05.05.11.09.17.13.14.2.31.38.5.54.05.05.11.09.17.13a2.976 2.976 0 0 0 2.95 1.19l3.52-.62 15.44-2.72 2.72-.48a3.005 3.005 0 0 0 2.47-3.23l-.26-2.75c-.29-3.13-.46-7.25-.46-11.29v-5.36c.09.08.18.16.27.23.18.25.41.48.67.67.18.25.41.48.66.66.18.25.41.48.67.67.18.25.41.48.66.66.18.25.41.48.67.67.18.25.41.48.66.66.18.25.41.48.67.67.18.25.41.48.67.67.18.25.41.48.66.66.18.25.41.48.67.67.18.25.41.48.67.67.18.25.41.48.66.67.18.25.41.48.67.67.18.25.41.48.67.67.18.25.41.48.67.67.18.25.41.48.66.66.18.25.41.48.66.66.18.25.41.48.67.67.18.25.41.48.66.66.18.25.41.48.67.67.18.25.41.48.66.66.18.25.41.48.67.67.18.25.41.48.66.66.3.42.71.75 1.19.97.39.18.82.27 1.24.27.43 0 .87-.09 1.27-.28l3.18-1.49c2.04-.96 2.68-1.21 5.05-2.16l1.69-.68c18.76-7.58 28.38-12.94 39.57-22.06 14.52-11.75 24.25-25.33 33.58-46.87l1.09-2.51c.56-1.3.13-2.81-.99-3.62-.18-.25-.41-.48-.67-.67-.18-.25-.41-.48-.67-.67-.18-.25-.41-.48-.67-.67-.18-.25-.4-.48-.67-.66-.18-.25-.41-.48-.67-.67-.18-.25-.4-.48-.66-.66-.18-.25-.41-.48-.66-.67-.18-.25-.41-.48-.67-.67-.18-.25-.41-.48-.67-.67-.18-.25-.41-.48-.67-.66-.18-.25-.4-.48-.66-.66-.18-.25-.41-.48-.67-.67-.18-.25-.4-.48-.66-.66-.18-.25-.41-.48-.67-.67-.18-.25-.41-.48-.67-.67-.18-.25-.41-.48-.67-.66-.18-.25-.4-.48-.66-.66-.18-.25-.41-.48-.67-.67-.18-.25-.4-.48-.66-.66-.18-.25-.41-.48-.67-.67-.18-.25-.4-.48-.66-.66-.18-.25-.41-.48-.67-.67-.18-.25-.4-.48-.66-.66-.18-.25-.41-.48-.66-.67-.18-.25-.41-.48-.67-.67-.18-.25-.41-.48-.67-.67-.18-.25-.41-.48-.67-.66-.18-.25-.4-.48-.66-.66-.18-.25-.41-.48-.67-.67a2.98 2.98 0 0 0-.99-.87l-2.4-1.31c-6.27-3.42-8.27-4.78-11.23-7.59l-.45-.45c-.04-.04-.08-.08-.12-.11l-.55-.55c-.04-.04-.08-.08-.12-.11l-.55-.55-.12-.12-.54-.55c-.04-.04-.08-.08-.12-.11l-.55-.55c-.04-.04-.08-.08-.12-.11l-.55-.55c-.04-.04-.08-.08-.12-.11l-.55-.55-.12-.12-.54-.55c-.18-.93-.95-1.24-1.74-1.24zm-602 169.59v-4.04c.02.02.04.03.07.05.16.23.36.43.59.61.03.02.05.04.08.06.16.23.36.43.59.61.03.02.05.04.08.06.16.23.36.43.59.61.03.02.05.04.08.06.12.17.27.33.43.48l-1.27.55c-.51.19-.93.53-1.24.95z"/><path class="st0" d="m4.5 178.28 1.45-.05c4.47-.15 6.98-.48 16.8-2.21l37.86-6.68v-34.59l-36.17 6.38c-9.12 1.61-12.71 2.34-16.68 3.42l-1.89.51v-20.93l1.45-.05c4.52-.15 7.44-.46 16.89-2.13l44.87-7.91c5.49-.97 8.1-1.53 10.76-2.18l1.97-.48-.12 2.02c-.19 3.37-.29 5.04-.29 9.79v50.25c0 7.85.08 10.04.58 15.65l.12 1.37-21.49 3.79v-5.68l-37.63 6.64c-9.24 1.63-12.34 2.28-16.56 3.49l-1.91.55v-20.97zm118.82 8.52c-2.47-5.08-5.05-8.34-10.61-13.4l-1.72-1.57 2.14-.92c11.57-4.98 18.45-9.2 25.39-15.54 6.35-5.75 10.32-11.19 13.64-18.85l-39.64 6.99c-7.82 1.38-9.37 1.75-15.43 3.29l-1.87.48v-19.54l1.43-.06c4.25-.19 7.24-.52 15.55-1.98l49.07-8.65c4.7-.83 5.16-1.02 7.34-2.26l.93-.53 9.37 8.28-.65 1.07c-1.09 1.81-1.26 2.15-2.59 6.24-5.18 15.52-12.39 27.77-22.07 37.44-7.45 7.49-14.56 12.59-28.19 20.18l-1.39.77-.7-1.44zm94.79-18.36c.57-4.22.67-6.37.67-14.36V113.6l-16.42 2.9c-9.5 1.67-10.97 2.04-14.62 3.05l-1.9.53v-19.8l1.46-.04c4-.11 7.15-.51 14.64-1.83l16.84-2.97v-2.5c0-4.91-.1-6.75-.57-10.39l-.18-1.42 21.88-3.86-.25 2.01c-.28 2.26-.38 5.41-.48 10.81v1.75l13.21-2.33c-1.7-3.98-4.05-7.86-6.56-10.79l-1.3-1.52 12.42-5.56.73.83c3.32 3.77 5.98 8.14 7.7 12.62l.5 1.3-2.18 1.04c1.75-.37 3.13-.7 4.38-1.04l-.58-1.29c-2.09-4.68-4.05-7.95-7.24-12.05l-1.16-1.49 11.82-5.46.74.84c3.58 4.07 5.74 7.58 7.7 12.51l.51 1.29-11.03 5.45c.78-.22 1.53-.46 2.31-.71l1.96-.64v19.83l-1.4.09c-3.51.23-6.29.64-14.89 2.15l-17.63 3.11v41.2c0 8.39.11 11.12.57 13.9l.24 1.46-22.15 3.91.26-2.05zm-20.22-1.06c-6.54-2.81-10.52-4.06-15.79-4.95l-2.34-.4 1.36-1.94c7.51-10.71 13.63-26.92 14.89-39.41l.14-1.42 19.95 1.05-.31 1.68c-.18.97-.5 2.54-.95 4.71-.29 1.39-.62 3.02-1.01 4.9-3.63 14.56-7.84 25.07-14.07 35.18l-.68 1.1-1.19-.5zm60.31-11.14c-6.67-10.61-10.5-19.72-14.64-34.82-.77-2.79-.84-2.99-1.39-4.25l-.61-1.39 19.27-8.2.4 1.74c3 13 8.51 24.85 15.53 33.36l1.05 1.27-1.55 1.05c-8.06 5.44-9.1 6.14-15.84 11.6l-1.31 1.06-.91-1.42zm29.39-10.64.43-.96c.84-1.88.94-2.65 1.04-7.52l.39-53.58v-1.53c0-4.25-.17-7.29-.57-10.18l-.2-1.44 22.89-3.92-.26 2.02c-.47 3.58-.57 5.97-.67 11.79l-.56 48.85c18.45-7.83 32.04-20.86 40.42-38.76l1.02-2.17 1.51 1.86c4.53 5.6 7.39 8.1 12.77 11.18l1.32.75-.77 1.31c-14.33 24.32-32.84 39-61.9 49.07l-.21.08c-3.36 1.22-3.79 1.38-5.24 2.47l-1.03.78-10.38-10.1zm172.77-43.04 1.59-.32c8.58-1.71 20.54-6.33 29.76-11.52 11.25-6.3 19.79-14.26 26.85-25.04 4.62-7.17 7.39-13.12 10.58-22.72l.7-2.12 1.7 1.45c5.74 4.92 8.4 6.83 13.89 9.18l1.35.58-.54 1.36c-5.08 12.68-9.13 20.05-15.46 28.18-9.98 13.05-22.14 22.79-38.26 30.67-5.55 2.74-9.74 4.48-17.94 7.44-2.7.94-4.62 1.74-6.84 2.72l-1.58.71-5.8-20.57zm-357.03-.35 1.46-.04c3.72-.09 7.29-.53 14.15-1.74l31.18-5.5c7.77-1.37 11.87-2.3 15.12-3.42l1.99-.69v19.64l-1.35.13c-4.18.41-8.93 1.1-14.94 2.16l-31.67 5.58c-7.7 1.36-9.8 1.82-14.05 2.95l-1.89.5v-19.57zm270.82-16.69 2.82-.08c3.98-.12 8.62-.74 18.37-2.46l28.73-5.84c9.34-1.65 12.67-2.42 18.59-4.08l3.69-1.03v23.95l-2.69.2c-4.38.32-8.49.97-18.59 2.75l-28.55 5.8c-10.22 1.8-13.19 2.41-18.74 3.84l-3.63.93V85.52zm183.27 1.13 1.46-.04c3.72-.09 6.23-.44 11.9-1.44l33.36-5.88v-8.31l-28.74 5.07c-5.98 1.05-9.17 1.72-12.19 2.53l-1.89.51V61.78l1.37-.12c3.94-.34 7.35-.72 12.19-1.58l29.26-5.16v-7.54L572.28 53c-6.56 1.16-9.13 1.71-11.94 2.57l-1.94.6V38.46l1.43-.06c4.37-.2 6.58-.5 11.93-1.44l39.98-7.05c4.59-.81 6.06-1.16 8.69-1.82l1.94-.48-.08 2c-.09 2.33-.19 5.9-.19 8.93V83.4c0 4.18.18 8.45.48 11.71l.13 1.38-18.57 3.27v-4.24l-32.84 5.79c-5.67 1-9.04 1.7-11.99 2.49l-1.89.51V86.65zm82.13-17.72 1.5-.38c9.91-2.51 19.95-6.65 29.04-11.96 12.13-7.07 20.8-15.8 28.1-28.29 3.95-6.62 6.6-12.31 9.46-20.31l.8-2.24 1.67 1.69c4.8 4.84 6.94 6.24 14.02 10.11l1.2.66-.54 1.26c-9.02 20.82-18.38 33.91-32.3 45.18-10.79 8.79-20.12 13.98-38.41 21.37l-1.68.68c-2.4.96-3.12 1.26-5.28 2.26l-1.59.74-5.99-20.77zM486.63 87.21c-8.34-4.64-16.83-7.67-27.52-9.83l-2.06-.42 10.6-18.1 1.06.22c11.57 2.42 18.8 4.74 27.6 8.88l1.39.65-9.7 19.36-1.37-.76zm7.82-26.24c-9.81-4.56-17.83-7.08-27.67-8.7l-2.14-.35 10.31-17.9 1.05.18c11.51 2.1 19.98 4.42 28.34 7.75l1.56.62-10.16 18.99-1.29-.59zm171.61-20.24c-8.42-7.19-16.47-11.92-26.12-15.35l-1.88-.67 13.1-18.13 1.09.44c12.59 5.06 18.94 8.4 27.19 14.3l1.19.85-13.29 19.65-1.28-1.09z"/><path d="M651.69 8.41c12.32 4.95 18.67 8.26 26.88 14.13l-11.53 17.05c-8.5-7.26-16.81-12.15-26.59-15.62l11.24-15.56m57.38.08c4.79 4.83 7.04 6.36 14.37 10.37-8.9 20.53-18.18 33.53-31.87 44.61-10.56 8.6-19.84 13.8-38.02 21.14-3.81 1.54-4.4 1.74-7.04 2.97L641.42 70c9.97-2.53 20.23-6.75 29.42-12.12 12.32-7.18 21.11-15.95 28.64-28.83 4.11-6.88 6.75-12.64 9.59-20.56M620.8 29.54c-.1 2.42-.2 6-.2 8.99v44.86c0 4.43.2 8.73.49 11.85l-15.44 2.72v-4.24l-34.6 6.1c-5.47.97-8.99 1.68-12.12 2.52V88.11c3.81-.1 6.35-.45 12.12-1.46l34.6-6.1V69.18l-30.5 5.38c-5.96 1.05-9.19 1.72-12.32 2.56V63.16c4.3-.37 7.72-.78 12.32-1.59l30.5-5.38V45.6l-33.63 5.93c-6.55 1.15-9.19 1.72-12.12 2.62V39.9c4.4-.2 6.65-.5 12.12-1.46L612 31.38c4.69-.82 6.16-1.18 8.8-1.84m-145.07 6.14c11.53 2.11 19.84 4.39 28.05 7.67l-8.7 16.26c-10.07-4.67-18.18-7.19-28.05-8.82l8.7-15.11m54.84 7.75c5.86 5.03 8.7 7.03 14.27 9.42-4.99 12.43-8.99 19.78-15.25 27.81-9.87 12.91-21.99 22.55-37.73 30.24-5.77 2.85-9.97 4.55-17.79 7.37-2.83.98-4.79 1.81-6.94 2.77l-4.89-17.33c8.6-1.71 20.72-6.35 30.21-11.68 11.54-6.46 20.24-14.64 27.37-25.52 4.69-7.28 7.52-13.36 10.75-23.08M468.4 60.56c11.24 2.35 18.48 4.64 27.27 8.76l-8.31 16.58c-8.41-4.68-17.01-7.78-27.96-9.99l9-15.35m-197.88 7.35c3.52 4 5.57 7.39 7.43 12.07l-9.09 4.49c-2.15-4.82-4.2-8.21-7.43-12.36l9.09-4.2m39.3.39c-.49 3.74-.59 6.26-.68 11.96l-.59 51.13c19.75-7.81 34.41-21.37 43.3-40.37 4.5 5.56 7.53 8.3 13.2 11.54-14.17 24.06-32.26 38.42-61.09 48.41-3.62 1.31-4.2 1.51-5.87 2.77l-8.7-8.48c.98-2.19 1.08-3.27 1.17-8.1l.39-53.59v-1.54c0-4.52-.2-7.57-.59-10.39l19.46-3.34m-53.28 5.16c3.23 3.67 5.77 7.84 7.43 12.17l-9.68 4.59c-1.76-4.5-4.4-9.04-7.33-12.47l9.58-4.29m188.31.56V94.6l-1.3.1c-4.45.33-8.58.98-18.74 2.77l-28.59 5.81c-10.23 1.8-13.22 2.42-18.81 3.85l-1.76.45v-20.6l1.36-.04c4.07-.12 8.75-.75 18.59-2.48l28.77-5.84c9.37-1.65 12.72-2.43 18.69-4.1l1.79-.5m-206.68 5.09c-.29 2.36-.39 5.56-.49 10.96v3.56l18.57-3.28c8.31-1.46 11.44-2.21 15.35-3.48v16.37c-3.52.24-6.26.62-15.05 2.17l-18.87 3.33v42.45c0 8.18.1 11.15.59 14.14l-18.67 3.29c.59-4.34.68-6.57.68-14.56V111.8l-18.18 3.21c-9.38 1.66-10.95 2.03-14.76 3.08v-16.37c3.91-.11 7.04-.47 14.86-1.85l18.08-3.19v-3.75c0-4.91-.1-6.82-.59-10.58l18.48-3.24m-72.44 13.83v16.17c-3.71.37-8.31.98-15.05 2.17L119 116.87c-7.72 1.36-9.87 1.84-14.17 2.98v-16.17c3.81-.09 7.43-.54 14.37-1.76l31.18-5.5c7.72-1.37 11.93-2.3 15.35-3.48m94.04 16.72c3.03 13.14 8.7 25.32 15.84 33.98-8.31 5.61-9.29 6.26-16.13 11.8-6.65-10.57-10.36-19.45-14.47-34.42-.78-2.85-.88-3.12-1.47-4.46l16.23-6.9m-179.58 3.66c-.2 3.4-.29 5.06-.29 9.87v50.25c0 8.09.1 10.28.58 15.78l-18.38 3.24v-5.68l-39.39 6.95c-8.99 1.59-12.32 2.27-16.72 3.52v-17.52c4.69-.15 7.33-.52 17.01-2.23l39.1-6.89v-37.64l-37.93 6.69c-8.99 1.59-12.71 2.34-16.81 3.45v-17.52c4.69-.15 7.82-.51 17.11-2.15l44.87-7.91c5.28-.94 8.02-1.52 10.85-2.21m89.15 2.76 7.62 6.74c-1.17 1.94-1.37 2.36-2.74 6.55-5.08 15.24-12.12 27.26-21.7 36.85-7.43 7.47-14.47 12.47-27.86 19.93-2.54-5.23-5.28-8.7-10.95-13.86 11.73-5.05 18.77-9.37 25.81-15.81 7.14-6.46 11.44-12.7 15.05-21.91l-42.33 7.46c-7.72 1.36-9.38 1.75-15.54 3.32v-16.17c4.4-.2 7.53-.56 15.74-2l49.07-8.65c4.71-.84 5.39-1.06 7.83-2.45m28.16 4.76 16.81.89c-.29 1.59-.98 4.79-1.96 9.59-3.52 14.1-7.62 24.55-13.88 34.7-6.35-2.73-10.56-4.11-16.13-5.05 7.63-10.89 13.89-27.49 15.16-40.13M707.85 3l-1.61 4.48c-2.83 7.9-5.45 13.52-9.33 20.03-7.18 12.28-15.68 20.84-27.57 27.77-8.97 5.24-18.87 9.32-28.65 11.8l-3.01.76.86 2.98 5.08 17.59.97 3.37 3.18-1.49c2.12-.99 2.83-1.28 5.2-2.23l1.69-.68c18.44-7.45 27.87-12.7 38.8-21.6 14.12-11.43 23.6-24.68 32.73-45.74l1.09-2.51-2.4-1.31c-7.35-4.01-9.27-5.39-13.68-9.84L707.85 3zm-57.22 1.75-1.37 1.9-11.24 15.55-2.34 3.24 3.77 1.34c9.46 3.36 17.37 8.02 25.65 15.08l2.55 2.18 1.88-2.78 11.53-17.05 1.64-2.42-2.38-1.7c-8.37-5.98-14.79-9.36-27.51-14.47l-2.18-.87zm-26.67 20.92-3.88.97c-2.67.67-4.04.99-8.59 1.8l-39.98 7.05c-5.27.93-7.45 1.23-11.73 1.42l-2.87.13v21.18l3.88-1.19c2.74-.84 5.27-1.39 11.76-2.53l30.11-5.31v4.5l-28.02 4.94c-4.78.84-8.16 1.22-12.06 1.56l-2.74.24v20.62l3.78-1.02c2.98-.8 6.13-1.45 12.06-2.5l26.98-4.76v5.27l-32.12 5.66c-5.67 1-8.03 1.33-11.68 1.42l-2.92.07v21.09l3.78-1.01c2.91-.78 6.24-1.47 11.86-2.47l31.08-5.48v4.24l3.52-.62 15.44-2.72 2.72-.48-.26-2.75c-.3-3.22-.48-7.44-.48-11.57V38.53c0-3.01.1-6.55.19-8.87l.17-3.99zm-149.77 6.68-1.06 1.83-8.7 15.11-2.16 3.75 4.27.7c9.69 1.6 17.6 4.09 27.28 8.58l2.57 1.19 1.34-2.5 8.7-16.26 1.58-2.96-3.12-1.24c-8.45-3.37-17.01-5.71-28.62-7.83l-2.08-.37zm54.94 5.9-1.41 4.24c-3.15 9.47-5.87 15.33-10.43 22.39-6.92 10.55-15.28 18.35-26.31 24.53-9.1 5.12-20.88 9.68-29.32 11.35l-3.18.63.88 3.12 4.89 17.33.94 3.34 3.17-1.41c2.24-1 4.05-1.75 6.7-2.67 8.3-2.99 12.53-4.75 18.14-7.52 16.32-7.97 28.65-17.86 38.79-31.11 6.41-8.23 10.51-15.7 15.65-28.52l1.09-2.72-2.69-1.15c-5.3-2.27-7.89-4.13-13.5-8.94l-3.41-2.89zM466.9 57.18l-1.09 1.86-8.99 15.35-2.12 3.63 4.12.83c10.54 2.13 18.89 5.11 27.09 9.67l2.74 1.52 1.4-2.8 8.31-16.58 1.38-2.75-2.79-1.31c-8.92-4.19-16.23-6.54-27.93-8.99l-2.12-.43zm-195.61 7.07-2.03.94-9.09 4.2-2.28 1.05-.55-.63-2.02.9-9.58 4.29-3.66 1.64 2.61 3.05c2.05 2.4 3.99 5.45 5.54 8.68l-9.54 1.68c.1-5.3.19-8.4.46-10.58l.5-4.03-4 .71-18.47 3.26-2.82.5.37 2.84c.46 3.56.56 5.37.56 10.2v1.24l-15.61 2.75c-8.12 1.43-10.9 1.7-14.42 1.81l-2.91.08v23.23l3.8-1.05c2.19-.61 3.59-.98 6.49-1.55l-.11 1.1c-1.21 12.07-7.36 28.34-14.62 38.7l-2.73 3.89 4.68.79c5.14.87 9.03 2.09 15.45 4.85l2.38 1.02 1.36-2.2c6.32-10.26 10.58-20.89 14.24-35.54l.02-.06.01-.06c.38-1.88.72-3.51 1.01-4.89.45-2.18.78-3.75.96-4.75l.01-.06v31.87c0 7.91-.1 10.03-.66 14.16l-.55 4.07 4.04-.71 18.67-3.29 2.92-.51-.48-2.92c-.44-2.69-.55-5.37-.55-13.66v-33.69l.12.27c.51 1.16.56 1.28 1.32 4.05 4.18 15.25 8.06 24.47 14.82 35.22l1.8 2.86 2.63-2.13c6.69-5.42 7.55-5.99 15.74-11.52l.18-.12 2.74-1.85-2.1-2.55c-6.87-8.34-12.28-19.97-15.23-32.75l-.35-1.53c4.64-.78 6.85-1.05 9.46-1.22l2.8-.19V84.99l4.68-2.31 2.48-1.23-1.02-2.57c-2.03-5.1-4.26-8.73-7.97-12.95l-1.5-1.68zm-30.61 47.01 13.1-2.31-11.41 4.86-1.69.72v-3.27zm-38.62 6.81c.18-.03.37-.06.56-.1l14.66-2.59v3.48l-2.8-.15-12.42-.64zm111.26-53.41-4.01.69-19.45 3.33-2.86.49.4 2.88c.39 2.82.56 5.8.56 9.98v1.54l-.39 53.57c-.1 4.77-.2 5.31-.91 6.9l-.85 1.91 1.5 1.46 8.7 8.48 1.85 1.8 2.06-1.56c1.26-.96 1.53-1.05 4.84-2.26l.24-.09c29.38-10.18 48.13-25.05 62.66-49.71l1.54-2.62-2.64-1.51c-5.19-2.96-7.96-5.39-12.35-10.82l-3.02-3.73-2.03 4.34c-7.9 16.86-20.51 29.32-37.53 37.08l.53-46.53c.1-5.75.2-8.1.66-11.61l.5-4.01zm134.53 5.4-3.81 1.06-1.78.5c-5.86 1.64-9.17 2.41-18.41 4.04l-.04.01-.04.01-28.74 5.84c-9.64 1.7-14.22 2.31-18.11 2.43l-1.37.04-2.91.09v27.38l3.75-.96 1.76-.45c5.5-1.41 8.45-2.02 18.58-3.8l.04-.01.04-.01 28.55-5.8c10.02-1.77 14.09-2.41 18.4-2.73l1.3-.1 2.78-.21V70.06h.01zM168.73 88.73l-3.98 1.37c-3.17 1.09-7.2 2-14.89 3.36l-31.18 5.5c-6.77 1.19-10.29 1.63-13.92 1.72l-2.93.07v23l3.77-1c4.2-1.12 6.28-1.58 13.92-2.93l31.67-5.58c5.97-1.05 10.69-1.73 14.83-2.14l2.71-.27v-23.1zm-85.31 20.76-3.94.92c-2.63.64-5.21 1.2-10.66 2.16l-44.87 7.91c-9.37 1.65-12.25 1.96-16.68 2.11l-2.9.09v24.34L8.15 146c3.92-1.06 7.48-1.79 16.55-3.39l34.41-6.07v31.55l-36.62 6.46c-9.83 1.73-12.16 2.04-16.59 2.18l-2.9.1v24.4l3.82-1.09c4.16-1.19 7.23-1.84 16.41-3.45l35.87-6.33v5.68l3.52-.62L81 192.18l2.71-.48-.24-2.74c-.46-5.23-.57-7.29-.57-15.52v-50.25c0-4.71.09-6.26.29-9.65l.23-4.05zm86.3 2.92-1.86 1.06c-2.05 1.17-2.36 1.3-6.86 2.09l-49.07 8.65c-8.22 1.45-11.17 1.77-15.35 1.96l-2.87.13v22.9l3.74-.95c6.01-1.53 7.56-1.9 15.32-3.27l36.82-6.49c-3 6.14-6.65 10.84-12.08 15.76-6.81 6.23-13.58 10.37-24.98 15.28l-4.27 1.84 3.44 3.13c5.4 4.92 7.9 8.06 10.27 12.95l1.39 2.85 2.77-1.54c13.76-7.67 20.96-12.83 28.53-20.44 9.83-9.84 17.17-22.27 22.42-38.01 1.33-4.08 1.44-4.26 2.46-5.95l1.29-2.14-1.87-1.66-7.62-6.74-1.62-1.41z" style="fill:#fff"/></svg>