<?xml version="1.0" encoding="utf-8"?>
<!-- Generator: Adobe Illustrator 26.5.0, SVG Export Plug-In . SVG Version: 6.00 Build 0)  -->
<svg version="1.1" id="Layer_1" xmlns="http://www.w3.org/2000/svg" xmlns:xlink="http://www.w3.org/1999/xlink" x="0px" y="0px"
	 viewBox="0 0 73.8 69.4" style="enable-background:new 0 0 73.8 69.4;" xml:space="preserve">
<style type="text/css">
	.st0{fill:#FFFFFF;}
	.st1{fill:#DEBA9D;}
	.st2{fill:#404E7C;}
</style>
<path class="st0" d="M68.6,30.8L68.6,30.8c-0.2,0.1-0.3,0.2-0.5,0.3c-0.2,0.1-0.4,0.1-0.6,0.1c-0.2,0.1-0.4,0.1-0.6,0.2
	c-0.3,0.1-0.5,0.2-0.8,0.3c-3.2,1.8-6.3,3.5-9.5,5.3l-0.2,0.1c-0.2,0.1-0.6,0.2-0.8,0c-2.6-1.4-5.1-2.8-7.6-4.1
	c-2,2.3-3.9,4.7-5.8,7c-0.2,0.3-0.7,0.4-1.1,0.2c-0.5-0.3-1-0.6-1.5-0.8c-1.8-1-3.5-2-5.3-3l-1,0.3l-3.2,1c-2.7,0.8-4.5,1.3-6.8,1.9
	c-0.3,0.1-0.6-0.1-0.8-0.3c-0.3-0.6-0.6-1.2-1-1.9c-1.5-2.9-3.5-7.2-5.1-10.5c-2.7,1.2-5.2,2.6-7.8,3.9c-0.1,0.1-0.1,0.3-0.2,0.4
	c-0.2,0.3-0.3,0.7-0.5,1.2c-0.7,1.3-1.7,2.1-2.7,2.5c-0.2,0.1-0.5,0.2-0.8,0.2c-0.2,0-0.8,0.2-1.2-0.1c-0.4-0.2-0.6-0.4-0.8-0.7
	c0,0.5-0.1,1.1-0.2,1.7c-0.4,2.6-1.1,7.5-0.3,12.5c0.4,2.5,1.2,4.9,2.4,6.9c1.2,2,2.6,3.6,3.8,4.7c2.3,2.2,4.9,3.3,7.2,4.4
	c1.2,0.5,2.4,0.9,3.5,1.3c1.1,0.3,2.3,0.6,3.3,0.9c4.4,0.9,8.5,1.1,13,0.9c6.3-0.3,11.5-1.7,15.9-3.3c2.3-0.8,4.3-1.9,6.2-3
	c1.8-1.2,3.5-2.5,4.9-4.1c2.9-3.1,5.6-6.7,6.9-11.3c0.6-2.3,0.9-4.8,0.7-7.5C69.6,36.1,69,33.6,68.6,30.8z"/>
<path class="st1" d="M4.5,24.6L4.5,24.6L4.4,24c0.1,0,0.3-0.1,0.4-0.1c0.2-0.1,0.3-0.4,0.4-0.6c0.2-0.2,0.4-1.1,0.3-2.4
	c-0.1-1.1-0.2-2.3,0.1-3.5C5.9,16.1,6.5,14.2,7,13c0.2-0.6,0.4-1.1,0.7-1.5C8,11,8.2,10.6,8.5,10l0.6-1C9.4,8.6,9.7,8.3,10,7.9
	c0.3-0.4,0.6-0.7,0.9-1c1.7-1.8,3.8-3.2,6.2-4c0.7-0.2,1.4-0.4,2.1-0.5c0.7-0.1,1.4-0.2,2.1-0.4c5-0.8,8.4-0.2,11.5,0.8
	c3,1.2,5.9,2.9,8.5,7c0.5,0.7,0.8,1.4,1.2,2.1c0.4,0.7,0.7,1.5,1.1,2.2c0.3,0.6,0.7,1.2,1.1,1.8c0,0-0.1,0-0.1,0c0,0-0.1,0-0.1,0
	h-0.1c-0.1,0-0.1,0-0.2,0c-0.8,0.3-1.6,0.5-2.2,1.3c-0.2,0.3-0.6,0.6-0.8,1c-0.3,0.7-0.6,1.2-0.6,2.1c0,0.6,0.3,1.2,0.8,1.7
	c0.2,0.3,0.7,0.4,1,0.5c0.3,0.1,0.5,0.2,0.8,0.1c1-0.1,1.8-0.9,2.9-1.7c0.3-0.2,0.3-0.2,0.5-0.3c0.2,0,0.4-0.1,0.6-0.1
	c0.4,0,0.8,0.4,1.6,0.2c0.1,0,0.1-0.1,0.2-0.1c0.8,0.6,1.6,1.2,2.6,1.6c1.3,0.6,2.6,1,3.7,1.1c-0.4,0.4-0.8,0.8-1,1
	c-0.4,0.1-0.8,0.2-1.3,0.4c-1.1,0.3-3.1,1.6-3.8,2.1c-0.3,0.2-0.3,0.6-0.1,0.9c0,0,0,0,0,0c0.1,0.2,0.3,0.3,0.5,0.4
	c0.2,0,0.3,0,0.5-0.1c0.9-0.7,2-1.3,3-1.7c1.6-0.7,3.8-0.8,5.1-0.5c1.2,0.2,2.1,0.8,3.3,0.9c0.5,0.1,1.1,0.4,1.5,0.5
	c0.9,0.3,1.6,0.6,2.4,1.1c0.3,0.2,0.5,0.3,0.7,0.5c0.2,0.2,0.2,0.3,0.2,0.3l-0.1,0.1l-0.2,0.2c-0.1,0.1-0.2,0.2-0.3,0.2
	c-0.2,0.1-0.4,0.1-0.7,0.1c-0.8,0.3-2.2,0.6-4.2,0.9c-0.8,0.1-1.9,0.4-2.7,0.6c-0.7,0.2-1.5,0.1-2.1,0.4c-0.5,0.2-0.5,0.8-0.3,1.3
	c0.1,0.3,0.3,0.5,0.5,0.7c0.2,0.2,0.7,0.3,1.2,0c0.4-0.3,0.7-0.8,1.2-0.9c0.5-0.2,1.3-0.3,1.8-0.5c0.4-0.2,0.7-0.1,1.2-0.2
	c-0.3,0.2-0.6,0.3-0.9,0.5c-1.4,0.7-3.3,1.8-4.9,2.8c-0.5-0.2-0.9-0.5-1.2-0.7c-1.8-1-3.2-1.9-5-2.9c-0.4-0.2-0.9-0.5-1.5-0.8h0
	c-0.4-0.2-0.8-0.1-1,0.2c-1.6,2-3.5,4.3-5.8,7.1c-1.9-1.1-4.1-2.3-6.5-3.6c-0.2-0.1-0.4-0.1-0.6-0.1c-2.5,0.8-5.4,1.6-8.5,2.5
	c-0.7,0.2-1.4,0.4-2.1,0.6c-2-4-4.1-8.5-6-12.4c-0.2-0.4-0.7-0.6-1.1-0.4c0,0-0.1,0-0.1,0c-1.8,0.8-3.6,1.5-5.3,2.1l-0.4,0.1
	c0-0.2-0.1-0.4-0.2-0.5c0,0,0,0,0,0c-0.2-0.3-0.6-0.6-0.9-0.4l0,0c-0.6,0.6-1.2,1.3-1.7,2.1c-0.3,0.6-0.6,1.2-0.9,1.7
	c-0.3,0.7-0.6,1.2-0.7,1.5C5.9,32.4,5.4,32.6,5,33c-0.2,0.2-0.6,0.2-0.8,0.3s-0.2,0.1-0.3,0.1c0,0-0.1-0.1-0.2-0.1
	c0-0.1-0.1-0.2-0.2-0.3c-0.1-0.3-0.3-0.7-0.2-1.1c0-0.2,0-0.5,0-0.7c0-0.2,0.1-0.3,0.1-0.5c0-0.6-0.1-1.5,0.3-2.6
	c0.2-0.5,0.4-1,0.5-1.5c0.1-0.4,0.6-0.6,0.8-0.9C5.2,25.4,4.9,25,4.5,24.6z M71.7,27c-0.2-0.1-0.3-0.3-0.5-0.5s-0.6-0.3-0.9-0.5
	c-0.4-0.3-1.1-0.5-1.6-0.8c-0.8-0.3-1.4-0.6-2.2-0.9c-0.4-0.1-0.9-0.4-1.3-0.5c-1-0.2-1.8-0.7-2.8-0.8c-1.1-0.2-3-0.3-4.3,0.3
	c-0.5,0.2-0.9,0.4-1.3,0.7c0.3,0,0.5,0,0.8,0c1.1,0.1,2,0.4,2.7,0.6c0.8,0.2,1.4,0.5,2.1,0.7c0.7,0.2,1.4,0.5,2.1,0.8
	c0.8,0.4,1.6,0.7,2.7,1.6c0.2,0.2,0.4,0.5,0.6,0.9c0.3,0,0.6,0,0.9-0.1c0.6-0.3,1.4-0.6,2.1-0.8c0.5-0.2,0.9-0.4,1.3-0.5
	c0,0,0,0,0-0.1C72,27.2,71.8,27.1,71.7,27z M47.9,17.8c-1.1-0.3-1.8-0.2-2.7-0.2c-0.2,0-0.4,0-0.5,0c-0.9,0.3-1.4,0.8-1.8,1.3
	c-0.2,0.3-0.4,0.6-0.5,0.9c-0.1,0.3-0.1,0.7,0,0.9c0,0.1,0,0.2,0.3,0.3c0.3,0.1,0.8,0,1.3-0.3c0.2-0.1,0.4-0.2,0.6-0.4l0.2-0.2
	c0.3-0.2,0.4-0.2,0.9-0.6c0.4-0.4,1.2-0.4,1.6-0.4c0.4,0,1.2,0,1.5-0.3c0.1-0.2,0.2-0.4,0.1-0.5C48.6,18.1,48.2,17.9,47.9,17.8z"/>
<path class="st2" d="M73.7,26.7c-0.2-0.3-0.4-0.6-0.6-0.8c-0.5-0.4-0.9-0.6-1.3-0.9c-0.5-0.3-0.9-0.6-1.4-0.8
	c-1.7-0.7-2.8-1.2-4-1.6c-1.2-0.5-2.3-0.9-4.2-1.2c-1.3-0.1-2.4-0.1-4.2,0.5c-0.2,0.1-0.5,0.2-0.8,0.3c-0.2,0-0.4-0.1-0.6-0.1
	c-2.4-0.1-4.6-1.1-6.5-2.6c0.2-0.5,0.4-1.2,0.1-1.9c-0.4-0.7-0.9-1-1.4-1.2c-0.6-0.3-1.3-0.4-2-0.4c-0.7-1-1.3-2-1.8-3.1
	c-0.5-1.1-1.1-2.1-1.6-3.2c-0.6-1-1.2-1.9-1.8-2.6c-2-2.5-4.1-4.4-7.1-5.5c-0.6-0.2-1.2-0.5-1.9-0.7c-0.7-0.2-1.4-0.4-2-0.5
	c-2.4-0.4-4.3-0.5-6.8-0.3c-0.8,0-1.7,0.2-2.5,0.3c-0.9,0.2-1.7,0.3-2.5,0.4C18,1,16.7,1.3,15.9,1.6C15.1,2,14.5,2,13.8,2.4
	c-2.2,1.2-5,3.7-7.3,8.2c-1,1.9-1.8,4.2-2.3,6.3c-0.3,1.7-1,3.3-0.9,5.1c0,0.5,0.1,0.9,0.3,1.3C3.7,23.7,4,24,4.2,24
	c0.1,0,0.2,0,0.2,0c0.1,0,0.3-0.1,0.4-0.1c0.2-0.1,0.3-0.4,0.4-0.6c0.2-0.2,0.4-1.1,0.3-2.4c-0.1-1.1-0.2-2.3,0.1-3.5
	C5.9,16,6.5,14.2,7,13c0.2-0.6,0.4-1.1,0.7-1.5C8,11,8.2,10.6,8.5,10l0.6-1C9.4,8.6,9.7,8.3,10,7.9c0.3-0.4,0.6-0.7,0.9-1
	c1.7-1.8,3.8-3.2,6.2-4c0.7-0.2,1.4-0.4,2.1-0.5c0.7-0.1,1.4-0.2,2.1-0.4c5-0.8,8.4-0.2,11.5,0.8c3,1.2,5.9,2.9,8.5,7
	c0.5,0.7,0.8,1.4,1.2,2.1c0.4,0.7,0.7,1.5,1.1,2.2c0.3,0.6,0.7,1.2,1.1,1.8c0,0-0.1,0-0.1,0c0,0-0.1,0-0.1,0h-0.1
	c-0.1,0-0.1,0-0.2,0c-0.8,0.3-1.6,0.5-2.2,1.3c-0.2,0.3-0.6,0.6-0.8,1c-0.3,0.7-0.6,1.2-0.6,2.1c0,0.6,0.3,1.2,0.8,1.7
	c0.2,0.3,0.7,0.4,1,0.5c0.3,0.1,0.5,0.2,0.8,0.1c1-0.1,1.8-0.9,2.9-1.7c0.3-0.2,0.3-0.2,0.5-0.3c0.2,0,0.4-0.1,0.6-0.1
	c0.4,0,0.8,0.4,1.6,0.2c0.1,0,0.1-0.1,0.2-0.1c0.8,0.6,1.6,1.2,2.6,1.6c1.3,0.6,2.6,1,3.7,1.1c-0.4,0.4-0.8,0.8-1,1
	c-0.4,0.1-0.8,0.2-1.3,0.4c-1.1,0.3-3.1,1.6-3.8,2.1c-0.3,0.2-0.3,0.6-0.1,0.9c0,0,0,0,0,0c0.1,0.2,0.3,0.3,0.5,0.4
	c0.2,0,0.3,0,0.5-0.1c0.9-0.7,2-1.3,3-1.7c1.6-0.7,3.8-0.8,5.1-0.5c1.2,0.2,2.1,0.8,3.3,0.9c0.5,0.1,1.1,0.4,1.5,0.5
	c0.9,0.3,1.6,0.6,2.4,1.1c0.3,0.2,0.5,0.3,0.7,0.5c0.2,0.2,0.2,0.3,0.2,0.3l-0.1,0.1l-0.2,0.2c-0.1,0.1-0.2,0.2-0.3,0.2
	c-0.2,0.1-0.4,0.1-0.7,0.1c-0.8,0.3-2.2,0.6-4.2,0.9c-0.8,0.1-1.9,0.4-2.7,0.6c-0.7,0.2-1.5,0.1-2.1,0.4c-0.5,0.2-0.5,0.8-0.3,1.3
	c0.1,0.3,0.3,0.5,0.5,0.7c0.2,0.2,0.7,0.3,1.2,0c0.4-0.3,0.7-0.8,1.2-0.9c0.5-0.2,1.3-0.3,1.8-0.5c0.4-0.2,0.7-0.1,1.2-0.2
	c-0.3,0.2-0.6,0.3-0.9,0.5c-1.4,0.7-3.3,1.8-4.9,2.8c-0.5-0.2-0.9-0.5-1.2-0.7c-1.8-1-3.2-1.9-5-2.9c-0.4-0.2-0.9-0.5-1.5-0.8h0
	c-0.4-0.2-0.8-0.1-1,0.2c-1.6,2-3.5,4.3-5.8,7.1c-1.9-1.1-4.1-2.3-6.5-3.6c-0.2-0.1-0.4-0.1-0.6-0.1c-2.5,0.8-5.4,1.6-8.5,2.5
	c-0.7,0.2-1.4,0.4-2.1,0.6c-2-4-4.1-8.5-6-12.4c-0.2-0.4-0.7-0.6-1.1-0.4c0,0-0.1,0-0.1,0c-1.8,0.8-3.6,1.5-5.3,2.1l-0.4,0.1
	c0-0.2-0.1-0.4-0.2-0.5c0,0,0,0,0,0c-0.2-0.3-0.6-0.6-0.9-0.4l0,0c-0.6,0.6-1.2,1.3-1.7,2.1c-0.3,0.6-0.6,1.2-0.9,1.7
	c-0.3,0.7-0.6,1.2-0.7,1.5C5.9,32.4,5.4,32.6,5,33c-0.2,0.2-0.6,0.2-0.8,0.3s-0.2,0.1-0.3,0.1c0,0-0.1-0.1-0.2-0.1
	c0-0.1-0.1-0.2-0.2-0.3c-0.1-0.3-0.3-0.7-0.2-1.1c0-0.2,0-0.5,0-0.7c0-0.2,0.1-0.3,0.1-0.5c0-0.6-0.1-1.5,0.3-2.6
	c0.2-0.5,0.4-1,0.5-1.5c0.1-0.4,0.6-0.6,0.8-0.9c0.1-0.2-0.2-0.6-0.6-1l0,0c-0.2-0.2-0.4-0.3-0.7-0.4c-0.2-0.1-0.7,0-0.8,0.5
	c-0.1,0.4,0.1,0.8,0,1.2c-0.2,0.4-0.4,0.9-0.5,1.2c0,0.4-0.2,0.5-0.3,0.9l-0.1,0.3c-0.1,0.3-0.1,0.5-0.2,0.8
	c-0.1,0.4-0.1,0.8-0.1,1.2c-0.1,0.5-0.1,0.8,0,1.1c0,0.1,0,0.2,0,0.3c-0.3,0.5-0.7,1.7-1,3.9c-0.6,4-1,8.2-0.4,12.4
	c0.2,2.1,0.8,4.1,1.6,6.1c0.9,1.9,1.9,3.8,3.4,5.4c1,1.3,2.3,2.3,3.6,3.3c1.4,0.9,2.8,1.9,4.4,2.5c1.5,0.8,3.1,1.3,4.8,1.9
	c0.8,0.3,1.6,0.4,2.5,0.7c0.8,0.2,1.6,0.4,2.5,0.6c6.6,1.2,13.1,0.9,17.7,0.1c4.1-0.6,7.8-1.6,11.4-3c3.5-1.4,7.1-3.2,10.1-6.1
	c2.2-2.2,5.1-5.6,6.5-8.5c1.5-2.9,2.3-5.8,2.5-8.7c0.3-2.9-0.1-5.8-0.7-8.9c-0.2-1.2-0.4-2.3-0.6-3.5c0.3-0.1,0.6-0.2,0.8-0.4
	c0.4-0.3,0.7-0.2,1.2-0.4l0.4-0.2c0.3-0.1,0.5-0.2,0.8-0.3h0c0.2-0.1,0.4-0.2,0.4-0.5l0.1-0.2C73.9,27.5,73.8,27,73.7,26.7z
	 M48.7,18.8c-0.3,0.3-1.1,0.3-1.5,0.3c-0.4,0-1.2,0-1.6,0.4c-0.4,0.4-0.6,0.4-0.9,0.6c-0.1,0.1-0.2,0.1-0.2,0.2
	c-0.2,0.1-0.4,0.2-0.6,0.4c-0.5,0.3-1,0.5-1.3,0.3c-0.2-0.1-0.2-0.3-0.3-0.3c-0.1-0.2-0.1-0.5,0-0.9c0.1-0.3,0.3-0.6,0.5-0.9
	c0.4-0.5,1-0.9,1.8-1.3c0.1,0,0.3,0,0.5,0c0.9,0,1.6-0.1,2.7,0.2c0.3,0.1,0.7,0.3,0.8,0.5C48.8,18.4,48.8,18.6,48.7,18.8z
	 M69.1,45.9c-1.3,4.6-3.9,8.1-6.9,11.3c-1.5,1.7-3.1,2.9-4.9,4.1c-1.9,1.1-3.9,2.1-6.2,3c-4.5,1.7-9.7,3-15.9,3.3
	c-4.6,0.2-8.6,0-13-0.9c-1.1-0.3-2.2-0.6-3.3-0.9c-1.1-0.4-2.3-0.8-3.5-1.3c-2.3-1.1-4.9-2.3-7.2-4.4c-1.3-1.1-2.6-2.7-3.8-4.7
	c-1.1-2-2-4.5-2.4-6.9c-0.8-5,0-9.9,0.3-12.5c0.1-0.6,0.2-1.2,0.2-1.7c0.2,0.2,0.4,0.5,0.8,0.7c0.5,0.2,1.1,0.1,1.3,0.1
	c0.3,0,0.5-0.1,0.8-0.2c1-0.4,2-1.1,2.7-2.5c0.2-0.4,0.4-0.8,0.5-1.2c0.1-0.1,0.1-0.3,0.2-0.4c2.5-1.3,5.1-2.7,7.8-3.9
	c1.6,3.2,3.6,7.5,5.1,10.4c0.4,0.7,0.7,1.4,1,1.9c0.1,0.3,0.5,0.4,0.8,0.3c2.3-0.7,4-1.1,6.8-1.9l3.2-1l1-0.3c1.8,1,3.5,2,5.3,3
	c0.5,0.3,1,0.6,1.5,0.8c0.4,0.2,0.8,0.1,1.1-0.2c2-2.3,3.9-4.7,5.8-7c2.5,1.4,5,2.7,7.6,4.1c0.3,0.2,0.6,0.1,0.8,0l0.2-0.1
	c3.2-1.8,6.3-3.5,9.5-5.3c0.2-0.1,0.5-0.2,0.8-0.3c0.2-0.1,0.4-0.1,0.6-0.2c0.2,0,0.4,0,0.6-0.1c0.2-0.1,0.3-0.2,0.4-0.3l0.1,0
	c0.4,2.8,1,5.3,1.2,7.7C70,41.2,69.7,43.7,69.1,45.9L69.1,45.9z M70.9,27.9c-0.7,0.2-1.4,0.6-2.1,0.8c-0.3,0.1-0.6,0.1-0.9,0.1
	c-0.1-0.4-0.4-0.7-0.6-0.9c-1-0.9-1.9-1.2-2.7-1.6c-0.8-0.3-1.5-0.6-2.1-0.8c-0.7-0.2-1.4-0.5-2.1-0.7c-0.8-0.2-1.6-0.5-2.7-0.6
	c-0.3,0-0.5,0-0.8,0c0.4-0.3,0.8-0.5,1.3-0.7c1.3-0.6,3.2-0.5,4.3-0.3c1,0.1,1.8,0.6,2.8,0.8c0.4,0.1,0.9,0.4,1.3,0.5
	c0.8,0.3,1.4,0.5,2.2,0.9c0.5,0.2,1.1,0.4,1.6,0.8c0.2,0.2,0.6,0.3,0.9,0.5s0.3,0.4,0.5,0.5c0.2,0.1,0.3,0.2,0.4,0.4c0,0,0,0,0,0.1
	C71.8,27.5,71.4,27.7,70.9,27.9L70.9,27.9z"/>
<path class="st2" d="M33.8,10.3c-0.2-0.2-0.4-0.3-0.6-0.4c-1-0.4-2.5-0.4-3.6,0.3c-0.7,0.5-1.7,1.1-1.9,2.2c0,0.2-0.1,0.5,0,0.9
	c0.1,0.2,0.2,0.4,0.4,0.6c0.3,0.2,0.6,0.3,0.9,0.3c0.6,0,1.2-0.3,1.6-0.6c0.1-0.1,0.2-0.1,0.3-0.2c0.1-0.1,0.3-0.1,0.4-0.2l0,0
	c0.3-0.1,0.6-0.3,0.9-0.5c0.1-0.1,0.2-0.1,0.3-0.2c0.5-0.3,1.2-0.7,1.2-1.6C34,10.9,34,10.6,33.8,10.3z"/>
<path class="st0" d="M32.2,11.7c0.5-0.3,0.6-0.4,0.6-0.6c-0.4-0.2-0.8-0.2-1.3-0.2c-0.5,0-0.9,0.1-1.2,0.3c-0.7,0.5-1.4,0.9-1.5,1.6
	c0,0.2,0,0.2,0,0.2c0.3,0.3,0.8,0.1,1.4-0.3c0.1-0.1,0.3-0.1,0.4-0.2c0.2-0.1,0.3-0.1,0.5-0.2l0,0h0c0.3-0.1,0.5-0.2,0.8-0.4
	C31.9,11.8,32.1,11.7,32.2,11.7z"/>
<path class="st2" d="M19.9,15.5c-0.8,0.1-0.9-0.9-0.7-1.4c0.2-0.5,0.5-0.9,0.8-1.3c0.1-0.1,0.2-0.2,0.2-0.2c0.3-0.3,0.7-0.6,1.2-0.7
	s1,0.1,1.2,0.5c0.5,0.8-0.6,1.7-1,2.3c-0.1,0.1-0.2,0.2-0.3,0.4C20.9,15.3,20.3,15.4,19.9,15.5z M33.9,7.4c0.1,0,0.3-0.1,0.4-0.1
	c0.3-0.1,0.7-0.3,1-0.5s0.3-0.7,0.1-1c-0.2-0.3-0.7-0.4-1.1-0.4c-1,0-1.7,0.3-2.5,1c0,0-0.1,0.1-0.1,0.2c0,0.1,0,0.1,0,0.2
	c0,0.5,0.3,0.9,0.8,0.8C32.8,7.6,33.4,7.5,33.9,7.4z"/>
</svg>
