<?xml version="1.0" encoding="UTF-8"?><svg id="Layer_1" xmlns="http://www.w3.org/2000/svg" viewBox="0 0 30 30"><defs><style>.cls-1{fill:#d7dae4;fill-rule:evenodd;}</style></defs><path class="cls-1" d="M15,30C6.7,30,0,23.3,0,15S6.7,0,15,0s15,6.7,15,15-6.7,15-15,15Zm0-23h-3.3c-.9,0-1.4,.2-1.9,.4-.5,.2-1,.5-1.4,.9-.5,.4-.8,.9-1,1.4s-.3,1.1-.4,1.9v6.6c0,.9,.2,1.4,.4,2,.2,.5,.5,1,.9,1.4,.4,.4,.9,.7,1.4,.9,.5,.2,1.1,.3,1.9,.4h6.6c.9,0,1.4-.2,2-.4,.5-.2,1-.5,1.4-.9s.7-.9,.9-1.4c.2-.5,.3-1.1,.4-2v-6.6c0-.9-.2-1.4-.4-1.9-.2-.5-.5-1-.9-1.4-.4-.4-.9-.7-1.4-.9-.5-.2-1.1-.3-2-.4-.7,0-1,0-3.2,0Zm0,1.4h3.2c.8,0,1.2,.2,1.5,.3,.4,.1,.6,.3,.9,.6s.5,.6,.6,.9c.1,.3,.2,.7,.3,1.5v6.4c0,.8-.2,1.2-.3,1.5-.1,.3-.3,.7-.6,.9-.3,.3-.6,.5-.9,.6s-.7,.2-1.5,.3h-6.4c-.8,0-1.2-.2-1.5-.3-.3-.1-.7-.3-.9-.6-.3-.3-.5-.6-.6-.9s-.2-.7-.3-1.5v-6.4c0-.8,.2-1.2,.3-1.5s.3-.7,.6-.9c.3-.3,.6-.5,.9-.6,.3-.1,.7-.2,1.5-.3,.8,0,1.1,0,3.2,0Zm0,9.3c-1.5,0-2.7-1.2-2.7-2.7s1.2-2.7,2.7-2.7h0c1.5,0,2.7,1.2,2.7,2.7s-1.2,2.7-2.7,2.7Zm0-6.8c-2.3,0-4.1,1.8-4.1,4.1s1.8,4.1,4.1,4.1h0c2.3,0,4.1-1.8,4.1-4.1s-1.8-4.1-4.1-4.1Zm5.3-.2c0-.5-.4-1-1-1s-1,.4-1,1,.4,1,1,1,1-.5,1-1Z"/></svg>