<?xml version="1.0" encoding="utf-8"?>
<!-- Generator: Adobe Illustrator 26.5.0, SVG Export Plug-In . SVG Version: 6.00 Build 0)  -->
<svg version="1.1" id="Livello_1" xmlns="http://www.w3.org/2000/svg" xmlns:xlink="http://www.w3.org/1999/xlink" x="0px" y="0px"
	 viewBox="0 0 3065.6 844" style="enable-background:new 0 0 3065.6 844;" xml:space="preserve">
<style type="text/css">
	.st0{fill:#4D58D3;}
</style>
<path class="st0" d="M3059.9,473.3c-4.6,19.9-11.2,39-18.9,57.5c-17,44.4-45,84.3-76.3,122.4c-36.4,40.8-77.6,75.3-121.3,105.9
	c-55.2,36.8-113.9,63.9-177.9,78.8c-43.4,9-92.6,9.3-132.8-8.8c-27.8-10.5-52.1-30-75.5-50.6c-23.7-21.9-42-47.4-57.1-73.9
	c-1.5-2.4-4.6-1.6-6-0.5c-43,19.2-87.7,34.1-132,48.3c-45.5,13.8-101.5,9.3-133.4-28.8c-4.6-5.4-7.5-11.8-12.5-16.7
	c-2.2,0-3.9-0.1-4.9,0.5c-43.4,17.4-87,35.3-133.5,45c-35.2,7.5-71.9,0.5-99.5-18.2c-14.1-11.6-26.6-25.5-32-41.6
	c-10-26.8-7.6-56.7-7.1-84.8c1.4-47,6.8-93.2,8.3-140.7c-0.3-6.8-3.4-14.3-10.6-16.5c-9.7-3.4-21.6-1.6-31.8-0.7
	c-6.9,1-14.1,0.9-21,2.4c-0.9-0.1-1.5,0.8-1.9,2c-21.2,76.4-44.9,152.5-85.5,221.2c-20.1,33.8-53.6,74.6-93.9,81.4
	c-51.8,11-88.8-39.5-114.4-76.7c-17.7-24.9-34.3-51-52.4-75.5c-3.9-3.8-7.3-7.7-12.9-5.8c-6.3,2.3-10.8,8.1-13.9,13.6
	c-29.1,44.7-54.5,90.6-85.1,134.5c-5.8,6.8-14.3,9.8-23.1,9.7c-10.6-0.6-18.4-10.2-23.3-19.2c-25.3-43.9-46.9-89.6-69.9-135
	c-3.4-4.4-7.2-10.3-13.5-8.4c-6.5,2.5-10.7,8.3-14.7,13.2c-34.8,43.9-64,90.7-102,132.4c-11.6,11.2-27.2,20.5-42.9,14.3
	c-33.7-14-46.5-51.4-68-77.4c-6.7-9.1-11.1-19.9-20.9-27.3c-8.8-2.9-13.6,7.8-19.9,12.5c-28.2,33.3-60.4,66.8-98.9,84.8
	c-51.5,20.4-111,4.9-150-31.8c-30.6-33.4-44.6-74-48.8-118.4c-2.7-57.1,5.7-111.8,25.5-160.5c24.2-62.5,68.4-126.6,130.4-161.6
	c58.4-34.9,149.6-37.4,207.8-0.2c25.1,15.8,40.2,42.3,35.6,72.7c-2.2,25.8-19.9,53.3-46,61.7c-36.7,8.5-61.8-17.5-95.2-20.5
	c-37.4-5.4-67.3,24.1-85.1,53.4c-22.1,36.6-37.7,77.1-36.5,121.9c2.5,12.7,6.7,26.4,19.7,32.3c8,3.9,17.7,2.6,25-0.9
	c25.1-21,46.5-46.7,66.1-72.1c17.7-20.9,33-46.8,57.1-61.9c10.7-4.8,25.2-4.6,35.6,1.7c19.9,11.8,30,33.5,43.6,50.9
	c8.9,11.5,15,27,29.9,32.5c7.6,0,12.6-6.9,18.9-11.7c40.7-49.1,78.6-100.1,119.8-149.8c11.8-13.2,27.4-27.2,46.5-22.8
	c11.7,4.1,21.4,13.3,28.3,24.5c18.8,30.4,35.4,62.3,54.4,93c2.4,3.4,5.6,7.3,10.1,7.3c5.9,0,9.4-6,13.4-9
	c28.9-35.7,48-76.1,82.8-108.3c8.8-7.6,22.9-8.5,33.5-4.6c21.7,11.8,31.3,35.1,45.9,53.4c30.8,44.4,54.9,91.4,88.8,134.6
	c3.2,3,7.3,6.2,12.8,4.8c12.1-5.8,16.7-19.9,23-30.6c14.8-27.9,24.5-57.5,31.2-88.8c0.4-2.5-1.8-4.4-3.9-4.7
	c-35.5-17.2-56.4-54.4-53.9-93.9c2-33.2,23.7-66,55.1-78.5c32.9-14,76.3-12,105,10.1c14,11,21.4,26.5,27.5,41.6
	c0.7,0.4,0.9,1.1,2,1.5c48.4-1.7,94.8-6.6,143.8-2.3c25.3,2.8,49.3,19.8,60.3,43.6c9.8,24.9,5.7,52.9,5.7,81.1
	c-2.2,42-5.4,83.5-7.4,125.9c2,2.9,0,7.4,1.6,10.9c0.3,6.4,2.9,11.7,7.3,15.6c8.7,5.8,21,3.9,30.2,0.9c22.6-8.7,44.9-17.2,66-29.8
	c0.4-0.6,1.3-1.6,1.3-2.5c0.9-68.4-0.7-137.2,11.4-202.6c3.8-21.8,23.4-43.8,45.7-47.6c28.6-6.7,58.7-3.8,79.2,15.9
	c12.1,11.7,14.9,27.5,16.9,43.2c-0.4,65.8-5.5,130.6-4.6,197.1c0.3,10.8,2.8,22,12.2,28.1c12.7,5.8,26.7-0.9,38.8-4.2
	c15.8-7.3,33.4-11.8,46.9-23.4c-10-61.6-16-132,0.8-192.3c12.1-57.7,56.5-113.1,110.7-139.7c42.4-22.9,102-24.1,147.3-5.4
	c22.4,8,43,20.3,62.3,35.1c1.4,0.4,3.6,0.5,4.8,0.1c81.4-39,183.1-80.5,275.8-38.2c73.7,34.1,125.6,109.9,126.2,191.1
	C3066.1,434.8,3062.5,453.4,3059.9,473.3L3059.9,473.3z M2897.7,487.7c14.4-23.4,16.9-60.5,2-84c-13.2-21.5-36.7-31.4-60-28
	c-44.6,7.6-82.2,32.2-122,51.6c-37.6,20.3-80.1,57.9-125.6,31c-25.4-19.7-37.9-48.3-33-80.2c-3.9-4-9.2-5.1-14.7-5.1
	c-20.7-0.5-41.5,11.6-52.7,30.2c-23.1,40.5-13.4,97-2.8,140.6c15.3,49.8,38.5,97.8,80,135.6c15.5,13.7,40.8,15.4,61,9
	c56.1-17,110.1-42.6,158-80.9c31-23,59.5-49.2,83.3-79.4C2881.8,515.2,2889.6,501.5,2897.7,487.7L2897.7,487.7z"/>
<path class="st0" d="M2229.1,255.6c-27.9,16.5-69.8,19.3-98.2,3.1c-27.2-14.8-47.6-42.9-46.4-73.9c-1-31.8,20.8-59.4,47-74.1
	c31.5-16.1,76.8-16.5,104.9,6.8c28.3,19.9,41.7,55.4,32,89.4C2262.5,227,2247.2,244.4,2229.1,255.6z M595.3,193.2
	c-22.9,15.5-55.8,15-78.1-1c-18.5-13.7-35-33.7-56.4-42c-46.9-23.3-103.9-6.5-150,6c-37.6,11.2-73.8,31.2-102.8,60.3
	c-7.8,9.2-14.7,19.4-10.9,32.2c3.1,12.3,16.6,18.7,26.2,24.5C242,284,262,291,281.9,298.9c52.1,20.5,105.8,39.4,157.9,60.2
	c41.9,20.6,87.2,37.2,118.5,77.2c25.2,33.7,35.8,77,27,121.5c-8.9,79.1-75.7,147.7-142.9,185.5C393,773.8,336.9,788,277.1,793.6
	c-56.9,2.1-112.8-5.4-162.6-23.5c-39-15.5-78.9-47-98.3-85.9c-17.1-34.3-24.6-82.7-3.1-117.4c21.1-38.3,63.3-55.6,105.1-51.1
	c21.6,3.3,43.6,16,51.7,37.4c11.9,20.3-1.2,49.2,10.4,69.3c20.8,38.8,67.9,36.3,106.9,33.9c56.6-9.4,113.8-37,144-90.4
	c6.8-13.4,11.4-31.6,1.7-45.6c-20.1-23.5-49.2-29.6-74.6-41.4c-64.9-22.5-129.3-47.3-193.6-70.4c-58-21.7-134.1-61.2-141.3-132.5
	c-11.6-75.4,35.3-138.6,96.7-177.3c78.4-51,165.1-82.9,259.1-95.4C459.8-6.1,544.3,2.8,605.3,55c27.1,24.5,37.6,61.8,25.9,96.6
	C625.3,168.4,611,183.4,595.3,193.2L595.3,193.2z"/>
</svg>
