<svg version="1.1" id="Layer_1" xmlns="http://www.w3.org/2000/svg" x="0" y="0" viewBox="0 0 99.85 99.55" style="enable-background:new 0 0 99.85 99.55" xml:space="preserve"><style>.st0{fill:#fff}.st2{fill:#2a3768}</style><path class="st0" d="M29.3 75.89c-.32-.69-.69-1.37-.96-2.08-.25-.72-.49-1.45-.74-2.18-.49-1.46-1.06-2.92-1.32-4.48-.3-1.55-.72-3.11-.95-4.74-.16-1.64-.32-3.31-.49-5.04-.33-6.86-.31-14.54 1.04-23.71.9-5.29 2.22-10.15 4.31-15.15 1.8-4.37 4.28-8.51 7.69-11.86 1.6-1.59 3.45-2.96 5.47-4.03-3.37.64-7.63 1.81-11.78 3.69-6.02 2.71-11.53 6.92-14.48 10.17-5.79 5.9-8.72 11.79-10.75 17.2-.26.68-.52 1.35-.77 2.01-.25.67-.39 1.36-.59 2.04-.37 1.35-.73 2.69-1.1 4.03-.28 1.36-.48 2.75-.73 4.14-.25 1.4-.52 2.81-.59 4.3-.15 2.13-.41 4.18-.44 6.13l.03 2.86c.09.93.19 1.84.28 2.74.52 3.57 1.55 6.77 2.93 9.63 2.85 5.69 6.97 9.9 11.65 13.3 4.71 3.39 10.05 6.04 16.37 8.2 5.27 1.78 11.3 3.28 18.35 4.02-4.28-1.65-7.92-3.93-10.99-6.38-5.25-4.25-8.89-9.29-11.44-14.81z"/><path class="st0" d="M96.25 40.7c-.75-.63-1.87-2.68-3.02-5.79-2.03-5.29-4.03-10.6-7.24-15.33-3.82-5.82-9.97-11.75-16.35-14.37-3.78-1.69-7.55-2.57-11.07-2.97-.88-.1-1.75-.12-2.6-.18-.85-.06-1.68-.11-2.47-.03-.8.05-1.58.09-2.34.13-.74.16-1.47.32-2.18.47-.36.08-.71.15-1.05.23-.33.13-.66.26-.98.39-.65.26-1.28.5-1.89.75-.58.35-1.13.68-1.68 1-.54.34-1.11.6-1.55 1.02-1.94 1.47-3.46 3.1-4.74 4.69-.74 1.09-1.54 1.95-2.15 2.96-.6 1.01-1.27 1.99-1.87 3.19-1.22 2.48-2.79 6.64-3.47 9.33-1.56 5.19-2.45 11.38-2.72 16.88-.25 4.12-.29 7.77-.17 11.41-.02 1.83.21 3.62.4 5.47.1.93.18 1.87.31 2.83.21.94.43 1.91.65 2.9.67 3.9 2.77 9.14 4.72 12.5 2.64 4.36 5.85 7.93 9.49 10.97 3.67 3.01 7.92 5.47 12.89 6.93 2.85.72 6.25 1.45 9.95 1.3.91-.1 1.84-.21 2.78-.31.91-.22 1.82-.47 2.75-.74 1.84-.81 3.8-1.48 5.58-2.57 1.88-.92 3.57-2.2 5.33-3.39 1.61-1.38 3.28-2.69 4.68-4.27 2.89-3.04 5.31-6.46 6.97-9.95 4.6-9.2 5.79-20.01 3.68-30.13-.67-2.99-.85-4.7-.64-5.32zM84.99 58.65c-.78 3.72-2.71 7.27-4.28 9.26-.7.97-1.51 1.76-2.23 2.55-.81.7-1.53 1.43-2.33 1.97-.39.29-.77.57-1.15.84-.4.24-.79.48-1.17.71-.75.49-1.54.83-2.29 1.21-2.93 1.4-6.26 2.38-9.75 1.53-2.51-.53-4.59-1.71-6.28-3.01l-1.22-1.01-1.06-1.09c-.73-.69-1.25-1.5-1.86-2.21-2.22-3.01-3.6-6.04-4.82-9.12-.28-.78-.57-1.56-.85-2.35-.26-.8-.48-1.61-.73-2.43-.51-1.62-.95-3.44-1.18-5.34-.45-3.81-.42-8.14.71-13.18.7-2.91 1.76-5.53 3.36-8.13 1.4-2.26 3.23-4.36 5.69-5.65 1.22-.64 2.56-1.07 3.93-1.23l1.03-.07 1.03.03c.67.04 1.28.13 1.93.19 1.87.22 3.71.57 5.54 1.02.78.24 1.58.41 2.36.7.63.23 1.18.43 1.69.65.49.25.95.48 1.4.71.46.21.89.51 1.36.79.47.28.99.56 1.54.96.54.38 1.18.78 1.74 1.33.59.52 1.21 1.09 1.73 1.74l.81.95c.23.34.46.67.69 1 .22.33.44.65.65.95.18.32.35.63.52.93 1.22 2.07 2.39 4.14 3.22 6.34.89 2.58.81 4.7.65 5.33-.15.55-.35.88-.59 1.03.38.38.75 1.31.89 2.78.12 1.97.17 5.62-.68 9.32z"/><path d="M82.54 43.29c-.69-2.95-1.25-5.95-2.77-8.6-1.76-3.28-5.06-6.37-8.41-7.91-1.98-1.01-4-1.6-5.88-1.99-1.88-.43-3.65-.6-5.28-.75-3.15-.35-5.48.72-7.14 2.02-1.06.84-1.89 1.53-2.77 2.67-.9 1.15-1.95 3.3-2.54 4.66-1.2 2.66-1.86 5.99-2.12 8.94-.2 2.22-.2 4.19-.04 6.13.16 1.96.48 3.85 1.18 5.97.62 2.07 1.49 5.02 2.46 6.93 1.16 2.54 2.49 4.75 3.96 6.85 1.49 2.07 3.31 3.97 5.7 5.22 1.36.72 3.07 1.29 4.98 1.41.95.08 1.95-.02 2.95-.2.5-.12.98-.25 1.5-.43l1.56-.6c2.06-.88 4.06-2.04 5.81-3.45 1.76-1.4 3.18-3.1 4.32-4.81 3.01-4.59 4.1-10.3 3.73-15.86-.16-1.66.05-2.62.39-2.95-.6-.35-1.23-1.5-1.59-3.25z" style="fill:#deba9d"/><path class="st2" d="M98.79 45.65c-.57-2.57-1.31-4.22-1.85-4.88.19-.26.26-.87.19-1.85-.05-.57-.27-1.76-.7-3.38-.5-1.6-1.16-3.64-2.21-5.83-1.75-3.81-4.13-7.33-6.48-10.94-1.35-2-3.1-4.43-5.17-6.58-.52-.54-1.03-1.08-1.54-1.61-.56-.48-1.1-.96-1.64-1.43-1.03-.97-2.18-1.68-3.14-2.37-.97-.73-1.94-1.17-2.79-1.7-.84-.53-1.67-.93-2.51-1.32-1.64-.85-3.38-1.5-5.71-2.18-1.46-.32-2.89-.77-4.37-.93-.85-.12-1.69-.27-2.54-.37L55.77.11 54.49.03l-1.31.06c-.57.04-1.14.06-1.72.09-.42-.07-.92-.13-1.55-.16-.43-.02-.9-.03-1.41-.02-.46.03-.91.09-1.42.15C36.37 1.2 26.01 5.68 17.92 12.83l-2.22 2.16c-.37.37-.77.72-1.12 1.11l-1.03 1.23-2.08 2.5c-.65.88-1.23 1.82-1.85 2.73-2.5 3.66-4.34 7.8-5.85 11.89C.83 42.73.15 51 0 57.17c.04 5.46 1.1 10.57 3.29 15.15 2.21 4.56 5.44 8.58 9.56 11.96 3.13 2.62 8.04 5.75 11.75 7.43 3.81 1.77 7.29 3.02 10.82 4.1a88.07 88.07 0 0 0 11.26 2.61c4.67.75 9.9 1.22 14.79 1.03.09.01.17.03.27.04.78.04 1.55.03 2.31.05l1.14.02c.38-.02.75-.08 1.13-.12.75-.09 1.49-.15 2.23-.28.73-.2 1.45-.39 2.17-.59 1.42-.43 2.69-1.09 4.05-1.63 1.34-.58 2.59-1.38 3.93-2.09 5.19-3.08 10.37-7.63 14.86-14.97 2.35-3.9 5.17-10.58 5.92-17.4.87-6.8.05-13.4-.69-16.83zM33.37 93.07c-6.32-2.16-11.66-4.82-16.37-8.2-4.67-3.4-8.79-7.61-11.65-13.3a32.968 32.968 0 0 1-2.93-9.63c-.09-.9-.18-1.81-.28-2.74l-.03-2.86c.03-1.95.3-4 .44-6.13.07-1.49.35-2.91.59-4.3.25-1.4.46-2.78.73-4.14.37-1.34.73-2.68 1.1-4.03.2-.67.34-1.37.59-2.04.26-.66.51-1.33.77-2.01 2.03-5.41 4.97-11.3 10.75-17.2 2.95-3.25 8.46-7.47 14.48-10.17 4.14-1.88 8.4-3.05 11.78-3.69a23.373 23.373 0 0 0-5.47 4.03c-3.41 3.35-5.89 7.49-7.69 11.86-2.09 5-3.41 9.86-4.31 15.15-1.35 9.16-1.37 16.85-1.04 23.71.17 1.73.33 3.4.49 5.04.22 1.63.64 3.19.95 4.74.26 1.57.83 3.02 1.32 4.48.25.73.5 1.46.74 2.18.27.71.65 1.39.96 2.08 2.54 5.52 6.19 10.56 11.42 14.82 3.07 2.45 6.71 4.72 10.99 6.38a84.797 84.797 0 0 1-18.33-4.03zm59.85-16.91c-1.66 3.49-4.08 6.91-6.97 9.95-1.4 1.58-3.07 2.89-4.68 4.27-1.75 1.19-3.44 2.47-5.33 3.39-1.79 1.09-3.75 1.76-5.58 2.57-.93.27-1.84.52-2.75.74-.94.11-1.87.21-2.78.31-3.71.15-7.1-.58-9.95-1.3-4.97-1.45-9.22-3.91-12.89-6.93-3.65-3.05-6.85-6.61-9.49-10.97-1.96-3.36-4.05-8.6-4.72-12.5-.22-.99-.44-1.96-.65-2.9-.13-.96-.21-1.9-.31-2.83-.19-1.85-.42-3.64-.4-5.47-.12-3.64-.08-7.29.17-11.41.27-5.5 1.16-11.69 2.72-16.88.69-2.69 2.26-6.86 3.47-9.33.6-1.2 1.28-2.18 1.87-3.19.61-1.01 1.4-1.87 2.15-2.96 1.28-1.59 2.8-3.22 4.74-4.69.43-.43 1-.69 1.54-1.03.55-.32 1.11-.65 1.68-.99.62-.24 1.25-.49 1.89-.75.32-.13.65-.26.98-.39.35-.08.7-.15 1.05-.23.71-.15 1.44-.31 2.18-.47.76-.04 1.54-.09 2.34-.13.79-.08 1.62-.03 2.47.03.85.06 1.72.07 2.6.18 3.52.4 7.29 1.28 11.07 2.97 6.38 2.62 12.53 8.55 16.35 14.37 3.2 4.73 5.2 10.04 7.24 15.33 1.15 3.1 2.27 5.16 3.02 5.79-.21.61-.03 2.33.65 5.33 2.11 10.11.92 20.92-3.68 30.12z"/><path class="st2" d="M84.77 46.59c.24-.14.44-.48.59-1.03.16-.64.24-2.76-.65-5.33-.83-2.2-1.99-4.27-3.22-6.34-.16-.29-.34-.6-.52-.93-.21-.31-.43-.63-.65-.95-.22-.33-.46-.66-.69-1l-.81-.95c-.52-.65-1.14-1.22-1.73-1.74-.56-.56-1.2-.95-1.74-1.33-.54-.4-1.06-.68-1.54-.96-.47-.28-.9-.57-1.36-.79-.46-.23-.91-.46-1.4-.71-.51-.22-1.06-.42-1.69-.65-.78-.29-1.57-.46-2.36-.7-1.83-.45-3.67-.8-5.54-1.02-.64-.07-1.26-.16-1.93-.19l-1.03-.03-1.01.06c-1.37.16-2.72.58-3.93 1.23-2.46 1.29-4.3 3.39-5.69 5.65-1.6 2.59-2.66 5.22-3.36 8.13-1.14 5.04-1.16 9.37-.71 13.18.23 1.9.66 3.72 1.18 5.34.25.82.47 1.64.73 2.43.29.79.57 1.57.85 2.35 1.22 3.08 2.6 6.11 4.82 9.12.61.71 1.12 1.53 1.86 2.21l1.06 1.09 1.22 1.01c1.69 1.31 3.77 2.48 6.28 3.01 3.49.85 6.83-.13 9.75-1.53.75-.38 1.54-.72 2.29-1.21.38-.23.77-.47 1.17-.71.38-.27.76-.55 1.15-.84.81-.54 1.52-1.27 2.33-1.97.73-.79 1.54-1.58 2.23-2.55 1.57-1.99 3.5-5.54 4.28-9.26.85-3.7.79-7.35.67-9.28-.15-1.5-.52-2.43-.9-2.81zm-1.03 2.9c.37 5.57-.72 11.27-3.73 15.86-1.13 1.71-2.56 3.41-4.32 4.81-1.75 1.41-3.74 2.57-5.81 3.45l-1.56.6c-.51.18-1 .3-1.5.43-1 .18-2 .29-2.95.2-1.91-.12-3.63-.69-4.98-1.41-2.4-1.25-4.21-3.15-5.7-5.22-1.46-2.1-2.79-4.31-3.96-6.85-.97-1.91-1.84-4.86-2.46-6.93-.69-2.12-1.01-4.02-1.18-5.97-.15-1.95-.16-3.92.04-6.13.26-2.95.92-6.29 2.12-8.94.58-1.37 1.63-3.51 2.54-4.66.87-1.13 1.71-1.82 2.77-2.67 1.65-1.29 3.98-2.37 7.14-2.02 1.63.14 3.4.32 5.28.75 1.88.4 3.89.98 5.88 1.99 3.35 1.54 6.65 4.63 8.41 7.91 1.52 2.65 2.07 5.65 2.77 8.6.36 1.75.99 2.9 1.59 3.25-.34.33-.56 1.29-.39 2.95z"/><path class="st2" d="M72.38 50.78c-.23-.82-1.02-1.3-1.56-1.46-.58-.18-1.08-.2-1.53-.2-1.53.07-2.49.43-3.46.75-.94.36-1.78.82-2.55 1.52-.28.26-.62.63-.84 1.1-.11.23-.2.49-.25.77-.02.14-.03.28-.03.43.02.27.06.61.26.83 1.09 1.03 2.08.76 2.77.62.33-.11.65-.23.96-.37.23-.11.45-.22.66-.36.07-.05.15-.1.22-.16.03-.03.07-.06.1-.09l.1-.1c.02-.02.04-.05.04-.08 0 .04.04.07.07.1.04.03.1.06.15.07.18.05.37.06.56.06.28 0 .55-.02.82-.06.34-.05.68-.12 1.01-.22.2-.06.4-.12.6-.19.38-.13.98-.21 1.54-.85.27-.32.38-.76.41-1.04.06-.31.06-.69-.05-1.07z"/><path class="st0" d="M69.78 52.51c.4-.21.74-.36.87-.51.11-.15.05-.09.08-.41-.02-.22-.07-.27-.11-.3-.03-.04-.13-.09-.24-.13-.24-.07-.99-.31-2.95.3-1.04.31-1.71.55-2.34.88-.31.16-.62.38-.88.62-.12.12-.23.26-.31.41-.04.08-.07.16-.09.24 0 .01 0 .02-.01.03.1.06.21.13.36.17.3.1.75.11 1.21.08.91-.09 1.85-.19 1.89.06 0 .02.01.03.01.03-.06-.3 1.23-.71 2.51-1.47z"/><path class="st2" d="M79.66 43.57c.27.28.49.64.46 1.02-.03.38-.32.71-.66.89-.34.18-.73.25-1.11.31-.42.07-.82.11-1.2.13-.8.03-1.56-.08-2.38-.43-.36-.15-.72-.33-1.01-.59-.29-.26-.51-.62-.54-1.01-.13-2.02 3.35-1.67 4.51-1.38.73.17 1.42.52 1.93 1.06zM57.84 47.7c-1.05-.67-2.72-.37-3.68.3-.5.35-.92.79-1.34 1.23-.5.53-1.37 1.46-1.2 2.27.11.49.66.73 1.16.8 1.93.27 3.47-.78 4.85-1.96.18-.15.37-.28.52-.46.27-.31.4-.75.34-1.17-.06-.39-.29-.76-.61-.99-.01 0-.03-.01-.04-.02z"/></svg>