<svg version="1.1" id="Layer_1" xmlns="http://www.w3.org/2000/svg" x="0" y="0" viewBox="0 0 73.84 69.41" style="enable-background:new 0 0 73.84 69.41" xml:space="preserve"><style>.st0{fill:#fff}.st2{fill:#2a3768}</style><path class="st0" d="m68.59 30.77-.1.03c-.12.1-.25.19-.4.26-.19.09-.39.1-.57.08-.2.07-.39.14-.59.21-.27.09-.53.18-.79.27-3.22 1.8-6.26 3.51-9.51 5.33l-.25.14c-.25.14-.57.16-.84.01-2.56-1.38-5.09-2.75-7.61-4.11-1.95 2.34-3.88 4.68-5.84 7.03-.25.31-.7.4-1.06.2-.5-.28-1-.57-1.5-.85-1.77-1.01-3.53-2.01-5.28-3.01l-.96.28-3.21.96c-2.73.78-4.45 1.27-6.75 1.92a.65.65 0 0 1-.77-.34c-.29-.58-.6-1.22-.96-1.93-1.5-2.92-3.54-7.25-5.1-10.45-2.7 1.18-5.25 2.57-7.77 3.86-.07.14-.14.29-.21.43-.17.34-.31.73-.54 1.17-.66 1.32-1.71 2.1-2.7 2.46-.25.09-.51.17-.77.23-.16.05-.8.15-1.25-.07-.36-.17-.6-.4-.8-.65-.03.5-.1 1.06-.2 1.69-.37 2.61-1.12 7.54-.31 12.52.42 2.47 1.24 4.9 2.37 6.94 1.2 1.98 2.58 3.62 3.84 4.7 2.28 2.15 4.88 3.34 7.19 4.44 1.19.49 2.37.87 3.48 1.28 1.15.3 2.26.59 3.34.87 4.38.91 8.45 1.13 13 .9 6.26-.33 11.46-1.66 15.94-3.33 2.26-.82 4.27-1.87 6.18-2.96 1.85-1.21 3.49-2.45 4.94-4.09 2.95-3.12 5.58-6.69 6.88-11.26.63-2.28.87-4.78.65-7.48-.17-2.37-.75-4.85-1.17-7.68z"/><path d="m4.49 24.63-.03-.03-.03-.58a.68.68 0 0 0 .36-.15c.15-.15.29-.4.44-.59.15-.2.37-1.14.35-2.43-.05-1.12-.18-2.32.06-3.49.3-1.3.91-3.17 1.37-4.38.2-.63.43-1.09.69-1.52.27-.43.48-.89.84-1.43L9.17 9c.25-.39.56-.73.84-1.1.28-.37.57-.73.91-1.04 1.72-1.83 3.77-3.25 6.2-3.97.72-.19 1.41-.36 2.11-.51.7-.11 1.4-.24 2.12-.39 5.01-.79 8.41-.25 11.47.81 2.98 1.2 5.89 2.95 8.5 6.98.46.69.82 1.39 1.18 2.09.37.73.74 1.46 1.14 2.23.34.59.71 1.2 1.12 1.84-.04 0-.1 0-.14.01-.05 0-.09.01-.14.01h-.06c-.06.01-.13.02-.18.04-.81.31-1.63.55-2.18 1.32-.21.31-.61.64-.78.98-.34.69-.59 1.24-.62 2.08-.01.57.29 1.25.75 1.72.23.27.69.42 1 .49.29.08.54.19.84.15.96-.15 1.78-.88 2.88-1.72.27-.21.27-.19.46-.26.16-.05.37-.08.61-.09.4-.04.84.4 1.62.18.08-.02.14-.07.2-.12.76.59 1.64 1.16 2.58 1.6 1.28.63 2.62.96 3.67 1.13-.43.41-.84.82-1.01.99-.41.1-.85.23-1.34.39-1.11.31-3.11 1.58-3.76 2.13-.31.24-.28.62-.11.92.01.01.02.03.03.05.12.18.3.33.49.38.17.04.35.02.52-.11.94-.72 1.98-1.28 3.05-1.7 1.62-.67 3.82-.77 5.1-.49 1.15.21 2.12.76 3.32.94.47.07 1.06.37 1.51.51.92.29 1.59.59 2.39 1.06.26.16.53.33.74.52.21.17.23.26.2.29l-.07.07-.15.16c-.08.08-.15.17-.26.21-.19.1-.42.07-.67.15-.81.28-2.17.6-4.22.9-.85.12-1.86.36-2.69.65-.67.22-1.45.13-2.1.44-.47.23-.52.8-.32 1.31.11.26.26.51.5.69.21.15.7.27 1.15-.05.39-.27.72-.77 1.2-.92.52-.18 1.32-.31 1.83-.51.44-.17.74-.13 1.15-.17-.31.17-.63.35-.93.51-1.37.74-3.29 1.85-4.89 2.77-.46-.25-.87-.47-1.21-.66-1.85-1.03-3.21-1.89-5.05-2.88-.43-.23-.86-.46-1.54-.83h-.01c-.36-.19-.8-.1-1.05.21-1.61 1.97-3.5 4.28-5.81 7.11-1.94-1.08-4.1-2.28-6.53-3.64-.19-.1-.4-.12-.59-.07-2.55.75-5.38 1.59-8.46 2.5-.66.19-1.35.39-2.08.61-1.95-4.01-4.11-8.47-6-12.35a.873.873 0 0 0-1.11-.42c-.03.01-.06.03-.09.04-1.77.76-3.55 1.45-5.33 2.15l-.35.14c0-.16-.09-.36-.22-.55 0-.01-.01-.01-.01-.02-.25-.34-.63-.6-.91-.35l-.01.01c-.64.61-1.22 1.33-1.66 2.08-.35.58-.61 1.17-.93 1.72-.35.67-.55 1.16-.74 1.5-.35.6-.81.74-1.29 1.18-.19.19-.57.22-.82.31s-.19.08-.31.06c-.05-.03-.09-.1-.15-.14-.05-.09-.1-.18-.15-.28-.13-.3-.27-.72-.2-1.11.05-.2-.03-.51.01-.71.03-.2.14-.34.14-.53.01-.59-.1-1.47.33-2.63.17-.47.37-1.04.54-1.5.13-.39.63-.56.78-.88.1-.2-.2-.65-.63-.99zm67.19 2.33c-.19-.12-.28-.32-.5-.47-.22-.15-.63-.31-.86-.48-.44-.33-1.05-.53-1.57-.75-.78-.32-1.38-.58-2.2-.85-.41-.14-.88-.42-1.28-.5-1.02-.18-1.77-.67-2.77-.82-1.13-.21-3-.27-4.29.31-.46.18-.89.43-1.3.72.27.01.53.01.81.04 1.13.15 1.98.43 2.74.64.76.23 1.44.45 2.12.68.68.24 1.37.5 2.14.84.77.38 1.61.69 2.65 1.61.21.22.44.48.57.92.28.01.59.01.87-.1.63-.26 1.41-.59 2.07-.84.48-.18.89-.37 1.27-.54-.02-.02-.02-.03-.04-.06-.09-.11-.27-.23-.43-.35zm-23.75-9.13c-1.09-.32-1.83-.21-2.71-.21-.21.01-.38.01-.52.02-.86.34-1.42.76-1.84 1.27-.22.26-.39.56-.51.89-.11.31-.14.7-.04.86.04.08.03.23.26.34.32.15.79-.04 1.33-.33.2-.11.4-.22.6-.36l.25-.19c.28-.23.44-.22.86-.6.42-.37 1.18-.39 1.57-.39.36-.01 1.16-.04 1.47-.3.11-.18.18-.44.06-.54-.08-.17-.5-.38-.78-.46z" style="fill:#deba9d"/><path class="st2" d="M73.67 26.67a2.63 2.63 0 0 0-.64-.82c-.46-.39-.91-.62-1.35-.88-.5-.28-.93-.59-1.43-.8-1.7-.71-2.84-1.19-3.96-1.65-1.17-.47-2.33-.94-4.21-1.22-1.31-.14-2.39-.13-4.18.47-.22.07-.5.2-.78.34a6.53 6.53 0 0 0-.57-.08c-2.36-.15-4.61-1.1-6.48-2.57.25-.47.44-1.22.08-1.9-.38-.7-.94-.98-1.41-1.19-.64-.26-1.32-.38-1.96-.44-.68-.96-1.29-2-1.83-3.05a95.42 95.42 0 0 0-1.62-3.19c-.61-.99-1.19-1.88-1.79-2.57-2-2.46-4.14-4.38-7.11-5.47-.56-.21-1.23-.49-1.93-.69-.68-.25-1.38-.43-1.98-.52C28.09.05 26.21-.1 23.77.1c-.81.03-1.66.21-2.52.31-.85.15-1.69.33-2.49.43-.8.19-2.07.51-2.87.81-.75.31-1.44.35-2.14.8-2.24 1.24-4.99 3.7-7.33 8.19-.98 1.85-1.82 4.23-2.26 6.29-.34 1.67-.96 3.29-.94 5.1-.01.47.13.94.28 1.27.16.36.47.67.68.72.09.01.17 0 .25-.01a.68.68 0 0 0 .36-.15c.15-.15.29-.4.44-.59.15-.2.37-1.14.35-2.43-.05-1.12-.18-2.32.06-3.49.3-1.3.91-3.17 1.37-4.38.2-.63.43-1.09.69-1.52.27-.43.48-.89.84-1.43L9.17 9c.25-.39.56-.73.84-1.1.28-.37.57-.73.91-1.04 1.72-1.83 3.77-3.25 6.2-3.97.72-.19 1.41-.36 2.11-.51.7-.11 1.4-.24 2.12-.39 5.01-.79 8.41-.25 11.47.81 2.98 1.2 5.89 2.95 8.5 6.98.46.69.82 1.39 1.18 2.09.37.73.74 1.46 1.14 2.23.34.59.71 1.2 1.12 1.84-.04 0-.1 0-.14.01-.05 0-.09.01-.14.01h-.06c-.06.01-.13.02-.18.04-.81.31-1.63.55-2.18 1.32-.21.31-.61.64-.78.98-.34.69-.59 1.24-.62 2.08-.01.57.29 1.25.75 1.72.23.27.69.42 1 .49.29.08.54.19.84.15.96-.15 1.78-.88 2.88-1.72.27-.21.27-.19.46-.26.16-.05.37-.08.61-.09.4-.04.84.4 1.62.18.08-.02.14-.07.2-.12.76.59 1.64 1.16 2.58 1.6 1.28.63 2.62.96 3.67 1.13-.43.41-.84.82-1.01.99-.41.1-.85.23-1.34.39-1.11.31-3.11 1.58-3.76 2.13-.31.24-.28.62-.11.92.01.01.02.03.03.05.12.18.3.33.49.38.17.04.35.02.52-.11.94-.72 1.98-1.28 3.05-1.7 1.62-.67 3.82-.77 5.1-.49 1.15.21 2.12.76 3.32.94.47.07 1.06.37 1.51.51.92.29 1.59.59 2.39 1.06.26.16.53.33.74.52.21.17.23.26.2.29l-.07.07-.15.16c-.08.08-.15.17-.26.21-.19.1-.42.07-.67.15-.81.28-2.17.6-4.22.9-.85.12-1.86.36-2.69.65-.67.22-1.45.13-2.1.44-.47.23-.52.8-.32 1.31.11.26.26.51.5.69.21.15.7.27 1.15-.05.39-.27.72-.77 1.2-.92.52-.18 1.32-.31 1.83-.51.44-.17.74-.13 1.15-.17-.31.17-.63.35-.93.51-1.37.74-3.29 1.85-4.89 2.77-.46-.25-.87-.47-1.21-.66-1.85-1.03-3.21-1.89-5.05-2.88-.43-.23-.86-.46-1.54-.83h-.01c-.36-.19-.8-.1-1.05.21-1.61 1.97-3.5 4.28-5.81 7.11-1.94-1.08-4.1-2.28-6.53-3.64-.19-.1-.4-.12-.59-.07-2.55.75-5.38 1.59-8.46 2.5-.66.19-1.35.39-2.08.61-1.95-4.01-4.11-8.47-6-12.35a.873.873 0 0 0-1.11-.42c-.03.01-.06.03-.09.04-1.77.76-3.55 1.45-5.33 2.15l-.35.14c0-.16-.09-.36-.22-.55 0-.01-.01-.01-.01-.02-.25-.34-.63-.6-.91-.35l-.01.01c-.64.61-1.22 1.33-1.66 2.08-.35.58-.61 1.17-.93 1.72-.35.67-.55 1.16-.74 1.5-.35.6-.81.74-1.29 1.18-.19.19-.57.22-.82.31s-.19.08-.31.06c-.05-.03-.09-.1-.15-.14-.05-.09-.1-.18-.15-.28-.13-.3-.27-.72-.2-1.11.05-.2-.03-.51.01-.71.03-.2.14-.34.14-.53.01-.59-.1-1.47.33-2.63.17-.47.37-1.04.54-1.5.13-.39.63-.56.78-.88.1-.21-.2-.65-.63-1l-.03-.03c-.21-.17-.45-.31-.7-.37-.22-.06-.69.05-.78.5-.06.39.07.84-.04 1.16-.15.36-.4.87-.45 1.25-.03.38-.24.53-.33.9l-.08.34c-.07.26-.14.52-.19.79-.09.4-.12.8-.13 1.21-.1.46-.08.82-.02 1.09 0 .11-.01.22-.01.32-.31.49-.66 1.74-1.01 3.91C.11 39.73-.3 43.9.28 48.07c.24 2.08.83 4.13 1.62 6.1.89 1.92 1.95 3.8 3.4 5.36 1.01 1.26 2.32 2.27 3.62 3.33 1.41.9 2.83 1.87 4.4 2.54 1.51.81 3.15 1.34 4.77 1.93.81.29 1.65.45 2.47.68.82.22 1.65.44 2.48.56 6.64 1.25 13.07.93 17.74.14 4.11-.64 7.85-1.63 11.44-3.01 3.55-1.42 7.08-3.16 10.07-6.14 2.2-2.21 5.12-5.64 6.53-8.52 1.5-2.92 2.29-5.77 2.54-8.66.26-2.89-.13-5.79-.7-8.94-.21-1.15-.43-2.33-.58-3.52.31-.12.61-.24.83-.39.41-.27.71-.23 1.15-.43l.41-.18c.27-.11.54-.21.81-.32h.01a.72.72 0 0 0 .42-.45l.08-.24c.11-.36.05-.87-.12-1.24zm-25.01-7.85c-.3.26-1.11.28-1.47.3-.39 0-1.15.03-1.57.39-.42.37-.58.37-.86.6-.08.07-.16.14-.25.19-.2.14-.4.25-.6.36-.54.29-1.01.49-1.33.33-.23-.11-.22-.26-.26-.34-.1-.16-.08-.55.04-.86.12-.32.28-.63.51-.89.42-.51.98-.93 1.84-1.27.14 0 .31-.01.52-.02.88.01 1.62-.11 2.71.21.28.08.7.29.79.45.11.11.04.37-.07.55zm20.45 27.12c-1.3 4.57-3.93 8.14-6.88 11.26-1.45 1.65-3.09 2.89-4.94 4.09-1.91 1.09-3.92 2.14-6.18 2.96-4.48 1.67-9.68 3.01-15.94 3.33-4.56.23-8.62 0-13-.9-1.08-.28-2.19-.57-3.34-.87-1.11-.41-2.29-.79-3.48-1.28-2.31-1.1-4.91-2.29-7.19-4.44-1.26-1.08-2.64-2.71-3.84-4.7-1.13-2.03-1.95-4.46-2.37-6.94-.81-4.98-.05-9.91.31-12.52.1-.63.16-1.19.2-1.69.2.25.44.48.8.65.46.21 1.1.11 1.26.06.26-.05.52-.14.77-.23.99-.36 2.03-1.14 2.7-2.46.24-.44.37-.83.54-1.17.07-.14.14-.28.21-.43 2.52-1.3 5.07-2.68 7.77-3.86 1.56 3.2 3.6 7.53 5.1 10.45.36.72.67 1.36.96 1.93.14.29.48.42.77.34 2.3-.65 4.02-1.14 6.75-1.92l3.21-.96.96-.28c1.75 1 3.51 2 5.28 3.01.5.29 1 .57 1.5.85.36.2.81.11 1.06-.2 1.95-2.35 3.89-4.69 5.84-7.03 2.52 1.36 5.05 2.73 7.61 4.11.27.15.59.13.84-.01l.25-.14c3.25-1.82 6.29-3.53 9.51-5.33.25-.09.52-.18.79-.27.2-.07.4-.14.59-.21.19.02.38.01.57-.08.15-.07.28-.16.4-.26l.1-.03c.42 2.84 1 5.32 1.17 7.69.21 2.7-.04 5.2-.66 7.48zm1.77-18.03c-.67.25-1.44.59-2.07.84-.28.12-.59.12-.87.1-.14-.44-.37-.7-.57-.92-1.04-.92-1.88-1.23-2.65-1.61-.77-.34-1.45-.6-2.14-.84-.68-.24-1.36-.46-2.12-.68-.76-.21-1.61-.5-2.74-.64-.28-.03-.54-.03-.81-.04.41-.29.85-.54 1.3-.72 1.29-.57 3.16-.52 4.29-.31 1 .15 1.75.64 2.77.82.39.08.87.36 1.28.5.82.27 1.42.53 2.2.85.52.21 1.13.41 1.57.75.23.17.64.33.86.48.22.15.31.35.5.47.16.11.34.24.42.35.02.03.03.04.04.06-.36.17-.77.36-1.26.54z"/><path class="st2" d="M33.75 10.32c-.18-.22-.42-.31-.57-.36-.99-.36-2.5-.39-3.57.32-.73.48-1.74 1.14-1.93 2.24-.04.23-.07.54.05.85.08.2.23.39.43.55.3.24.62.33.94.33.6 0 1.19-.33 1.63-.57.12-.07.24-.13.34-.18.14-.07.28-.12.41-.18l.03-.01c.32-.13.63-.26.94-.46.09-.06.2-.12.3-.17.49-.27 1.23-.68 1.23-1.57 0-.17 0-.51-.23-.79z"/><path class="st0" d="M32.2 11.67c.47-.26.63-.38.63-.56-.37-.16-.82-.25-1.26-.25-.46 0-.91.1-1.23.31-.73.48-1.43.94-1.54 1.55-.03.17-.02.22-.01.23.33.28.8.05 1.38-.27.14-.08.27-.15.39-.21.16-.07.31-.14.46-.2l.03-.01h.01c.26-.1.51-.21.76-.37.12-.08.25-.15.38-.22z"/><path class="st2" d="M19.85 15.49c-.84.11-.92-.86-.67-1.43.2-.47.48-.91.83-1.29.08-.09.16-.17.24-.25.33-.31.73-.59 1.18-.66.45-.07.96.11 1.18.51.45.83-.59 1.73-1.03 2.3-.09.12-.19.25-.3.35-.38.33-.96.41-1.43.47zM33.86 7.4c.14-.03.28-.07.42-.11.35-.11.71-.26.95-.54s.33-.72.12-1.02c-.24-.33-.71-.36-1.12-.36-1.04 0-1.72.31-2.51.97-.05.04-.11.09-.14.15-.03.07-.03.14-.03.21.02.51.27.86.77.85.53.01 1.04-.04 1.54-.15z"/></svg>