<svg version="1.1" id="Layer_1" xmlns="http://www.w3.org/2000/svg" x="0" y="0" viewBox="0 0 141.25 141.25" style="enable-background:new 0 0 141.25 141.25" xml:space="preserve"><style>.st0{fill:#deba9d}.st1{fill:#fff}.st2{fill:#2a3768}</style><path class="st0" d="M141.25 70.63c0 39.01-31.62 70.63-70.63 70.63C31.62 141.25 0 109.63 0 70.63 0 31.62 31.62 0 70.63 0c39 0 70.62 31.62 70.62 70.63"/><path class="st1" d="M52.31 96.21c-.31-.68-.67-1.34-.94-2.03-.24-.71-.48-1.42-.73-2.14-.47-1.43-1.04-2.86-1.29-4.39-.3-1.52-.71-3.05-.93-4.65-.15-1.6-.31-3.24-.48-4.94-.33-6.71-.3-14.25 1.01-23.22.88-5.18 2.18-9.94 4.22-14.84 1.77-4.28 4.19-8.34 7.54-11.62 1.57-1.56 3.38-2.9 5.36-3.95-3.3.62-7.48 1.77-11.54 3.61-5.9 2.65-11.29 6.78-14.18 9.96-5.67 5.78-8.54 11.55-10.53 16.85-.26.66-.51 1.32-.76 1.97-.25.65-.38 1.33-.58 1.99-.36 1.33-.72 2.64-1.08 3.95-.27 1.33-.47 2.69-.72 4.06-.24 1.37-.51 2.76-.58 4.22-.14 2.08-.4 4.1-.43 6.01l.03 2.8c.09.91.18 1.8.27 2.68.51 3.49 1.52 6.63 2.87 9.43 2.8 5.57 6.83 9.7 11.41 13.03 4.62 3.32 9.84 5.92 16.04 8.04a81.91 81.91 0 0 0 17.98 3.93c-4.19-1.62-7.76-3.85-10.77-6.25-5.13-4.15-8.7-9.09-11.19-14.5"/><path class="st1" d="M117.89 61.74c-.73-.62-1.83-2.63-2.95-5.67-1.99-5.19-3.95-10.39-7.09-15.02-3.74-5.71-9.77-11.51-16.02-14.08-3.7-1.66-7.4-2.52-10.84-2.91-.86-.1-1.72-.12-2.55-.18-.83-.06-1.65-.11-2.42-.03-.78.05-1.54.09-2.29.13-.73.16-1.44.31-2.14.46-.35.08-.69.15-1.03.23-.32.13-.64.26-.96.38-.63.25-1.25.49-1.85.73-.56.33-1.11.65-1.65.97-.52.33-1.08.58-1.52 1-1.9 1.44-3.39 3.04-4.65 4.6-.73 1.06-1.51 1.91-2.1 2.9-.58.99-1.25 1.95-1.84 3.13-1.19 2.43-2.73 6.51-3.4 9.14-1.53 5.08-2.4 11.15-2.67 16.53-.25 4.04-.28 7.61-.16 11.18-.02 1.79.21 3.54.39 5.36.1.91.17 1.83.3 2.77.21.92.42 1.87.64 2.84.66 3.82 2.71 8.95 4.63 12.25 2.59 4.27 5.73 7.76 9.3 10.75 3.59 2.95 7.76 5.36 12.62 6.78 2.79.71 6.12 1.42 9.75 1.28.89-.1 1.8-.2 2.73-.31.89-.21 1.78-.46 2.7-.72 1.8-.79 3.72-1.45 5.47-2.52 1.84-.9 3.5-2.15 5.22-3.32 1.58-1.35 3.22-2.64 4.59-4.18 2.84-2.98 5.2-6.33 6.83-9.75 4.51-9.01 5.67-19.6 3.6-29.52-.67-2.92-.85-4.6-.64-5.2m-11.03 17.58c-.77 3.65-2.65 7.12-4.2 9.08-.68.95-1.48 1.73-2.19 2.5-.8.68-1.5 1.4-2.29 1.93-.38.28-.76.56-1.13.83-.39.23-.77.47-1.14.69-.73.48-1.51.82-2.24 1.19-2.87 1.38-6.14 2.33-9.55 1.5-2.46-.52-4.49-1.67-6.15-2.95-.41-.34-.8-.66-1.19-.99-.35-.36-.7-.71-1.04-1.06-.72-.67-1.23-1.47-1.82-2.17-2.17-2.95-3.53-5.92-4.72-8.93-.28-.76-.56-1.53-.84-2.3-.25-.78-.47-1.58-.71-2.38-.5-1.58-.93-3.37-1.15-5.23-.44-3.74-.42-7.98.7-12.91.69-2.85 1.72-5.42 3.29-7.96 1.37-2.21 3.17-4.27 5.58-5.53a11.08 11.08 0 0 1 3.85-1.2l1.01-.07 1.01.03c.66.04 1.26.13 1.89.19 1.83.21 3.64.55 5.43 1 .77.23 1.55.4 2.31.69.62.23 1.16.42 1.66.64.48.24.93.47 1.38.7.45.21.87.5 1.33.77.46.28.97.55 1.51.94.53.37 1.15.76 1.71 1.31.58.51 1.18 1.07 1.69 1.71l.79.93c.23.33.45.66.67.98.22.32.43.63.64.93.18.32.35.62.51.91 1.2 2.03 2.34 4.06 3.15 6.21.87 2.52.79 4.6.63 5.23-.14.54-.34.86-.58 1.01.37.37.73 1.29.87 2.72.11 1.86.16 5.43-.67 9.06"/><path class="st0" d="M104.46 64.27c-.68-2.89-1.23-5.83-2.71-8.42-1.73-3.21-4.96-6.24-8.24-7.75-1.95-.99-3.91-1.56-5.76-1.95-1.84-.42-3.58-.59-5.17-.73-3.09-.35-5.37.71-6.99 1.97-1.03.82-1.86 1.5-2.71 2.61-.89 1.13-1.91 3.23-2.48 4.57-1.18 2.6-1.83 5.87-2.08 8.76-.19 2.17-.19 4.1-.04 6.01.16 1.92.47 3.78 1.15 5.85.6 2.03 1.46 4.92 2.41 6.79 1.14 2.49 2.44 4.66 3.88 6.71 1.46 2.02 3.24 3.89 5.59 5.11 1.33.7 3.01 1.27 4.88 1.38.93.08 1.91-.02 2.89-.2.49-.12.96-.24 1.47-.42.51-.2 1.01-.39 1.53-.59 2.02-.87 3.98-2 5.69-3.38 1.72-1.37 3.12-3.04 4.23-4.72 2.95-4.5 4.01-10.09 3.65-15.54-.16-1.63.05-2.57.38-2.89-.6-.32-1.22-1.45-1.57-3.17"/><path class="st2" d="M120.38 66.59c-.56-2.52-1.29-4.13-1.81-4.78.18-.26.25-.85.19-1.81-.05-.56-.27-1.73-.69-3.31-.49-1.56-1.13-3.57-2.17-5.71-1.71-3.73-4.05-7.18-6.35-10.72-1.32-1.96-3.04-4.34-5.07-6.45l-1.51-1.57c-.54-.47-1.08-.94-1.6-1.4-1.01-.95-2.13-1.65-3.08-2.32-.95-.71-1.9-1.15-2.73-1.67-.82-.52-1.64-.91-2.46-1.29-1.61-.83-3.31-1.47-5.59-2.14-1.43-.32-2.83-.75-4.28-.91-.83-.12-1.66-.26-2.49-.36l-2.51-.17-1.26-.08-1.29.06c-.56.04-1.12.06-1.68.09-.42-.07-.9-.13-1.52-.16-.42-.02-.88-.03-1.37-.02-.45.03-.89.08-1.39.14-10.49 1.03-20.64 5.41-28.57 12.42-.71.69-1.44 1.4-2.18 2.11-.36.36-.75.71-1.1 1.09l-1 1.2c-.67.81-1.35 1.63-2.04 2.45-.64.86-1.2 1.78-1.81 2.68-2.45 3.58-4.25 7.64-5.73 11.65-2.88 8.11-3.54 16.21-3.69 22.26.04 5.35 1.08 10.35 3.22 14.84 2.17 4.47 5.33 8.41 9.36 11.72 3.07 2.57 7.87 5.63 11.51 7.28 3.73 1.73 7.14 2.96 10.6 4.01 3.46 1.04 6.98 1.89 11.03 2.56 4.57.73 9.7 1.19 14.49 1 .09.01.17.03.26.04.76.04 1.52.03 2.27.05l1.11.01c.37-.02.74-.08 1.11-.11.73-.09 1.46-.15 2.18-.27.71-.19 1.42-.38 2.13-.58 1.39-.42 2.63-1.07 3.97-1.6 1.31-.57 2.54-1.35 3.85-2.04 5.09-3.02 10.16-7.47 14.56-14.66 2.3-3.82 5.07-10.36 5.8-17.05.85-6.66.05-13.12-.67-16.48m-64.09 46.45c-6.19-2.12-11.42-4.72-16.04-8.04-4.58-3.33-8.61-7.46-11.41-13.03-1.35-2.8-2.36-5.94-2.87-9.43-.09-.88-.18-1.77-.27-2.68l-.03-2.81c.03-1.91.29-3.92.43-6 .07-1.46.34-2.85.58-4.22.25-1.37.45-2.72.72-4.06.36-1.32.72-2.62 1.08-3.95.19-.66.33-1.34.57-1.99.25-.65.5-1.31.76-1.97 1.99-5.3 4.86-11.07 10.53-16.85 2.89-3.18 8.28-7.31 14.18-9.96 4.06-1.84 8.23-2.99 11.54-3.62a22.67 22.67 0 0 0-5.35 3.95c-3.34 3.28-5.77 7.34-7.54 11.62-2.04 4.9-3.34 9.66-4.22 14.84-1.32 8.98-1.34 16.51-1.02 23.22.16 1.69.32 3.33.48 4.94.22 1.6.63 3.13.93 4.65.25 1.53.82 2.96 1.29 4.39.24.72.49 1.43.73 2.14.27.7.63 1.36.94 2.04 2.49 5.41 6.06 10.35 11.19 14.52 3.01 2.4 6.58 4.63 10.77 6.25-6.9-.74-12.81-2.2-17.97-3.95m58.63-16.56c-1.63 3.42-4 6.77-6.83 9.75-1.37 1.55-3.01 2.84-4.59 4.18-1.72 1.16-3.38 2.42-5.22 3.32-1.75 1.07-3.67 1.73-5.47 2.52-.91.26-1.8.51-2.7.72-.92.1-1.83.21-2.72.31-3.63.14-6.96-.57-9.75-1.28-4.87-1.42-9.03-3.83-12.62-6.79-3.57-2.99-6.71-6.48-9.3-10.75-1.92-3.3-3.97-8.42-4.63-12.25-.22-.97-.43-1.92-.64-2.84-.13-.94-.2-1.86-.3-2.77-.18-1.82-.41-3.57-.39-5.36-.12-3.57-.08-7.14.16-11.18.26-5.38 1.14-11.45 2.67-16.53.67-2.63 2.21-6.72 3.4-9.14.59-1.18 1.25-2.14 1.84-3.13.6-.99 1.37-1.83 2.1-2.9 1.25-1.55 2.74-3.15 4.65-4.6.44-.42 1-.67 1.52-1 .54-.32 1.08-.64 1.64-.97.6-.24 1.22-.48 1.86-.73.32-.13.64-.25.96-.38.34-.07.68-.15 1.03-.23.7-.15 1.41-.3 2.14-.46.75-.04 1.51-.09 2.29-.13.77-.08 1.59-.03 2.42.03.83.06 1.68.07 2.55.17 3.45.39 7.14 1.25 10.84 2.91 6.25 2.57 12.28 8.37 16.02 14.08 3.14 4.63 5.1 9.84 7.09 15.02 1.12 3.04 2.22 5.05 2.95 5.67-.2.6-.03 2.28.64 5.22 2.07 9.91.9 20.5-3.61 29.52"/><path class="st2" d="M106.65 67.51c.23-.14.43-.47.58-1.01.16-.62.23-2.7-.63-5.23-.81-2.16-1.95-4.18-3.15-6.21-.16-.29-.33-.59-.51-.91-.21-.3-.42-.61-.64-.93-.22-.32-.45-.65-.67-.98l-.79-.93c-.51-.64-1.11-1.19-1.69-1.71-.55-.55-1.18-.93-1.71-1.31-.53-.39-1.04-.66-1.51-.94-.47-.27-.88-.56-1.33-.77-.45-.23-.9-.45-1.38-.7-.49-.21-1.04-.41-1.66-.64-.76-.28-1.54-.45-2.31-.69-1.79-.44-3.6-.79-5.43-1-.63-.06-1.23-.15-1.89-.19l-1.01-.03-1.01.07c-1.35.16-2.66.57-3.85 1.2-2.41 1.26-4.21 3.32-5.58 5.53-1.57 2.54-2.6 5.12-3.29 7.96-1.11 4.93-1.14 9.17-.7 12.91.22 1.86.65 3.64 1.15 5.23.24.81.46 1.61.71 2.38.28.77.56 1.54.84 2.3 1.19 3.02 2.55 5.99 4.72 8.93.59.7 1.1 1.49 1.82 2.17.34.35.69.7 1.04 1.06.39.32.79.65 1.2.99 1.66 1.28 3.69 2.43 6.15 2.95 3.42.83 6.69-.12 9.56-1.5.73-.37 1.51-.71 2.24-1.19.37-.23.76-.46 1.14-.69.37-.27.74-.54 1.13-.82.79-.53 1.49-1.25 2.29-1.93.71-.77 1.51-1.55 2.19-2.5 1.54-1.95 3.43-5.43 4.19-9.08.83-3.63.78-7.2.65-9.09-.13-1.42-.49-2.33-.86-2.7m-1.02 2.84c.36 5.45-.7 11.04-3.65 15.54-1.11 1.67-2.51 3.34-4.23 4.71-1.71 1.38-3.67 2.52-5.69 3.38-.51.2-1.02.39-1.53.59-.5.17-.98.3-1.47.42-.98.18-1.96.28-2.89.2-1.87-.12-3.55-.68-4.88-1.38-2.35-1.22-4.12-3.09-5.59-5.11-1.43-2.06-2.73-4.23-3.88-6.71-.94-1.87-1.8-4.76-2.41-6.79-.68-2.07-.99-3.93-1.15-5.85-.15-1.91-.16-3.84.04-6.01.25-2.89.9-6.16 2.08-8.76.57-1.34 1.6-3.44 2.48-4.57.85-1.11 1.67-1.79 2.71-2.61 1.62-1.27 3.9-2.32 6.99-1.97 1.59.14 3.33.31 5.17.73 1.84.39 3.81.96 5.76 1.95 3.28 1.51 6.51 4.54 8.24 7.75 1.49 2.59 2.03 5.54 2.71 8.42.36 1.71.97 2.84 1.55 3.18-.31.32-.52 1.26-.36 2.89"/><path class="st2" d="M94.5 71.61c-.22-.81-1-1.28-1.53-1.43-.57-.17-1.06-.2-1.5-.19-1.5.07-2.44.42-3.39.74-.92.35-1.75.8-2.5 1.49-.27.25-.61.62-.83 1.08a2.602 2.602 0 0 0-.27 1.18c.02.26.06.6.26.81 1.07 1.01 2.03.74 2.71.6.32-.1.64-.22.94-.36.22-.1.44-.22.65-.35.07-.05.14-.1.21-.16.03-.03.07-.06.1-.09l.1-.1c.02-.02.04-.05.04-.08.01.04.04.07.07.1.04.03.1.05.15.07.17.05.36.06.54.06.27 0 .54-.02.8-.06.33-.05.66-.12.99-.21.2-.05.39-.12.59-.19.37-.13.96-.2 1.51-.83.27-.31.37-.75.41-1.01.06-.33.06-.69-.05-1.07"/><path class="st1" d="M91.96 73.3c.39-.2.73-.36.85-.5.11-.15.05-.09.08-.4-.02-.21-.07-.26-.1-.29-.03-.04-.13-.09-.24-.13-.23-.07-.97-.31-2.89.29-1.01.31-1.67.54-2.29.86-.3.16-.61.37-.86.61-.12.11-.22.25-.3.4-.04.07-.07.15-.09.23 0 .01-.01.02-.01.03.1.06.2.13.36.17.29.1.74.11 1.18.08.89-.09 1.81-.19 1.85.06 0 .02.01.03.01.03-.06-.29 1.2-.69 2.45-1.44"/><path class="st2" d="M101.64 64.55c.26.27.48.62.45 1-.03.38-.31.7-.65.88-.33.18-.71.24-1.09.3-.41.06-.8.11-1.18.12-.79.03-1.53-.08-2.33-.43-.35-.15-.71-.32-.99-.58-.29-.26-.5-.61-.53-.99-.13-1.98 3.28-1.63 4.42-1.35.72.17 1.4.52 1.9 1.05m-21.38 4.04c-1.03-.65-2.66-.36-3.6.3-.49.34-.9.77-1.31 1.2-.49.52-1.35 1.43-1.17 2.22.1.48.65.71 1.14.78 1.89.27 3.4-.77 4.76-1.92.17-.15.36-.28.51-.45.27-.31.4-.74.34-1.14-.06-.39-.28-.74-.6-.97-.04 0-.06-.01-.07-.02"/></svg>