<svg version="1.1" id="Layer_1" xmlns="http://www.w3.org/2000/svg" x="0" y="0" viewBox="0 0 160.1 106.16" style="enable-background:new 0 0 160.1 106.16" xml:space="preserve"><style>.st2{fill:#2a3768}</style><path d="M59.13 16.8c.06.06.13.11.18.17.58-.11 1.19-.22 1.81-.33.04.3.14.6.31.85.14.19.52.43.92.21.34-.19.65-.59 1.03-.66.42-.08 1.05-.12 1.45-.26.41-.14.65-.02 1.07-.09l.39-.05c.3-.03.6-.05.9-.08.82-.07 1.62-.22 2.45-.28.47-.02.92.04 1.39-.01 3.24-.28 4.31-.42 7.41-.4 1.08.01 1.91-.06 3.42.03.14.01.32.02.5.03-.06.23-.14.48-.19.69-.68 2.88-.98 5.16-1.19 8.08-.13 1.96-.21 4.21.3 6.27.09.26.19.56.33.88.19.29.34.64.6.92.25.29.5.57.8.76.28.23.56.39.81.51.98.51 1.77.75 2.79.86 1.59.14 3.39.01 5.56-.31 2-.32 4.32-.84 6.91-1.83 0 .04 0 .08.01.12.19 2.09 1.24 3.84 2.53 4.85.34.22.67.45 1 .64.33.15.66.31.98.45.67.25 1.34.44 2.05.52 1.41.16 2.88-.18 4.18-.96.36-.23.72-.49 1.07-.77-.03 1.27-.21 2.01-.22 3.37-.01.44 0 .88.01 1.33.03 1.02.1 2.06.34 3.11.31 1.4.99 2.97 2.44 3.89 1.3.81 2.82 1.16 4.33 1.19 1.73.01 3.31-.34 4.83-1.02 2.61-1.24 4.39-2.74 5.93-4.2 1.4-1.48 2.35-2.94 3.21-4.41.4.42.89.85 1.38 1.38.49.56 1.04 1.15 1.64 1.76l1.58 1.58c.48.57.96 1.14 1.44 1.72.48.58.98 1.16 1.43 1.77.4.64.8 1.3 1.18 1.97.95 1.45 1.66 3.46 2.48 5.4.42 1.52.9 3.02 1.19 4.38-4.94.03-8.94.78-11.9 1.66-.41.12-.65.56-.53.97s.56.65.97.53c2.9-.86 6.84-1.6 11.72-1.6.12.73.25 1.4.3 2.03.01.7.01 1.35.02 2-.02.65.05 1.3-.05 1.99-.08.7-.16 1.44-.25 2.29-.04 1.05-.36 2.06-.58 3.08-.02.08-.04.16-.05.23-3.55-.87-6.76-1.23-9.57-1.06a.782.782 0 0 0 .1 1.56c2.66-.17 5.71.18 9.1 1.01v.01l-.63 1.69-.63 1.69-.83 1.61c-.67 1.4-1.49 2.71-2.39 3.95-2.05-.57-4.33-1.01-6.9-1.21-.42-.02-.8.29-.84.72-.03.43.29.81.72.84 2.22.17 4.21.52 6.01.99-.74.93-1.51 1.85-2.31 2.73l-1.8 1.69-.91.84-1 .74-2 1.48c-.68.48-1.42.87-2.13 1.31-3.33 1.88-6.66 3.2-10.3 4.44-6.3 2.09-11.77 3.13-16.67 3.9-4.91.74-9.29 1.14-13.64 1.34-8.69.4-17.26.1-29.81-1.94-4.36-.73-8.19-1.5-12.4-2.55-4.19-1.08-8.8-2.41-14.39-4.92-.44-.2-.93-.43-1.43-.68.92-.46 1.66-.76 2.1-.85.42-.09.69-.5.61-.92a.796.796 0 0 0-.92-.61c-.76.16-2.03.7-3.51 1.5-2.55-1.35-5.47-3.16-7.95-5.39a27.77 27.77 0 0 1-2.45-2.54c1.48-.54 3.17-.99 5.13-1.2.43-.05.74-.43.69-.86a.79.79 0 0 0-.86-.69c-2.31.25-4.29.8-5.99 1.47-.34-.46-.67-.92-.96-1.38-1.11-1.74-1.8-3.39-2.2-4.56-.34-1.06-.62-1.92-.86-2.55.07-.05.14-.11.2-.18.21-.24.48-1 .31-1.97-.03-.15-.06-.31-.09-.47 2.7-.33 5.85-.38 9.57.05.41.05.81-.26.86-.69a.777.777 0 0 0-.69-.86c-3.9-.45-7.2-.39-10.04-.04-.02-.19-.04-.38-.04-.58.04-.98.23-2.42.27-3.38.06-.98.28-1.47.43-2.44l.17-.89c.15-.68.27-1.36.45-2.03.46-1.85.88-3.68 1.5-5.5.37-1.03.76-1.98 1.16-2.99 1.32-3.53 2.37-5.82 3.5-8 1.13-2.19 2.32-4.3 4.42-7.21.71-1.03 1.41-1.88 2.14-2.87.77-.99 1.59-2.05 2.79-3.29.64-.66 1.66-1.66 2.73-2.53 1.06-.88 2.16-1.6 2.77-1.96 1.21-.67.76-2.17-.77-1.31a28.454 28.454 0 0 0-4.98 3.79c-.01-.06-.01-.11-.02-.17-.15-.82-.54-1.66-.51-2.53-.01-.97.16-2.39.2-3.34.03-.97.26-1.45.43-2.4.05-.29.1-.59.17-.87.16-.66.31-1.33.52-1.99.52-1.8 1.05-3.58 1.84-5.29.45-.98.98-1.83 1.49-2.77.88-1.61 1.75-2.88 2.58-3.94.42-.51.83-.95 1.24-1.23.41-.28.81-.4 1.29-.41.98-.01 2.13.41 3.36.9 1.25.51 2.62 1.09 4.16 1.94 2.16 1.19 3.85 2.1 6.7 4.09 1.53 1.04 4.64 3.4 5.68 4.36.57.45 1.13.45 1.42.19zm49.07 1.63c-.1.2-.21.32-.32.37.03.03.07.04.1.08.12.2.2.47.24.79.46-.15.91-.29 1.28-.4.87-.26 1.72-.5 2.64-.74 1.11-.28 2.05-.18 2.37.25.11.15.2.36.2.49-.01.13-.08.21-.14.3.3-.04.7.12 1.06.61.42.64 1.11 1.95 1.37 3.43.11.54.14 1.09.15 1.62 1.03-.33 2.45-.76 3.94-1.13 1.95-.5 4.03-.86 5.39-.95 2.14-.18 3.96-.04 5.55.5-.03-1.45-.16-3.57-.31-4.71-.32-2.79-.76-4.28-1.26-6.22-.38-1.39-.77-2.52-1.19-3.51-.21-.5-.43-.93-.66-1.34-.26-.44-.51-.87-.77-1.24-.55-.81-1.01-1.25-1.85-1.29-.9-.03-2.12.26-3.55.72-.83.26-1.66.43-2.49.7-1.46.48-2.83 1.15-4.25 1.75-.52.23-1.03.46-1.55.68l-.66.32c-.71.36-1.15.41-1.81.86-.65.43-1.71.94-2.39 1.36-.58.35-.98.95-1.46 1.41.27 1.19.48 2.41.59 3.65.05.74-.04 1.29-.22 1.64z" style="fill:#fff"/><path d="M113.82 31.35c-.88 1.44-1.86 2.81-2.63 3.69-1.39 1.59-2.9 2.43-4.7 2.7-.72.11-1.74-.21-2.45-.48-1.47-.58-2.42-1.36-2.98-2.84-.39-.96-.57-2.2-.4-3.28.06-.54.17-1.44.3-1.98.14-.53.34-.91.5-1.42.23-.77.54-1.83 1.04-2.77.55-.91 1.66-1.83 3.17-2.58 1.25-.63 2.84-1.25 4.2-1.66 1.1-.33 2.32-.25 3.29-.31.31-.01.66-.22.95-.43-.09.27-.04.63.25 1.02 1.09 1.66 1.41 3.71 1.11 5.7-.22 1.51-.82 3.21-1.65 4.64zm18.68-5.68c-1.82-1.12-4.55-1.08-6.76-.82-2.91.33-5.81 1.11-8.65 2.01-.03.27-.07.53-.12.75-.12.52-.24 1-.38 1.45.52.12 1.06.28 1.39.43 1.16.5 1.83.79 2.58 1.41 1.06.88 1.63 1.96 1.65 3.1.01.57-.14 1.13-.4 1.67-.12.28-.36.56-.57.86-.31.26-.64.58-1.12.72-.54.2-1.07.09-1.52-.01-.81-.18-1.51-.44-2.09-.85-.22-.14-.41-.31-.62-.47l-.26-.2c-.28-.22-.33-.45-.64-.62-.31-.16-.65-.57-.9-.8-.03-.03-.07-.04-.11-.06-.18.25-.36.49-.54.75-.31.4-.61.77-.93 1.12v.01c-.08 1.15-.16 2.29-.23 3.33-.17 2.48-.05 4.56.44 6.14.29.75.59 1.43 1.04 1.83.18.26.46.34.65.53.25.14.53.27.78.38.66.25 1.17.51 1.91.61.75.12 1.99-.03 2.75-.18 1.52-.23 3.14-1.09 4.45-1.98.99-.67 1.82-1.32 2.6-2.04.78-.68 1.42-1.49 2.1-2.48.65-.95 1.57-2.32 2.03-3.39 1.19-2.76 2.41-5.14 2.91-8.11.18-1.63.46-4.14-1.44-5.09zm-30.43-2.61c-.28-.52-.64-1.12-.92-1.42-.72-.91-1.29-1.22-1.98-1.52-1.01-.41-1.78-.27-2.45-.02-.64.25-1.41.77-1.6 1.54-.04.26-.19.51-.16.83.03.55.3 1.07.58 1.58.11.18.22.38.36.54l.19.21c.23.2.24.46.56.57.29.12.66.42.98.53.27.12.65-.13.93-.18.32-.07.5.26.54.49.05.23.05.49.03.73-.07.58-.33 1.09-.74 1.05-.52-.06-.9-.53-1.36-.71-.58-.21-1.22-.61-1.66-1.05-1.05-1.04-1.62-1.92-1.88-2.65-.09-.23 0-.46-.04-.7-.01-.25-.09-.66-.01-.92.14-.49.2-1.06.5-1.53.42-.67.86-1.02 1.45-1.48.29-.22.79-.35 1.11-.53.87-.47 1.79-.26 2.72-.06.27.06.59.15.9.31.33.14.65.34.95.57.62.45 1.14 1.05 1.52 1.6.27.38.5.78.71 1.19.2-.14.41-.28.62-.42.78-.49 1.31-.64 2.03-1 .27-.8.58-1.35.77-1.56.24-.25.47-.39.68-.43-.25-.29-.43-.86-.48-1.74-.07-1.16-.44-3.36-1.19-5.54-.72-2.19-1.8-4.32-2.65-5.57-.78-1.18-1.6-2.14-2.49-2.78-.42-.38-.9-.56-1.32-.82-.47-.13-.87-.35-1.37-.36-1.9-.37-3.65-.01-5.35.92-.32.13-.61.33-.88.54-.28.2-.55.4-.81.59-.48.45-.95.89-1.37 1.34-.39.49-.79.94-1.13 1.41-.33.49-.64.96-.95 1.43-1.14 1.92-1.94 3.78-2.64 5.7-1.32 3.84-2.28 8-2.3 14.22.07 1.73.26 3.37 1.41 4.3 1 .83 2.57 1.02 4.08 1.04 1.53.01 3.12-.14 4.67-.37 1.14-.18 2.27-.39 3.37-.7.48-.12.95-.29 1.42-.44.65-.24 1.17-.41 1.67-.59.05-.59.15-1.17.25-1.76.18-1 .44-1.96.75-2.91.05-.14.1-.27.15-.4.29-.8.58-1.59 1.2-2.4.19-.25.41-.46.63-.67zm13.04 10.18c.36.31.78.7 1.13 1.03.83.81 1.6 1.01 2.05 1.17.15.04.23.2.38.26.14.03.4.08.53.09.14.05.3.06.42-.01.14-.03.25-.13.35-.22.31-.26.48-.63.56-1.08 0-.11.03-.23.05-.35a.697.697 0 0 0-.05-.33c-.27-.43-.3-.89-.77-1.33-.5-.48-1.61-1.16-2.59-1.54-.36-.15-.74-.27-1.11-.38-.36.88-.75 1.63-1.19 2.33.07.13.14.26.24.36z" style="fill:#b94d3b"/><path class="st2" d="M159.53 62.99c-5.2-1.43-9.85-2.03-13.91-2.13-.02-.1-.03-.2-.04-.3-.08-.73-.36-1.42-.53-2.13-.2-.71-.4-1.42-.6-2.12-.22-.7-.54-1.35-.81-2.02l-.83-1.96c-.28-.64-.67-1.21-.99-1.8a42.89 42.89 0 0 0-7.67-10.44c-.48-.42-.93-.79-1.35-1.11.53-1.06 1.03-2.16 1.49-3.38.67-1.88 1.41-3.98 1.47-6.76-.02-.97-.14-1.94-.63-2.85-.23-.46-.61-.88-.98-1.17-.18-.18-.39-.32-.6-.46.03-1.68-.01-3.37-.16-5.04-.23-2.74-.95-6.2-1.66-8.2-.3-.88-.54-1.7-.86-2.51-.3-.81-.75-1.63-1.3-2.33-.42-.54-.95-1.5-1.73-1.98-.78-.49-1.61-.55-2.28-.51-.69.05-1.34.16-2.04.34-.94.24-1.95.61-2.87.8-.47.09-1.2.38-1.66.53-.45.15-.83.17-1.26.35-1.35.56-3.1 1.51-5.75 2.75-1.09.51-2.37 1.21-3.41 1.86-.41.25-.85.43-1.3.62-.57-1.79-1.31-3.51-2.24-5.17-.74-1.25-1.64-2.56-2.86-3.69l-.99-.79c-.36-.23-.75-.44-1.13-.65-.4-.18-.83-.3-1.25-.45-.42-.1-.83-.13-1.24-.19-1.64-.28-3.29.09-4.69.57-.65.35-1.32.62-1.87 1-.52.4-1.06.74-1.47 1.13-2.88 2.73-4.67 5.61-5.88 9.16-.25.7-.55 1.55-.82 2.41l-.61-.05c-1.44-.12-3.3-.17-4.41-.11-.97.05-1.81-.16-2.75.1-.36.1-.88.05-1.25.11-.75.14-1.33.16-2.08.24-.5.04-1.07.14-1.58.09-.26-.03-.67.04-.93.05-.25 0-.46-.09-.7-.05-.77.1-1.8.4-3.35.52-.64.05-1.41.17-2.04.31-.51.11-1.09-.14-1.59 0-.35.09-.49.57-.43 1.08.04.3.14.6.31.85.14.19.52.43.92.21.34-.19.65-.59 1.03-.66.42-.08 1.05-.12 1.45-.26.41-.14.65-.02 1.07-.09l.39-.05c.3-.03.6-.05.9-.08.82-.07 1.62-.22 2.45-.28.47-.02.92.04 1.39-.01 3.24-.28 4.31-.42 7.41-.4 1.08.01 1.91-.06 3.42.03.14.01.32.02.5.03-.06.23-.14.48-.19.69-.68 2.88-.98 5.16-1.19 8.08-.13 1.96-.21 4.21.3 6.27.09.26.19.56.33.88.19.29.34.64.6.92.25.29.5.57.8.76.28.23.56.39.81.51.98.51 1.77.75 2.79.86 1.59.14 3.39.01 5.56-.31 2-.32 4.32-.84 6.91-1.83 0 .04 0 .08.01.12.19 2.09 1.24 3.84 2.53 4.85.34.22.67.45 1 .64.33.15.66.31.98.45.67.25 1.34.44 2.05.52 1.41.16 2.88-.18 4.18-.96.36-.23.72-.49 1.07-.77-.03 1.27-.21 2.01-.22 3.37-.01.44 0 .88.01 1.33.03 1.02.1 2.06.34 3.11.31 1.4.99 2.97 2.44 3.89 1.3.81 2.82 1.16 4.33 1.19 1.73.01 3.31-.34 4.83-1.02 2.61-1.24 4.39-2.74 5.93-4.2 1.4-1.48 2.35-2.94 3.21-4.41.4.42.89.85 1.38 1.38.49.56 1.04 1.15 1.64 1.76l1.58 1.58c.48.57.96 1.14 1.44 1.72.48.58.98 1.16 1.43 1.77.4.64.8 1.3 1.18 1.97.95 1.45 1.66 3.46 2.48 5.4.42 1.52.9 3.02 1.19 4.38-4.94.03-8.94.78-11.9 1.66-.41.12-.65.56-.53.97s.56.65.97.53c2.9-.86 6.84-1.6 11.72-1.6.12.73.25 1.4.3 2.03.01.7.01 1.35.02 2-.02.65.05 1.3-.05 1.99-.08.7-.16 1.44-.25 2.29-.04 1.05-.36 2.06-.58 3.08-.02.08-.04.16-.05.23-3.55-.87-6.76-1.23-9.57-1.06a.782.782 0 0 0 .1 1.56c2.66-.17 5.71.18 9.1 1.01v.01l-.63 1.69-.63 1.69-.83 1.61c-.67 1.4-1.49 2.71-2.39 3.95-2.05-.57-4.33-1.01-6.9-1.21-.42-.02-.8.29-.84.72-.03.43.29.81.72.84 2.22.17 4.21.52 6.01.99-.74.93-1.51 1.85-2.31 2.73l-1.8 1.69-.91.84-1 .74-2 1.48c-.68.48-1.42.87-2.13 1.31-3.33 1.88-6.66 3.2-10.3 4.44-6.3 2.09-11.77 3.13-16.67 3.9-4.91.74-9.29 1.14-13.64 1.34-8.69.4-17.26.1-29.81-1.94-4.36-.73-8.19-1.5-12.4-2.55-4.19-1.08-8.8-2.41-14.39-4.92-.44-.2-.93-.43-1.43-.68.92-.46 1.66-.76 2.1-.85.42-.09.69-.5.61-.92a.796.796 0 0 0-.92-.61c-.76.16-2.03.7-3.51 1.5-2.55-1.35-5.47-3.16-7.95-5.39a27.77 27.77 0 0 1-2.45-2.54c1.48-.54 3.17-.99 5.13-1.2.43-.05.74-.43.69-.86a.79.79 0 0 0-.86-.69c-2.31.25-4.29.8-5.99 1.47-.34-.46-.67-.92-.96-1.38-1.11-1.74-1.8-3.39-2.2-4.56-.34-1.06-.62-1.92-.86-2.55.07-.05.14-.11.2-.18.21-.24.48-1 .31-1.97-.03-.15-.06-.31-.09-.47 2.7-.33 5.85-.38 9.57.05.41.05.81-.26.86-.69a.777.777 0 0 0-.69-.86c-3.9-.45-7.2-.39-10.04-.04-.02-.19-.04-.38-.04-.58.04-.98.23-2.42.27-3.38.06-.98.28-1.47.43-2.44l.17-.89c.15-.68.27-1.36.45-2.03.46-1.85.88-3.68 1.5-5.5.37-1.03.76-1.98 1.16-2.99 1.32-3.53 2.37-5.82 3.5-8 1.13-2.19 2.32-4.3 4.42-7.21.71-1.03 1.41-1.88 2.14-2.87.77-.99 1.59-2.05 2.79-3.29.64-.66 1.66-1.66 2.73-2.53 1.06-.88 2.16-1.6 2.77-1.96 1.21-.67.76-2.17-.77-1.31a28.454 28.454 0 0 0-4.98 3.79c-.01-.06-.01-.11-.02-.17-.15-.82-.54-1.66-.51-2.53-.01-.97.16-2.39.2-3.34.03-.97.26-1.45.43-2.4.05-.29.1-.59.17-.87.16-.66.31-1.33.52-1.99.52-1.8 1.05-3.58 1.84-5.29.45-.98.98-1.83 1.49-2.77.88-1.61 1.75-2.88 2.58-3.94.42-.51.83-.95 1.24-1.23.41-.28.81-.4 1.29-.41.98-.01 2.13.41 3.36.9 1.25.51 2.62 1.09 4.16 1.94 2.16 1.19 3.85 2.1 6.7 4.09 1.53 1.04 4.64 3.4 5.68 4.36.52.47 1.08.47 1.36.21s.28-.78-.35-1.36a76.865 76.865 0 0 0-5.22-4.17c-2.7-1.98-6.34-4.23-8.71-5.32-1.03-.47-1.98-.91-2.92-1.34-.96-.41-1.95-.81-3.19-.91-.46-.05-1.07-.06-1.69.05-.63.11-1.19.43-1.57.73-.77.65-1.24 1.29-1.72 1.91-.46.63-.91 1.27-1.38 2.02-.63 1-1.22 2.18-1.83 3.18-.31.51-.68 1.4-.92 1.94-.26.53-.52.9-.71 1.45-.6 1.7-1.21 4.1-1.89 7.65-.25 1.47-.45 3.28-.43 4.8-.02 1.23-.31 2.46-.16 3.7.05.41.2.71.38.94-.77.86-1.54 1.77-2.23 2.65-.56.72-1.12 1.42-1.6 2.08-.47.68-.9 1.3-1.26 1.83-.63.95-1.21 1.82-1.78 2.69-.53.9-1.08 1.78-1.51 2.81-.31.8-.96 1.82-1.28 2.62-.69 1.62-1.23 2.85-1.89 4.48-.41 1.1-.85 2.35-1.33 3.41-.24.55-.51 1.47-.72 2.03-.19.55-.41.95-.57 1.51-.5 1.73-.93 4.17-1.59 7.73-.28 1.47-.44 3.29-.51 4.8 0 .32-.03.63-.07.94-4.6.81-7.81 2.42-10.1 3.81-.37.22-.48.7-.26 1.07.15.24.4.37.67.37.14 0 .28-.04.41-.11 2.08-1.27 4.96-2.73 9.07-3.52-.04.37-.06.75-.02 1.13.04.58.27.99.57 1.21.01.7.15 1.69.55 2.99.74 2.18 1.83 4.22 3.16 6.08-2.4 1.15-4.03 2.45-4.84 3.2-.32.29-.33.79-.04 1.1a.775.775 0 0 0 1.1.04c.77-.71 2.37-1.99 4.74-3.08.76.94 1.58 1.83 2.44 2.66 2.34 2.25 5.02 4.04 7.81 5.59-3.09 1.86-6.61 4.51-8.54 7-.26.34-.2.83.14 1.09.14.11.31.16.48.16.23 0 .46-.1.62-.3 2.01-2.6 5.89-5.34 8.92-7.08.13.07.26.15.39.21 5.29 2.73 11.73 4.82 17.9 6.37a149.33 149.33 0 0 0 16.58 3.07c7.8 1 14.54 1.68 22.27 1.25 2.95-.13 7.17-.34 10.13-.68 6.09-.73 10.74-1.45 16.72-2.92 3.99-.97 8.41-2.43 12.17-4.01.99-.35 2.19-1.01 3.42-1.61 1.22-.61 2.36-1.39 3.28-1.9.86-.56 1.59-1.11 2.35-1.61.75-.51 1.51-1.02 2.23-1.75.58-.55 1.19-1.12 1.82-1.72.64-.59 1.17-1.35 1.81-2.07.38-.46.78-.94 1.16-1.44 4.56 1.45 7.77 3.62 10.34 5.36l.38.26c.13.09.29.13.44.13a.774.774 0 0 0 .44-1.42l-.38-.26c-2.44-1.65-5.71-3.86-10.3-5.39.5-.77 1.05-1.53 1.51-2.41 1.09-1.92 2.08-4.16 2.82-6.68 2.37.66 4.9 1.54 7.58 2.65.1.04.2.06.3.06.31 0 .6-.18.72-.48.16-.4-.02-.85-.42-1.02-2.75-1.14-5.34-2.04-7.79-2.72.56-2.3.91-4.81.92-7.53-.04-1.33.03-2.74-.25-4.15-.01-.09-.03-.19-.04-.28 3.88.12 8.31.71 13.26 2.07a.78.78 0 0 0 .96-.54c.18-.41-.06-.84-.48-.95zM109.3 11.73c.68-.42 1.74-.93 2.39-1.36.66-.44 1.11-.49 1.81-.86l.66-.32c.51-.23 1.03-.45 1.55-.68 1.42-.61 2.79-1.27 4.25-1.75.83-.27 1.66-.44 2.49-.7 1.43-.45 2.65-.75 3.55-.72.84.04 1.3.48 1.85 1.29.26.38.51.81.77 1.24.23.41.45.85.66 1.34.42.98.81 2.12 1.19 3.51.5 1.94.95 3.43 1.26 6.22.15 1.14.29 3.26.31 4.71-1.6-.54-3.41-.68-5.55-.5-1.36.1-3.44.45-5.39.95-1.49.37-2.91.81-3.94 1.13-.01-.53-.04-1.07-.15-1.62-.26-1.49-.95-2.79-1.37-3.43-.36-.49-.75-.65-1.06-.61.06-.09.13-.17.14-.3 0-.14-.09-.35-.2-.49-.32-.43-1.25-.53-2.37-.25-.92.24-1.77.48-2.64.74-.38.11-.83.25-1.28.4-.04-.32-.12-.59-.24-.79-.03-.04-.07-.05-.1-.08.11-.05.22-.17.32-.37.18-.35.27-.9.23-1.64a27.76 27.76 0 0 0-.59-3.65c.46-.46.87-1.06 1.45-1.41zm6.76 18.81c.38.11.75.23 1.11.38.97.38 2.08 1.05 2.59 1.54.47.44.51.9.77 1.33.04.09.07.21.05.33-.03.12-.06.24-.05.35-.07.46-.25.82-.56 1.08-.1.09-.2.19-.35.22-.12.07-.28.06-.42.01a5.34 5.34 0 0 1-.53-.09c-.15-.06-.23-.22-.38-.26-.46-.16-1.22-.36-2.05-1.17-.34-.33-.76-.71-1.13-1.03-.11-.09-.18-.23-.24-.36.44-.69.84-1.45 1.19-2.33zm-15.98-4.01c-.31.94-.57 1.91-.75 2.91-.1.59-.2 1.17-.25 1.76-.5.18-1.02.35-1.67.59-.48.15-.94.32-1.42.44-1.1.32-2.23.53-3.37.7-1.55.23-3.13.38-4.67.37-1.51-.02-3.08-.21-4.08-1.04-1.15-.93-1.34-2.57-1.41-4.3.01-6.22.97-10.38 2.3-14.22.7-1.92 1.5-3.78 2.64-5.7.31-.46.62-.94.95-1.43.35-.47.75-.92 1.13-1.41.42-.45.89-.88 1.37-1.34.26-.19.53-.39.81-.59.27-.21.55-.41.88-.54 1.7-.93 3.45-1.29 5.35-.92.5.01.9.23 1.37.36.42.26.91.44 1.32.82.89.65 1.71 1.61 2.49 2.78.85 1.24 1.93 3.38 2.65 5.57.76 2.18 1.12 4.38 1.19 5.54.06.88.23 1.46.48 1.74-.21.04-.44.18-.68.43-.19.21-.49.77-.77 1.56-.72.37-1.25.52-2.03 1-.21.14-.41.28-.62.42a9.58 9.58 0 0 0-.71-1.19c-.38-.55-.9-1.15-1.52-1.6-.31-.23-.62-.44-.95-.57-.31-.17-.63-.25-.9-.31-.93-.2-1.84-.41-2.72.06-.32.18-.81.31-1.11.53-.58.46-1.02.81-1.45 1.48-.3.47-.36 1.04-.5 1.53-.08.26-.01.67.01.92.03.24-.05.46.04.7.26.73.83 1.61 1.88 2.65.43.44 1.08.84 1.66 1.05.46.18.84.65 1.36.71.41.04.67-.47.74-1.05.03-.24.02-.5-.03-.73-.05-.23-.22-.56-.54-.49-.27.05-.65.3-.93.18-.31-.1-.68-.4-.98-.53-.31-.11-.33-.37-.56-.57l-.19-.21c-.14-.17-.25-.36-.36-.54-.28-.51-.55-1.03-.58-1.58-.03-.32.12-.58.16-.83.2-.77.97-1.29 1.6-1.54.67-.25 1.44-.39 2.45.02.69.29 1.25.61 1.98 1.52.27.29.64.9.92 1.42-.22.21-.44.42-.64.67-.62.81-.91 1.6-1.2 2.4-.04.13-.09.27-.14.4zm6.41 11.22c-.72.11-1.74-.21-2.45-.48-1.47-.58-2.42-1.36-2.98-2.84-.39-.96-.57-2.2-.4-3.28.06-.54.17-1.44.3-1.98.14-.53.34-.91.5-1.42.23-.77.54-1.83 1.04-2.77.55-.91 1.66-1.83 3.17-2.58 1.25-.63 2.84-1.25 4.2-1.66 1.1-.33 2.32-.25 3.29-.31.31-.01.66-.22.95-.43-.09.27-.04.63.25 1.02 1.09 1.66 1.41 3.71 1.11 5.7-.21 1.5-.81 3.2-1.64 4.64-.88 1.44-1.86 2.81-2.63 3.69-1.4 1.59-2.91 2.43-4.71 2.7zM131 38.87c-.46 1.07-1.39 2.44-2.03 3.39-.67.98-1.32 1.79-2.1 2.48-.78.72-1.61 1.37-2.6 2.04-1.31.89-2.93 1.75-4.45 1.98-.77.15-2 .29-2.75.18-.74-.1-1.25-.36-1.91-.61-.25-.11-.53-.24-.78-.38-.19-.18-.48-.27-.65-.53-.45-.4-.75-1.08-1.04-1.83-.49-1.58-.61-3.67-.44-6.14.07-1.04.15-2.18.23-3.33v-.01c.31-.35.62-.72.93-1.12l.54-.75c.04.02.08.04.11.06.26.23.59.64.9.8.31.17.36.4.64.62l.26.2c.2.15.39.32.62.47.58.41 1.28.67 2.09.85.45.1.98.21 1.52.01.49-.14.81-.46 1.12-.72.22-.3.45-.58.57-.86.26-.54.41-1.1.4-1.67-.02-1.14-.59-2.22-1.65-3.1-.75-.62-1.42-.91-2.58-1.41-.33-.15-.87-.31-1.39-.43.13-.45.26-.92.38-1.45.04-.22.08-.48.12-.75 2.85-.9 5.75-1.68 8.65-2.01 2.22-.26 4.94-.3 6.76.82 1.89.95 1.62 3.46 1.41 5.1-.47 2.97-1.69 5.35-2.88 8.1z"/><path d="M82.94 79.85c-.09-.1-.2-.19-.32-.28-.39-.27-.61-.45-1.1-.59-.48-.14-1.22-.35-1.75-.43-.47-.08-.95.03-1.41.05-.53.01-.93-.17-1.04-.29-.1-.1-.15-.21-.17-.32-.1.14-.3.24-.59.23-.77-.07-2.89.1-3.74.51-1.71.66-1.38 2-.8 2.94.49.7 1.2 1.07 1.84 1.32.66.24 1.28.38 1.93.47 1.29.15 2.66.29 4.54-.23.54-.17 1.04-.32 1.53-.59.84-.46 1.56-1.23 1.44-2-.02-.29-.14-.56-.36-.79z" style="fill:#e1d29d"/><path class="st2" d="M83.69 79.52c-.3-.39-.72-.7-1.18-.94-.77-.41-1.75-.65-2.56-.78-.66-.11-1.3-.36-1.96-.41-.42-.02-.68.16-.77.39-.03-.17-.21-.33-.61-.35-1.23-.03-2.47.01-3.71.39-.46.15-.97.35-1.42.76a2.2 2.2 0 0 0-.76 1.65c-.03 1.16.62 2.15 1.22 2.62 1.04.85 2.11 1.27 3.33 1.4.47.04 1.12.16 1.59.16.96.02 1.72.01 2.67-.15.64-.1 1.34-.34 1.96-.54.32-.1.79-.37 1.08-.55.28-.18.52-.29.77-.53.36-.37.84-.95.82-1.85-.03-.41-.17-.88-.47-1.27zm-1.82 3.12c-.49.27-1 .42-1.53.59-1.88.52-3.25.38-4.54.23-.65-.08-1.27-.22-1.93-.47-.64-.25-1.35-.62-1.84-1.32-.58-.94-.91-2.28.8-2.94.85-.41 2.97-.58 3.74-.51.29.01.49-.09.59-.23.02.11.07.22.17.32.11.13.51.3 1.04.29.46-.02.94-.13 1.41-.05.53.08 1.27.29 1.75.43.49.14.71.32 1.1.59.12.08.22.18.32.28.22.23.34.5.37.79.11.77-.61 1.54-1.45 2zm-35.88-7.46c-.35 1.37-1.26 2.63-2.72 3.15-1.46-.01-2.92.08-3.8-.98-1.88-2.24-1.52-5.19-.82-7.72.35-.95 1.25-1.89 2.27-2.3 1.13-.52 2.24.02 3.25.45 2.33 1.7 2.07 4.86 1.82 7.4zm68.52 3.28c1.35-.62 2.15-1.88 2.61-3.15.25-2.43.84-5.7-1.72-7.31-.89-.64-2.35-.76-3.36-.35-1.35.52-2.04 1.78-2.38 2.94-.14 2.64-.73 5.91 1.94 7.52.78.55 2.01.66 2.91.35z"/></svg>