<svg version="1.1" id="Layer_1" xmlns="http://www.w3.org/2000/svg" xmlns:xlink="http://www.w3.org/1999/xlink" x="0" y="0" viewBox="0 0 669.58 261.52" style="enable-background:new 0 0 669.58 261.52" xml:space="preserve"><style>.st1,.st2{clip-path:url(#SVGID_2_);fill:#283484}.st2{fill:#fff}</style><path d="m169.78 84.83-35.93 6.34v32.32l35.93-6.34V84.83zm-3 29.81-9.98 1.76v-2.76l9.98-1.76v2.76z" style="fill:#283484"/><defs><path id="SVGID_1_" d="M0 0h669.58v261.52H0z"/></defs><clipPath id="SVGID_2_"><use xlink:href="#SVGID_1_" style="overflow:visible"/></clipPath><path class="st1" d="m669.55 119.05-1.21-2.57c-2.96-6.27-5.49-10.29-9.04-14.32l-1.53-1.74c-.13-.15-.28-.29-.44-.41l-.22-.25c-.13-.15-.28-.29-.44-.41l-.22-.26c-.14-.15-.28-.29-.44-.41l-.22-.25c-.14-.15-.28-.29-.44-.41l-.22-.25c-.13-.15-.28-.29-.44-.41l-.23-.26c-.13-.15-.28-.29-.44-.41l-.22-.25c-.13-.15-.28-.29-.44-.41l-.22-.26c-.13-.15-.28-.29-.44-.41l-.22-.26c-.13-.15-.28-.29-.44-.41l-.22-.25c-.13-.15-.28-.29-.44-.41l-.22-.25c-.14-.15-.28-.29-.44-.41l-.22-.25c-.13-.15-.28-.29-.44-.41l-.23-.26c-.13-.15-.28-.29-.44-.41l-.22-.25c-.13-.15-.28-.29-.44-.41l-.22-.25c-.13-.15-.28-.29-.44-.41l-.22-.26c-.14-.15-.28-.29-.44-.41l-.22-.25c-.13-.15-.28-.29-.44-.41l-.22-.25c-.13-.15-.28-.29-.44-.41l-.22-.26c-.14-.15-.28-.29-.44-.41l-.22-.25c-.13-.15-.28-.29-.44-.41l-.22-.25c-.14-.15-.28-.29-.44-.41l-.22-.25c-.13-.15-.28-.29-.44-.41l-.22-.25c-.13-.15-.28-.29-.44-.41l-.22-.26c-.13-.15-.28-.29-.44-.41l-.22-.26c-.13-.15-.28-.29-.44-.41l-.22-.26c-.13-.15-.28-.29-.44-.41l-.22-.25c-.14-.15-.28-.29-.44-.41l-.22-.25c-.13-.15-.28-.29-.44-.41l-.22-.26c-.13-.15-.28-.29-.44-.41l-.22-.25c-.14-.15-.28-.29-.44-.41l-.22-.25a3.004 3.004 0 0 0-2.25-1.02c-.46 0-.92.1-1.34.32l-2.07 1.04-9.19 4.6-1.03.52H622c-.45 0-.91.1-1.33.31l-2.05 1.01-9.68 4.79-3.38 1.67c-.38.19-.7.45-.97.76a2.99 2.99 0 0 0-2.36-1.15h-4.7l-18.47-.01h-2.71c-1.54 0-2.83 1.16-2.98 2.69l-.28 2.69c-.15 1.46-.91 4.45-3.67 10.38-4.39 9.35-9.96 17.51-16.99 24.86-.18-.25-.41-.48-.67-.67-.18-.25-.41-.48-.67-.67-.18-.25-.4-.48-.66-.66a2.98 2.98 0 0 0-.99-.87l-2.4-1.31c-6.27-3.42-8.27-4.78-11.22-7.59l-.45-.46c-.04-.04-.08-.08-.12-.11l-.55-.55c-.04-.04-.08-.08-.12-.11l-.55-.55-.12-.12-.54-.55c-.04-.04-.08-.08-.12-.11l-.55-.55c-.04-.04-.08-.08-.12-.11l-.55-.55c-.04-.04-.08-.08-.12-.11l-.55-.55c-.04-.04-.08-.08-.12-.11l-.55-.55c-.57-.58-1.34-.89-2.13-.89a2.971 2.971 0 0 0-2.82 1.99l-1.61 4.48c-2.76 7.7-5.31 13.17-9.09 19.51-.4.69-.81 1.37-1.23 2.04-.18-.25-.4-.47-.67-.67-.18-.25-.4-.47-.66-.66-.18-.25-.4-.47-.66-.67-.18-.25-.4-.47-.66-.66-.18-.25-.4-.48-.67-.67-.18-.25-.4-.47-.66-.66-.18-.25-.4-.47-.67-.67-.18-.25-.4-.47-.66-.67-.18-.25-.4-.47-.67-.67-.18-.25-.4-.47-.66-.66-.18-.25-.4-.47-.66-.67-.18-.25-.4-.47-.67-.67-.19-.26-.41-.49-.69-.68l-2.38-1.7c-8.59-6.14-15.16-9.6-28.13-14.81l-2.18-.87a2.995 2.995 0 0 0-3.55 1.02l-1.37 1.9-11.24 15.56-2.34 3.24a3.017 3.017 0 0 0 .67 4.19c.19.26.41.48.67.67.19.26.41.48.66.67.19.26.41.48.67.67.19.26.41.48.67.67.19.25.41.48.66.66.19.26.41.48.67.67.19.26.41.48.67.67.19.25.41.48.66.66.19.26.41.48.67.67.19.25.41.48.66.66.19.26.41.48.67.67.19.25.41.48.66.66.19.26.41.48.67.67.19.26.41.48.67.67.19.25.41.48.66.66.19.26.41.48.67.67.19.26.41.48.67.67.19.26.41.48.67.67.19.26.41.48.67.67.19.26.41.48.67.67.19.25.41.48.66.66.19.26.41.48.67.67.19.25.41.48.66.66.19.26.41.48.67.67.19.25.41.48.66.66.19.26.41.48.67.67.19.26.41.48.67.67.19.26.41.48.66.66.19.26.41.48.67.67.35.48.84.86 1.42 1.06l3.77 1.34c3 1.07 5.83 2.27 8.56 3.64-3.92 2.25-8.02 4.26-12.23 6.01l.84-1.23c.92-1.34.61-3.17-.71-4.12-.18-.25-.4-.47-.67-.67-.18-.25-.4-.47-.66-.66-.18-.25-.4-.47-.67-.67-.18-.25-.4-.47-.66-.66-.18-.25-.4-.47-.66-.67-.18-.25-.4-.47-.67-.67-.18-.25-.4-.47-.66-.66-.18-.25-.4-.47-.67-.67-.18-.25-.4-.47-.66-.66-.18-.25-.4-.47-.67-.67-.18-.25-.4-.47-.67-.67-.18-.25-.4-.47-.66-.66-.18-.25-.4-.47-.66-.66-.18-.25-.4-.47-.66-.66-.18-.25-.4-.48-.67-.67-.18-.25-.4-.47-.66-.66-.18-.25-.4-.47-.67-.67-.18-.25-.4-.47-.66-.66-.18-.25-.4-.47-.67-.67-.18-.25-.4-.47-.66-.66-.18-.25-.4-.47-.67-.67-.18-.25-.4-.47-.67-.67-.18-.25-.4-.47-.66-.66-.18-.25-.4-.47-.67-.67-.18-.25-.4-.47-.66-.66-.18-.25-.4-.47-.67-.67-.18-.25-.4-.47-.66-.66-.18-.25-.4-.47-.67-.67-.18-.25-.4-.47-.66-.66-.18-.25-.41-.48-.67-.67l-2.37-1.72-9.19-6.66-1.89-1.37c-.53-.38-1.14-.57-1.76-.57-.68 0-1.36.23-1.92.69l-1.79 1.49c-.68.57-1.03.85-3.79 1.75l-14.55 4.94a2.64 2.64 0 0 0-.4-.35h-.01c-.18-.25-.4-.47-.66-.66h-.01c-.18-.25-.4-.47-.66-.66h-.01c-.18-.25-.4-.47-.66-.66h-.01c-.18-.25-.4-.47-.66-.66h-.01c-.18-.25-.4-.47-.66-.66h-.01c-.18-.25-.4-.47-.66-.66h-.01c-.18-.25-.4-.47-.66-.66h-.01c-.18-.25-.4-.47-.66-.66h-.01c-.18-.25-.4-.47-.66-.66h-.01c-.18-.25-.4-.47-.66-.66h-.01c-.18-.25-.4-.47-.66-.66h-.01c-.18-.25-.4-.47-.66-.66h-.01c-.18-.25-.4-.47-.66-.66h-.01c-.18-.25-.4-.47-.66-.66a3 3 0 0 0-1.77-.58c-.31 0-.62.05-.92.14l-3.92 1.25-16.03 5.14-3 .96c-.67.21-1.23.65-1.61 1.23a.138.138 0 0 0-.04-.03l-.17-.2a3.01 3.01 0 0 0-.49-.46l-.17-.2a3.01 3.01 0 0 0-.49-.46l-.17-.2a3.01 3.01 0 0 0-.49-.46l-.17-.2a3.01 3.01 0 0 0-.49-.46l-.17-.2a3.01 3.01 0 0 0-.49-.46l-.17-.2a3.01 3.01 0 0 0-.49-.46l-.17-.2c-.15-.18-.31-.33-.49-.46l-.17-.2a3.01 3.01 0 0 0-.49-.46l-.17-.2a3.01 3.01 0 0 0-.49-.46l-.17-.2a3.01 3.01 0 0 0-.49-.46l-.17-.2a3.01 3.01 0 0 0-.49-.46l-.17-.2a3.01 3.01 0 0 0-.49-.46l-.17-.2a3.01 3.01 0 0 0-.49-.46l-.17-.2c-.15-.18-.31-.33-.49-.46l-.17-.2a3.01 3.01 0 0 0-.49-.46l-.17-.2c-.15-.18-.31-.33-.49-.46l-.17-.2-.02-.02 1.34-.45 2.85-.96c.76-.25 1.38-.8 1.73-1.51.35-.71.41-1.54.15-2.29l-.97-2.85c-1.05-3.09-1.19-3.76-2.72-11.6l-1.68-8.29 13.4-4.39c6.26-1.98 7.66-2.43 10.51-3.24l.01.01.05.04c.17.23.37.44.61.62l.05.04c.17.23.38.45.61.62l.05.04c.17.23.38.44.61.62l.05.04c.17.23.38.45.61.63l.05.04c.17.23.38.45.61.62l.05.04c.17.23.38.45.61.63l.05.04c.12.16.25.31.4.45.22.39.45.79.69 1.22l1.48 2.66c.21.38.51.71.86.97.19.26.41.48.66.66.19.26.41.48.67.67.19.26.41.48.66.66.19.26.41.48.67.67.19.26.41.48.67.67.19.26.41.48.66.66.19.26.41.48.66.67.19.26.41.48.67.67.19.26.41.48.67.67.19.26.41.48.66.66.19.26.41.48.67.67.19.26.41.48.67.67.19.26.41.48.67.67.19.26.41.48.66.66.19.26.41.48.66.66.19.26.41.48.67.67.19.26.41.48.67.67.19.26.41.48.67.67.19.26.41.48.66.66.19.26.41.48.67.67.19.26.41.48.66.66.19.26.41.48.67.67.19.26.41.48.66.66.19.26.41.48.67.67.19.26.41.48.66.66.19.26.41.48.66.66.19.26.41.48.67.67.19.26.41.48.66.66.19.26.41.48.67.67.4.55.97.95 1.63 1.13.26.07.53.11.8.11.52 0 1.04-.14 1.5-.4l2.64-1.52c14.5-8.35 22.47-15.76 28.44-26.43 4.27-7.77 6.35-14.43 7.38-23.9l12.18-2.15c6.6-1.16 8.56-1.51 11.49-1.83.09.09.2.17.3.25.19.26.41.48.67.67.19.26.41.48.66.66.19.26.41.48.67.67.19.26.41.48.66.66.19.26.41.48.67.67.19.26.41.48.67.67.19.26.41.48.66.66.19.26.41.48.67.67.19.26.41.48.67.67.19.26.41.48.66.66.19.26.41.48.66.66.19.26.41.48.67.67.19.26.41.48.67.67.19.26.41.48.66.66.19.26.41.48.66.66.19.26.41.48.67.67.19.26.41.48.67.67.19.26.41.48.66.66.19.26.41.48.67.67.19.26.41.48.67.67.19.26.41.48.66.66.19.26.41.48.66.67.19.26.41.48.67.67.19.26.41.48.66.66.19.26.41.48.67.67a2.996 2.996 0 0 0 3.85.87l1.72-.93c.09.11.18.21.28.31.1.09.2.18.31.26.11.15.23.28.36.41.1.09.2.18.31.26.11.15.23.28.36.41.1.09.2.18.31.26.11.15.23.28.36.41.1.09.2.18.31.26.11.15.23.28.36.41.1.09.2.18.31.26.11.15.23.28.36.41.1.09.2.18.31.26.11.15.23.28.36.41.1.09.2.18.31.26.11.15.23.28.36.41.1.09.2.18.31.26.11.15.23.28.36.41.1.09.2.18.31.26.11.15.23.28.36.41.1.09.2.18.31.26.11.15.23.28.36.41.1.09.2.18.31.26.11.15.23.28.36.41.1.09.2.18.31.26.11.15.23.28.36.41.1.09.2.18.31.26.11.15.23.28.36.41.1.09.2.18.31.26.11.15.23.28.36.41.1.09.2.18.31.26.11.15.23.28.36.41.1.09.2.18.31.26.11.15.23.28.36.41.1.09.2.18.31.26.11.15.23.28.36.41.1.09.2.18.31.26.11.15.23.28.36.41.1.09.2.18.31.26.11.15.23.28.36.41.1.09.2.18.31.26.11.15.23.28.36.41.1.09.2.18.31.26.11.15.23.28.36.41.1.09.2.18.31.26.11.15.23.28.36.41.1.09.2.18.31.26.11.15.23.28.36.41.1.09.2.18.31.26.11.15.23.28.36.41.1.09.2.18.31.26.11.15.23.28.36.41.1.09.2.18.31.26.11.15.23.28.36.41.56.54 1.31.83 2.07.83.17 0 .35-.02.52-.05l4.01-.71 17.4-3.07 2.86-.51c1.6-.28 2.68-1.78 2.45-3.38l-.42-2.88c-.44-3.07-.53-6.56-.53-12.32V59.29c6.45-5.85 11.95-11.7 16.8-17.85 1.92-2.41 1.92-2.41 2.97-3.46l2.92-2.94c.68-.68.99-1.65.83-2.6a2.97 2.97 0 0 0-1.2-1.94c-.18-.25-.41-.48-.67-.67-.18-.25-.41-.48-.66-.66-.18-.25-.41-.48-.67-.67-.18-.25-.41-.48-.66-.66-.18-.25-.41-.48-.67-.67-.18-.25-.41-.48-.66-.66-.18-.25-.41-.48-.67-.67-.18-.25-.41-.48-.66-.66-.18-.25-.41-.48-.66-.66-.18-.25-.41-.48-.67-.67-.18-.25-.41-.48-.66-.66-.18-.25-.41-.48-.67-.67-.18-.25-.41-.48-.66-.66-.18-.25-.41-.48-.67-.67-.18-.25-.41-.48-.67-.67-.18-.25-.41-.48-.66-.66-.18-.25-.41-.48-.67-.67-.18-.25-.41-.48-.66-.66-.18-.25-.41-.48-.67-.67-.18-.25-.41-.48-.66-.66-.18-.25-.41-.48-.67-.67-.18-.25-.41-.48-.67-.67-.18-.25-.41-.48-.66-.66-.18-.25-.41-.48-.66-.66-.18-.25-.41-.48-.67-.67-.18-.25-.41-.48-.67-.67-.18-.25-.41-.48-.66-.66-.18-.25-.41-.48-.67-.67-.18-.25-.41-.48-.66-.66-.28-.39-.65-.7-1.09-.92l-3.71-1.85-14.2-6.84-2.57-1.28a2.985 2.985 0 0 0-3.96 1.22l-1.39 2.51c-2.69 4.83-9.01 11.88-16.91 18.86-7.62 6.75-15.83 12.56-25.04 17.73-.09-.08-.18-.16-.27-.23-.01 0-.01-.01-.02-.01-.18-.25-.4-.47-.65-.65-.01 0-.01-.01-.02-.01-.18-.25-.4-.47-.65-.65-.01 0-.01-.01-.02-.01-.18-.25-.4-.47-.65-.65-.01 0-.01-.01-.02-.01-.18-.25-.4-.47-.65-.65-.01 0-.01-.01-.02-.01-.18-.25-.4-.47-.65-.65-.01 0-.01-.01-.02-.01-.18-.25-.4-.47-.65-.65-.01 0-.01-.01-.02-.01-.06-.08-.12-.16-.19-.23V24.36c0-.96-.46-1.86-1.24-2.43-.18-.25-.41-.48-.67-.67-.18-.25-.41-.48-.66-.66-.18-.25-.41-.48-.67-.67-.18-.25-.41-.48-.66-.66-.18-.25-.41-.48-.67-.67-.18-.25-.41-.48-.67-.67-.18-.25-.41-.48-.66-.66-.18-.25-.41-.48-.67-.67-.18-.25-.41-.48-.67-.67-.18-.25-.41-.48-.67-.67-.18-.25-.41-.48-.67-.67-.18-.25-.41-.48-.67-.67-.18-.25-.41-.48-.66-.66-.18-.25-.41-.48-.67-.67-.18-.25-.41-.48-.67-.67-.18-.25-.41-.48-.66-.66-.18-.25-.41-.48-.67-.67-.18-.25-.41-.48-.66-.66-.18-.25-.41-.48-.67-.67-.18-.25-.41-.48-.66-.66-.18-.25-.41-.48-.67-.67-.18-.25-.41-.48-.67-.67-.18-.25-.41-.48-.66-.66-.18-.25-.41-.48-.66-.66-.18-.25-.41-.48-.67-.67-.18-.25-.41-.48-.67-.67-.18-.25-.41-.48-.66-.66-.18-.25-.41-.48-.67-.67-.18-.25-.41-.48-.66-.66-.19-.26-.41-.48-.67-.67a3.021 3.021 0 0 0-2.7-.42l-3.95 1.32c-3.91 1.3-5.85 1.74-14.79 3.31l-34.21 6.03c-8.32 1.47-10.32 1.72-14.25 1.81l-2.93.07a3.001 3.001 0 0 0-2.93 3v23.2c-1.39.14-2.62.21-4.07.23l-1.28.02c-.03-.02-.06-.05-.09-.07-.18-.25-.41-.48-.67-.67-.18-.25-.41-.48-.66-.66-.18-.25-.41-.48-.66-.66-.18-.25-.41-.48-.67-.67-.18-.25-.41-.48-.67-.67-.18-.25-.41-.48-.67-.67-.18-.25-.41-.48-.67-.67-.18-.25-.41-.48-.67-.67-.18-.25-.41-.48-.66-.66-.18-.25-.41-.48-.66-.67-.18-.25-.41-.48-.67-.67-.18-.25-.41-.48-.67-.67-.18-.25-.41-.48-.66-.66-.18-.25-.41-.48-.67-.67-.18-.25-.41-.48-.66-.66-.18-.25-.41-.48-.67-.67-.18-.25-.41-.48-.66-.67-.18-.25-.41-.48-.67-.67-.18-.25-.41-.48-.67-.67-.18-.25-.41-.48-.66-.66-.18-.25-.41-.48-.67-.67a3.02 3.02 0 0 0-1.04-.9c-.43-.23-.91-.34-1.39-.34-.43 0-.87.09-1.27.28l-3.55 1.66c-4.04 1.89-6.7 2.82-13.17 4.95l-.02-.02c-.18-.25-.41-.48-.67-.67-.18-.25-.41-.48-.67-.67-.18-.25-.41-.48-.67-.67-.18-.25-.41-.48-.67-.67-.18-.25-.41-.48-.66-.66-.18-.25-.41-.48-.67-.67-.18-.25-.41-.48-.67-.67-.18-.25-.41-.48-.66-.66-.18-.25-.41-.48-.67-.67-.18-.25-.41-.48-.66-.66-.18-.25-.41-.48-.66-.67-.18-.25-.41-.48-.67-.67-.18-.25-.41-.48-.66-.66-.18-.25-.41-.48-.67-.67-.18-.25-.41-.48-.67-.67-.18-.25-.41-.48-.66-.66-.19-.27-.43-.5-.71-.69-.51-.36-1.11-.54-1.72-.54-.31 0-.63.05-.93.15l-3.8 1.24-17.99 5.87-2.98.97c-.78.25-1.42.81-1.77 1.55-.35.74-.39 1.59-.11 2.35l1.09 2.93c.79 2.12 1.21 3.68 2.21 9.11l-8.51 2.77c-6.56 2.17-9.6 3.08-13.68 3.9l-2.85.57a2.99 2.99 0 0 0-2.37 3.43l.47 2.86 2.64 16 .63 3.82c.11.65.42 1.23.88 1.68l-.73.16c-.14-.17-.3-.32-.48-.46-.02-.01-.03-.03-.05-.04-.17-.24-.38-.45-.61-.63-.02-.01-.03-.03-.05-.04-.17-.24-.38-.45-.61-.63-.02-.01-.03-.03-.05-.04-.17-.24-.38-.45-.61-.63-.02-.01-.03-.03-.05-.04-.17-.24-.38-.45-.61-.63-.02-.01-.03-.03-.05-.04-.17-.24-.38-.45-.61-.63-.02-.01-.03-.03-.05-.04-.17-.24-.38-.45-.61-.63-.02-.01-.03-.03-.05-.04-.17-.24-.38-.45-.61-.63-.02-.01-.03-.03-.05-.04-.17-.24-.38-.45-.61-.63-.02-.01-.03-.03-.05-.04-.17-.24-.38-.45-.61-.63-.02-.01-.03-.03-.05-.04-.17-.24-.38-.45-.61-.63-.02-.01-.03-.03-.05-.04-.17-.24-.38-.45-.61-.63-.02-.01-.03-.03-.05-.04-.17-.24-.38-.45-.61-.63-.02-.01-.03-.03-.05-.04-.17-.24-.38-.45-.61-.63-.02-.01-.03-.03-.05-.04-.17-.24-.38-.45-.61-.63-.02-.01-.03-.03-.05-.04-.17-.24-.38-.45-.61-.63-.53-.4-1.17-.61-1.81-.61-.27 0-.54.04-.81.11l-3.81 1.06-1.78.5c-5.76 1.61-9.01 2.37-18.12 3.97-.03 0-.09.02-.12.02l-28.73 5.83c-2.67.47-4.91.85-6.84 1.16l.15-2.57c.05-.96-.35-1.88-1.09-2.49l-.14-.11c-.15-.21-.33-.39-.53-.56l-.14-.11c-.15-.21-.32-.39-.53-.56l-.14-.11c-.15-.21-.32-.39-.53-.56l-.14-.11c-.15-.21-.33-.39-.53-.56l-.14-.11c-.15-.21-.33-.39-.53-.56l-.14-.11c-.15-.21-.32-.39-.53-.56l-.14-.11c-.15-.21-.33-.39-.53-.56l-.14-.11c-.15-.21-.32-.39-.53-.56l-.14-.11c-.15-.21-.32-.39-.53-.56l-.14-.11c-.15-.21-.33-.39-.53-.56l-.14-.11c-.15-.21-.33-.39-.53-.56l-.14-.11c-.15-.21-.33-.39-.53-.56l-.14-.11c-.15-.21-.33-.39-.53-.56l-.14-.11c-.15-.21-.32-.39-.53-.56l-.14-.11c-.15-.21-.32-.39-.53-.56l-.14-.11c-.15-.21-.32-.39-.53-.56l-.14-.11c-.15-.21-.33-.39-.53-.56l-.14-.11c-.15-.21-.32-.39-.53-.56l-.14-.11c-.15-.21-.32-.39-.53-.56l-.14-.11c-.15-.21-.33-.39-.53-.56l-.14-.11c-.15-.21-.33-.39-.53-.56l-.14-.11c-.15-.21-.32-.39-.53-.56l-.14-.11c-.15-.21-.33-.39-.53-.56l-.14-.11c-.15-.21-.32-.39-.53-.56l-.14-.11c-.15-.21-.32-.39-.53-.56l-.14-.11c-.15-.21-.32-.39-.53-.56l-.14-.11c-.15-.21-.33-.39-.53-.56l-.14-.11c-.15-.21-.33-.39-.53-.56l-.14-.11c-.15-.21-.33-.39-.53-.56l-.14-.11a3.028 3.028 0 0 0-2.43-1.24c-.25 0-.51.03-.76.1l-3.99 1.04c-4.37 1.14-5.76 1.38-11.65 2.42l-52.69 9.29c-6.42 1.13-8.21 1.35-11.34 1.64l-2.94.27a3.004 3.004 0 0 0-2.72 3.21l.22 2.94c.27 3.61.37 6.47.37 10.55v35.6l-.51-1.86c-1.74-6.48-3.23-15.11-3.32-19.26l-.09-4.18c-.02-.94-.48-1.81-1.24-2.36-.18-.25-.41-.48-.67-.67-.18-.25-.41-.48-.67-.67-.18-.25-.41-.48-.67-.67-.18-.25-.41-.48-.66-.66-.18-.25-.41-.48-.66-.66-.18-.25-.41-.48-.67-.67-.18-.25-.41-.48-.66-.66-.18-.25-.41-.48-.67-.67-.18-.25-.41-.48-.67-.67-.18-.25-.41-.48-.67-.67-.18-.25-.41-.48-.66-.66-.18-.25-.41-.48-.67-.67-.18-.25-.41-.48-.67-.67-.18-.25-.41-.48-.67-.67-.18-.25-.41-.48-.67-.67-.18-.25-.41-.48-.66-.66-.18-.25-.41-.48-.67-.67-.18-.25-.41-.48-.67-.67-.18-.25-.41-.48-.66-.66-.18-.25-.41-.48-.67-.67-.18-.25-.41-.48-.66-.66-.18-.25-.41-.48-.67-.67-.18-.25-.41-.48-.66-.66-.18-.25-.41-.48-.67-.67-.18-.25-.41-.48-.67-.67-.18-.25-.41-.48-.67-.67-.18-.25-.41-.48-.66-.66-.18-.25-.41-.48-.67-.67-.18-.25-.41-.48-.67-.67-.2-.27-.45-.52-.73-.71a2.996 2.996 0 0 0-2.72-.35l-3.93 1.42-17.11 6.19-2.82 1.02c-.61.22-1.1.62-1.44 1.11-.13.15-.56.05-1 .05H27.95c-1.66 0-3 1.34-3 3v3c0 12.57-3.48 29.77-8.67 42.8-3.72 9.46-7.12 15.42-13 22.78l-2.63 3.29c-.61.76-.81 1.76-.54 2.7.19.65.59 1.21 1.12 1.6.19.25.41.48.66.66.19.26.41.48.67.67.19.25.41.48.67.66.19.25.41.48.66.66.19.25.41.48.67.67.19.25.41.48.67.67.19.25.41.48.67.67.19.26.41.48.67.67.19.26.41.48.67.67.18.25.41.48.66.66.19.26.41.48.67.67.19.25.41.48.66.66.19.26.41.48.67.67.19.25.41.48.67.66.19.25.41.48.66.66.19.25.41.48.66.67.19.26.41.48.67.67.19.25.41.48.66.66.19.26.41.48.67.67.19.25.41.48.67.67.19.25.41.48.66.66.19.25.41.48.66.67.19.25.41.48.66.66.19.26.41.48.67.67.19.25.41.48.66.66.19.25.41.48.66.66.19.26.41.48.67.67.19.25.41.48.66.66.19.26.41.48.67.67.35.49.85.86 1.43 1.07l3.97 1.41c5.7 2.02 9.57 4.12 14.27 7.74l2.49 1.92c.53.41 1.17.62 1.83.62.15 0 .3-.01.45-.03.81-.12 1.53-.57 2-1.24l1.8-2.57c8.65-12.35 13.56-22.48 18.12-37.37 1.26-4.08 2.31-7.94 3.24-12.05 3.52 6.79 7.67 12.8 12.89 18.76l2.33 2.66c.14.15.28.29.45.41l.22.25c.14.15.28.29.45.42l.22.25c.14.15.29.29.45.42l.22.25c.14.15.29.29.45.42l.22.25c.14.15.28.29.45.41l.22.25c.14.15.28.29.45.41l.22.25c.14.15.28.29.45.42l.22.25c.14.15.29.29.45.42l.22.25c.14.15.28.29.45.41l.22.25c.14.15.28.29.45.41l.22.25c.14.15.28.29.45.41l.22.25c.14.15.28.29.45.41l.22.25c.14.15.28.29.45.42l.22.25c.14.15.29.29.45.42l.22.25c.14.15.29.29.45.42l.22.25c.14.15.28.29.45.41l.22.25c.14.15.28.29.45.41l.22.25c.14.15.29.29.45.42l.22.25c.14.15.28.29.45.42l.14.22c.14.15.29.29.45.42l.22.25c.14.15.28.29.45.41l.22.25c.14.15.28.29.45.42l.22.25c.14.15.28.29.45.41l.22.25c.14.15.28.29.45.42l.22.25c.14.15.29.29.45.42l.22.25c.14.15.28.29.45.42l.22.25c.14.15.29.29.45.42l.22.25c.14.15.28.29.45.41l.22.25c.14.15.28.29.45.41l.22.25c.14.15.28.29.45.42l.22.25c.57.65 1.39 1.02 2.26 1.02h.05c.88-.01 1.71-.41 2.27-1.1l2.24-2.73c3.24-3.94 5.65-6.52 8.69-9.19l.07.07c.09.09.19.16.29.24.11.15.24.3.38.43.09.09.19.16.29.24.11.15.24.3.38.43.09.09.19.16.29.24.11.15.24.3.38.43.09.09.19.16.29.24a3.08 3.08 0 0 0 .67.67c.11.15.24.3.38.43.09.09.19.16.29.24.11.15.24.3.38.43.09.09.19.16.29.24.11.15.24.3.38.43.09.09.19.16.29.24.11.15.24.3.38.43.09.09.19.16.29.24.11.15.24.3.38.43.09.09.19.16.29.24a3.03 3.03 0 0 0 2.43 1.24c.17 0 .35-.02.52-.05l3.93-.69 17.79-3.14 2.48-.44c1.43-.25 2.48-1.5 2.48-2.95v-4.13l26.47-4.67c.02.01.03.02.05.04.14.2.31.38.5.54.05.05.11.09.17.13.14.2.31.38.5.54.05.05.11.09.17.13.14.2.31.38.5.54.05.05.11.09.17.13.14.2.31.38.5.54.05.05.11.09.17.13.14.2.31.38.5.54.05.05.11.09.17.13.14.2.31.38.5.54.05.05.11.09.17.13a2.976 2.976 0 0 0 2.95 1.19l3.52-.62 17.69-3.12 2.82-.5a2.994 2.994 0 0 0 2.45-3.34l-.37-2.84c-.45-3.46-.63-7.8-.63-14.99v-10.83c.05.05.11.1.17.14.02.02.05.04.08.06.16.23.36.43.59.61.02.02.05.04.08.06.16.23.36.43.59.61.02.02.05.04.08.06.16.23.36.43.59.61.02.02.05.04.08.06.16.23.36.43.59.61.02.02.05.04.08.06a3.013 3.013 0 0 0 2.43 1.24c.25 0 .5-.03.75-.09l3.75-.96 1.76-.45c5.4-1.39 8.32-1.99 18.36-3.76.03 0 .09-.02.12-.02l28.55-5.8c9.88-1.74 13.88-2.37 18.06-2.68l1.3-.1 2.78-.2a3 3 0 0 0 2.78-2.99v-1.76c.18.23.39.44.63.62.18.25.41.48.66.66.18.25.41.48.67.67.18.25.41.48.66.66.18.25.41.48.67.67.18.25.41.48.66.66.18.25.41.48.66.66.18.25.41.48.66.67.18.25.41.48.67.67.18.25.41.48.66.66.18.25.41.48.67.67.18.25.41.48.67.66.18.25.41.48.66.66.18.25.41.48.66.67.18.25.41.48.66.66.26.35.59.65.99.87.45.25.94.37 1.44.37.4 0 .8-.08 1.18-.24l3.51-1.5c4.95-2.11 6.03-2.56 9.92-3.88.02.01.04.03.05.04.18.25.41.48.67.67.18.25.41.48.66.66.18.25.41.48.67.67.18.25.41.48.66.66.18.25.41.48.66.66.18.25.41.48.66.67.18.25.41.48.67.67.18.25.41.48.66.66.18.25.41.48.67.67.18.25.41.48.67.67.18.25.41.48.67.67.18.25.41.48.66.66.18.25.41.48.66.66.18.25.41.48.67.67.18.25.41.48.66.66.18.25.41.48.67.67.18.25.41.48.67.67.18.25.41.48.67.67.18.25.41.48.67.67.18.25.41.48.67.67.18.25.41.48.67.67.18.25.41.48.67.67.11.15.23.29.36.41l-6.84 3.38-3.44 1.7c-.56.28-1.01.72-1.3 1.25-.08-.07-.16-.14-.25-.2-.18-.25-.41-.48-.66-.66-.18-.25-.41-.48-.67-.67-.18-.25-.41-.48-.67-.66-.18-.25-.41-.48-.67-.67-.18-.25-.41-.48-.66-.66-.18-.25-.41-.48-.67-.67a2.95 2.95 0 0 0-.71-.7c-.51-.35-1.11-.54-1.71-.54-.31 0-.63.05-.93.15l-3.77 1.23-17.99 5.87-2.9.95a3.007 3.007 0 0 0-1.91 3.84l1 2.89c.75 2.16 1.01 3.02 2.24 9.19l-8.53 2.83c-6.73 2.2-10.19 3.18-13.67 3.89l-2.84.57a2.996 2.996 0 0 0-2.36 3.43l.47 2.86 2.64 15.9.63 3.79c.06.38.19.74.4 1.06l.57.7-1.93.4-.7.15c-.68.29-1.55 1.13-1.18 3.53.02.11.03.21.04.3l3.26 21.35c0 .01.01.03.01.05.24 1.6 1.35 2.97 1.88 3.56.18.19.3.3.3.3 2.26 2.18 5.8 5.59 5.83 5.59.11.11.22.21.35.3.18.25.41.48.66.66.18.25.41.48.67.67.18.25.41.48.67.67.18.25.41.48.66.66.18.25.41.48.66.66.18.25.41.48.66.67.18.25.41.48.67.67.18.25.41.48.67.67.18.25.41.48.67.67.18.25.41.48.66.66.18.25.41.48.67.67.18.25.41.48.66.66.18.25.41.48.67.67.08.11.16.21.26.31l.1.1c.1.09.2.18.31.26.06.09.13.17.21.25l.22.22c.07.07.15.13.23.19.05.08.11.15.19.22l.29.29c.06.06.12.11.19.16.03.04.06.08.1.12l.48.48c.02.02.05.04.08.06.02.02.03.04.05.06l.62.61c.26.35.59.65.98.87.45.25.95.37 1.45.37.4 0 .79-.08 1.17-.24l3.5-1.48c5-2.11 5.75-2.43 9.9-3.8.03.02.06.05.09.07.18.25.41.48.66.66.18.25.41.48.67.67.18.25.41.48.67.67.18.25.41.48.66.66.18.25.41.48.67.67.18.25.41.48.66.67.18.25.41.48.67.67.18.25.41.48.66.66.18.25.41.48.66.67.18.25.41.48.66.66.18.25.41.48.67.67.18.25.41.48.66.66.18.25.41.48.67.67.18.25.41.48.67.67.18.25.41.48.66.66.18.25.41.48.66.66.18.25.41.48.67.67.18.25.41.48.66.67.18.25.41.48.67.67.18.25.41.48.66.66.18.25.41.48.67.67.18.25.41.48.66.66.18.25.41.48.66.67.18.25.41.48.67.67.18.25.41.48.67.67.18.25.41.48.67.67.18.25.41.48.67.67.18.25.41.48.66.66.18.25.41.48.67.67.19.26.42.49.68.68a3.003 3.003 0 0 0 2.71.4l3.97-1.36 18.57-6.36 2.88-.99c.76-.26 1.38-.81 1.73-1.54.35-.72.39-1.56.12-2.31l-1.03-2.87c-.97-2.69-1.14-3.58-2.5-10.53l-.19-.97-1.68-8.19 13.39-4.39c1.68-.54 3.15-1.02 4.37-1.42 1.47-.48 3.27-1.07 3.77-1.21h.02c.12-.02.24-.05.36-.09l.18-.05c1.4-.43 2.07-.63 4.66-1.27l2.75-.68c1.54-.38 2.52-1.9 2.23-3.46l-.52-2.78-1.19-6.37c.01.01.03.02.04.03.18.25.41.48.67.67.18.25.41.48.67.67.18.25.41.48.67.67.18.25.41.48.67.67.18.25.41.48.66.66.18.25.41.48.67.67.18.25.41.48.66.66.17.23.37.44.61.62.74 4.16 1.03 6.63 1.19 9.66l.2 3.99c.05.91.5 1.74 1.23 2.27.18.25.41.48.67.67.18.25.41.48.66.66.18.25.41.48.67.67.18.25.41.48.67.67.18.25.41.48.66.66.18.25.41.48.67.67.18.25.41.48.67.67.18.25.41.48.66.66.18.25.41.48.66.67.18.25.41.48.67.67.18.25.41.48.66.66.18.25.41.48.67.67.18.25.41.48.66.66.18.25.41.48.67.67.18.25.41.48.66.66.18.25.41.48.66.67.18.25.41.48.67.67.18.25.41.48.66.67.18.25.41.48.67.67.18.25.41.48.66.66.18.25.41.48.67.67.18.25.41.48.67.67.18.25.41.48.67.66.18.25.41.48.66.66.18.25.41.48.67.67.18.25.41.48.67.67.18.25.41.48.66.66.18.25.41.48.67.67.18.25.41.48.66.66.2.28.46.53.75.73.5.34 1.09.51 1.68.51.33 0 .66-.05.98-.17l3.77-1.31 17.01-5.89 2.87-.99a2.97 2.97 0 0 0 1.72-1.54c.35-.72.39-1.56.12-2.31l-1.03-2.86c-1.22-3.38-1.64-5.06-2.98-11.93l-1.9-9.44c1.83.97 3.48 2.15 5.67 3.97l2.13 1.77c.56.46 1.24.69 1.91.69.78 0 1.56-.31 2.15-.91l1.93-1.98c3.49-3.58 6.41-6.93 8.93-10.25l.55 1.9.98 3.37c.19.65.58 1.21 1.12 1.59.18.25.41.48.67.67.18.25.41.48.67.67.18.25.41.48.66.66.18.25.41.48.67.67.18.25.41.48.67.67.18.25.41.48.67.67.18.25.41.48.67.67.18.25.41.48.66.66.18.25.41.48.67.67.18.25.41.48.67.67.18.25.41.48.66.66.18.25.41.48.67.67.18.25.41.48.67.67.18.25.41.48.66.66.18.25.41.48.67.67.18.25.41.48.67.67.18.25.41.48.67.67.18.25.41.48.67.67.18.25.41.48.66.67.18.25.41.48.67.67.18.25.41.48.67.67.18.25.41.48.67.67.18.25.41.48.66.66.18.25.41.48.67.67.18.25.41.48.66.66.18.25.41.48.67.67.18.25.41.48.67.67.18.25.41.48.67.67.18.25.41.48.66.66.3.42.71.75 1.19.97.39.18.82.27 1.24.27.43 0 .87-.09 1.27-.28l3.18-1.49c2.04-.96 2.68-1.21 5.05-2.17l1.68-.68c18.77-7.58 28.38-12.94 39.57-22.06 8.19-6.63 14.82-13.85 20.63-22.51.11.11.22.2.35.29.18.25.41.48.66.66.18.25.41.48.66.67.18.25.41.48.67.67.18.25.41.48.66.66.18.25.41.48.66.66.18.25.41.48.67.67.18.25.41.48.66.67.18.25.41.48.67.67.18.25.41.48.66.66.18.25.41.48.67.67.18.25.41.48.66.66.18.25.41.48.66.66.18.25.41.48.67.67.18.25.41.48.67.67.18.25.41.48.67.67.18.25.41.48.66.66.18.25.41.48.66.67.18.25.41.48.66.67.11.16.24.3.38.43l.65 1.14c.21.38.5.7.85.94.19.26.41.48.67.67.19.26.41.48.67.66.19.26.41.48.66.66.19.26.41.48.67.67.19.26.41.48.66.66.19.26.41.48.67.67.19.26.41.48.66.66.19.26.41.48.66.67.19.26.41.48.67.67.19.26.41.48.66.66.19.26.41.48.66.67.19.26.41.48.67.67.19.26.41.48.67.67.19.26.41.48.66.66.19.26.41.48.67.67.19.26.41.48.66.66.19.26.41.48.67.67.19.26.41.48.66.66.19.26.41.48.66.67.19.26.41.48.67.67.19.26.41.48.66.66.19.26.41.48.67.67.19.26.41.48.67.67.19.26.41.48.67.67.19.26.41.48.66.66.19.26.41.48.67.67.19.26.41.48.67.67.19.26.41.48.67.67.19.26.41.48.66.66a2.976 2.976 0 0 0 2.43 1.23c.55 0 1.1-.15 1.58-.45l2.65-1.64c30.7-19.02 47.96-40.81 57.71-72.86.59-1.84 1.59-4.97 2.09-5.9l.97-1.8c.58-1.09.44-2.42-.36-3.36l-1.17-1.37.56-.3 9.29-5.01 2.5-1.35c1.4-.76 1.97-2.48 1.29-3.92M478.91 49.94c14.89-6.72 27.6-14.82 38.84-24.78 8.14-7.19 14.7-14.54 17.55-19.65L536.69 3l2.56 1.29 13.68 6.83 3.71 1.85-2.92 2.94c-1.15 1.17-1.15 1.17-3.19 3.72-4.98 6.32-10.69 12.34-17.44 18.37v28.3c0 5.9.09 9.5.56 12.75l.42 2.88-2.86.51-17.4 3.07-4.01.71.51-4.04c.46-3.61.66-5.93.66-13.03V55.02c-5.36 3.87-9.75 6.4-21.09 12.51l-2.87 1.54-1.3-2.98c-1.98-4.53-4-7.49-7.71-11.32l-2.98-3.07 3.89-1.76zM392.3 36.26v-19.2l2.93-.07c4.13-.1 6.19-.36 14.7-1.86l34.21-6.03c9.13-1.61 11.12-2.06 15.21-3.42l3.95-1.32v23.2l-2.77.21c-3.67.28-5.04.43-15.05 2.19l-34.8 6.14c-8.67 1.53-11.13 2.08-14.57 3.04l-3.81 1.07v-3.95zm-9.97 26.4V43.54l2.95-.05c4.03-.07 6.58-.43 14.58-1.84l54.45-9.6c8.71-1.54 10.97-2.04 15.18-3.33l3.88-1.2h.01v22.91l-2.73.25c-5.54.5-6.26.63-15 2.17l-14.43 2.54c-.9 10.33-2.88 17.08-7.23 24.99-5.68 10.15-13.34 17.25-27.32 25.3l-2.64 1.52-1.48-2.66c-3.37-6.05-5.16-8.12-10.63-12.27l-3.96-3.01 4.5-2.1c15.27-7.13 22.57-15.26 24.31-27.47l-16.16 2.85c-7.92 1.39-10.62 1.96-14.49 3.02l-3.79 1.04v-3.94zM52.42 90.77c-.31 1.17-.32 1.29-.54 3.3l-.07.63-.05.5-.09.19c-.03.18-.08.55-.15 1.26l-.01.14-.03.14c-.04.22-.09.49-.14.82-.06.37-.13.81-.23 1.35-2.12 15.22-3.96 24.14-7.04 34.07-4.46 14.56-9.26 24.46-17.71 36.53l-1.8 2.57-2.49-1.92c-4.97-3.84-9.07-6.06-15.1-8.19L3 160.75l2.63-3.3c6.08-7.62 9.6-13.78 13.44-23.54 5.31-13.35 8.88-31 8.88-43.91v-3h25.44l-.97 3.77zm52.39 53.5c-6.77 5.23-9.98 8.32-14.96 14.38l-2.24 2.73-2.33-2.66c-7.73-8.83-12.95-17.59-17.45-29.3-3.76-9.76-6.77-21.78-8.48-33.85-.39-2.8-.81-5.63-1.22-6.76l-1.02-2.82 2.82-1.02 17.11-6.19 3.93-1.42.09 4.17c.1 4.43 1.6 13.18 3.42 19.96 2.37 9.04 5.8 17.62 9.64 24.13 3.12 5.21 5.9 8.79 11.04 14.21l2.28 2.41-2.63 2.03zm86.17-2.92-17.69 3.12-3.52.62v-6.45l-35.93 6.34v6.65l-2.48.44-17.79 3.14-3.93.69.43-3.97c.56-5.2.76-8.32.76-15.51V86.94c0-4.17-.1-7.09-.38-10.78l-.22-2.94 2.94-.27c3.21-.3 5.04-.52 11.58-1.67l52.69-9.29c5.99-1.05 7.41-1.3 11.89-2.47l3.99-1.04-.26 4.11c-.2 3.47-.29 6.94-.29 11.24v48.8c0 7.33.19 11.78.66 15.38l.37 2.84-2.82.5zm85.33-65.87v23.37l-2.78.21-1.3.1c-4.31.32-8.38.96-18.4 2.73l-28.55 5.8-.04.01-.04.01c-10.13 1.78-13.08 2.39-18.58 3.8l-1.76.45-3.75.96V85.54l2.91-.09 1.37-.04c3.9-.12 8.47-.73 18.12-2.43l28.73-5.83.04-.01.04-.01c9.24-1.63 12.55-2.4 18.41-4.04l1.78-.5 3.8-1.06h.01-.01v3.95zm55.72 43.4-3.96 1.33v-4.18c0-2.96-.34-5.42-1.71-12.51l-1.9-10.05-16.1 5.32c-6.72 2.24-7.09 2.38-13.16 4.97l-3.51 1.5-.63-3.77-2.64-15.9-.46-2.8 2.77-.62c4.44-1 8.53-2.17 13.69-3.93l16.17-5.35-1.11-5.78-10.26 3.42c-8.24 2.7-10.38 3.44-14.29 5.16l-3.54 1.56-.63-3.82-2.64-16-.47-2.86 2.85-.57c4.24-.84 7.36-1.77 14.03-3.98l11.04-3.59-.45-2.21-.01-.03-.01-.03c-1.08-5.9-1.52-7.57-2.4-9.92l-1.09-2.93 2.98-.97 17.99-5.87 3.8-1.24.15 4c.09 2.78.57 5.88 1.31 9.96l.38 1.79 12.07-3.96c6.7-2.2 9.42-3.15 13.64-5.12l3.55-1.66.67 3.86 2.74 15.69.47 2.72-2.67.7c-3.25.86-3.25.86-13.71 4.23l-12.72 4.17 1.16 5.8 14.86-4.83c6.71-2.24 9.79-3.43 13.72-5.32l3.53-1.7.72 3.85 2.93 15.75.5 2.7-2.64.74c-5.52 1.54-5.52 1.54-13.66 4.12l-15.94 5.22 2.21 10.88c1.55 7.9 1.72 8.73 2.83 11.99l.97 2.85-2.85.96-18.57 6.26zm22.88 48.08.47 2.72-2.67.7-.46.12c-2.99.78-3.7.96-12.56 3.89l-10.77 3.54 1.16 5.78 14.87-4.92c7.23-2.38 10.42-3.6 13.68-5.21l3.56-1.76.73 3.9 2.93 15.75.52 2.78-2.75.68c-2.66.66-3.4.88-4.82 1.32l-.18.05-.14.03c-.41.1-2.11.65-4.06 1.29-1.22.4-2.68.87-4.37 1.42l-15.93 5.22 2.21 10.79.19.97c1.36 6.99 1.57 8.06 2.62 10.97l1.03 2.87-2.88.99-18.57 6.36-3.97 1.36v-4.2c0-2.6-.26-4.47-1.71-12.51l-1.9-10.05-16.11 5.32-.48.16c-6.55 2.14-6.68 2.18-12.67 4.71l-3.5 1.48-.63-3.75-2.64-15.8-.48-2.85 2.83-.58c3.5-.71 7.45-1.85 13.64-3.91l16.17-5.35-1.11-5.8-10.23 3.34c-8.57 2.87-10.73 3.61-14.32 5.17l-3.53 1.53-.63-3.79-2.64-15.9-.47-2.86 2.84-.57c3.61-.73 7.15-1.73 14.02-3.98l11.06-3.67-.44-2.15c-1.34-6.77-1.61-7.67-2.43-10.03l-1-2.89 2.9-.95 17.99-5.87 3.77-1.23.16 3.96c.08 2.18.33 4.52 1.31 9.98l.37 1.72 10.02-3.23 3.32-1.1a42.78 42.78 0 0 0-3.39-4.54l-2.49-2.93 3.44-1.7 9.68-4.79 2.08-1.03.06.07 2.34-1.17 9.19-4.6 2.11-1.06 1.5 1.76c3.42 4.03 5.89 7.96 8.54 13.58l1.21 2.57-2.5 1.35-9.29 5.01-2.8 1.51-.08-.18-1.54.81-2.76 1.45 1.38 7.93zm96.89-12.42c-.8 1.17-.9 1.32-2.08 4.91-4.29 12.41-9.96 21.35-20.24 31.9l-1.93 1.98-2.13-1.77c-4.16-3.46-6.63-4.86-11.47-6.53l-.16-.06 3.01 14.93c1.38 6.99 1.84 8.84 3.11 12.37l1.03 2.86-2.87.99-17.01 5.89-3.77 1.31-.2-3.99c-.2-3.75-.6-6.71-1.72-12.69l-4.66-25.67-3.04 1.04c-3.83 1.34-6.29 2.33-9.38 3.8l-3.53 1.68-.71-3.84-2.64-14.26-.52-2.83 2.8-.64c3.64-.83 5.84-1.41 10.07-2.8l3.41-1.16-.61-3.34c-.65-3.63-1.1-5.13-1.91-7.3l-1.1-2.95 3-.96 16.03-5.14 3.9-1.24v-.01h.02l-.02.01v4.1c0 2.66.26 4.43.82 7.55l.47 2.22 25.67-8.73c3.03-.99 3.71-1.41 4.78-2.3l1.79-1.49 1.89 1.37 9.19 6.66 2.37 1.72-1.66 2.41zm33.64 3.11c-8.28-7.07-16.19-11.72-25.65-15.08l-3.77-1.34 2.34-3.24 11.24-15.56 1.37-1.9 2.17.88c12.72 5.11 19.14 8.49 27.51 14.47l2.38 1.7-1.64 2.42-11.52 17.05-1.88 2.78-2.55-2.18zm28.37 23.91c-10.93 8.9-20.36 14.15-38.8 21.6l-1.67.67c-2.38.96-3.1 1.25-5.22 2.24l-3.18 1.49-.98-3.37-5.08-17.59-.86-2.98 3.01-.76c9.78-2.48 19.69-6.56 28.65-11.8 11.89-6.93 20.39-15.49 27.57-27.77 3.88-6.51 6.5-12.13 9.33-20.03l1.61-4.48 3.36 3.38c4.41 4.45 6.33 5.83 13.68 9.84l2.4 1.31-1.09 2.51c-9.13 21.06-18.61 34.31-32.73 45.74m130.3-80.21-9.29 5.01-2.8 1.51-.19-.41-1.15.6 2.56 3.01 1.33 1.56-.97 1.8c-.59 1.09-1.4 3.58-2.32 6.45-9.52 31.29-26.39 52.58-56.42 71.18l-2.65 1.64-1.54-2.71c-2.63-4.62-6.46-8.76-10.79-11.65l-4.18-2.79 4.44-2.35c23.22-12.33 38.28-28.38 45.9-48.98l-19.62 3.68c-5.99 10.21-13.6 19.72-22.05 27.58l-2.07 1.92-2.04-1.95c-4.6-4.38-7.39-6.21-12.95-8.5l-4.54-1.87 3.74-3.19c10.96-9.35 19.22-20.12 25.23-32.93 2.36-5.06 3.69-8.87 3.94-11.33l.28-2.69h2.71l18.47.01h4.7l-1.98 4.26c-.18.4-.32.67-.44.92-.18.39-.33.69-.65 1.42-.09.27-.22.56-.37.92-.1.23-.21.5-.34.81-.16.39-.45 1.07-.63 1.53l14.6-2.7c-.88-1.33-1.89-2.67-3.12-4.17l-2.4-2.92 3.38-1.67 9.68-4.79 2.05-1.01.24.27 2.2-1.1 9.19-4.6 2.07-1.04 1.51 1.74c3.34 3.79 5.74 7.61 8.57 13.61l1.21 2.57-2.5 1.35z"/><path class="st1" d="m422.55 170.02-11 3.81 1.26 6.24.23-.19c3.8-3.12 6.86-6.26 9.51-9.86M252.84 80.08l-28.77 5.84c-9.84 1.73-14.53 2.36-18.59 2.48l-1.36.04v20.6l1.76-.45c5.59-1.43 8.58-2.05 18.81-3.85l28.59-5.81c10.16-1.79 14.29-2.44 18.74-2.77l1.3-.1V75.48l-1.79.5c-5.97 1.67-9.32 2.45-18.69 4.1m-80.05 61.44 17.69-3.12c-.49-3.76-.68-8.35-.68-15.76V73.83c0-4.52.09-8.01.29-11.41-4.6 1.2-6.06 1.46-12.11 2.53l-52.69 9.29c-6.45 1.14-8.41 1.39-11.83 1.7.29 3.89.39 6.86.39 11v49.47c0 7.12-.19 10.43-.78 15.83l17.79-3.14v-6.64l41.93-7.39v6.45zm-.01-21.84-41.93 7.39V88.65l41.93-7.39v38.42zM294.06 101c6.16-2.63 6.65-2.81 13.39-5.06l19.35-6.4 2.54 13.42c1.37 7.07 1.76 9.8 1.76 13.07l18.57-6.26c-1.17-3.45-1.37-4.38-2.93-12.38L344 83.91l18.47-6.05c8.21-2.6 8.21-2.6 13.78-4.16l-2.93-15.75c-4.11 1.98-7.34 3.22-14.08 5.47l-18.08 5.88-2.35-11.72 15.25-5c10.56-3.4 10.56-3.4 13.88-4.28l-2.74-15.69c-4.3 2.01-7.04 2.98-13.98 5.26l-15.25 5-1.08-5.11c-.78-4.29-1.27-7.47-1.37-10.44l-17.96 5.88c.98 2.62 1.46 4.55 2.54 10.43l.98 4.83-13.59 4.42c-6.84 2.26-10.07 3.21-14.37 4.07l2.64 16c4.01-1.76 6.26-2.54 14.57-5.26l13.49-4.5 2.25 11.73-18.67 6.18c-5.87 1.99-9.97 3.1-13.98 4l2.64 15.9zm150.89-73.99c9.97-1.75 11.54-1.93 15.35-2.22V8.52c-4.3 1.43-6.55 1.93-15.65 3.53l-34.21 6.03c-8.5 1.5-10.75 1.8-15.15 1.9v16.27c3.72-1.04 6.36-1.6 14.86-3.1l34.8-6.14zM87.54 156.74c5.09-6.19 8.51-9.49 15.45-14.85-5.48-5.77-8.31-9.51-11.44-14.73-4.01-6.8-7.53-15.62-9.97-24.91-1.95-7.26-3.42-16.14-3.52-20.65l-17.11 6.19c.49 1.35.88 3.89 1.37 7.36 1.66 11.74 4.59 23.54 8.31 33.19 4.4 11.45 9.38 19.81 16.91 28.4m-65.67-21.71c-3.91 9.93-7.62 16.46-13.88 24.3 6.35 2.25 10.75 4.65 15.93 8.65 8.31-11.87 13-21.65 17.3-35.69 3.13-10.09 4.89-18.87 6.94-33.67.19-1.09.29-1.78.39-2.28.09-.98.19-1.77.29-1.98.29-2.65.29-2.85.68-4.36l-18.56.01c0 13.38-3.62 31.25-9.09 45.02m398.24-78.98c-.78 15.54-8.5 25.47-26.39 33.82 5.87 4.45 7.92 6.88 11.44 13.19 13.49-7.77 20.82-14.55 26.2-24.16 4.4-8 6.26-14.68 7.04-26.08l16.72-2.95c8.7-1.54 9.58-1.69 15.25-2.21V31.58c-4.4 1.36-6.84 1.88-15.56 3.42l-54.45 9.6c-8.11 1.43-10.85 1.81-15.05 1.88v16.18c3.91-1.07 6.65-1.65 14.76-3.08l20.04-3.53zm99.63-28.65c-11.54 10.22-24.54 18.48-39.59 25.27 3.91 4.03 6.16 7.29 8.31 12.21 14.07-7.59 17.2-9.48 25.51-15.86v20.12c0 7.03-.19 9.57-.68 13.41l17.4-3.07c-.49-3.38-.59-6.92-.59-13.18V36.65c6.84-6.02 12.8-12.17 18.08-18.88 2.15-2.69 2.15-2.69 3.42-3.97l-13.68-6.83c-3.03 5.44-9.87 13.1-18.18 20.43"/><path class="st1" d="M446.91 158.46c1.27-3.88 1.46-4.21 2.44-5.63l-9.19-6.66c-1.47 1.23-2.54 1.8-5.77 2.85l-28.84 9.8-1.17-5.57c-.59-3.26-.88-5.23-.88-8.12l-16.02 5.14c.88 2.35 1.37 3.99 2.05 7.82l1.08 5.88-5.86 2c-4.4 1.45-6.74 2.06-10.36 2.89l2.64 14.26c3.23-1.53 5.77-2.56 9.68-3.92l6.35-2.18 5.28 29.1c1.17 6.24 1.56 9.25 1.76 13.07l17.01-5.89c-1.37-3.8-1.86-5.83-3.23-12.81l-5.77-28.63 21.5-7.45c-3.81 7.12-8.21 12.51-14.66 17.79 5.18 1.78 7.91 3.32 12.41 7.05 9.97-10.23 15.44-18.9 19.55-30.79m13.88-18.71c9.78 3.47 18.09 8.36 26.59 15.62l11.53-17.05c-8.21-5.87-14.56-9.18-26.88-14.13l-11.24 15.56zm-109.5-.25c2.94 3.63 5.28 7.45 8.02 13.32l9.29-5.01c-2.64-5.6-4.98-9.23-8.11-12.91l-9.2 4.6zM642.7 98.71c-2.64-5.6-4.88-9.24-8.11-12.91l-9.2 4.6c3.03 3.61 5.28 7.45 8.02 13.32l9.29-5.01zm-69.39 90.79c29.32-18.16 45.84-38.98 55.13-69.5 1.07-3.36 1.86-5.71 2.54-6.99l-4.99-5.86 3.03-1.59c-2.15-5.21-4.69-9.47-8.11-13.3l-9.67 4.77c2.34 2.86 4.01 5.26 5.57 8.26l-2.15.38-22.19 4.11c.39-.74.68-1.47.78-1.77.09-.11.49-1.15 1.17-2.71.1-.31.49-1.24.88-2.18.29-.72.58-1.35.68-1.66.58-1.36.68-1.47 1.17-2.52l-18.47-.01c-.29 2.84-1.66 6.84-4.2 12.29-6.16 13.12-14.76 24.36-26 33.95 6.06 2.49 9.19 4.63 13.88 9.1 8.31-7.73 16.13-17.48 22.19-28.08l26-4.87c-7.23 23.71-23.16 41.82-48.97 55.52 4.79 3.2 8.89 7.67 11.73 12.66m-53.48-44.66c-7.53 12.88-16.32 21.65-28.64 28.83-9.19 5.37-19.45 9.59-29.42 12.12l5.08 17.59c2.64-1.23 3.23-1.43 7.04-2.97 18.18-7.35 27.46-12.55 38.02-21.15 13.69-11.08 22.98-24.08 31.87-44.61-7.33-4.01-9.58-5.54-14.37-10.37-2.84 7.91-5.48 13.67-9.58 20.56m-169.61 12.57 4.69-2.46c-2.15-5.21-4.79-9.46-8.11-13.3l-9.66 4.79c2.34 2.76 4.01 5.26 5.57 8.16l-6.84 2.27-13.2 4.25-1.08-5.01c-.98-5.41-1.27-7.95-1.37-10.44l-17.99 5.87c.88 2.54 1.17 3.55 2.54 10.43l.98 4.74-13.59 4.51c-7.04 2.31-10.66 3.33-14.37 4.08l2.64 15.9c3.72-1.61 6.07-2.41 14.57-5.26l13.49-4.4 2.25 11.73-18.67 6.18c-6.75 2.24-10.66 3.32-13.98 4l2.64 15.8c6.25-2.64 6.35-2.66 13.39-4.96l19.36-6.4 2.54 13.42c1.47 8.12 1.76 10.18 1.76 13.07l18.57-6.36c-1.17-3.26-1.37-4.38-2.93-12.38l-2.74-13.38 18.47-6.05c5.28-1.7 8.21-2.7 8.8-2.8 1.46-.45 2.24-.68 4.98-1.36L360 176.3c-3.62 1.79-7.14 3.09-14.08 5.37l-18.08 5.98-2.35-11.72 13.29-4.37c9.39-3.1 9.78-3.17 13.2-4.06l-1.76-10.09z"/><path class="st2" d="m400.61 62.54 16.16-2.85c-1.74 12.21-9.04 20.34-24.31 27.47l-4.5 2.1 3.96 3.01c5.47 4.15 7.26 6.22 10.63 12.27l1.48 2.66 2.64-1.52c13.98-8.05 21.64-15.15 27.32-25.3 4.35-7.91 6.33-14.66 7.23-24.99l14.43-2.54c8.74-1.54 9.46-1.67 15-2.17l2.73-.25V27.52h-.01l-3.88 1.2c-4.21 1.29-6.47 1.79-15.18 3.33l-54.45 9.6c-8 1.41-10.55 1.77-14.58 1.84l-2.95.05V66.6l3.79-1.04c3.87-1.06 6.57-1.63 14.49-3.02m-15.3-16.06c4.2-.07 6.94-.45 15.05-1.88l54.45-9.6c8.72-1.54 11.16-2.06 15.56-3.42v16.08c-5.67.52-6.55.67-15.25 2.21l-16.72 2.95c-.78 11.4-2.64 18.08-7.04 26.08-5.38 9.61-12.71 16.39-26.2 24.16-3.52-6.31-5.57-8.74-11.44-13.19 17.89-8.35 25.61-18.28 26.39-33.82l-20.04 3.53c-8.11 1.43-10.85 2.01-14.76 3.08V46.48zM94.12 125.62c-3.84-6.51-7.27-15.09-9.64-24.13-1.82-6.78-3.32-15.53-3.42-19.96l-.09-4.17-3.93 1.42-17.11 6.19-2.82 1.02 1.02 2.82c.41 1.13.83 3.96 1.22 6.76 1.71 12.07 4.72 24.09 8.48 33.85 4.5 11.71 9.72 20.47 17.45 29.3l2.33 2.66 2.24-2.73c4.98-6.06 8.19-9.15 14.96-14.38l2.63-2.03-2.28-2.41c-5.14-5.42-7.92-9-11.04-14.21M60.95 87.79l17.11-6.19c.1 4.51 1.57 13.39 3.52 20.65 2.44 9.29 5.96 18.11 9.97 24.91 3.13 5.22 5.96 8.96 11.44 14.73-6.94 5.36-10.36 8.66-15.45 14.85-7.53-8.59-12.51-16.95-16.91-28.4-3.72-9.65-6.65-21.45-8.31-33.19-.49-3.47-.88-6.01-1.37-7.36M410.68 36.1l34.8-6.14c10.01-1.76 11.38-1.91 15.05-2.19l2.77-.21V4.36l-3.95 1.32c-4.09 1.36-6.08 1.81-15.21 3.42l-34.21 6.03c-8.51 1.5-10.57 1.76-14.7 1.86l-2.93.07v23.15l3.81-1.07c3.44-.96 5.9-1.51 14.57-3.04m-15.39-16.12c4.4-.1 6.65-.4 15.15-1.9l34.21-6.03c9.1-1.6 11.35-2.1 15.65-3.53v16.27c-3.81.29-5.38.47-15.35 2.22l-34.8 6.14c-8.5 1.5-11.14 2.06-14.86 3.1V19.98zm46.61 123.77-1.89-1.37-1.79 1.49c-1.07.89-1.75 1.31-4.78 2.3l-25.67 8.73-.47-2.22c-.56-3.12-.82-4.89-.82-7.55v-4.1l-3.9 1.24-16.03 5.14-3 .96 1.1 2.95c.81 2.17 1.26 3.67 1.91 7.3l.61 3.34-3.41 1.16c-4.23 1.39-6.43 1.97-10.07 2.8l-2.8.64.52 2.83 2.64 14.26.71 3.84 3.53-1.68c3.09-1.47 5.55-2.46 9.38-3.8l3.04-1.04 4.66 25.67c1.12 5.98 1.52 8.94 1.72 12.69l.2 3.99 3.77-1.31 17.01-5.89 2.87-.99-1.03-2.86c-1.27-3.53-1.73-5.38-3.11-12.37l-3.01-14.93.16.06c4.84 1.67 7.31 3.07 11.47 6.53l2.13 1.77 1.93-1.98c10.28-10.55 15.95-19.49 20.24-31.9 1.18-3.59 1.28-3.74 2.08-4.91l1.66-2.41-2.37-1.72-9.19-6.66zm-29.09 36.32-1.26-6.24 11-3.81c-2.65 3.6-5.71 6.74-9.51 9.86l-.23.19zm16.8-15.66-21.5 7.45 5.77 28.63c1.37 6.98 1.86 9.01 3.23 12.81l-17.01 5.89c-.2-3.82-.59-6.83-1.76-13.07l-5.28-29.1-6.35 2.18c-3.91 1.36-6.45 2.39-9.68 3.92l-2.64-14.26c3.62-.83 5.96-1.44 10.36-2.89l5.86-2-1.08-5.88c-.68-3.83-1.17-5.47-2.05-7.82l16.02-5.14c0 2.89.29 4.86.88 8.12l1.17 5.57 28.84-9.8c3.23-1.05 4.3-1.62 5.77-2.85l9.19 6.66c-.98 1.42-1.17 1.75-2.44 5.63-4.11 11.89-9.58 20.56-19.55 30.79-4.5-3.73-7.23-5.27-12.41-7.05 6.45-5.28 10.85-10.67 14.66-17.79M30.95 87h-3v3c0 12.91-3.57 30.56-8.88 43.91-3.84 9.76-7.36 15.92-13.44 23.54L3 160.75l3.97 1.41c6.03 2.13 10.13 4.35 15.1 8.19l2.49 1.92 1.8-2.57c8.45-12.07 13.25-21.97 17.71-36.53 3.08-9.93 4.92-18.85 7.04-34.07.1-.54.17-.98.23-1.35.05-.33.1-.6.14-.82l.03-.14.01-.14c.07-.71.12-1.08.15-1.26l.09-.19.05-.5.07-.63c.22-2.01.23-2.13.54-3.3l.97-3.77H30.95zm17.89 7.36c-.1.21-.2 1-.29 1.98-.1.5-.2 1.19-.39 2.28-2.05 14.8-3.81 23.58-6.94 33.67-4.3 14.04-8.99 23.82-17.3 35.69-5.18-4-9.58-6.4-15.93-8.65 6.26-7.84 9.97-14.37 13.88-24.3 5.47-13.77 9.09-31.64 9.09-45.02L49.52 90c-.39 1.51-.39 1.71-.68 4.36m221.89-21.27c-5.86 1.64-9.17 2.41-18.41 4.04l-.04.01-.04.01-28.73 5.83c-9.65 1.7-14.22 2.31-18.12 2.43l-1.37.04-2.91.09v27.38l3.75-.96 1.76-.45c5.5-1.41 8.45-2.02 18.58-3.8l.04-.01.04-.01 28.55-5.8c10.02-1.77 14.09-2.41 18.4-2.73l1.3-.1 2.78-.21V71.53l-3.8 1.06-1.78.5zm2.59 22.97-1.3.1c-4.45.33-8.58.98-18.74 2.77l-28.59 5.81c-10.23 1.8-13.22 2.42-18.81 3.85l-1.76.45v-20.6l1.36-.04c4.06-.12 8.75-.75 18.59-2.48l28.77-5.84c9.37-1.65 12.72-2.43 18.69-4.1l1.79-.5v20.58zm2.99-24.53h.01zm130.17 69.49v.01l.02-.01zm-48.65 15.75.08.18 2.8-1.51 9.29-5.01 2.5-1.35-1.21-2.57c-2.65-5.62-5.12-9.55-8.54-13.58l-1.5-1.76-2.11 1.06-9.19 4.6-2.34 1.17-.06-.07-2.08 1.03-9.68 4.79-3.44 1.7 2.49 2.93a42.78 42.78 0 0 1 3.39 4.54l-3.32 1.1-10.02 3.23-.37-1.72c-.98-5.46-1.23-7.8-1.31-9.98l-.16-3.96-3.77 1.23-17.99 5.87-2.9.95 1 2.89c.82 2.36 1.09 3.26 2.43 10.03l.44 2.15-11.06 3.67c-6.87 2.25-10.41 3.25-14.02 3.98l-2.84.57.47 2.86 2.64 15.9.63 3.79 3.53-1.53c3.59-1.56 5.75-2.3 14.32-5.17l10.23-3.34 1.11 5.8-16.17 5.35c-6.19 2.06-10.14 3.2-13.64 3.91l-2.83.58.48 2.85 2.64 15.8.63 3.75 3.5-1.48c5.99-2.53 6.12-2.57 12.67-4.71l.48-.16 16.11-5.32 1.9 10.05c1.45 8.04 1.71 9.91 1.71 12.51v4.2l3.97-1.36 18.57-6.36 2.88-.99-1.03-2.87c-1.05-2.91-1.26-3.98-2.62-10.97l-.19-.97-2.21-10.79 15.93-5.22c1.69-.55 3.15-1.02 4.37-1.42 1.95-.64 3.65-1.19 4.06-1.29l.14-.03.18-.05c1.42-.44 2.16-.66 4.82-1.32l2.75-.68-.52-2.78-2.93-15.75-.73-3.9-3.56 1.76c-3.26 1.61-6.45 2.83-13.68 5.21l-14.87 4.92-1.16-5.78 10.77-3.54c8.86-2.93 9.57-3.11 12.56-3.89l.46-.12 2.67-.7-.47-2.72-1.38-7.93 2.76-1.45 1.54-.81zm-32.34 19.16 2.35 11.72 18.08-5.98c6.94-2.28 10.46-3.58 14.08-5.37l2.93 15.75c-2.74.68-3.52.91-4.98 1.36-.59.1-3.52 1.1-8.8 2.8l-18.47 6.05 2.74 13.38c1.56 8 1.76 9.12 2.93 12.38l-18.57 6.36c0-2.89-.29-4.95-1.76-13.07l-2.54-13.42-19.36 6.4c-7.04 2.3-7.14 2.32-13.39 4.96l-2.64-15.8c3.32-.68 7.23-1.76 13.98-4l18.67-6.18-2.25-11.73-13.49 4.4c-8.5 2.85-10.85 3.65-14.57 5.26l-2.64-15.9c3.71-.75 7.33-1.77 14.37-4.08l13.59-4.51-.98-4.74c-1.37-6.88-1.66-7.89-2.54-10.43l17.99-5.87c.1 2.49.39 5.03 1.37 10.44l1.08 5.01 13.2-4.25 6.84-2.27c-1.56-2.9-3.23-5.4-5.57-8.16l9.66-4.79c3.32 3.84 5.96 8.09 8.11 13.3l-4.69 2.46 1.76 10.09c-3.42.89-3.81.96-13.2 4.06l-13.29 4.37zm33.82-23.11c-2.74-5.87-5.08-9.69-8.02-13.32l9.2-4.6c3.13 3.68 5.47 7.31 8.11 12.91l-9.29 5.01zm-166.54-30.19v-48.8c0-4.3.09-7.77.29-11.24l.26-4.11-3.99 1.04c-4.48 1.17-5.9 1.42-11.89 2.47l-52.69 9.29c-6.54 1.15-8.37 1.37-11.58 1.67l-2.94.27.22 2.94c.28 3.69.38 6.61.38 10.78v49.48c0 7.19-.2 10.31-.76 15.51l-.43 3.97 3.93-.69 17.79-3.14 2.48-.44v-6.65l35.93-6.34v6.45l3.52-.62 17.69-3.12 2.82-.5-.37-2.84c-.47-3.6-.66-8.05-.66-15.38m-61.91 26.47-17.79 3.14c.59-5.4.78-8.71.78-15.83V86.94c0-4.14-.1-7.11-.39-11 3.42-.31 5.38-.56 11.83-1.7l52.69-9.29c6.05-1.07 7.51-1.33 12.11-2.53-.2 3.4-.29 6.89-.29 11.41v48.81c0 7.41.19 12 .68 15.76l-17.69 3.12v-6.45l-41.93 7.39v6.64zm222.59-37.44-.97-2.85c-1.11-3.26-1.28-4.09-2.83-11.99l-2.21-10.88 15.94-5.22c8.14-2.58 8.14-2.58 13.66-4.12l2.64-.74-.5-2.7-2.93-15.75-.72-3.85-3.53 1.7c-3.93 1.89-7.01 3.08-13.72 5.32l-14.86 4.83-1.16-5.8 12.72-4.17c10.46-3.37 10.46-3.37 13.71-4.23l2.67-.7-.47-2.72-2.74-15.69-.67-3.86-3.55 1.66c-4.22 1.97-6.94 2.92-13.64 5.12l-12.07 3.96-.38-1.79c-.74-4.08-1.22-7.18-1.31-9.96l-.15-4-3.8 1.24-17.99 5.87-2.98.97 1.09 2.93c.88 2.35 1.32 4.02 2.4 9.92l.01.03.01.03.45 2.21-11.04 3.59c-6.67 2.21-9.79 3.14-14.03 3.98l-2.85.57.47 2.86 2.64 16 .63 3.82 3.54-1.56c3.91-1.72 6.05-2.46 14.29-5.16l10.26-3.42 1.11 5.78-16.17 5.35c-5.16 1.76-9.25 2.93-13.69 3.93l-2.77.62.46 2.8 2.64 15.9.63 3.77 3.51-1.5c6.07-2.59 6.44-2.73 13.16-4.97l16.1-5.32 1.9 10.05c1.37 7.09 1.71 9.55 1.71 12.51v4.18l3.96-1.33 18.57-6.26 2.85-.96zm-29.38-36.74-2.25-11.73-13.49 4.5c-8.31 2.72-10.56 3.5-14.57 5.26l-2.64-16c4.3-.86 7.53-1.81 14.37-4.07l13.59-4.42-.98-4.83c-1.08-5.88-1.56-7.81-2.54-10.43l17.96-5.88c.1 2.97.59 6.15 1.37 10.44l1.08 5.11 15.25-5c6.94-2.28 9.68-3.25 13.98-5.26l2.74 15.69c-3.32.88-3.32.88-13.88 4.28l-15.25 5 2.35 11.72 18.08-5.88c6.74-2.25 9.97-3.49 14.08-5.47l2.93 15.75c-5.57 1.56-5.57 1.56-13.78 4.16L344 83.91l2.74 13.48c1.56 8 1.76 8.93 2.93 12.38l-18.57 6.26c0-3.27-.39-6-1.76-13.07l-2.54-13.42-19.35 6.4c-6.74 2.25-7.23 2.43-13.39 5.06l-2.64-15.9c4.01-.9 8.11-2.01 13.98-4l18.67-6.18zm223.56 58.39-2.4-1.31c-7.35-4.01-9.27-5.39-13.68-9.84l-3.36-3.38-1.61 4.48c-2.83 7.9-5.45 13.52-9.33 20.03-7.18 12.28-15.68 20.84-27.57 27.77-8.96 5.24-18.87 9.32-28.65 11.8l-3.01.76.86 2.98 5.08 17.59.98 3.37 3.18-1.49c2.12-.99 2.84-1.28 5.22-2.24l1.67-.67c18.44-7.45 27.87-12.7 38.8-21.6 14.12-11.43 23.6-24.68 32.73-45.74l1.09-2.51zm-3.85 1.34c-8.89 20.53-18.18 33.53-31.87 44.61-10.56 8.6-19.84 13.8-38.02 21.15-3.81 1.54-4.4 1.74-7.04 2.97l-5.08-17.59c9.97-2.53 20.23-6.75 29.42-12.12 12.32-7.18 21.11-15.95 28.64-28.83 4.1-6.89 6.74-12.65 9.58-20.56 4.79 4.83 7.04 6.36 14.37 10.37m93.05-50.83-1.51-1.74-2.07 1.04-9.19 4.6-2.2 1.1-.24-.27-2.05 1.01-9.68 4.79-3.38 1.67 2.4 2.92c1.23 1.5 2.24 2.84 3.12 4.17l-14.6 2.7c.18-.46.47-1.14.63-1.53.13-.31.24-.58.34-.81.15-.36.28-.65.37-.92.32-.73.47-1.03.65-1.42.12-.25.26-.52.44-.92l1.98-4.26h-4.7l-18.47-.01h-2.71l-.28 2.69c-.25 2.46-1.58 6.27-3.94 11.33-6.01 12.81-14.27 23.58-25.23 32.93l-3.74 3.19 4.54 1.87c5.56 2.29 8.35 4.12 12.95 8.5l2.04 1.95 2.07-1.92c8.45-7.86 16.06-17.37 22.05-27.58l19.62-3.68c-7.62 20.6-22.68 36.65-45.9 48.98l-4.44 2.35 4.18 2.79c4.33 2.89 8.16 7.03 10.79 11.65l1.54 2.71 2.65-1.64c30.03-18.6 46.9-39.89 56.42-71.18.92-2.87 1.73-5.36 2.32-6.45l.97-1.8-1.33-1.56-2.56-3.01 1.15-.6.19.41 2.8-1.51 9.29-5.01 2.5-1.35-1.21-2.57c-2.83-6-5.23-9.82-8.57-13.61m-26.28 37.5-26 4.87c-6.06 10.6-13.88 20.35-22.19 28.08-4.69-4.47-7.82-6.61-13.88-9.1 11.24-9.59 19.84-20.83 26-33.95 2.54-5.45 3.91-9.45 4.2-12.29l18.47.01c-.49 1.05-.59 1.16-1.17 2.52-.1.31-.39.94-.68 1.66-.39.94-.78 1.87-.88 2.18-.68 1.56-1.08 2.6-1.17 2.71-.1.3-.39 1.03-.78 1.77l22.19-4.11 2.15-.38c-1.56-3-3.23-5.4-5.57-8.26l9.67-4.77c3.42 3.83 5.96 8.09 8.11 13.3l-3.03 1.59 4.99 5.86c-.68 1.28-1.47 3.63-2.54 6.99-9.29 30.52-25.81 51.34-55.13 69.5-2.84-4.99-6.94-9.46-11.73-12.66 25.81-13.7 41.74-31.81 48.97-55.52m24.04-35.52c3.23 3.67 5.47 7.31 8.11 12.91l-9.29 5.01c-2.74-5.87-4.99-9.71-8.02-13.32l9.2-4.6zM485.71 66.09l1.3 2.98 2.87-1.54c11.34-6.11 15.73-8.64 21.09-12.51v14.13c0 7.1-.2 9.42-.66 13.03l-.51 4.04 4.01-.71 17.4-3.07 2.86-.51-.42-2.88c-.47-3.25-.56-6.85-.56-12.75V38c6.75-6.03 12.46-12.05 17.44-18.37 2.04-2.55 2.04-2.55 3.19-3.72l2.92-2.94-3.71-1.85-13.68-6.83L536.69 3l-1.39 2.51c-2.85 5.11-9.41 12.46-17.55 19.65-11.24 9.96-23.95 18.06-38.84 24.78l-3.89 1.76 2.98 3.07c3.71 3.83 5.73 6.79 7.71 11.32M551.6 13.8c-1.27 1.28-1.27 1.28-3.42 3.97-5.28 6.71-11.24 12.86-18.08 18.88V66.3c0 6.26.1 9.8.59 13.18l-17.4 3.07c.49-3.84.68-6.38.68-13.41V49.02c-8.31 6.38-11.44 8.27-25.51 15.86-2.15-4.92-4.4-8.18-8.31-12.21 15.05-6.79 28.05-15.05 39.59-25.27 8.31-7.33 15.15-14.99 18.18-20.43l13.68 6.83z"/><path class="st2" d="M489.87 157.05 501.39 140l1.64-2.42-2.38-1.7c-8.37-5.98-14.79-9.36-27.51-14.47l-2.17-.88-1.37 1.9-11.24 15.56-2.34 3.24 3.77 1.34c9.46 3.36 17.37 8.01 25.65 15.08l2.55 2.18 1.88-2.78zm9.04-18.73-11.53 17.05c-8.5-7.26-16.81-12.15-26.59-15.62l11.24-15.56c12.32 4.95 18.67 8.26 26.88 14.13m-368.06-11.25 41.93-7.39V81.26l-41.93 7.39v38.42zm3-35.9 35.93-6.34v32.32l-35.93 6.34V91.17zm142.42 106.7-.57-.7c.14.26.34.5.57.7m19.84 47.52-.62-.61c.17.23.38.44.62.61"/></svg>