<svg version="1.1" id="Layer_1" xmlns="http://www.w3.org/2000/svg" x="0" y="0" viewBox="0 0 141.25 141.25" style="enable-background:new 0 0 141.25 141.25" xml:space="preserve"><style>.st3{fill:#2a3768}</style><path d="M141.25 70.63c0 39.01-31.62 70.63-70.63 70.63C31.62 141.25 0 109.63 0 70.63 0 31.62 31.62 0 70.63 0c39 0 70.62 31.62 70.62 70.63" style="fill:#d25142"/><path d="M53.88 40.22c.05.05.11.1.15.14.49-.09 1-.19 1.52-.28.03.25.12.51.27.72.12.16.44.36.77.18.29-.16.54-.5.86-.56.35-.07.88-.1 1.22-.22.34-.12.55-.02.9-.08l.33-.04c.25-.02.5-.05.76-.07.69-.06 1.36-.2 2.06-.25.4-.02.77.03 1.17-.02 2.72-.25 3.63-.37 6.24-.36.91.01 1.61-.06 2.88.01.12.01.27.01.43.02-.05.2-.11.4-.15.58-.56 2.42-.8 4.35-.97 6.81-.1 1.65-.15 3.55.28 5.28.08.22.16.47.28.74.16.25.29.54.51.77.21.24.42.48.68.64.23.19.47.33.69.42.83.42 1.49.62 2.35.71 1.34.11 2.86 0 4.68-.29 1.68-.27 3.63-.72 5.81-1.57 0 .03 0 .07.01.1.17 1.76 1.06 3.23 2.15 4.07.29.19.57.38.85.53.28.13.55.26.82.38.56.21 1.13.37 1.72.43 1.19.12 2.43-.16 3.51-.82.31-.19.6-.41.89-.65-.02 1.07-.17 1.69-.17 2.84-.01.37.01.74.02 1.12.03.86.09 1.73.3 2.62.27 1.18.85 2.5 2.07 3.26 1.1.68 2.38.96 3.65.98 1.45 0 2.78-.3 4.06-.88 2.19-1.06 3.68-2.32 4.97-3.56 1.17-1.25 1.96-2.48 2.69-3.73.34.35.75.72 1.16 1.16.41.47.88.96 1.39 1.47.44.43.89.88 1.33 1.32.4.48.81.96 1.22 1.44.4.49.83.97 1.21 1.48.34.54.68 1.09 1 1.65.8 1.22 1.41 2.9 2.11 4.53.36 1.28.77 2.54 1.02 3.68-4.16.04-7.52.7-10.01 1.45a.657.657 0 1 0 .38 1.26c2.44-.73 5.75-1.37 9.86-1.4.11.62.22 1.18.26 1.71.01.59.02 1.13.02 1.68-.01.54.05 1.09-.03 1.68-.06.59-.13 1.21-.2 1.92-.03.89-.29 1.73-.47 2.59-.01.07-.03.13-.04.2-2.99-.71-5.7-1.01-8.06-.85-.36.02-.64.34-.61.7.02.36.33.63.7.61 2.24-.15 4.81.13 7.67.81v.01l-.52 1.43-.52 1.43-.69 1.36c-.56 1.18-1.24 2.28-1.99 3.34a30.62 30.62 0 0 0-5.82-.99c-.35-.02-.68.25-.7.61-.03.36.25.68.61.7 1.87.14 3.55.42 5.07.8-.62.79-1.26 1.56-1.93 2.31l-1.51 1.43-.76.71-.84.63-1.67 1.26c-.57.41-1.19.74-1.79 1.11-2.79 1.6-5.6 2.73-8.65 3.78-5.29 1.79-9.9 2.69-14.02 3.35-4.13.65-7.82 1-11.47 1.18-7.31.37-14.52.16-25.1-1.51-3.67-.6-6.9-1.22-10.45-2.1-3.53-.89-7.42-1.99-12.13-4.08-.37-.17-.78-.36-1.21-.57.77-.39 1.4-.65 1.76-.73.36-.07.58-.42.51-.78a.66.66 0 0 0-.78-.51c-.64.13-1.7.6-2.94 1.28-2.15-1.13-4.62-2.64-6.71-4.51-.75-.68-1.44-1.39-2.07-2.12 1.24-.46 2.66-.85 4.31-1.03.36-.04.62-.36.58-.73-.04-.36-.38-.61-.73-.58-1.94.22-3.61.7-5.03 1.26-.29-.39-.56-.77-.81-1.15-.94-1.46-1.53-2.85-1.87-3.83-.29-.89-.53-1.61-.73-2.15.06-.05.12-.09.17-.15.17-.2.4-.84.25-1.66-.02-.13-.05-.26-.08-.39 2.27-.29 4.92-.35 8.06 0 .34.04.68-.22.72-.58a.652.652 0 0 0-.58-.72c-3.28-.36-6.06-.3-8.45.01-.02-.16-.03-.32-.03-.48.03-.83.19-2.04.21-2.85.05-.82.23-1.24.35-2.05l.14-.75c.12-.57.22-1.14.37-1.71.38-1.56.73-3.1 1.24-4.64.31-.87.63-1.67.97-2.52 1.09-2.98 1.97-4.91 2.92-6.75.94-1.84 1.93-3.63 3.69-6.09.59-.87 1.18-1.59 1.79-2.43.65-.84 1.33-1.73 2.34-2.78.53-.56 1.39-1.41 2.28-2.14.89-.74 1.81-1.36 2.32-1.66 1.02-.57.63-1.83-.66-1.1-1.52.91-2.91 2.01-4.18 3.22-.01-.05-.01-.09-.02-.15-.13-.69-.46-1.39-.44-2.13-.01-.82.13-2.02.16-2.81.02-.82.22-1.22.35-2.02.04-.25.08-.49.14-.74.13-.56.26-1.12.43-1.67.43-1.52.87-3.02 1.53-4.46.37-.83.82-1.54 1.24-2.34.73-1.36 1.46-2.43 2.15-3.33.35-.43.69-.8 1.03-1.04.34-.24.68-.34 1.08-.35.82-.01 1.8.34 2.83.74 1.06.43 2.21.91 3.51 1.62 1.82 1 3.25 1.76 5.66 3.41 1.29.87 3.92 2.84 4.8 3.65.43.39.9.39 1.14.17m41.31 1.15c-.08.17-.17.27-.27.31.03.03.06.04.09.07.1.16.17.39.21.66.38-.13.76-.25 1.08-.34.73-.22 1.45-.43 2.22-.64.94-.24 1.73-.16 1.99.2.1.12.17.3.17.42-.01.11-.07.18-.12.25.26-.04.59.1.89.51a7.945 7.945 0 0 1 1.31 4.24c.86-.28 2.05-.65 3.31-.97 1.64-.43 3.39-.74 4.53-.83 1.8-.16 3.33-.05 4.68.4-.03-1.22-.15-3-.29-3.96-.28-2.35-.66-3.6-1.09-5.23-.32-1.17-.66-2.12-1.01-2.95-.18-.42-.36-.78-.56-1.13-.22-.37-.43-.72-.66-1.04-.47-.68-.85-1.05-1.56-1.08-.76-.02-1.78.23-2.99.62-.7.22-1.4.37-2.09.6-1.23.41-2.38.98-3.57 1.5-.43.2-.87.39-1.3.58l-.55.27c-.59.31-.97.35-1.53.73-.55.37-1.44.8-2.01 1.16-.49.3-.82.8-1.22 1.19.24 1 .41 2.03.51 3.07.06.63-.02 1.1-.17 1.39" style="fill:#fff"/><path d="M99.98 52.23c-.73 1.21-1.55 2.37-2.2 3.12-1.16 1.35-2.43 2.06-3.94 2.29-.6.1-1.47-.17-2.07-.4-1.24-.49-2.04-1.14-2.52-2.38-.33-.8-.49-1.85-.35-2.75.05-.46.13-1.21.24-1.67.12-.45.28-.77.41-1.2.19-.65.45-1.54.86-2.34.46-.77 1.39-1.55 2.66-2.19a25.26 25.26 0 0 1 3.53-1.42c.93-.29 1.95-.22 2.77-.27.26-.01.56-.19.79-.37-.07.23-.03.53.21.86.92 1.39 1.2 3.11.96 4.79-.16 1.28-.65 2.71-1.35 3.93m15.7-4.87c-1.54-.93-3.83-.89-5.7-.66-2.45.29-4.88.96-7.28 1.73-.03.23-.06.45-.1.63-.09.44-.2.84-.31 1.22.44.1.9.23 1.17.36.98.41 1.54.66 2.18 1.17.9.74 1.38 1.64 1.4 2.6.01.48-.12.95-.33 1.41-.1.24-.3.48-.48.73-.26.22-.53.49-.94.61-.45.17-.9.08-1.28 0-.68-.14-1.27-.36-1.76-.71-.19-.12-.35-.26-.52-.39l-.22-.16c-.24-.18-.28-.38-.54-.52s-.55-.47-.76-.67a.405.405 0 0 0-.09-.05l-.45.63c-.25.34-.51.65-.78.95v.01c-.06.97-.13 1.93-.18 2.8-.13 2.09-.02 3.84.4 5.17.25.63.5 1.2.88 1.53.15.22.39.29.55.44.21.11.45.22.66.32.56.21.99.43 1.61.51.64.1 1.67-.03 2.32-.16 1.28-.2 2.64-.93 3.74-1.69.83-.57 1.53-1.12 2.18-1.73.65-.58 1.19-1.26 1.75-2.09.54-.8 1.31-1.96 1.7-2.86.99-2.33 2.01-4.34 2.42-6.84.14-1.38.36-3.5-1.24-4.29M90.05 45.3c-.24-.43-.55-.94-.78-1.19-.61-.76-1.09-1.02-1.67-1.27-.85-.34-1.5-.22-2.06-.01-.54.22-1.18.65-1.34 1.3-.03.22-.16.43-.13.7.03.47.26.9.5 1.33.09.15.18.32.3.46l.16.18c.2.17.21.38.47.48.24.1.56.35.82.44.23.1.55-.12.78-.16.27-.06.42.22.46.41.04.2.05.41.03.61-.05.49-.27.92-.62.89-.44-.05-.76-.44-1.15-.59-.49-.17-1.03-.51-1.4-.88-.89-.87-1.37-1.61-1.6-2.22-.07-.2 0-.38-.03-.59-.01-.21-.08-.56-.01-.78.12-.41.16-.89.41-1.29.35-.57.72-.86 1.21-1.25.25-.19.66-.3.93-.45.73-.4 1.5-.23 2.29-.06.23.05.5.12.76.26.28.11.55.28.8.48.53.38.97.88 1.29 1.34.23.32.43.66.6 1l.51-.36c.65-.41 1.1-.54 1.7-.85.23-.67.48-1.14.64-1.32.2-.22.4-.34.57-.37-.21-.24-.36-.72-.42-1.46-.07-.98-.38-2.83-1.03-4.66-.62-1.84-1.53-3.63-2.25-4.68-.66-.99-1.36-1.79-2.11-2.33-.35-.32-.76-.47-1.11-.68-.4-.1-.74-.29-1.16-.3-1.6-.3-3.07.01-4.5.79-.27.12-.51.28-.74.46-.23.17-.46.33-.68.5-.4.38-.79.75-1.15 1.13-.32.41-.66.79-.95 1.19-.27.41-.54.81-.79 1.2-.95 1.62-1.62 3.19-2.2 4.81-1.1 3.24-1.89 6.75-1.87 11.98.07 1.46.23 2.83 1.21 3.61.84.7 2.17.85 3.44.86 1.29 0 2.62-.13 3.93-.33.96-.16 1.9-.34 2.83-.61.4-.1.8-.25 1.2-.38.55-.2.98-.35 1.4-.51.04-.5.12-.98.2-1.48.15-.85.36-1.66.62-2.45.04-.11.08-.23.12-.34.24-.67.49-1.34 1-2.02.2-.18.39-.36.57-.54m11.03 8.51c.31.26.66.59.95.86.7.68 1.35.84 1.73.98.12.03.2.16.32.22.12.02.34.06.45.07.12.04.25.05.35-.01.12-.02.21-.11.29-.19.26-.22.4-.53.46-.91 0-.09.02-.19.04-.29.01-.1-.01-.2-.04-.28-.22-.36-.25-.75-.65-1.11-.42-.4-1.36-.97-2.18-1.28-.31-.12-.62-.22-.94-.31-.29.74-.63 1.38-.99 1.97.06.09.12.2.21.28" style="fill:#b94d3b"/><path class="st3" d="M138.59 78.66c-4.38-1.18-8.29-1.67-11.72-1.74-.01-.09-.03-.17-.04-.26-.07-.61-.31-1.19-.46-1.79-.17-.6-.34-1.19-.51-1.78-.19-.59-.46-1.14-.69-1.7-.24-.56-.47-1.11-.7-1.65-.24-.53-.57-1.02-.84-1.51a36.331 36.331 0 0 0-6.5-8.76c-.4-.35-.78-.66-1.14-.93.44-.89.86-1.82 1.24-2.85.55-1.58 1.17-3.36 1.2-5.7-.02-.81-.13-1.63-.54-2.4-.2-.38-.52-.74-.83-.98-.15-.15-.33-.27-.51-.38.02-1.42-.02-2.83-.15-4.24-.21-2.31-.82-5.21-1.43-6.89-.26-.74-.46-1.43-.73-2.11-.26-.68-.64-1.37-1.11-1.95-.36-.45-.81-1.26-1.46-1.66-.66-.41-1.35-.46-1.92-.42-.58.05-1.13.14-1.72.3-.79.2-1.64.52-2.42.69-.4.08-1.01.33-1.4.46-.38.12-.7.15-1.06.3-1.13.48-2.61 1.29-4.82 2.34-.92.44-1.99 1.03-2.86 1.58-.34.21-.72.37-1.09.53-.48-1.5-1.12-2.95-1.91-4.34-.63-1.05-1.39-2.15-2.43-3.1l-.84-.66c-.3-.19-.63-.36-.95-.54-.34-.15-.7-.25-1.05-.37-.35-.08-.7-.1-1.04-.15-1.38-.23-2.77.09-3.95.5-.55.29-1.11.53-1.57.85-.44.34-.89.63-1.23.96-2.41 2.31-3.91 4.75-4.91 7.74-.21.59-.45 1.31-.68 2.03l-.51-.04c-1.22-.09-2.78-.12-3.71-.08-.82.04-1.52-.12-2.32.09-.31.09-.75.05-1.05.1-.63.12-1.12.14-1.75.21-.43.04-.9.12-1.33.08-.22-.02-.56.04-.78.04-.21.01-.38-.07-.59-.04-.65.09-1.51.35-2.82.46-.54.04-1.18.15-1.71.27-.43.1-.91-.11-1.34.01-.29.08-.41.48-.35.91.03.25.12.51.27.72.12.16.44.36.77.18.29-.16.54-.49.86-.56.35-.07.89-.1 1.22-.22.34-.12.55-.02.9-.08l.33-.04c.25-.02.5-.05.76-.07.69-.06 1.36-.2 2.06-.25.4-.02.77.03 1.17-.02 2.72-.25 3.63-.37 6.24-.36.91.01 1.61-.06 2.88.01.12.01.27.01.43.02-.05.2-.11.4-.15.58-.56 2.42-.8 4.35-.97 6.81-.1 1.65-.15 3.55.28 5.28.08.22.16.47.28.74.16.25.29.54.51.77.21.24.42.48.68.64.23.19.47.33.69.42.83.42 1.49.62 2.35.71 1.34.11 2.86 0 4.68-.28 1.68-.27 3.63-.72 5.81-1.57 0 .03 0 .06.01.1.17 1.76 1.06 3.23 2.15 4.07.29.19.57.38.85.53.28.13.55.26.82.38.56.21 1.13.37 1.72.43 1.19.12 2.43-.16 3.51-.83.31-.19.6-.41.89-.65-.02 1.07-.17 1.69-.17 2.84-.01.37 0 .74.02 1.12.03.86.09 1.73.3 2.62.27 1.18.85 2.5 2.07 3.26 1.1.68 2.38.96 3.65.98 1.45 0 2.78-.3 4.06-.88 2.19-1.06 3.68-2.32 4.97-3.56 1.17-1.25 1.96-2.48 2.69-3.73.34.35.75.71 1.16 1.16.41.47.88.96 1.39 1.47.44.44.89.88 1.34 1.32.4.48.81.96 1.22 1.44.4.49.83.97 1.21 1.48.34.54.68 1.09 1 1.65.8 1.22 1.41 2.9 2.11 4.53.36 1.28.77 2.54 1.02 3.68-4.15.04-7.52.7-10.01 1.45a.657.657 0 1 0 .38 1.26c2.44-.73 5.75-1.37 9.86-1.4.11.62.22 1.18.26 1.71.01.59.01 1.13.02 1.68-.01.54.05 1.09-.03 1.68-.06.59-.13 1.21-.2 1.92-.03.89-.29 1.73-.47 2.59-.02.07-.03.13-.04.2-2.99-.71-5.7-1.01-8.06-.85-.36.02-.64.34-.61.7.02.36.33.63.7.61 2.24-.15 4.81.13 7.67.81v.01l-.52 1.43-.52 1.43-.69 1.36c-.56 1.18-1.24 2.28-1.99 3.34a30.62 30.62 0 0 0-5.82-.99c-.35-.02-.68.25-.7.61-.03.36.25.68.61.7 1.87.14 3.55.42 5.06.8-.62.79-1.26 1.56-1.93 2.31l-1.51 1.43-.76.71-.84.63-1.68 1.26c-.57.41-1.19.74-1.79 1.11-2.79 1.6-5.59 2.73-8.65 3.78-5.29 1.79-9.9 2.69-14.02 3.35-4.13.65-7.82 1-11.47 1.18-7.31.37-14.53.16-25.1-1.51-3.67-.6-6.9-1.22-10.45-2.09-3.53-.89-7.42-1.99-12.13-4.08-.37-.17-.78-.36-1.21-.57.77-.39 1.4-.65 1.76-.73a.66.66 0 0 0 .51-.78.673.673 0 0 0-.78-.51c-.64.13-1.7.6-2.94 1.28-2.15-1.13-4.62-2.64-6.71-4.51-.75-.68-1.44-1.4-2.07-2.12 1.24-.46 2.66-.85 4.31-1.03.36-.04.62-.37.58-.73-.04-.36-.38-.61-.73-.58-1.94.22-3.61.69-5.03 1.26-.29-.39-.56-.77-.81-1.15-.94-1.46-1.53-2.85-1.87-3.83-.29-.89-.53-1.61-.73-2.15.06-.05.11-.09.17-.15.17-.2.4-.84.25-1.66-.02-.13-.05-.26-.08-.39 2.27-.29 4.92-.35 8.06 0 .34.04.68-.22.72-.58a.652.652 0 0 0-.58-.72c-3.28-.36-6.06-.3-8.45.01-.02-.16-.03-.32-.03-.49.03-.83.19-2.04.21-2.85.05-.83.23-1.24.35-2.05l.14-.75c.12-.57.22-1.14.37-1.71.38-1.56.73-3.1 1.24-4.64.31-.87.64-1.67.97-2.52 1.09-2.98 1.97-4.91 2.92-6.75.94-1.84 1.93-3.63 3.69-6.09.59-.87 1.18-1.59 1.79-2.43.65-.84 1.33-1.73 2.34-2.78.54-.56 1.39-1.41 2.28-2.14.89-.74 1.81-1.36 2.32-1.66 1.02-.57.63-1.83-.66-1.1-1.52.91-2.91 2.01-4.18 3.22-.01-.05-.01-.09-.02-.15-.13-.69-.46-1.39-.44-2.13-.01-.82.13-2.02.16-2.81.02-.82.22-1.22.36-2.02.04-.25.08-.49.14-.73.14-.56.26-1.12.43-1.67.43-1.52.87-3.02 1.53-4.46.37-.83.82-1.55 1.24-2.34.73-1.36 1.46-2.43 2.15-3.33.35-.43.69-.8 1.03-1.04.34-.24.68-.34 1.08-.35.82-.01 1.8.34 2.83.74 1.06.43 2.21.91 3.51 1.62 1.82 1 3.25 1.76 5.66 3.41 1.29.87 3.92 2.84 4.8 3.65.44.39.91.39 1.15.17.24-.22.23-.66-.3-1.14-1.43-1.23-2.89-2.4-4.42-3.48-2.28-1.65-5.36-3.53-7.35-4.44-.87-.4-1.67-.76-2.46-1.12-.81-.34-1.64-.67-2.68-.75-.39-.04-.91-.05-1.42.05-.53.09-1 .37-1.32.62-.64.55-1.04 1.09-1.44 1.62-.39.53-.76 1.07-1.16 1.7-.52.84-1.02 1.84-1.52 2.69-.26.43-.57 1.18-.77 1.64-.21.44-.43.76-.59 1.22-.5 1.43-1 3.45-1.56 6.45-.21 1.24-.36 2.76-.34 4.04-.01 1.03-.25 2.08-.12 3.11.05.34.17.6.33.79-.65.72-1.29 1.5-1.86 2.24-.47.61-.93 1.2-1.34 1.76-.39.57-.75 1.1-1.06 1.55-.53.8-1.01 1.54-1.49 2.27-.44.76-.9 1.5-1.25 2.37-.26.67-.8 1.54-1.06 2.21-.58 1.37-1.02 2.4-1.58 3.78-.34.93-.71 1.98-1.1 2.88-.2.46-.42 1.24-.6 1.71-.16.47-.34.8-.47 1.27-.41 1.46-.76 3.51-1.31 6.51-.23 1.24-.36 2.77-.41 4.05 0 .26-.02.53-.06.8-3.87.7-6.57 2.07-8.48 3.25a.65.65 0 0 0-.21.9.653.653 0 0 0 .9.21c1.75-1.08 4.17-2.32 7.62-3-.03.32-.04.63-.01.95.03.49.23.83.49 1.02.01.59.13 1.42.48 2.51.63 1.84 1.56 3.54 2.68 5.1-2.01.98-3.38 2.08-4.06 2.72-.27.25-.28.66-.03.93.13.14.31.21.48.21.16 0 .32-.06.45-.18.64-.6 1.99-1.68 3.97-2.61.64.79 1.33 1.54 2.07 2.23 1.98 1.89 4.25 3.38 6.6 4.67-2.59 1.58-5.55 3.82-7.16 5.93-.22.29-.17.7.12.92.12.09.26.14.4.14.19 0 .39-.09.52-.26 1.68-2.2 4.93-4.52 7.48-6l.33.18c4.47 2.27 9.89 4 15.09 5.29 5.21 1.25 10.21 2.06 13.97 2.52 6.57.8 12.25 1.35 18.75.96 2.49-.12 6.03-.32 8.52-.62 5.12-.64 9.03-1.27 14.06-2.53 3.35-.83 7.07-2.08 10.23-3.43.83-.3 1.84-.86 2.87-1.37 1.03-.52 1.98-1.18 2.75-1.62.72-.48 1.34-.94 1.97-1.37.63-.44 1.26-.86 1.87-1.48.49-.46.99-.95 1.53-1.45s.98-1.14 1.51-1.75c.32-.39.65-.79.97-1.22 3.84 1.2 6.56 3.01 8.73 4.46l.32.21c.11.08.24.11.37.11.21 0 .42-.1.54-.29.2-.3.12-.71-.18-.91l-.32-.21c-2.07-1.38-4.82-3.22-8.69-4.5.42-.65.88-1.3 1.26-2.04.91-1.62 1.73-3.51 2.35-5.63 2 .54 4.13 1.28 6.39 2.2.08.03.17.05.25.05.26 0 .5-.16.61-.41a.672.672 0 0 0-.36-.86c-2.32-.95-4.51-1.7-6.57-2.25.46-1.94.74-4.05.74-6.35-.04-1.12.02-2.3-.23-3.49-.01-.08-.02-.16-.04-.23 3.27.08 7 .56 11.17 1.68.06.02.12.03.18.02.29 0 .55-.19.63-.49a.672.672 0 0 0-.48-.8m-42.5-42.93c.57-.36 1.46-.79 2.01-1.16.56-.38.93-.42 1.53-.73l.55-.27c.43-.19.86-.39 1.3-.58 1.19-.52 2.34-1.08 3.57-1.5.7-.23 1.39-.38 2.09-.6 1.2-.39 2.23-.64 2.99-.62.71.03 1.09.4 1.56 1.08.22.32.43.68.65 1.04.2.35.38.71.56 1.13.35.83.69 1.78 1.01 2.95.43 1.63.81 2.88 1.09 5.23.13.96.26 2.74.29 3.96-1.35-.45-2.87-.56-4.68-.4-1.15.09-2.9.4-4.53.83-1.25.32-2.45.69-3.31.97-.01-.45-.04-.9-.14-1.36-.22-1.25-.81-2.35-1.17-2.88-.3-.41-.63-.55-.89-.51.05-.07.11-.14.12-.25 0-.12-.07-.29-.17-.42-.27-.36-1.06-.44-1.99-.2-.77.21-1.49.41-2.22.64-.32.09-.7.21-1.08.34-.04-.27-.1-.5-.21-.66a.55.55 0 0 0-.09-.07c.09-.05.18-.14.27-.31.15-.3.22-.76.19-1.38-.1-1.04-.28-2.06-.51-3.07.38-.4.72-.9 1.21-1.2m5.77 15.81c.32.09.63.19.94.31.82.31 1.76.88 2.18 1.28.4.37.43.75.65 1.11.03.08.06.18.04.28-.02.1-.05.2-.04.3-.06.39-.21.69-.46.91a.64.64 0 0 1-.29.19c-.1.06-.24.05-.35.01-.11-.01-.33-.05-.45-.07-.12-.05-.2-.18-.32-.22-.38-.13-1.03-.3-1.73-.98-.29-.27-.64-.6-.95-.86a.877.877 0 0 1-.2-.3c.36-.59.69-1.22.98-1.96m-13.47-3.31c-.26.8-.47 1.61-.62 2.45-.09.5-.16.98-.2 1.48-.42.16-.86.3-1.4.51-.4.13-.79.27-1.2.38-.93.27-1.87.45-2.83.61-1.3.2-2.63.33-3.93.33-1.27-.01-2.6-.16-3.44-.86-.97-.78-1.14-2.16-1.21-3.62-.02-5.23.77-8.74 1.87-11.98.58-1.61 1.25-3.19 2.2-4.81.26-.39.52-.79.8-1.2.29-.4.62-.78.95-1.19.36-.38.75-.75 1.15-1.13.22-.16.45-.33.68-.5.23-.18.46-.35.74-.46 1.43-.79 2.9-1.1 4.5-.79.42.01.76.19 1.16.29.36.21.76.37 1.12.68.75.54 1.45 1.35 2.11 2.33.72 1.04 1.64 2.84 2.25 4.67.65 1.83.96 3.68 1.03 4.66.05.74.2 1.22.42 1.46-.18.03-.37.15-.57.37-.16.17-.41.65-.64 1.32-.6.31-1.05.44-1.7.85-.17.12-.35.24-.52.36-.18-.34-.37-.68-.6-1-.32-.46-.76-.96-1.29-1.34-.26-.2-.53-.36-.8-.48-.26-.14-.53-.21-.76-.26-.78-.17-1.55-.34-2.29.06-.27.15-.68.26-.93.45-.49.39-.86.69-1.21 1.25-.25.4-.29.88-.41 1.29-.07.22 0 .56.01.78.03.2-.04.39.03.59.23.61.7 1.35 1.6 2.22.36.37.91.7 1.4.88.39.15.71.55 1.15.59.34.03.56-.4.62-.89.02-.2.02-.42-.03-.61-.04-.19-.19-.47-.46-.41-.23.04-.55.25-.78.16-.26-.09-.58-.34-.82-.44-.26-.1-.28-.31-.47-.48l-.16-.18c-.12-.14-.21-.3-.3-.46-.24-.43-.47-.86-.5-1.33-.03-.27.1-.49.13-.7.16-.65.81-1.09 1.34-1.3.56-.21 1.21-.33 2.06.01.58.24 1.06.51 1.67 1.27.23.25.54.75.78 1.19-.18.18-.37.36-.54.57-.52.68-.76 1.35-1 2.02-.07.11-.11.23-.16.34m5.45 9.41c-.6.1-1.47-.17-2.07-.4-1.24-.49-2.04-1.14-2.53-2.37-.33-.81-.49-1.85-.35-2.76.05-.46.13-1.21.24-1.67.11-.45.28-.77.41-1.2.19-.65.45-1.54.86-2.34.46-.77 1.39-1.55 2.66-2.19a25.26 25.26 0 0 1 3.53-1.42c.93-.29 1.95-.22 2.77-.27.26-.01.56-.19.79-.37-.07.23-.03.53.21.86.92 1.39 1.2 3.11.96 4.79-.17 1.27-.67 2.7-1.36 3.91-.73 1.21-1.55 2.37-2.2 3.12-1.14 1.36-2.41 2.08-3.92 2.31m20.63.84c-.38.9-1.16 2.06-1.7 2.86-.56.83-1.1 1.52-1.75 2.09-.65.61-1.35 1.16-2.18 1.73-1.1.75-2.45 1.48-3.73 1.69-.65.13-1.68.26-2.32.16-.62-.08-1.05-.3-1.61-.51-.21-.09-.44-.2-.66-.32-.16-.15-.4-.22-.55-.44-.38-.33-.63-.91-.88-1.54-.42-1.33-.53-3.08-.4-5.17.06-.88.12-1.84.18-2.8v-.01c.26-.3.52-.61.78-.95l.45-.63c.03.02.07.03.09.05.22.19.5.53.76.67s.31.34.54.52l.22.17c.17.13.33.27.52.39.49.35 1.08.56 1.76.71.38.08.83.17 1.28 0 .41-.12.68-.39.94-.61.18-.25.38-.49.48-.73.21-.46.34-.93.33-1.41-.02-.96-.5-1.87-1.4-2.6-.63-.52-1.2-.76-2.18-1.17-.27-.13-.73-.26-1.17-.36.11-.38.22-.78.31-1.22.04-.18.07-.4.1-.63 2.39-.77 4.83-1.44 7.28-1.73 1.86-.23 4.16-.27 5.7.66 1.6.79 1.38 2.91 1.21 4.28-.39 2.52-1.41 4.53-2.4 6.85"/><path d="M74.2 93.19a2.04 2.04 0 0 0-.27-.23c-.33-.22-.51-.37-.93-.49-.41-.11-1.03-.29-1.47-.35-.4-.06-.8.03-1.19.05-.45.01-.78-.14-.88-.24a.473.473 0 0 1-.14-.27c-.08.11-.25.2-.49.19-.65-.05-2.43.1-3.14.45-1.43.56-1.15 1.69-.66 2.48.42.59 1.01.9 1.55 1.1.55.2 1.08.32 1.63.39 1.09.12 2.24.24 3.82-.21.45-.14.88-.27 1.29-.5.71-.39 1.31-1.04 1.2-1.69-.04-.27-.14-.49-.32-.68" style="fill:#e1d29d"/><path class="st3" d="M74.83 92.9c-.25-.33-.61-.58-1-.79-.65-.34-1.48-.54-2.16-.65-.56-.09-1.09-.3-1.65-.33-.35-.02-.57.13-.65.33-.02-.14-.18-.28-.52-.29-1.03-.02-2.08.02-3.12.34-.39.13-.82.3-1.19.64-.38.33-.65.88-.63 1.39-.02.98.53 1.81 1.04 2.2.88.71 1.78 1.06 2.81 1.16.39.03.95.13 1.34.13.81.01 1.45 0 2.25-.14.54-.09 1.13-.29 1.65-.46.27-.08.66-.32.91-.46.24-.15.44-.25.65-.45.3-.31.7-.8.68-1.56a2.23 2.23 0 0 0-.41-1.06m-1.52 2.64c-.41.23-.84.36-1.29.5-1.58.45-2.73.33-3.82.21-.54-.07-1.07-.18-1.63-.39-.54-.2-1.14-.51-1.55-1.1-.49-.79-.77-1.91.66-2.48.71-.35 2.5-.5 3.14-.45.24.01.42-.08.49-.19.01.09.06.18.14.27.1.11.43.25.88.24.39-.02.79-.11 1.19-.05.44.06 1.07.24 1.47.35.41.11.6.27.93.49.1.07.19.15.27.23.18.19.29.42.32.67.11.66-.49 1.31-1.2 1.7m-30.23-6.13c-.29 1.16-1.05 2.22-2.28 2.66-1.23 0-2.45.08-3.2-.81-1.6-1.87-1.3-4.36-.72-6.49.29-.8 1.05-1.6 1.9-1.95.94-.44 1.89.01 2.73.36 1.97 1.43 1.76 4.1 1.57 6.23m57.69 2.47c1.13-.53 1.8-1.59 2.18-2.66.2-2.04.68-4.8-1.48-6.14-.75-.54-1.98-.63-2.83-.28-1.13.44-1.71 1.51-1.99 2.48-.11 2.22-.59 4.98 1.67 6.32.65.45 1.69.54 2.45.28"/></svg>