<svg version="1.1" id="Layer_1" xmlns="http://www.w3.org/2000/svg" x="0" y="0" viewBox="0 0 141.25 141.25" style="enable-background:new 0 0 141.25 141.25" xml:space="preserve"><style>.st3{fill:#2a3768}</style><path d="M0 70.63C0 31.62 31.62 0 70.63 0c39.01 0 70.63 31.62 70.63 70.63m-.01 0c0 39.01-31.62 70.63-70.63 70.63C31.62 141.25 0 109.63 0 70.63" style="fill:#a5babb"/><path d="M118.04 84.97c-.2-1.72-.76-3.48-1.59-5.2-.96-2-2.17-3.82-3.56-5.49a30.35 30.35 0 0 0-4.7-4.56c-.01.01-.02.02-.03.02-.44.21-.75.26-.94.19-.12.42-.64 1.13-1.7 1.82-.71.44-1.76 1.03-3.05 1.53-1.28.51-2.81.92-4.37 1.21-3.12.58-6.45.68-8.57.41-1.99-.25-3.75-.62-5.28-1.24-.79-.25-1.47-.66-2.16-.97-.65-.4-1.29-.76-1.87-1.19-2.31-1.71-3.97-3.82-5.17-6.47-.86-1.97-1.35-3.86-1.64-5.64-.41 1.73-1.11 2.88-1.4 3.23-.33.37-.6.55-.8.56.06.44-.14 1.32-.78 2.43-.85 1.48-2.73 4.15-5.42 6.16-1.34 1-2.84 1.82-4.28 2.44-1.45.57-2.82.97-3.91 1.17-2.04.44-3.9.49-5.58.5-.84-.05-1.65-.09-2.43-.13-.78-.08-1.52-.24-2.24-.35-2.87-.6-5.43-1.62-7.84-3.47-1.75-1.31-3.03-2.89-4.04-4.45-.05-.09-.1-.17-.16-.26-.31.19-.57.35-.74.45-.71.4-1.18.58-1.43.57-.34.63-1.34 1.81-2.86 3.46-1 1.11-2.4 2.74-3.65 4.86-1.26 2.09-2.32 4.78-2.36 7.57-.01 2.78 1.27 5.51 2.83 7.65 1.57 2.16 3.37 3.86 4.85 5.07 2.8 2.28 5.65 3.82 8.36 4.93 2.72 1.12 5.33 1.83 7.83 2.41 5.01 1.15 9.61 1.71 14.84 2.03 7.53.41 13.86.32 19.55-.04 2.85-.2 5.54-.47 8.14-.88 2.6-.38 5.11-.91 7.58-1.58 2.47-.67 4.91-1.52 7.32-2.63 1.21-.55 2.4-1.18 3.59-1.88 1.21-.71 2.36-1.45 3.44-2.39 1.09-.94 2.13-2 3.1-3.19.96-1.18 1.88-2.49 2.51-3.95.34-.72.55-1.49.66-2.25.05-.37.06-.78.04-1.21.02-.39-.05-.81-.09-1.25" style="fill:#9caeaf"/><path d="M75.34 61.45c-.62-2.31-.8-4.56-.83-6.78 0-2.22.22-4.42.74-6.71.12-.43.23-.92.4-1.41.19-.48.4-.99.6-1.49.26-.48.51-.96.75-1.42.26-.45.57-.84.8-1.22.24-.4.53-.74.83-1.07.29-.33.56-.67.86-.96.32-.28.63-.55.95-.82l.47-.4c.17-.12.34-.23.51-.34.7-.44 1.36-.93 2.16-1.26.39-.18.78-.37 1.18-.56.41-.18.86-.29 1.3-.45 1.18-.45 2.5-.69 3.82-.96 1.32-.21 2.68-.29 3.92-.34 1.25-.01 3.29.21 4.51.53 1.19.33 2.06.7 3.17 1.19 1.72.75 3.71 1.89 5.53 3.92 1.82 2.01 3.38 4.95 4.05 8.75.19.77.25 1.61.32 2.47l.12 1.3c.01.44.03.89.04 1.33.03 1.78-.07 3.55-.3 5.14-.39 2.6-1.48 4.96-2.86 7.01-.74 1.12-1.28 1.95-1.37 2.5-.01.04-.01.08-.01.12-.35-.02-1.04.35-2.19 1.11-1.97 1.25-4.25 2-6.59 2.45-2.35.43-4.77.65-7.14.54-3.54-.18-7.64-1.24-10.54-3.72-2.97-2.38-4.5-5.85-5.2-8.45m-38.07 7.1c1.78 2.17 4.98 4.34 8.86 5.29 3.87.88 8.27.83 11.81-.17 4.75-1.23 8.88-4.44 11.34-8.72.72-1.26 1.23-1.92 1.56-2.05-.01-.04-.03-.07-.04-.12-.12-.55.07-1.59.44-2.98.34-1.28.66-2.57.77-3.85.04-.65.04-1.34.05-2.01-.04-.67-.07-1.35-.16-2.03-.25-1.65-.64-3.45-1.23-5.18-.63-1.71-1.36-3.38-2.29-4.73-.5-.87-1.16-1.55-1.73-2.27-.67-.61-1.24-1.29-1.95-1.75-.34-.25-.67-.49-.99-.73-.35-.19-.7-.38-1.03-.57-.66-.41-1.35-.65-2.02-.9-.65-.28-1.31-.43-1.94-.57-.63-.15-1.23-.3-1.83-.33-.59-.06-1.15-.12-1.69-.17-.54 0-1.06.01-1.56.01-1.27-.04-2.27.04-3.57.12-.66.06-1.51.26-2.36.4-.85.15-1.66.45-2.31.59-2.49.69-5.11 2.17-6.97 3.97-2.75 2.74-4.14 5.54-5.01 9.33-.43 1.83-.81 4.54-.7 6.4.13 2.44.52 4.7 1.21 6.87.69 2.19 1.73 4.29 3.34 6.15" style="fill:#fff"/><path class="st3" d="M117.9 79.64c-1.1-2.4-2.57-4.59-4.13-6.46a28.393 28.393 0 0 0-4.49-4.32c.61-.61 1.32-1.51 1.85-2.74.82-1.88 1.07-3.9 1.4-5.89.36-2.24.51-5.55.2-7.73-.26-2.22-.32-3.41-.95-5.59-.24-.66-.4-1.34-.69-1.97-.64-1.48-1.4-2.92-2.42-4.21-1.34-1.79-3.1-3.24-5.05-4.31-1.94-1.07-4.06-1.79-6.26-2.19-1.26-.21-2.49-.37-3.75-.33-1.22.08-2.43.16-3.68.32-4.31.66-7.81 2.19-10.37 4.3-2.57 2.11-4.19 4.7-5.18 7.38-.66 1.78-1.02 3.63-1.21 5.57-.08-.47-.15-.97-.24-1.5-.16-.67-.32-1.38-.48-2.08-.22-.69-.42-1.38-.65-2.02-.27-.63-.52-1.22-.75-1.75-.58-1.02-.93-1.84-1.43-2.59-.24-.38-.45-.78-.74-1.17-.3-.38-.63-.79-1-1.25-.47-.55-1.04-1.03-1.55-1.54-.64-.55-1.33-1.04-2.01-1.53-.74-.4-1.45-.88-2.24-1.2l-1.62-.64c-.54-.19-1.11-.29-1.67-.44l-.84-.2c-.28-.05-.57-.07-.85-.11l-1.71-.19c-1.14-.01-2.28-.03-3.41.04-1.13.13-2.27.16-3.39.41-2.58.4-4.99 1.09-7.33 2.37-2 1.12-3.69 2.46-4.95 3.98-1.26 1.51-2.23 3.07-2.9 4.63-1.37 3.13-1.88 6.11-2.09 9.03-.15 2.96.14 5.92 1.14 9.04.31.76.53 1.57.94 2.35.11.23.23.47.34.7-.74.72-1.24 1.34-1.45 1.77-.03.07-.05.12-.07.18-.53.14-1.8 1-3.69 3.04-1.58 1.74-3.03 3.62-4.19 5.71-1.15 2.09-1.99 4.41-2.18 6.86-.17 2.5.54 4.96 1.69 7.06 1.14 2.13 2.67 3.99 4.35 5.65 2.54 2.5 5.72 4.69 9.22 6.33 3.51 1.64 7.3 2.72 11 3.51 7.43 1.62 14.61 1.9 19.94 1.99 4.67.06 9 .06 13.31-.22 4.3-.28 8.59-.75 13.08-1.82 1.71-.43 3.8-.92 5.83-1.61 2.04-.68 4.05-1.47 5.64-2.28 1.64-.83 3.14-1.7 4.54-2.62 1.42-.96 2.64-2.05 3.77-3.23 1.13-1.18 2.18-2.44 3.08-3.89.87-1.45 1.72-3.07 1.88-5.05.14-2.51-.52-5.15-1.59-7.55M75.25 47.96c.12-.43.23-.92.4-1.41.19-.48.4-.99.6-1.49.26-.48.51-.96.76-1.42.26-.45.57-.84.8-1.22.24-.4.53-.74.83-1.07.29-.33.56-.67.86-.96.32-.28.63-.55.95-.82l.47-.4c.16-.12.34-.23.51-.34.7-.44 1.36-.93 2.16-1.26.39-.18.78-.37 1.18-.56.41-.18.86-.29 1.3-.45 1.18-.45 2.51-.69 3.82-.96 1.32-.21 2.68-.29 3.92-.34 1.25-.01 3.29.21 4.51.53 1.2.33 2.06.7 3.17 1.19 1.72.75 3.71 1.89 5.53 3.92 1.82 2.01 3.38 4.95 4.05 8.75.19.77.25 1.61.32 2.47l.12 1.3c.01.44.03.89.04 1.33.03 1.78-.07 3.55-.3 5.14-.39 2.6-1.48 4.96-2.86 7.01-.74 1.12-1.28 1.95-1.37 2.5-.01.04-.01.08-.01.12-.35-.02-1.04.35-2.19 1.11-1.97 1.25-4.25 2-6.59 2.45-2.35.43-4.77.65-7.14.54-3.54-.18-7.64-1.24-10.54-3.72-2.99-2.37-4.51-5.84-5.21-8.44-.62-2.31-.81-4.56-.83-6.78 0-2.23.22-4.43.74-6.72m-42.54 7.59c-.11-1.86.28-4.57.7-6.4.88-3.79 2.26-6.59 5.01-9.33 1.86-1.8 4.49-3.28 6.97-3.97.65-.14 1.46-.43 2.31-.59.85-.15 1.7-.35 2.36-.4 1.3-.09 2.3-.16 3.57-.12.5 0 1.01-.01 1.56-.01.54.05 1.1.11 1.69.17.6.03 1.2.17 1.83.33.63.14 1.3.28 1.94.57.66.24 1.36.49 2.02.9.34.18.68.38 1.03.57.32.24.65.48.99.73.71.46 1.28 1.14 1.95 1.75.57.71 1.23 1.4 1.72 2.27.93 1.35 1.66 3.03 2.29 4.73.6 1.72.99 3.52 1.23 5.18.09.68.12 1.36.16 2.03-.01.67-.01 1.36-.05 2.01-.11 1.28-.43 2.57-.77 3.85-.37 1.39-.56 2.43-.44 2.98.01.04.02.08.04.12-.33.13-.84.79-1.56 2.05-2.45 4.28-6.59 7.49-11.34 8.72-3.54.99-7.94 1.05-11.82.17-3.88-.95-7.09-3.12-8.86-5.29-1.61-1.86-2.65-3.96-3.34-6.12-.67-2.2-1.05-4.46-1.19-6.9m85.39 31.91a8.18 8.18 0 0 1-.66 2.25c-.63 1.46-1.55 2.76-2.51 3.95-.97 1.18-2.01 2.25-3.1 3.19-1.08.95-2.23 1.68-3.44 2.39-1.19.7-2.38 1.33-3.59 1.88-2.41 1.11-4.85 1.96-7.32 2.63-2.47.67-4.98 1.2-7.58 1.58-2.6.41-5.29.68-8.14.88-5.69.35-12.02.44-19.55.03-5.24-.32-9.84-.87-14.84-2.03-2.5-.58-5.1-1.29-7.83-2.41-2.72-1.12-5.56-2.66-8.36-4.93-1.48-1.21-3.28-2.91-4.85-5.07-1.55-2.14-2.84-4.87-2.83-7.65.03-2.79 1.09-5.48 2.35-7.57 1.26-2.12 2.65-3.76 3.65-4.86 1.53-1.66 2.53-2.84 2.86-3.46.25.01.72-.17 1.43-.57.17-.09.43-.25.74-.45.05.09.1.17.16.26 1.01 1.56 2.29 3.14 4.04 4.45 2.41 1.86 4.96 2.88 7.84 3.47.73.11 1.47.27 2.24.35.78.04 1.58.09 2.43.13 1.68-.01 3.54-.06 5.58-.5 1.09-.2 2.46-.6 3.91-1.17 1.43-.62 2.93-1.44 4.27-2.44 2.7-2.01 4.57-4.68 5.42-6.16.65-1.12.84-1.99.78-2.43.2-.02.47-.19.8-.56.3-.35.99-1.51 1.4-3.23.29 1.79.77 3.67 1.64 5.64 1.2 2.65 2.87 4.76 5.17 6.47.57.43 1.22.79 1.87 1.19.7.3 1.38.72 2.16.97 1.53.62 3.29.99 5.28 1.24 2.13.27 5.46.17 8.57-.41 1.56-.29 3.09-.7 4.37-1.21 1.29-.5 2.34-1.08 3.05-1.53 1.06-.69 1.58-1.4 1.7-1.82.19.07.5.02.94-.19.01-.01.02-.01.04-.02 1.78 1.37 3.32 2.9 4.69 4.55 1.39 1.67 2.6 3.49 3.56 5.49.83 1.73 1.39 3.49 1.59 5.21.04.43.11.85.09 1.28.03.41.03.82-.02 1.19"/><path d="M49.58 85.89v.45c-.01.72-.02 1.47-.39 2.09-.45.76-1.33 1.13-1.98 1.74-.55.51-.92 1.19-1.48 1.68-1.38 1.22-3.46 1.05-5.28.76-1.09-.18-2.23-.4-3.09-1.1-.43-.36-.76-.82-1.05-1.29-.7-1.14-1.36-2.45-1.57-3.78-.14-.9.06-1.81.35-2.66.29-.87.79-1.22 1.22-1.97.53-.92 1.04-1.69 2.04-2.18.56-.27 1.19-.42 1.72-.77.21-.14.41-.31.65-.41.39-.15.82-.07 1.22.04 2.47.67 4.45 2.16 6.21 3.99.45.47.89.98 1.14 1.58.24.57.29 1.2.29 1.83m52.23-6.32a6.8 6.8 0 0 0-5.54 2.8 6.79 6.79 0 0 0-1.22 3.01c-.17 1.21-.54 2.68.17 3.76.64.97 1.66 1.8 2.64 2.4 1.96 1.21 5.34 2.2 7.5.97 1.96-1.11 3.68-3.64 3.64-5.94 0-.06 0-.13-.01-.19-.18-3.65-3.54-6.78-7.18-6.81" style="fill:#d09dae"/><path class="st3" d="M88.86 95.11c-.25-.07-.88.01-1.45.51-.49.43-.89 1.03-1.45 1.38-.63.4-1.6.92-2.19 1.35-.6.44-1 .52-1.64.91l-.59.35c-.46.26-.92.51-1.38.77-1.26.71-2.46 1.47-3.73 2.16-.73.4-1.44.69-2.16 1.09-.62.34-1.19.65-1.72.91-.26.14-.52.26-.76.36l-.18.08-.09.04-.04.02-.02.01h-.02l-.04.01-.13.02c-.19.02-.42.01-.59-.01l-.11-.02c-.04-.01 0 .01-.07-.03l-.32-.14c-.42-.17-.83-.39-1.24-.59-1.63-.85-3.21-1.76-5.51-3.19-1.6-1-2.88-1.7-5.08-3.15-1.17-.77-3.67-2.36-4.57-2.98-.88-.61-1.8.38-.75 1.1l4.13 2.8c2.08 1.39 4.78 3.11 6.44 4.07 1.45.84 2.59 1.73 4.14 2.37.59.24 1.37.72 2 .95l.24.09c.1.04.24.08.33.09.2.03.38.04.55.04.35-.01.64 0 1.09-.15.56-.24 1.09-.49 1.68-.8.78-.41 1.63-.92 2.43-1.26.41-.18 1.01-.55 1.41-.76.39-.2.72-.28 1.09-.5 1.15-.68 2.65-1.73 4.99-3.04.97-.54 2.11-1.23 3.05-1.84.77-.49 1.69-.71 2.44-1.22.8-.53.67-1.55-.18-1.8M78.79 55.47a5.877 5.877 0 0 1 5.91-5.82c3.24.03 5.85 2.68 5.82 5.91-.03 3.24-2.68 5.85-5.91 5.82a5.851 5.851 0 0 1-5.82-5.91M61.64 61.2c3.24.03 5.89-2.58 5.91-5.82.03-3.24-2.58-5.89-5.82-5.92a5.858 5.858 0 0 0-5.91 5.82c-.03 3.24 2.58 5.89 5.82 5.92"/></svg>