<svg version="1.1" id="Layer_1" xmlns="http://www.w3.org/2000/svg" x="0" y="0" viewBox="0 0 191.16 141.25" style="enable-background:new 0 0 191.16 141.25" xml:space="preserve"><style>.st0{fill:#bed3d7}.st1{fill:#dcbdc7}.st2{fill:#fff}.st3{fill:#2a3768}</style><path class="st0" d="M163.06 70.63c0 39.01-31.62 70.63-70.63 70.63-39.01 0-70.63-31.62-70.63-70.63S53.42 0 92.43 0c39 0 70.63 31.62 70.63 70.63"/><path class="st1" d="M163.06 70.62c0 39.02-31.63 70.63-70.63 70.63V0c39 0 70.63 31.61 70.63 70.62"/><path class="st2" d="M164.4 94.46c-1.06.11-2.24.05-3.38-.24a8.16 8.16 0 0 1-3.05-1.51 8.182 8.182 0 0 1-1.71-1.87c-.83 1.01-1.86 1.6-2.79 1.95-1.21.44-2.32.46-3.23.38-.82-.09-1.42-.33-2.18-.62-.39-.14-.89-.38-1.37-.66-.47-.3-.92-.65-1.19-.99a5.89 5.89 0 0 1-.88-1.36c-.17.31-.34.62-.53.91-.65 1.01-1.49 1.86-2.51 2.35-1.01.49-2.07.75-3.29.85-1.2.12-2.88-.18-4-.54-1.29-.37-2.42-1-3.39-1.82-.44.87-1.15 1.63-2.02 2.14-1.09.67-2.6.99-4.22.9-1.25-.09-2.61-.41-3.85-1.19-.19.45-.45.86-.73 1.23a9.3 9.3 0 0 1-1.9 1.77c-.65.46-1.35.85-2.13 1.12-.77.3-1.71.39-2.52.27-1.63-.23-3.03-.93-4.32-1.72v.28c.08.01.15.03.23.04.68.17.15 1.38-.3 1.27-.23-.06-.69-.12-1.16-.13-.47 0-.96.05-1.26.1-1.15.21-1.69.6-2.23 1.11-.77.77-.87 1.56-.86 2.32.04.78.21 1.54.98 2.38.1.13.22.24.33.37.1.13.22.25.37.35.49.38 1.1.56 1.7.76.22.07.44.15.67.18l.3.05c.33.02.5.18.83.11.32-.06.81-.06 1.13-.14a.73.73 0 0 0 .33-.25c-.08-.23-.11-.43-.08-.54.09-.61.5-.72.85-.63.38.09.69.26 1.08.64.72.7 1.69 1.53 2.84 1.99 1.42.57 3.22 1.08 4.72 1.46 3.65.91 6.26 1.03 8.12 1.23.6.06 1.05.2 1.66.27.62.07 1.62.12 2.24.2 1.21.17 2.61.19 3.84.21 1.85.04 3.26.04 5.1-.07.89-.06 2.16-.03 3.04-.15 2.3-.3 4.32-.27 6.67-.57 2.67-.33 7.13-1.02 10.44-2.07 2.16-.69 4.39-1.55 5.91-3.05.54-.55.95-.68 1.24-.49.08.05.12.15.15.26h.04c.11-.44.38-.81.6-.8.34 0 .71.3 1.11.25.48-.06 1.04-.17 1.51-.28 1.15-.28 1.76-.87 2.18-1.22.14-.12.31-.13.45-.25.16-.11.32-.36.47-.48.3-.24.45-.63.56-.97.06-.26.13-.49.12-.74.01-.24.03-.49-.06-.74-.03-.25-.09-.59-.23-.79-.41-.44-.63-.9-1.24-1.2-.33-.17-.84-.31-1.39-.43-.56-.09-1.18-.13-1.72-.11-.72.03-1.45.14-2.1.37-.26.1-.53-.22-.64-.56 0 0-.01 0-.01.01 0-.02 0-.05-.01-.07a.62.62 0 0 1-.02-.3c-.03-.42-.07-.82-.13-1.22-1.05.43-2.15.58-3.18.69"/><path class="st1" d="M129.14 27.16c-3.02.59-6.13 1.35-8.08 1.95-3.67 1.11-6.39 2.35-8.73 3.67-2.33 1.34-4.29 2.77-6.23 4.65-5.58 5.61-8.6 10.1-10.78 15.02-1.14 2.44-1.93 5.06-2.61 8.06-.67 3-.99 6.45-.95 10.6.03 2.4.13 4.65.37 7.06.25 2.11.57 4.18.97 6.25l.56 3.14c.13 1.06.31 2.12.37 3.21.14 1.58.12 3.17-.04 4.77l-.14 1.04-.23 1.03c-.65 2.23-1.53 3.24-2.91 4.93-.69.83-1.56 1.8-2.08 2.92-.53 1.12-.71 2.4-.57 3.39.13.89.5 1.72 1.02 2.38.55.64 1.24 1.06 1.93 1.29.81.28 1.59.22 2.22.17.32-.06.6-.08.84-.12.23-.06.42-.1.54-.11.88-.06 1.23.14 1 .66-.01.02-.05.06-.06.08.03.27-.02.62-.21 1-.26.71-.62 2.16-.16 3.55.38 1.43 1.61 2.45 2.47 2.82 1.56.67 3.01.43 4.16 0 1.18-.41 2.09-1.16 3.06-1.95.1-.08.21-.13.35-.15.39-.05.74.21.79.6v.01c.02.15.04.32.07.49.47 3.89 2.74 6.08 5.19 6.58 2.45.51 5.35-.63 7.48-4.2.27-.54.56-1.05.85-1.57l.06-.1c.09-.16.24-.29.43-.35.4-.13.84.09.97.49.15.47.41.9.78 1.27.66.65 1.61 1.01 2.58 1.12.98.12 1.99-.04 2.95-.34.71-.23 1.38-.57 2-.99.27-.18.53-.38.77-.6.78-.72 1.25-1.08 1.8-2.01.54-.91 1.24-2.38 1.51-3.45.28-.96.13-1.97.15-2.91-.01-.76.11-1.38.25-1.78-.16 0-.3-.01-.45-.01-1.19-.05-2.29-.2-3.48-.32-2.08-.19-4.12-.36-6.17-.7-.75-.13-1.49-.27-2.23-.42l-.97-.19c-1.05-.22-1.56-.48-2.62-.68-1.04-.2-2.54-.74-3.55-1.16-.9-.37-1.9-.54-2.82-1.07-.11-.06-.2-.13-.3-.2l-.32.06c-.27.02-.53.02-.77.1-.6.14-1.33.21-1.91.12-1.41-.18-2.36-.4-3.02-.71-.21-.1-.33-.25-.51-.41-.19-.15-.53-.32-.68-.53-.3-.36-.69-.72-.96-1.12-.2-.3-.36-.57-.47-.87-.15-.29-.22-.59-.33-.94-.12-.35-.05-.83-.13-1.18-.15-.94.3-1.77.85-2.56.33-.45.88-1 1.57-1.34.68-.35 1.46-.55 2.13-.63.82-.09 1.64-.04 2.45.13v-.28c-.01-.01-.03-.01-.04-.02-.26-.17-.47-.33-.62-.49-.42-.42-.48-.79-.32-.95.23-.24.85-.16 1.63.33.78.48 2.34 1.39 4.03 1.54 1.62.18 3.26-.99 4.12-1.71 1.1-.93 1.72-2.04 1.69-2.73a.59.59 0 0 1 .16-.44c.23-.25.61-.27.86-.04l.04.04c.85.77 1.85 1.16 2.82 1.37.97.2 1.95.23 2.95.05 1.06-.19 1.94-.65 2.48-1.23.55-.57.75-1.24.88-1.74l.01-.03c.03-.12.09-.23.19-.32a.7.7 0 0 1 1 .01c1.94 1.97 4.27 2.8 6.66 2.83 1.18-.01 2.49-.22 3.58-.86 1.08-.62 1.87-1.91 2.68-3.56.1-.21.3-.38.54-.43.44-.11.88.16.99.6l.02.08c.01.05.04.16.07.28.28 1.12 1.1 2.06 2.29 2.66 2.11 1.01 4.73 1.04 6.55-.31.53-.38.97-.86 1.28-1.4l.01-.02a.57.57 0 0 1 .29-.26c.33-.16.72-.02.88.31.08.16.15.32.24.47.18.31.39.61.64.89.8.87 1.27 1.38 2.4 1.84 1.1.47 2.93.77 4.18.6 1.12-.12 2.08-.72 2.83-1.31.87-.67 1.41-1.19 1.7-1.36.45-.28.84-.3 1.06.05l.02.02c.21.36.14 1.24-.6 2.03-.54.55-1.16.92-1.81 1.19.06.4.11.81.13 1.22.02-.14.09-.25.22-.3.52-.23 2-.57 2.73-.54 1.34-.01 2.11.05 3.07.41.41.15.75.36 1.06.57.15.11.29.22.41.34.51.47.86 1.01 1.06 1.59.1.26.17.53.18.8.04.28.07.57.03.86-.01.57-.15 1.29-.53 2.02-.23.42-.56.72-.87 1.03-.55.56-1.14 1.05-1.82 1.38-.24.13-.51.21-.76.32-.11.05-.22.08-.33.12-.36.14-.59.06-.94.22s-.92.19-1.3.23c-.34.03-.67.34-1.05.41-.43.11-.73-.24-.78-.42-.03-.12-.04-.24-.03-.37-.05.24-.18.51-.45.79-.58.61-1.82 1.53-3.22 2.19-1.39.69-2.9 1.18-3.88 1.47-3.68 1.03-5.74 1.39-8.43 1.78-1.03.13-1.97.24-2.86.33.03.07.05.13.08.22.08.25.15.55.21.91.08.35.16.76.22 1.21.26 1.77 1.03 5.26 3.38 7.86 1.14 1.3 2.63 2.3 4.14 2.86 1.51.58 2.99.74 4.14.72 2.12-.02 3.98-.61 5.43-1.47 1.44-.88 2.44-2.13 2.65-3.43.02-.12.07-.24.16-.33.24-.26.64-.28.9-.04l.03.03c1.16 1.07 2.36 1.97 3.75 2.42 1.37.44 2.86.53 4.29.07 1.19-.38 2.21-1.11 2.83-2.04.65-.9 1.02-1.94 1.04-2.93.13-2.01-.68-3.69-1.39-4.95v-.01c-.12-.22-.12-.5.02-.73.21-.34.65-.44.98-.23 1.04.65 2.13 1.12 3.21 1.17 1.07.06 2.07-.32 2.83-1.01 1.52-1.36 2.14-3.85 1.2-5.63-.53-.95-1.34-1.98-2.07-3.03-.75-1.05-1.54-2.16-2.3-3.37-.76-1.21-1.5-2.54-2.09-4.05-.56-1.77-.46-3.43-.42-5.2.14-2.91.53-5.55.83-8.4.55-4.99.98-9.87 1.06-14.81.01-1.82.01-3.58-.3-5.32-.13-.75-.29-1.51-.48-2.25-.66-2.41-1.02-3.7-2.13-5.96-1.09-2.22-2.99-5.46-4.59-7.43-1.41-1.79-3.16-3.18-4.85-4.54-1.97-1.57-3.41-2.9-3.78-3.4-.25-.32-.67-.74-.7-.94 0-.01.01-.01.01-.02-.02-.06-.01-.13.04-.17l.23-.21c.21-.19.59-.35 1.12-.41.88-.11 2.52-.31 4.23-.52.85-.1 1.63-.24 2.15-.61.54-.36.88-.91 1.1-1.38.42-.88.64-1.82.86-2.65.21-.82.34-1.56.32-2.24-.03-1.33-.65-2.43-1.69-3.32-1.12-.94-2.42-1.31-3.64-1.43-1.22-.12-2.39-.01-3.51.18-2.25.4-4.35 1.08-6.72 2.39l-.01.01c-.1.06-.22.09-.35.1a.781.781 0 0 1-.8-.76c-.03-1.07-.58-2.88-2.15-4.67-.83-.97-1.67-1.87-2.68-2.71-1.77-1.45-3.8-2.48-5.96-2.76-.79-.09-1.59-.08-2.36.07-.33.07-.67.15-.98.27-.52.19-.91.35-1.27.56-.37.2-.72.45-1.07.87-.34.41-.72.97-.98 1.6-.27.62-.42 1.31-.48 1.88-.09 1.03.26 2.03.52 3 .29 1.12.26 2.07.14 2.39-.29.83-1 .79-1.48.01-1 .04-2.01.08-3.02.13-.35.23-1.16.4-2.37.45-1.57-.01-4.5.29-7.52.89"/><path class="st3" d="M190.69 104.52c-.29-.61-.61-1.03-.92-1.48-.31-.43-.62-.86-.92-1.28-.6-.83-1.18-1.62-1.74-2.43-1.1-1.62-2.16-3.28-2.97-5.31-.44-1.25-.43-2.88-.39-4.44.07-1.58.2-3.15.39-4.62.16-1.51.43-3.94.59-5.45.17-1.48.38-2.6.51-4.07.19-2.29.38-5.02.42-8.34.01-1.66.04-3.47-.19-5.49-.25-2-.75-4.12-1.53-6.35-1.28-3.68-3.57-7.8-6.01-10.89-1.97-2.51-4.05-4.95-6.58-6.89-.51-.39-.99-.69-1.43-.93l3.14-.36c.66-.08 1.4-.14 2.17-.42.78-.28 1.48-.87 1.92-1.53.69-1 1-2.14 1.3-3.2.3-1.08.61-2.28.5-3.56-.09-1.3-.72-2.47-1.47-3.29a7.074 7.074 0 0 0-2.43-1.73c-1.4-.59-2.77-.78-4.1-.79-1.33 0-2.62.21-3.95.61-1.01.3-2.46.71-3.42 1.16-.56.26-1.06.51-1.55.77-.16-.89-.46-1.74-.94-2.61-.72-1.32-1.86-2.54-2.84-3.59-.5-.54-1.42-1.29-2.02-1.74-.57-.45-.99-.84-1.62-1.2-.99-.55-2.26-1.11-3.92-1.37-1.65-.23-3.73-.16-5.84 1.04a6.29 6.29 0 0 0-2.28 2.25c-.58.96-.86 2.06-.97 3.04-.16 1.59-.25 3.16.08 4.66.09.38.22.69.37.94.48.78 1.19.82 1.48-.01.12-.32.15-1.26-.14-2.39-.25-.97-.6-1.96-.51-3 .06-.57.21-1.25.48-1.88.27-.63.64-1.19.98-1.6.35-.42.7-.67 1.07-.87.36-.21.75-.37 1.27-.56.32-.12.65-.21.99-.27.77-.16 1.57-.16 2.36-.07 2.15.28 4.19 1.31 5.96 2.76 1.01.84 1.85 1.74 2.68 2.71 1.57 1.78 2.12 3.6 2.15 4.67a.781.781 0 0 0 1.15.67l.01-.01c2.37-1.32 4.48-2 6.72-2.39 1.12-.19 2.28-.3 3.51-.18 1.22.13 2.52.49 3.64 1.43 1.05.9 1.67 1.99 1.7 3.32.02.67-.11 1.41-.32 2.24-.23.83-.44 1.77-.86 2.65-.22.47-.57 1.02-1.1 1.38-.52.37-1.31.51-2.15.61-1.71.21-3.35.42-4.23.52-.53.06-.91.23-1.12.42l-.23.21c-.05.04-.06.11-.04.17 0 .01-.01.01-.01.02.04.2.45.62.7.94.37.5 1.82 1.82 3.79 3.4 1.69 1.36 3.44 2.74 4.85 4.54 1.6 1.97 3.49 5.21 4.59 7.43 1.11 2.26 1.47 3.55 2.13 5.96.2.75.35 1.5.48 2.25.31 1.75.31 3.5.3 5.32-.09 4.94-.52 9.82-1.07 14.81-.31 2.85-.69 5.5-.83 8.4-.04 1.77-.13 3.43.43 5.2.59 1.52 1.33 2.84 2.09 4.06.76 1.21 1.54 2.32 2.3 3.37.73 1.04 1.54 2.08 2.07 3.03.95 1.77.32 4.27-1.2 5.63-.76.69-1.76 1.07-2.83 1.01-1.07-.05-2.16-.52-3.2-1.17a.702.702 0 0 0-.98.23c-.14.23-.14.51-.02.72v.01c.7 1.26 1.52 2.94 1.39 4.95-.03 1-.4 2.03-1.04 2.94-.62.93-1.64 1.66-2.83 2.04-1.43.47-2.92.37-4.29-.07-1.39-.45-2.59-1.36-3.75-2.42l-.03-.03a.638.638 0 0 0-1.06.37c-.21 1.31-1.21 2.55-2.65 3.43-1.45.86-3.31 1.45-5.43 1.47-1.15.02-2.64-.14-4.14-.72-1.51-.55-3-1.56-4.14-2.86-2.35-2.6-3.12-6.08-3.38-7.86-.06-.45-.14-.86-.22-1.21-.06-.35-.13-.66-.21-.91-.03-.08-.05-.15-.08-.22.88-.09 1.82-.2 2.86-.33 2.69-.38 4.76-.75 8.43-1.77.98-.29 2.49-.78 3.88-1.47 1.4-.66 2.64-1.58 3.22-2.19.27-.28.4-.55.45-.79 0 .12 0 .25.03.37.05.18.34.53.78.42.37-.07.7-.38 1.05-.41.38-.04.95-.07 1.3-.23.35-.16.58-.08.94-.22.11-.04.22-.07.33-.12.25-.11.51-.19.76-.32.68-.32 1.27-.81 1.82-1.38.32-.32.64-.62.87-1.03.38-.73.51-1.44.53-2.02.04-.29 0-.58-.03-.86-.02-.28-.09-.54-.18-.8-.2-.58-.56-1.12-1.06-1.59a4.444 4.444 0 0 0-1.47-.91c-.96-.36-1.73-.42-3.07-.41-.72-.03-2.2.31-2.72.54-.14.05-.21.17-.23.3-.02.09 0 .2.02.3.01.02.01.04.02.07.11.34.38.66.64.56.65-.24 1.38-.35 2.1-.37.54-.03 1.16.02 1.72.11.55.12 1.06.25 1.39.43.61.3.84.76 1.24 1.2.14.2.2.54.23.79.08.25.07.5.06.74.01.25-.06.48-.12.74-.11.34-.26.74-.56.97-.15.12-.31.37-.47.48-.14.12-.31.14-.45.25-.41.35-1.02.94-2.18 1.22-.47.1-1.04.21-1.51.28-.4.05-.76-.25-1.11-.25-.22-.01-.49.36-.6.8l-.03.15c0-.05 0-.11-.01-.15-.03-.11-.07-.21-.15-.26-.28-.19-.7-.06-1.23.49-1.52 1.49-3.75 2.35-5.91 3.05-3.31 1.05-7.77 1.74-10.44 2.07-2.34.3-4.36.27-6.67.57-.88.12-2.15.1-3.04.15-1.84.11-3.25.11-5.1.07-1.23-.03-2.63-.04-3.84-.21-.62-.08-1.62-.13-2.24-.2-.61-.08-1.06-.21-1.66-.27-1.86-.19-4.46-.32-8.12-1.23-1.5-.38-3.3-.89-4.72-1.46-1.16-.46-2.12-1.29-2.84-1.99-.39-.37-.7-.55-1.08-.64-.35-.09-.76.02-.85.63-.03.11 0 .31.09.54-.1.11-.21.21-.34.25-.32.08-.8.08-1.13.14-.33.07-.51-.09-.83-.11l-.3-.05c-.23-.03-.45-.11-.68-.19-.6-.2-1.2-.38-1.7-.76-.15-.1-.27-.22-.37-.35-.1-.13-.23-.23-.33-.37-.77-.84-.94-1.6-.98-2.38-.01-.76.08-1.56.86-2.32.54-.51 1.08-.9 2.23-1.11.3-.05.79-.1 1.26-.1.47.01.92.07 1.16.13.44.11.98-1.1.3-1.27-.08-.02-.15-.03-.23-.04-.8-.16-1.62-.22-2.45-.13-.67.08-1.45.28-2.13.63-.69.34-1.24.89-1.57 1.34-.55.79-1 1.62-.85 2.56.08.35.01.83.13 1.18.1.35.18.66.33.94.11.3.27.57.47.87.27.4.66.76.96 1.12.14.21.49.38.68.53.18.15.3.31.51.41.66.3 1.61.53 3.02.71.59.09 1.32.02 1.91-.12.24-.08.5-.07.77-.1l.32-.06c.09.07.19.14.3.2.91.53 1.91.7 2.82 1.07 1.01.42 2.51.96 3.55 1.16 1.05.2 1.57.46 2.62.68l.97.19c.74.15 1.48.29 2.23.42 2.05.34 4.09.51 6.17.71 1.19.11 2.29.27 3.48.32.16.01.3.01.45.01-.14.4-.27 1.02-.25 1.78-.02.94.13 1.95-.15 2.91-.27 1.08-.97 2.54-1.51 3.45-.55.93-1.02 1.29-1.8 2.01-.25.21-.5.42-.77.6-.62.42-1.29.75-2 .99-.97.3-1.98.46-2.95.34-.97-.1-1.92-.46-2.58-1.12-.38-.37-.63-.8-.78-1.27a.773.773 0 0 0-.97-.49c-.19.06-.34.19-.43.35l-.06.1c-.29.51-.58 1.02-.85 1.57-2.13 3.57-5.03 4.71-7.48 4.2-2.45-.5-4.72-2.69-5.18-6.58-.02-.17-.05-.34-.07-.49v-.02a.707.707 0 0 0-.79-.6.66.66 0 0 0-.34.15c-.97.79-1.88 1.54-3.06 1.95-1.14.43-2.59.67-4.15 0-.86-.38-2.09-1.4-2.47-2.82-.46-1.39-.1-2.84.16-3.55.19-.37.24-.72.21-1 .02-.02.05-.06.06-.08.23-.52-.11-.72-1-.66-.12.01-.31.04-.54.11-.24.04-.53.06-.84.12-.64.05-1.42.12-2.23-.17a4.31 4.31 0 0 1-1.93-1.29c-.52-.65-.9-1.48-1.03-2.38-.14-1 .03-2.27.57-3.39.52-1.11 1.39-2.09 2.08-2.92 1.38-1.69 2.26-2.7 2.91-4.93l.23-1.04.14-1.04c.16-1.6.18-3.19.04-4.77-.05-1.09-.23-2.14-.37-3.21l-.55-3.14c-.39-2.06-.71-4.14-.97-6.25-.25-2.41-.35-4.66-.37-7.06-.04-4.15.28-7.6.95-10.6.68-2.99 1.47-5.61 2.61-8.05 2.18-4.92 5.2-9.41 10.78-15.02 1.95-1.89 3.91-3.31 6.24-4.65 2.34-1.32 5.05-2.56 8.72-3.67 1.95-.6 5.06-1.36 8.08-1.94 3.02-.6 5.95-.9 7.53-.95 1.21-.05 2.03-.22 2.37-.45.1-.07.17-.14.19-.22.08-.31-.73-.71-2.61-.64-4.97.23-9.79 1.24-14.55 2.46-3.58.97-7.6 2.46-11.08 4.53-1.75 1.03-3.36 2.19-4.73 3.4-1.39 1.22-2.45 2.47-3.45 3.48-3.31 3.69-5.99 7.08-8.05 11.54-.4.85-.82 1.9-1.28 2.94-.43 1.05-.78 2.14-1.08 3.03-1.06 3.74-1.56 6.67-1.85 10.54-.03.65-.07 1.31-.1 1.99 0 .68.01 1.36.01 2.05-.03 1.37.09 2.73.1 4.01.06 1.3.27 3.4.46 4.69.17 1.27.18 2.25.42 3.49.32 1.95.86 4.19 1.19 6.94.13 1.37.28 2.88.18 4.49-.1 1.6-.37 3.35-1.31 4.93-.72 1.33-2.02 2.49-3.17 4.02-1.21 1.55-1.71 3.63-1.52 5.43.16 1.46.65 2.94 1.7 4.1 1.02 1.17 2.71 1.87 4.29 1.69.21-.03.42-.05.62-.08.19-.04.36-.12.53-.18.01 0 .02-.01.02-.01-.32 1.14-.39 2.37-.08 3.54.36 1.4 1.26 2.68 2.48 3.48 1.49 1.01 3.61 1.26 5.37.73 1.21-.34 2.22-.95 3.07-1.57.07.37.14.68.24.96.34 1.34 1 2.49 1.77 3.52.83 1 1.92 1.8 3.25 2.24 1.02.28 2.54.54 3.59.28 2.14-.46 3.56-1.49 4.93-3.05.49-.5.82-1.15 1.26-1.73.17-.3.33-.6.49-.89.35.51.81.99 1.21 1.25.61.43 1.1.75 1.82.94 1.11.28 2.49.29 4.01-.16 1.52-.44 3.19-1.4 4.67-3.01 1.25-1.32 2.24-3.32 2.68-5.05.38-1.4.9-2.78.94-4.24 0-.32-.04-.59-.1-.82 2.98.06 5.21-.01 7.4-.1 1.73-.09 3.45-.19 5.49-.39 0 .01-.01.02-.01.04-.09.51-.13 1.31.04 2.41.42 2.9 1.44 5.83 3.36 8.21 1.9 2.38 4.8 3.96 7.82 4.32 2.2.3 4.63 0 6.78-.95 1.07-.48 2.08-1.13 2.89-1.97.49-.51.89-1.1 1.19-1.74 1.89 1.57 4.17 2.45 6.3 2.41 2.52-.01 4.6-1.35 5.71-2.85 1.12-1.48 1.54-3.31 1.42-5-.05-.42-.11-.84-.16-1.25l-.37-1.18c-.01-.04-.03-.07-.04-.11.44.16.9.29 1.39.34 1.31.16 2.75-.17 3.84-1.02.99-.73 1.89-1.96 2.31-3.35.32-1.43.22-2.99-.32-4.11"/><path class="st3" d="M116.02 97.27c.78-.28 1.48-.67 2.13-1.12a9.3 9.3 0 0 0 1.9-1.77c.28-.36.54-.77.73-1.22 1.23.77 2.6 1.1 3.85 1.18 1.62.09 3.13-.23 4.22-.9.88-.51 1.58-1.27 2.02-2.14.97.82 2.1 1.45 3.39 1.82 1.13.35 2.81.66 4 .54 1.22-.1 2.28-.36 3.29-.85 1.02-.49 1.85-1.33 2.51-2.35.19-.29.36-.6.53-.91.23.51.54.97.88 1.36.28.34.73.68 1.19.99.48.28.98.52 1.37.66.77.29 1.36.53 2.18.62.92.08 2.03.05 3.23-.38.93-.35 1.96-.94 2.79-1.95a7.998 7.998 0 0 0 4.76 3.37c1.14.3 2.33.35 3.38.24 1.03-.11 2.13-.26 3.15-.68.65-.27 1.27-.64 1.81-1.19.74-.79.81-1.67.6-2.03l-.02-.02c-.21-.35-.61-.32-1.06-.05-.28.17-.82.69-1.69 1.36-.75.59-1.71 1.19-2.84 1.31-1.25.17-3.07-.13-4.18-.6-1.13-.46-1.6-.97-2.4-1.84-.24-.28-.45-.58-.64-.89-.09-.15-.17-.31-.24-.47a.657.657 0 0 0-.88-.31c-.12.06-.22.15-.29.27l-.01.02c-.32.54-.75 1.03-1.28 1.4-1.82 1.35-4.45 1.32-6.55.31-1.19-.6-2.01-1.54-2.29-2.66-.03-.11-.06-.22-.07-.28l-.02-.08a.817.817 0 0 0-.99-.6c-.24.06-.44.23-.54.43-.81 1.65-1.6 2.93-2.68 3.56-1.09.64-2.4.84-3.58.86-2.38-.03-4.72-.87-6.66-2.83a.71.71 0 0 0-1.19.31l-.01.03c-.13.5-.32 1.17-.88 1.74-.54.58-1.42 1.03-2.48 1.23-1 .18-1.97.15-2.95-.05-.96-.21-1.97-.6-2.82-1.37l-.04-.04a.604.604 0 0 0-.86.04c-.11.12-.17.28-.16.44.03.69-.59 1.81-1.69 2.73-.86.72-2.5 1.89-4.12 1.71-1.69-.15-3.26-1.06-4.03-1.54-.79-.49-1.4-.57-1.63-.33-.16.17-.11.53.32.95.15.16.36.32.62.49.01.01.03.02.04.02 1.29.79 2.69 1.49 4.32 1.72.84.13 1.79.04 2.56-.26m23.1 8.65c.02.67.38 1.2.8 1.19.42-.01.75-.57.73-1.24-.02-.67-.38-1.2-.8-1.19-.42.02-.75.57-.73 1.24m22.95-7.16a3.194 3.194 0 0 1-3.1 3.28 3.194 3.194 0 0 1-3.28-3.1c-.05-1.76 1.34-3.23 3.1-3.28s3.23 1.34 3.28 3.1m-44.73 1.88a3.194 3.194 0 0 0 3.28 3.1 3.194 3.194 0 0 0 3.1-3.28 3.194 3.194 0 0 0-3.28-3.1 3.187 3.187 0 0 0-3.1 3.28"/><path class="st2" d="M87.22 106.13c-.35-.6-.5-1.12-1.11-1.47-.64-.41-2.12-.64-3.31-.49-.79.07-1.58.23-2.33.49-.3.12-.57-.21-.66-.55h-.02l.01-.02c-.05-.22-.03-.44.11-.57-.35-.01-.71-.03-1.06-.07-1.33-.16-2.67-.73-3.84-1.5-.58-.39-1.12-.82-1.62-1.28-.25-.23-.48-.46-.71-.69-.34-.4-.44-.65-.59-.95-.13-.27-.24-.54-.34-.8-.29.44-.6.85-.92 1.22-.65.76-1.45 1.5-2.44 1.78-.96.27-1.77.22-2.52.16-.75-.07-1.43-.23-2.03-.43-.94-.32-1.58-.74-2.4-1.31-.42-.3-.97-.75-1.38-1.33-.31-.43-.53-.9-.68-1.31-.39.98-.92 1.91-1.58 2.67-.99 1.12-2.2 1.9-3.56 2.14-1.37.26-2.8-.06-4.11-.81-1.34-.7-2.65-2.33-3.45-3.44-.1-.13-.18-.25-.27-.38-.34.84-.81 1.61-1.41 2.27a8.808 8.808 0 0 1-3.7 2.48c-1.45.54-3.51.63-5.46-.16-1.41-.55-2.7-1.45-3.64-2.76a7.132 7.132 0 0 1-1.95 2.95c-.72.68-1.61 1.21-2.53 1.53-.91.32-1.83.51-2.75.64-1.28.17-2.58.22-3.9.06.11.43-.4 1.06-.74.92-.23-.1-.69-.23-1.18-.3-.49-.07-1-.07-1.33-.05-1.22.1-1.83.46-2.44.95-.88.74-.98 1.6-.97 2.39.05.81.24 1.64 1.02 2.61.12.13.23.27.33.42.11.14.24.27.38.4.51.42 1.11.7 1.73.94.22.1.46.16.7.24.1.04.21.04.31.06.34.06.51.21.87.15.19-.01.39-.03.6-.04.21 0 .43-.02.6-.06.26-.04.46-.31.61-.5.2-.26.39-.4.69-.54.04-.02.09-.03.13-.03.17-.13.39-.15.59-.1.38.1.68.28 1.06.67.7.72 1.64 1.58 2.78 2.07 1.4.61 3.18 1.17 4.68 1.59 3.63 1.01 6.23 1.21 8.08 1.46.6.08 1.05.23 1.65.32.62.09 1.62.16 2.24.26 1.2.2 2.6.26 3.83.32 1.85.09 3.26.13 5.1.07.89-.03 2.16.03 3.05-.07 2.31-.23 4.33-.15 6.68-.38 2.68-.26 7.15-.82 10.49-1.77 2.18-.63 4.43-1.43 6-2.88.55-.54.97-.66 1.25-.45.02.01.03.04.04.06.15-.47.51-.85.73-.82.35.02.72.35 1.15.3.51-.04 1.12-.18 1.63-.29 1.24-.32 1.87-.99 2.3-1.4.13-.14.32-.17.47-.31.13-.16.31-.38.47-.57.3-.29.45-.74.59-1.12.15-.59.23-1.07.15-1.67-.04-.27-.01-.68-.17-.92"/><path class="st0" d="M89.41 104.87c.45-.45 1.02-.77 1.48-1.21.48-.43.96-.86 1.39-1.34.13-.15.27-.3.41-.46.12-.17.24-.34.37-.51.25-.34.51-.7.76-1.05.55-.68.98-1.44 1.39-2.11.25-.41.49-.8.72-1.18.21-.39.37-.78.55-1.15.33-.75.67-1.41.88-2.06.4-1.31.82-2.36 1.01-3.3.15-.59.36-1.03.53-1.63.21-.61.31-1.62.47-2.24.14-.61.29-1.26.35-1.92.05-.67.09-1.33.14-1.96.1-.94.06-1.77.05-2.6-.02-.83-.01-1.66-.16-2.59-.14-.9-.11-2.2-.38-3.07-.54-2.29-.81-4.32-1.58-6.6-.23-.64-.49-1.4-.78-2.22-.35-.79-.73-1.65-1.12-2.54-.85-1.74-1.84-3.48-2.79-5.08-1.22-2.09-2.4-4.17-3.91-5.96-.53-.58-.59-1.06-.4-1.29-.59-.56-1.22-1.08-1.93-1.52.05-.04.11-.07.16-.1-.33-.4-.01-1.16.98-1.79 1.27-.79 2.69-1.29 3.98-2.07.81-.5 1.7-.94 1.81-1.49.2-.61-.11-1.6-.34-2.46-.54-2.09-1.39-3.67-2.54-4.47-1.25-.93-2.32-1.53-3.26-1.83-.6-.2-1.06-.38-1.71-.43-.68-.06-1.81.07-2.51.14-1.37.11-2.9.61-4.14 1.21-.79.39-1.46.82-2.01 1.3-.09.08-.2.13-.32.13-.3.02-.55-.21-.57-.5v-.01c-.07-1.08-.21-2.11-.5-3.27-.23-.99-.58-2.39-1.01-3.3-.55-1.19-1.09-2.29-1.7-3.35-.62-1.06-1.26-2.14-2.23-2.83-.58-.37-1.31-.77-2.2-.99-.88-.22-1.89-.32-2.92-.27-2.07.09-4.24.86-5.72 2-.99.76-1.77 1.72-2.16 2.88-.4 1.14-.45 2.43-.08 3.54.29.82.31 1.29.02 1.48-.13.08-.37.06-.61-.11-1.3-.08-2.6-.13-3.89-.15a.71.71 0 0 1-.2.18c-.44.26-1.35.36-2.55.35-2.24.06-4.65.01-6.97.36-2.87.43-6.26 1.17-9.02 1.98-6.7 1.95-10.81 4.47-13.69 6.31-.93.6-1.68 1.01-2.6 1.65-.47.33-1.05.8-1.64 1.26-.57.47-1.15.95-1.59 1.31-1.74 1.41-3.48 3.3-4.87 5.07-1.04 1.33-1.9 2.56-2.66 3.84-.77 1.27-1.46 2.59-2.08 4.16-.68 1.48-1.49 3.66-1.91 5.23-1.04 4.11-1.85 7.73-2.07 12.06-.38 4.9.31 13.3 2.92 19.2 1.6 3.93 3.99 7.56 7.17 10.35.88.74 1.3 1.31 1.38 1.66-.02-.88.4-1.67.98-2.4.37-.46 1-1 1.76-1.29.75-.31 1.58-.43 2.3-.44.11 0 .22.01.33.01-.19-.14-.33-.28-.43-.41-.22-.33-.21-.53-.08-.64.2-.13.52-.08 1 .04.25.07.53.15.88.24 1.01.35 3.15.52 5.31.15 1.07-.19 2.17-.46 3-.91.85-.45 1.49-1.08 1.92-1.62.94-1.19 1.28-2.52 1.31-3.42.01-.23.15-.45.38-.55.31-.13.67.02.8.33.61 1.49 1.62 2.49 2.7 3.17 1.09.68 2.28 1.07 3.58 1.11 2.01.05 3.7-.89 4.8-2 1.12-1.12 1.71-2.42 1.91-3.6.04-.2.15-.38.34-.49.34-.21.78-.1.99.24 1.4 2.3 2.77 4.4 5.09 5.25 1.12.41 2.4.37 3.56-.32 1.16-.68 2.19-1.96 2.8-3.59.17-.43.29-.86.4-1.28l.02-.06c.07-.27.27-.49.56-.57.43-.12.88.12 1 .55.35 1.22.61 2.29 1.39 3.04.99.91 2.41 1.55 3.78 1.81.69.13 1.43.18 2.09.12.67-.06 1.17-.29 1.7-.75.76-.67 1.44-1.55 1.97-2.47.12-.21.23-.43.34-.66 0-.01 0-.01.01-.02l.02-.04c.15-.33.54-.46.86-.31.32.15.46.54.31.86.01.1.01.19.03.28.16.66.38 1.23.61 1.73.06.12.12.25.19.35.03.05.06.1.08.12l.15.16c.22.22.47.46.77.69.59.47 1.34 1.03 2.17 1.45.82.43 1.71.71 2.44.79 1.33.15 2.6-.41 3.45-1.11 1.03-.8 1.39-1.54 1.56-1.79.16-.21.28-.43.45-.54.05-.03.11-.03.17-.04.12-.02.24 0 .37.09.19.15.39.5.41 1 .02.5-.15 1.1-.54 1.65-.41.57-.94.99-1.51 1.3 1.12-.03 1.91.03 2.82.39 1.54.66 2.2 1.94 2.39 3 .03.19.05.38.07.57.04-.03.08-.06.12-.08-.33-.36-.16-1.09.52-1.73"/><path class="st3" d="M86.29 103.13c-.92-.37-1.7-.42-2.82-.39a4.54 4.54 0 0 0 1.51-1.3c.39-.54.56-1.15.54-1.65-.02-.5-.22-.85-.41-1-.13-.09-.25-.1-.37-.09-.06.01-.11.01-.17.04-.16.11-.28.33-.45.54-.17.26-.53.99-1.56 1.79-.85.7-2.12 1.26-3.45 1.11-.73-.07-1.62-.35-2.44-.79-.82-.42-1.58-.98-2.17-1.45-.3-.24-.55-.47-.77-.69l-.15-.16c-.02-.02-.05-.07-.08-.12-.07-.1-.13-.23-.19-.35-.23-.5-.45-1.07-.61-1.73-.02-.09-.03-.18-.03-.28.15-.32.01-.71-.31-.86a.651.651 0 0 0-.86.31l-.02.04c0 .01 0 .01-.01.02-.11.22-.22.44-.34.66-.52.91-1.21 1.79-1.97 2.47-.52.45-1.03.68-1.7.75-.66.06-1.4.01-2.09-.12-1.37-.26-2.8-.9-3.78-1.81-.78-.74-1.04-1.81-1.39-3.04a.798.798 0 0 0-1-.55c-.28.08-.49.3-.56.57l-.02.06c-.11.42-.23.86-.4 1.28-.61 1.63-1.64 2.91-2.8 3.59-1.16.69-2.44.74-3.56.32-2.32-.85-3.69-2.95-5.09-5.25a.718.718 0 0 0-.99-.24c-.19.11-.3.3-.34.49-.2 1.18-.79 2.49-1.91 3.6-1.1 1.1-2.79 2.04-4.8 2-1.3-.03-2.5-.43-3.58-1.11-1.08-.68-2.09-1.68-2.7-3.17a.614.614 0 0 0-1.18.22c-.03.9-.37 2.23-1.31 3.42-.42.54-1.07 1.17-1.92 1.62-.83.45-1.93.72-3 .91-2.16.37-4.3.2-5.31-.15-.35-.1-.63-.18-.88-.24-.48-.13-.8-.18-1-.04-.13.1-.14.31.08.64.09.13.24.27.43.41-.11-.01-.22-.01-.33-.01-.72 0-1.55.13-2.3.44-.76.29-1.39.83-1.76 1.29-.58.73-.99 1.52-.97 2.4-.08-.35-.5-.93-1.38-1.66-3.18-2.79-5.57-6.42-7.17-10.35-2.61-5.9-3.29-14.3-2.93-19.21.22-4.33 1.03-7.96 2.07-12.06.41-1.57 1.23-3.75 1.9-5.23.62-1.57 1.32-2.89 2.08-4.16.76-1.28 1.61-2.51 2.66-3.84 1.39-1.77 3.13-3.66 4.87-5.07.44-.37 1.02-.84 1.59-1.31.59-.45 1.17-.93 1.64-1.26.92-.64 1.67-1.05 2.6-1.65 2.88-1.84 6.99-4.36 13.69-6.31 2.76-.81 6.15-1.55 9.02-1.98 2.32-.35 4.73-.29 6.97-.36 1.2.01 2.12-.09 2.55-.35.09-.05.15-.11.2-.18.18-.25.03-.58-.57-.91-.22-.12-.71-.3-1.42-.42-.7-.13-1.68-.14-2.65-.01-1.72.21-3.41.67-5.16.93-1.96.28-4.83.78-6.68 1.34-1.89.56-2.91.72-4.78 1.35l-1.71.61c-1.31.49-2.61 1-3.89 1.59-3.51 1.58-6.77 3.59-9.85 5.95-1.76 1.35-3.38 2.65-4.91 4.26a40.263 40.263 0 0 0-5.91 7.91c-.35.63-.66 1.25-.97 1.85-.27.62-.54 1.22-.8 1.82-.56 1.18-.93 2.38-1.35 3.55C1.19 67.1.08 71.93.01 79.18c0 .63-.03 1.24.01 1.84l.12 1.78c.05.59.07 1.18.14 1.77.09.59.17 1.19.26 1.8.33 2.46.99 5.12 2.12 8.46.37.86.82 1.97 1.37 3.17.32.58.66 1.18 1 1.79.33.62.68 1.24 1.12 1.8.41.57.82 1.14 1.22 1.69.38.56.88.99 1.27 1.45.41.45.8.86 1.14 1.23.35.37.72.62.99.87 1.02.85 1.78 1.14 2.09 1.02.07-.02.12-.06.15-.13v.06c.01.06.01.12.02.19.03.34.01.75.11 1.05.19.73.43 1.26.79 1.9.15.2.3.41.46.62.17.19.34.39.48.6.16.19.48.44.67.6.19.15.29.33.5.46.67.36 1.65.68 3.13.96.62.09 1.39.1 2.02-.06.5-.1 1.1.01 1.59-.26.19.21.41.4.68.56.9.55 1.89.75 2.78 1.14 1 .45 2.49 1.03 3.52 1.26 1.04.23 1.55.51 2.59.75l.96.22c.74.17 1.48.33 2.22.48 2.04.4 4.07.63 6.15.88 1.18.15 2.28.33 3.47.41 4.1.27 6.83.27 9.5.23 2.67-.07 5.3-.15 9.19-.53 2.7-.31 4.77-.61 8.48-1.53.98-.26 2.51-.71 3.92-1.36 1.42-.62 2.68-1.5 3.28-2.09.2-.19.31-.38.39-.56.12.19.39.42.77.36.42-.05.8-.34 1.17-.37.42-.03 1.04-.07 1.41-.24.38-.16.63-.1 1.02-.25.12-.04.24-.09.36-.14.27-.12.55-.22.81-.38.73-.38 1.33-.96 1.89-1.6.33-.35.63-.71.86-1.15.56-1.31.64-2.32.55-3.26-.02-.19-.04-.38-.07-.57-.2-1.04-.85-2.32-2.39-2.97m.95 5.61c-.14.38-.28.83-.59 1.12-.16.19-.34.4-.47.57-.15.14-.33.17-.47.31-.43.4-1.06 1.07-2.3 1.4-.51.11-1.11.26-1.63.29-.43.05-.8-.28-1.15-.3-.22-.03-.57.35-.73.82-.02-.02-.02-.05-.04-.06-.28-.2-.7-.08-1.25.45-1.57 1.45-3.82 2.24-6 2.88-3.34.96-7.81 1.51-10.49 1.77-2.35.23-4.37.15-6.68.38-.89.1-2.15.04-3.05.07-1.85.06-3.26.01-5.1-.07-1.23-.06-2.63-.12-3.83-.32-.62-.1-1.62-.17-2.24-.27-.6-.09-1.05-.24-1.65-.32-1.85-.25-4.45-.44-8.08-1.46-1.49-.42-3.27-.99-4.68-1.59-1.14-.49-2.09-1.35-2.78-2.07-.38-.38-.68-.57-1.06-.67a.662.662 0 0 0-.59.1c-.04 0-.09.01-.13.03-.3.14-.49.28-.69.54-.15.2-.35.46-.61.5-.17.05-.38.06-.6.06-.21.02-.41.03-.6.04-.35.06-.53-.1-.87-.15-.1-.02-.21-.03-.31-.06-.23-.08-.47-.14-.7-.24-.62-.24-1.22-.52-1.73-.94-.14-.13-.26-.26-.38-.4-.1-.15-.2-.29-.33-.42-.78-.97-.97-1.8-1.02-2.61-.01-.79.1-1.65.97-2.39.6-.49 1.22-.85 2.44-.95.33-.02.84-.02 1.33.05.49.07.95.2 1.18.3.34.14.84-.49.74-.92 1.31.16 2.61.1 3.89-.06.92-.13 1.84-.32 2.75-.65.92-.32 1.82-.86 2.53-1.53.9-.82 1.57-1.84 1.95-2.95.94 1.31 2.23 2.2 3.64 2.76 1.96.79 4.01.7 5.46.16a8.745 8.745 0 0 0 3.7-2.48c.6-.66 1.07-1.44 1.41-2.27.09.13.17.26.27.38.8 1.11 2.11 2.74 3.45 3.44 1.31.75 2.74 1.07 4.11.81 1.37-.24 2.58-1.02 3.56-2.14.67-.76 1.19-1.7 1.58-2.67.15.41.37.88.68 1.31.41.58.96 1.03 1.38 1.33.81.57 1.46.99 2.4 1.31.61.2 1.28.36 2.03.43.74.06 1.56.11 2.52-.16.99-.28 1.79-1.01 2.44-1.78.32-.37.62-.78.92-1.22.1.26.21.53.34.8.16.3.26.56.59.95.23.24.46.47.71.69.49.46 1.03.89 1.62 1.28 1.16.78 2.51 1.35 3.84 1.5.35.04.7.06 1.06.07-.14.13-.16.36-.11.57 0 .01-.01.02-.01.02s.01 0 .01-.01c.09.34.36.66.67.55.74-.27 1.54-.43 2.32-.49 1.19-.15 2.67.08 3.31.49.61.35.75.88 1.11 1.47.16.24.13.65.17.94.1.61.02 1.09-.13 1.68"/><path class="st3" d="M100.9 75.13c-.48-2.73-.87-5.45-2.29-9.24-.21-.68-.49-1.28-.76-1.88-.27-.6-.55-1.2-.83-1.83-.3-.62-.69-1.24-1.07-1.94-.39-.7-.81-1.46-1.31-2.27-.52-.88-1.33-2.26-2.17-3.57-.84-1.32-1.76-2.52-2.3-3.14-.61-.68-1.18-.73-1.4-.45-.18.24-.13.71.4 1.29 1.51 1.79 2.69 3.87 3.91 5.96.94 1.6 1.94 3.34 2.79 5.08l1.12 2.53c.29.82.56 1.57.78 2.22.77 2.28 1.04 4.31 1.58 6.6.27.87.24 2.17.38 3.07.15.93.14 1.76.16 2.59.01.83.05 1.66-.05 2.6-.04.63-.09 1.29-.14 1.96-.06.66-.21 1.32-.35 1.92-.15.62-.26 1.64-.47 2.24-.17.6-.38 1.03-.53 1.63-.19.94-.61 1.99-1.01 3.3-.21.65-.56 1.32-.88 2.06-.17.37-.34.76-.55 1.15-.23.38-.47.77-.72 1.18-.41.68-.84 1.43-1.39 2.11-.26.35-.51.7-.76 1.05-.12.17-.25.34-.37.51-.14.15-.27.31-.4.46-.43.49-.91.91-1.39 1.34-.46.44-1.03.76-1.48 1.21-.68.64-.85 1.37-.54 1.75.14.17.36.28.7.25.31-.02 1.14-.4 1.91-1.24.68-.71 1.06-1.7 1.74-2.42.39-.4.8-.95 1.21-1.5.41-.55.81-1.1 1.1-1.56.5-.99.91-1.42 1.46-2.38.18-.29.31-.61.46-.91l1.02-2.13c.39-1 .73-2.02 1.08-3.04.27-1.04.53-2.08.8-3.13.23-1.21.51-2.34.68-3.57.46-4.25.15-7.1-.12-9.86M57.88 32.79c.29-.18.27-.66-.02-1.48-.37-1.12-.33-2.4.08-3.54.39-1.16 1.18-2.12 2.16-2.88 1.48-1.14 3.65-1.91 5.72-2 1.03-.05 2.04.04 2.92.27.89.21 1.62.62 2.2.99.96.69 1.61 1.77 2.23 2.83.61 1.07 1.15 2.16 1.7 3.35.43.91.78 2.31 1.01 3.3.28 1.16.43 2.2.49 3.28v.01c.02.3.27.52.57.51.12-.01.24-.06.32-.14.55-.49 1.22-.91 2.01-1.3 1.23-.61 2.76-1.1 4.14-1.21.7-.07 1.83-.2 2.51-.14.65.05 1.11.23 1.71.43.94.31 2.01.91 3.26 1.83 1.15.8 2 2.38 2.54 4.47.23.87.54 1.85.34 2.46-.11.56-1 .99-1.81 1.49-1.29.78-2.71 1.28-3.98 2.07-.99.62-1.32 1.39-.98 1.79.13.15.35.26.67.27.34.01 1.29-.25 2.29-.98.86-.63 1.64-1.43 2.59-2 .51-.34 1.21-.6 1.9-1.28.34-.34.58-.83.65-1.28.07-.45.03-.85-.03-1.18-.15-.63-.26-1.09-.38-1.58-.11-.46-.22-.93-.44-1.53-.14-.37-.29-.74-.46-1.1-.4-.83-.9-1.66-1.63-2.34-.52-.48-.97-.78-1.5-1.15-.51-.35-1.05-.68-1.63-.95a8.037 8.037 0 0 0-3.8-.78c-1.44.04-2.78.17-4.17.57-1.4.39-2.59.97-3.49 1.53-.3-2.53-.94-4.59-1.8-6.6a23.13 23.13 0 0 0-1.94-3.55c-.41-.6-.87-1.24-1.5-1.82-.64-.6-1.44-1.04-2.31-1.4-1.6-.6-3.11-.69-4.71-.55-.81.08-1.64.24-2.53.52-.89.26-1.84.68-2.82 1.29-.53.31-1.15.82-1.76 1.45-.58.66-1.15 1.47-1.46 2.37-.69 1.78-.48 3.69-.12 4.61.16.48.41.78.65.94.25.19.48.21.61.13m-5.98 79.66c-.43 0-.77.54-.77 1.21s.34 1.21.77 1.21.77-.54.77-1.21-.35-1.21-.77-1.21m15.39-5.29c0-1.76 1.43-3.19 3.19-3.19s3.19 1.43 3.19 3.19-1.43 3.19-3.19 3.19c-1.77 0-3.19-1.43-3.19-3.19m-35.21 3.79c1.76 0 3.19-1.43 3.19-3.19s-1.43-3.19-3.19-3.19-3.19 1.43-3.19 3.19 1.43 3.19 3.19 3.19"/></svg>