<svg version="1.1" id="Layer_1" xmlns="http://www.w3.org/2000/svg" x="0" y="0" viewBox="0 0 141.25 141.25" style="enable-background:new 0 0 141.25 141.25" xml:space="preserve"><style>.st0{fill:#d09dae}.st3{fill:#2a3768}</style><path class="st0" d="M141.25 70.63c0 39.01-31.62 70.63-70.63 70.63C31.62 141.25 0 109.63 0 70.63 0 31.62 31.62 0 70.63 0c39 0 70.62 31.62 70.62 70.63"/><path d="M30.73 71.56c-.55-1.11-.67-2.34-.7-3.44-.03-1.12.15-2.16.32-3.13.23-.96.46-1.89.84-2.74.37-.84.8-1.7 1.41-2.29.29-.28.3-.74.04-1.04-.32-.37-.67-.76-1.03-1.17-.35-.42-.69-.9-1.06-1.4-.32-.52-.68-1.07-.94-1.69-.28-.61-.48-1.3-.48-1.98-.05-1.26.82-2.14 2.03-2.38.33-.03.54-.06.94.04.38.08.78.14 1.18.26.8.23 1.68.5 2.61.95 1 .46 2.48 1.32 3.74 2.39 1.22 1.03 2.2 2.21 2.66 2.93-.4.35-.75.81-1.02 1.38-.21.46-.4 1.21-.43 1.93-.04.72.05 1.4.12 1.77.06.29.29.41.54.43-.17.07-.33.17-.46.31-.01.01-.01.02-.02.03-.28-.05-.58-.14-.97-.31l-.98-.49c-.36-.21-.7-.42-.89-.53-.36-.23-1.17.84-.72 1.12l.88.57.94.52c.5.24 1.09.49 1.74.61.18.04.37.05.55.05.18.16.36.32.49.52.27.42.7 1.07 1.15 1.35.21.13.36.26.52.39l.03.36c-.1.29-.17.55-.27.76-.43 1.04-.9 1.47-1.63 2.34-.22.28-.48.51-.72.77-.6.54-1.22 1.06-1.92 1.48-1.85 1.16-4.02 1.89-6.1 1.36-1.16-.3-1.88-1.01-2.39-2.03m25.36-10.24c.23-.4.44-.78.6-1.12 1.06-2.31 2.2-4.27 2.62-6.72.11-.69.14-1.51-.02-2.28-.18-.78-.64-1.4-1.41-1.73-.18-.1-.39-.16-.62-.2-.21-.06-.44-.1-.69-.1-.24-.02-.51-.04-.59 0a3.5 3.5 0 0 0-.58.21c-.87.41-1.73 1-2.49 1.57-1.02.76-1.99 1.61-2.89 2.51-.89.9-1.73 1.88-2.28 2.91-.13.29-.26.47-.37.6.72.36 1.21 1.14 1.38 1.71.22.63.35 1.17.54 1.81.04.15.07.31.1.47l.52-.03c.22-.01.44.02.66.04.11.01.23.01.35.01.38-.01.74.12 1.12.1.14-.01.28-.04.41-.07.27-.06.53-.12.79-.22.35-.13.76-.18.89.27.08.28.09.58.04.87-.03.19-.09.55-.3.61-.09.03-.19.01-.28 0-.4-.07-.78-.15-1.18-.16-.4-.01-.79-.02-1.19-.06-.76-.09-1.33 0-1.79.08-.03.26-.08.52-.15.8-.16.56-.45 1.02-.75 1.49.08.49.15.99.23 1.48.32.66.67 1.28 1.07 1.8a8.547 8.547 0 0 0 4 2.97c1.34.48 2.52.55 3.48.5.62-.04 1.11-.01 1.74-.14.62-.14 1.63-.56 2.13-.89.54-.27.94-.75 1-1.31.07-.56-.14-1.19-.44-1.74-.46-.83-1.06-1.5-1.67-2.12-.62-.63-1.31-1.2-2.12-1.81-.48-.36-1.09-.82-1.67-1.23a.658.658 0 0 1-.19-.86v-.02zm-9.51-3.1c-.3-.17-.73-.33-1.2-.41-.28-.04-.61-.1-.97-.15-.27-.01-.56-.04-.8.07-.49.15-.91.7-1.12 1.31-.3.8-.36 1.76-.21 2.66.06.26-.12.46-.35.57.38-.03.72.1.83.36.2.45.13 1.03.42 1.45.35.51.83 1.05 1.27 1.36.57.38.97.31 1.37.08.4-.25.69-.57.91-.84.14-.18.34-.25.49-.45.16-.19.33-.55.46-.76.29-.4.39-.97.43-1.44.05-.73-.11-1.19-.41-2.01-.14-.37-.22-.91-.42-1.16-.26-.34-.4-.45-.7-.64" style="fill:#bed3d7"/><path d="M110.95 93.43c-1.08-1.23-2.37-2.28-3.61-3.16-3.02-2.09-5.95-3.3-8.43-4.23-2.5-.9-4.62-1.48-6.41-1.96-1.15-.3-2.02-.61-3.19-.89-1.2-.29-3.15-.64-4.35-.89-2.35-.5-5.09-.8-7.51-.98-1.82-.13-3.42-.2-5.02-.19-1.6.06-3.21.09-5.01.23-1.75.19-4.25.3-5.96.68-4.47.86-8.39 1.54-12.76 3.14-2.47.94-5.76 2.27-8.98 4.15-3.2 1.87-6.39 4.27-8.42 6.9-.59.92-1.15 1.77-1.3 2.81a5.53 5.53 0 0 0 .3 3.01c.75 1.95 2.43 3.55 4.28 4.76.49.32.87.58 1.16.81 1.47.63 2.99 1.21 4.6 1.76 5.4 1.78 10.11 2.69 14.39 3.33 4.28.63 8.16.96 12.07 1.15 3.91.18 7.88.19 12.36.01 4.47-.2 9.48-.57 15.38-1.62 3.41-.64 6.57-1.34 9.84-2.48.98-.33 1.95-.71 2.9-1.13.44-.19.87-.42 1.3-.62.38-.18.64-.31 1.03-.6.33-.24.72-.52.99-.82.75-.87 1.31-1.58 1.78-2.55.5-1.03.8-2.06 1.04-3.17.24-1.11.19-2.31-.13-3.44-.42-1.38-1.26-2.79-2.34-4.01" style="fill:#fff"/><path class="st0" d="M88.69 114.51c3.31-.38 6.96-1.04 10.26-1.79.2.11.42.22.66.35-.14.22-.19.51-.1.81.07.25.45.72 1.09.97.57.23 1.18.32 1.65.81.25.25.55.59.69.88.12.28.09.33-.05.6-.31.5-.75.64-1.31 1.06-.18.13-.37.26-.55.37-.41.26-.88.5-1.34.74-1.27.64-2.54 1.3-3.88 1.88-.76.33-1.51.56-2.27.89-2.62 1.14-4.4 1.87-6.12 2.43-.83.27-1.7.41-2.68.47-.98.05-2.09.02-3.32-.29-.84-.23-1.54-.53-2.08-1.05-.25-.29-.43-.52-.58-1.05-.15-.49-.29-1.05-.44-1.7-.3-1.37-.94-4.3-1.22-5.38-.02-.08-.06-.14-.09-.2 3.93-.1 7.43-.32 11.68-.8m-41.16.19c-.37.38-1.1 1.05-1.87 1.67-.39.32-.76.62-.98.9-.24.29-.32.54-.32.72-.03.34.25.71.54 1.01.3.3.66.54 1 .76.71.42 1.41.75 2.19 1.14 2.27 1.09 3.88 1.68 5.5 2.28.82.29 1.65.57 2.59.87.95.28 1.98.64 3.18.72.71.05 1.4.14 2.12.07 1.25-.12 2.46-.57 3.16-1.36.26-.28.42-.61.6-1.08l.22-.59c.22-.65.46-.95.61-1.64.14-.67.51-1.63.71-2.3.18-.6.07-1.28.16-1.89.04-.27.13-.49.23-.68-1.02-.04-2-.08-2.86-.13-5.6-.24-10.59-.96-15.93-2.12-.21.23-.44.46-.67.69.15.26.15.62-.18.96m74.63-28.92c-.14-.61-.2-1.28-.5-1.99-.28-.7-.47-1.53-.87-2.33s-.72-1.7-1.21-2.51c-.49-.81-.92-1.67-1.44-2.42-.53-.74-1.03-1.45-1.48-2.09-.88-1.08-1.8-2.11-2.79-3.05-1.03-.91-1.97-1.87-3.02-2.72-2.33-2.06-4.07-3.73-4.5-4.35-.6-.82-.68-1.26-.35-1.35-.14-.43-.16-1.26.02-2.42.26-1.63.62-4.7.77-7.89.16-3.2.06-6.51-.13-8.63-.33-3.98-1.01-7.01-1.92-9.64-.9-2.64-2.09-4.86-3.8-7.07-2.54-3.15-5.62-4.74-8.53-5.62-2.93-.89-5.71-1.14-8.4-.72-5.33.87-10.49 4.6-13.91 12.43-.96 2.27-1.74 4.47-2.22 6.91-.41 2.13-.68 4.34-.53 6.39.18 2.05.92 4.06 2.44 5.36.55.48 1.19.83 1.86 1.12.69.24 1.41.44 2.17.49.65.07 1.31.06 1.98 0 1.08-.1 1.9-.24 2.72-.43.82-.2 1.63-.43 2.64-.89 1.01-.42 2.23-1.05 3.44-1.71 1.2-.69 2.38-1.42 3.29-2.09 1.65-1.17 3-2.64 4.38-4.01 1.61-1.58 3-2.64 3.51-2.88 1.75-.85 1.58.72-.59 2.88-2.02 1.97-4.35 3.53-6.65 5.17-2.81 2.02-6.53 4.06-9.97 4.85-2.07.46-4.08.64-5.91.26-1.84-.33-3.43-1.26-4.51-2.44-1.07-1.21-1.65-2.59-1.95-3.85-.3-1.27-.39-2.45-.34-3.51.03-.82.12-1.51.23-2.23-.34-.21-.75-.56-1.23-1.08-.93-1-2.73-2.83-4.77-4.55-1-.88-2.07-1.72-3.04-2.51-.99-.76-1.9-1.45-2.61-1.99-5.43-3.91-8.69-5.68-12.91-7.95-6.13-3.16-10.51-4.76-15.01-6.19-2.24-.76-4.56-1.31-7.17-1.98-1.29-.29-2.64-.54-4.07-.43-1.41.1-2.86.63-3.85 1.81-1.1 1.4-1.42 3.31-1.24 5.3.39 3.54 2.03 6.81 3.88 9.89.7 1.13 1.44 2.22 2.23 3.28l1.07 1.36c.6.72 1.05 1.27 1.49 1.83.47.54.94 1.07 1.61 1.73 1.35 1.26 3.31 3.22 4.79 4.4 1.3 1.08 2.78 1.87 4.16 2.73.3.2.57.39.83.57.07-.03.14-.07.21-.09.32-.09.66-.14 1.02-.15a4 4 0 0 1 .99.12c.57.12 1.14.24 1.69.42 1.11.32 2.15.78 3.08 1.28 2.48 1.33 4.64 3.2 6.23 5.59 0 .01.01.01.01.02.53-.12 1.07-.07 1.5.01.49.09.94.18 1.37.3.01-.24.09-.5.22-.79.41-.86 1.43-2.2 2.63-3.41 1.2-1.22 2.57-2.35 3.51-3 .89-.61 1.69-1.13 2.61-1.47.2-.1.53-.14.81-.17.22.01.44.02.66.04.43 0 .85.14 1.26.22.81.27 1.56.75 2.08 1.46.47.72.71 1.55.76 2.39.05 2.49-.71 4.31-1.35 5.92-.59 1.36-1.22 2.55-1.89 3.73.99.71 1.99 1.49 3.03 2.47.61.59 1.24 1.26 1.83 2.1.14.22.28.45.42.68.12.26.25.51.36.78.18.57.38 1.25.19 2.01-.05.46-.32.85-.55 1.2-.29.3-.57.62-.9.8-.32.22-.64.4-.96.52-.32.15-.64.28-.99.38-2.38.79-4.99.68-7.23-.35-.82-.37-1.59-.84-2.28-1.41-.3-.25-.6-.49-.87-.77-.9-.89-1.17-1.51-1.83-2.55-.11-.19-.22-.4-.37-.67-.02-.03-.03-.07-.04-.11l-.01-.05c-.02-.13-.04-.27-.07-.41-.33.31-.7.58-1.16.78-.33.14-.76.2-1.16.17 0 .04 0 .08-.01.12-.31 1-.81 1.84-1.31 2.56-2.77 3.66-5.82 5.07-8.12 5.43-.38.03-.72.03-1.05.03-.34-.04-.67-.1-1.05-.13-.38-.1-.88-.13-1.37-.34-.24-.11-.49-.21-.72-.31-.22-.12-.39-.29-.55-.41-.16-.13-.28-.3-.42-.45-.32.33-.69.7-1.12 1.1-1.61 1.56-4.49 4.76-6.3 8.73-.95 1.95-1.55 4.1-1.74 6.1-.03.5-.14.99-.09 1.46.02.47.04.93.07 1.37.06.88.31 1.66.42 2.36.73 2.58 2.19 4.54 3.62 6.19.81.74 1.5 1.54 2.35 2.13.4.31.8.62 1.19.92.4.29.82.53 1.22.8.1.06.19.12.29.18-.6-.76-1.15-1.65-1.5-2.67-.56-1.52-.44-3.28.1-4.68.16-.34.28-.7.46-1.01.19-.29.37-.58.55-.85.33-.57.76-.95 1.08-1.36.62-.74 1.3-1.32 1.91-1.92.66-.54 1.26-1.07 1.87-1.54.62-.45 1.22-.88 1.79-1.29.58-.39 1.17-.74 1.73-1.1 1.11-.73 2.25-1.27 3.35-1.89 1.14-.53 2.28-1.1 3.53-1.61 7.19-2.86 12.36-3.87 17.6-4.56 2.63-.3 5.3-.54 8.33-.57 3.03-.1 6.43.08 10.46.57 2.34.29 4.49.75 6.79 1.24 4.03.87 7.96 1.9 11.78 3.44 1.4.55 2.76 1.2 4.1 1.87.57.32 1.16.6 1.72.94 1.84 1.08 2.7 1.81 4.36 3.15.79.7 1.77 1.61 2.52 2.74.77 1.11 1.36 2.36 1.66 3.44.54 1.9.79 3.97.13 5.94-.23.65-.52 1.18-.82 1.64 1.86-1.43 3.53-3.08 4.93-5 .61-.9 1.25-1.77 1.7-2.75.55-.93.87-1.95 1.23-2.96.18-.43.21-.9.32-1.35.08-.45.21-.91.26-1.37.06-.75.1-1.42.15-2.04 0-.62-.05-1.2-.07-1.77.01-.57-.09-1.14-.23-1.75"/><path class="st3" d="M123.71 87.82c-.01-1.22-.35-2.45-.58-3.74-.42-1.22-.74-2.53-1.35-3.71-1.03-2.46-2.55-4.65-3.96-6.59-2.39-3.09-4.89-6.03-7.82-8.59-1.45-1.18-2.63-1.9-3.37-2.15.25-.36.52-1.11.7-2.3.76-5.06 1.11-10.19.84-15.33-.2-3.86-.84-8.28-2.31-12.26-.73-1.99-1.67-3.86-2.76-5.44a19.348 19.348 0 0 0-3.51-3.86c-2.06-1.7-4.33-2.84-6.64-3.57-2.3-.74-4.76-1.17-7.37-.93-1 .06-2.19.27-3.37.54-1.17.33-2.32.73-3.2 1.22-1.84.95-3.29 2.08-4.58 3.34-1.29 1.27-2.43 2.68-3.51 4.41-1.47 2.29-2.63 5.14-3.48 7.67-.45 1.29-.91 3.46-1.12 4.82 0 .02-.01.04-.01.06-.14-.18-.29-.37-.48-.58-2.93-3.15-6.17-5.94-9.55-8.53-5.06-3.96-12.18-8.09-16.65-10.13-1.92-.97-3.77-1.71-5.57-2.53-1.84-.72-3.67-1.46-5.7-2.02-1.57-.39-3.71-1.24-5.31-1.56-1.64-.36-3.03-.78-4.52-1.05-1.48-.25-3.05-.42-4.79.01-1.16.25-2.36.91-3.21 1.89-.87.98-1.33 2.21-1.58 3.34-.29 1.18-.17 3.1.05 4.25.1.56.19 1.05.28 1.55.12.49.25.97.42 1.51 1.19 3.28 3.54 7.49 8.05 12.74 1.86 2.17 4.35 4.56 6.58 6.39 1.4 1.18 2.73 2.42 4.17 3.54-.35.42-.62.91-.72 1.41-.29 1.21-.02 2.28.27 3.06.77 1.94 1.83 3.38 3.03 4.75-.04.05-.07.09-.11.13-.15.26-.3.52-.46.79-.5.98-1.08 2.37-1.32 3.41-.45 2.13-.67 3.81-.4 6.02.12.91.45 1.89.97 2.77-.39.29-.83.66-1.32 1.12-2.54 2.52-4.78 5.37-6.39 8.61-1.58 3.22-2.55 6.9-2.12 10.6.32 2.78 1.6 5.61 3.51 7.91 1.89 2.33 4.28 4.23 6.78 5.72 5.02 2.97 10.28 4.62 14.21 5.64 1.35.34 2.66.64 3.95.92 5.33 1.17 10.32 1.89 15.93 2.12.86.04 1.84.09 2.86.13-.1.19-.19.41-.23.68-.08.62.02 1.29-.16 1.89-.2.67-.56 1.64-.71 2.3-.15.68-.39.98-.61 1.64l-.22.59c-.19.47-.34.8-.6 1.08-.7.78-1.91 1.23-3.16 1.36-.72.07-1.4-.01-2.12-.06-1.2-.08-2.23-.45-3.18-.72-.94-.3-1.77-.58-2.58-.87-1.63-.6-3.24-1.19-5.5-2.28-.78-.39-1.48-.72-2.19-1.14-.34-.22-.7-.45-1-.76-.3-.3-.57-.67-.54-1.01 0-.18.08-.43.32-.72.22-.29.6-.58.98-.9.77-.62 1.5-1.3 1.87-1.67.32-.34.32-.7.17-.95-.2-.33-.67-.45-1.11.01-.53.53-1.09 1-1.7 1.48-.55.48-1.39.94-1.82 2.04-.15.41-.18.92-.05 1.37.14.44.36.81.62 1.11.51.61 1.11 1.01 1.68 1.37 1.15.69 2.25 1.19 3.09 1.55 1.47.62 2.64 1.3 4.17 1.67.58.14 1.36.49 1.93.65 1.19.33 2.08.63 3.31.93.86.21 1.82.22 2.66.3.44.04 1.14-.05 1.57-.1.43-.05.78-.03 1.2-.16.65-.22 1.45-.56 2.2-1.34.2-.18.35-.43.53-.67.14-.26.29-.55.38-.81.19-.51.39-1.06.62-1.67.36-.98.74-2.18 1.03-3.19.24-.82.77-1.53.99-2.34.06-.21.05-.41.01-.59 1.57.05 3.12.08 4.42.05l2.36-.06c-.02.14-.03.29.02.48.39 1.6.68 3.23 1.02 4.88.13.62.27 1.29.46 1.98.14.63.54 1.62 1.2 2.16 1.29 1.11 2.73 1.34 3.74 1.48 1.77.18 3.32.3 5.01-.28.65-.23 1.52-.48 2.12-.73 1.24-.52 2.15-.91 3.37-1.42.81-.34 1.71-.78 2.54-1.04.43-.13 1.07-.46 1.49-.63.41-.17.75-.22 1.14-.41.61-.3 1.31-.68 2.17-1.16.85-.47 1.89-1.07 3.01-1.93.24-.18.49-.4.74-.68.24-.28.53-.72.53-1.3-.01-.58-.28-.97-.49-1.26-.22-.3-.44-.52-.65-.74-.66-.69-1.37-1.55-2.23-1.97-.61-.29-1.14-.11-1.38.27-.14.22-.19.51-.1.81.07.24.45.72 1.09.97.57.23 1.18.32 1.65.81.25.25.55.59.7.88.12.28.09.33-.05.6-.31.5-.75.64-1.31 1.06-.18.13-.37.26-.55.37-.41.26-.88.5-1.34.74-1.27.64-2.54 1.3-3.88 1.88-.76.33-1.51.56-2.27.89-2.62 1.14-4.4 1.87-6.12 2.43-.83.27-1.7.41-2.68.47-.98.05-2.09.02-3.32-.29-.84-.23-1.54-.53-2.08-1.05-.26-.29-.43-.52-.58-1.05-.15-.49-.29-1.05-.44-1.7-.3-1.37-.94-4.3-1.22-5.38-.02-.08-.06-.14-.08-.2 3.91-.12 7.4-.34 11.66-.82 3.31-.38 6.96-1.04 10.26-1.79.36-.08.74-.16 1.09-.24.92-.18 2.09-.58 3.27-.91 1.16-.39 2.32-.82 3.21-1.15.86-.34 1.62-.65 2.37-.95.74-.34 1.47-.7 2.29-1.13 2.47-1.42 5.35-3.42 7.94-6.68.17-.2.33-.4.5-.6.15-.22.3-.44.45-.67.3-.45.61-.92.92-1.39.3-.48.53-1.02.81-1.55.27-.53.55-1.07.73-1.67.96-2.3 1.38-5.05 1.18-7.97M30.35 64.99c.23-.96.46-1.89.84-2.74.37-.84.8-1.7 1.41-2.3.29-.28.3-.74.04-1.04-.32-.37-.67-.76-1.03-1.17-.35-.43-.69-.9-1.06-1.4-.32-.52-.68-1.07-.94-1.69-.28-.61-.47-1.3-.48-1.98-.05-1.26.82-2.14 2.03-2.38.33-.03.54-.06.94.04.38.08.77.14 1.18.26.81.23 1.68.5 2.61.95 1 .46 2.48 1.32 3.74 2.38 1.22 1.03 2.21 2.21 2.66 2.93-.41.35-.75.81-1.02 1.38-.21.46-.4 1.21-.43 1.93-.04.72.05 1.4.12 1.77.06.29.29.42.54.43-.17.07-.33.17-.46.31-.01.01-.01.02-.02.03-.28-.05-.58-.14-.97-.31l-.98-.49c-.36-.21-.7-.42-.89-.52-.36-.23-1.17.84-.72 1.12l.88.57.94.53c.5.24 1.09.49 1.74.61.18.04.37.05.55.06.18.16.36.32.49.51.27.42.7 1.07 1.15 1.35.21.13.36.26.52.39l.03.36c-.1.29-.17.55-.27.76-.43 1.04-.9 1.47-1.63 2.34-.22.27-.48.51-.72.77-.6.54-1.22 1.06-1.92 1.48-1.85 1.16-4.02 1.89-6.1 1.36-1.15-.28-1.87-.99-2.38-2.01-.55-1.1-.67-2.34-.7-3.44-.04-1.14.14-2.18.31-3.15m25.93-2.79c.59.41 1.19.87 1.67 1.23.81.6 1.5 1.18 2.12 1.8.61.63 1.21 1.29 1.67 2.12.3.55.51 1.18.44 1.74-.06.56-.46 1.03-1 1.31-.49.33-1.5.75-2.13.89-.62.13-1.12.11-1.74.14-.96.05-2.15-.02-3.48-.5a8.433 8.433 0 0 1-4-2.97c-.4-.52-.74-1.14-1.07-1.81-.08-.49-.15-.99-.23-1.48.3-.47.59-.93.75-1.49.07-.27.12-.54.15-.8.46-.07 1.03-.17 1.79-.08.39.03.79.04 1.19.06.4.01.79.09 1.18.16.09.02.19.03.28 0 .22-.06.27-.42.3-.61.05-.29.04-.59-.04-.87-.13-.45-.54-.4-.89-.27-.24.11-.51.17-.78.23-.14.03-.27.06-.41.07-.38.02-.74-.11-1.12-.1-.11 0-.23 0-.34-.01-.22-.02-.44-.04-.66-.04-.17 0-.35.02-.52.03-.03-.16-.06-.32-.1-.47-.19-.64-.32-1.19-.54-1.81-.17-.57-.67-1.35-1.38-1.71.11-.13.24-.31.37-.6.55-1.03 1.39-2.01 2.28-2.91.9-.9 1.87-1.74 2.89-2.51.76-.57 1.63-1.15 2.49-1.57.2-.09.44-.18.58-.21.08-.04.35-.02.59 0 .24.01.47.04.69.1.23.04.44.1.62.2.77.33 1.23.95 1.41 1.73.17.77.14 1.59.02 2.28-.42 2.46-1.56 4.42-2.62 6.72-.16.34-.37.72-.6 1.12l-.01.02c-.18.3-.09.68.18.87m-8.58-2.18c.3.81.45 1.28.4 2.01-.03.48-.14 1.04-.43 1.44-.14.21-.3.57-.46.76-.15.19-.34.27-.49.45-.23.27-.52.6-.91.84-.4.24-.8.31-1.37-.08-.44-.3-.92-.85-1.27-1.36-.29-.43-.23-1.01-.42-1.45-.11-.26-.46-.38-.83-.36.24-.11.41-.32.35-.57-.15-.89-.09-1.86.21-2.66.22-.61.63-1.15 1.12-1.31.24-.11.53-.08.8-.07.36.05.68.11.97.15.48.08.9.24 1.2.41.3.19.45.3.7.64.21.25.29.79.43 1.16m65.71 40.86c-.23 1.11-.54 2.14-1.04 3.17-.47.97-1.02 1.68-1.78 2.55-.27.31-.66.58-.99.82-.39.29-.65.42-1.03.6-.43.2-.86.43-1.3.62-.95.42-1.92.79-2.9 1.13-3.27 1.14-6.43 1.84-9.84 2.48-5.9 1.05-10.9 1.43-15.38 1.62-4.48.18-8.45.17-12.36-.01-3.92-.19-7.79-.52-12.07-1.15-4.27-.64-8.98-1.55-14.39-3.33-1.61-.55-3.13-1.12-4.6-1.76-.29-.23-.67-.5-1.16-.81-1.85-1.21-3.52-2.81-4.28-4.76-.37-.97-.47-2-.3-3.01.14-1.04.71-1.89 1.31-2.81 2.02-2.63 5.22-5.04 8.42-6.9 3.22-1.88 6.51-3.21 8.98-4.15 4.37-1.59 8.29-2.27 12.76-3.14 1.71-.38 4.21-.49 5.96-.68 1.81-.14 3.41-.16 5.01-.23 1.6-.01 3.2.06 5.02.19 2.42.18 5.16.48 7.51.98 1.21.24 3.15.6 4.35.89 1.17.28 2.04.6 3.19.89 1.79.47 3.9 1.05 6.41 1.96 2.48.93 5.4 2.14 8.43 4.23 1.23.88 2.53 1.93 3.6 3.16 1.09 1.22 1.93 2.63 2.34 4.02.32 1.12.37 2.33.13 3.43m8.91-9.52c-.05.46-.18.91-.26 1.37-.11.45-.14.92-.32 1.35-.37 1.01-.68 2.03-1.23 2.96-.45.98-1.08 1.85-1.7 2.75-1.4 1.91-3.07 3.57-4.93 5 .31-.46.6-.99.82-1.64.66-1.96.41-4.04-.13-5.94-.29-1.08-.89-2.33-1.66-3.44-.76-1.13-1.74-2.04-2.52-2.74-1.67-1.34-2.52-2.06-4.36-3.15-.56-.34-1.15-.62-1.72-.94-1.34-.67-2.69-1.32-4.1-1.87-3.82-1.54-7.74-2.57-11.78-3.44-2.31-.5-4.45-.95-6.79-1.24-4.03-.5-7.43-.68-10.46-.57-3.03.04-5.7.28-8.33.57-5.24.69-10.4 1.7-17.6 4.56-1.25.51-2.39 1.08-3.53 1.61-1.1.62-2.24 1.16-3.35 1.89-.56.36-1.14.71-1.73 1.1-.57.41-1.17.84-1.79 1.29-.61.47-1.22 1-1.87 1.54-.61.6-1.29 1.18-1.91 1.92-.32.41-.75.8-1.08 1.36-.18.27-.36.55-.55.85-.18.3-.3.66-.46 1.01-.54 1.39-.66 3.15-.1 4.68.35 1.02.9 1.91 1.5 2.67-.1-.06-.2-.12-.29-.18-.4-.26-.83-.51-1.23-.8-.39-.3-.79-.61-1.19-.92-.84-.58-1.54-1.38-2.35-2.13-1.43-1.65-2.88-3.61-3.62-6.19-.11-.7-.35-1.48-.42-2.36-.02-.44-.04-.9-.07-1.37-.04-.47.07-.96.09-1.46.18-1.99.79-4.14 1.74-6.1 1.81-3.97 4.69-7.17 6.3-8.73.43-.41.8-.77 1.12-1.1.14.15.26.32.42.45.16.12.33.3.56.41.23.1.48.2.72.31.49.21.99.24 1.37.34.38.04.71.09 1.05.13.33.01.67.01 1.05-.03 2.31-.36 5.36-1.77 8.12-5.43.5-.72 1.01-1.56 1.32-2.56.01-.04.01-.08.01-.12.4.04.82-.03 1.16-.17.46-.2.83-.47 1.16-.78.02.14.04.28.07.41l.01.05c.01.04.02.08.04.11.15.27.26.48.37.67.67 1.04.94 1.66 1.84 2.55.26.28.57.52.87.77.69.56 1.45 1.03 2.28 1.41 2.24 1.04 4.85 1.14 7.23.35.35-.1.67-.23.99-.38.32-.12.64-.3.96-.52.33-.17.61-.5.9-.8.23-.35.5-.75.55-1.2.18-.76-.01-1.43-.19-2.01-.11-.28-.24-.53-.36-.78-.14-.23-.28-.46-.42-.68-.59-.84-1.22-1.51-1.83-2.1a27.61 27.61 0 0 0-3.03-2.48c.67-1.18 1.3-2.37 1.88-3.73.64-1.6 1.4-3.42 1.35-5.92-.05-.84-.29-1.66-.76-2.39-.52-.71-1.27-1.19-2.08-1.46-.41-.08-.83-.22-1.26-.22-.22-.01-.44-.02-.66-.04-.28.03-.6.08-.81.17-.92.35-1.72.86-2.61 1.47-.94.65-2.32 1.78-3.51 3-1.21 1.21-2.22 2.55-2.63 3.41-.13.3-.2.55-.22.79-.43-.12-.88-.21-1.37-.3-.43-.08-.97-.13-1.5-.01 0-.01-.01-.01-.01-.02-1.58-2.39-3.75-4.26-6.23-5.59-.93-.5-1.98-.95-3.08-1.28-.55-.18-1.12-.31-1.69-.43a4 4 0 0 0-.99-.12c-.35.01-.69.06-1.01.15-.07.02-.14.06-.21.09-.26-.19-.53-.38-.83-.57-1.38-.86-2.86-1.65-4.16-2.73-1.48-1.18-3.44-3.14-4.79-4.4-.66-.66-1.14-1.19-1.61-1.73-.44-.56-.89-1.12-1.49-1.83l-1.07-1.36c-.79-1.06-1.53-2.15-2.23-3.28-1.85-3.09-3.49-6.36-3.88-9.89-.17-1.98.14-3.89 1.24-5.3.99-1.18 2.44-1.71 3.85-1.81 1.43-.11 2.78.14 4.07.43 2.61.67 4.94 1.22 7.17 1.98 4.5 1.43 8.88 3.03 15.01 6.19 4.22 2.27 7.48 4.03 12.91 7.95.71.54 1.61 1.23 2.61 1.99.97.79 2.04 1.63 3.04 2.51 2.04 1.73 3.84 3.55 4.77 4.55.48.51.89.87 1.23 1.08-.11.71-.2 1.41-.24 2.23-.05 1.06.04 2.24.34 3.51.31 1.26.89 2.64 1.96 3.85 1.09 1.19 2.67 2.11 4.51 2.44 1.83.38 3.85.2 5.91-.26 3.44-.8 7.16-2.83 9.97-4.85 2.3-1.64 4.63-3.2 6.65-5.17 2.17-2.16 2.34-3.73.59-2.88-.5.24-1.9 1.3-3.51 2.88-1.37 1.38-2.73 2.84-4.38 4.01-.91.67-2.09 1.4-3.29 2.09-1.21.66-2.43 1.28-3.44 1.71-1.01.45-1.83.69-2.64.89-.82.19-1.64.33-2.72.43-.67.06-1.33.06-1.98 0-.76-.05-1.48-.25-2.17-.49-.67-.29-1.32-.64-1.86-1.12-1.52-1.29-2.26-3.3-2.44-5.36-.15-2.06.12-4.26.53-6.39.48-2.45 1.26-4.64 2.22-6.91 3.42-7.84 8.58-11.57 13.91-12.43 2.69-.42 5.47-.17 8.4.72 2.91.87 6 2.47 8.53 5.62 1.71 2.21 2.9 4.44 3.8 7.07.91 2.63 1.6 5.67 1.92 9.64.19 2.12.29 5.43.13 8.63-.15 3.2-.52 6.26-.77 7.89-.18 1.16-.16 1.98-.02 2.42-.32.09-.25.54.35 1.35.43.62 2.17 2.29 4.5 4.35 1.05.85 1.99 1.81 3.02 2.72.99.94 1.9 1.97 2.79 3.05.45.63.95 1.34 1.48 2.09.52.75.95 1.6 1.44 2.42.49.82.81 1.71 1.21 2.51.39.81.59 1.64.87 2.33.3.71.36 1.39.5 2 .13.61.24 1.18.24 1.76.02.58.07 1.15.07 1.77-.07.62-.12 1.28-.18 2.04"/><path d="M71.46 100.57c-.34.04-.74-.14-1.08.03-.4.18-.78.54-.88.82-.15.26.14.87.34 1.1.23.26.49.39.74.49.16.06.27.19.45.26.19.07.51.11.71.18.39.14.87.15 1.29.16.63.03 1.11.03 1.71-.1.29-.06.69-.09.94-.24.61-.36 1.12-.54 1.35-1.13.12-.37.15-.65-.13-.95-.28-.31-.87-.55-1.4-.67-.72-.16-1.51-.22-2.3-.19-.32.01-.47-.32-.44-.62h-.01l-.77.05c-.05.41-.28.78-.52.81" style="fill:#e1d29d"/><path class="st3" d="M52.02 97.57c.09 2.28-.21 4.68-2.04 6.42-.8.58-1.96 1.21-3.22.81-.95-.3-1.52-1-1.91-1.86-1.33-2.93-.44-5.6 1.62-8.35.61-.82 2.61-1.67 3.46-1.18 1.58.92 2.02 2.5 2.09 4.16m41.9-4.09c-1.63.55-1.9 2.23-2.03 3.63-.16 2.84.62 6.21 3.29 7.53.35.11.7.22 1.03.2 1.69-.07 2.22-.89 2.86-2.58.96-2.56.06-4.76-1.45-7.42-.66-1.18-2.25-1.85-3.7-1.36m-21.17 14.91c-.33.47-.34 1.24-.37 1.78.07.4.37.85.83.86.87-.51.7-1.86.4-2.7-.27-.29-.64-.32-.86.06m3.26-8.97c-.75-.24-2.29-.24-2.85-.21-.26.01-.38.24-.4.49-.02.3.12.63.44.62.79-.03 1.58.03 2.3.19.54.12 1.12.36 1.4.67.28.3.25.58.13.95-.23.59-.74.77-1.35 1.13-.24.14-.65.17-.94.23-.6.13-1.08.13-1.71.1-.42-.01-.9-.02-1.29-.16-.2-.07-.53-.11-.71-.18-.18-.07-.29-.19-.45-.26-.25-.1-.51-.23-.74-.49-.2-.23-.49-.84-.34-1.1.1-.29.48-.64.88-.82.34-.16.74.01 1.08-.02.24-.03.47-.4.51-.81.01-.18-.01-.37-.09-.55-.08-.16-.43-.42-.88-.26-.39.13-.7.47-1.04.63-.39.16-.98.51-1.19.95-.2.41-.42.64-.41 1.2.02.16.06.36.09.46.08.28.18.58.35.86.23.4.6.73.99.93.39.21.78.32 1.17.43.44.12.83.24 1.27.29 1.47.11 2.49.07 3.5-.19.5-.14 1.01-.33 1.52-.71.5-.4.96-.98 1.11-1.86.08-.66-.2-1.31-.66-1.68-.45-.4-1-.64-1.69-.83"/></svg>