<svg version="1.1" id="Layer_1" xmlns="http://www.w3.org/2000/svg" x="0" y="0" viewBox="0 0 746.19 246.4" style="enable-background:new 0 0 746.19 246.4" xml:space="preserve"><style>.st0{fill:#283484}</style><path class="st0" d="M573.03 149.47a1.516 1.516 0 0 1-1.32-.79l-1.53-2.83c-2.8-5.18-5.19-8.09-9.86-11.95l-3.4-2.82c-.26-.22-.44-.51-.51-.84-.17-.19-.28-.42-.33-.67-.17-.19-.28-.42-.33-.66-.17-.19-.28-.42-.33-.67-.17-.19-.28-.42-.33-.66-.17-.19-.28-.42-.33-.67-.17-.19-.28-.42-.33-.66-.17-.19-.28-.42-.33-.67-.17-.19-.28-.42-.33-.67-.17-.19-.28-.42-.33-.66-.17-.19-.28-.42-.33-.67-.17-.19-.28-.42-.33-.66-.17-.19-.28-.42-.33-.67-.17-.19-.28-.42-.33-.66-.17-.19-.28-.42-.33-.67-.17-.19-.28-.42-.33-.66-.17-.19-.28-.42-.33-.67-.17-.19-.28-.42-.33-.66-.17-.19-.28-.42-.33-.67-.17-.19-.28-.42-.33-.66-.17-.19-.28-.42-.33-.67-.17-.19-.28-.42-.33-.66-.17-.19-.28-.42-.33-.67-.17-.19-.28-.42-.33-.66-.17-.19-.28-.42-.33-.67-.17-.19-.28-.42-.33-.66-.17-.19-.28-.42-.33-.67-.16-.19-.28-.42-.33-.66-.17-.19-.28-.42-.33-.67-.17-.19-.28-.42-.33-.67-.17-.19-.28-.42-.33-.66-.17-.19-.28-.42-.33-.67-.17-.19-.28-.42-.33-.66-.17-.19-.28-.42-.33-.67-.17-.19-.28-.42-.33-.66-.17-.19-.28-.42-.33-.67-.27-.31-.4-.71-.36-1.12.05-.49.34-.93.77-1.17l3.87-2.13c7.55-4.15 14.65-9.16 21.16-14.95a1.45 1.45 0 0 1-.41-.21c-.31-.22-.52-.54-.6-.91-.16-.19-.28-.42-.33-.66-.17-.19-.28-.42-.33-.67-.16-.19-.28-.42-.33-.66-.17-.19-.28-.42-.33-.67-.16-.19-.28-.42-.33-.66-.17-.19-.28-.42-.33-.67-.17-.19-.28-.42-.33-.67-.16-.19-.28-.42-.33-.66-.17-.19-.28-.42-.33-.67-.16-.19-.28-.42-.33-.66-.17-.19-.28-.42-.33-.67-.16-.19-.28-.42-.33-.66-.17-.19-.28-.42-.33-.67-.16-.19-.28-.42-.33-.66-.17-.19-.28-.42-.33-.67-.16-.19-.28-.42-.33-.66-.17-.19-.28-.42-.33-.67-.17-.19-.28-.42-.33-.66-.17-.19-.28-.42-.33-.67-.16-.19-.28-.42-.33-.66-.17-.19-.28-.42-.33-.67-.16-.19-.28-.42-.33-.66-.17-.19-.28-.42-.33-.67-.16-.19-.28-.42-.33-.66-.17-.19-.28-.42-.33-.67-.16-.19-.28-.42-.33-.66-.17-.19-.28-.42-.33-.67-.16-.19-.28-.42-.33-.66-.17-.19-.28-.42-.33-.67-.17-.19-.28-.42-.33-.67-.16-.19-.28-.42-.33-.66-.17-.19-.28-.42-.33-.67-.16-.19-.28-.42-.33-.66-.17-.19-.28-.42-.33-.67-.16-.19-.28-.42-.33-.66-.22-.26-.36-.59-.37-.94l-.68-23.79c-.02-.8.59-1.48 1.39-1.54l2.85-.22c3.64-.28 6.16-.53 9.82-1.18l5.43-.96 30.67-5.88c-.03-.08-.06-.17-.08-.26-.17-.19-.28-.42-.33-.66-.17-.19-.28-.42-.33-.67-.17-.19-.28-.42-.33-.66-.3-.35-.43-.82-.34-1.28.09-.46.39-.84.81-1.05l15.23-7.53c.21-.1.44-.16.66-.16.43 0 .84.18 1.13.52l.01.01 12.18-6.1c.21-.11.44-.16.67-.16.41 0 .81.17 1.1.48l1.53 1.65c3.48 3.75 6.39 8.18 9.44 14.36l5.32 10.64 2.86 5.73V30.81c-.09-7.84-.1-8.31-.65-13.11l-.32-2.81c-.09-.79.45-1.51 1.23-1.65L682.4 8.7c.09-.02.17-.02.26-.02a1.51 1.51 0 0 1 1.47 1.19c.17.19.28.42.33.66.17.19.28.42.33.67.17.19.28.42.33.66.17.19.28.42.33.67.17.19.28.42.33.66.17.19.28.42.33.67.17.19.28.42.33.66.17.19.28.42.33.67.17.19.28.42.33.67.17.19.28.42.33.66.17.19.28.42.33.67.17.19.28.42.33.66.17.19.28.42.33.67.17.19.28.42.33.66.07.08.13.17.18.26.12-.27.32-.5.58-.66l14.52-9.04c.1-.06.21-.11.32-.15l12.62-7.89c.24-.15.52-.23.79-.23.36 0 .71.13 1 .38l1.68 1.49c4.08 3.62 7.04 7.15 10.56 12.57l1.62 2.5c.09.14.16.3.2.46l.13.21c.09.15.16.3.2.46l.13.2c.09.15.16.3.2.46l.13.21c.09.15.16.3.2.46l.13.2c.09.15.16.3.2.46l.13.21c.09.14.16.3.2.46l.13.21c.09.15.16.3.2.46l.13.21c.09.15.16.3.2.46l.13.2c.09.15.16.3.2.46l.13.21c.09.15.16.3.2.46l.13.21c.09.14.16.3.2.46l.13.21c.09.15.16.3.2.46l.13.21c.09.14.16.3.2.46l.13.21c.09.15.16.3.2.46l.13.21c.09.14.16.3.2.46l.13.21c.09.15.16.3.2.46l.13.21c.09.14.16.3.2.46l.13.21c.09.15.16.3.2.46l.13.21c.09.14.16.3.2.46l.13.21c.09.15.16.3.2.46l.13.21c.09.15.16.3.2.46l.13.2c.09.15.16.3.2.46l.13.21c.09.15.16.3.2.46l.13.2c.09.15.16.3.2.46l.13.21c.09.15.16.3.2.46l.13.2c.09.15.16.3.2.46l.13.21c.09.15.16.3.2.46l.13.2c.09.14.16.3.2.46l.13.21c.09.14.16.3.2.46l.13.21c.09.15.16.3.2.46l.13.21c.09.15.16.3.2.46l.13.21c.09.14.16.3.2.46l.13.21c.09.15.16.3.2.46l.13.21c.09.14.16.3.2.46l.13.21c.09.15.16.3.2.46l.13.21c.09.14.16.3.2.46l.13.21c.45.69.26 1.62-.43 2.07l-14.05 9.24c-.1.06-.2.11-.3.15a1.332 1.332 0 0 1 .15.41c.12.14.21.3.28.48.02.06.04.12.05.19a1.443 1.443 0 0 1 .33.67c.12.14.21.3.28.48.02.06.04.12.05.19a1.443 1.443 0 0 1 .33.67c.12.14.21.3.28.47.02.06.04.12.05.19.12.14.21.3.28.48.02.06.04.13.05.19.12.14.21.3.28.47.02.06.04.13.05.19.12.14.21.3.28.48.02.06.04.13.05.19.12.14.21.3.28.47.02.06.04.13.05.19a1.443 1.443 0 0 1 .33.67c.12.14.21.3.28.48.02.06.04.12.05.19a1.443 1.443 0 0 1 .33.67c.12.14.21.3.28.48.02.06.04.12.05.19.12.14.22.3.28.48.02.06.04.12.05.19a1.443 1.443 0 0 1 .33.67c.12.14.21.3.28.47.02.06.04.13.05.19a1.443 1.443 0 0 1 .33.67c.12.14.21.3.28.47.02.06.04.13.05.19.12.14.21.3.28.48.02.06.04.13.05.19.12.14.21.3.28.47.02.06.04.13.05.19a1.443 1.443 0 0 1 .33.67c.12.14.21.3.28.48.02.06.04.12.05.19a1.443 1.443 0 0 1 .33.67c.12.14.21.3.28.48.02.06.04.12.05.19a1.443 1.443 0 0 1 .33.67c.12.14.21.3.28.48.02.06.04.12.05.19a1.443 1.443 0 0 1 .33.67c.12.14.21.3.28.47.02.06.04.13.05.19.12.14.21.3.28.48.02.06.04.13.05.19.12.14.21.3.28.47.02.06.04.13.05.19.12.14.21.3.28.48.02.06.04.13.05.19.12.14.21.3.28.47.14.39.11.82-.08 1.19l-12.15 23.55a1.503 1.503 0 0 1-2.03.64l-2.67-1.4c-7.55-3.95-17.91-7.8-28.6-10.63v19.2c0 8.78.29 12.41.53 13.91l.47 2.92c.13.81-.41 1.57-1.22 1.72l-25.66 4.52c-.09.01-.17.02-.26.02a1.507 1.507 0 0 1-1.47-1.18c-.17-.19-.28-.42-.33-.67-.17-.19-.28-.42-.33-.66-.17-.19-.28-.42-.33-.67-.17-.19-.28-.42-.33-.66-.17-.19-.28-.42-.33-.67-.17-.19-.28-.42-.33-.66-.17-.19-.28-.42-.33-.67-.17-.19-.28-.42-.33-.66-.17-.19-.28-.42-.33-.67-.17-.19-.28-.42-.33-.66-.17-.19-.28-.42-.33-.67-.17-.19-.28-.42-.33-.66-.17-.19-.28-.42-.33-.67-.17-.19-.28-.42-.33-.66-.17-.19-.28-.42-.33-.67-.17-.19-.28-.42-.33-.66-.17-.19-.28-.42-.33-.67-.17-.19-.28-.42-.33-.67-.17-.19-.28-.42-.33-.66-.17-.19-.28-.42-.33-.67-.17-.19-.28-.42-.33-.66-.17-.19-.28-.42-.33-.67-.17-.19-.28-.42-.33-.66-.17-.19-.28-.42-.33-.67-.17-.19-.28-.42-.33-.66-.17-.19-.28-.42-.33-.67-.17-.19-.28-.42-.33-.66-.17-.19-.28-.42-.33-.67-.17-.19-.28-.42-.33-.66-.17-.19-.28-.42-.33-.67-.17-.19-.28-.42-.33-.66-.17-.19-.28-.42-.33-.67-.17-.19-.28-.42-.33-.66-.17-.19-.28-.42-.33-.67-.17-.19-.28-.42-.33-.66-.27-.31-.4-.71-.36-1.13l.37-3.92c.37-3.85.47-6.41.57-14.42V58.09l-10.32 5.42c-.22.11-.46.17-.7.17-.16 0-.32-.03-.48-.08-.22-.07-.42-.2-.58-.36l-2.98 1.56c-.02.19-.07.37-.16.54l-.68 1.32c-.75 1.45-.75 1.45-1.94 4.64-1.47 3.76-3.05 7.46-4.73 11.01 2.55 1.87 5.45 4.06 9 6.81l2.44 1.88c.28.22.47.53.55.87.17.19.28.42.33.67.16.19.28.42.33.66.17.19.28.42.33.67.16.19.28.42.33.66.17.19.28.42.33.67.16.19.28.42.33.66.17.19.28.42.33.67.17.19.28.42.33.67.16.19.28.42.33.66.17.19.28.42.33.67.16.19.28.42.33.66.17.19.28.42.33.67.16.19.28.42.33.66.17.19.28.42.33.67.16.19.28.42.33.66.17.19.28.42.33.67.16.19.28.42.33.66.17.19.28.42.33.67.16.19.28.42.33.66.17.19.28.42.33.67.16.19.28.42.33.66.17.19.28.42.33.67.16.19.28.42.33.66.17.19.28.42.33.67.16.19.28.42.33.66.17.19.28.42.33.67.16.19.28.42.33.66.17.19.28.42.33.67.16.19.28.42.33.66.17.19.28.42.33.67.17.19.28.42.33.67.16.19.28.42.33.66.17.19.28.42.33.67.16.19.28.42.33.66.17.19.28.42.33.67.2.23.32.51.36.81.05.4-.07.81-.33 1.12l-17.82 21.82c-.28.34-.68.54-1.12.55h-.04c-.42 0-.82-.17-1.1-.48l-2.34-2.54c-6.71-7.27-15.25-14.37-23.62-19.62-8.87 11.08-21.75 22.49-34.69 30.69l-2.72 1.72c-.23.16-.51.24-.79.24zm122.12-109.7c1.19.27 2.39.56 3.61.87-.04-.09-.07-.19-.1-.29-.17-.19-.28-.42-.33-.67-.17-.19-.28-.42-.33-.66-.17-.19-.28-.42-.33-.67-.17-.19-.28-.42-.33-.66-.17-.19-.28-.42-.33-.67-.17-.19-.28-.42-.33-.66-.17-.19-.28-.42-.33-.67-.17-.19-.28-.42-.33-.66-.05-.06-.09-.12-.13-.18l-.56 3.67c-.09.41-.14.8-.18 1.25z"/><path class="st0" d="m717.62 3 1.68 1.49c3.97 3.52 6.85 6.96 10.3 12.27l1.62 2.5-.07.05.4.62-.07.05.4.62-.07.05.4.62-.07.05.4.62-.07.05.4.62-.07.05.4.62-.07.05.4.62-.07.05.4.62-.07.05.4.62-.07.05.4.62-.07.05.4.62-.07.05.4.62-.07.05.4.62-.07.05.4.62-.07.05.4.62-.07.05.4.62-.07.05.4.62-.07.05.4.62-.07.05.4.62-.07.05.4.62-.07.05.4.62-.07.05.4.62-.07.05.4.62-.07.05.4.62-.07.05.4.62-.07.05.4.62-.07.05.4.62-.07.05.4.62-.07.05.4.62-.07.05.4.62-.07.05.4.62-.07.05.4.62-.07.05.4.62-.07.05.4.62-.07.05.4.62-.07.05.4.62-2.49 1.64-8.99 5.92-2.56 1.69-.06-.1-1.4.92-.21.41.55.24-.22.43.55.24-.14.23.55.24-.22.43.55.24-.22.43.55.24-.21.42.55.24-.22.43.55.24-.22.43.55.24-.22.43.55.24-.22.43.55.24-.22.43.55.24-.22.43.55.24-.22.43.55.24-.22.43.55.24-.22.43.55.24-.22.43.55.24-.22.43.55.24-.22.43.55.24-.22.43.55.24-.22.43.55.24-.22.43.55.24-.22.43.55.24-.22.43.55.24-.22.43.55.24-.22.43.55.24-.22.43.55.24-.22.43.55.24-.22.43.55.24-.22.43.55.24-.22.43.55.24-.22.43.55.24-.22.43.55.24-.22.43.55.24-.22.43.55.24-1.48 2.86-9.29 18-1.38 2.68-2.67-1.4c-7.92-4.15-18.88-8.18-30.09-11.06l-.71-.15v21.11c0 8.87.3 12.59.55 14.15l.47 2.92-2.91.51-18.87 3.33-3.88.68.07-.74-.4.07.07-.74-.4.07.07-.74-.4.07.07-.74-.4.07.07-.74-.4.07.07-.74-.4.07.07-.74-.4.07.07-.74-.4.07.07-.74-.4.07.07-.74-.4.07.07-.74-.4.07.07-.74-.4.07.07-.74-.4.07.07-.74-.4.07.07-.74-.4.07.07-.74-.4.07.07-.74-.4.07.07-.74-.4.07.07-.74-.4.07.07-.74-.4.07.07-.74-.4.07.07-.74-.4.07.07-.74-.4.07.07-.74-.4.07.07-.74-.4.07.07-.74-.4.07.07-.74-.4.07.07-.74-.4.07.07-.74-.4.07.07-.74-.4.07.07-.74-.4.07.07-.74-.4.07.07-.74-.4.07.07-.74-.4.07.07-.74-.4.07.07-.74-.4.07.37-3.92c.37-3.91.47-6.5.57-14.55V55.61l-.35.19-9.38 4.93-2.78 1.46-.31-.67-.02.01-.13-.28-1.54.81-3.81 2 .29.61-.68 1.32c-.8 1.53-.8 1.53-2.02 4.8-1.64 4.2-3.4 8.24-5.22 12.01 2.94 2.13 6.16 4.57 9.98 7.52l2.44 1.88-.2.25.54.41-.2.25.54.41-.2.25.54.41-.2.25.54.41-.2.25.54.41-.2.25.54.41-.2.25.54.41-.2.25.54.41-.2.25.54.41-.2.25.54.41-.2.25.54.41-.2.25.54.41-.2.25.54.41-.2.25.54.41-.2.25.54.41-.2.25.54.41-.2.25.54.41-.2.25.54.41-.2.25.54.41-.2.25.54.41-.2.25.54.41-.2.25.54.41-.2.25.54.41-.2.25.54.41-.2.25.54.41-.2.25.54.41-.2.25.54.41-.2.25.54.41-.2.25.54.41-.2.25.54.41-.2.25.54.41-.2.25.54.41-.2.25.54.41-.2.25.54.41-.2.25.54.41-.2.25.54.41-1.95 2.39-13.69 16.76-2.19 2.68-2.34-2.54c-7.1-7.7-16.31-15.25-25.07-20.58-8.71 11.18-21.94 23.03-35.15 31.41l-2.72 1.72-1.53-2.83c-2.9-5.38-5.38-8.39-10.22-12.39l-3.4-2.82.28-.16-.62-.51.28-.16-.62-.51.28-.16-.62-.51.28-.16-.62-.51.28-.16-.62-.51.28-.16-.62-.51.28-.16-.62-.51.28-.16-.62-.51.28-.16-.62-.51.28-.16-.62-.51.28-.16-.62-.51.28-.16-.62-.51.28-.16-.62-.51.28-.16-.62-.51.28-.16-.62-.51.28-.16-.62-.51.28-.16-.62-.51.28-.16-.62-.51.28-.16-.62-.51.28-.16-.62-.51.28-.16-.62-.51.28-.16-.62-.51.28-.16-.62-.51.28-.16-.62-.51.28-.16-.62-.51.28-.16-.62-.51.28-.16-.62-.51.28-.16-.62-.51.28-.16-.62-.51.28-.16-.62-.51.28-.16-.62-.51.28-.16-.62-.51.28-.16-.62-.51.28-.16-.62-.51.28-.16-.62-.51.28-.16-.62-.51 3.87-2.13c9.49-5.21 18.23-11.78 25.81-19.24-.38.11-.75.23-1.13.35l-3.79 1.2-.02-.76-.31.1-.02-.76-.31.1-.02-.76-.31.1-.02-.76-.31.1-.02-.76-.31.1-.02-.76-.31.1-.02-.76-.31.1-.02-.76-.31.1-.02-.76-.31.1-.02-.76-.31.1-.02-.76-.31.1-.02-.76-.31.1-.02-.76-.31.1-.02-.76-.31.1-.02-.76-.31.1-.02-.76-.31.1-.02-.76-.31.1-.02-.76-.31.1-.02-.76-.31.1-.02-.76-.31.1-.09-.52-.31.1-.02-.76-.31.1-.02-.76-.31.1-.03-.77-.31.1-.02-.76-.31.1-.02-.76-.31.1-.03-.78-.31.1-.02-.76-.31.1-.02-.76-.31.1-.03-.77-.31.1-.02-.76-.31.1-.02-.76-.31.1-.02-.76-.31.1-.02-.76-.31.1-.02-.76-.31.1-.02-.76-.31.1-.11-3.98-.5-16.98-.08-2.86 2.86-.22c3.69-.28 6.25-.54 9.97-1.2l3.29-.58 2.14-.38 31.23-5.99 1.53-.27-.3-.35.17-.08-.5-.58.17-.08-.5-.58.17-.08-.5-.58.17-.08-.5-.58.17-.08-.5-.58.17-.08-.5-.58 3.48-1.72 9.68-4.79 2.08-1.03.78.9 2.02-1.01 9.19-4.6 2.01-1.01 1.53 1.65c3.38 3.64 6.21 7.96 9.19 14.01l.17.34c.05.11.11.21.16.32l.17.34c.06.11.11.21.17.33l.17.34c.05.11.11.21.16.32l.17.34c.05.11.11.21.16.32l.17.34c.06.11.11.21.17.33l.17.34c.05.11.11.21.16.32l.17.34c.05.11.11.21.16.32l.17.34c.06.11.11.21.17.33l.17.34c.05.11.11.21.16.32l.17.34c.06.11.11.21.17.33l.17.34c.05.11.11.21.16.32l.17.34c.05.11.11.21.16.32l.17.34c.06.11.11.21.17.33l.17.34c.05.11.11.21.16.32l.17.34c.05.11.11.21.16.32l.17.34c.06.11.11.21.17.33l.17.34c.05.11.11.21.16.32l.17.34c.05.11.11.21.16.32l.17.34c.06.11.11.21.17.33l.17.34c.05.11.11.21.16.32l.17.34c.05.11.11.21.16.32l.17.34c.06.11.11.21.17.33l.17.34c.05.11.11.21.16.32l.17.34c.05.11.11.21.16.32l.17.34c.06.11.11.21.17.33l.17.34c.05.11.11.21.16.32l.17.34c.06.11.11.21.17.33l.17.34c.05.11.11.21.16.32l.17.34c.05.11.11.21.16.32l.17.34c.06.11.11.21.17.33l.17.34c.05.11.11.21.16.32l.17.34c.05.11.11.21.16.32l.17.34c.06.11.11.21.17.33l.05.11V30.83c-.09-7.91-.1-8.38-.66-13.27l-.32-2.81 2.78-.49 18.87-3.33 4.11-.73-.11.74.45-.08-.11.74.45-.08-.11.74.45-.08-.11.74.45-.08-.11.74.45-.08-.11.74.45-.08-.11.74.45-.08-.11.74.45-.08-.11.74.45-.08-.11.74.45-.08-.11.74.45-.08-.11.74.45-.08-.11.74.45-.08-.11.74.45-.08-.11.74.45-.08-.11.74.45-.08-.11.74.45-.08-.11.74.45-.08-.11.74.45-.08-.11.74.45-.08-.11.74.45-.08-.11.74.45-.08-.11.74.45-.08-.11.74.45-.08-.11.74.45-.08-.11.74.45-.08-.11.74.45-.08-.11.74.45-.08-.11.74.45-.08-.11.74.45-.08-.11.74.45-.08-.11.74.45-.08-.11.74.45-.08-.11.74.45-.08-.11.74.45-.08-.46.93.45-.08-.63 4.13c-.13.86-.21 1.59-.27 2.66 2.76.62 5.49 1.3 8.2 2.03l-.3-.28.22-.14-.55-.53.22-.14-.55-.53.22-.14-.55-.53.22-.14-.55-.53.22-.14-.55-.53.22-.14-.55-.53.22-.14-.55-.53.22-.14-.55-.53.22-.14-.55-.53.22-.14-.55-.53.22-.14-.55-.53.22-.14-.55-.53.22-.14-.55-.53.22-.14-.55-.53.22-.14-.55-.53.22-.14-.55-.53.22-.14-.55-.53.22-.14-.55-.53.22-.14-.55-.53.22-.14-.55-.53.22-.14-.55-.53.22-.14-.55-.53.22-.14-.55-.53.22-.14-.55-.53.22-.14-.55-.53.22-.14-.55-.53.22-.14-.55-.53.22-.14-.55-.53.22-.14-.55-.53.22-.14-.55-.53.22-.14-.55-.53.22-.14-.55-.53.22-.14-.55-.53.22-.14-.55-.53 3.28-2.04 9.29-5.78 1.95-1.22.03.03 2.21-1.38 8.8-5.5L717.62 3m0-3c-.55 0-1.1.15-1.59.46l-1.9 1.19-8.8 5.5-1.8 1.12c-.15.06-.3.14-.44.22l-1.95 1.22-9.29 5.78-2.59 1.61c-.08-.2-.18-.39-.3-.56-.08-.23-.19-.46-.33-.66-.08-.23-.19-.46-.33-.67-.08-.23-.19-.46-.33-.67-.08-.23-.19-.46-.33-.67-.08-.23-.19-.46-.33-.66-.08-.23-.19-.46-.33-.67-.08-.23-.19-.46-.33-.67-.08-.23-.19-.46-.33-.67-.08-.23-.19-.46-.33-.66-.08-.23-.19-.46-.33-.67-.08-.23-.19-.46-.33-.66-.15-.43-.4-.82-.73-1.15-.57-.55-1.32-.85-2.1-.85-.17 0-.35.02-.52.05l-4.11.73L659 11.32l-2.78.49a3.007 3.007 0 0 0-2.46 3.3l.32 2.81c.55 4.74.55 5.04.64 12.96v6.35l-.02-.03-.11-.22-.06-.12-.16-.33-.11-.22-.06-.11-.16-.33-.11-.22-.06-.11-.16-.33-.11-.22-.06-.11-.16-.33-.11-.22-.06-.11-.17-.34-.11-.21-.06-.11-.17-.34-.11-.22-.06-.11-.16-.33-.11-.21-.06-.12-.17-.34-.11-.22-.06-.12-.16-.33-.11-.22-.06-.11-.16-.33-.11-.22-.06-.12-.16-.33-.11-.22-.06-.12-.16-.33-.11-.22-.06-.11-.17-.34-.11-.22-.06-.11-.17-.34-.11-.22-.06-.12-.16-.33-.11-.21-.06-.11-.17-.34c-3.11-6.32-6.1-10.86-9.68-14.72l-1.53-1.65c-.58-.63-1.38-.96-2.2-.96-.46 0-.92.1-1.34.32l-2.01 1.01-9.19 4.6-.17.08a2.994 2.994 0 0 0-2.61.02l-2.08 1.03-9.68 4.79-3.48 1.72a3 3 0 0 0-1.61 2.1c-.16.79 0 1.6.44 2.26.06.16.13.32.21.47l-28.74 5.51-2.09.37-3.29.58c-3.59.63-6.08.89-9.67 1.16l-2.86.22c-1.6.12-2.82 1.48-2.77 3.08l.08 2.86.49 16.95.11 3.98c.02.57.19 1.11.5 1.58.08.23.19.46.33.67.08.23.19.46.33.66.08.23.19.46.33.67.08.23.19.46.33.67.08.23.19.46.33.67.08.23.19.46.33.67.08.23.19.46.33.67.08.23.19.46.33.66.08.23.19.46.33.66.08.23.19.46.33.66.08.23.19.46.33.67.08.23.19.46.33.66.08.23.19.46.33.67.08.23.19.46.33.67.08.24.19.46.33.67.08.23.19.46.33.66.08.23.19.46.33.67.08.23.19.46.33.67.08.23.19.46.33.66.08.23.19.46.33.66.08.23.19.46.33.67.08.23.19.46.33.67.08.23.19.46.33.67.08.23.19.46.33.67.08.23.19.46.33.67.08.23.19.46.33.67.08.23.19.46.33.67.08.23.19.46.33.67.08.24.19.46.33.67.08.23.19.46.33.66.08.23.19.46.33.67.08.23.19.46.33.67.08.23.19.46.33.66.08.23.19.46.33.67.08.23.19.46.33.66.05.13.1.25.16.37-6.09 5.26-12.68 9.85-19.67 13.69l-3.87 2.13c-.87.48-1.45 1.36-1.54 2.35-.07.69.11 1.38.49 1.95.08.23.19.46.33.67.08.23.19.46.33.67.08.23.19.46.33.67.08.23.19.46.33.67.08.23.19.46.33.67.08.23.19.46.33.66.08.23.19.46.33.67.08.23.19.46.33.66.08.23.19.46.33.66.08.23.19.46.33.67.08.23.19.46.33.67.08.23.19.46.33.66.08.23.19.46.33.67.08.23.19.46.33.67.08.23.19.46.33.67.08.23.19.46.33.66.08.23.19.46.33.67.08.23.19.46.33.67.08.23.19.46.33.66.08.23.19.46.33.67.08.23.19.46.33.67.08.23.19.46.33.67.08.23.19.46.33.67.08.23.19.46.33.67.08.23.19.46.33.67.08.23.19.46.33.67.08.23.19.46.33.67.08.23.19.46.33.67.08.23.19.46.33.67.08.23.19.46.33.66.08.23.19.46.33.67.08.23.19.46.33.67.08.23.19.46.33.67.08.23.19.46.33.67.08.23.19.46.33.67.18.51.49.96.92 1.31l3.4 2.82c4.55 3.77 6.77 6.45 9.49 11.51l1.53 2.83c.4.73 1.08 1.27 1.88 1.48.25.07.5.1.76.1.56 0 1.12-.16 1.61-.47l2.72-1.72c12.67-8.03 25.28-19.1 34.21-29.98 7.89 5.1 15.87 11.79 22.19 18.65l2.34 2.54c.57.62 1.37.97 2.21.97h.09c.87-.03 1.68-.43 2.23-1.1l2.19-2.68 13.69-16.76 1.95-2.39c.29-.35.49-.76.59-1.2.06.13.13.25.21.36.08.23.19.46.33.67.08.23.19.46.33.66.08.23.19.46.33.67.08.23.19.46.33.66.08.23.19.46.33.67.08.23.19.46.33.67.08.23.19.46.33.67.08.23.19.46.33.67.08.23.19.46.33.67.08.23.19.46.33.67.08.23.19.46.33.67.08.23.19.46.33.66.08.23.19.46.33.67.08.23.19.46.33.66.08.23.19.46.33.67.08.23.19.46.33.67.08.23.19.46.33.67.08.23.19.46.33.67.08.23.19.46.33.67.08.23.19.46.33.67.16.45.43.87.79 1.21.56.52 1.29.8 2.04.8.17 0 .35-.02.52-.05l3.88-.68 18.87-3.33 2.91-.51c1.61-.28 2.7-1.81 2.44-3.43l-.47-2.92c-.19-1.19-.51-4.54-.51-13.67V90.66c9.91 2.74 19.4 6.33 26.41 10l2.67 1.4c.43.23.91.34 1.39.34a2.988 2.988 0 0 0 2.66-1.63l1.38-2.68 9.29-18 1.48-2.86c.38-.74.44-1.61.16-2.39-.08-.23-.19-.45-.33-.65 0-.01 0-.01-.01-.02-.08-.23-.19-.45-.33-.65 0-.01 0-.01-.01-.02-.08-.23-.19-.45-.33-.65 0-.01 0-.01-.01-.02-.08-.23-.19-.45-.33-.65 0-.01 0-.01-.01-.02-.08-.23-.19-.45-.33-.65 0-.01 0-.01-.01-.02-.08-.23-.19-.45-.33-.65 0-.01 0-.01-.01-.02-.08-.23-.19-.45-.33-.65 0-.01 0-.01-.01-.02-.08-.23-.19-.45-.33-.65 0 0 0-.01-.01-.01-.08-.23-.19-.45-.33-.65 0-.01 0-.01-.01-.02-.08-.23-.19-.45-.33-.65 0 0 0-.01-.01-.01-.08-.23-.19-.45-.33-.65 0-.01 0-.01-.01-.02-.08-.23-.19-.45-.33-.65 0-.01 0-.01-.01-.02-.08-.23-.19-.45-.33-.65 0-.01 0-.01-.01-.02-.08-.23-.19-.45-.33-.65 0-.01 0-.01-.01-.02-.08-.23-.19-.45-.33-.65 0-.01 0-.01-.01-.02-.08-.23-.19-.45-.33-.65 0-.01 0-.01-.01-.02-.08-.23-.19-.45-.33-.65 0-.01 0-.01-.01-.02-.08-.23-.19-.45-.33-.65 0 0 0-.01-.01-.01-.08-.23-.19-.45-.33-.65 0-.01 0-.01-.01-.02-.08-.23-.19-.45-.33-.65 0-.01 0-.01-.01-.02-.08-.23-.19-.45-.33-.65 0-.01 0-.01-.01-.02-.08-.23-.19-.45-.33-.65 0-.01 0-.01-.01-.02-.08-.23-.19-.45-.33-.65 0-.01 0-.01-.01-.02-.08-.23-.19-.45-.33-.65 0-.01 0-.01-.01-.02-.08-.23-.19-.45-.33-.65 0-.01 0-.01-.01-.02-.08-.23-.19-.45-.33-.65 0-.01 0-.01-.01-.02-.08-.23-.19-.45-.33-.65 0-.01 0-.01-.01-.02-.08-.23-.19-.45-.33-.65 0-.01 0-.01-.01-.02-.08-.23-.19-.45-.33-.65 0-.01 0-.01-.01-.02-.08-.23-.19-.45-.33-.65 0-.01 0-.01-.01-.02a3.51 3.51 0 0 0-.22-.48l1.74-1.14 8.99-5.92 2.49-1.64a3 3 0 0 0 .87-4.14l-.02-.03c-.08-.22-.18-.43-.31-.64l-.02-.03c-.08-.22-.18-.43-.31-.64l-.02-.03c-.08-.22-.18-.43-.31-.64l-.02-.03c-.08-.22-.18-.43-.31-.64l-.02-.03c-.08-.22-.18-.43-.31-.64l-.02-.03c-.08-.22-.18-.43-.31-.64l-.02-.03c-.08-.22-.18-.43-.31-.64l-.02-.03c-.08-.22-.18-.43-.31-.64l-.02-.03c-.08-.22-.18-.43-.31-.64l-.02-.03c-.08-.22-.18-.43-.31-.64l-.02-.03c-.08-.22-.18-.43-.31-.64l-.02-.03c-.08-.22-.18-.43-.31-.64l-.02-.03c-.08-.22-.18-.43-.31-.64l-.02-.03c-.08-.22-.18-.43-.31-.64l-.02-.03c-.08-.22-.18-.43-.31-.64l-.02-.03c-.08-.22-.18-.43-.31-.64l-.02-.03c-.08-.22-.18-.43-.31-.64l-.02-.03a3.07 3.07 0 0 0-.31-.63l-.02-.03c-.08-.22-.18-.43-.31-.64l-.02-.03c-.08-.22-.18-.43-.31-.64l-.02-.03c-.08-.22-.18-.43-.31-.64l-.02-.03c-.08-.22-.18-.43-.31-.64l-.02-.03c-.08-.22-.18-.43-.31-.64l-.02-.03c-.08-.22-.18-.43-.31-.64l-.02-.03c-.08-.22-.18-.43-.31-.64l-.02-.03c-.08-.22-.18-.43-.31-.64l-.02-.03c-.08-.22-.18-.43-.31-.64l-.02-.03c-.08-.22-.18-.43-.31-.64l-.02-.03c-.08-.22-.18-.43-.31-.64l-.02-.03c-.08-.22-.18-.43-.31-.64l-.02-.03c-.08-.22-.18-.43-.31-.64l-.02-.03c-.08-.22-.18-.43-.31-.64l-.02-.03c-.08-.22-.18-.43-.31-.64l-.02-.03c-.08-.22-.18-.43-.31-.64l-.02-.03c-.08-.22-.18-.43-.31-.64l-.02-.03c-.08-.22-.18-.43-.31-.64l-1.62-2.5c-3.6-5.55-6.64-9.16-10.82-12.88L719.25.47c-.21-.21-.92-.47-1.63-.47zm-72.44 65.18c.48 0 .96-.12 1.39-.34l2.78-1.46 5.34-2.81v26.52c-.1 7.92-.2 10.46-.56 14.26l-.33 3.46c-.05-.11-.12-.21-.18-.31-.08-.23-.19-.46-.33-.66-.08-.24-.19-.46-.33-.67-.08-.23-.19-.46-.33-.66-.08-.23-.19-.46-.33-.67-.08-.24-.2-.46-.33-.67-.08-.23-.19-.46-.33-.66-.08-.24-.19-.46-.33-.67-.08-.23-.19-.46-.33-.66-.08-.24-.19-.46-.33-.67-.08-.23-.19-.46-.33-.67-.08-.23-.19-.46-.33-.66-.08-.24-.19-.46-.33-.67-.08-.24-.2-.46-.33-.67-.08-.23-.19-.46-.33-.66-.08-.23-.19-.46-.33-.67-.08-.23-.19-.46-.33-.66-.08-.23-.19-.46-.33-.67-.08-.23-.19-.46-.33-.67-.08-.23-.19-.46-.33-.67-.08-.23-.19-.46-.33-.67-.19-.54-.53-1.02-.99-1.38l-2.44-1.88c-3.11-2.41-5.72-4.39-8.04-6.1 1.5-3.24 2.93-6.59 4.24-9.97 1.17-3.14 1.17-3.14 1.89-4.51l.68-1.32c.03-.07.07-.13.09-.2l1.65-.87c.05.02.1.04.16.06.28.13.6.18.92.18z"/><path class="st0" d="M36.67 244.9c-.34 0-.67-.12-.94-.33l-2.46-1.99c-3.96-3.2-9.65-6.29-14.5-7.87l-4.26-1.38c-.48-.16-.84-.54-.98-1.02a.292.292 0 0 1-.02-.09c-.14-.16-.25-.36-.31-.57a.292.292 0 0 1-.02-.09c-.14-.16-.25-.36-.31-.57a.292.292 0 0 1-.02-.09c-.14-.16-.25-.36-.31-.57a.292.292 0 0 1-.02-.09c-.14-.16-.25-.36-.31-.57a.292.292 0 0 1-.02-.09c-.14-.16-.25-.36-.31-.57a.292.292 0 0 1-.02-.09c-.14-.16-.25-.36-.31-.57a.292.292 0 0 1-.02-.09 1.477 1.477 0 0 1-.33-.67 1.477 1.477 0 0 1-.33-.67 1.477 1.477 0 0 1-.33-.67 1.477 1.477 0 0 1-.33-.67 1.477 1.477 0 0 1-.33-.67c-.14-.16-.25-.36-.31-.57a.292.292 0 0 1-.02-.09c-.14-.16-.25-.36-.31-.57a.292.292 0 0 1-.02-.09c-.14-.16-.25-.36-.31-.57a.292.292 0 0 1-.02-.09c-.14-.16-.25-.36-.31-.57a.292.292 0 0 1-.02-.09c-.14-.16-.25-.36-.31-.57a.292.292 0 0 1-.02-.09c-.14-.16-.25-.36-.31-.57a.292.292 0 0 1-.02-.09c-.14-.16-.25-.36-.31-.57a.292.292 0 0 1-.02-.09c-.14-.16-.25-.36-.31-.57a.292.292 0 0 1-.02-.09c-.14-.16-.25-.36-.31-.57a.292.292 0 0 1-.02-.09 1.477 1.477 0 0 1-.33-.67c-.14-.16-.25-.36-.31-.57a.292.292 0 0 1-.02-.09c-.14-.16-.25-.36-.31-.57a.292.292 0 0 1-.02-.09c-.14-.16-.25-.36-.31-.57a.292.292 0 0 1-.02-.09c-.14-.16-.25-.36-.31-.57a.292.292 0 0 1-.02-.09c-.14-.16-.25-.36-.31-.57a.292.292 0 0 1-.02-.09c-.14-.16-.25-.36-.31-.57a.292.292 0 0 1-.02-.09c-.14-.16-.25-.36-.31-.57a.292.292 0 0 1-.02-.09c-.14-.16-.25-.36-.31-.57a.292.292 0 0 1-.02-.09 1.477 1.477 0 0 1-.33-.67 1.477 1.477 0 0 1-.33-.67 1.477 1.477 0 0 1-.33-.67c-.14-.16-.25-.36-.31-.57a.292.292 0 0 1-.02-.09c-.14-.16-.25-.36-.31-.57a.292.292 0 0 1-.02-.09c-.14-.16-.25-.36-.31-.57a.292.292 0 0 1-.02-.09c-.14-.16-.25-.36-.31-.57a1.5 1.5 0 0 1 .3-1.38l2.9-3.41c12.63-14.84 21.43-41.56 21.9-66.49l.06-2.94c.02-.82.68-1.47 1.5-1.47h25.46a1.492 1.492 0 0 1 1.46 1.18c.02.02.04.05.06.07.13.18.23.38.27.59.02.02.04.05.06.07.13.18.23.38.27.59.02.02.04.05.06.07.13.18.23.38.27.59.02.02.04.05.06.07.13.18.23.38.27.59.02.02.04.05.06.07.13.18.23.38.27.59.02.02.04.05.06.07.13.18.23.38.27.59.02.02.04.05.06.07l.08.11-.06-.31c-.01-.04-.03-.26-.03-.26l-.04-.4-1.22-3.39c-.28-.78.12-1.64.9-1.92l23.94-8.67a1.486 1.486 0 0 1 1.67.46c2.66-2.8 6.13-4.71 9.82-5.37.91-.16 1.83-.24 2.73-.24 5.31 0 9.97 2.9 12.17 7.58.09.16.21.41.33.67.09.16.21.41.33.66.09.15.2.38.31.62.12.23.24.46.35.7.09.16.21.41.33.67.09.15.2.39.31.63.12.23.24.46.35.7.09.16.21.41.33.67.09.16.21.41.33.66.09.16.21.41.33.67.09.15.2.38.31.62.12.23.24.47.35.71.09.16.21.41.33.67.09.16.21.41.33.67.09.16.21.41.33.66.09.16.21.41.33.67.09.16.21.41.33.66.09.15.2.39.31.62.12.23.24.47.35.71.09.16.21.41.33.66.09.16.21.41.33.67.09.16.21.41.33.67.09.16.21.41.33.67.09.16.21.41.33.66.09.16.21.41.33.67.09.16.21.41.33.66.09.16.2.39.31.63.12.23.24.46.35.7.09.16.21.41.33.67.09.16.21.41.33.67.07.12.16.3.25.49 3.17-.34 7.33-.98 13.91-2.14 0 0 29.33-5.96 29.34-5.96 9.36-1.65 12.7-2.43 18.62-4.08l5.62-1.57c.13-.04.27-.06.4-.06a1.515 1.515 0 0 1 1.47 1.19c.16.19.28.42.33.67.17.19.28.42.33.67.17.19.28.42.33.67.16.19.28.42.33.67.16.19.28.42.33.67.17.19.28.42.33.67.17.19.28.42.33.67.17.19.28.42.33.67.16.19.28.42.33.66.17.19.28.42.33.67.17.19.28.42.33.67.17.19.28.42.33.67.16.19.28.42.33.67.16.19.28.42.33.67.17.19.28.42.33.67.17.19.28.42.33.67.16.19.28.42.33.67.16.19.28.42.33.67.17.19.28.42.33.67.16.19.28.42.33.67.16.19.28.42.33.67.17.19.28.42.33.67.17.19.28.42.33.67.16.19.28.42.33.67.16.19.28.42.33.67.17.19.28.42.33.67.16.19.28.42.33.67.16.19.28.42.33.67.16.19.28.42.33.67.17.19.28.42.33.67.16.19.28.42.33.67.17.19.28.42.33.66.17.19.28.42.33.67.17.19.28.42.33.67.17.19.28.42.33.67.23.27.37.62.37.98v8.67l1.28-.76c2.61-1.56 4.79-2.93 6.75-4.26-.05-.1-.09-.21-.12-.32l-.01-.05c-.15-.18-.26-.39-.32-.62l-.01-.05c-.15-.18-.26-.39-.32-.62l-.01-.05c-.15-.18-.26-.39-.32-.62l-.01-.05c-.15-.18-.26-.39-.32-.62l-.01-.05c-.15-.18-.26-.39-.32-.62l-.01-.05c-.15-.18-.26-.39-.32-.62l-.01-.05c-.15-.18-.26-.39-.32-.62l-.01-.05c-.15-.18-.26-.39-.32-.62l-.01-.05c-.15-.18-.26-.39-.32-.62l-.01-.05c-.15-.18-.26-.39-.32-.62l-.01-.05c-.15-.18-.26-.39-.32-.62l-.01-.05c-.15-.18-.26-.39-.32-.62l-.01-.05c-.15-.18-.26-.39-.32-.62l-.01-.05c-.15-.18-.26-.39-.32-.62l-.01-.05c-.15-.18-.26-.39-.32-.62l-.01-.05c-.15-.18-.26-.39-.32-.62l-.01-.05c-.15-.18-.26-.39-.32-.62l-.01-.05c-.15-.18-.26-.39-.32-.62l-.01-.05c-.15-.18-.26-.39-.32-.62l-.01-.05c-.15-.18-.26-.39-.32-.62l-.01-.05c-.15-.18-.26-.39-.32-.62l-.01-.05c-.15-.18-.26-.39-.32-.62l-.01-.05c-.15-.18-.26-.39-.32-.62l-.01-.05c-.15-.18-.26-.39-.32-.62l-.91-3.64a131.24 131.24 0 0 0-4.65-14.74c-.02-.04-.09-.24-.09-.24l-.18-.29a1.27 1.27 0 0 1-.17-.4l-.16-.26a1.23 1.23 0 0 1-.17-.41l-.16-.26a1.27 1.27 0 0 1-.17-.4l-.16-.26a1.27 1.27 0 0 1-.17-.4l-.16-.26a1.27 1.27 0 0 1-.17-.4l-.16-.26a1.27 1.27 0 0 1-.17-.4l-.16-.26a1.27 1.27 0 0 1-.17-.4l-.16-.26a1.27 1.27 0 0 1-.17-.4l-.16-.26a1.27 1.27 0 0 1-.17-.4l-.16-.26c-.08-.13-.13-.26-.17-.4l-.16-.26a1.27 1.27 0 0 1-.17-.4l-.16-.26a1.23 1.23 0 0 1-.17-.41l-.16-.26a1.23 1.23 0 0 1-.17-.41l-.16-.26a1.27 1.27 0 0 1-.17-.4l-.16-.26a1.27 1.27 0 0 1-.17-.4l-.16-.26a1.27 1.27 0 0 1-.17-.4l-.16-.26a1.27 1.27 0 0 1-.17-.4l-.16-.26a1.27 1.27 0 0 1-.17-.4l-.16-.26a1.27 1.27 0 0 1-.17-.4l-.16-.26a1.27 1.27 0 0 1-.17-.4l-.16-.26a1.27 1.27 0 0 1-.17-.4l-.16-.26a1.27 1.27 0 0 1-.17-.4l-.16-.26a1.23 1.23 0 0 1-.17-.41l-.16-.26a1.23 1.23 0 0 1-.17-.41l-.16-.26a1.23 1.23 0 0 1-.17-.41l-.16-.26c-.22-.36-.28-.8-.16-1.21.12-.41.41-.75.79-.93l22.62-10.82a1.495 1.495 0 0 1 1.92.55l1.42 2.25c2.22 3.52 4.02 6.71 5.66 10.06l11.64 23.27c.82 1.63 1.6 3.3 2.36 5.05 5.91-8.64 10.1-18.56 13.12-30.97 1.2-5.04 1.85-9.18 2.03-13.02l.14-3c.02-.4.2-.77.49-1.04.28-.25.64-.39 1.01-.39l26.13 1.29c.49.02.94.29 1.2.7.09.15.16.31.2.48.05.06.1.12.14.19.09.15.16.31.2.48.05.06.1.12.14.18.09.15.16.31.2.48.05.06.1.12.14.18.09.15.16.31.2.48.05.06.1.12.14.18.09.15.16.31.2.48.05.06.1.12.14.18.09.15.16.31.2.48.05.06.1.12.14.18.09.15.16.31.2.48.05.06.1.12.14.18.09.15.16.31.2.48.05.06.1.12.14.18.09.15.16.31.2.48.05.06.1.12.14.19.09.15.16.31.2.48.05.06.1.12.14.18.09.15.16.31.2.48.05.06.1.12.14.19.09.15.16.31.2.48.05.06.1.12.14.18.09.15.16.31.2.48.05.06.1.12.14.18.09.15.16.31.2.48.05.06.1.12.14.18.06.09.11.19.14.29 3.35-.12 5.51-.42 12.67-1.68l17.88-3.15.01-.19v-7.2c0-3.73-.19-7-.54-9.46l-.41-2.88c-.12-.8.43-1.55 1.22-1.69l25.68-4.53c.09-.02.17-.02.26-.02a1.51 1.51 0 0 1 1.47 1.18c.17.19.28.42.33.67.17.19.28.42.33.67.17.19.28.42.33.67.17.19.28.42.33.66.17.19.28.42.33.67.17.19.28.42.33.67.17.19.28.42.33.67.17.19.28.42.33.67.17.19.28.42.33.67.17.19.28.42.33.67.17.19.28.42.33.67.17.19.28.42.33.67.17.19.28.42.33.67.17.19.28.42.33.67.17.19.28.42.33.67.17.19.28.42.33.67.17.19.28.42.33.67.17.19.28.42.33.67.17.19.28.42.33.67.17.19.28.42.33.67.17.19.28.42.33.67.17.19.28.42.33.67.17.19.28.42.33.67.17.19.28.42.33.67.17.19.28.42.33.67.17.19.28.42.33.67.17.19.28.42.33.67.09.1.16.21.22.33l.57-.1c7.84-1.38 9.94-1.86 14.05-3.2l3.93-1.28c.15-.05.31-.07.47-.07.31 0 .62.1.88.29.3.22.51.54.59.9.16.19.28.42.33.67.16.19.28.42.33.67.17.19.28.42.33.67.17.19.28.42.33.67.13.15.23.33.29.52.26-.27.61-.44 1.01-.46l2.87-.13c1.32-.06 2.56-.13 3.97-.27-.1-.2-.15-.43-.15-.66v-23c0-.81.65-1.48 1.46-1.5l2.93-.07c3.55-.09 7.01-.52 13.7-1.7l31.18-5.5c7.6-1.34 11.57-2.23 14.66-3.3l3.98-1.37c.16-.06.33-.08.49-.08.31 0 .61.1.87.28.31.22.52.54.59.9.17.19.28.42.33.66.17.19.28.42.33.67.17.19.28.42.33.66.17.19.28.42.33.67.17.19.28.42.33.66.17.19.28.42.33.67.16.19.28.42.33.66.17.19.28.42.33.67.17.19.28.42.33.67.17.19.28.42.33.66.17.19.28.42.33.67.17.19.28.42.33.66.17.19.28.42.33.67.17.19.28.42.33.66.17.19.28.42.33.67.17.19.28.42.33.66.17.19.28.42.33.67.16.19.28.42.33.66.17.19.28.42.33.67.17.19.28.42.33.66.17.19.28.42.33.67.17.19.28.42.33.66.17.19.28.42.33.67.17.19.28.42.33.66.17.19.28.42.33.67.17.19.28.42.33.66.17.19.28.42.33.67.17.19.28.42.33.66.17.19.28.42.33.67.17.19.28.42.33.67.17.19.28.42.33.66.17.19.28.42.33.67.17.19.28.42.33.66.17.19.28.42.33.67.17.19.28.42.33.66.23.27.37.62.37.98v8.95c.04.09.07.19.1.29.17.19.28.42.33.66.17.19.28.42.33.67.17.19.28.42.33.66.17.19.28.42.33.67.12.14.21.3.27.46 19.09-8.94 32.97-18.27 47.59-31.94 7.92-7.3 14.23-14.61 16.88-19.57l1.35-2.54c.27-.5.79-.79 1.32-.79.22 0 .44.05.65.15l22.19 10.66c.42.2.72.58.82 1.03.16.19.28.42.33.67.16.19.28.42.33.66.16.19.28.42.33.67.16.19.28.42.33.66.16.19.28.42.33.67.16.19.28.42.33.66.16.19.28.42.33.67.16.19.28.42.33.66.16.19.28.42.33.67.16.19.28.42.33.66.16.19.28.42.33.67.16.19.28.42.33.66.16.19.28.42.33.67.16.19.28.42.33.66.16.19.28.42.33.67.16.19.28.42.33.66.16.19.28.42.33.67.16.19.28.42.33.66.16.19.28.42.33.67.16.19.28.42.33.67.16.19.28.42.33.66.16.19.28.42.33.67.16.19.28.42.33.66.16.19.28.42.33.67.16.19.28.42.33.66.16.19.28.42.33.67.16.19.28.42.33.66.16.19.28.42.33.67.16.19.28.42.33.66.16.19.28.42.33.67.16.19.28.42.33.66.16.19.28.42.33.67.16.19.28.42.33.66.16.19.28.42.33.67.16.19.28.42.33.66.18.2.3.45.34.72.08.48-.07.96-.4 1.31l-2.91 2.99c-2.05 2.11-2.05 2.11-3.58 3.98-7.47 8.86-14.13 15.81-21.53 22.47v35.04c0 7.7.09 10.09.56 15.07l.26 2.76c.07.78-.46 1.48-1.23 1.62l-25.57 4.51c-.09.01-.17.02-.26.02-.37 0-.74-.14-1.02-.4-.23-.21-.38-.49-.45-.79-.17-.19-.28-.42-.33-.66-.17-.19-.28-.42-.33-.67-.17-.19-.28-.42-.33-.66-.17-.19-.28-.42-.33-.67-.17-.19-.28-.42-.33-.66-.17-.19-.28-.42-.33-.67-.17-.19-.28-.42-.33-.66-.17-.19-.28-.42-.33-.67-.17-.19-.28-.42-.33-.67-.17-.19-.28-.42-.33-.67-.17-.19-.28-.42-.33-.66-.17-.19-.28-.42-.33-.67-.17-.19-.28-.42-.33-.66-.17-.19-.28-.42-.33-.67-.17-.19-.28-.42-.33-.66-.17-.19-.28-.42-.33-.67-.17-.19-.28-.42-.33-.66-.17-.19-.28-.42-.33-.67-.17-.19-.28-.42-.33-.67-.17-.19-.28-.42-.33-.66-.17-.19-.28-.42-.33-.67-.17-.19-.28-.42-.33-.66-.17-.19-.28-.42-.33-.67-.17-.19-.28-.42-.33-.66-.17-.19-.28-.42-.33-.67-.17-.19-.28-.42-.33-.66-.17-.19-.28-.42-.33-.67-.17-.19-.28-.42-.33-.66-.17-.19-.28-.42-.33-.67-.17-.19-.28-.42-.33-.66-.17-.19-.28-.42-.33-.67-.17-.19-.28-.42-.33-.66-.17-.19-.28-.42-.33-.67-.17-.19-.28-.42-.33-.66-.17-.19-.28-.42-.33-.67-.27-.31-.4-.71-.36-1.12 0 0 .44-4.64.47-4.99-3.67 2.15-7.85 4.45-12.92 7.12l-2.85 1.5c-.22.12-.46.17-.7.17-.17 0-.33-.03-.49-.08-.39-.14-.71-.43-.88-.81l-.17-.4c-.06-.08-.12-.17-.16-.27l-.17-.39c-.06-.08-.12-.17-.16-.27l-.17-.4c-.06-.08-.12-.17-.16-.27l-.17-.39c-.06-.08-.12-.17-.16-.27l-.17-.4c-.06-.08-.11-.17-.16-.27l-.17-.39c-.06-.08-.12-.17-.16-.27l-.17-.39c-.06-.08-.12-.18-.16-.27l-.17-.39c-.06-.08-.12-.17-.16-.27l-.17-.39c-.06-.08-.12-.17-.16-.27l-.17-.4c-.06-.08-.12-.17-.16-.27l-.17-.39c-.06-.08-.12-.17-.16-.27l-.17-.4c-.06-.08-.12-.17-.16-.27l-.17-.39c-.06-.08-.12-.17-.16-.27l-.17-.39a1.35 1.35 0 0 1-.15-.26c-1.22-1.82-2.73-3.63-5.17-6.2l-1.38-1.44c-5.29 15.29-12.59 27.45-22.29 37.15-7.67 7.71-14.95 12.94-28.86 20.69l-2.77 1.54c-.23.12-.48.19-.73.19-.15 0-.3-.02-.45-.07-.39-.12-.72-.4-.9-.78l-.26-.52c-.03-.04-.05-.09-.08-.14l-.26-.53c-.03-.04-.05-.09-.07-.13l-.26-.53c-.03-.04-.05-.09-.08-.14l-.26-.53c-.03-.04-.05-.09-.07-.13l-.26-.52c-.03-.04-.05-.09-.08-.14l-.26-.53c-.03-.04-.05-.09-.07-.13l-.25-.52c-.03-.05-.06-.1-.08-.15l-.1-.2c-1.97-3.55-4.3-6.31-8.89-10.49l-3.44-3.13c-.23-.21-.39-.49-.46-.79-.17-.19-.28-.42-.33-.67-.17-.19-.28-.42-.33-.66-.17-.19-.28-.42-.33-.67-.17-.19-.28-.42-.33-.66-.17-.19-.28-.42-.33-.67-.17-.19-.28-.42-.33-.66-.17-.19-.28-.42-.33-.67-.17-.19-.28-.42-.33-.66-.17-.19-.28-.42-.33-.67-.17-.19-.28-.42-.33-.66-.17-.19-.28-.42-.33-.67-.17-.19-.28-.42-.33-.66-.17-.19-.28-.42-.33-.67-.17-.19-.28-.42-.33-.66-.17-.19-.28-.42-.33-.67-.17-.19-.28-.42-.33-.66-.17-.19-.28-.42-.33-.67-.17-.19-.28-.42-.33-.67-.17-.19-.28-.42-.33-.66-.17-.19-.28-.42-.33-.67-.17-.19-.28-.42-.33-.66-.17-.19-.28-.42-.33-.67-.17-.19-.28-.42-.33-.66-.17-.19-.28-.42-.33-.67-.17-.19-.28-.42-.33-.66-.17-.19-.28-.42-.33-.67-.17-.19-.28-.42-.33-.66-.17-.19-.28-.42-.33-.67-.17-.19-.28-.42-.33-.66-.17-.19-.28-.42-.33-.67-.17-.19-.28-.42-.33-.66-.17-.19-.28-.42-.33-.67-.06-.07-.12-.15-.16-.23l-1.91.49c-.12.03-.25.05-.37.05a1.491 1.491 0 0 1-1.46-1.19c-.17-.19-.28-.42-.33-.67-.17-.19-.28-.42-.33-.66-.17-.19-.28-.42-.33-.67-.17-.19-.28-.42-.33-.66 0-.01-.01-.01-.02-.02-.22.47-.67.8-1.21.86l-2.71.26c-4.56.44-6.82.73-14.02 2l-13.89 2.45c-1.07 11.17-2.89 17.78-7.05 25.75-4.07 7.71-9.67 14.73-16.64 20.88-3.04 2.7-5.35 4.54-10.29 8.18l-2.57 1.89c-.26.19-.57.29-.89.29-.09 0-.18-.01-.27-.02-.41-.08-.77-.32-.99-.66l-1.73-2.69c-3.24-5.03-5.5-7.21-11.56-11.11l-4.09-2.64c-.34-.22-.57-.56-.65-.94-.16-.19-.28-.42-.33-.67-.17-.19-.28-.42-.33-.67-.16-.19-.28-.42-.33-.67-.17-.19-.28-.42-.33-.67-.16-.19-.28-.42-.33-.67-.16-.19-.28-.42-.33-.67-.16-.19-.28-.42-.33-.67-.17-.19-.28-.42-.33-.67-.16-.19-.28-.42-.33-.67-.17-.19-.28-.42-.33-.67-.16-.19-.28-.42-.33-.67-.16-.19-.28-.42-.33-.67-.16-.19-.28-.42-.33-.67-.16-.19-.28-.42-.33-.67-.16-.19-.28-.42-.33-.67-.16-.19-.28-.42-.33-.67-.17-.19-.28-.42-.33-.67-.16-.19-.28-.42-.33-.67-.16-.19-.28-.42-.33-.67-.16-.19-.28-.42-.33-.66-.17-.19-.28-.42-.33-.67-.16-.19-.28-.42-.33-.67-.17-.19-.28-.42-.33-.67-.16-.19-.28-.42-.33-.67-.16-.19-.28-.42-.33-.67-.16-.19-.28-.42-.33-.67-.17-.19-.28-.42-.33-.67-.17-.19-.28-.42-.33-.67-.16-.19-.28-.42-.33-.67-.17-.19-.28-.42-.33-.67-.16-.19-.28-.42-.33-.67-.17-.19-.28-.42-.33-.67-.16-.19-.28-.42-.33-.67-.16-.19-.28-.42-.33-.67-.16-.19-.28-.42-.33-.67-.24-.28-.37-.64-.37-1.01.01-.52.29-1 .74-1.26l4.2-2.47c.7-.41 1.39-.83 2.08-1.26-.02-.06-.04-.12-.05-.18-.17-.19-.28-.42-.33-.67-.16-.19-.28-.42-.33-.67-.17-.19-.28-.42-.33-.67-.17-.19-.28-.42-.33-.67-.17-.19-.28-.42-.33-.67-.17-.19-.28-.42-.33-.67-.17-.19-.28-.42-.33-.67-.17-.19-.28-.42-.33-.67-.16-.19-.28-.42-.33-.67-.16-.19-.28-.42-.33-.67-.17-.19-.28-.42-.33-.67-.17-.19-.28-.42-.33-.67-.16-.19-.28-.42-.33-.67-.17-.19-.28-.42-.33-.67-.17-.19-.28-.42-.33-.67-.12-.13-.21-.29-.27-.45-4.36 15.46-11.2 29.84-19.48 40.87-8.14 10.87-18.1 20.2-31.34 29.36l-2.47 1.71c-.25.17-.55.27-.85.27-.09 0-.18-.01-.27-.02-.39-.07-.74-.3-.96-.62l-1.71-2.47c-3.54-5.12-6.27-7.77-11.68-11.35l-3.98-2.63c-.33-.22-.56-.56-.64-.93-.17-.19-.28-.42-.33-.67-.16-.19-.28-.42-.33-.67-.16-.19-.28-.42-.33-.67-.17-.19-.28-.42-.33-.67-.17-.19-.28-.42-.33-.67-.16-.19-.28-.42-.33-.67-.16-.19-.28-.42-.33-.67-.17-.19-.28-.42-.33-.67-.17-.19-.28-.42-.33-.67-.16-.19-.28-.42-.33-.67-.16-.19-.28-.42-.33-.67-.17-.19-.28-.42-.33-.67-.16-.19-.28-.42-.33-.67-.16-.19-.28-.42-.33-.67-.17-.19-.28-.42-.33-.67-.17-.19-.28-.42-.33-.67-.16-.19-.28-.42-.33-.67-.16-.19-.28-.42-.33-.67-.16-.19-.28-.42-.33-.67-.16-.19-.28-.42-.33-.66-.17-.19-.28-.42-.33-.67-.16-.19-.28-.42-.33-.67-.17-.19-.28-.42-.33-.67-.17-.19-.28-.42-.33-.67-.16-.19-.28-.42-.33-.67-.05-.06-.1-.12-.14-.19v8.62c0 .79-.61 1.44-1.39 1.5l-4.11.3c-4.35.32-8.46.97-18.6 2.76 0 0-29.15 5.92-29.17 5.93-10.28 1.81-13.27 2.42-18.83 3.85l-5.54 1.42c-.12.03-.25.05-.37.05-.33 0-.65-.11-.92-.31-.28-.22-.47-.53-.55-.87-.17-.19-.28-.42-.33-.67-.16-.19-.28-.42-.33-.67-.16-.19-.28-.42-.33-.67-.17-.19-.28-.42-.33-.67-.17-.19-.28-.42-.33-.67-.16-.19-.28-.42-.33-.67-.16-.19-.28-.42-.33-.67-.17-.19-.28-.42-.33-.67-.17-.19-.28-.42-.33-.67-.16-.19-.28-.42-.33-.67-.17-.19-.28-.42-.33-.67-.17-.19-.28-.42-.33-.67-.16-.19-.28-.42-.33-.67-.16-.19-.28-.42-.33-.67-.17-.19-.28-.42-.33-.67-.17-.19-.28-.42-.33-.67-.16-.19-.28-.42-.33-.67-.17-.19-.28-.42-.33-.67-.17-.19-.28-.42-.33-.67-.16-.19-.28-.42-.33-.66-.17-.19-.28-.42-.33-.67-.16-.19-.28-.42-.33-.67-.17-.19-.28-.42-.33-.67-.17-.19-.28-.42-.33-.67-.16-.19-.28-.42-.33-.67-.17-.19-.28-.42-.33-.67-.17-.19-.28-.42-.33-.67-.16-.19-.28-.42-.33-.67-.16-.19-.28-.42-.33-.67-.17-.19-.28-.42-.33-.67-.17-.19-.28-.42-.33-.67-.16-.19-.28-.42-.33-.67-.16-.19-.28-.42-.33-.67-.17-.19-.28-.42-.33-.67-.17-.19-.28-.42-.33-.67-.23-.27-.37-.62-.37-.98v-3.26a15.51 15.51 0 0 1-4.2.58c-1.75 0-3.44-.3-5-.88.01.03.01.05.02.08.6 2.16 1.24 4.31 1.92 6.38 1.92 2.54 4.01 4.95 6.38 7.36l2.38 2.41c.2.2.34.46.4.74.17.19.28.42.33.67.17.19.28.42.33.67.17.19.28.42.33.67.17.19.28.42.33.66.17.19.28.42.33.67.17.19.28.42.33.67.17.19.28.42.33.67.17.19.28.42.33.67.17.19.28.42.33.67.17.19.28.42.33.67.17.19.28.42.33.67.17.19.28.42.33.67.17.19.28.42.33.67.17.19.28.42.33.67.17.19.28.42.33.67.17.19.28.42.33.67.17.19.28.42.33.67.17.19.28.42.33.67.17.19.28.42.33.67.17.19.28.42.33.67.17.19.28.42.33.67.17.19.28.42.33.67.17.19.28.42.33.67.17.19.28.42.33.67.17.19.28.42.33.67.17.19.28.42.33.66.17.19.28.42.33.67.17.19.28.42.33.67.17.19.28.42.33.67.17.19.28.42.33.67.17.19.28.42.33.67.17.19.28.42.33.67.17.19.28.42.33.67.17.19.28.42.33.67.17.19.28.42.33.67.26.3.39.69.36 1.08-.03.43-.24.82-.58 1.09l-2.68 2.07c-6.18 4.77-10.3 8.74-14.71 14.14l-2.22 2.72c-.28.34-.69.54-1.13.55h-.03c-.43 0-.83-.18-1.12-.5l-2.34-2.62c-5.17-5.79-9.72-12.59-13.52-20.21l-11.64-23.28c-2.47-4.88-4.67-10.2-6.57-15.88-4.04 30.3-11.74 52.01-24.9 70.23l-1.85 2.57c-.24.33-.61.55-1.02.61h-.5z"/><path class="st0" d="m527.64 35.61 2.59 1.24 15.84 7.6 3.76 1.81-.34.34.67.32-.34.34.67.32-.34.34.67.32-.34.34.67.32-.34.34.67.32-.34.34.67.32-.34.34.67.32-.34.34.67.32-.34.34.67.32-.34.34.67.32-.34.34.67.32-.34.34.67.32-.34.34.67.32-.34.34.67.32-.34.34.67.32-.34.34.67.32-.34.34.67.32-.34.34.67.32-.34.34.67.32-.34.34.67.32-.34.34.67.32-.34.34.67.32-.34.34.67.32-.34.34.67.32-.34.34.67.32-.34.34.67.32-.34.34.67.32-.34.34.67.32-.34.34.67.32-.34.34.67.32-.34.34.67.32-.34.34.67.32-.34.34.67.32-.34.34.67.32-.34.34.67.32-.34.34.67.32-2.91 2.99c-2.09 2.15-2.12 2.18-3.67 4.08-7.54 8.95-14.34 16.01-21.87 22.75v35.71c0 7.76.09 10.18.57 15.21l.26 2.76-2.73.48-18.96 3.34-3.88.68.07-.74-.4.07.07-.74-.4.07.07-.74-.4.07.07-.74-.4.07.07-.74-.4.07.07-.74-.4.07.07-.74-.4.07.07-.74-.4.07.07-.74-.4.07.07-.74-.4.07.07-.74-.4.07.07-.74-.4.07.07-.74-.4.07.07-.74-.4.07.07-.74-.4.07.07-.74-.4.07.07-.74-.4.07.07-.74-.4.07.07-.74-.4.07.07-.74-.4.07.07-.74-.4.07.07-.74-.4.07.07-.74-.4.07.07-.74-.4.07.07-.74-.4.07.07-.74-.4.07.07-.74-.4.07.07-.74-.4.07.07-.74-.4.07.07-.74-.4.07.07-.74-.4.07.07-.74-.4.07.07-.74-.4.07.07-.74-.4.07.07-.74-.4.07.07-.74-.4.07.37-3.92c.14-1.51.25-2.75.33-3.98-4.41 2.66-9.31 5.38-15.35 8.57l-2.85 1.5-.3-.68-.03.02-.3-.68-.03.02-.3-.68-.03.02-.3-.68-.03.02-.3-.68-.03.02-.3-.68-.03.02-.3-.68-.03.02-.3-.68-.03.02-.3-.68-.03.02-.3-.68-.03.02-.3-.68-.03.02-.3-.68-.03.02-.3-.68-.03.02-.26-.59a.922.922 0 0 1-.05-.08l-.02.01-.05-.11c-1.36-2.05-2.98-3.97-5.41-6.51l-2.91-3.06.21-.1-.31-.33c-.11.35-.24.72-.38 1.15-5.25 15.74-12.58 28.17-22.42 38.01-7.56 7.61-14.76 12.76-28.53 20.44l-2.77 1.54-.33-.67h-.01l-.33-.67h-.01l-.33-.67h-.01l-.33-.67h-.01l-.33-.67h-.01l-.33-.67h-.01l-.33-.67h-.01l-.1-.2c-2.11-3.82-4.61-6.74-9.23-10.95l-3.44-3.13.27-.12-.6-.55.27-.12-.6-.55.27-.12-.6-.55.27-.12-.6-.55.27-.12-.6-.55.27-.12-.6-.55.27-.12-.6-.55.27-.12-.6-.55.27-.12-.6-.55.27-.12-.6-.55.27-.12-.6-.55.27-.12-.6-.55.27-.12-.6-.55.27-.12-.6-.55.27-.12-.6-.55.27-.12-.6-.55.27-.12-.6-.55.27-.12-.6-.55.27-.12-.6-.55.27-.12-.6-.55.27-.12-.6-.55.27-.12-.6-.55.27-.12-.6-.55.27-.12-.6-.55.27-.12-.6-.55.27-.12-.6-.55.27-.12-.6-.55.27-.12-.6-.55.27-.12-.6-.55.27-.12-.6-.55.27-.12-.6-.55.27-.12-.6-.55.27-.12-.6-.55.27-.12-.6-.55.27-.12-.28-.26-3.23.82v-.75l-.33.08v-.75l-.33.08v-.75l-.33.08v-.75l-.33.08v-.75l-.33.08v-.75l-.33.08v-.75l-.33.08v-.75l-.33.08V131l-.33.08v-.75l-.33.08v-.75l-.33.08V129l-.33.08v-.75l-.18.05v5.69l-2.71.26c-4.61.44-6.89.74-14.14 2.02L346.24 139c-1.04 11.73-2.83 18.36-6.99 26.34-3.98 7.54-9.47 14.42-16.3 20.44-3 2.67-5.29 4.49-10.19 8.09l-2.57 1.89-1.73-2.69c-3.34-5.19-5.81-7.56-12.01-11.56l-4.09-2.64.37-.22-.7-.45.37-.22-.7-.45.37-.22-.7-.45.37-.22-.7-.45.37-.22-.7-.45.37-.22-.7-.45.37-.22-.7-.45.37-.22-.7-.45.37-.22-.7-.45.37-.22-.7-.45.37-.22-.7-.45.37-.22-.7-.45.37-.22-.7-.45.37-.22-.7-.45.37-.22-.7-.45.37-.22-.7-.45.37-.22-.7-.45.37-.22-.7-.45.37-.22-.7-.45.37-.22-.7-.45.37-.22-.7-.45.37-.22-.7-.45.37-.22-.7-.45.37-.22-.7-.45.37-.22-.7-.45.37-.22-.7-.45.37-.22-.7-.45.37-.22-.7-.45.37-.22-.7-.45.37-.22-.7-.45.37-.22-.7-.45.37-.22-.7-.45.37-.22-.7-.45.37-.22-.7-.45.37-.22-.7-.45.37-.22-.7-.45 4.2-2.47c1.53-.9 2.97-1.8 4.34-2.7l-1.27.33v-.75l-.33.08v-.75l-.33.08v-.75l-.33.08v-.75l-.33.08v-.75l-.33.08v-.75l-.33.08v-.75l-.33.08v-.75l-.33.08v-.75l-.33.08v-.75l-.33.08v-.75l-.33.08v-.75l-.33.08v-.75l-.33.08v-.75l-.33.08v-.75l-.33.08v-.75l-.33.08v-.75l-.33.08v-.75l-.33.08v-.75l-.33.08v-.75l-.48.37v-.75l-.33.08v-.75l-.33.08v-.75l-.07.02c-4.16 16.68-11.44 32.69-20.35 44.56-8.04 10.74-17.89 19.96-31 29.02l-2.47 1.71-1.71-2.47c-3.66-5.3-6.49-8.05-12.09-11.75l-3.98-2.63.35-.21-.69-.45.35-.21-.69-.45.35-.21-.69-.45.35-.21-.69-.45.35-.21-.69-.45.35-.21-.69-.45.35-.21-.69-.45.35-.21-.69-.45.35-.21-.69-.45.35-.21-.69-.45.35-.21-.69-.45.35-.21-.69-.45.35-.21-.69-.45.35-.21-.69-.45.35-.21-.69-.45.35-.21-.69-.45.35-.21-.69-.45.35-.21-.69-.45.35-.21-.69-.45.35-.21-.69-.45.35-.21-.69-.45.35-.21-.69-.45.35-.21-.69-.45.35-.21-.69-.45.35-.21-.69-.45.35-.21-.69-.45.35-.21-.69-.45.35-.21-.69-.45.35-.21-.69-.45.35-.21-.69-.45.35-.21-.69-.45.35-.21-.69-.45.35-.21-.69-.45.35-.21-.69-.45.35-.21-.47-.31v15.25l-2.78.21-1.33.1c-4.4.32-8.54.98-18.75 2.78l-29.09 5.91-.04.01-.04.01c-10.33 1.82-13.34 2.44-18.94 3.88l-1.79.46-3.75.96v-.75l-.33.09v-.75l-.33.09v-.75l-.33.09v-.75l-.33.09v-.75l-.33.09v-.75l-.33.09v-.75l-.33.09v-.75l-.33.09v-.75l-.33.09v-.75l-.33.09v-.75l-.33.09v-.75l-.33.09v-.75l-.33.09v-.75l-.33.09v-.75l-.33.09v-.75l-.33.09v-.75l-.33.09v-.75l-.33.09v-.75l-.33.09v-.75l-.33.09v-.75l-.33.09v-.75l-.33.09v-.75l-.33.09v-.75l-.33.09v-.75l-.33.09v-.75l-.33.09v-.75l-.33.09v-.75l-.33.09v-.75l-.33.09v-.75l-.33.09v-.75l-.33.09v-.75l-.33.09v-.75l-.33.09v-.75l-.33.09v-.75l-.33.09v-.75l-.33.09v-5.37c-1.04.43-2.12.77-3.25.97-.82.14-1.64.22-2.45.22-2.77 0-5.27-.84-7.27-2.29.28 1.21.56 2.36.85 3.38.64 2.34 1.32 4.56 2.01 6.68 2.01 2.68 4.22 5.23 6.66 7.71l2.38 2.41-.18.14.52.52-.18.14.52.52-.18.14.52.52-.18.14.52.52-.18.14.52.52-.18.14.52.52-.18.14.52.52-.18.14.52.52-.18.14.52.52-.18.14.52.52-.18.14.52.52-.18.14.52.52-.18.14.52.52-.18.14.52.52-.18.14.52.52-.18.14.52.52-.18.14.52.52-.18.14.52.52-.18.14.52.52-.18.14.52.52-.18.14.52.52-.18.14.52.52-.18.14.52.52-.18.14.52.52-.18.14.52.52-.18.14.52.52-.18.14.52.52-.18.14.52.52-.18.14.52.52-.18.14.52.52-.18.14.52.52-.18.14.52.52-.18.14.52.52-.18.14.52.52-.18.14.52.52-.18.14.52.52-2.68 2.07c-6.27 4.85-10.47 8.88-14.96 14.38l-2.22 2.72-2.34-2.62c-5.12-5.73-9.55-12.37-13.29-19.88-.11-.22-.22-.44-.33-.67-.11-.22-.22-.44-.33-.67l-.33-.66c-.11-.22-.22-.44-.33-.67-.11-.22-.22-.44-.33-.67l-.33-.66c-.11-.22-.22-.44-.33-.67-.11-.22-.22-.44-.33-.67l-.33-.66c-.11-.22-.22-.44-.33-.67l-.33-.66c-.11-.22-.22-.44-.33-.67l-.33-.66-.33-.66c-.11-.22-.22-.44-.33-.67-.11-.22-.22-.44-.33-.67l-.33-.66c-.11-.22-.22-.44-.33-.67-.11-.22-.22-.44-.33-.67l-.33-.66c-.11-.22-.22-.44-.33-.67-.11-.22-.22-.44-.33-.67l-.33-.66c-.11-.22-.22-.44-.33-.67-.11-.22-.22-.44-.33-.67l-.33-.66c-.11-.22-.22-.44-.33-.67l-.33-.66c-.11-.22-.22-.44-.33-.67l-.33-.66-.33-.66c-.11-.22-.22-.44-.33-.67-.11-.22-.22-.44-.33-.67l-.33-.66c-.11-.22-.22-.44-.33-.67-3.38-6.66-6.19-14.03-8.45-22.06-.04.3-.07.63-.1 1.03l-.18-.03-.02.12-.29 1.98v.03l-.01.03-.38 2.22c-3.98 30.65-11.62 52.44-24.78 70.66l-1.85 2.57-2.46-1.99c-4.09-3.31-9.97-6.5-14.98-8.13l-4.26-1.38.37-.44-.7-.23.37-.44-.7-.23.37-.44-.7-.23.37-.44-.7-.23.37-.44-.7-.23.37-.44-.7-.23.37-.44-.7-.23.37-.44-.7-.23.37-.44-.7-.23.37-.44-.7-.23.37-.44-.7-.23.37-.44-.7-.23.37-.44-.7-.23.37-.44-.7-.23.37-.44-.7-.23.37-.44-.7-.23.37-.44-.7-.23.37-.44-.7-.23.37-.44-.7-.23.37-.44-.7-.23.37-.44-.7-.23.37-.44-.7-.23.37-.44-.7-.23.37-.44-.7-.23.37-.44-.7-.23.37-.44-.7-.23.37-.44-.7-.23.37-.44-.7-.23.37-.44-.7-.23.37-.44-.77-.08.37-.44-.7-.23.37-.44-.7-.23.37-.44-.71-.22.37-.44-.7-.23.37-.44-.7-.23.37-.44-.71-.21 2.9-3.41c12.83-15.09 21.78-42.19 22.26-67.43l.06-2.94h25.46l-.18.67h.52l-.18.67h.52l-.18.67h.52l-.18.67h.52l-.18.67h.52l-.18.67h.52l-.18.67h.52l-.18.67h.52l-.18.67h.52l-.18.67h.52l-.18.67h.52l-.18.67h.52l-.18.67h.52l-.18.67h.52l-.18.67h.52l-.18.67h.52l-.18.67h.52l-.18.67h.52l-.18.67H60l-.18.67h.49c-.26-1.56-.51-3.13-.73-4.73l-.01-.05-.01-.05c-.04-.4-.08-.75-.12-1.03-.04-.29-.06-.51-.08-.7l-.65-3.35-.02-.13-.01-.13-.06-.58-.27-.74-1.01-2.82 2.81-1.02 17.11-6.19 4.02-1.46v.79l.33-.12v.79l.33-.12v.68c2.46-3.48 6.24-6.08 10.57-6.85.83-.15 1.66-.22 2.47-.22 4.89 0 8.91 2.67 10.81 6.72.12.22.23.44.33.66.12.22.23.44.33.67.12.22.23.44.33.67.12.22.23.44.33.66.12.22.23.44.33.67.12.22.23.44.33.67.12.22.23.44.33.66.12.22.23.44.33.67.12.22.23.44.33.66.12.22.23.44.33.67.12.22.23.44.33.66.12.22.23.44.33.66.12.22.23.44.33.67.12.22.23.44.33.67.12.22.23.44.33.66.12.22.23.44.33.67.12.22.23.44.33.67.12.22.23.44.33.66.12.22.23.44.33.67.12.22.23.44.33.67.12.22.23.44.33.66.12.22.23.44.33.67.12.22.23.44.33.67.12.22.23.44.33.66.12.22.23.44.33.67.12.22.23.44.33.66.12.22.23.44.33.67.12.22.23.44.33.66.12.22.23.44.33.66.12.22.23.44.33.67.12.22.23.44.33.67.12.22.23.44.33.66.02.04.05.08.07.12 3.41-.32 7.84-.99 15.04-2.26l29.28-5.94.04-.01.04-.01c9.41-1.66 12.78-2.45 18.76-4.11l1.82-.51 3.81-1.06v.76l.33-.09v.76l.33-.09v.76l.33-.09v.76l.33-.09v.76l.33-.09v.76l.33-.09v.76l.33-.09v.76l.33-.09v.76l.33-.09v.76l.33-.09v.76l.33-.09v.76l.33-.09v.76l.33-.09v.76l.33-.09v.76l.33-.09v.76l.33-.09v.76l.33-.09v.76l.33-.09v.76l.33-.09v.76l.33-.09v.76l.33-.09v.76l.33-.09v.76l.33-.09v.76l.33-.09v.76l.33-.09v.76l.33-.09v.76l.33-.09v.76l.33-.09v.76l.33-.09v.76l.33-.09v.76l.33-.09v.76l.33-.09v.76l.33-.09v.76l.33-.09v.76l.33-.09v.76l.33-.09v11.31l3.55-2.12c3.03-1.81 5.59-3.44 7.94-5.08l-.14-.56-.15.07-.18-.74-.15.07-.18-.74-.15.07-.18-.74-.15.07-.18-.74-.15.07-.18-.74-.15.07-.18-.74-.15.07-.18-.74-.15.07-.18-.74-.15.07-.18-.74-.15.07-.18-.74-.15.07-.18-.74-.15.07-.18-.74-.15.07-.18-.74-.15.07-.18-.74-.15.07-.18-.74-.15.07-.18-.74-.15.07-.18-.74-.15.07-.18-.74-.15.07-.18-.74-.15.07-.18-.74-.15.07-.18-.74-.15.07-.18-.74-.15.07-.18-.74-.15.07-.18-.74-.15.07-.18-.74-.15.07-.91-3.64a130.91 130.91 0 0 0-4.72-14.95l-.04-.07.01-.01c-.03-.08-.06-.17-.1-.25l-.25-.41.06-.03-.39-.64.06-.03-.39-.64.06-.03-.39-.64.06-.03-.39-.64.06-.03-.39-.64.06-.03-.39-.64.06-.03-.39-.64.06-.03-.39-.64.06-.03-.39-.64.06-.03-.39-.64.06-.03-.39-.64.06-.03-.39-.64.06-.03-.39-.64.06-.03-.39-.64.06-.03-.39-.64.06-.03-.39-.64.06-.03-.39-.64.06-.03-.39-.64.06-.03-.39-.64.06-.03-.39-.64.06-.03-.39-.64.06-.03-.39-.64.06-.03-.39-.64.06-.03-.39-.64.06-.03-.39-.64 3-1.44 17.21-8.23 2.41-1.15 1.42 2.26c2.12 3.35 3.92 6.53 5.58 9.92l.33.66c.11.22.22.44.33.67.11.22.22.44.33.67l.33.66c.11.22.22.44.33.67.11.22.22.44.33.67l.33.66c.11.22.22.44.33.67l.33.66c.11.22.22.44.33.67l.33.66.33.66c.11.22.22.44.33.67.11.22.22.44.33.67l.33.66c.11.22.22.44.33.67.11.22.22.44.33.67l.33.66c.11.22.22.44.33.67.11.22.22.44.33.67l.33.66c.11.22.22.44.33.67.11.22.22.44.33.67l.33.66c.11.22.22.44.33.67l.33.66c.11.22.22.44.33.67l.33.66.33.66c.11.22.22.44.33.67.11.22.22.44.33.67l.33.66c.11.22.22.44.33.67.11.22.22.44.33.67l.33.66c1.17 2.35 2.28 4.79 3.37 7.46 6.94-9.42 11.62-20.11 14.91-33.68 1.22-5.14 1.88-9.36 2.07-13.3l.14-3 3 .15 18.77.93 4.29.21-.27.64.6.03-.27.64.6.03-.27.64.6.03-.27.64.6.03-.27.64.6.03-.27.64.6.03-.27.64.6.03-.27.64.6.03-.27.64.6.03-.27.64.6.03-.27.64.6.03-.27.64.6.03-.27.64.6.03-.27.64.6.03-.27.64.6.03-.16.37h.15c4.17-.1 6-.32 14.01-1.74l19.07-3.36c.01-.36.03-.82.05-1.4v-7.46c0-3.8-.19-7.14-.56-9.67l-.41-2.88 2.86-.5 18.77-3.31 4.05-.71-.1.74.43-.08-.1.74.43-.08-.1.74.43-.08-.1.74.43-.08-.1.74.43-.08-.1.74.43-.08-.1.74.43-.08-.1.74.43-.08-.1.74.43-.08-.1.74.43-.08-.1.74.43-.08-.1.74.43-.08-.1.74.43-.08-.1.74.43-.08-.1.74.43-.08-.1.74.43-.08-.1.74.43-.08-.1.74.43-.08-.1.74.43-.08-.1.74.43-.08-.1.74.43-.08-.1.74.43-.08-.1.74.43-.08-.1.74.43-.08-.1.74.43-.08-.1.74.43-.08-.1.74.43-.08-.1.74.43-.08-.1.74.43-.08-.05.39 1.9-.34c7.93-1.4 10.06-1.88 14.25-3.25l3.93-1.28v.77l.33-.11v.77l.33-.11v.77l.33-.11v.77l.33-.11v.77l.33-.11v.77l.33-.11v.77l.33-.11v.77l.33-.11v.77l.33-.11v.77l.33-.11v.77l.33-.11v.77l.33-.11v.77l.18-.06v-4.8l2.87-.13c2.12-.1 3.92-.23 6.25-.52v-.67l-.05.31v-.75l-.33.09v-.75l-.33.09V64.67l2.93-.07c3.64-.09 7.15-.52 13.92-1.72l31.18-5.5c7.69-1.36 11.72-2.27 14.89-3.36l3.98-1.37v.78l.33-.11v.78l.33-.11v.78l.33-.11v.78l.33-.11v.78l.33-.11v.78l.33-.11v.78l.33-.11v.78l.33-.11v.78l.33-.11v.78l.33-.11v.78l.33-.11v.78l.33-.11v.78l.33-.11v.78l.33-.11v.78l.33-.11v.78l.33-.11v.78l.33-.11v.78l.33-.11v.78l.33-.11v.78l.33-.11v.78l.33-.11v.78l.33-.11v.78l.33-.11v.78l.33-.11v.78l.33-.11v.78l.33-.11v.78l.33-.11v.78l.33-.11v.78l.33-.11v.78l.33-.11v.78l.33-.11v.78l.33-.11v.78l.33-.11v.78l.33-.11v.78l.33-.11v.78l.33-.11v9.44l.13.12-.13.22v.04l.46.41-.15.24.48.42-.15.24.48.42-.15.24.48.42-.15.24.48.42-.15.24.48.42-.15.24.48.42-.13.21c19.97-9.21 34.41-18.81 49.48-32.9 8.03-7.4 14.45-14.86 17.18-19.96l1.46-2.7M60.14 148.13h.27c-.03-.2-.07-.4-.1-.6l-.17.6m.34.67h.06a.507.507 0 0 1-.02-.13l-.04.13m136.77 20.96.14-.08-.14-.09v.17M527.64 32.61c-1.07 0-2.11.58-2.65 1.59l-1.35 2.54c-2.57 4.82-8.76 11.98-16.56 19.16-14.17 13.25-27.64 22.38-45.89 31.07-.07-.17-.16-.34-.27-.49-.08-.23-.19-.46-.33-.67-.07-.21-.17-.41-.29-.6v-8.62c0-.6-.18-1.18-.5-1.66-.08-.23-.19-.46-.33-.67-.08-.23-.19-.46-.33-.67-.08-.23-.19-.46-.33-.67-.08-.23-.19-.46-.33-.66-.08-.23-.19-.46-.33-.67-.08-.23-.19-.46-.33-.67-.08-.23-.19-.46-.33-.66-.08-.23-.19-.46-.33-.66-.08-.23-.19-.46-.33-.66-.08-.23-.19-.46-.33-.67-.08-.23-.19-.46-.33-.66-.08-.23-.19-.46-.33-.67-.08-.23-.19-.46-.33-.66-.08-.23-.19-.46-.33-.67-.08-.23-.19-.46-.33-.67-.08-.23-.19-.46-.33-.67-.08-.23-.19-.46-.33-.66-.08-.23-.19-.46-.33-.67-.08-.23-.19-.46-.33-.67-.08-.23-.19-.46-.33-.67-.08-.23-.19-.46-.33-.66-.08-.23-.19-.46-.33-.67-.08-.23-.19-.46-.33-.67-.08-.23-.19-.46-.33-.67-.08-.23-.19-.46-.33-.66-.08-.23-.19-.46-.33-.66-.08-.23-.19-.46-.33-.67-.08-.23-.19-.46-.33-.67-.08-.23-.19-.46-.33-.66-.08-.23-.19-.46-.33-.66-.08-.23-.19-.46-.33-.67-.08-.23-.19-.46-.33-.67-.08-.23-.19-.46-.33-.67-.08-.23-.19-.46-.33-.66-.08-.23-.19-.46-.33-.67-.2-.57-.58-1.08-1.09-1.44a3.003 3.003 0 0 0-2.72-.4l-3.98 1.37c-3 1.04-6.92 1.91-14.43 3.24l-31.18 5.5c-6.61 1.16-10.01 1.59-13.48 1.67l-2.93.07a3.001 3.001 0 0 0-2.93 3v22.29c-.8.06-1.58.1-2.38.14l-2.87.13c-.08 0-.16.01-.23.02-.08-.21-.18-.41-.31-.59-.08-.23-.19-.46-.33-.67-.08-.23-.19-.46-.33-.66-.2-.57-.57-1.07-1.07-1.43a2.981 2.981 0 0 0-2.69-.42l-3.93 1.28c-3.93 1.28-6 1.76-13.34 3.06v-.01c-.08-.23-.19-.46-.33-.66-.08-.23-.19-.46-.33-.67-.08-.23-.19-.46-.33-.67-.08-.23-.19-.46-.33-.67-.08-.23-.19-.46-.33-.67-.08-.23-.19-.46-.33-.67-.08-.23-.19-.46-.33-.67-.08-.23-.19-.46-.33-.67-.08-.23-.19-.46-.33-.66-.08-.23-.19-.46-.33-.67-.08-.23-.19-.46-.33-.67-.08-.23-.19-.46-.33-.66-.08-.23-.19-.46-.33-.66-.08-.23-.19-.46-.33-.67-.08-.23-.19-.46-.33-.67-.08-.23-.19-.46-.33-.67-.08-.23-.19-.46-.33-.66-.08-.23-.19-.46-.33-.67-.08-.23-.19-.46-.33-.66-.08-.23-.19-.46-.33-.66-.08-.23-.19-.46-.33-.67-.08-.23-.19-.46-.33-.67-.08-.23-.19-.46-.33-.66-.08-.23-.19-.46-.33-.67-.08-.23-.19-.46-.33-.67-.08-.23-.19-.46-.33-.66a3.014 3.014 0 0 0-2.83-2c-.17 0-.35.02-.52.05l-4.05.71-18.77 3.31-2.86.5c-1.6.28-2.68 1.78-2.45 3.38l.41 2.88c.34 2.39.53 5.59.53 9.25v6.13l-16.65 2.94c-6.41 1.13-8.71 1.48-11.49 1.62-.04-.07-.08-.15-.12-.22-.01-.02-.03-.05-.04-.07-.07-.21-.17-.41-.29-.6-.01-.02-.03-.05-.04-.07-.07-.21-.17-.41-.29-.6-.01-.02-.03-.05-.04-.07-.07-.21-.17-.41-.29-.6-.01-.02-.03-.05-.04-.07-.07-.21-.17-.41-.29-.6-.01-.02-.03-.05-.04-.07-.07-.21-.17-.41-.29-.6-.01-.02-.03-.05-.04-.07-.07-.21-.17-.41-.29-.6-.01-.02-.03-.05-.04-.07-.07-.21-.17-.41-.29-.6-.01-.02-.03-.05-.04-.07-.07-.21-.17-.41-.29-.6-.01-.02-.03-.05-.04-.07-.07-.21-.17-.41-.29-.6-.01-.02-.03-.05-.04-.07-.07-.21-.17-.41-.29-.6-.01-.02-.03-.05-.04-.07-.07-.21-.17-.41-.29-.6-.01-.02-.03-.05-.04-.07-.07-.21-.17-.41-.29-.6-.01-.02-.03-.05-.04-.07-.07-.21-.17-.41-.29-.6a2.994 2.994 0 0 0-2.39-1.4l-4.29-.21-18.77-.93-3-.15h-.15c-.74 0-1.46.28-2.02.78a3.01 3.01 0 0 0-.98 2.08l-.14 3c-.18 3.75-.81 7.8-1.99 12.75-2.71 11.15-6.38 20.25-11.41 28.2-.41-.89-.84-1.76-1.27-2.63-.07-.14-.14-.29-.22-.45l-.11-.21-.23-.46-.1-.2-.23-.46-.1-.21c-.07-.14-.14-.29-.22-.45l-.11-.21c-.07-.14-.14-.29-.22-.44l-.11-.22c-.07-.15-.15-.31-.24-.47l-.1-.2-.23-.46-.1-.2-.23-.46-.1-.21c-.07-.14-.15-.31-.23-.47l-.1-.2-.23-.46-.1-.21-.23-.46-.11-.21c-.07-.14-.15-.29-.22-.45l-.11-.21-.23-.46-.1-.2c-.07-.14-.15-.29-.22-.45l-.11-.21-.23-.46-.1-.2c-.07-.14-.15-.29-.22-.45l-.11-.22c-.07-.14-.15-.29-.23-.45l-.11-.22-.23-.46-.1-.2c-.07-.13-.14-.29-.22-.45l-.11-.22c-.07-.14-.15-.3-.23-.45l-.11-.22-.23-.46-.1-.2-.23-.46-.1-.21-.23-.46-.1-.21c-.07-.14-.15-.3-.23-.45l-.11-.21c-.07-.14-.15-.3-.23-.45l-.1-.21-.23-.46-.11-.21c-.07-.14-.15-.29-.22-.45l-.11-.21-.23-.46-.1-.21c-.07-.14-.15-.31-.23-.47l-.1-.19-.23-.46-.1-.21-.23-.46-.1-.2-.23-.46-.1-.2-.23-.46-.1-.21c-.07-.15-.15-.31-.24-.48l-.1-.19c-.07-.13-.14-.29-.22-.45l-.11-.21c-1.66-3.38-3.48-6.62-5.73-10.18l-1.42-2.26a3.002 3.002 0 0 0-3.83-1.11l-2.41 1.15-17.21 8.23-3 1.44c-.77.37-1.34 1.04-1.58 1.86s-.12 1.69.32 2.42l.06.1c.07.19.16.38.27.56l.06.1c.07.19.16.38.27.56l.06.1c.07.19.16.38.27.56l.06.1c.07.19.16.38.27.56l.06.1c.07.19.16.38.27.56l.06.1c.07.19.16.38.27.56l.06.1c.07.19.16.38.27.56l.06.1c.07.19.16.38.27.56l.06.1c.07.19.16.38.27.56l.06.1c.07.19.16.38.27.56l.06.1c.07.19.16.38.27.56l.06.1c.07.19.16.38.27.56l.06.1c.07.19.16.38.27.56l.06.1c.07.19.16.38.27.56l.06.1c.07.19.16.38.27.56l.06.1c.07.19.16.38.27.56l.06.1c.07.19.16.38.27.56l.06.1c.07.19.16.38.27.56l.06.1c.07.19.16.38.27.56l.06.1c.07.19.16.38.27.56l.06.1c.07.19.16.38.27.56l.06.1c.07.19.16.38.27.56l.06.1c.07.19.16.38.27.56l.06.1c.07.19.16.38.27.56l.06.1c.07.19.16.38.27.56l.07.11c.04.12.09.23.14.34 1.77 4.63 3.33 9.6 4.53 14.4l.91 3.64c.08.34.23.65.41.94.08.24.2.46.33.67.08.24.2.46.33.66.08.24.2.46.33.66.08.24.2.46.33.67.08.24.2.46.33.66.08.24.2.46.33.66.08.24.2.46.33.67.08.24.2.46.33.67.08.24.2.46.33.67.08.24.2.46.33.66.08.24.2.46.33.67.08.24.2.46.33.67.08.24.2.46.33.66.08.24.2.46.33.66.08.24.2.46.33.67.08.24.2.46.33.66.08.24.2.46.33.67.08.24.2.46.33.67.08.24.2.46.33.66.08.24.2.46.33.66.08.24.2.46.33.67.06.17.14.34.23.5-1.39.92-2.9 1.87-4.6 2.9v-6.03c0-.6-.18-1.18-.5-1.66-.08-.23-.19-.46-.33-.66-.08-.23-.19-.46-.33-.67-.08-.23-.19-.46-.33-.67-.08-.23-.19-.46-.33-.66-.08-.23-.19-.46-.33-.67-.08-.23-.19-.46-.33-.67-.08-.23-.19-.46-.33-.66-.08-.23-.19-.46-.33-.67-.08-.23-.19-.46-.33-.67-.08-.23-.19-.46-.33-.67-.08-.23-.19-.46-.33-.67-.08-.23-.19-.46-.33-.66-.08-.23-.19-.46-.33-.66-.08-.23-.19-.46-.33-.67-.08-.23-.19-.46-.33-.66-.08-.23-.19-.46-.33-.66-.08-.23-.19-.46-.33-.67-.08-.23-.19-.46-.33-.67-.08-.23-.19-.46-.33-.67-.08-.23-.19-.46-.33-.66-.08-.23-.19-.46-.33-.67-.08-.23-.19-.46-.33-.66-.08-.23-.19-.46-.33-.67-.08-.23-.19-.46-.33-.66-.08-.23-.19-.46-.33-.66-.08-.23-.19-.46-.33-.67-.08-.23-.19-.46-.33-.66-.08-.23-.19-.46-.33-.66-.08-.23-.19-.46-.33-.66-.08-.23-.19-.46-.33-.67-.08-.23-.19-.46-.33-.67-.08-.23-.19-.46-.33-.67-.08-.23-.19-.46-.33-.66-.08-.23-.19-.46-.33-.67-.08-.23-.19-.46-.33-.66-.19-.55-.54-1.03-1.02-1.39-.53-.4-1.17-.61-1.81-.61-.27 0-.54.04-.81.11l-3.81 1.06-1.82.51c-5.87 1.64-9.18 2.41-18.47 4.05-.03 0-.09.02-.12.02l-29.27 5.94c-5.83 1.03-9.74 1.64-12.73 2-.04-.09-.09-.18-.14-.26-.11-.23-.22-.45-.33-.67-.11-.22-.22-.45-.33-.66-.11-.23-.22-.45-.33-.67-.11-.22-.22-.45-.33-.66-.11-.23-.22-.45-.33-.67-.11-.22-.22-.45-.33-.66-.11-.22-.22-.45-.33-.67-.11-.22-.22-.45-.33-.67-.11-.22-.22-.45-.33-.66-.11-.22-.22-.45-.33-.67-.11-.23-.22-.45-.33-.67-.11-.22-.22-.45-.33-.66-.11-.22-.22-.45-.33-.66-.11-.23-.22-.45-.33-.67-.11-.22-.22-.45-.33-.66-.11-.22-.22-.45-.33-.67-.11-.23-.22-.45-.33-.67-.11-.22-.22-.45-.33-.67-.11-.22-.22-.45-.33-.66-.11-.23-.22-.45-.33-.67-.11-.22-.22-.45-.33-.66-.11-.22-.22-.45-.33-.67-.11-.22-.22-.45-.33-.67-.11-.22-.22-.45-.33-.67-.11-.22-.22-.45-.33-.67-.11-.22-.22-.45-.33-.66-.11-.22-.22-.45-.33-.67-.11-.23-.22-.45-.33-.67-.11-.23-.22-.45-.33-.67-2.46-5.16-7.62-8.36-13.48-8.36-.99 0-2 .09-2.99.27-3.62.64-7.03 2.39-9.78 4.95a2.983 2.983 0 0 0-1.96.03l-4.02 1.46L59.38 129l-2.81 1.02c-.6.22-1.08.6-1.43 1.09-.38-.17-.79-.25-1.21-.25H28.47c-1.63 0-2.97 1.31-3 2.94l-.06 2.94c-.47 24.6-9.12 50.94-21.54 65.55l-2.9 3.41a3.001 3.001 0 0 0-.21 3.61c.08.24.2.46.33.67.08.24.2.46.33.67.08.24.2.46.33.67.08.24.2.46.33.67.08.24.2.46.33.66.08.24.2.46.33.67.08.24.2.46.33.67.08.24.2.46.33.66.08.24.2.46.33.67.08.24.2.46.33.66.08.24.2.46.33.67.08.24.2.46.33.67.08.24.2.46.33.67.08.24.2.46.33.66.08.24.2.46.33.67.08.24.2.46.33.66.08.24.2.46.33.67.08.24.2.46.33.67.08.24.2.46.33.66.08.24.2.46.33.67.08.24.2.46.33.66.08.24.2.46.33.66.08.24.2.46.33.66.08.24.2.46.33.67.08.24.2.46.33.67.08.24.2.46.33.67.08.24.2.46.33.66.08.24.2.46.33.67.08.24.2.46.33.67.08.24.2.46.33.66.08.24.2.46.33.67.08.24.2.46.33.67.08.24.2.46.33.66.08.24.2.46.33.67.08.24.2.46.33.66.31.88 1.01 1.56 1.9 1.85l4.26 1.38c4.68 1.52 10.18 4.51 14.02 7.61l2.46 1.99c.54.43 1.2.67 1.89.67.13 0 .26-.01.4-.03a3.02 3.02 0 0 0 2.04-1.22l1.85-2.57c12.42-17.2 20.03-37.44 24.31-64.95 1.41 3.65 2.95 7.12 4.62 10.4l.07.14.26.53.05.1c.09.19.19.37.28.56l.07.13.27.53.05.1c.09.19.19.38.28.56l.06.12.27.54.07.14.26.53.07.13.27.53.05.09c.1.19.19.38.29.57l.07.13.27.53.06.12.27.54.06.12.27.54.05.09.29.57.05.11.28.56.05.11.28.56.05.1c.09.19.19.38.28.57l.06.12c.09.18.18.36.27.55l.06.13.27.53.05.1.28.57.07.15.26.52.07.13.27.53.07.14.27.53.05.11c.09.19.18.37.28.56l.04.08c.1.19.19.39.29.58l.05.11.28.56.07.15.26.52.06.12.28.55.05.1.28.56.04.09.29.58.07.15.26.52.06.13.27.53.06.12.28.55.07.14.27.53.06.12.27.55.06.13.27.54.07.14.27.53c3.85 7.72 8.47 14.64 13.73 20.52l2.34 2.62c.57.64 1.38 1 2.24 1h.07c.88-.02 1.7-.42 2.26-1.1l2.22-2.72c4.33-5.31 8.39-9.2 14.47-13.9l2.68-2.07c.68-.53 1.1-1.32 1.16-2.17.04-.66-.13-1.32-.5-1.86-.08-.23-.19-.46-.33-.67-.08-.23-.19-.46-.33-.67-.08-.23-.19-.46-.33-.67-.08-.23-.19-.46-.33-.66-.08-.23-.19-.46-.33-.67-.08-.23-.19-.46-.33-.67-.08-.23-.19-.46-.33-.66-.08-.23-.19-.46-.33-.67-.08-.23-.19-.46-.33-.67-.08-.23-.19-.46-.33-.66-.08-.23-.19-.46-.33-.67-.08-.23-.19-.46-.33-.66-.08-.23-.19-.46-.33-.67-.08-.23-.19-.46-.33-.67-.08-.23-.19-.46-.33-.66-.08-.23-.19-.46-.33-.67-.08-.23-.19-.46-.33-.67-.08-.23-.19-.46-.33-.66-.08-.23-.19-.46-.33-.66-.08-.23-.19-.46-.33-.67-.08-.23-.19-.46-.33-.66-.08-.23-.19-.46-.33-.66-.08-.23-.19-.46-.33-.67-.08-.23-.19-.46-.33-.67-.08-.23-.19-.46-.33-.66-.08-.23-.19-.46-.33-.66-.08-.23-.19-.46-.33-.67-.08-.23-.19-.46-.33-.67-.08-.23-.19-.46-.33-.66-.08-.23-.19-.46-.33-.67-.08-.23-.19-.46-.33-.67-.08-.23-.19-.46-.33-.67-.08-.23-.19-.46-.33-.67-.08-.23-.19-.46-.33-.66-.08-.23-.19-.46-.33-.67-.15-.41-.38-.79-.69-1.11l-2.38-2.41c-2.27-2.3-4.27-4.59-6.1-7.01-.38-1.18-.76-2.39-1.12-3.61a16.457 16.457 0 0 0 5.53.03v1.4c0 .6.18 1.18.5 1.66.08.23.19.46.33.67.08.23.19.46.33.66.08.23.19.46.33.67.08.23.19.46.33.67.08.23.19.46.33.66.08.23.19.46.33.66.08.23.19.46.33.67.08.23.19.46.33.66.08.23.19.46.33.67.08.23.19.46.33.67.08.23.19.46.33.66.08.23.19.46.33.67.08.23.19.46.33.67.08.23.19.46.33.67.08.23.19.46.33.67.08.23.19.46.33.66.08.23.19.46.33.66.08.23.19.46.33.67.08.23.19.46.33.66.08.23.19.46.33.66.08.23.19.46.33.67.08.23.19.46.33.67.08.23.19.46.33.67.08.23.19.46.33.66.08.23.19.46.33.67.08.23.19.46.33.67.08.23.19.46.33.66.08.23.19.46.33.67.08.23.19.46.33.67.08.23.19.46.33.66.08.23.19.46.33.67.08.23.19.46.33.66.08.23.19.46.33.67.08.23.19.46.33.67.08.23.19.46.33.67a2.998 2.998 0 0 0 2.83 2c.25 0 .5-.03.75-.09l3.75-.96 1.79-.46c5.51-1.42 8.48-2.02 18.71-3.83.02 0 .08-.02.11-.02l29.1-5.91c10.07-1.77 14.15-2.42 18.41-2.73l1.33-.1 2.78-.21a3 3 0 0 0 2.78-2.99v-2.27c.07.18.16.35.27.51.08.23.19.46.33.67.08.23.19.46.33.67.08.23.19.46.33.66.08.23.19.46.33.67.08.23.19.46.33.66.08.23.19.46.33.67.08.23.19.46.33.67.08.23.19.46.33.66.08.23.19.46.33.67.08.23.19.46.33.67.08.23.19.46.33.66.08.23.19.46.33.67.08.23.19.46.33.67.08.23.19.46.33.67.08.23.19.46.33.67.08.23.19.46.33.66.21.61.62 1.14 1.18 1.5l3.98 2.63c5.3 3.5 7.82 5.96 11.27 10.95l1.71 2.47c.45.65 1.15 1.1 1.93 1.25a3.004 3.004 0 0 0 2.25-.48l2.47-1.71c13.38-9.25 23.45-18.68 31.69-29.69 7.73-10.3 14.22-23.46 18.64-37.69.06.13.13.26.21.38.08.23.19.46.33.67.08.23.19.46.33.67.08.23.19.46.33.66.08.23.19.46.33.67.08.23.19.46.33.67.08.23.19.46.33.66.08.23.19.46.33.67.08.23.19.46.33.66.03.09.07.18.11.27-.29.17-.58.35-.87.52l-4.2 2.47a2.99 2.99 0 0 0-.98 4.24c.08.23.19.46.33.67.08.23.19.46.33.66.08.23.19.46.33.67.08.23.19.46.33.67.08.23.19.46.33.67.08.23.19.46.33.66.08.24.19.46.33.67.08.23.19.46.33.66.08.23.19.46.33.66.08.23.19.46.33.66.08.23.19.46.33.66.08.23.19.46.33.67.08.23.19.46.33.67.08.23.19.46.33.66.08.24.2.46.33.67.08.23.19.46.33.66.08.23.19.46.33.67.08.23.19.46.33.67.08.23.19.46.33.66.08.23.19.46.33.67.08.23.19.46.33.67.08.23.19.46.33.67.08.23.19.46.33.66.08.23.19.46.33.66.08.23.19.46.33.67.08.23.19.46.33.66.08.23.19.46.33.67.08.23.19.46.33.66.08.24.19.46.33.67.08.23.19.46.33.66.08.23.19.46.33.67.08.23.19.46.33.67.08.23.19.46.33.66.08.23.19.46.33.67.08.23.19.46.33.67.22.62.64 1.16 1.2 1.52l4.09 2.64c5.83 3.76 8.01 5.85 11.11 10.66l1.73 2.69a2.985 2.985 0 0 0 2.52 1.38c.64 0 1.26-.2 1.78-.58l2.57-1.89c4.99-3.67 7.32-5.53 10.4-8.27 7.1-6.26 12.81-13.42 16.96-21.28 4.12-7.9 6-14.47 7.11-25.18l12.77-2.25c7.14-1.26 9.38-1.55 13.9-1.99l2.71-.26c.17-.02.33-.04.48-.09.07.15.15.29.24.43.08.23.19.46.33.67a2.998 2.998 0 0 0 2.83 2c.25 0 .5-.03.74-.09l.74-.19c.07.17.16.34.27.49.08.23.19.46.33.67.08.23.19.46.33.67.08.23.19.46.33.67.08.23.19.46.33.66.08.23.19.46.33.67.08.23.19.46.33.67.08.23.19.46.33.67.08.23.19.46.33.67.08.23.19.46.33.66.08.23.19.46.33.67.08.23.19.46.33.66.08.23.19.46.33.66.08.23.19.46.33.67.08.23.19.46.33.66.08.23.19.46.33.67.08.23.19.46.33.67.08.23.19.46.33.66.08.23.19.46.33.67.08.23.19.46.33.67.08.23.19.46.33.67.08.23.19.46.33.67.08.23.19.46.33.66.08.23.19.46.33.67.08.23.19.46.33.67.08.23.19.46.33.67.08.23.19.46.33.66.08.23.19.46.33.67.08.23.19.46.33.66.08.23.19.46.33.67.08.23.19.46.33.66.16.46.44.88.81 1.22l3.44 3.13c4.42 4.03 6.68 6.68 8.59 10.11l.06.13c.03.07.07.13.1.2l.23.47c.03.07.07.13.11.2l.23.47c.03.07.07.13.11.2l.23.47c.03.07.07.13.11.2l.23.47c.03.07.07.13.1.2l.23.47c.03.07.07.13.11.2l.23.47c.03.07.07.13.11.2l.23.47a3.007 3.007 0 0 0 4.16 1.31l2.77-1.54c14.04-7.83 21.41-13.11 29.19-20.94 9.36-9.37 16.53-20.98 21.82-35.4 2.17 2.29 3.54 3.95 4.65 5.59.04.09.09.17.15.25l.11.26c.06.14.14.28.22.41l.11.26c.06.14.14.28.22.41l.11.26c.06.14.14.28.22.41l.11.26c.06.14.14.28.22.41l.11.26c.06.14.14.28.22.41l.11.26c.06.14.14.28.22.41l.11.26c.06.14.14.28.22.41l.11.26c.06.14.14.28.22.41l.11.26c.06.14.14.28.22.41l.11.26c.06.14.14.28.22.41l.11.26c.06.14.14.28.22.41l.11.26c.06.14.14.28.22.41l.11.26c.06.14.14.28.22.41l.11.26c.34.76.97 1.35 1.76 1.62.32.11.65.17.99.17.48 0 .96-.12 1.4-.35l2.85-1.5c3.97-2.09 7.4-3.96 10.46-5.7l-.2 2.1c-.07.69.11 1.38.49 1.94.08.23.19.46.33.67.08.23.19.46.33.66.08.23.19.46.33.67.08.23.19.46.33.67.08.23.19.46.33.66.08.23.19.46.33.67.08.23.19.46.33.66.08.23.19.46.33.67.08.23.19.46.33.66.08.23.19.46.33.67.08.23.19.46.33.67.08.23.19.46.33.67.08.23.19.46.33.66.08.23.19.46.33.67.08.23.19.46.33.67.08.23.19.46.33.67.08.23.19.46.33.66.08.23.19.46.33.67.08.23.19.46.33.66.08.23.19.46.33.67.08.23.19.46.33.66.08.23.19.46.33.67.08.23.19.46.33.67.08.23.19.46.33.67.08.23.19.46.33.67.08.23.19.46.33.67.08.23.19.46.33.66.08.23.19.46.33.67.08.23.19.46.33.66.08.23.19.46.33.67.08.23.19.46.33.66.08.23.19.46.33.67.08.23.19.46.33.67.08.23.19.46.33.67.08.23.19.46.33.66.16.45.43.87.79 1.21.56.52 1.29.8 2.03.8.17 0 .35-.02.52-.05l3.88-.68 18.96-3.34 2.73-.48a3.01 3.01 0 0 0 2.47-3.24l-.26-2.76c-.47-4.91-.56-7.28-.56-14.92v-34.38c7.26-6.57 13.83-13.45 21.17-22.15 1.52-1.86 1.52-1.86 3.52-3.92l2.91-2.99a3.01 3.01 0 0 0 .34-3.76c-.08-.24-.2-.46-.33-.66-.08-.24-.2-.46-.33-.67-.08-.24-.2-.46-.33-.66-.08-.24-.2-.46-.33-.67-.08-.24-.2-.46-.33-.66-.08-.24-.2-.46-.33-.67-.08-.24-.2-.46-.33-.67-.08-.24-.2-.46-.33-.66-.08-.24-.2-.46-.33-.67-.08-.24-.2-.46-.33-.66-.08-.24-.2-.46-.33-.67-.08-.24-.2-.46-.33-.67-.08-.24-.2-.46-.33-.67-.08-.24-.2-.46-.33-.66-.08-.24-.2-.46-.33-.67-.08-.24-.2-.46-.33-.67-.08-.24-.2-.46-.33-.67-.08-.24-.2-.46-.33-.66-.08-.24-.2-.46-.33-.67-.08-.24-.2-.46-.33-.67-.08-.24-.2-.46-.33-.67-.08-.24-.2-.46-.33-.66-.08-.24-.2-.46-.33-.67-.08-.24-.2-.46-.33-.67-.08-.24-.2-.46-.33-.66-.08-.24-.2-.46-.33-.67-.08-.24-.2-.46-.33-.67-.08-.24-.2-.46-.33-.67-.08-.24-.2-.46-.33-.67-.08-.24-.2-.46-.33-.67-.08-.24-.2-.46-.33-.67-.08-.24-.2-.46-.33-.66-.08-.24-.2-.46-.33-.66-.08-.24-.2-.46-.33-.67-.08-.24-.2-.46-.33-.66-.26-.74-.81-1.36-1.53-1.71l-3.76-1.81-15.84-7.6-2.59-1.24a3.39 3.39 0 0 0-1.27-.26z"/><path class="st0" d="M23.18 216.3c-4.22-3.42-10.29-6.71-15.46-8.39l-2.13-.69 1.45-1.71c13.04-15.33 22.13-42.81 22.61-68.38l.03-1.47H51.7l-.53 1.9c-.18.64-.24 1.08-.24 1.19v.22l-.07.24c-.04.13-.23.97-.32 2.4l-.01.12-.29 1.98-.4 2.32c-3.94 30.36-11.5 51.96-24.5 69.98l-.93 1.28-1.23-.99zm63.46-11.39c-13.22-14.8-21.83-35.79-25.59-62.38-.05-.47-.09-.82-.13-1.11-.04-.3-.06-.53-.07-.7l-.68-3.51-.09-.83-.84-2.32 20.52-7.43v2.43c0 1.33.28 3.77.72 6.58v-.21c0-6.81 5.4-13.09 12.28-14.3.74-.13 1.49-.2 2.21-.2 6.08 0 10.5 4.47 10.5 10.62 0 6.69-5.47 13.1-12.19 14.29-.73.13-1.47.19-2.19.19-4.8 0-8.67-2.87-10.06-7.08.65 3.63 1.45 7.41 2.19 10.07 4.81 17.44 10.9 28.73 21.03 38.99l1.19 1.2-1.34 1.04c-6.37 4.93-10.63 9.02-15.2 14.62l-1.11 1.36-1.15-1.32zm7.29-75.5c-.21 0-.42.02-.64.06-2.31.41-4.33 2.74-4.33 4.99 0 1.71 1.32 3.01 3.07 3.01.21 0 .43-.02.64-.06 2.31-.41 4.33-2.69 4.33-4.9.01-1.8-1.28-3.1-3.07-3.1zM214 182.75c-3.79-5.49-6.71-8.33-12.5-12.15l-1.99-1.32 2.05-1.22c8.35-4.98 13.18-8.6 19.88-14.91 13.02-12.48 20.61-26.17 25.38-45.78 1.25-5.22 1.92-9.54 2.11-13.57l.07-1.5 22.41 1.11-.83 1.98c-.83 1.95-.83 1.95-2.55 9.92-3.81 18.3-11.57 36.22-21.28 49.15-7.94 10.61-17.68 19.72-30.65 28.68l-1.23.85-.87-1.24zm-103.72-33.41 2.85-.08c4.06-.12 8.79-.75 18.72-2.5l29.27-5.95c9.51-1.68 12.91-2.47 18.94-4.15l3.72-1.04v24.34l-2.72.2c-4.46.33-8.65.99-18.94 2.8l-29.09 5.91c-10.41 1.84-13.44 2.46-19.09 3.91l-3.66.94v-24.38zm187.47 18.99c-3.44-5.34-6.11-7.92-12.45-12.01l-2.05-1.32 2.1-1.23c11.14-6.56 18.09-13.13 22.51-21.3 2.23-4.21 3.48-8.12 3.93-12.3.14-1.09.18-1.38.31-2.73l-18.99 3.35c-7.07 1.25-9.23 1.72-14.06 2.96l-1.87.48v-20.34l1.47-.03c4.27-.1 6.13-.33 14.24-1.76l20.27-3.57c.01-.54.03-1.15.09-2.67V88.6c0-3.87-.2-7.29-.57-9.89l-.21-1.44 22.22-3.92-.28 2.04c-.37 2.71-.38 2.98-.56 9.92l-.01.52c-.1 3.66-.1 3.66-.1 7.49 0 .55-.02 1.08-.04 1.59l14.5-2.56c7.53-1.33 10.02-1.86 14.46-3.3l1.96-.64v20.37l-1.36.13c-4.66.45-6.96.75-14.25 2.04l-16.16 2.85c-1.01 12.23-2.73 18.89-6.92 26.91-3.9 7.39-9.28 14.12-15.98 20.04-2.96 2.63-5.22 4.43-10.07 8l-1.29.95-.84-1.37zm102.17-17.61c-2.47-5.09-5.05-8.34-10.61-13.4l-1.72-1.57 2.14-.92c11.57-4.98 18.45-9.2 25.39-15.54 6.35-5.74 10.32-11.19 13.64-18.85l-39.64 6.99c-7.81 1.38-9.37 1.75-15.43 3.3l-1.87.48V91.66l1.43-.06c4.25-.19 7.24-.52 15.54-1.98l49.07-8.65c4.7-.83 5.15-1.02 7.34-2.26l.93-.53 9.37 8.28-.65 1.07c-1.09 1.81-1.26 2.14-2.59 6.24-5.18 15.52-12.39 27.77-22.07 37.44-7.45 7.49-14.56 12.58-28.19 20.18l-1.39.77-.69-1.44zm-199.24-10.14c-2.8-11.2-7.23-22.38-11.85-29.9l-.87-1.42 19.91-9.53.71 1.13c5.58 8.83 8.8 16.04 13.25 29.7l.4 1.23-21.11 10.61-.44-1.82zm297.82-10.09c.47-5 .58-7.02.58-15.46V91.45c-9.06 6.67-16.72 11.34-29.76 18.22l-1.42.75-.65-1.47c-2.52-5.72-4.39-8.48-9.1-13.42L456.69 94l1.92-.87c20.99-9.51 35.91-19.33 51.5-33.91 8.16-7.51 14.7-15.12 17.49-20.36l.68-1.27 19.01 9.13-1.46 1.5c-2.14 2.19-2.2 2.27-3.73 4.14-7.68 9.11-14.56 16.24-22.24 23.06v36.39c0 7.82.09 10.26.58 15.35l.13 1.38-22.27 3.93.2-1.98zm62.35-10.01c-3.01-5.57-5.58-8.69-10.58-12.84l-1.7-1.41 1.94-1.06c22.5-12.36 40.88-32.24 49.65-53.58l-22.73 4.44c-8.64 1.71-11.95 2.48-15.38 3.56l-1.9.6-.59-20.37 1.43-.11c3.74-.28 6.34-.55 10.12-1.21l5.47-.97 31.16-5.98 5.22-.92c-.79-1.09-1.49-1.99-2.55-3.22l-1.27-1.47 12.46-6.16.76.88c3.4 3.93 6.54 8.96 8.84 14.17l.57 1.28-6.32 3.32.58 1.24-.34.66c-.84 1.62-.84 1.62-2.08 4.93-3.81 9.77-8.25 18.66-12.62 25.27 10.72 5.81 16.91 9.96 29.83 19.95l1.22.94-15.75 19.29-1.17-1.27c-7.5-8.13-17.34-16.11-26.55-21.54-8.58 11.35-22.09 23.56-35.57 32.11l-1.36.86-.79-1.39zm97.77-18.7c.38-3.96.48-6.57.58-14.71V30.82c-.09-7.98-.1-8.46-.67-13.42l-.16-1.4 22.31-3.93-.31 2.06c-.36 2.37-.37 3.96-.46 12.78l-.01 1.15v11.88c15.37 2.28 30.4 6.46 43.57 12.1l1.48.63-10.72 20.78-1.34-.7c-8.03-4.21-19.14-8.29-30.47-11.2 0 0-2.23-.48-2.53-.55v22.98c0 8.97.31 12.78.57 14.39l.24 1.46-22.26 3.93.18-1.98zm-278.7-35.65 1.46-.04c3.72-.09 7.29-.53 14.15-1.74l31.18-5.5c7.77-1.37 11.87-2.3 15.12-3.42l1.99-.69v19.64l-1.35.13c-4.18.41-8.92 1.1-14.94 2.16l-31.67 5.58c-7.7 1.36-9.8 1.82-14.05 2.95l-1.88.5V66.13zm253.32-31.38c-2.68-5.75-5.15-9.71-8.27-13.26l-1.29-1.46 11.93-5.98.77.82c3.28 3.53 6.04 7.74 8.95 13.65l.65 1.31-12.07 6.34-.67-1.42zm70.16-1.06c-3.02-5.14-5.39-8.17-9.42-12.02l-1.4-1.34 11.9-7.41.84.79c3.92 3.67 7.17 7.72 9.94 12.39l.73 1.24-11.81 7.71-.78-1.36zm13.41-8.59c-3.25-5.18-5.86-8.49-9.34-11.79l-1.41-1.33 11.39-7.12.84.75c3.86 3.43 6.67 6.78 10.04 11.96l.81 1.25-11.52 7.58-.81-1.3z"/><path d="M717.3 6.73c3.62 3.21 6.35 6.39 9.77 11.66l-8.99 5.92c-3.42-5.46-6.16-8.83-9.58-12.08l8.8-5.5m-38.41 7.16c-.39 2.57-.39 4.11-.49 14.14v13.19c15.44 2.19 30.79 6.32 44.48 12.18l-9.29 18c-8.11-4.25-19.45-8.41-30.79-11.32-2.93-.64-3.23-.68-3.52-.82-.29-.04-.49-.11-.88-.33v25.03c0 7.12.2 12.19.59 14.62l-18.87 3.33c.39-4.11.49-6.92.59-14.83V31.06c-.1-8.26-.1-8.74-.68-13.84l18.86-3.33m25.41.91c3.81 3.56 6.94 7.44 9.68 12.06l-9.29 6.07c-3.23-5.5-5.77-8.61-9.68-12.35l9.29-5.78m-69.01 1.1c3.23 3.48 5.86 7.53 8.7 13.29l-9.38 4.93c-2.74-5.87-5.28-9.95-8.5-13.61l9.18-4.61m-14.08 5.76c3.32 3.84 6.35 8.7 8.6 13.79l-6.35 3.33.88 1.87c-.88 1.7-.88 1.7-2.15 5.1-4.11 10.54-8.9 19.86-13.39 26.33 11.63 6.23 17.6 10.18 31.08 20.61l-13.69 16.76c-8.02-8.69-18.38-16.98-28.05-22.49-8.41 11.49-22.09 24.01-35.97 32.82-3.13-5.8-5.87-9.07-10.95-13.28 23.75-13.04 42.82-34.12 51.32-56.89l-25.41 4.96c-8.9 1.76-12.12 2.52-15.54 3.61l-.49-16.95c3.81-.29 6.45-.56 10.26-1.23l5.47-.97 31.18-5.98 7.53-1.33c-1.56-2.23-2.35-3.34-4.01-5.26l9.68-4.8m-92.28 17.9 15.84 7.6c-2.15 2.21-2.25 2.32-3.81 4.23-7.72 9.16-14.66 16.35-22.58 23.33v37.06c0 7.89.1 10.38.58 15.49L500 130.63c.49-5.19.59-7.32.59-15.6V88.46c-10.17 7.67-17.99 12.51-31.96 19.88-2.64-5.98-4.6-8.82-9.38-13.84 21.21-9.61 36.17-19.47 51.91-34.18 8.39-7.74 14.94-15.44 17.77-20.76m-86.61 17.3v16.17c-3.71.37-8.31.98-15.05 2.17l-31.67 5.58c-7.72 1.36-9.87 1.84-14.17 2.98V67.6c3.81-.09 7.43-.54 14.37-1.76l31.18-5.5c7.72-1.37 11.92-2.3 15.34-3.48M332.93 75.18c-.39 2.86-.39 3.15-.59 10.6-.1 3.68-.1 3.68-.1 7.53 0 1.25-.1 2.42-.1 3.39l16.32-2.88c7.72-1.36 10.17-1.89 14.66-3.35v16.94c-4.79.46-7.14.78-14.37 2.05l-17.3 3.05c-.98 12.78-2.64 19.43-6.84 27.49-3.81 7.22-9.09 13.83-15.64 19.6-2.83 2.52-4.99 4.25-9.97 7.92-3.62-5.62-6.45-8.3-12.9-12.45 11.44-6.73 18.57-13.58 23.07-21.88 2.25-4.25 3.62-8.34 4.11-12.85.2-1.48.2-1.48.49-4.71l-20.92 3.69c-7.04 1.24-9.29 1.73-14.17 2.98v-16.94c4.4-.1 6.35-.35 14.47-1.78l21.5-3.79c0-1.35 0-1.35.1-3.87v-7.33c0-3.85-.2-7.38-.59-10.1l18.77-3.31M445.94 80l7.62 6.74c-1.17 1.94-1.37 2.36-2.74 6.55-5.08 15.24-12.12 27.26-21.7 36.85-7.43 7.47-14.47 12.47-27.86 19.93-2.54-5.23-5.28-8.7-10.95-13.86 11.73-5.05 18.77-9.37 25.81-15.81 7.14-6.46 11.44-12.7 15.05-21.91l-42.33 7.46c-7.72 1.36-9.38 1.75-15.54 3.32V93.09c4.4-.2 7.53-.56 15.74-2l49.07-8.65c4.7-.83 5.38-1.05 7.83-2.44M250.43 93.87l18.77.93c-.88 2.08-.88 2.08-2.64 10.19-3.81 18.29-11.44 35.81-21.02 48.57-7.72 10.31-17.4 19.43-30.3 28.35-3.91-5.66-7.04-8.67-12.9-12.55 8.7-5.19 13.59-8.94 20.14-15.1 13.29-12.74 21.02-26.81 25.81-46.52 1.26-5.34 1.94-9.79 2.14-13.87m-43.11 7.79c5.47 8.66 8.7 15.89 13.1 29.36l-18.28 9.19c-2.83-11.34-7.33-22.68-12.02-30.32l17.2-8.23M94.99 122.42c5.13 0 9 3.72 9 9.12 0 5.97-4.89 11.74-10.95 12.81-.66.12-1.3.17-1.93.17-5.15 0-9.12-3.78-9.12-9.1 0-6.06 4.89-11.74 11.04-12.83.67-.11 1.32-.17 1.96-.17m-2.95 16.55c.29 0 .6-.03.9-.08 3.03-.53 5.57-3.49 5.57-6.37 0-2.67-2.04-4.6-4.57-4.6-.29 0-.59.03-.9.08-3.03.53-5.57 3.49-5.57 6.47-.01 2.58 2.03 4.5 4.57 4.5m-13.76-10.21v.29c0 3.56 1.86 14.4 3.52 20.37 4.89 17.72 11.04 29.15 21.41 39.64-6.45 4.99-10.85 9.23-15.44 14.85-13-14.56-21.51-35.29-25.22-61.59-.1-.95-.2-1.6-.2-1.79l-.68-3.54-.1-.95s-.2-.54-.39-1.09l17.1-6.19m-28.55 8.41c-.2.71-.29 1.3-.29 1.59-.1.31-.29 1.3-.39 2.76l-.29 1.98-.39 2.28c-3.91 30.15-11.34 51.48-24.24 69.35-4.3-3.48-10.56-6.9-15.93-8.65 13.29-15.63 22.48-43.53 22.97-69.32l18.56.01m132.55.42v20.97l-1.33.1c-4.54.33-8.74 1-19.09 2.82l-29.13 5.92c-10.43 1.84-13.47 2.46-19.16 3.93l-1.79.46V150.8l1.39-.04c4.14-.12 8.92-.76 18.93-2.53l29.31-5.95c9.54-1.68 12.96-2.48 19.04-4.18l1.83-.51M717.62 3l-1.9 1.19-8.8 5.5-2.21 1.38-.03-.03-1.95 1.22-9.29 5.78-3.28 2.04 2.8 2.67c3.91 3.74 6.22 6.69 9.16 11.7l1.59 2.71 2.63-1.72 9.29-6.07 1.49-.97.06.1 2.56-1.69 8.99-5.92 2.49-1.64-1.62-2.5c-3.44-5.3-6.33-8.74-10.3-12.27L717.62 3zm-35.14 7.21-4.11.73-18.87 3.33-2.78.49.32 2.81c.56 4.89.57 5.36.66 13.27v56.25c-.1 8.05-.2 10.64-.57 14.55l-.37 3.92 3.88-.68 18.87-3.33 2.91-.51-.47-2.92c-.25-1.56-.55-5.27-.55-14.15V62.85l.71.15c11.2 2.88 22.17 6.91 30.09 11.06l2.67 1.4 1.38-2.68 9.29-18 1.48-2.86-2.96-1.27c-12.92-5.54-27.61-9.67-42.66-12.01v-10.6l.01-1.13c.09-8.93.1-10.31.44-12.57l.63-4.13zm-46.53 2-2.01 1.01-9.19 4.6-2.02 1.01-.78-.9-2.08 1.03-9.68 4.79-3.48 1.72 2.54 2.93c.37.43.7.82 1 1.18l-2.77.49-31.23 5.99-2.14.38-3.29.58c-3.72.66-6.27.92-9.97 1.2l-2.86.22.08 2.86.49 16.95.11 3.98 3.79-1.2c3.37-1.07 6.64-1.83 15.22-3.52l19.94-3.89c-9.03 20.05-26.57 38.56-47.87 50.25l-3.87 2.13 3.4 2.82c4.84 4 7.32 7.01 10.22 12.39l1.53 2.83 2.72-1.72c13.21-8.37 26.44-20.23 35.15-31.41 8.75 5.33 17.97 12.88 25.07 20.58l2.34 2.54 2.19-2.68 13.69-16.76 1.95-2.39-2.44-1.88c-12.42-9.6-18.65-13.85-28.61-19.31 4.14-6.53 8.3-14.97 11.88-24.17 1.22-3.27 1.22-3.27 2.02-4.8l.68-1.32-.29-.61 3.81-2 1.56-.82.45.95 2.78-1.46 9.38-4.93 2.59-1.36-1.29-2.62c-2.98-6.05-5.81-10.37-9.19-14.01l-1.52-1.65zm-108.31 23.4-1.35 2.54c-2.72 5.1-9.14 12.56-17.18 19.96-15.48 14.47-30.29 24.22-51.11 33.66l-3.85 1.74 2.91 3.06c4.62 4.85 6.34 7.39 8.81 12.99l1.3 2.94 2.85-1.5c11.96-6.31 19.42-10.77 27.56-16.6v20.64c0 8.37-.11 10.38-.57 15.32l-.37 3.92 3.88-.68 18.96-3.34 2.73-.48-.26-2.76c-.48-5.03-.57-7.45-.57-15.21V76.08c7.54-6.73 14.33-13.8 21.87-22.75 1.55-1.89 1.58-1.93 3.67-4.08l2.91-2.99-3.76-1.81-15.84-7.6-2.59-1.24zm-82.32 17.04-3.98 1.37c-3.17 1.09-7.2 2-14.89 3.36l-31.18 5.5c-6.77 1.19-10.29 1.63-13.92 1.72l-2.93.07v23l3.77-1c4.2-1.12 6.28-1.58 13.92-2.93l31.67-5.58c5.98-1.05 10.69-1.73 14.83-2.14l2.71-.27v-23.1zM336.46 71.51l-4.05.71-18.77 3.31-2.86.5.41 2.88c.36 2.53.56 5.88.56 9.67v7.26c-.02.59-.04 1.04-.05 1.4l-19.07 3.36c-8.01 1.41-9.85 1.64-14.01 1.74l-2.93.07v23.73l3.74-.96c4.79-1.22 6.93-1.69 13.95-2.93l17.02-3c-.02.19-.05.41-.09.67v.08c-.43 3.98-1.63 7.72-3.77 11.77-4.27 7.89-11.04 14.28-21.94 20.7l-4.2 2.47 4.09 2.64c6.2 3.99 8.67 6.37 12.01 11.56l1.73 2.69 2.57-1.89c4.9-3.61 7.18-5.42 10.19-8.09 6.83-6.02 12.32-12.91 16.3-20.44 4.16-7.98 5.95-14.6 6.99-26.34l15.02-2.65c7.24-1.28 9.52-1.58 14.14-2.02l2.71-.26V86.33l-3.93 1.28c-4.19 1.37-6.33 1.85-14.25 3.25l-12.71 2.24c0-3.61 0-3.67.1-7.24l.01-.52c.18-6.86.19-7.12.55-9.75l.54-4.08zm109.86 4.82-1.86 1.06c-2.05 1.17-2.37 1.3-6.86 2.09l-49.07 8.65c-8.22 1.45-11.17 1.77-15.35 1.96l-2.87.13v22.9l3.74-.95c6.02-1.53 7.56-1.9 15.32-3.27l36.82-6.49c-3 6.14-6.65 10.84-12.08 15.76-6.81 6.23-13.58 10.37-24.98 15.28l-4.27 1.84 3.44 3.13c5.4 4.91 7.89 8.06 10.27 12.95l1.39 2.85 2.77-1.54c13.76-7.67 20.96-12.83 28.53-20.44 9.83-9.84 17.17-22.27 22.42-38.01 1.33-4.09 1.44-4.26 2.46-5.95l1.29-2.14-1.87-1.66-7.62-6.74-1.62-1.41zm-198.74 14.4-.14 3c-.19 3.94-.85 8.17-2.07 13.3-4.69 19.3-12.16 32.78-24.96 45.05-6.59 6.2-11.36 9.77-19.6 14.69l-4.1 2.45 3.98 2.63c5.6 3.7 8.43 6.45 12.09 11.75l1.71 2.47 2.47-1.71c13.11-9.06 22.96-18.28 31-29.02 9.84-13.1 17.69-31.23 21.55-49.75 1.69-7.81 1.69-7.81 2.46-9.63l1.67-3.95-4.29-.21-18.77-.93-3-.14zm-39.15 7.08-2.41 1.15-17.21 8.23-3 1.44 1.74 2.84c4.54 7.4 8.91 18.42 11.67 29.48l.91 3.64 3.35-1.68 18.28-9.19 2.3-1.16-.8-2.45c-4.45-13.62-7.83-21.2-13.41-30.03l-1.42-2.27zM94.99 119.42c-.81 0-1.65.07-2.47.22-4.74.84-8.83 3.85-11.24 7.83v-2.99l-4.02 1.46-17.11 6.19-2.81 1.02 1.01 2.82.27.74.06.58.01.13.02.13.65 3.35c.02.19.04.4.08.7.03.28.08.63.12 1.03l.01.05.01.05c3.8 26.89 12.53 48.14 25.95 63.17l2.34 2.62 2.22-2.72c4.49-5.5 8.68-9.53 14.96-14.38l2.68-2.07-2.38-2.41c-9.93-10.06-15.91-21.16-20.65-38.33a87.25 87.25 0 0 1-.85-3.38c2 1.45 4.5 2.29 7.27 2.29.81 0 1.63-.07 2.45-.22 7.53-1.33 13.43-8.25 13.43-15.76-.02-6.9-5.17-12.12-12.01-12.12zm-2.95 16.55c-.93 0-1.57-.62-1.57-1.51 0-1.53 1.5-3.23 3.09-3.52.13-.02.26-.03.38-.03.78 0 1.57.5 1.57 1.6 0 1.45-1.53 3.14-3.09 3.42-.13.02-.26.04-.38.04zm93.24-2.33-3.81 1.06-1.82.51c-5.98 1.67-9.34 2.45-18.76 4.11l-.04.01-.04.01-29.28 5.95c-9.83 1.73-14.49 2.36-18.46 2.47l-1.39.04-2.91.09v27.77l3.75-.96 1.79-.46c5.6-1.44 8.61-2.06 18.94-3.88l.04-.01.04-.01 29.09-5.91c10.21-1.8 14.35-2.45 18.75-2.78l1.33-.1 2.78-.21v-27.7zm-131.6.52H28.22l-.06 2.94c-.48 25.24-9.42 52.34-22.26 67.43L3 207.96l4.26 1.38c5 1.63 10.88 4.82 14.98 8.13l2.46 1.99 1.85-2.57c13.15-18.22 20.8-40.01 24.78-70.66l.38-2.22.01-.03v-.03l.29-1.98.02-.12.01-.12c.08-1.17.22-1.91.26-2.08l.13-.42v-.41c.01-.1.06-.41.18-.85l1.07-3.81z" style="fill:#fff"/></svg>