<svg version="1.1" id="Layer_1" xmlns="http://www.w3.org/2000/svg" x="0" y="0" viewBox="0 0 145.01 141.25" style="enable-background:new 0 0 145.01 141.25" xml:space="preserve"><style>.st0{fill:#e1d29d}.st2{fill:#2a3768}</style><path class="st0" d="M144.67 70.63c0 39.01-31.62 70.63-70.63 70.63-39.01 0-70.63-31.62-70.63-70.63S35.03 0 74.04 0c39 0 70.63 31.62 70.63 70.63"/><path class="st0" d="M143.12 84c-.47-1.39-1.17-2.71-2.13-4.1-.91-1.35-2.35-3.21-3.54-4.34a70.538 70.538 0 0 0-4.59-4.07c-1.56-1.25-3.22-2.42-5.12-3.41-.57-.28-1.19-.57-1.84-.89-.67-.35-1.36-.74-2.06-1.16-1.4-.84-2.86-1.81-4.34-2.83-2.97-2.03-6.01-4.27-8.68-6.23-3.55-2.6-7.08-5.23-10.68-7.72-1.57-1.06-1.87-1.81-1.39-1.95-.26-.17-.52-.33-.77-.49-.04.23-.09.46-.17.67-.3.75-.86 1.3-1.42 1.7-.57.41-1.16.7-1.75.92-1.19.45-2.37.7-3.55.88-2.36.36-4.73.47-7.27.57-2.91.12-6.78.11-10.86 0-4.08-.14-8.34-.19-12.12-.18-2.51-.01-5.02 0-7.55-.11-1.27-.06-2.54-.15-3.84-.37-.65-.11-1.3-.25-1.97-.51-.64-.27-1.42-.63-1.87-1.51-.15-.3-.21-.6-.22-.86-.39.25-.76.5-1.14.76.8.23.39 1.31-1.05 2.33-1.57 1.12-3.29 2.05-4.86 3.26-1.91 1.5-4.24 3.26-6.25 4.61-4.85 3.28-8.37 5.26-10.84 6.68-.8.46-1.48.7-2.27 1.18-.82.49-2.11 1.3-2.91 1.82-1.59.95-3.27 2.26-4.69 3.48-2.15 1.8-3.64 3.37-5.33 5.57-.81 1.07-1.93 2.63-2.46 3.84-.34.8-.72 1.54-.95 2.32-.14.38-.28.76-.41 1.14l-.28 1.17c-.41 1.55-.5 3.18-.34 4.9.09.49.18 1.02.28 1.58.11.56.34 1.13.51 1.73.16.65.42 1.09.78 1.6.36.49.85.9 1.38 1.29 1.1.75 2.44 1.27 3.8 1.61 1.36.35 2.76.54 4.07.63 1.74.12 3.5.07 5.23-.13 1.72-.22 3.47-.57 4.95-1.28.66-.32 1.08-.51 1.36-.56-.15-.23-.32-.44-.46-.68a13.017 13.017 0 0 1-1.8-6.47c-.01-2.87.92-5.63 2.28-8.03 1.38-2.41 3.16-4.54 5.15-6.4 3.12-2.71 3.5-1.22.93 1.01-1.24 1.17-3.5 3.51-5.06 6.42-1.66 2.88-2.09 6.36-1.74 8.47.03.51.16.98.3 1.44.13.46.24.91.45 1.31.19.41.36.82.56 1.2.24.36.47.71.69 1.06.21.36.48.66.74.95.26.3.52.59.77.88.56.52 1.12 1 1.67 1.47.6.41 1.18.82 1.75 1.21.6.37 1.22.71 1.83 1.06 1.2.74 2.49 1.31 3.83 1.99 3.92 1.8 7.37 2.91 10.53 3.74 1.58.41 3.11.71 4.59 1.04 1.5.24 2.95.51 4.42.71 5.88.76 11.95 1.14 21.07.75 2.64-.07 5.1-.23 7.75-.4 4.63-.43 9.14-1.02 13.71-1.74 1.66-.28 3.36-.46 4.96-.83.7-.12 1.39-.35 2.08-.54 2.22-.7 3.43-1.02 5.49-2.13 2.04-1.06 4.97-2.93 6.67-4.55 1.54-1.43 2.66-3.2 3.44-4.94.89-2.01 1.2-3.58 1.26-4.11 0-.01.01-.02.01-.03-.31-.25-.63-.49-.93-.75-.47-.41-.91-.86-1.35-1.31-1.38-1.5-1.92-2.43-3.07-4.08-1.13-1.64-2.38-4.37-3.01-6.3-.59-1.71-1.32-3.37-1.69-5.12-.43-2.04-.17-3.68.04-4.14.34-.82.77-.91 1.08-.5.33.41.55 1.3.67 2.55.22 2.29.42 4.64 1.21 6.88.96 2.74 2.59 5.84 4.34 8.1 2.1 2.76 4.49 4.53 6.68 5.56 2.21 1.04 4.21 1.37 5.88 1.44.54.01 1.02.06 1.5.04.48.01.97.01 1.51-.08.56-.04 1.28-.23 2-.39.7-.22 1.43-.4 1.94-.6 1.06-.32 2.09-.89 2.96-1.62.88-.73 1.51-1.7 1.79-2.72.4-1.5.2-2.99-.27-4.36"/><path d="M49.3 49.46c1.29.24 2.83.35 4.41.4 3.16.1 6.47.04 8.59.05 3.99 0 7.11.04 9.92.11 2.81.06 5.33.08 8.19.07 4.09-.02 7.52-.17 10.53-.67 1.49-.25 2.9-.6 4.05-1.2.57-.3 1.05-.68 1.32-1.12.27-.44.34-.94.25-1.51-.1-.56-.34-1.16-.67-1.73-.36-.54-.7-1.1-1.2-1.55-.95-.94-2.16-1.73-3.58-2.34-2.85-1.24-6.34-1.98-10.6-2.75-1.98-.37-3.86-.77-5.83-1.33a.821.821 0 0 1-.48-.38l-.01-.02c-.21-.38-.4-.79-.68-1.17a9.055 9.055 0 0 0-4.77-3.57c-.47-.15-.96-.24-1.42-.27-.49-.04-.72.05-1.2.26-.39.2-.67.45-.63.55-.03.13.16.56.49.91.95 1.09 2.28 2.01 3.52 3.08.21.17.41.37.61.55.1.09.17.21.2.34a.66.66 0 0 1-.49.8h-.01l-1.27.3c-2.21.52-3.41.59-5.61 1.04-2.17.45-5.46.86-7.55 1.53-1.9.57-3.47 1.69-4.75 2.94-1.49 1.44-2.55 2.73-3 3.05-.37.27-.66.39-.86.39.02.15.01.33-.02.55-.06.43-.14 1.02.08 1.46.17.5 1.18 1.01 2.47 1.23" style="fill:#b94d3b"/><path class="st2" d="M144.01 82.4c-1.2-2.75-2.79-4.81-4.45-6.72-1.68-1.9-3.5-3.63-5.69-5.35a40.36 40.36 0 0 0-3.63-2.55c-1.33-.86-2.96-1.54-4.44-2.37-4.26-2.51-7.43-4.74-13.1-8.85-3.01-2.21-9.4-6.81-11.81-8.44-1.03-.7-1.81-.92-2.16-.82-.48.15-.17.9 1.39 1.95 3.6 2.49 7.13 5.12 10.68 7.72 2.67 1.96 5.72 4.19 8.68 6.23 1.49 1.01 2.94 1.99 4.34 2.83.7.42 1.38.81 2.06 1.16.66.32 1.27.62 1.85.89 1.91.98 3.56 2.15 5.12 3.41 1.56 1.26 3.05 2.59 4.59 4.07 1.19 1.13 2.63 2.98 3.54 4.34.96 1.39 1.66 2.71 2.13 4.1.47 1.38.67 2.87.27 4.4-.28 1.01-.91 1.98-1.79 2.72-.88.73-1.91 1.3-2.96 1.62-.52.21-1.24.38-1.94.6-.72.16-1.43.34-2 .38-.55.08-1.03.08-1.51.08-.48.02-.96-.04-1.5-.04-1.67-.07-3.67-.4-5.88-1.44-2.19-1.03-4.58-2.8-6.68-5.56-1.75-2.26-3.38-5.35-4.34-8.1-.79-2.24-.99-4.59-1.21-6.88-.12-1.25-.34-2.14-.67-2.55-.31-.41-.74-.32-1.08.5-.21.46-.47 2.1-.04 4.14.38 1.76 1.1 3.41 1.69 5.12.63 1.93 1.87 4.66 3.01 6.3 1.15 1.65 1.69 2.58 3.07 4.08.44.45.88.89 1.35 1.31.29.27.62.5.93.75 0 .01-.01.02-.01.03-.06.52-.38 2.09-1.26 4.11-.78 1.74-1.9 3.51-3.44 4.94-1.7 1.62-4.63 3.49-6.67 4.55-2.06 1.11-3.27 1.43-5.49 2.13-.69.2-1.38.42-2.08.54-1.59.37-3.29.55-4.96.83-4.57.72-9.08 1.31-13.71 1.74-2.65.17-5.11.33-7.76.4-9.12.38-15.19.01-21.07-.75-1.47-.2-2.92-.47-4.42-.71-1.48-.32-3-.63-4.59-1.04-3.16-.83-6.61-1.94-10.53-3.74-1.34-.68-2.63-1.25-3.83-1.99-.61-.36-1.23-.69-1.83-1.06-.57-.4-1.15-.8-1.75-1.21-.54-.47-1.1-.96-1.67-1.47-.25-.29-.51-.58-.77-.88-.26-.3-.54-.6-.74-.95-.23-.35-.46-.7-.69-1.06-.2-.38-.37-.79-.56-1.2-.22-.4-.32-.86-.45-1.32-.14-.46-.27-.93-.3-1.43-.35-2.11.08-5.59 1.74-8.47 1.56-2.92 3.81-5.25 5.06-6.42 2.57-2.23 2.19-3.72-.93-1.01-2 1.86-3.78 3.99-5.15 6.4-1.36 2.4-2.29 5.16-2.28 8.03.01 2.15.61 4.46 1.8 6.47.14.24.3.46.46.68-.29.05-.7.24-1.36.56-1.48.71-3.23 1.06-4.95 1.28-1.73.2-3.49.25-5.23.13-1.31-.09-2.7-.27-4.07-.63-1.37-.34-2.71-.86-3.8-1.61-.53-.38-1.03-.8-1.38-1.29-.36-.51-.62-.95-.78-1.6-.17-.6-.4-1.17-.51-1.73-.1-.56-.19-1.09-.28-1.58-.15-1.72-.06-3.35.34-4.9l.28-1.17c.14-.38.28-.76.41-1.14.23-.78.62-1.53.95-2.33.54-1.21 1.65-2.77 2.46-3.84 1.69-2.2 3.18-3.76 5.33-5.57 1.42-1.22 3.1-2.53 4.69-3.48.79-.52 2.09-1.33 2.9-1.82.79-.49 1.48-.72 2.27-1.18 2.48-1.43 5.99-3.41 10.84-6.68 2.01-1.35 4.35-3.11 6.25-4.61 1.56-1.22 3.28-2.14 4.86-3.26 1.44-1.02 1.85-2.1 1.05-2.33-.14-.04-.31-.06-.54-.04-.42.04-1.66.5-2.92 1.58-1.09.92-2.04 2.03-3.19 2.92-1.28 1-3.21 2.39-4.45 3.37-1.26 1-2.03 1.37-3.36 2.26-.41.28-.82.55-1.24.81-.96.61-1.93 1.19-2.92 1.77-2.68 1.57-5.44 2.99-8.17 4.7-.78.47-1.54.92-2.28 1.41-.73.49-1.5.94-2.21 1.52-5.04 3.82-7.9 7.08-10.08 10.67-.29.44-.53.9-.76 1.38-.23.48-.48.95-.69 1.44-.37 1.02-.8 2.04-1.01 3.21-.51 2.28-.68 4.97.13 7.99.16.52.31 1.02.47 1.51.17.5.44 1.02.75 1.46.63.9 1.47 1.58 2.4 2.13 1.88 1.08 4.14 1.71 7.05 2.04 1.55.17 3.98.23 6.31-.06 2.32-.26 4.52-.9 5.65-1.49.57-.27.96-.66 1.15-.99.03-.05.04-.09.06-.14 1.08 1.43 2.42 2.63 3.81 3.65 3.68 2.54 7.44 4.27 10.35 5.39 5.07 1.93 9.55 3.22 14.81 3.88 1 .15 2.22.3 3.44.44 1.22.15 2.44.32 3.46.35 2.1.13 3.94.25 5.79.27 1.85.08 3.7.07 5.8.05 1.4.01 2.89-.07 4.37-.14 1.48-.05 2.97-.11 4.35-.18 1.41-.06 3.69-.23 5.1-.39 1.38-.12 2.45-.13 3.81-.28 2.12-.29 4.63-.62 7.66-1.14 1.52-.26 3.17-.54 4.97-.85 1.83-.35 3.78-.89 5.84-1.65 3.38-1.29 7.25-3.47 9.95-6.02l.84-.76.79-.81c.55-.51 1.02-1.12 1.52-1.7.91-1.22 1.81-2.54 2.17-4.16.14-.42.17-.84.17-1.22v-.39c.33.22.66.45 1.01.64 1.74.97 3.66 1.65 5.64 1.91 1.98.27 4 .17 5.96-.22 2.21-.49 4.33-1.05 6.28-2.55.81-.67 1.49-1.48 1.96-2.38.42-.91.7-1.86.72-2.78.16-1.84-.37-3.42-.93-4.8"/><path class="st2" d="M47.47 50.39c.67.26 1.32.4 1.97.51 1.3.22 2.57.31 3.84.37 2.53.11 5.04.1 7.55.11 3.78-.01 8.03.04 12.12.18 4.08.11 7.95.12 10.86 0 2.54-.11 4.91-.21 7.27-.57 1.18-.19 2.36-.43 3.55-.88.59-.22 1.19-.51 1.75-.92.56-.4 1.11-.95 1.42-1.7.08-.21.12-.44.17-.67.08-.4.11-.82.06-1.24-.09-.65-.31-1.27-.57-1.84-.51-1.14-1.36-2.12-2.11-2.81-1.6-1.39-3.29-2.12-4.95-2.74-1.67-.61-3.38-1.06-5.33-1.49-2.59-.57-5.54-.99-8.04-1.64-.49-.13-1.1-.28-1.74-.45-.44-.82-1-1.59-1.47-2.15-.92-1.04-1.73-1.79-2.95-2.45-.78-.4-1.68-.75-2.72-.94-.53-.07-1.07-.15-1.78 0-.38.09-.58.23-.88.35-.14.05-.29.16-.43.26-.15.11-.29.16-.43.34-.13.17-.29.3-.39.52-.08.23-.21.47-.17.71 0 .25.02.5.11.68.07.21.15.4.26.55.4.65.91 1.12 1.43 1.58.73.65 1.54 1.25 2.34 1.91-.72.17-1.55.35-2.43.51-3.25.64-7.26 1.05-10.62 2.04-1.36.39-2.73.88-4.01 1.58-1.3.67-2.45 1.65-3.4 2.77-1.03 1.24-1.33 2.36-1.32 2.91 0 .06.03.08.04.13-.13.04-.29.14-.49.36-.15.21-.34.46-.46.89-.07.22-.12.51-.1.84.01.27.07.56.22.86.41.89 1.18 1.26 1.83 1.53m-.73-3.59c.03-.22.04-.41.02-.55.21.01.49-.12.86-.38.45-.32 1.51-1.61 3-3.05 1.28-1.25 2.85-2.37 4.75-2.94 2.09-.67 5.38-1.08 7.55-1.53 2.2-.45 3.4-.52 5.61-1.04L69.8 37h.01c.36-.09.58-.45.49-.8a.646.646 0 0 0-.2-.34c-.21-.19-.41-.38-.61-.55-1.24-1.07-2.57-1.99-3.52-3.08-.33-.35-.52-.78-.49-.91-.04-.1.24-.35.63-.55.48-.22.71-.3 1.2-.26.46.03.94.12 1.42.27 1.91.6 3.63 1.87 4.77 3.57.27.37.47.79.68 1.17l.01.02c.11.19.28.33.48.38 1.97.56 3.84.96 5.83 1.33 4.25.77 7.75 1.51 10.6 2.75 1.42.61 2.64 1.4 3.58 2.34.51.45.84 1 1.2 1.55.34.57.57 1.17.67 1.73.1.56.03 1.07-.25 1.5-.27.44-.75.82-1.32 1.12-1.15.6-2.56.95-4.05 1.2-3.01.5-6.43.65-10.52.67-2.85.01-5.38-.02-8.19-.07-2.81-.07-5.92-.12-9.92-.11-2.13-.01-5.43.05-8.59-.05-1.58-.05-3.12-.16-4.41-.4-1.29-.22-2.3-.73-2.49-1.21-.22-.45-.13-1.04-.07-1.47m17.24 41.09c-.13.39-.1.85-.05 1.14.24 1.09.85 1.58 1.37 1.73.53.14 1.11.14 1.59.12.49-.02.94-.08 1.38-.16.86-.18 1.8-.39 2.89-1.04.16-.09.31-.17.46-.25.16-.08.31-.17.43-.29.47-.44.63-.87.83-1.59.08-.24.15-.49.2-.74.02-.11.05-.22.06-.33.04-.36.21-.54.17-.91-.04-.37.05-.91.03-1.29-.01-.34-.32-.67-.43-1-.03-.1-.04-.2-.03-.29-1.5-.43-3.73-1.82-3.48-3.25.29-1.68 2.7-1.13 4.74-1.07 2.04.05 5.03.12 4.89 1.59-.11 1.19-2.18 2.39-4.11 2.75-.01.41-.24.85-.23 1.29.02.59-.01 1.31-.12 1.91-.05.29-.1.55-.14.8.17.26.23.63.35.88.2.42.47.81.75 1.18.6.8 1.32.98 1.76 1.16.15.05.23.19.37.27.15.07.42.1.57.2.3.15.69.18 1.03.18.5.02.9-.01 1.38-.16.23-.07.59-.07.8-.22.56-.33 1.11-.36 1.6-.67.23-.2.55-.45.62-.7.09-.23.03-.58-.15-.93-.23-.45-.66-.93-1.11-1.21-.26-.14.14-1.48.7-1.18.49.25 1.53 1.19 1.79 1.91.61 1.24.16 2.51-.61 3.07-.28.22-.54.4-.79.51-.25.14-.48.24-.7.32-.44.19-.84.29-1.25.41-.82.18-1.7.37-3.03.21-.39-.04-.72-.22-1.09-.34-.63-.24-1.28-.45-1.82-.88-.21-.14-.38-.32-.57-.49-.08-.07-.16-.14-.24-.22-.24-.26-.28-.47-.53-.71-.14-.11-.26-.29-.37-.49-.05.11-.08.22-.14.32-.16.22-.34.35-.53.52-.2.17-.47.5-.72.6-.23.12-.45.25-.67.37-.22.14-.44.26-.66.36-.65.31-1.17.46-1.83.71-.33.12-.81.15-1.14.26-.87.31-1.66.17-2.61.1-.28-.03-.6-.06-1.04-.22-.41-.18-.8-.47-1.09-.8a4.26 4.26 0 0 1-.99-2.35c-.13-1.07.34-2.28 1.2-2.98.69-.51 1.2.83.88 1.06-.18.13-.46.43-.57.83m-14.59-8.25c1.38-.07 2.45-1.27 2.37-2.66-.08-1.4-1.26-2.47-2.65-2.39-1.39.07-2.45 1.27-2.37 2.67a2.537 2.537 0 0 0 2.65 2.38m43.34-3.4c.08 1.4 1.26 2.47 2.65 2.39a2.525 2.525 0 0 0 2.37-2.66c-.08-1.4-1.26-2.47-2.65-2.39a2.506 2.506 0 0 0-2.37 2.66"/></svg>