<svg version="1.1" id="Layer_1" xmlns="http://www.w3.org/2000/svg" x="0" y="0" viewBox="0 0 145.39 159.83" style="enable-background:new 0 0 145.39 159.83" xml:space="preserve"><style>.st0{fill:#2a3768}</style><path class="st0" d="M4.21 23.31c.09.26.09.64.18.9.16.53.26.94.4 1.48.08.36.27.74.28 1.12 0 .2.14.47.19.65.05.18.01.35.07.52.23.53.67 1.18 1.18 2.21.23.42.54.91.88 1.27.25.3.3.79.62 1.05.35.29 1.09-.3 1.36-.94.08-.18.11-.52-.17-.63-.25-.09-.63-.09-.8-.29-.2-.21-.4-.59-.61-.8-.21-.21-.2-.4-.33-.66l-.12-.24c-.09-.19-.18-.37-.25-.56-.21-.52-.48-1.01-.64-1.56-.11-.31-.09-.63-.19-.93-.32-1.06-.48-1.79-.6-2.52-.1-.72-.2-1.44-.16-2.51.02-.74-.02-1.33.16-2.35.08-.55.33-1.7.48-2.1.13-.42-1.09-.94-1.25-.42-.23.68-.41 1.36-.57 2.06-.23 1.05-.33 2.42-.28 3.24.05.7-.11 1.33.17 2.01z"/><path d="M40.23 148.02c-.44.4-1.04.92-1.73 1.39-.92.63-1.96 1.14-2.63 1.42-1.25.49-2.22.88-3.1 1.23-.4.17-.89.37-1.15.52-.22.14-.34.31-.38.62-.06.44.13.98.36 1.42.24.45.54.85.86 1.19.65.69 1.37 1.2 2.14 1.6 1.55.78 3.36 1.28 6.05.97.78-.11 1.52-.18 2.29-.4 1.24-.35 2.19-1.31 3.01-2.39.32-.39.58-.83.83-1.26l.3-.59c.29-.66.58-.96.75-1.67.05-.18.11-.39.17-.61-2.34-.9-5.22-2.23-7.3-3.21-.15-.06-.3-.15-.47-.23zm74.84-76.73c1.11.34 3.23.88 5.48.98 2.25.14 4.58-.17 6.06-.46 2.78-.55 4.87-1.32 6.75-2.05 1.87-.74 3.53-1.5 5.4-2.37 1.38-.61 2.36-1.27 3.18-2.13.4-.42.67-.93.99-1.36.2-.51.44-.98.6-1.48.57-2.01.46-4-.03-5.87-.5-1.88-1.32-3.71-2.65-5.49-1.32-1.75-3.21-3.53-5.97-4.42-1.63-.42-3.24-.65-5.01-.58-3.09.17-6.07 1.02-9.04 1.98-1.09.36-2.17.73-3.23 1.15-.46.18-.92.36-1.38.55-1.49.63-2.32.84-3.78 1.56-1.44.7-3.63 1.67-5.24 2.23-1.42.46-2.91 1.11-4.64.82-1-.18-1.78-.73-2.22-1.21-.45-.48-.64-.87-.71-1.07-.12-.38-.1-.65 0-.82-.22-.2-.46-.4-.73-.6-.22.79-.59 1.52-1.14 2.08-1.08 1.16-2.45 1.58-3.61 1.84-2.37.45-4.3.27-5.89.12-1.03-.12-1.8-.33-2.81-.54-1.04-.2-2.7-.53-3.71-.83-2-.55-4.23-1.16-6.22-1.7-2.98-.84-5.25-1.49-8.22-2.4-1.44-.44-3.43-1.23-4.84-1.74-1.85-.67-3.53-1.47-5.13-2.48-.8-.5-1.57-1.08-2.3-1.77-.72-.69-1.42-1.51-1.86-2.61a4.57 4.57 0 0 1-.24-2.18c.01-.08.03-.16.05-.23-.27.06-.58.11-.93.16-.72.09-1.72.31-2.99.52-.33.04-.66.09-1.07.07-.2-.02-.43-.04-.68-.16-.25-.08-.52-.38-.58-.45-.44-.47-.98-.95-1.49-1.48a12.909 12.909 0 0 1-2.54-3.62c-.58-1.28-.96-2.5-1.15-3.47-.78-3.62-.65-6.5-.68-9.02.02-2.51-.18-4.75-.56-7.24-.65-3.56-1.89-6.37-3.62-8.38-1.77-1.98-4-3.05-6.35-3.5-.59-.13-1.2-.15-1.81-.23-.62-.02-1.24-.02-1.88-.01-.62.06-1.32.09-1.92.18-.58.07-1.14.34-1.7.65-2.22 1.38-4 4.17-5.44 7.66-.84 2.04-1.52 4-2.05 6.17-.44 1.9-.75 3.81-.89 5.73-.13 1.91-.14 3.84.22 5.67.11.66.34 1.3.58 1.97.21.67.52 1.3.77 1.95.26.55.53 1.09.82 1.63.97 1.72 1.45 2.66 2.72 4.19 1.24 1.5 3.3 3.6 4.91 4.79 1.42 1.1 3.07 1.75 4.62 2.43 1.8.79 3.15 1.48 3.53 1.8.28.23.42.43.48.61.74.24 1.49.46 2.27.66l1.34-.87c.83-.55 1.49.59.73 1.1-.76.49-2.76 1.86-3.7 2.52-1.78 1.22-2.67 2.01-3.88 2.97-1.73 1.38-2.81 2.4-3.88 3.47-1.05 1.08-2.11 2.21-3.48 4.04-.4.53-.82.99-1.2 1.53-.65.96-1.14 1.99-1.65 3.02-.17.38-.33.77-.49 1.15l-.16.51c-.18.56-.37.83-.43 1.41-.04.57-.23 1.42-.22 2.01-.04.53.32 1.03.44 1.51.18.55.01 1.01-.16 1.19-.21.23-.48.35-.75.37.16.95.41 1.92.78 2.92.03.09.1.38.16.65.05 0 .09.02.14.02.63.05.99.45.86.77-.11.31-.4.6-1 .54-.59-.05-1.72-.2-2.82-.57-1.11-.34-2.2-.9-2.85-1.25-2.45-1.32-3.86-1.89-5.68-2.54-2.61-.89-4.6-.77-5.49.48-.47.63-.66 1.52-.78 2.54-.03.52-.02 1.09-.02 1.69.1.59.1 1.24.32 1.9.09.39.17.77.32 1.13.13.37.24.75.46 1.1.67 1.27 1.66 2.32 2.77 3.28.4.36.82.69 1.25 1.02l.58.4c.63.43.92.74 1.61 1.09.69.32 1.67.93 2.37 1.29.63.32 1.37.38 2.03.61.76.26 1.18.8 1.25 1.05a.9.9 0 0 1-.07.71c.08.03.16.06.23.09.36-.8.76-1.58 1.2-2.35 1.36-2.34 2.69-2.84 2.77-2.53.15.35-.57 1.32-1.63 3.2-.57.92-1.21 2.35-1.87 4.05-.6 1.73-1.23 3.72-1.66 5.82-.94 4.17-1.16 8.62-1.03 11.45.02 1.33.2 2.58.33 3.76.24 1.16.38 2.29.72 3.31.19.77.44 1.49.7 2.18-.21-.88-.34-1.73-.41-2.53-.15-1.74-.07-3.33.27-4.88.29-1.56.86-3.08 1.69-4.69.86-1.58 2.02-3.34 4.1-4.82 1.23-.8 2.6-1.29 4.1-1.34 2.62-.14 5.07.87 6.99 2.44.69.59 1.33 1.23 1.88 1.96.24.32.48.63.68.98.66 1.12.76 1.76 1.26 2.91.49 1.13.84 2.95.98 4.19.14 1.11.45 2.2.48 3.32.03 1.3-.45 2.24-.69 2.48-.28.27-.54.34-.76.28-.46-.12-.74-.85-.61-1.83.16-1.36.45-2.75.28-4.17-.21-1.73-.78-3.76-1.47-5.34-.78-1.91-2.07-3.13-3.26-3.99-1.2-.85-2.33-1.29-3.29-1.55-.62-.12-1.09-.34-1.74-.35-.67-.08-1.71.15-2.34.32-1.25.34-2.52 1.26-3.4 2.28-1.31 1.54-2.13 2.93-2.84 4.84-.13.48-.33 1.04-.5 1.61-.12.58-.25 1.16-.29 1.65-.14 2.53-.13 4.78.7 7.26.47 1.39 1.35 3.22 2.71 4.7.36.34.72.67 1.11.91.42.26.9.47 1.37.66a8.1 8.1 0 0 0 2.85.53c2.47.01 4.88-1.14 6.84-2.8.79-.71 1.37-.69 1.51-.34.12.29-.05.8-.67 1.35-.68.6-2.06 1.65-3.73 2.34-1.65.75-3.59.94-4.8.81-1.14-.1-2.13-.4-2.98-.76-.67-.29-1.33-.65-1.87-1.08 1.19 1.62 2.5 3.15 3.98 4.71 3.86 3.93 7.58 6.73 11.08 9.02 3.51 2.29 6.82 4.08 10.25 5.69 3.44 1.59 7 3.02 11.15 4.25 4.08 1.18 8.75 2.28 14.4 2.56-.28-.29-.56-.59-.82-.88l-.03-.04-.01-.01c-.29-.46-.5-.89-.66-1.27-.4-.95-.87-1.93-.98-2.99-.11-1.23.38-2.09.62-2.29.28-.23.54-.28.75-.21.46.13.73.79.64 1.62-.11 1.14-.28 2.33.2 3.43.14.31.31.63.52.96.84.86 1.7 1.88 2.63 2.51.68.64 1.47.92 2.14 1.3.34.18.71.22 1.04.33.34.07.66.22.98.22.64 0 1.22.12 1.74.02.52-.1 1.01-.12 1.43-.24.53-.2 1-.2 1.54-.41.54-.27 1.4-.7 1.88-1.08.25-.16.51-.33.76-.51.24-.2.46-.44.69-.66.22-.23.46-.44.66-.69.19-.25.38-.5.56-.74.59-.69.91-1.44 1.33-2.12.15-.37.3-.74.46-1.12.17-.38.3-.78.38-1.22.26-.83.49-2.05.52-2.91-.05-.56-.07-1.1-.08-1.63-.06-.53-.13-1.05-.19-1.57-.16-1.03-.44-2.04-.96-3-.64-1.04-1.81-2.24-3.56-2.49-1.7-.32-3.66.03-5.26.61-2.13.8-4.16 1.95-5.73 3.6-.63.69-1.17.7-1.37.38-.16-.26-.08-.75.42-1.3.55-.59 1.69-1.62 3.04-2.44 1.33-.83 2.84-1.5 3.86-1.78 1.89-.58 3.48-.73 4.93-.55 1.43.19 2.8.71 3.85 1.84 1.55 1.61 1.94 3.43 2.25 4.93.24 1.53.31 2.96.1 4.37l-.15 1.06c-.07.35-.18.7-.28 1.05-.11.35-.18.72-.32 1.08-.06.14-.12.29-.18.43 2.15-1.13 4.19-2.44 6.08-3.98.88-.6 1.59-1.4 2.37-2.12l1.14-1.1c.36-.39.68-.81 1.03-1.21.57-.72 1.21-1.38 1.72-2.15.81-1.26 1.53-2.15 2.1-3.14.54-1.01 1.17-1.97 1.75-3.35 1.24-2.68 2.62-6.91 3.26-9.87.54-2.66.69-5.31.76-7.92.14-3.02.37-5.33.55-6.04.16-.64.35-1 .54-1.11.14-.17.4-.33.85-.41 1.02-.17 3.77-.8 5-1.29 2.35-.81 3.55-1.5 4.99-2.48 2.07-1.41 3.12-2.8 3.74-4.3.33-.75.48-1.56.52-2.46-.02-.45-.05-.93-.19-1.42-.04-.25-.17-.49-.26-.75-.1-.29-.15-.29-.29-.41-.3-.22-1-.34-1.72-.26-1.29.15-2.56.64-3.85 1.07-.47.17-.95.34-1.42.51l-.61.24c-.66.28-1.05.3-1.68.64-.62.34-1.61.71-2.27 1-.59.26-1.06.78-1.65 1.1-.66.39-1.45.28-1.72.09-.29-.18-.32-.38-.29-.56a.75.75 0 0 1 .09-.3c0-.25.11-.5.36-.64.19-.09.44-.25.71-.46.29-.19.59-.44.87-.73.59-.54 1.05-1.23 1.34-1.68.99-1.75 1.1-2.93 1.31-4.37.24-2.1.06-3.57-.15-5.02-.24-1.46-.55-2.94-1.23-5.12-.19-.63-.31-1.24-.5-1.88-.37-1.11-.84-2.15-1.27-3.22-.16-.39-.33-.78-.49-1.17l-.24-.49c-.26-.53-.3-.87-.63-1.36-.34-.48-.73-1.26-1.06-1.75-.3-.44-.83-.69-1.21-1.02-.45-.37-.53-.85-.49-1.07.14-.79 1.02-1.25 1.65-.6.35.38.55.83.76 1.28 1.5.85 3.01 1.54 4.5 2.07.28-.22.98-.24 1.92.1zm-66.44-6.98c-1.1 0-1.99-.89-1.99-1.99s.89-1.99 1.99-1.99a1.989 1.989 0 1 1 0 3.98zm42.08 9.34c-1.1 0-1.99-.89-1.99-1.99s.89-1.99 1.99-1.99 1.99.89 1.99 1.99-.89 1.99-1.99 1.99z" style="fill:#e1d29d"/><path class="st0" d="M14.33 91.56c-.07-.25-.49-.79-1.25-1.05-.66-.23-1.4-.29-2.03-.61-.7-.36-1.68-.97-2.37-1.29-.69-.35-.98-.66-1.61-1.09l-.58-.4c-.43-.33-.85-.67-1.25-1.02-1.11-.96-2.1-2.01-2.77-3.28-.22-.35-.33-.73-.46-1.1-.15-.36-.23-.74-.32-1.13-.22-.66-.22-1.32-.32-1.9 0-.6-.01-1.17.02-1.69.12-1.02.31-1.91.78-2.54.89-1.26 2.88-1.38 5.49-.48 1.82.65 3.23 1.22 5.68 2.54.65.35 1.74.91 2.85 1.25 1.11.37 2.24.52 2.82.57.6.05.89-.23 1-.54.12-.32-.24-.72-.86-.77-.05 0-.09-.02-.14-.02-1.61-.17-3.12-.71-4.56-1.49-2.29-1.28-5.41-2.82-7.52-3.27-.92-.18-1.78-.39-2.73-.33-.46-.02-.94.13-1.41.26-.44.23-.94.44-1.27.88-.61.55-1.1 1.56-1.27 2.27-.27 1.48-.31 2.57-.17 4.01.06.48.11.99.27 1.48.12.5.24 1 .41 1.45.08.23.18.54.33.83.16.28.32.56.44.78.21.44.39.77.67 1.16.93 1.17 2.49 2.49 4.9 4.09.99.68 2.25 1.36 3.3 1.9.86.44 1.57 1.14 2.42 1.55.63.31 1.22.12 1.45-.31.1-.2.14-.44.06-.71zm4.64-19.68c-.12-.48-.48-.98-.44-1.51-.01-.59.17-1.44.22-2.01.07-.59.25-.86.43-1.41l.16-.51c.16-.38.33-.76.49-1.15.5-1.03.99-2.05 1.65-3.02.39-.54.8-1 1.2-1.53 1.37-1.83 2.43-2.96 3.48-4.04 1.06-1.07 2.15-2.09 3.88-3.47 1.21-.96 2.1-1.74 3.88-2.97.94-.66 2.94-2.02 3.7-2.52.77-.51.1-1.66-.73-1.1l-1.34.87-2.1 1.36c-1.72 1.15-3.85 2.74-5.04 3.8-1.04.92-2.06 1.57-2.91 2.66-.32.42-.9.9-1.23 1.31-.69.84-1.25 1.46-1.93 2.31-.46.56-.92 1.25-1.41 1.79-.25.28-.57.78-.77 1.1-.21.3-.45.48-.62.8-.54.99-1.16 2.42-1.86 4.61-.26.91-.48 2.06-.47 3.03-.02.4-.09.79-.12 1.19-.05.4-.1.81 0 1.2.11.54.52.79.96.76.27-.02.54-.14.75-.37.18-.17.36-.63.17-1.18z"/><path class="st0" d="M32.81 46.24c-.38-.33-1.73-1.02-3.53-1.8-1.55-.68-3.21-1.32-4.62-2.43-1.61-1.19-3.67-3.29-4.91-4.79-1.26-1.53-1.75-2.47-2.72-4.19-.29-.54-.55-1.09-.82-1.63-.26-.65-.57-1.28-.77-1.95-.24-.67-.46-1.31-.58-1.97-.35-1.83-.35-3.76-.22-5.67.13-1.91.44-3.83.89-5.73.52-2.17 1.21-4.13 2.05-6.17 1.44-3.49 3.23-6.28 5.44-7.66.56-.31 1.12-.58 1.7-.65.6-.1 1.29-.12 1.92-.18.63 0 1.26 0 1.88.01.61.08 1.22.1 1.81.23 2.36.45 4.59 1.52 6.35 3.5 1.73 2.01 2.97 4.83 3.62 8.38.39 2.49.59 4.74.56 7.24.04 2.52-.09 5.4.68 9.02.19.97.57 2.19 1.15 3.47.59 1.27 1.49 2.57 2.54 3.62.52.53 1.06 1.01 1.49 1.48.06.06.33.36.58.45.25.12.48.14.68.16.41.03.75-.03 1.07-.07 1.27-.21 2.27-.43 2.99-.52.35-.05.66-.1.93-.16-.02.08-.04.16-.05.23-.11.79.01 1.55.24 2.18.44 1.09 1.14 1.91 1.86 2.61.73.69 1.5 1.27 2.3 1.77 1.6 1.01 3.28 1.81 5.13 2.48 1.41.52 3.4 1.3 4.84 1.74 2.96.91 5.24 1.56 8.22 2.4 1.99.54 4.22 1.15 6.22 1.7 1.01.29 2.67.62 3.71.83 1.01.21 1.78.42 2.81.54 1.59.15 3.52.33 5.89-.12 1.16-.27 2.53-.68 3.61-1.84.55-.56.92-1.29 1.14-2.08.22-.8.29-1.67.22-2.49.02-1.38-.38-2.92-1.02-4.34-.68-1.43-1.8-2.6-2.93-3.44-1.84-1.37-3.9-2.41-6.1-2.86-.83-.16-1.49-.14-1.94-.04.3-.35.54-.77.72-1.29.13-.35.24-.8.09-1.27-.3-.79-.89-1.14-1.22-1.32-.36-.23-.76-.35-1.13-.46-.76-.17-1.65-.17-2.65.35-.68.37-1.08.79-1.71 1.55-.08.09-.16.21-.25.34-.08-.32-.62-.83-1.75-1.21-3.83-1.25-7.76-1.94-11.75-2.2-2.99-.15-6.52-.07-9.71 1.2-.79.34-1.54.74-2.22 1.26-.66.53-1.27 1.14-1.7 1.81-.16.25-.31.52-.44.79-.39-.05-.89-.05-1.52.03-1.15.15-2.3.43-3.31.55-.24.02-.49.03-.62 0-.08-.01-.09-.03-.1-.03.05.05-.09-.08-.19-.19-.42-.45-.83-.82-1.22-1.22-1.56-1.51-2.63-3.35-3.21-5.44-.46-1.56-.71-3.31-.85-5.11-.12-1.82-.05-3.63-.07-5.52 0-3.73-.5-7.29-1.33-9.85-.71-2.24-1.65-4.29-3.12-5.99-1.44-1.7-3.4-3.01-5.68-3.62-1.74-.5-4.28-.76-6.05-.59-.45.04-.89.09-1.32.13-.45.08-.92.17-1.33.34-.83.32-1.57.77-2.19 1.31C20 2.91 19.04 4.24 18.1 5.8c-1.23 2.1-2.22 4.64-3 6.89-.42 1.15-.87 3.06-1.12 4.25-.26 1.17-.49 2.05-.64 3.23-.19 1.83-.36 4.04.02 6.73.09.67.26 1.38.49 2.1.26.68.48 1.41.81 2.13.6 1.47 1.41 3 2.41 4.57 1.63 2.63 4.19 5.4 6.69 7.28 2.01 1.54 4.05 3.08 6.44 4.04 2.08.79 3.33.52 3.09-.16-.06-.19-.2-.39-.48-.62zm21.76-8.21c.74-1.82 2.33-3 4.28-3.7 1.97-.71 4.35-1.04 7.42-.98 1.64.02 4.19.23 6.62.65 2.43.41 4.73 1.02 5.92 1.43 1.03.34 1.69.41 2 .26-.25.43-.48.91-.55 1.19-.06.24.18.38.47.45.35.08.77.05.79-.05.14-.4.42-.85.73-1.23.46-.61 1.18-1.17 1.64-1.37.42-.2.75-.06 1.19-.16.18-.07.4.1.57.12.36.09.67.27.87.47.11.14.25.31.13.5-.04.08-.05.24-.11.34-.04.09-.19.13-.23.23-.15.3-.38.85-1.1 1.32-.32.21-.63.41-.92.6-.23.16-.6 0-.76.09-.08.04-.05.28-.07.62 0 .12 0 .25.01.37.02.23.05.46.17.65.1.18.51.36.77.12.22-.21.31-.58.52-.71.24-.14.61-.32.79-.53.18-.21.38-.2.58-.38l.11-.09c.06.17.2.36.5.56.38.26 1.66.69 3.29 1.06 1.4.32 2.89.64 4.12 1.53.71.46 1.4 1.23 2 2.04.26.43.52.87.73 1.3.16.45.37.86.48 1.25.21.8.33 1.43.31 2.07.02.64.04 1.28-.13 2.03-.09.47-.27.9-.51 1.29-.56.89-1.55 1.43-2.65 1.74-1.53.39-3.19.41-4.84.3-1.65-.12-3.32-.37-4.99-.72-1.91-.4-3.65-.93-5.54-1.42-6.53-1.78-10.85-3.02-14.93-4.58-2.03-.79-4.03-1.64-6.05-2.87-1-.62-2.01-1.35-2.83-2.31-.81-.97-1.3-2.2-.8-3.48zm90.59 19.46c-.3-1.41-.85-3.38-1.56-4.64-.31-.67-.74-1.23-1.08-1.81-.37-.56-.81-1.05-1.2-1.57-.43-.49-.91-.94-1.37-1.43-.53-.42-1.06-.88-1.68-1.29-1.65-1.17-3.91-1.72-5.83-1.95-.25-.03-.54-.06-.84-.09-.31 0-.63.01-.95.01-.65-.01-1.3.04-1.79.09-.97.06-1.71.09-2.65.27-2.93.56-6.77 1.9-12.21 4.16-2.25.9-4.91 2.23-7.11 3.03-1.81.63-3.71.57-4.94-.29-.71-.46-1.38-.92-1.87-.93-.21 0-.35.08-.44.22-.11.17-.12.44 0 .82.07.2.26.59.71 1.07.44.47 1.22 1.03 2.22 1.21 1.74.28 3.22-.36 4.64-.82 1.61-.56 3.8-1.53 5.24-2.23 1.46-.72 2.29-.94 3.78-1.56.46-.2.92-.37 1.38-.55 1.07-.42 2.14-.79 3.23-1.15 2.97-.96 5.95-1.81 9.04-1.98 1.76-.07 3.37.15 5.01.58 2.75.89 4.64 2.67 5.97 4.42 1.32 1.78 2.15 3.62 2.65 5.49.49 1.87.61 3.86.03 5.87-.15.5-.4.97-.6 1.48-.32.44-.59.94-.99 1.36-.83.86-1.8 1.52-3.18 2.13-1.87.87-3.53 1.63-5.4 2.37-1.87.73-3.96 1.5-6.75 2.05-1.48.29-3.81.59-6.06.46-2.25-.1-4.37-.64-5.48-.98-.94-.33-1.65-.32-1.92-.11-.36.26.01.84 1.53 1.37 3.57 1.11 7.42 1.44 11.11.83 2.79-.39 5.83-1.36 8.61-2.46a90.78 90.78 0 0 0 3.93-1.69c.6-.29 1.18-.56 1.73-.82.55-.29 1.09-.65 1.57-.94a9.46 9.46 0 0 0 3.31-4.53c.53-1.78.56-3.62.21-5.47zm-38.92 10.92c-.04.22.04.7.49 1.07.38.33.92.58 1.21 1.02.33.49.72 1.28 1.06 1.75.33.5.37.83.63 1.36l.24.49c.16.39.33.78.49 1.17.43 1.07.9 2.11 1.27 3.22.2.64.31 1.25.5 1.88.68 2.18.99 3.66 1.23 5.12.21 1.45.39 2.92.15 5.02-.21 1.44-.32 2.61-1.31 4.37-.29.45-.75 1.14-1.34 1.68-.28.29-.58.54-.87.73-.27.22-.52.37-.71.46-.25.14-.36.39-.36.64a.75.75 0 0 0-.09.3c-.03.18 0 .38.29.56.27.19 1.06.3 1.72-.09.59-.33 1.05-.84 1.65-1.1.66-.29 1.66-.66 2.27-1 .63-.34 1.03-.36 1.68-.64l.61-.24c.47-.17.94-.34 1.42-.51 1.29-.43 2.56-.92 3.85-1.07.71-.08 1.42.04 1.72.26.14.12.19.12.29.41.08.26.22.49.26.75.14.49.17.97.19 1.42-.04.9-.19 1.71-.52 2.46-.63 1.5-1.67 2.88-3.74 4.3-1.44.98-2.64 1.67-4.99 2.48-1.23.49-3.98 1.13-5 1.29-.45.08-.71.23-.85.41-.19.11-.38.47-.54 1.11-.18.71-.41 3.03-.55 6.04-.07 2.61-.22 5.26-.76 7.92-.64 2.96-2.02 7.2-3.26 9.87-.57 1.39-1.21 2.35-1.75 3.35-.57.99-1.29 1.88-2.1 3.14-.51.77-1.15 1.43-1.72 2.15-.34.4-.67.82-1.03 1.21l-1.14 1.1c-.78.72-1.49 1.51-2.37 2.12-1.9 1.54-3.94 2.85-6.08 3.98.06-.14.12-.29.18-.43.14-.36.22-.73.32-1.08.09-.36.21-.7.28-1.05l.15-1.06c.21-1.4.13-2.84-.1-4.37-.31-1.5-.7-3.33-2.25-4.93-1.05-1.13-2.42-1.66-3.85-1.84-1.45-.18-3.04-.03-4.93.55-1.02.28-2.52.95-3.86 1.78-1.35.82-2.49 1.85-3.04 2.44-.51.55-.58 1.04-.42 1.3.19.32.74.31 1.37-.38 1.57-1.65 3.61-2.8 5.73-3.6 1.6-.58 3.56-.93 5.26-.61 1.74.26 2.92 1.46 3.56 2.49.52.96.8 1.97.96 3 .06.52.13 1.04.19 1.57.01.53.03 1.06.08 1.63-.03.86-.26 2.07-.52 2.91-.09.44-.21.85-.38 1.22-.16.38-.31.75-.46 1.12-.42.68-.74 1.43-1.33 2.12-.18.24-.37.49-.56.74-.2.24-.44.46-.66.69-.23.22-.45.46-.69.66-.26.18-.51.35-.76.51-.48.37-1.35.8-1.88 1.08-.54.22-1.01.22-1.54.41-.42.12-.91.14-1.43.24-.53.1-1.11-.02-1.74-.02-.32-.01-.64-.15-.98-.22-.33-.11-.7-.15-1.04-.33-.67-.38-1.47-.66-2.14-1.3-.93-.64-1.78-1.65-2.63-2.51-.21-.33-.38-.65-.52-.96-.48-1.11-.3-2.3-.2-3.43.09-.82-.19-1.48-.64-1.62-.22-.06-.47-.01-.75.21-.23.2-.73 1.06-.62 2.29.11 1.06.58 2.04.98 2.99.16.38.37.82.66 1.27l.01.01.03.04.82.88c-5.65-.28-10.32-1.38-14.4-2.56-4.15-1.23-7.71-2.66-11.15-4.25-3.43-1.61-6.74-3.4-10.25-5.69-3.5-2.29-7.22-5.08-11.08-9.02-1.48-1.56-2.79-3.09-3.98-4.71.54.44 1.2.79 1.87 1.08.85.37 1.84.66 2.98.76 1.21.13 3.16-.06 4.8-.81 1.67-.7 3.04-1.75 3.73-2.34.62-.55.79-1.06.67-1.35-.15-.35-.72-.37-1.51.34-1.96 1.66-4.37 2.81-6.84 2.8-.92 0-1.91-.17-2.85-.53-.47-.18-.95-.4-1.37-.66-.39-.24-.76-.57-1.11-.91-1.36-1.48-2.24-3.31-2.71-4.7-.83-2.47-.83-4.73-.7-7.26.04-.49.18-1.07.29-1.65.18-.57.37-1.13.5-1.61.71-1.9 1.53-3.3 2.84-4.84.88-1.02 2.14-1.94 3.4-2.28.63-.18 1.67-.41 2.34-.32.65.01 1.12.23 1.74.35.96.26 2.08.7 3.29 1.55 1.19.86 2.48 2.08 3.26 3.99.7 1.58 1.26 3.61 1.47 5.34.18 1.42-.12 2.81-.28 4.17-.13.98.15 1.7.61 1.83.22.06.48-.01.76-.28.24-.24.72-1.17.69-2.48-.03-1.12-.34-2.22-.48-3.32-.14-1.24-.49-3.06-.98-4.19-.5-1.14-.6-1.79-1.26-2.91-.2-.36-.44-.66-.68-.98-.55-.73-1.19-1.37-1.88-1.96-1.92-1.57-4.37-2.58-6.99-2.44-1.49.05-2.86.55-4.1 1.34-2.08 1.49-3.24 3.25-4.1 4.82-.83 1.61-1.41 3.13-1.69 4.69-.34 1.55-.42 3.14-.27 4.88.07.8.21 1.65.41 2.53-.27-.69-.52-1.41-.7-2.18-.34-1.02-.48-2.15-.72-3.31-.13-1.18-.31-2.43-.33-3.76-.13-2.83.09-7.28 1.03-11.45.43-2.09 1.06-4.09 1.66-5.82.66-1.7 1.31-3.14 1.87-4.05 1.06-1.88 1.79-2.85 1.63-3.2-.08-.31-1.41.2-2.77 2.53-.45.77-.84 1.55-1.2 2.35-1.07 2.38-1.79 4.88-2.4 7.39-.78 3.36-1.22 6.8-1.26 10.26-.01 2.6.14 5.41.79 8.2.63 2.8 1.74 5.55 3.17 7.98 2.85 4.91 6.66 8.7 9.64 11.29 4.74 4.05 9.2 7.19 14.51 9.9-.96.8-2.03 1.46-3.19 1.97-1.1.49-2.46.93-3.76 1.45-.34.14-.62.25-.98.43-.43.2-.82.6-1.02 1.02-.41.89-.2 1.65-.04 2.19.71 1.86 1.82 3.11 3.43 3.92.61.3 1.46.76 2.12.95 1.35.35 2.41.53 3.79.52.92 0 1.95-.18 2.85-.29.48-.06 1.16-.25 1.64-.45.47-.15.84-.25 1.25-.53 1.26-.86 2.47-2.51 3.63-5.06.22-.48.42-1.02.6-1.58 4.89 1.69 8.79 2.83 13.99 3.65 2.3.36 4.81.56 7.27.6.17.13.33.26.48.4.34.26.61.61 1.13.86l.93.48c.69.44 1.51.58 2.29.84 2.22.48 4.53.03 6.52-.99.29-.14.57-.28.85-.42.27-.16.51-.34.77-.52l.76-.53c.24-.19.46-.42.68-.64.82-.74 1.37-1.58 1.94-2.32.15-.28.31-.54.47-.8.1-.05.19-.09.29-.14.68-.34 1.44-.61 2.13-1.08 1.4-.91 3.04-1.73 4.55-3.05 3.17-2.41 6.57-5.79 9.43-10.6 2.44-3.93 4.37-9.21 5.32-13.75.81-3.69 1.53-7.36 1.65-11.13.03-1.54-.1-2.73-.31-3.49.11 0 .22.01.34-.02 1.6-.27 3.2-.62 4.76-1.11 2.37-.67 5.26-2.14 6.73-3.43 1.29-1.07 2.46-2.09 3.09-3.71.23-.61.61-1.47.7-2.13.17-1.35.13-2.42-.29-3.72-.09-.22-.15-.42-.27-.66-.14-.26-.34-.49-.57-.69-.49-.37-1.03-.46-1.49-.54-.49-.1-1.23.02-1.67.08-.44.05-.78.04-1.2.15-1.29.35-2.92 1.09-5.35 2.02-.77.29-1.65.67-2.46 1.03.15-.19.3-.37.44-.57 1.33-1.82 1.87-4.62 1.88-6.22.04-1.41.16-2.63-.2-3.97-.12-.51-.2-1.25-.32-1.76-.28-1.08-.48-1.85-.75-2.88-.19-.69-.47-1.45-.6-2.15-.07-.36-.28-.91-.39-1.25-.1-.34-.1-.63-.23-.96-.41-1.02-1.1-2.36-2.03-4.37-.38-.83-.93-1.8-1.46-2.57-.16-.23-.28-.48-.4-.73-.21-.45-.42-.91-.76-1.28-.64-.63-1.53-.18-1.67.61zm-58.4 83.67c-.18.71-.46 1.01-.75 1.67l-.3.59c-.26.44-.52.87-.83 1.26-.82 1.08-1.77 2.04-3.01 2.39-.78.21-1.52.29-2.29.4-2.7.31-4.51-.19-6.05-.97-.77-.4-1.49-.91-2.14-1.6-.32-.35-.63-.74-.86-1.19-.23-.44-.42-.98-.36-1.42.04-.31.16-.48.38-.62.26-.15.75-.35 1.15-.52.88-.35 1.85-.73 3.1-1.23.68-.28 1.72-.79 2.63-1.42.69-.46 1.3-.99 1.73-1.39.16.08.32.16.49.24 2.08.98 4.96 2.3 7.3 3.21-.08.21-.14.42-.19.6z"/><path d="M58.2 43.8c2.02 1.23 4.02 2.08 6.05 2.87 4.08 1.56 8.41 2.8 14.93 4.58 1.89.5 3.63 1.02 5.54 1.42 1.67.35 3.33.61 4.99.72 1.65.11 3.31.09 4.84-.3 1.1-.3 2.09-.85 2.65-1.74.24-.38.42-.82.51-1.29.17-.76.15-1.39.13-2.03.02-.65-.1-1.27-.31-2.07-.11-.39-.32-.8-.48-1.25-.21-.43-.47-.87-.73-1.3-.6-.81-1.3-1.58-2-2.04-1.23-.89-2.71-1.22-4.12-1.53-1.63-.37-2.9-.79-3.29-1.06-.3-.2-.44-.39-.5-.56l-.11.09c-.21.19-.41.17-.58.38-.17.22-.55.39-.79.53-.21.13-.3.5-.52.71-.26.24-.67.06-.77-.12-.12-.19-.16-.42-.17-.65-.01-.13-.02-.26-.01-.37.02-.34 0-.58.07-.62.16-.09.53.07.76-.09.29-.19.6-.4.92-.6.72-.46.95-1.02 1.1-1.32.04-.1.19-.14.23-.23.06-.1.07-.26.11-.34.12-.19-.02-.36-.13-.5-.2-.19-.51-.38-.87-.47-.18-.02-.39-.19-.57-.12-.43.1-.77-.03-1.19.16-.45.19-1.18.76-1.64 1.37-.3.38-.59.83-.73 1.23-.03.11-.44.13-.79.05-.29-.07-.53-.2-.47-.45.07-.28.3-.77.55-1.19-.31.15-.97.08-2-.26-1.19-.42-3.49-1.03-5.92-1.43-2.43-.42-4.98-.63-6.62-.65-3.07-.06-5.45.28-7.42.98-1.94.7-3.54 1.88-4.28 3.7-.51 1.28-.01 2.51.8 3.46.82.98 1.83 1.71 2.83 2.33z" style="fill:#b94d3b"/><path class="st0" d="M90.71 69.67c-1.1 0-1.99.89-1.99 1.99s.89 1.99 1.99 1.99 1.99-.89 1.99-1.99-.89-1.99-1.99-1.99zm-42.08-9.34c-1.1 0-1.99.89-1.99 1.99s.89 1.99 1.99 1.99a1.989 1.989 0 1 0 0-3.98z"/><path d="M69.8 75.88c-.19-.22-.51-.56-.61-.84-.19-.46-.39-.94-.53-1.4-.05.06-.1.13-.14.18-.65.9-1.58 1.2-2.59 1.53-.44.13-1.03.24-1.69.19-.32.7-.73 2.27-.86 3.07-.3 1.64-.27 2.57-.28 3.74.01 1.66.25 2.88.76 3.58.13.16.25.25.36.28.06.01.12.02.19.02.12-.02.24-.04.37-.06.52-.12 1.11-.42 1.76-.93.37-.29.77-.55 1.12-.91.62-.64 1.1-1.37 1.6-2.13.19-.27.36-.55.53-.83.07-.12.15-.24.21-.38.2-.42.45-.57.57-1.04.08-.3.21-.58.33-.86.1-.24.24-.49.32-.73.16-.48.22-.98.32-1.48-.47-.09-.88-.24-1.18-.42-.25-.16-.36-.37-.56-.58z" style="fill:#fff"/><path class="st0" d="M75.98 72.93c-.46-.6-1.29-.12-1.62.52-.11.19-.16.52.03.68.16.13.51.31.43.55-.05.25-.41.51-.67.71-.27.22-.51.14-.84.23l-.32.04c-.25.02-.5 0-.74-.03-.62-.1-1.22-.34-1.63-.85-.23-.29-.33-.63-.48-.98-.21-.5-.31-.98-.36-1.39 1.02-.4 2.1-1.48 2.31-1.96.28-.65-1.56-1.06-2.62-1.32s-2.78-1.4-3.23-.29c-.36.88.72 2.51 1.77 3.29-.19.4-.5.75-.88 1.06-.51.39-1.18.75-2.07.87-.45.05-.81.06-1.25-.05-.43-.1-.92-.27-1.32-.69-.21-.21-.48-.6-.49-1.02-.03-.41.15-.83.31-1.03.27-.34-.52-1.46-1.09-.75-.33.48-.58 1.08-.58 1.73-.01.65.23 1.29.61 1.77.43.57 1.07.98 1.72 1.23-.39.92-.68 1.84-.89 2.78-.38 1.64-.54 3.79-.41 5.09.12 1.12.03 2.17.79 3.27.14.2.32.46.56.7.25.23.57.45.88.49.31.07.61.04.82-.01l.12-.03c.18-.03.36-.06.52-.12.21-.06.41-.14.61-.23.19-.09.38-.19.58-.3.53-.32 1.04-.77 1.52-1.11.27-.16.56-.55.78-.76.21-.21.42-.32.6-.55.54-.73 1.13-1.81 1.99-3.38.36-.65.7-1.48.93-2.19.17-.58.65-1.07.76-1.68.02-.09.01-.18 0-.26.31-.03.64-.09 1-.18.68-.19 1.63-.7 1.93-1.67.24-.72.29-1.59-.08-2.18zm-4.76 5.43c-.08.25-.22.49-.32.73-.12.28-.25.57-.33.86-.12.47-.37.62-.57 1.05-.06.13-.13.25-.21.38-.17.28-.34.57-.53.83-.49.75-.98 1.49-1.6 2.13-.35.36-.75.62-1.12.91-.65.52-1.24.81-1.76.93-.13.02-.25.04-.37.06-.07 0-.13 0-.19-.02-.11-.03-.24-.13-.36-.28-.51-.7-.75-1.91-.76-3.58.01-1.18-.02-2.11.28-3.74.13-.8.54-2.38.86-3.07.66.05 1.25-.06 1.69-.19 1-.32 1.94-.62 2.59-1.53.04-.06.09-.12.14-.18.14.46.35.94.53 1.4.1.27.42.62.61.84.19.21.31.43.56.59.3.19.71.33 1.18.42-.1.48-.17.99-.32 1.46z"/></svg>