<svg version="1.1" id="Layer_1" xmlns="http://www.w3.org/2000/svg" x="0" y="0" viewBox="0 0 934.65 261.79" style="enable-background:new 0 0 934.65 261.79" xml:space="preserve"><style>.st0{fill:#283484}.st1{fill:#fff}</style><path class="st0" d="M56.69 260.28a1.466 1.466 0 0 1-1.32-.79l-.1-.18c-.09-.09-.17-.2-.23-.32l-.1-.19c-.09-.09-.17-.2-.23-.31l-.1-.19c-.09-.09-.17-.19-.23-.31l-.1-.18c-.09-.09-.17-.2-.23-.32l-.1-.18c-.09-.09-.17-.2-.23-.32l-.1-.18c-.09-.09-.17-.2-.23-.32l-.1-.19c-.09-.09-.17-.19-.23-.31l-.1-.19c-.09-.09-.17-.19-.23-.31l-.1-.18c-.09-.09-.17-.2-.24-.32l-.1-.18c-.09-.09-.17-.2-.24-.32l-.1-.19c-.09-.09-.17-.2-.23-.31l-.1-.19c-.09-.09-.17-.2-.23-.31l-.1-.19c-.09-.09-.17-.19-.23-.31l-.1-.18c-.09-.09-.17-.2-.24-.32l-.1-.18c-.09-.09-.17-.2-.24-.32l-.1-.19c-.09-.09-.17-.2-.23-.31l-.1-.19c-.09-.09-.17-.19-.23-.31l-.1-.18c-.09-.09-.17-.2-.24-.32l-.1-.18c-.09-.09-.17-.2-.24-.32l-.1-.18c-.09-.09-.17-.2-.24-.32l-.1-.19c-.09-.09-.17-.19-.23-.31l-.09-.17c-.04-.04-.08-.09-.12-.13-1-1-2.18-2.05-3.8-3.39l-3.64-3.01c-.19-.16-.34-.37-.43-.59-.14-.14-.26-.31-.33-.5-.15-.14-.26-.31-.33-.5-.14-.14-.26-.31-.33-.5-.15-.14-.26-.31-.33-.5-.15-.14-.26-.31-.33-.5-.15-.14-.26-.31-.33-.5-.14-.14-.26-.31-.33-.5-.15-.14-.26-.31-.33-.5-.15-.14-.26-.31-.33-.5-.15-.14-.26-.31-.33-.5-.15-.14-.26-.31-.33-.5-.14-.14-.26-.31-.33-.5-.15-.14-.26-.31-.33-.5-.15-.14-.26-.31-.33-.5-.14-.14-.26-.31-.33-.5-.14-.14-.26-.31-.33-.5-.15-.14-.26-.31-.33-.5-.14-.14-.26-.31-.33-.5-.15-.14-.26-.31-.33-.5-.14-.14-.26-.31-.33-.5-.14-.14-.26-.31-.33-.5-.15-.14-.26-.31-.33-.5-.15-.14-.26-.31-.33-.5-.15-.14-.26-.31-.33-.5-.15-.14-.26-.31-.33-.5-.14-.14-.26-.31-.33-.5-.15-.14-.26-.31-.33-.5-.14-.14-.26-.31-.33-.5-.15-.14-.26-.31-.33-.5-.14-.14-.26-.31-.33-.5-.15-.14-.26-.31-.33-.5-.15-.14-.26-.31-.33-.5-.15-.14-.26-.31-.33-.5-.14-.14-.26-.31-.33-.5-.14-.14-.26-.31-.33-.5-.15-.14-.26-.31-.33-.5-.14-.14-.26-.31-.33-.5-.15-.14-.26-.31-.33-.5-.14-.14-.26-.31-.33-.5-.15-.14-.26-.31-.33-.5-.15-.14-.26-.31-.33-.5-.14-.14-.26-.31-.33-.5-.15-.14-.26-.31-.33-.5-.14-.14-.26-.31-.33-.5-.15-.14-.26-.31-.33-.5-.14-.14-.26-.31-.33-.5-.33-.33-.49-.79-.43-1.25.03-.27.14-.52.3-.73 0-.01-.01-.01-.01-.02-.15-.14-.26-.32-.33-.5-.15-.14-.26-.31-.33-.5-.15-.14-.26-.31-.33-.5-.15-.14-.26-.31-.33-.5-.15-.14-.26-.31-.33-.5-.15-.14-.26-.31-.33-.5-.15-.14-.26-.31-.33-.5-.15-.14-.26-.31-.33-.5l-.02-.02-3.17.84c-.13.03-.26.05-.38.05-.33 0-.65-.11-.92-.31-.21-.16-.38-.38-.47-.62-.14-.14-.26-.31-.33-.5-.14-.14-.26-.31-.33-.5-.14-.14-.26-.31-.33-.5-.14-.14-.26-.31-.33-.5-.14-.14-.26-.31-.33-.5-.14-.14-.26-.31-.33-.5-.14-.14-.26-.31-.33-.5-.14-.14-.26-.31-.33-.5-.14-.14-.26-.31-.33-.5-.14-.14-.26-.31-.33-.5-.14-.14-.26-.31-.33-.5-.14-.14-.26-.31-.33-.5-.14-.14-.26-.31-.33-.5-.14-.14-.26-.31-.33-.5-.14-.14-.26-.31-.33-.5-.14-.14-.26-.31-.33-.5-.14-.14-.26-.31-.33-.5-.14-.14-.26-.31-.33-.5-.14-.14-.26-.31-.33-.5-.14-.14-.26-.31-.33-.5-.14-.14-.26-.31-.33-.5-.14-.14-.26-.31-.33-.5-.14-.14-.26-.31-.33-.5-.14-.14-.26-.31-.33-.5-.14-.14-.26-.31-.33-.5-.14-.14-.26-.31-.33-.5-.14-.14-.26-.31-.33-.5-.14-.14-.26-.31-.33-.5-.14-.14-.26-.31-.33-.5-.14-.14-.26-.31-.33-.5-.14-.14-.26-.31-.33-.5-.14-.14-.26-.31-.33-.5-.14-.14-.26-.31-.33-.5-.14-.14-.26-.31-.33-.5-.14-.14-.26-.31-.33-.5-.14-.14-.26-.31-.33-.5-.14-.14-.26-.31-.33-.5-.14-.14-.26-.31-.33-.5-.14-.14-.26-.31-.33-.5-.14-.14-.26-.31-.33-.5-.14-.14-.26-.31-.33-.5-.14-.14-.26-.31-.33-.5-.14-.14-.26-.31-.33-.5-.14-.14-.26-.31-.33-.5-.14-.14-.26-.31-.33-.5-.14-.14-.26-.31-.33-.5-.28-.28-.44-.66-.44-1.06v-23.23c0-.8.63-1.46 1.43-1.5l2.87-.13c4.13-.19 5.9-.41 13.1-1.68v-3.25c0-4.22-.08-6.18-.54-9.47l-.4-2.87c-.11-.8.43-1.55 1.23-1.69l24.64-4.35c.09-.01.17-.02.26-.02.38 0 .74.14 1.02.4.16.15.29.33.37.53.15.14.26.31.33.5.15.14.26.31.33.5.14.14.26.31.33.5.15.14.26.31.33.5.15.14.26.31.33.5.15.14.26.31.33.5.14.14.26.31.33.5.14.14.26.31.33.5.15.14.26.31.33.5.15.14.26.31.33.5.15.14.26.31.33.5.14.14.26.31.33.5.14.14.26.31.33.5.15.14.26.31.33.5.15.14.26.31.33.5.15.14.26.31.33.5.14.14.26.31.33.5.15.14.26.31.33.5.14.14.26.31.33.5.15.14.26.31.33.5.14.14.26.31.33.5.15.14.26.31.33.5.15.14.26.31.33.5.15.14.26.31.33.5.15.14.26.31.33.5.14.14.26.31.33.5.15.14.26.31.33.5.14.14.26.31.33.5.11.11.2.24.27.37l1.67-.29v-2.58c0-5.53-.11-8.04-.43-9.95l-.49-2.93c-.14-.81.41-1.58 1.22-1.72l24.55-4.33c.09-.01.17-.02.26-.02.38 0 .76.15 1.04.42.15.15.27.32.35.52.15.14.26.31.33.5.15.14.26.31.33.5.15.14.26.31.33.5.15.14.26.31.33.5.14.14.26.31.33.5.15.14.26.31.33.5.15.14.26.31.33.5.15.14.26.31.33.5.14.14.26.31.33.5.15.14.26.32.33.5.15.14.26.31.33.5.15.14.26.31.33.5.15.14.26.31.33.5.15.14.26.31.33.5.15.14.26.31.33.5.15.14.26.31.33.5.15.14.26.31.33.5.15.14.26.31.33.5.15.14.26.31.33.5.15.14.26.31.33.5.15.14.26.31.33.5.15.14.26.31.33.5.15.14.26.31.33.5.15.14.26.32.33.5.15.14.26.31.33.5.15.14.26.31.33.5.15.14.26.31.33.5.13.13.23.27.3.43.59-.17 1.2-.36 1.84-.56l3.92-1.25a1.496 1.496 0 0 1 1.84.86c.12.12.21.25.28.39l11.83-16.36a1.507 1.507 0 0 1 1.78-.51l2.18.87c12.84 5.16 19.34 8.58 27.82 14.64l2.38 1.7c.24.17.41.4.52.66.15.14.26.32.33.5.15.14.26.32.33.5.15.14.26.31.33.5.15.15.26.32.33.5.15.14.26.32.33.5.15.14.26.32.33.5.15.14.26.31.33.5.15.15.26.32.33.5.15.14.26.32.33.5.15.14.26.32.33.5.15.14.26.32.33.5.15.14.26.31.33.5.15.15.26.32.33.5.15.14.26.32.33.5.15.14.26.31.33.5.15.15.26.32.33.5.15.14.26.31.33.5.15.14.26.32.33.5.15.14.26.32.33.5.15.14.26.32.33.5.15.14.26.31.33.5.15.15.26.32.33.5.15.14.26.32.33.5l.05.05c1.33-1.91 2.62-3.92 3.83-6 3.84-6.43 6.42-11.98 9.22-19.78l1.61-4.48c.17-.49.58-.85 1.09-.96.11-.02.22-.04.32-.04.4 0 .78.16 1.07.44l3.35 3.38c4.32 4.37 6.07 5.62 13.33 9.58l2.4 1.31c.31.17.54.44.67.75.15.14.26.31.33.5.15.14.26.31.33.5.15.14.26.31.33.5.14.14.26.31.33.5.15.14.26.31.33.5.15.14.26.31.33.5.15.14.26.31.33.5.14.14.26.31.33.5.15.14.26.31.33.5.15.14.26.32.33.5.15.14.26.31.33.5.15.14.26.31.33.5.14.14.26.31.33.5.09.08.16.18.22.28v-20.29c0-5.91-.11-8.28-.56-12.08l-.33-2.81c-.09-.79.45-1.51 1.23-1.65l25.6-4.51c.09-.02.17-.02.26-.02.37 0 .73.14 1.01.39.17.15.29.34.38.54.15.14.26.31.33.5.15.14.26.31.33.5.15.14.26.31.33.5.14.14.26.31.33.5.15.14.26.31.33.5.15.14.26.31.33.5.15.14.26.31.33.5.14.14.26.31.33.5.15.14.26.31.33.5.14.14.26.31.33.5.14.14.26.31.33.5.15.14.26.31.33.5.14.14.26.31.33.5.15.14.26.31.33.5.14.14.26.31.33.5.15.14.26.31.33.5.15.14.26.31.33.5.14.14.26.31.33.5.15.14.26.31.33.5.15.14.26.31.33.5.15.14.26.31.33.5.14.14.26.31.33.5.15.14.26.31.33.5.15.14.26.31.33.5.15.14.26.31.33.5.15.14.26.31.33.5.15.14.26.31.33.5.15.14.26.31.33.5.14.14.26.31.33.5.15.14.26.31.33.5.15.14.26.31.33.5.15.14.26.31.33.5.15.14.26.31.33.5.15.14.26.31.33.5.15.14.26.31.33.5.15.14.26.31.33.5.15.14.26.31.33.5.15.14.26.31.33.5.15.14.26.31.33.5.15.14.26.31.33.5.14.14.26.31.33.5.14.14.26.31.33.5.15.14.26.31.33.5.15.14.26.31.33.5.15.14.26.31.33.5.14.14.26.31.33.5.32.31.48.75.44 1.2l-.34 3.89c-.38 4.4-.47 6.09-.47 12.6v8.15c.88-1.93 1.51-4.01 1.93-6.32.49-3.08 1.01-11.09 1.01-19.83v-10.01c0-6.76-.08-8.63-.55-12.55l-.34-2.82c-.1-.79.44-1.52 1.23-1.66l25.55-4.5c.09-.02.17-.02.26-.02.37 0 .73.14 1 .39.17.15.3.34.38.55.14.14.26.31.33.5.14.14.26.31.33.5.15.14.26.31.33.5.14.14.26.31.33.5.14.14.26.31.33.5.14.14.26.31.33.5.15.14.26.31.33.5.15.14.26.31.33.5.14.14.26.31.33.5.14.14.26.31.33.5.14.14.26.31.33.5.15.14.26.31.33.5.14.14.26.31.33.5.14.14.26.31.33.5.14.14.26.31.33.5.15.14.26.31.33.5.15.14.26.31.33.5.14.14.26.31.33.5.15.14.26.31.33.5.14.14.26.31.33.5.14.14.26.31.33.5.14.14.26.31.33.5.14.14.26.31.33.5.15.14.26.31.33.5.14.14.26.31.33.5.15.14.26.31.33.5.14.14.26.31.33.5.15.14.26.31.33.5.04.04.08.08.11.12v-3.29c0-.79.62-1.45 1.41-1.5l2.81-.18c4.94-.31 8.48-.75 14.55-1.83l26.8-4.73-.02-.94c0-3.69-.16-6.57-.56-10.39l-.29-2.78c-.08-.78.46-1.5 1.23-1.64l24.89-4.39c.09-.02.17-.02.26-.02.37 0 .73.14 1.01.39.17.15.29.34.38.54.15.14.26.31.33.5.15.14.26.31.33.5.15.14.26.31.33.5.15.14.26.31.33.5.15.14.26.31.33.5.15.14.26.31.33.5.15.14.26.31.33.5.15.14.26.31.33.5.15.14.26.31.33.5.15.14.26.31.33.5.14.14.26.31.33.5.15.14.26.31.33.5.15.14.26.31.33.5.15.14.26.31.33.5.15.14.26.31.33.5.14.14.26.31.33.5.15.14.26.31.33.5.15.14.26.31.33.5.15.14.26.31.33.5.14.14.26.31.33.5.15.14.26.31.33.5.15.14.26.31.33.5.14.14.26.31.33.5.15.14.26.31.33.5.14.14.26.31.33.5.12.12.22.26.29.41 1.71-.41 3.26-.85 5.03-1.42l3.93-1.27a1.496 1.496 0 0 1 1.34.22c.23.17.4.39.51.65.14.14.26.31.33.5.14.14.26.31.33.5.14.14.26.31.33.5.14.14.26.31.33.5.14.14.26.31.33.5.14.14.26.31.33.5.14.14.26.31.33.5.14.14.26.31.33.5.14.14.26.31.33.5.14.14.26.31.33.5.14.14.26.31.33.5.1.1.19.22.26.35V88.36c0-.81.64-1.47 1.45-1.5l2.9-.09c4.36-.14 7.2-.45 16.47-2.08l44.87-7.91c5.4-.95 7.96-1.51 10.57-2.14l3.94-.96c.12-.03.24-.04.36-.04.35 0 .69.12.96.35.19.16.34.36.43.59.14.14.26.31.33.5.14.14.26.31.33.5.14.14.26.31.33.5.14.14.26.31.33.5.15.14.26.31.33.5.14.14.26.31.33.5.14.14.26.31.33.5.14.14.26.31.33.5.14.14.26.31.33.5.15.14.26.31.33.5.14.14.26.31.33.5.14.14.26.31.33.5.14.14.26.31.33.5.14.14.26.31.33.5.14.14.26.31.33.5.14.14.26.31.33.5.14.14.26.31.33.5.14.14.26.31.33.5.15.14.26.31.33.5.14.14.26.31.33.5.15.14.26.31.33.5.15.14.26.31.33.5.14.14.26.31.33.5.15.14.26.31.33.5.14.14.26.31.33.5.14.14.26.31.33.5.14.14.26.31.33.5.14.14.26.31.33.5.14.14.26.31.33.5.14.14.26.31.33.5.14.14.26.31.33.5.14.14.26.31.33.5.15.14.26.31.33.5.14.14.26.31.33.5.14.14.26.31.33.5.15.14.26.31.33.5.14.14.26.31.33.5.15.14.26.31.33.5.14.14.26.31.33.5.14.14.26.31.33.5.14.14.26.31.33.5.09.09.16.18.22.28l.09-12.96v-1.6c0-4.1-.16-7.03-.54-9.77l-.4-2.88c-.11-.8.44-1.55 1.23-1.68l26.32-4.51a1.51 1.51 0 0 1 1.29.4c.15.15.27.32.35.52.15.14.26.31.33.5.14.14.26.31.33.5.15.14.26.31.33.5.14.14.26.31.33.5.15.14.26.32.33.5.14.14.26.31.33.5.15.14.26.32.33.5.14.14.26.31.33.5.15.14.26.31.33.5.14.14.26.31.33.5.15.14.26.31.33.5.14.14.26.31.33.5.14.14.26.31.33.5.15.14.26.31.33.5.15.14.26.31.33.5.14.14.26.31.33.5.15.14.26.32.33.5.14.14.26.31.33.5.15.14.26.32.33.5.14.14.26.31.33.5.15.14.26.31.33.5.15.14.26.31.33.5.14.14.26.31.33.5.15.14.26.31.33.5.14.14.26.31.33.5.15.14.26.32.33.5.14.14.26.31.33.5.15.14.26.32.33.5.14.14.26.31.33.5.15.14.26.32.33.5.14.14.26.31.33.5.15.14.26.31.33.5.14.14.26.31.33.5.15.14.26.31.33.5.14.14.26.31.33.5.15.14.26.31.33.5.14.14.26.31.33.5.15.14.26.32.33.5.14.14.26.31.33.5.15.14.26.32.33.5.14.14.26.31.33.5.15.14.26.32.33.5.14.14.26.31.33.5.15.14.26.31.33.5.15.14.26.31.33.5.14.14.26.31.33.5.33.33.49.79.43 1.26l-.53 4.03c-.45 3.42-.55 5.74-.65 11.44l-.12 10.15c7.8-6.72 14.06-15.05 18.63-24.81l2.04-4.34c.22-.47.66-.79 1.18-.85.06-.01.12-.01.18-.01.45 0 .88.2 1.17.56l3.01 3.73c3.61 4.47 6.09 6.83 9.83 9.2-.11-.12-.19-.26-.26-.42-.14-.14-.25-.31-.33-.5-.14-.14-.26-.31-.33-.5-.22-.22-.37-.51-.42-.83-.08-.51.1-1.03.5-1.37l3.63-3.16c11.36-9.89 18.8-19.6 24.88-32.46 2.37-5.09 3.41-8.07 3.82-11.01l.36-2.58a1.5 1.5 0 0 1 1.49-1.29l25.99.02a1.493 1.493 0 0 1 1.39.94 1.51 1.51 0 0 1 .33.5 1.51 1.51 0 0 1 .33.5c.08.08.16.18.22.28.04.07.08.14.11.21.08.08.16.18.22.28.04.07.08.14.11.21a1.51 1.51 0 0 1 .33.5c.08.08.16.18.22.28.04.07.08.14.11.21a1.51 1.51 0 0 1 .33.5 1.51 1.51 0 0 1 .33.5 1.51 1.51 0 0 1 .33.5c.08.08.16.18.22.28.04.07.08.14.11.21a1.51 1.51 0 0 1 .33.5 1.51 1.51 0 0 1 .33.5 1.51 1.51 0 0 1 .33.5c.08.08.16.18.22.28.02.04.05.08.07.12l8.14-1.53c3.52-.62 4.08-.88 5.88-1.86l1.75-.95c.22-.12.47-.18.72-.18.33 0 .66.11.93.33l11.65 9.28c.21.17.36.38.45.61.15.15.26.32.33.5.15.15.26.31.33.5.15.15.26.32.33.5.15.14.26.31.33.5.15.15.26.32.33.5.15.14.26.31.33.5.15.15.26.32.33.5.15.14.26.31.33.5.15.15.26.32.33.5.15.14.26.31.33.5.15.15.26.32.33.5.15.14.26.31.33.5.15.15.26.32.33.5.15.14.26.31.33.5.15.15.26.32.33.5.15.14.26.31.33.5.15.15.26.32.33.5.12.12.21.25.28.39l3.36-5.74c-.01-.02-.04-.1-.06-.12-.12-.12-.22-.26-.3-.42-.01-.03-.02-.05-.03-.08-.12-.12-.22-.26-.3-.42-.01-.02-.02-.05-.03-.08-.12-.12-.22-.26-.3-.42-.01-.02-.02-.05-.03-.08-.12-.12-.22-.26-.3-.42-.01-.02-.02-.05-.03-.08-.12-.12-.22-.26-.3-.42-.01-.02-.02-.05-.03-.07-.12-.12-.22-.26-.3-.42-.01-.03-.02-.05-.03-.08-.12-.12-.22-.26-.3-.42-.01-.02-.02-.05-.03-.08-.12-.12-.22-.26-.3-.42-.01-.03-.02-.05-.03-.08-.12-.12-.22-.26-.3-.42-.01-.02-.02-.05-.03-.07a1.489 1.489 0 0 1-.24-1.81l11.92-20.7c.27-.47.77-.75 1.3-.75.09 0 .18.01.27.02l2.08.38c11.71 2.14 20.36 4.5 28.91 7.91l3.12 1.24c.38.15.68.45.83.83.14.14.25.31.33.5.14.14.26.31.33.5.14.14.25.31.33.5.14.14.26.31.33.5.14.14.25.31.33.5.14.14.26.31.33.5.14.14.25.31.33.5.14.14.26.31.33.5.14.14.25.31.33.5.14.14.26.31.33.5.14.14.25.31.33.5.14.14.26.31.33.5.14.14.25.31.33.5.14.14.26.31.33.5.14.14.25.31.33.5.14.14.26.31.33.5.14.14.26.31.33.5.14.14.25.31.33.5.14.14.26.31.33.5.14.14.25.31.33.5.14.14.26.31.33.5.14.14.25.31.33.5.14.14.26.31.33.5.14.14.25.31.33.5.14.14.26.31.33.5.14.14.25.31.33.5.14.14.26.31.33.5.14.14.25.31.33.5.14.14.26.31.33.5.14.14.25.31.33.5.14.14.26.31.33.5.14.14.25.31.33.5l.02.02c2.28-4.34 4.16-8.93 6.24-15.2l1.41-4.24c.16-.47.54-.84 1.02-.97a1.559 1.559 0 0 1 1.38.31l3.39 2.91c5.47 4.7 8 6.51 13.11 8.7l2.69 1.15c.38.16.65.46.8.81.14.14.26.31.33.5.14.14.26.31.33.5.14.14.26.31.33.5.14.14.26.31.33.5.14.14.26.31.33.5.14.14.26.31.33.5.14.14.26.31.33.5.15.14.26.31.33.5.14.14.25.31.33.5.14.14.26.31.33.5.14.14.25.31.33.5.14.14.26.31.33.5.14.14.26.31.33.5.14.14.26.31.33.5.14.14.26.31.33.5.14.14.26.31.33.5l.07.07c-.06-.17-.1-.35-.1-.53V37.03c0-.8.63-1.46 1.43-1.5l2.87-.13c4.2-.19 6.35-.48 11.54-1.4l39.98-7.05c4.5-.79 5.85-1.12 8.49-1.77l3.88-.97a1.514 1.514 0 0 1 1.31.3c.2.16.35.37.44.6.14.14.26.31.33.5.14.14.26.31.33.5.14.14.26.31.33.5.14.14.26.31.33.5.15.14.26.31.33.5.14.14.26.31.33.5.15.14.26.31.33.5.14.14.26.31.33.5.15.14.26.31.33.5.14.14.26.31.33.5.15.14.26.31.33.5.14.14.26.31.33.5.15.14.26.31.33.5.14.14.26.31.33.5.15.14.26.31.33.5.14.14.26.31.33.5.15.14.26.31.33.5.14.14.26.31.33.5.15.14.26.31.33.5.14.14.26.31.33.5.15.14.26.31.33.5.14.14.26.31.33.5.15.14.26.31.33.5.14.14.26.31.33.5.15.14.26.31.33.5.14.14.26.31.33.5.14.14.26.31.33.5.15.14.26.31.33.5.14.14.26.31.33.5.15.14.26.31.33.5.14.14.26.31.33.5.15.14.26.31.33.5.14.14.26.31.33.5.15.14.26.31.33.5.14.14.26.31.33.5.15.14.26.31.33.5.14.14.26.31.33.5.14.14.26.31.33.5.14.14.26.31.33.5.15.14.26.31.33.5.14.14.26.31.33.5.15.14.26.31.33.5.14.14.26.31.33.5.15.14.26.31.33.5.14.14.26.31.33.5.15.14.26.31.33.5.3.29.46.7.44 1.12l-.16 4c-.09 2.31-.19 5.83-.19 8.81v3.55c8.09-2.09 16.33-5.33 24.02-9.42a74.604 74.604 0 0 0-10.18-4.46l-3.77-1.34c-.4-.14-.73-.45-.89-.85-.14-.14-.26-.31-.33-.5-.14-.14-.25-.31-.33-.5-.14-.14-.26-.31-.33-.5-.14-.14-.25-.31-.33-.5-.14-.14-.26-.31-.33-.5-.14-.14-.25-.31-.33-.5-.14-.14-.26-.31-.33-.5-.14-.14-.25-.31-.33-.5-.14-.14-.26-.31-.33-.5-.14-.14-.26-.31-.33-.5-.14-.14-.25-.31-.33-.5-.14-.14-.26-.31-.33-.5-.14-.14-.25-.31-.33-.5-.14-.14-.26-.31-.33-.5-.14-.14-.25-.31-.33-.5-.14-.14-.26-.31-.33-.5-.14-.14-.25-.31-.33-.5-.14-.14-.26-.31-.33-.5-.14-.14-.25-.31-.33-.5-.14-.14-.26-.31-.33-.5-.14-.14-.25-.31-.33-.5-.14-.14-.26-.31-.33-.5-.14-.14-.25-.31-.33-.5-.14-.14-.26-.31-.33-.5-.14-.14-.25-.31-.33-.5-.14-.14-.26-.31-.33-.5-.14-.14-.25-.31-.33-.5-.14-.14-.26-.31-.33-.5-.14-.14-.25-.31-.33-.5-.14-.14-.26-.31-.33-.5-.14-.14-.25-.31-.33-.5-.14-.14-.26-.31-.33-.5-.14-.14-.26-.31-.33-.5-.14-.14-.25-.31-.33-.5-.14-.14-.26-.31-.33-.5-.14-.14-.25-.31-.33-.5-.14-.14-.26-.31-.33-.5-.14-.14-.25-.31-.33-.5-.14-.14-.26-.31-.33-.5-.14-.14-.25-.31-.33-.5-.14-.14-.26-.31-.33-.5-.14-.14-.25-.31-.33-.5-.14-.14-.26-.31-.33-.5-.14-.14-.25-.31-.33-.5-.14-.14-.26-.31-.33-.5-.14-.14-.25-.31-.33-.5a1.482 1.482 0 0 1-.16-1.94l14.96-20.7a1.507 1.507 0 0 1 1.78-.51l2.18.88c12.84 5.16 19.34 8.58 27.82 14.64l2.38 1.7c.24.17.41.4.52.65.15.15.26.32.33.5.15.14.26.31.33.5.15.15.26.32.33.5.15.14.26.31.33.5.15.15.26.32.33.5.15.14.26.31.33.5.15.15.26.32.33.5.15.14.26.31.33.5.15.14.26.31.33.5.15.15.26.32.33.5.15.14.26.31.33.5.15.15.26.32.33.5.15.14.26.31.33.5.15.15.26.32.33.5.15.14.26.31.33.5.15.15.26.32.33.5.15.14.26.31.33.5.15.15.26.32.33.5.15.14.26.31.33.5.15.15.26.32.33.5.15.14.26.31.33.5.15.15.26.32.33.5.15.14.26.31.33.5.02.02.04.04.05.06 1.33-1.91 2.62-3.92 3.83-6 3.83-6.43 6.42-11.97 9.22-19.78l1.61-4.48c.17-.48.58-.85 1.09-.96.11-.02.22-.04.33-.04.4 0 .78.16 1.07.44L901 5.33c4.32 4.37 6.07 5.62 13.33 9.58l2.4 1.31c.31.17.54.44.67.75.15.14.26.32.33.5.14.14.26.31.33.5.15.14.26.32.33.5.14.14.26.31.33.5.15.14.26.31.33.5.14.14.26.31.33.5.15.14.26.31.33.5.14.14.26.31.33.5.15.14.26.31.33.5.15.14.26.32.33.5.14.14.26.31.33.5.15.14.26.32.33.5.14.14.26.31.33.5.15.14.26.31.33.5.14.14.26.31.33.5.15.14.26.31.33.5.14.14.26.31.33.5.15.14.26.31.33.5.14.14.26.31.33.5.15.14.26.31.33.5.14.14.26.31.33.5.15.14.26.32.33.5.14.14.26.31.33.5.15.14.26.32.33.5.14.14.26.31.33.5.15.14.26.32.33.5.14.14.26.31.33.5.15.14.26.31.33.5.14.14.26.31.33.5.15.14.26.31.33.5.14.14.26.31.33.5.15.14.26.31.33.5.15.14.26.32.33.5.14.14.26.31.33.5.15.14.26.32.33.5.14.14.26.31.33.5.15.14.26.31.33.5.14.14.26.31.33.5.15.14.26.31.33.5.14.14.26.31.33.5.15.14.26.31.33.5.14.14.26.31.33.5.15.14.26.31.33.5.14.14.26.31.33.5.15.14.26.32.33.5.14.14.26.31.33.5.43.43.57 1.08.32 1.66l-1.09 2.51c-9.23 21.3-18.83 34.72-33.16 46.31-11.05 9.01-20.58 14.31-39.18 21.83l-1.68.68c-2.34.94-3.05 1.23-5.13 2.2l-3.18 1.49c-.2.09-.42.14-.64.14a1.5 1.5 0 0 1-.62-.13c-.35-.16-.62-.45-.77-.8-.14-.14-.26-.31-.33-.5-.14-.14-.25-.31-.33-.5-.14-.14-.26-.31-.33-.5-.14-.14-.25-.31-.33-.5-.14-.14-.26-.31-.33-.5-.14-.14-.25-.31-.33-.5-.14-.14-.26-.31-.33-.5-.14-.14-.25-.31-.33-.5-.14-.14-.26-.31-.33-.5-.14-.14-.25-.31-.33-.5-.14-.14-.26-.31-.33-.5-.14-.14-.25-.31-.33-.5-.14-.14-.26-.31-.33-.5-.14-.14-.25-.31-.33-.5-.14-.14-.26-.31-.33-.5-.14-.14-.25-.31-.33-.5-.14-.14-.26-.31-.33-.5-.14-.14-.25-.31-.33-.5-.14-.14-.26-.31-.33-.5-.14-.14-.25-.31-.33-.5-.14-.14-.26-.31-.33-.5-.14-.14-.26-.31-.33-.5-.14-.14-.25-.31-.33-.5-.14-.14-.26-.31-.33-.5-.14-.14-.25-.31-.33-.5-.14-.14-.26-.31-.33-.5-.14-.14-.25-.31-.33-.5-.14-.14-.26-.31-.33-.5-.14-.14-.25-.31-.33-.5-.14-.14-.26-.31-.33-.5-.14-.14-.25-.31-.33-.5-.14-.14-.26-.31-.33-.5-.14-.14-.25-.31-.33-.5-.14-.14-.26-.31-.33-.5-.14-.14-.25-.31-.33-.5-.14-.14-.26-.31-.33-.5-.14-.14-.25-.31-.33-.5-.14-.14-.26-.31-.33-.5-.14-.14-.25-.31-.33-.5-.14-.14-.26-.31-.33-.5-.14-.14-.25-.31-.33-.5-.14-.14-.26-.31-.33-.5-.14-.14-.26-.31-.33-.5-.14-.14-.25-.31-.33-.5-.14-.14-.26-.31-.33-.5-.14-.14-.25-.31-.33-.5-.18-.18-.31-.4-.39-.65l-2.43-8.4v23.03c0 4.09.17 8.26.47 11.43l.26 2.75c.07.78-.46 1.48-1.23 1.62l-21.69 3.82c-.09.02-.17.02-.26.02-.35 0-.69-.12-.96-.35-.19-.16-.33-.36-.42-.58-.15-.14-.26-.31-.33-.5-.14-.14-.26-.31-.33-.5-.15-.14-.26-.31-.33-.5-.14-.14-.26-.31-.33-.5-.15-.14-.26-.31-.33-.5a1.68 1.68 0 0 1-.18-.21l-27.59 4.86c-5.58.98-8.87 1.67-11.74 2.44l-3.78 1.01a1.494 1.494 0 0 1-1.3-.26c-.21-.16-.38-.38-.48-.62-.15-.14-.26-.31-.33-.5-.14-.14-.26-.31-.33-.5-.14-.14-.26-.31-.33-.5-.14-.14-.26-.31-.33-.5-.14-.14-.26-.31-.33-.5-.14-.14-.26-.31-.33-.5-.14-.14-.26-.31-.33-.5-.14-.14-.26-.31-.33-.5-.14-.14-.26-.31-.33-.5-.14-.14-.26-.31-.33-.5-.15-.14-.26-.31-.33-.5-.14-.14-.26-.31-.33-.5-.14-.14-.26-.31-.33-.5-.14-.14-.26-.31-.33-.5-.14-.14-.26-.31-.33-.5-.14-.14-.26-.31-.33-.5-.14-.14-.26-.31-.33-.5-.14-.14-.26-.31-.33-.5-.14-.14-.26-.31-.33-.5-.14-.14-.26-.31-.33-.5-.14-.14-.26-.31-.33-.5-.14-.14-.26-.31-.33-.5-.14-.14-.26-.31-.33-.5-.14-.14-.26-.31-.33-.5-.14-.14-.26-.31-.33-.5-.14-.14-.26-.31-.33-.5-.14-.14-.26-.31-.33-.5-.14-.14-.26-.31-.33-.5-.14-.14-.26-.31-.33-.5-.14-.14-.26-.31-.33-.5-.14-.14-.26-.31-.33-.5-.14-.14-.26-.31-.33-.5-.14-.14-.26-.31-.33-.5-.15-.14-.26-.31-.33-.5-.14-.14-.26-.31-.33-.5-.14-.14-.26-.31-.33-.5-.14-.14-.26-.31-.33-.5-.14-.14-.26-.31-.33-.5-.14-.14-.26-.31-.33-.5-.14-.14-.26-.31-.33-.5-.14-.14-.26-.31-.33-.5-.14-.14-.26-.31-.33-.5-.15-.14-.26-.31-.33-.5-.14-.14-.26-.31-.33-.5-.14-.14-.26-.31-.33-.5-.14-.14-.26-.31-.33-.5-.28-.28-.44-.66-.44-1.07v-7.39c-1.68 2.67-3.53 5.28-5.63 7.98-10.27 13.43-22.77 23.45-39.31 31.53-5.67 2.8-9.94 4.57-18.29 7.58-2.62.91-4.4 1.65-6.6 2.63l-3.17 1.41c-.19.09-.4.13-.61.13a1.486 1.486 0 0 1-1.39-.93c-.14-.14-.26-.31-.33-.5-.14-.14-.25-.31-.33-.5-.14-.14-.26-.31-.33-.5-.14-.14-.25-.31-.33-.5-.14-.14-.26-.31-.33-.5-.14-.14-.25-.31-.33-.5-.14-.14-.26-.31-.33-.5-.14-.14-.25-.31-.33-.5-.14-.14-.26-.31-.33-.5-.14-.14-.26-.31-.33-.5-.14-.14-.25-.31-.33-.5-.14-.14-.26-.31-.33-.5-.14-.14-.25-.31-.33-.5-.14-.14-.26-.31-.33-.5-.14-.14-.26-.31-.33-.5-.14-.14-.26-.31-.33-.5-.14-.14-.25-.31-.33-.5-.14-.14-.26-.31-.33-.5-.14-.14-.26-.31-.33-.5-.14-.14-.26-.31-.33-.5-.14-.14-.25-.31-.33-.5-.14-.14-.26-.31-.33-.5-.14-.14-.25-.31-.33-.5-.14-.14-.26-.31-.33-.5-.14-.14-.25-.31-.33-.5-.14-.14-.26-.31-.33-.5-.14-.14-.25-.31-.33-.5-.14-.14-.26-.31-.33-.5-.14-.14-.25-.31-.33-.5-.14-.14-.26-.31-.33-.5-.14-.14-.25-.31-.33-.5-.14-.14-.26-.31-.33-.5-.14-.14-.26-.31-.33-.5-.14-.14-.25-.31-.33-.5-.14-.14-.26-.31-.33-.5-.14-.14-.25-.31-.33-.5-.14-.14-.26-.31-.33-.5-.14-.14-.25-.31-.33-.5-.14-.14-.26-.31-.33-.5-.14-.14-.25-.31-.33-.5-.14-.14-.26-.31-.33-.5-.14-.14-.25-.31-.33-.5-.14-.14-.26-.31-.33-.5-.14-.14-.25-.31-.33-.5-.14-.14-.26-.31-.33-.5-.14-.14-.25-.31-.33-.5-.18-.18-.32-.41-.39-.66l-4.51-15.99c-3.83 8.45-8.23 15.84-13.38 22.52-9.19 11.96-20.64 21.9-37.15 32.25l-2.64 1.65c-.24.15-.52.23-.8.23-.12 0-.24-.01-.36-.04-.4-.1-.73-.35-.94-.71l-.14-.24c-.07-.08-.14-.17-.19-.26l-.14-.24c-.08-.08-.14-.17-.2-.26l-.14-.24c-.07-.08-.14-.17-.19-.26l-.14-.24c-.08-.08-.14-.17-.2-.26l-.14-.24c-.07-.08-.14-.17-.19-.26l-.14-.24a2.56 2.56 0 0 1-.2-.26l-.14-.24c-.07-.08-.14-.17-.19-.26l-.14-.24a2.56 2.56 0 0 1-.2-.26l-.14-.24c-.07-.08-.14-.17-.19-.26l-.14-.24c-.08-.08-.14-.17-.2-.26l-.14-.24c-.07-.08-.14-.17-.19-.26l-.14-.24c-.08-.08-.14-.17-.2-.26l-.14-.24c-.07-.08-.14-.16-.19-.26l-.14-.24c-.08-.08-.14-.17-.2-.26l-.14-.24c-.08-.08-.14-.17-.2-.26l-.14-.24c-.07-.08-.14-.17-.19-.26l-.14-.23c-.07-.08-.14-.16-.19-.25-1.66-1.84-3.6-3.49-6.29-5.33l-4.07-2.79c-.25-.17-.43-.4-.54-.67-.15-.14-.26-.31-.33-.5-.14-.14-.26-.31-.33-.5-.14-.14-.26-.31-.33-.5-.15-.14-.26-.31-.33-.5-.14-.14-.25-.31-.33-.5-.14-.14-.26-.32-.33-.5-.14-.14-.26-.31-.33-.5-.14-.14-.26-.31-.33-.5-.14-.14-.25-.31-.33-.5-.14-.14-.26-.31-.33-.5-.14-.14-.26-.31-.33-.5-.15-.14-.26-.31-.33-.5-.14-.14-.26-.31-.33-.5-.14-.14-.26-.31-.33-.5-.14-.14-.26-.31-.33-.5-.15-.14-.26-.31-.33-.5-.14-.14-.26-.31-.33-.5-.14-.14-.26-.31-.33-.5-.14-.14-.26-.31-.33-.5-.15-.14-.26-.31-.33-.5-.14-.14-.26-.31-.33-.5-.15-.14-.26-.31-.33-.5-.14-.14-.25-.31-.33-.5-.14-.14-.26-.31-.33-.5-.14-.14-.26-.31-.33-.5-.14-.14-.26-.31-.33-.5-.14-.14-.26-.31-.33-.5-.14-.14-.25-.31-.33-.5-.14-.14-.26-.31-.33-.5-.14-.14-.26-.31-.33-.5-.14-.14-.26-.31-.33-.5-.14-.14-.26-.31-.33-.5-.12-.12-.21-.25-.29-.4-14.32 22.16-32.54 35.85-60.47 45.53l-.2.07c-3.32 1.2-3.4 1.24-4.47 2.05l-2.06 1.55c-.27.2-.59.3-.9.3-.38 0-.76-.14-1.05-.43l-12.04-11.74c-.15-.15-.27-.32-.34-.51-.15-.15-.26-.32-.33-.5-.15-.14-.26-.31-.33-.5-.15-.15-.26-.32-.33-.5-.15-.15-.26-.32-.33-.5-.15-.15-.26-.32-.33-.5-.15-.14-.26-.31-.33-.5-.15-.15-.26-.32-.33-.5-.15-.15-.26-.32-.33-.5-.15-.15-.26-.32-.33-.5-.15-.15-.26-.32-.33-.5-.15-.14-.26-.31-.33-.5-.15-.15-.26-.32-.33-.5-.15-.15-.26-.32-.33-.5-.15-.15-.26-.32-.33-.5-.15-.14-.26-.31-.33-.5-.15-.15-.26-.32-.33-.5-.15-.14-.26-.31-.33-.5-.15-.15-.26-.32-.33-.5-.15-.14-.26-.31-.33-.5-.15-.15-.26-.32-.33-.5-.15-.14-.26-.31-.33-.5-.15-.15-.26-.32-.33-.5-.15-.14-.26-.31-.33-.5-.15-.15-.26-.32-.33-.5-.15-.14-.26-.31-.33-.5-.15-.15-.26-.32-.33-.5-.15-.15-.26-.32-.33-.5-.15-.15-.26-.32-.33-.5-.15-.14-.26-.31-.33-.5-.15-.15-.26-.32-.33-.5-.15-.14-.26-.31-.33-.5-.15-.15-.26-.32-.33-.5-.15-.15-.26-.32-.33-.5-.15-.14-.26-.31-.33-.5-.15-.15-.26-.32-.33-.5-.15-.15-.26-.32-.33-.5-.15-.15-.26-.32-.33-.5l-.01-.01v12.3c0 8.16.11 10.2.57 15.38l.24 2.74c.07.78-.47 1.47-1.23 1.61l-24.61 4.34c-.09.01-.17.02-.26.02-.35 0-.69-.12-.96-.35-.19-.16-.33-.36-.43-.58-.14-.14-.26-.31-.33-.5-.14-.14-.26-.31-.33-.5-.14-.14-.26-.31-.33-.5-.14-.14-.26-.31-.33-.5-.14-.14-.26-.31-.33-.5-.14-.14-.26-.31-.33-.5-.14-.14-.26-.31-.33-.5-.14-.14-.26-.31-.33-.5l-.02-.02-31.55 5.56c-9.11 1.61-12.15 2.25-16.26 3.42l-3.82 1.09a1.476 1.476 0 0 1-1.31-.24c-.22-.17-.39-.38-.49-.63-.14-.14-.26-.31-.33-.5-.14-.14-.26-.31-.33-.5-.14-.14-.26-.31-.33-.5-.14-.14-.26-.31-.33-.5-.14-.14-.26-.31-.33-.5-.14-.14-.26-.31-.33-.5-.14-.14-.26-.31-.33-.5-.14-.14-.26-.31-.33-.5-.14-.14-.26-.31-.33-.5-.14-.14-.26-.31-.33-.5-.14-.14-.26-.31-.33-.5-.14-.14-.26-.31-.33-.5-.14-.14-.26-.31-.33-.5-.14-.14-.26-.31-.33-.5-.14-.14-.26-.31-.33-.5-.14-.14-.26-.31-.33-.5-.14-.14-.26-.31-.33-.5-.14-.14-.26-.31-.33-.5-.14-.14-.26-.31-.33-.5-.14-.14-.26-.31-.33-.5-.14-.14-.26-.31-.33-.5-.14-.14-.26-.31-.33-.5-.14-.14-.26-.31-.33-.5-.14-.14-.26-.31-.33-.5-.14-.14-.26-.31-.33-.5-.14-.14-.26-.31-.33-.5-.14-.14-.26-.31-.33-.5-.14-.14-.26-.31-.33-.5-.14-.14-.26-.31-.33-.5-.14-.14-.26-.31-.33-.5-.14-.14-.26-.31-.33-.5-.14-.14-.26-.31-.33-.5-.14-.14-.26-.31-.33-.5-.14-.14-.26-.31-.33-.5-.14-.14-.26-.31-.33-.5-.14-.14-.26-.31-.33-.5-.14-.14-.26-.31-.33-.5-.14-.14-.26-.31-.33-.5-.14-.14-.26-.31-.33-.5-.14-.14-.26-.31-.33-.5-.14-.14-.26-.31-.33-.5-.14-.14-.26-.31-.33-.5-.14-.14-.26-.31-.33-.5-.14-.14-.26-.31-.33-.5-.14-.14-.26-.31-.33-.5-.14-.14-.26-.31-.33-.5-.28-.28-.44-.66-.44-1.06v-18.99c-1.23.21-2.62.44-4.22.73l-2.49.44.44 37.62c0 4.35.26 9.31.65 12.65l.33 2.82c.09.79-.45 1.52-1.23 1.65l-25.71 4.53c-.09.01-.17.02-.26.02-.39 0-.77-.15-1.05-.43-.15-.15-.26-.32-.34-.5-.15-.14-.26-.31-.33-.5-.15-.14-.26-.31-.33-.5-.15-.14-.26-.31-.33-.5-.15-.14-.26-.31-.33-.5-.15-.14-.26-.32-.33-.5-.15-.14-.26-.31-.33-.5-.15-.14-.26-.31-.33-.5-.15-.14-.26-.31-.33-.5-.15-.14-.26-.32-.33-.5-.15-.14-.26-.31-.33-.5-.15-.14-.26-.31-.33-.5-.15-.14-.26-.31-.33-.5-.15-.14-.26-.31-.33-.5-.15-.14-.26-.32-.33-.5-.15-.14-.26-.31-.33-.5-.15-.14-.26-.31-.33-.5-.15-.14-.26-.31-.33-.5-.15-.14-.26-.31-.33-.5-.15-.14-.26-.32-.33-.5-.15-.14-.26-.31-.33-.5-.15-.14-.26-.31-.33-.5-.15-.14-.26-.31-.33-.5-.15-.14-.26-.32-.33-.5-.15-.14-.26-.31-.33-.5-.14-.14-.26-.31-.33-.5-.15-.14-.26-.32-.33-.5-.15-.14-.26-.31-.33-.5-.15-.14-.26-.32-.33-.5-.15-.14-.26-.31-.33-.5-.15-.14-.26-.31-.33-.5-.14-.14-.26-.31-.33-.5-.15-.14-.26-.32-.33-.5-.15-.14-.26-.31-.33-.5-.15-.14-.26-.31-.33-.5-.15-.14-.26-.31-.33-.5-.12-.12-.22-.25-.29-.4-5.99 5.79-12.69 11.3-20.42 16.81l-2.67 1.91a1.527 1.527 0 0 1-1.18.25c-.41-.09-.77-.34-.98-.71l-.15-.25c-.07-.08-.13-.16-.19-.25l-.15-.25c-.07-.08-.13-.16-.19-.25l-.15-.25c-.07-.08-.13-.16-.19-.25l-.15-.25c-.07-.08-.13-.16-.18-.25l-.15-.25c-.07-.08-.13-.16-.19-.25l-.15-.25c-.07-.08-.13-.16-.19-.25l-.15-.25c-.07-.08-.13-.16-.19-.25l-.15-.25c-.07-.08-.13-.16-.18-.25l-.15-.25c-.07-.08-.13-.16-.19-.25l-.15-.25c-.07-.08-.13-.16-.19-.25l-.15-.25c-.07-.08-.13-.16-.19-.25l-.15-.25c-.07-.08-.13-.16-.19-.25l-.15-.25c-.07-.08-.13-.16-.18-.25l-.15-.25c-.07-.07-.13-.16-.18-.25l-.15-.25c-.07-.08-.13-.16-.19-.25l-.15-.25c-.07-.08-.13-.16-.19-.25l-.15-.25c-.07-.08-.13-.16-.19-.25l-.12-.21c-1.48-1.63-3.28-3.17-6.18-5.27l-3.55-2.58c-.23-.17-.4-.39-.51-.65-.14-.14-.26-.31-.33-.5-.14-.14-.26-.31-.33-.5-.14-.14-.26-.31-.33-.5-.14-.14-.26-.31-.33-.5-.14-.14-.26-.31-.33-.5-.14-.14-.26-.31-.33-.5-.14-.14-.26-.31-.33-.5-.14-.14-.26-.31-.33-.5-.14-.14-.26-.31-.33-.5-.14-.14-.26-.31-.33-.5-.14-.14-.26-.31-.33-.5-.14-.14-.26-.31-.33-.5-.05-.05-.09-.1-.13-.15-.02.1-.05.21-.08.31-3.18 11.93-10.37 21.9-22 30.51-5.83 4.35-11.37 7.49-21.15 11.96l-2.94 1.34c-.2.09-.41.14-.62.14-.19 0-.39-.04-.57-.11-.37-.15-.66-.45-.81-.82-.14-.14-.26-.31-.33-.5-.14-.14-.26-.31-.33-.5-.14-.14-.25-.31-.33-.5-.14-.14-.26-.31-.33-.5-.14-.14-.26-.31-.33-.5-.14-.14-.26-.31-.33-.5-.14-.14-.26-.31-.33-.5-.14-.14-.26-.31-.33-.5-.14-.14-.26-.31-.33-.5-.14-.14-.26-.31-.33-.5-.14-.14-.26-.31-.33-.5-.14-.14-.26-.31-.33-.5-.14-.14-.26-.31-.33-.5-.14-.14-.26-.31-.33-.5-.14-.14-.26-.31-.33-.5-.14-.14-.26-.31-.33-.5-.14-.14-.26-.31-.33-.5-.14-.14-.26-.31-.33-.5-.14-.14-.26-.31-.33-.5-.14-.14-.26-.31-.33-.5-.14-.14-.26-.31-.33-.5-.14-.14-.26-.31-.33-.5-.14-.14-.26-.31-.33-.5-.14-.14-.26-.31-.33-.5-.14-.14-.25-.31-.33-.5-.14-.14-.26-.31-.33-.5-.14-.14-.26-.31-.33-.5-.14-.14-.26-.31-.33-.5-.14-.14-.26-.31-.33-.5-.14-.14-.26-.31-.33-.5-.14-.14-.26-.31-.33-.5-.14-.14-.26-.31-.33-.5-.14-.14-.26-.31-.33-.5-.14-.14-.26-.31-.33-.5-.14-.14-.26-.31-.33-.5-.14-.14-.26-.31-.34-.5l-.07-.07-1.46-1.4c-.16-.15-.27-.33-.35-.52-.15-.14-.26-.31-.33-.5-.15-.14-.26-.31-.33-.5-.15-.14-.26-.31-.33-.5-.15-.14-.26-.32-.33-.5-.15-.14-.26-.31-.33-.5-.15-.14-.26-.31-.33-.5-.15-.14-.26-.31-.33-.5-.15-.14-.26-.31-.33-.5-.15-.14-.26-.32-.33-.5-.15-.14-.26-.31-.33-.5-.15-.14-.26-.31-.33-.5-.15-.14-.26-.31-.33-.5-.15-.14-.26-.32-.33-.5-.15-.14-.26-.31-.33-.5-.15-.14-.26-.31-.33-.5-.15-.14-.26-.31-.33-.5-.15-.14-.26-.32-.33-.5-.15-.14-.26-.31-.33-.5-.15-.14-.26-.31-.33-.5-.15-.14-.26-.31-.33-.5-.15-.14-.26-.31-.33-.5-.15-.14-.26-.32-.33-.5-.15-.14-.26-.31-.33-.5-.15-.14-.26-.31-.33-.5-.15-.14-.26-.31-.33-.5-.15-.14-.26-.31-.33-.5-.15-.14-.26-.31-.33-.5-.15-.14-.26-.31-.33-.5-.15-.14-.26-.31-.33-.5-.14-.14-.26-.31-.33-.5-.15-.14-.26-.31-.33-.5-.15-.14-.26-.32-.33-.5-.15-.14-.26-.31-.33-.5-.15-.14-.26-.31-.33-.5-.15-.14-.26-.31-.33-.5-.15-.14-.26-.32-.33-.5-.15-.14-.26-.31-.33-.5-.15-.14-.26-.31-.33-.5-.15-.14-.26-.31-.33-.5-.15-.14-.26-.32-.33-.5-.15-.14-.26-.31-.33-.5-.15-.14-.26-.31-.33-.5-.15-.14-.26-.31-.33-.5-.15-.14-.26-.31-.33-.5-.15-.14-.26-.32-.33-.5-.15-.14-.26-.31-.33-.5a1.49 1.49 0 0 1-.04-2.08c-.14-.14-.24-.3-.32-.48-.15-.14-.26-.31-.33-.5-.15-.14-.26-.31-.33-.5-.15-.14-.26-.31-.33-.5-.15-.14-.26-.31-.33-.5-.12-.11-.21-.25-.28-.39-8.13 16.73-17.06 28.33-29.53 38.42-11.05 9.01-20.58 14.31-39.18 21.83l-1.69.68c-2.34.94-3.04 1.22-5.12 2.2l-3.18 1.49c-.2.09-.42.14-.64.14a1.5 1.5 0 0 1-.62-.13c-.35-.16-.63-.45-.77-.8-.14-.14-.26-.31-.33-.5-.14-.14-.26-.31-.33-.5-.14-.14-.26-.31-.33-.5-.14-.14-.26-.31-.33-.5-.14-.14-.26-.31-.33-.5-.14-.14-.26-.31-.33-.5-.14-.14-.26-.31-.33-.5-.14-.14-.25-.31-.33-.5-.14-.14-.26-.31-.33-.5-.14-.14-.26-.31-.33-.5-.14-.14-.26-.31-.33-.5-.14-.14-.26-.31-.33-.5-.14-.14-.26-.31-.33-.5-.14-.14-.26-.31-.33-.5-.14-.14-.26-.31-.33-.5-.14-.14-.26-.31-.33-.5-.14-.14-.26-.31-.33-.5-.14-.14-.25-.31-.33-.5-.14-.14-.26-.31-.33-.5-.14-.14-.26-.31-.33-.5-.14-.14-.26-.31-.33-.5-.14-.14-.25-.31-.33-.5-.14-.14-.26-.31-.33-.5-.14-.14-.26-.31-.33-.5-.14-.14-.26-.31-.33-.5-.14-.14-.26-.31-.33-.5-.14-.14-.25-.31-.33-.5-.14-.14-.26-.31-.33-.5-.14-.14-.26-.31-.33-.5-.14-.14-.26-.31-.33-.5-.14-.14-.26-.31-.33-.5-.14-.14-.26-.31-.33-.5-.14-.14-.26-.31-.33-.5-.14-.14-.26-.31-.33-.5-.14-.14-.26-.31-.33-.5-.14-.14-.25-.31-.33-.5-.14-.14-.26-.31-.33-.5-.14-.14-.26-.31-.33-.5-.14-.14-.26-.31-.33-.5-.14-.14-.26-.31-.33-.5-.14-.14-.26-.31-.33-.5-.14-.14-.26-.31-.33-.5-.14-.14-.26-.31-.33-.5-.14-.14-.26-.31-.33-.5-.14-.14-.26-.31-.33-.5-.14-.14-.26-.31-.33-.5-.18-.18-.31-.4-.38-.65l-6.25-21.64c-.43.08-2.04.36-2.04.36-.14 4.85-.27 7-.61 10.19-1.57 14.15-6.41 24.72-15.71 34.27-5.55 5.73-10.92 9.58-21.31 15.26l-2.65 1.45c-1.07.61-1.31.67-1.56.67zm59.17-70.76c3.97-1.56 7.89-3.38 11.71-5.41a74.604 74.604 0 0 0-10.18-4.46l-1.52-.54v10.41zM284 156.45c1.58-1.16 3.1-2.31 4.55-3.46a.488.488 0 0 1-.03-.07c-.14-.14-.26-.31-.33-.5-.14-.14-.26-.31-.33-.5-.14-.14-.26-.31-.33-.5-.14-.14-.26-.31-.33-.5-.14-.14-.26-.31-.33-.5-.14-.14-.26-.31-.33-.5-.14-.14-.26-.31-.33-.5-.14-.14-.26-.31-.33-.5-.14-.14-.26-.31-.33-.5-.14-.14-.26-.31-.33-.5-.14-.14-.26-.31-.33-.5-.14-.14-.26-.31-.33-.5-.14-.14-.26-.31-.33-.5-.08-.08-.14-.16-.2-.25-.03.03-.03 9.89-.03 10.28zm102.06-16.42c2.06-.32 4.56-.75 7.54-1.28l35.38-6.24v-2.3l-17.02 3c-9.01 1.59-12.54 2.31-16.42 3.36l-3.78 1.02c-.13.04-.26.05-.39.05-.33 0-.65-.11-.91-.31-.21-.16-.38-.38-.48-.62-.14-.14-.26-.31-.33-.5-.14-.14-.26-.31-.33-.5-.14-.14-.26-.31-.33-.5-.14-.14-.26-.31-.33-.5-.14-.14-.26-.31-.33-.5-.14-.14-.26-.31-.33-.5-.14-.14-.26-.31-.33-.5-.14-.14-.26-.31-.33-.5-.14-.14-.26-.31-.33-.5-.14-.14-.26-.31-.33-.5-.14-.14-.26-.31-.33-.5-.1-.1-.19-.22-.26-.35v9.17zm267.38-44.31c-.35 1.04-.71 2.07-1.08 3.08.86-.21 1.75-.44 2.68-.7l-.03-.06c-.13-.13-.24-.28-.31-.45-.01-.02-.01-.03-.02-.05-.13-.13-.24-.28-.31-.45-.01-.02-.01-.03-.02-.05a1.57 1.57 0 0 1-.31-.45c-.01-.02-.01-.03-.02-.05-.13-.13-.24-.28-.31-.45-.01-.02-.01-.03-.02-.05-.1-.09-.18-.2-.25-.32z"/><path class="st0" d="m896.59 3 3.35 3.38c4.41 4.45 6.33 5.83 13.68 9.84l2.4 1.31-.11.26.44.24-.11.26.44.24-.11.26.44.24-.11.26.44.24-.11.26.44.24-.11.26.44.24-.11.26.44.24-.11.26.44.24-.11.26.44.24-.11.26.44.24-.11.26.44.24-.11.26.44.24-.11.26.44.24-.11.26.44.24-.11.26.44.24-.11.26.44.24-.11.26.44.24-.11.26.44.24-.11.26.44.24-.11.26.44.24-.11.26.44.24-.11.26.44.24-.11.26.44.24-.11.26.44.24-.11.26.44.24-.11.26.44.24-.11.26.44.24-.11.26.44.24-.11.26.44.24-.11.26.44.24-.11.26.44.24-.11.26.44.24-.11.26.44.24-.11.26.44.24-.11.26.44.24-.11.26.44.24-.11.26.44.24-.11.26.44.24-.11.26.44.24-.11.26.44.24-.11.26.44.24-.11.26.44.24-.11.26.44.24-.11.26.44.24-.11.26.44.24-.11.26.44.24-.11.26.44.24-1.09 2.51c-9.12 21.06-18.61 34.31-32.73 45.74-10.93 8.9-20.35 14.15-38.8 21.6l-1.68.68c-2.37.95-3.09 1.24-5.21 2.23l-3.18 1.49-.17-.58-.17.08-.17-.58-.17.08-.17-.58-.17.08-.17-.58-.17.08-.17-.58-.17.08-.17-.58-.17.08-.17-.58-.17.08-.17-.58-.17.08-.17-.58-.17.08-.17-.58-.17.08-.17-.58-.17.08-.17-.58-.17.08-.17-.58-.17.08-.17-.58-.17.08-.17-.58-.17.08-.17-.58-.17.08-.17-.58-.17.08-.17-.58-.17.08-.17-.58-.17.08-.17-.58-.17.08-.17-.58-.17.08-.17-.58-.17.08-.17-.58-.17.08-.17-.58-.17.08-.17-.58-.17.08-.17-.58-.17.08-.17-.58-.17.08-.17-.58-.17.08-.17-.58-.17.08-.17-.58-.17.08-.17-.58-.17.08-.17-.58-.17.08-.17-.58.21.07-.17-.58-.17.08-.17-.58-.17.08-.17-.58-.15.09-.17-.58-.17.08-.17-.58-.17.08-.17-.58-.15.08-.17-.58-.17.08-.17-.58-.17.08-.17-.58-.15.09-.17-.58-.17.08-.17-.58-.17.08-.17-.58-.15.08-.17-.58-.17.08-.17-.58-.17.08-.97-3.37-4.39-15.21v33.62c0 4.13.17 8.35.48 11.57l.26 2.75-2.72.48-15.44 2.72-3.52.62v-.56l-.33.06v-.56l-.33.06v-.56l-.33.06v-.56l-.33.06v-.56l-.33.06v-.56l-.33.06v-.56l-.33.06v-.33l-28.75 5.07c-5.62.99-8.95 1.68-11.86 2.46l-3.78 1.01v-.59l-.33.09v-.59l-.33.09v-.59l-.33.09v-.59l-.33.09v-.59l-.33.09v-.59l-.33.09v-.59l-.33.09v-.59l-.33.09v-.59l-.33.09v-.59l-.33.09v-.59l-.33.09v-.59l-.33.09v-.59l-.33.09v-.59l-.33.09v-.59l-.33.09v-.59l-.33.09v-.59l-.33.09v-.59l-.33.09v-.59l-.33.09v-.59l-.33.09v-.59l-.33.09v-.59l-.33.09v-.59l-.33.09v-.59l-.33.09v-.59l-.33.09v-.59l-.33.09v-.59l-.33.09v-.59l-.33.09v-.59l-.33.09v-.59l-.33.09v-.59l-.33.09v-.59l-.33.09v-.59l-.33.09v-.59l-.33.09v-.59l-.33.09v-.59l-.33.09v-.59l-.33.09v-.59l-.33.09v-.59l-.33.09v-.59l-.33.09v-.59l-.33.09v-.59l-.33.09v-.59l-.33.09v-.59l-.33.09v-.59l-.33.09v-.59l-.33.09v-.59l-.33.09v-12.9c-2.47 4.51-5.11 8.44-8.32 12.57-10.13 13.25-22.46 23.14-38.79 31.11-5.62 2.77-9.85 4.53-18.14 7.52-2.64.92-4.46 1.67-6.7 2.67l-3.17 1.41-.16-.57-.17.08-.16-.57-.17.08-.16-.57-.17.08-.16-.57-.17.08-.16-.57-.17.08-.16-.57-.17.08-.16-.57-.17.08-.16-.57-.17.08-.16-.57-.17.08-.16-.57-.17.08-.16-.57-.17.08-.16-.57-.17.08-.16-.57-.17.08-.16-.57-.17.08-.16-.57-.17.08-.16-.57-.17.08-.16-.57-.17.08-.16-.57-.17.08-.16-.57-.17.08-.16-.57-.17.08-.16-.57-.17.08-.16-.57-.17.08-.16-.57-.17.08-.16-.57-.17.08-.16-.57-.17.08-.16-.57-.17.08-.16-.57-.17.08-.16-.57-.17.08-.16-.57-.17.08-.16-.57-.17.08-.16-.57-.17.08-.16-.57-.17.08-.16-.57-.17.08-.16-.57-.17.08-.16-.57-.17.08-.16-.57-.17.08-.16-.57-.17.08-.16-.57-.17.08-.16-.57-.17.08-.16-.57-.17.08-.16-.57-.17.08-.16-.57-.17.08-.16-.57-.17.08-.16-.57-.17.08-.16-.57-.17.08-.16-.57-.17.08-.16-.57-.17.08-.94-3.34-4.71-16.7c-4.14 9.91-9.05 18.52-14.87 26.05-9.07 11.81-20.41 21.65-36.76 31.89l-2.64 1.65-.3-.52-.03.02-.3-.52-.03.02-.3-.52-.03.02-.3-.52-.03.02-.3-.52-.03.02-.3-.52-.03.02-.3-.52-.03.02-.3-.52-.03.02-.3-.52-.03.02-.3-.52-.03.02-.3-.52-.03.02-.3-.52-.03.02-.3-.52-.03.02-.3-.52-.03.02-.3-.52-.03.02-.3-.52-.03.02-.27-.47c-.01-.01-.02-.03-.04-.04l-.02.01-.07-.12c-1.8-2.02-3.87-3.77-6.66-5.68l-4.07-2.79.22-.12-.55-.38.22-.12-.55-.38.22-.12-.55-.38.22-.12-.55-.38.22-.12-.55-.38.22-.12-.55-.38.22-.12-.55-.38.22-.12-.55-.38.22-.12-.55-.38.22-.12-.55-.38.22-.12-.55-.38.22-.12-.55-.38.22-.12-.55-.38.22-.12-.55-.38.22-.12-.55-.38.22-.12-.55-.38.22-.12-.55-.38.22-.12-.55-.38.22-.12-.55-.38.22-.12-.55-.38.22-.12-.55-.38.22-.12-.55-.38.22-.12-.55-.38.22-.12-.55-.38.22-.12-.55-.38.22-.12-.55-.38.22-.12-.55-.38.22-.12-.55-.38.22-.12-.55-.38.22-.12-.55-.38.22-.12-.55-.38.22-.12-.55-.38.22-.12-.55-.38.22-.12-.55-.38.22-.12-.55-.38.22-.12-.55-.38.22-.12-.55-.38.22-.12-.17-.12c-14.3 23.05-32.73 37.21-61.02 47.01l-.22.08c-3.32 1.21-3.6 1.3-4.86 2.26l-2.06 1.55-1.85-1.8-8.7-8.48-1.5-1.46.05-.12-.39-.38.05-.12-.39-.38.05-.12-.39-.38.05-.12-.39-.38.05-.12-.39-.38.05-.12-.39-.38.05-.12-.39-.38.05-.12-.39-.38.05-.12-.39-.38.05-.12-.39-.38.05-.12-.39-.38.05-.12-.39-.38.05-.12-.39-.38.05-.12-.39-.38.05-.12-.39-.38.05-.12-.39-.38.05-.12-.39-.38.05-.12-.39-.38.05-.12-.39-.38.05-.12-.39-.38.05-.12-.39-.38.05-.12-.39-.38.05-.12-.39-.38.05-.12-.39-.38.05-.12-.39-.38.05-.12-.39-.38.05-.12-.39-.38.05-.12-.39-.38.05-.12-.39-.38.05-.12-.39-.38.05-.12-.39-.38.05-.12-.39-.38.05-.12-.39-.38.05-.12-.39-.38.05-.12-.39-.38.05-.12-.39-.38.05-.12-.39-.38.05-.12-.39-.38.05-.12-.39-.38.05-.12-.39-.38.05-.12-.39-.38.05-.12-.39-.38.05-.12-.39-.38.05-.12-.39-.38.05-.12-.39-.38.05-.12-.3-.29v17.25c0 8.22.11 10.28.57 15.52l.24 2.74-2.74.29-18.38 3.24-3.52.62v-.56l-.33.06v-.56l-.33.06v-.56l-.33.06v-.56l-.33.06v-.56l-.33.06v-.56l-.33.06v-.56l-.33.06v-.56l-.33.06v-.56l-.33.06v-.56l-.33.06v-.11l-32.55 5.74c-9.18 1.62-12.25 2.26-16.41 3.45l-3.82 1.09v-.59l-.33.1v-.59l-.33.1v-.59l-.33.1v-.59l-.33.1v-.59l-.33.1v-.59l-.33.1v-.59l-.33.09v-.59l-.33.1v-.59l-.33.09v-.59l-.33.1v-.59l-.33.1v-.59l-.33.1v-.59l-.33.1v-.59l-.33.1v-.59l-.33.09v-.59l-.33.1v-.59l-.33.1v-.59l-.33.1v-.59l-.33.1v-.59l-.33.09v-.59l-.33.1v-.59l-.33.1v-.59l-.33.1v-.59l-.33.1v-.59l-.33.1v-.59l-.33.1v-.59l-.33.1v-.59l-.33.1v-.59l-.33.1v-.59l-.33.1V175l-.33.1v-.59l-.33.1v-.59l-.33.1v-.59l-.33.1v-.59l-.33.1v-.59l-.33.1v-.59l-.33.1v-.59l-.33.09v-.59l-.33.1v-.59l-.33.1v-.59l-.33.1v-.59l-.33.1v-.59l-.33.1v-.59l-.33.09v-.59l-.33.1v-.59l-.33.1v-.59l-.33.1v-20.76c-1.64.26-3.57.59-5.98 1.01l-3.75.66.46 38.89c0 4.38.26 9.41.66 12.81l.33 2.82-2.79.49-18.77 3.31-4.15.73.09-.57-.42.07.09-.57-.42.07.09-.57-.42.07.09-.57-.42.07.09-.57-.42.07.09-.57-.42.07.09-.57-.42.07.09-.57-.42.07.09-.57-.42.07.09-.57-.42.07.09-.57-.42.07.09-.57-.42.07.09-.57-.42.07.09-.57-.42.07.09-.57-.42.07.09-.57-.42.07.09-.57-.42.07.09-.57-.42.07.09-.57-.42.07.09-.57-.42.07.09-.57-.42.07.09-.57-.42.07.09-.57-.42.07.09-.57-.42.07.09-.57-.42.07.09-.57-.42.07.09-.57-.42.07.09-.57-.42.07.09-.57-.42.07.09-.57-.42.07.09-.57-.42.07.09-.57-.42.07.09-.57-.42.07.09-.57-.42.07.09-.57-.42.07.09-.57-.42.07.09-.57-.42.07.09-.57-.42.07.09-.57-.42.07.05-.33c-6.29 6.24-13.46 12.21-21.69 18.08l-2.67 1.91-.3-.52-.03.02-.3-.52-.03.02-.3-.52-.03.02-.3-.52-.03.02-.3-.52-.03.02-.3-.52-.03.02-.3-.52-.03.02-.3-.52-.03.02-.3-.52-.03.02-.3-.52-.03.02-.3-.52-.03.02-.3-.52-.03.02-.3-.52-.03.02-.3-.52-.03.02-.3-.52-.03.02-.3-.52-.03.02-.3-.52-.03.02-.2-.34c-1.66-1.86-3.61-3.49-6.52-5.6l-3.55-2.58.19-.12-.52-.38.19-.12-.52-.38.19-.12-.52-.38.19-.12-.52-.38.19-.12-.52-.38.19-.12-.52-.38.19-.12-.52-.38.19-.12-.52-.38.19-.12-.52-.38.19-.12-.52-.38.19-.12-.52-.38.19-.12-.52-.38.19-.12-.52-.38.19-.12-.52-.38.19-.12-.52-.38.19-.12-.52-.38.19-.12-.52-.38.19-.12-.52-.38.19-.12-.46-.34c-.24 1.39-.5 2.66-.78 3.8-3.08 11.57-10.1 21.27-21.44 29.67-5.74 4.29-11.2 7.37-20.88 11.8l-2.94 1.34-.21-.56-.13.06-.21-.56-.13.06-.21-.56-.13.06-.21-.56-.13.06-.21-.56-.13.06-.21-.56-.13.06-.21-.56-.13.06-.21-.56-.13.06-.21-.56-.13.06-.21-.56-.13.06-.21-.56-.13.06-.21-.56-.13.06-.21-.56-.13.06-.21-.56-.13.06-.21-.56-.13.06-.21-.56-.13.06-.21-.56-.13.06-.21-.56-.13.06-.21-.56-.13.06-.21-.56-.13.06-.21-.56-.13.06-.21-.56-.13.06-.21-.56-.13.06-.21-.56-.13.06-.21-.56-.13.06-.21-.56-.13.06-.21-.56-.13.06-.21-.56-.13.06-.21-.56-.13.06-.21-.56-.13.06-.21-.56-.13.06-.21-.56-.13.06-.21-.56-.13.06-.21-.56-.13.06-.21-.56-.13.06-.21-.56-.13.06-.11-.3-.21-.2h-.01l-.01-.02-1.55-1.48.14-.05-.47-.45.14-.05-.47-.45.14-.05-.47-.45.14-.05-.47-.45.14-.05-.47-.45.14-.05-.47-.45.14-.05-.47-.45.14-.05-.47-.45.14-.05-.47-.45.14-.05-.47-.45.14-.05-.47-.45.14-.05-.47-.45.14-.05-.47-.45.14-.05-.47-.45.14-.05-.47-.45.14-.05-.47-.45.14-.05-.47-.45.14-.05-.47-.45.14-.05-.47-.45.14-.05-.47-.45.14-.05-.47-.45.14-.05-.47-.45.14-.05-.47-.45.14-.05-.47-.45.14-.05-.47-.45.14-.05-.47-.45.14-.05-.47-.45.14-.05-.47-.45.14-.05-.47-.45.14-.05-.47-.45.14-.05-.47-.45.14-.05-.47-.45.14-.05-.47-.45.14-.05-.47-.45.14-.05-.47-.45.14-.05-.47-.45.14-.05-.47-.45.14-.05-.47-.45.14-.05-.47-.45.14-.05-.47-.45.14-.05-.47-.45.14-.05-.47-.45.14-.05-.47-.45.14-.05-.47-.45.14-.05-.47-.45.14-.05-.47-.45.14-.05-.47-.45 1.36-.49.02-.16-.41.07.08-.57-.41.07.08-.57-.41.07.08-.57-.41.07.08-.57-.41.07.08-.57-.41.07.08-.57-.41.07.08-.57-.41.07.08-.57-.41.07.08-.57-.41.07.08-.57-.41.07.08-.57-.41.07.08-.57-.41.07.08-.57-.22.04c-8.42 18.04-17.44 30.02-30.34 40.46-10.92 8.9-20.35 14.15-38.8 21.6l-1.69.68c-2.37.95-3.08 1.24-5.2 2.23l-3.18 1.49-.17-.58-.17.08-.17-.58-.17.08-.17-.58-.17.08-.17-.58-.17.08-.17-.58-.17.08-.17-.58-.17.08-.17-.58-.17.08-.17-.58-.17.08-.17-.58-.17.08-.17-.58-.17.08-.17-.58-.17.08-.17-.58-.17.08-.17-.58-.17.08-.17-.58-.17.08-.17-.58-.17.08-.17-.58-.17.08-.17-.58-.17.08-.17-.58-.17.08-.17-.58-.17.08-.17-.58-.17.08-.17-.58-.17.08-.17-.58-.17.08-.17-.58-.17.08-.17-.58-.17.08-.17-.58-.17.08-.17-.58-.17.08-.17-.58-.17.08-.17-.58-.17.08-.17-.58-.17.08-.17-.58-.17.08-.17-.58-.17.08-.17-.58-.17.08-.17-.58-.17.08-.17-.58-.17.08-.17-.58-.17.08-.17-.58-.17.08-.17-.58-.17.08-.17-.58-.17.08-.17-.58-.17.08-.17-.58-.17.08-.17-.58-.17.08-.17-.58-.17.08-.17-.58-.17.08-.17-.58-.17.08-.17-.58-.17.08-.17-.58-.17.08-.17-.58-.17.08-.98-3.37-5.08-17.59-.57-1.97c-.82.14-1.71.29-2.69.47l-1.89.33c-.15 5.57-.27 7.79-.64 11.3-1.53 13.79-6.24 24.09-15.29 33.38-5.43 5.61-10.72 9.4-20.95 14.99l-2.65 1.45-.28-.53-.05.03-.28-.53-.05.03-.28-.53-.05.03-.28-.53-.05.03-.28-.53-.05.03-.28-.53-.05.03-.28-.53-.05.03-.28-.53-.05.03-.28-.53-.05.03-.28-.53-.05.03-.28-.53-.05.03-.28-.53-.05.03-.28-.53-.05.03-.28-.53-.05.03-.28-.53-.05.03-.28-.53-.05.03-.28-.53-.05.03-.28-.53-.05.03-.28-.53-.05.03-.28-.53-.05.03-.28-.53-.05.03-.21-.4-.11-.11-.01.01-.02-.05c-1.11-1.12-2.41-2.27-4.02-3.6l-3.64-3.01.17-.08-.51-.42.17-.08-.51-.42.17-.08-.51-.42.17-.08-.51-.42.17-.08-.5-.42.17-.08-.5-.42.17-.08-.51-.42.17-.08-.51-.42.17-.08-.51-.42.17-.08-.51-.42.17-.08-.51-.42.17-.08-.51-.42.17-.08-.51-.42.17-.08-.51-.42.17-.08-.5-.42.17-.08-.51-.42.17-.08-.5-.42.17-.08-.51-.42.17-.08-.5-.42.17-.08-.51-.42.17-.08-.51-.42.17-.08-.51-.42.17-.08-.51-.42.17-.08-.51-.42.17-.08-.51-.42.17-.08-.51-.42.17-.08-.51-.42.17-.08-.5-.42.17-.08-.5-.42.17-.08-.51-.42.17-.08-.51-.42.17-.08-.51-.42.17-.08-.51-.42.17-.08-.51-.42.17-.08-.51-.42.17-.08-.51-.42.17-.08-.51-.42.17-.08-.5-.42.17-.08-.51-.42.17-.08-.51-.42.17-.08-.51-.42.17-.08-.5-.42.17-.08-.51-.42.17-.08-.51-.42.17-.08-.51-.42.17-.08-.51-.42.17-.08-.51-.42 1.21-.57-.36.06.08-.57-.41.07.08-.57-.41.07.08-.57-.41.07.08-.57-.41.07.08-.57-.41.07.08-.57-.41.07.08-.57-.41.07.08-.57-.41.07.08-.57-.41.07.08-.57-.41.07.08-.57-.41.07.08-.57-.41.07.03-.21c-.18.05-.36.09-.56.15l-3.77 1v-.59l-.33.09v-.59l-.33.09v-.59l-.33.09v-.59l-.33.09v-.59l-.33.09v-.59l-.33.09v-.59l-.33.09v-.59l-.33.09v-.59l-.33.09v-.59l-.33.09v-.59l-.33.09v-.59l-.33.09v-.59l-.33.09v-.59l-.33.09v-.59l-.33.09v-.59l-.33.09v-.59l-.33.09v-.59l-.33.09v-.59l-.33.09v-.59l-.33.09v-.59l-.33.09v-.59l-.33.09v-.59l-.33.09v-.59l-.33.09v-.59l-.33.09v-.59l-.33.09v-.59l-.33.09v-.59l-.33.09v-.59l-.33.09v-.59l-.33.09v-.59l-.33.09v-.59l-.33.09v-.59l-.33.09v-.59l-.33.09v-.59l-.33.09v-.59l-.33.09v-.59l-.33.09v-.59l-.33.09v-.59l-.33.09v-.59l-.33.09v-.59l-.07.18v-.59l-.33.09v-.59l-.33.09v-.59l-.34.1v-.59l-.33.09v-.59l-.33.09v-.59l-.34.09v-23.23l2.87-.13c4.29-.19 6.08-.42 13.69-1.77l.84-.15v-4.51c0-4.3-.08-6.3-.56-9.68l-.4-2.87 2.85-.5 17.89-3.15 3.9-.69-.06.57.39-.07-.06.57.39-.07-.06.57.39-.07-.06.57.39-.07-.06.57.39-.07-.06.57.39-.07-.06.57.39-.07-.06.57.39-.07-.06.57.39-.07-.06.57.39-.07-.06.57.39-.07-.06.57.39-.07-.06.57.39-.07-.06.57.39-.07-.06.57.39-.07-.06.57.43-.09-.06.57.39-.07-.06.57.39-.07-.06.57.39-.07-.06.57.39-.07-.06.57.39-.07-.06.57.41-.07-.06.57.39-.07-.06.57.39-.07-.06.57.39-.07-.06.57.39-.07-.06.57.39-.07-.05.56.39-.07-.06.57.39-.07-.06.57.39-.07-.05.52 4.22-.74v-3.83c0-5.63-.11-8.2-.45-10.2l-.49-2.93 2.93-.52 17.59-3.1 4.03-.71-.08.57.41-.07-.08.57.41-.07-.08.57.41-.07-.08.57.41-.07-.08.57.41-.07-.08.57.41-.07-.08.57.41-.07-.08.57.41-.07-.08.57.41-.07-.08.57.41-.07-.08.57.41-.07-.08.57.41-.07-.08.57.41-.07-.08.57.41-.07-.08.57.41-.07-.08.57.41-.07-.08.57.41-.07-.08.57.41-.07-.08.57.41-.07-.08.57.41-.07-.08.57.41-.07-.08.57.41-.07-.08.57.41-.07-.08.57.41-.07v.52l.41-.07-.08.57.41-.07-.07.57.41-.07-.08.57.41-.07-.08.57.41-.07-.08.57.41-.07-.02.13c.99-.26 1.96-.55 3.01-.89l3.92-1.26v.61l.33-.11v.61l.33-.11v.61l.33-.11v.61l.33-.11v.61l.24-.08.52-.73 11.24-15.56 1.37-1.9 2.18.87c12.71 5.11 19.14 8.49 27.51 14.47l2.38 1.7-.12.18.45.32-.12.18.45.32-.12.18.45.32-.12.18.45.32-.12.18.45.32-.12.18.45.32-.12.18.45.32-.12.18.45.32-.12.18.45.32-.12.18.45.32-.12.18.45.32-.12.18.45.32-.12.18.45.32-.12.18.45.32-.12.18.45.32-.12.18.45.32-.12.18.45.32-.12.18.45.32-.12.18.45.32-.12.18.45.32-.12.18.45.32-.12.18.45.32-.12.18.45.32-.12.18.45.32-.12.18.45.32-.12.18.45.32-.12.18.45.32-.12.18.1.07c1.84-2.48 3.59-5.13 5.26-7.99 3.88-6.51 6.5-12.13 9.33-20.03l1.61-4.48 3.35 3.38c4.41 4.45 6.33 5.83 13.68 9.84l2.4 1.31-.11.26.44.24-.11.26.44.24-.11.26.44.24-.11.26.44.24-.11.26.44.24-.11.26.44.24-.11.26.44.24-.11.26.44.24-.11.26.44.24-.11.26.44.24-.11.26.44.24-.11.26.44.24-.11.26.44.24-.11.26.44.24-.11.26.44.24-.11.26.44.24-.11.26.44.24-.11.26.44.24-.11.26.44.24-.11.26.44.24-.11.26.44.24-.11.26.44.24-.11.26.18.1c.04-1.77.05-3.83.05-6.36v-19.06c0-5.98-.11-8.39-.57-12.25l-.33-2.81 2.79-.49 18.96-3.34 3.85-.68-.05.57.38-.07-.05.57.38-.07-.05.57.38-.07-.05.57.38-.07-.05.57.38-.07-.05.57.38-.07-.05.57.38-.07-.05.57.38-.07-.05.57.38-.07-.05.57.38-.07-.05.57.38-.07-.05.57.38-.07-.05.57.38-.07-.05.57.38-.07-.05.57.38-.07-.05.57.38-.07-.05.57.38-.07-.05.57.38-.07-.05.57.38-.07-.05.57.38-.07-.05.57.38-.07-.05.57.38-.07-.05.57.38-.07-.05.57.38-.07-.05.57.38-.07-.05.57.38-.07-.05.57.38-.07-.05.57.38-.07-.05.57.38-.07-.05.57.38-.07-.05.57.38-.07-.05.57.38-.07-.05.57.38-.07-.05.57.38-.07-.05.57.38-.07-.05.57.38-.07-.05.57.38-.07-.05.57.38-.07-.05.57.38-.07-.05.57.38-.07-.05.57.38-.07-.05.57.38-.07-.05.57.38-.07-.05.57.38-.07-.05.57.38-.07-.05.57.38-.07-.05.57.38-.07-.34 3.89c-.39 4.46-.48 6.17-.48 12.73v13.55c2.55-3.38 4.12-7.09 4.9-11.46.5-3.17 1.03-11.27 1.03-20.1v-10.01c0-6.83-.08-8.74-.57-12.73l-.34-2.82 2.8-.49 18.96-3.34 3.79-.67-.04.56.37-.07-.04.56.37-.07-.04.56.37-.07-.04.56.37-.07-.04.56.37-.07-.04.56.37-.07-.04.56.37-.07-.04.56.37-.07-.04.56.37-.07-.04.56.37-.07-.04.56.37-.07-.04.56.37-.07-.04.56.37-.07-.04.56.37-.07-.04.56.37-.07-.04.56.37-.07-.04.56.37-.07-.04.56.37-.07-.04.56.37-.07-.04.56.37-.07-.04.56.37-.07-.04.56.37-.07-.04.56.37-.07-.04.56.37-.07-.04.56.37-.07-.04.56.37-.07-.04.56.37-.07-.04.56.37-.07-.04.56.37-.07-.04.56.37-.07-.04.56.37-.07-.04.56.37-.07-.04.56.37-.07-.04.56.37-.07-.04.56.37-.07-.04.56.37-.07-.04.56.37-.07-.04.56.05-.01v-8.78l2.81-.18c5-.31 8.58-.76 14.72-1.85l28.07-4.95-.04-2.23v-.06c0-3.65-.16-6.59-.57-10.46l-.29-2.78 2.76-.49 18.28-3.22 3.85-.68-.05.57.38-.07-.05.57.38-.07-.05.57.38-.07-.05.57.38-.07-.05.57.38-.07-.05.57.38-.07-.05.57.38-.07-.05.57.38-.07-.05.57.38-.07-.05.57.38-.07-.05.57.38-.07-.05.57.38-.07-.05.57.38-.07-.05.57.38-.07-.05.57.38-.07-.05.57.38-.07-.05.57.38-.07-.05.57.38-.07-.05.57.38-.07-.05.57.38-.07-.05.57.38-.07-.05.57.38-.07-.05.57.38-.07-.05.57.38-.07-.05.57.38-.07-.05.57.38-.07-.05.57.38-.07-.05.57.38-.07v.05a63.14 63.14 0 0 0 6.18-1.7l3.93-1.27v.61l.33-.11v.61l.33-.11v.61l.33-.11v.61l.33-.11v.61l.33-.11v.61l.33-.11v.61l.33-.11v.61l.33-.11v.61l.33-.11v.61l.33-.11v.61l.33-.11v.61l.33-.11v.61l.33-.11v.61l.33-.11v.61l.33-.11v.61l.33-.11v.61l.33-.11v.61l.33-.11v.61l.33-.11v.61l.33-.11v.61l.16-.05V88.36l2.9-.09c4.44-.14 7.32-.45 16.68-2.11l44.87-7.91c5.44-.96 8.03-1.52 10.66-2.16l3.94-.96-.03.59.37-.09-.03.59.37-.09-.03.59.37-.09-.03.59.37-.09-.03.59.37-.09-.03.59.37-.09-.03.59.37-.09-.03.59.37-.09-.03.59.37-.09-.03.59.37-.09-.03.59.37-.09-.03.59.37-.09-.03.59.37-.09-.03.59.37-.09-.03.59.37-.09-.03.59.37-.09-.03.59.37-.09-.03.59.37-.09-.03.59.37-.09-.03.59.37-.09-.03.59.37-.09-.03.59.37-.09-.03.59.37-.09-.03.59.37-.09-.03.59.37-.09-.03.59.37-.09-.03.59.37-.09-.03.59.37-.09-.03.59.37-.09-.03.59.37-.09-.03.59.37-.09-.03.59.37-.09-.03.59.37-.09-.03.59.37-.09-.03.59.37-.09-.03.59.37-.09-.03.59.37-.09-.03.59.37-.09-.03.59.37-.09-.03.59.37-.09-.03.59.37-.09-.03.59.37-.09-.03.59.37-.09-.03.59.37-.09-.03.59.37-.09-.03.59.37-.09-.03.59.37-.09-.23 4.05v.08c-.19 3.28-.28 4.93-.28 9.62v31.47l.43-.97c.71-1.59.82-2.13.91-6.9l.39-53.57V80.8c0-4.17-.17-7.16-.56-9.98l-.4-2.88 2.86-.49 19.45-3.33 4.01-.69.04.57.41-.07-.07.57.41-.07-.08.57.41-.07-.07.57.41-.07-.09.57.41-.07-.07.57.41-.07-.07.57.41-.07-.07.57.41-.07-.07.57.41-.07-.07.57.41-.07-.07.57.41-.07-.07.57.41-.07-.07.57.41-.07-.07.57.41-.07-.07.57.41-.07-.07.57.41-.07-.07.57.41-.07-.07.57.41-.07-.07.57.41-.07-.07.57.41-.07-.07.57.41-.07-.07.57.41-.07-.07.57.41-.07-.07.57.41-.07-.07.57.41-.07-.07.57.41-.07-.07.57.41-.07-.07.57.41-.07-.07.57.41-.07-.07.57.41-.07-.07.57.41-.07-.07.57.41-.07-.07.57.41-.07-.07.57.41-.07-.07.57.41-.07-.07.57.41-.07-.07.57.41-.07-.07.57.41-.07-.07.57.41-.07-.07.57.41-.07-.07.57.41-.07-.07.57.41-.07-.07.57.41-.07-.07.57.41-.07-.07.57.41-.07-.07.57.41-.07-.07.57.41-.07-.53 4.03c-.46 3.5-.56 5.85-.66 11.61l-.15 13.38c9.14-7.18 16.35-16.33 21.52-27.38l2.03-4.34 3.02 3.73c4.39 5.42 7.16 7.85 12.35 10.82l2.64 1.51-.14.23.47.27-.14.23.47.27-.14.23.47.27-.14.23.47.27-.14.23.47.27-.14.23.47.27-.14.23.47.27-.14.23.47.27-.14.23.47.27-.14.23.47.27-.14.23.47.27-.14.23.47.27-.14.23.47.27-.14.23.47.27-.14.23.47.27-.14.23.47.27-.14.23.47.27-.14.23.47.27-.14.23.47.27-.14.23.47.27-.14.23.47.27-.14.23.47.27-.14.23.47.27-.14.23.47.27-.14.23.47.27-.14.23.47.27-.14.23.47.27-.14.23.47.27-.14.23.47.27-.14.23.47.27-.14.23.47.27-.14.23.47.27-.14.23.47.27-.14.23.47.27-.14.23.47.27-.14.23.47.27-.14.23.47.27-.14.23.47.27-.14.23.47.27-.14.23.47.27-.14.23.47.27-.14.23.47.27-.14.23.24.14c1.2-.65 2.37-1.31 3.51-1.96-.44-.19-.89-.39-1.38-.59l-4.44-1.87.28-.24-.61-.26.28-.24-.61-.26.28-.24-.61-.26.28-.24-.61-.26.28-.24-.61-.26.28-.24-.61-.26.28-.24-.61-.26.28-.24-.61-.26.28-.24-.61-.26.28-.24-.61-.26.28-.24-.61-.26.28-.24-.61-.26.28-.24-.61-.26.28-.24-.61-.26.28-.24-.61-.26.28-.24-.61-.26.28-.24-.61-.26.28-.24-.61-.26.28-.24-.61-.26.28-.24-.61-.26.28-.24-.61-.26.28-.24-.61-.26.28-.24-.61-.26.28-.24-.61-.26.28-.24-.61-.26.28-.24-.61-.26.28-.24-.61-.26.28-.24-.61-.26.28-.24-.61-.26.28-.24-.61-.26.28-.24-.61-.26.28-.24-.61-.26.28-.24-.61-.26.28-.24-.61-.26.28-.24-.61-.26.28-.24-.61-.26.28-.24-.61-.26.28-.24-.61-.26.28-.24-.61-.26.28-.24-.61-.26.28-.24-.61-.26.28-.24-.61-.26.28-.24-.61-.26.28-.24-.61-.26.28-.24-.61-.26.28-.24-.61-.26.28-.24-.61-.26 3.63-3.16c11.53-10.03 19.08-19.89 25.25-32.95 2.44-5.24 3.51-8.34 3.95-11.45l.36-2.58h2.61l18.47.02h4.9l-.26.5h.59l-.26.5h.59l-.26.5h.59l-.26.5h.59l-.26.5h.59l-.26.5h.59l-.26.5h.59l-.26.5h.59l-.26.5h.59l-.26.5h.59l-.26.5h.59l-.26.5h.59l-.26.5h.59l-.26.5h.59l-.26.5h.59l-.26.5h.56l9.12-1.72c3.55-.63 4.31-.92 6.32-2.01l1.75-.95 1.56 1.24 8.11 6.46 1.98 1.58-.09.16.42.34-.09.16.42.34-.09.16.42.34-.09.16.42.34-.09.16.42.34-.09.16.42.34-.09.16.42.34-.09.16.42.34-.09.16.42.34-.09.16.42.34-.09.16.42.34-.09.16.42.34-.09.16.42.34-.09.16.42.34-.09.16.42.34-.09.16.42.34-.09.16.42.34-.09.16.42.34-.09.16.42.34-.09.16.42.34-.09.16.42.34-.09.16.42.34-.09.16.12.1 4.89-8.34.28-.48-.17-.03.23-.41-.57-.09.23-.41-.74-.19.23-.41-.57-.09.23-.41-.57-.09.23-.41-.55-.09.23-.41-.57-.09.23-.41-.57-.09.23-.41-.57-.09.23-.41-.57-.09.23-.41-.57-.09.23-.41-.57-.09 2.16-3.75 8.7-15.11 1.06-1.83 2.08.38c11.61 2.12 20.17 4.46 28.62 7.83l3.12 1.24-.16.3.49.2-.16.3.49.2-.16.3.49.2-.16.3.49.2-.16.3.49.2-.16.3.49.2-.16.3.49.2-.16.3.49.2-.16.3.49.2-.16.3.49.2-.16.3.49.2-.16.3.49.2-.16.3.49.2-.16.3.49.2-.16.3.49.2-.16.3.49.2-.16.3.49.2-.16.3.49.2-.16.3.49.2-.16.3.49.2-.16.3.49.2-.16.3.49.2-.16.3.49.2-.16.3.49.2-.16.3.49.2-.16.3.49.2-.16.3.49.2-.16.3.49.2-.16.3.49.2-.16.3.49.2-.16.3.49.2-.16.3.49.2-.16.3.49.2-.16.3.49.2-.16.3.49.2-.16.3.49.2-.16.3.32.13c2.96-5.22 5.15-10.38 7.58-17.7l1.41-4.24 3.39 2.91c5.61 4.81 8.2 6.67 13.5 8.94l2.69 1.15-.12.3.45.19-.12.3.45.19-.12.3.45.19-.12.3.45.19-.12.3.45.19-.12.3.45.19-.12.3.45.19-.12.3.45.19-.12.3.45.19-.12.3.45.19-.12.3.45.19-.12.3.45.19-.12.3.45.19-.12.3.45.19-.12.3.45.19-.12.3.45.19-.12.3.45.19-.12.3.45.19-.12.3.45.19-.12.3.45.19-.12.3.45.19-.12.3.45.19-.12.3.45.19-.12.3.45.19-.12.3.45.19-.12.3.45.19-.12.3.45.19-.12.3.45.19-.12.3.45.19-.12.3.45.19-.12.3.45.19-.12.3.45.19-.12.3.45.19-.12.3.26.11v-6.01l-.27.08v-.6l-.33.1v-.6l-.33.1v-.6l-.33.1v-.6l-.33.1v-.6l-.33.1v-.6l-.33.1v-.6l-.33.1v-.6l-.33.1v-20.9l2.87-.13c4.29-.19 6.46-.49 11.73-1.42l39.98-7.05c4.54-.8 5.92-1.13 8.59-1.8l3.88-.97-.02.59.36-.09.18.59.36-.09-.02.59.36-.09-.02.59.36-.09-.04.59.36-.09-.02.59.36-.09-.02.59.36-.09-.04.59.36-.09-.02.59.36-.09-.02.59.36-.09-.04.58.36-.09-.02.59.36-.09-.02.59.36-.09-.02.59.36-.09-.02.59.36-.09-.02.59.36-.09-.02.59.36-.09-.02.59.36-.09-.02.59.36-.09-.02.59.36-.09-.02.59.36-.09-.02.59.36-.09-.02.59.36-.09-.02.59.36-.09-.02.59.36-.09-.02.59.36-.09-.02.59.36-.09-.02.59.36-.09-.02.59.36-.09-.02.59.36-.09-.02.59.36-.09-.02.59.36-.09-.02.59.36-.09-.02.59.36-.09-.02.59.36-.09-.02.59.36-.09-.02.59.36-.09-.02.59.36-.09-.02.59.36-.09-.02.59.36-.09-.02.59.36-.09-.02.59.36-.09-.02.59.36-.09-.02.59.36-.09-.02.59.36-.09-.02.59.36-.09-.02.59.36-.09-.16 4c-.09 2.31-.19 5.86-.19 8.87v5.48l1.46-.37c9.25-2.35 18.6-6.14 27.17-10.97a75.897 75.897 0 0 0-12.79-5.88l-3.77-1.34.22-.3-.55-.2.22-.3-.55-.2.22-.3-.55-.2.22-.3-.55-.2.22-.3-.55-.2.22-.3-.55-.2.22-.3-.55-.2.22-.3-.55-.2.22-.3-.55-.2.22-.3-.55-.2.22-.3-.55-.2.22-.3-.55-.2.22-.3-.55-.2.22-.3-.55-.2.22-.3-.55-.2.22-.3-.55-.2.22-.3-.55-.2.22-.3-.55-.2.22-.3-.55-.2.22-.3-.55-.2.22-.3-.55-.2.22-.3-.55-.2.22-.3-.55-.2.22-.3-.55-.2.22-.3-.55-.2.22-.3-.55-.2.22-.3-.55-.2.22-.3-.55-.2.22-.3-.55-.2.22-.3-.55-.2.22-.3-.55-.2.22-.3-.55-.2.22-.3-.55-.2.22-.3-.55-.2.22-.3-.55-.2.22-.3-.55-.2.22-.3-.55-.2.22-.3-.55-.2.22-.3-.55-.2.22-.3-.55-.2.22-.3-.55-.2.22-.3-.55-.2.22-.3-.55-.2.22-.3-.55-.2.22-.3-.55-.2.22-.3-.55-.2.22-.3-.55-.2 2.34-3.24L838 6.65l1.37-1.9 2.18.87c12.71 5.11 19.14 8.49 27.51 14.47l2.38 1.7-.12.18.45.32-.12.18.45.32-.12.18.45.32-.12.18.45.32-.12.18.45.32-.12.18.45.32-.12.18.45.32-.12.18.45.32-.12.18.45.32-.12.18.45.32-.12.18.45.32-.12.18.45.32-.12.18.45.32-.12.18.45.32-.12.18.45.32-.12.18.45.32-.12.18.45.32-.12.18.45.32-.12.18.45.32-.12.18.45.32-.12.18.45.32-.12.18.45.32-.12.18.45.32-.12.18.45.32-.12.18.45.32-.12.18.45.32-.12.18.45.32-.12.18.1.07c1.84-2.48 3.59-5.13 5.26-7.99 3.88-6.51 6.5-12.13 9.33-20.03L896.59 3M748.76 85.07c.85-.04 1.65-.09 2.47-.17v-.47l-.33.09v-.59l-.33.09v-.59l-.33.09v-.59l-.33.09v-.56c-.39.9-.78 1.77-1.15 2.61M650 100.85l.39-.08c2.15-.43 4.52-1.04 7.01-1.81l.22-.38-.56-.11.23-.39-.56-.11.23-.39-.56-.11.23-.39-.56-.11.23-.39-.56-.11.23-.39-.56-.11.23-.39-.56-.11.23-.39-.56-.11.23-.39-.56-.11.23-.39-.56-.11.23-.39-.56-.11.23-.39-.56-.11.23-.39-.56-.11.23-.39-.24-.05c-.99 3.05-2.01 5.99-3.09 8.82m-265.44 40.92c2.22-.32 5.06-.8 9.3-1.55l36.62-6.46v-5.35l-18.78 3.31c-9.07 1.6-12.63 2.33-16.55 3.39l-3.78 1.02v-.59l-.33.09v-.59l-.33.09v-.59l-.33.09v-.59l-.33.09v-.59l-.33.09v-.59l-.33.09v-.59l-.33.09v-.59l-.33.09v-.59l-.33.09v-.59l-.33.09v-.59l-.33.09v-.59l-.33.09v-.59l-.33.09v-.59l-.33.09v-.59l-.33.09v-.59l-.33.09v-.59l-.33.09v-.59l-.33.09v-.59l-.33.09v-.59l-.33.09v-.59l-.16.04v16.19M282.47 159.4c2.88-2.03 5.58-4.06 8.11-6.1v-.53l-.33.09v-.59l-.33.09v-.59l-.33.09v-.59l-.33.09v-.59l-.33.09v-.59l-.33.09v-.59l-.33.09v-.59l-.33.09v-.59l-.33.09v-.59l-.33.09v-.59l-.33.09v-.59l-.33.09v-.59l-.33.09v-.59l-.33.09v-.59l-.33.09v-.59l-.33.09v-.59l-.33.09v-.59l-.33.09v-.59l-.33.09v-.59l-.33.09v-.59l-.33.09v-.59l-.33.09v-.59l-.33.09v-.59l-.33.09v-.59l-.08.02c-.01.92-.01 1.96-.01 3.19v11.26c-.07 1.45-.08 2.82-.1 4.16m-168.11 32.3c5.6-2.07 11.1-4.64 16.31-7.58a75.897 75.897 0 0 0-12.79-5.88l-3.53-1.25v14.71m166.6-11.14.11-.07-.09-.07c0 .04-.01.09-.02.14M896.59 0a2.971 2.971 0 0 0-2.82 1.99l-1.61 4.48c-2.76 7.71-5.31 13.18-9.09 19.51-.82 1.4-1.66 2.76-2.53 4.08-.05-.06-.09-.13-.14-.19-.09-.18-.2-.34-.33-.5-.09-.18-.2-.34-.33-.5-.09-.18-.2-.34-.33-.5-.09-.18-.2-.34-.33-.5-.09-.18-.2-.34-.33-.5-.09-.18-.2-.34-.33-.5-.09-.18-.2-.34-.33-.5-.09-.18-.2-.34-.33-.5-.09-.18-.2-.34-.33-.5-.09-.18-.2-.34-.33-.5-.09-.18-.2-.34-.33-.5-.09-.18-.2-.34-.33-.5-.09-.18-.2-.34-.33-.5-.09-.18-.2-.34-.33-.5-.09-.18-.2-.34-.33-.5-.09-.18-.2-.34-.33-.5-.09-.18-.2-.34-.33-.5-.09-.18-.2-.34-.33-.5-.09-.18-.2-.34-.33-.5-.21-.4-.52-.75-.91-1.03l-2.38-1.7c-8.59-6.14-15.16-9.6-28.13-14.81l-2.18-.87a2.995 2.995 0 0 0-3.55 1.02l-1.37 1.9-11.24 15.56-2.34 3.24c-.55.77-.71 1.75-.43 2.65.12.37.3.72.55 1.01.09.18.21.34.33.5.09.18.21.34.33.5.09.18.21.34.33.5.09.18.21.34.33.5.09.18.21.35.33.5.09.18.21.34.33.5.09.18.21.35.33.5.09.18.21.34.33.5.09.18.21.34.33.5.09.18.21.34.33.5.09.18.21.34.33.5.09.18.21.35.33.5.09.18.21.34.33.5.09.18.21.34.33.5.09.18.21.34.33.5.09.18.21.34.33.5.09.18.21.34.33.5.09.18.21.35.33.5.09.18.21.34.33.5.09.18.21.34.33.5.09.18.21.34.33.5.09.18.21.35.33.5.09.18.21.34.33.5.09.18.21.34.33.5.09.18.21.35.33.5.09.18.21.34.33.5.09.18.21.34.33.5.09.18.21.34.33.5.09.18.21.34.33.5.09.18.21.34.33.5.09.18.21.34.33.5.09.18.21.35.33.5.09.18.21.34.33.5.09.18.21.35.33.5.09.18.21.34.33.5.09.18.21.34.33.5.09.18.21.34.33.5.09.18.21.35.33.5.09.18.21.34.33.5.09.18.21.34.33.5.09.18.21.34.33.5.09.18.21.34.33.5.09.18.21.34.33.5.09.18.21.35.33.5.09.18.21.34.33.5.09.18.21.34.33.5.35.66.93 1.17 1.65 1.42l3.77 1.34c2.57.91 5.02 1.93 7.39 3.06-6.23 3.11-12.76 5.64-19.22 7.45v-1.6c0-2.96.1-6.46.19-8.75l.16-4c.03-.74-.22-1.46-.68-2.03-.09-.18-.2-.34-.33-.5-.09-.18-.2-.34-.33-.5-.09-.18-.21-.34-.33-.5-.09-.18-.2-.34-.33-.5-.09-.18-.21-.34-.33-.5-.09-.18-.2-.34-.33-.5-.09-.18-.2-.34-.33-.5-.09-.18-.2-.34-.33-.5-.09-.18-.2-.34-.33-.5-.09-.18-.2-.34-.33-.5-.09-.18-.2-.34-.33-.5-.09-.18-.2-.34-.33-.5-.09-.18-.2-.34-.33-.5-.09-.18-.2-.34-.33-.5-.09-.18-.2-.34-.33-.5-.09-.18-.2-.34-.33-.5-.09-.18-.2-.34-.33-.5-.09-.18-.2-.34-.33-.5-.09-.18-.2-.34-.33-.5-.09-.18-.2-.34-.33-.5-.09-.18-.2-.34-.33-.5-.09-.18-.2-.34-.33-.5-.09-.18-.21-.34-.33-.5-.09-.18-.2-.34-.33-.5-.09-.18-.2-.34-.33-.5-.09-.18-.2-.34-.33-.5-.09-.18-.2-.34-.33-.5-.09-.18-.21-.34-.33-.5-.09-.18-.2-.34-.33-.5-.09-.18-.21-.34-.33-.5-.09-.18-.2-.34-.33-.5-.09-.18-.2-.34-.33-.5-.09-.18-.2-.34-.33-.5-.09-.18-.2-.34-.33-.5-.09-.18-.2-.34-.33-.5-.09-.18-.2-.34-.33-.5-.09-.18-.2-.34-.33-.5-.09-.18-.2-.34-.33-.5-.09-.18-.21-.34-.33-.5-.09-.18-.2-.34-.33-.5-.09-.18-.2-.34-.33-.5-.09-.18-.2-.34-.33-.5-.09-.18-.2-.34-.33-.5-.09-.18-.2-.34-.33-.5-.09-.18-.2-.34-.33-.5-.09-.18-.2-.34-.33-.5-.19-.35-.44-.66-.76-.92a2.99 2.99 0 0 0-2.61-.58l-3.88.97c-2.61.65-3.95.97-8.39 1.75l-39.98 7.05c-5.2.92-7.2 1.19-11.35 1.38l-2.87.13c-1.6.07-2.87 1.39-2.87 3V53.6c-.06-.1-.13-.19-.21-.28-.09-.18-.2-.34-.33-.5-.09-.18-.2-.34-.33-.5-.09-.18-.2-.34-.33-.5-.09-.18-.2-.34-.33-.5-.09-.18-.2-.34-.33-.5-.09-.18-.2-.34-.33-.5-.09-.18-.2-.34-.33-.5-.31-.58-.81-1.07-1.47-1.35l-2.69-1.15c-4.97-2.13-7.3-3.81-12.73-8.46l-3.39-2.91c-.55-.47-1.25-.72-1.95-.72-.27 0-.54.04-.8.11-.96.27-1.73 1-2.05 1.95l-1.41 4.24c-1.69 5.08-3.24 9.05-4.98 12.67-.07-.12-.16-.24-.25-.35-.09-.18-.21-.34-.33-.5-.09-.18-.21-.34-.33-.5-.09-.18-.21-.34-.33-.5-.09-.18-.21-.34-.33-.5-.09-.18-.21-.34-.33-.5-.09-.18-.21-.34-.33-.5-.09-.18-.21-.34-.33-.5-.09-.18-.21-.34-.33-.5-.09-.18-.21-.35-.33-.5-.09-.18-.21-.34-.33-.5-.09-.18-.21-.34-.33-.5-.09-.18-.21-.34-.33-.5-.09-.18-.21-.34-.33-.5-.09-.18-.21-.34-.33-.5-.09-.18-.21-.34-.33-.5-.09-.18-.21-.34-.33-.5-.09-.18-.21-.34-.33-.5-.09-.18-.21-.34-.33-.5-.09-.18-.21-.34-.33-.5-.09-.18-.21-.34-.33-.5-.09-.18-.21-.34-.33-.5-.09-.18-.21-.34-.33-.5-.09-.18-.21-.34-.33-.5-.09-.18-.21-.34-.33-.5-.09-.18-.21-.34-.33-.5-.09-.18-.21-.35-.33-.5-.09-.18-.21-.34-.33-.5a3.01 3.01 0 0 0-1.54-1.38l-3.12-1.24c-8.65-3.45-17.38-5.84-29.2-7.99l-2.08-.38a2.998 2.998 0 0 0-3.14 1.45l-1.06 1.83-8.7 15.11-2.16 3.75c-.49.85-.53 1.89-.11 2.78.11.22.24.43.39.62.09.18.21.35.33.5.09.18.21.34.33.5.09.18.21.35.33.5.09.18.21.35.33.5.09.18.21.35.33.5.09.18.21.34.33.5.09.18.21.35.33.5.06.12.13.23.21.34l-1.67 2.84a2.7 2.7 0 0 0-.27-.39c-.09-.18-.2-.34-.33-.5-.09-.18-.2-.34-.33-.5-.09-.18-.2-.34-.33-.5-.09-.18-.2-.34-.33-.5-.09-.18-.2-.34-.33-.5-.09-.18-.2-.34-.33-.5-.09-.18-.2-.34-.33-.5-.09-.18-.2-.34-.33-.5-.09-.18-.2-.34-.33-.5-.09-.18-.2-.34-.33-.5-.09-.18-.2-.34-.33-.5-.09-.18-.2-.34-.33-.5-.09-.18-.2-.34-.33-.5a2.93 2.93 0 0 0-.78-.94l-1.98-1.58-8.11-6.46-1.56-1.24c-.54-.43-1.2-.65-1.87-.65-.49 0-.99.12-1.44.37l-1.75.95c-1.65.9-2.12 1.11-5.4 1.69l-7.19 1.35a.27.27 0 0 0-.07-.08c-.03-.05-.06-.11-.09-.16-.07-.12-.15-.23-.24-.34-.03-.05-.06-.11-.09-.16-.07-.12-.15-.23-.24-.34-.03-.05-.06-.11-.09-.16-.07-.12-.15-.23-.24-.34-.03-.05-.06-.11-.09-.16-.07-.12-.15-.23-.24-.34-.03-.05-.06-.11-.09-.16-.07-.12-.16-.24-.24-.34-.03-.05-.06-.1-.09-.16-.07-.12-.15-.23-.24-.34-.03-.05-.06-.11-.09-.16-.07-.12-.15-.23-.24-.34-.03-.05-.06-.11-.09-.16-.07-.12-.16-.23-.24-.34-.03-.05-.06-.11-.09-.16-.07-.12-.15-.23-.24-.34-.03-.05-.06-.11-.09-.16-.07-.12-.16-.23-.24-.34-.03-.05-.06-.11-.09-.16-.07-.12-.15-.23-.24-.34-.03-.05-.06-.11-.09-.16-.07-.12-.15-.23-.24-.34-.03-.05-.06-.11-.09-.16a2.996 2.996 0 0 0-2.56-1.44h-4.9l-18.47-.02h-2.61c-1.49 0-2.76 1.1-2.97 2.58l-.36 2.58c-.39 2.78-1.4 5.65-3.7 10.6-5.98 12.65-13.31 22.21-24.5 31.96l-3.63 3.16c-.33.29-.59.64-.76 1.03-1.97-1.64-3.76-3.57-6.06-6.43l-3.02-3.73a2.983 2.983 0 0 0-2.33-1.11c-.12 0-.24.01-.36.02-1.03.12-1.92.77-2.35 1.71l-2.03 4.34c-3.98 8.49-9.25 15.87-15.73 22.03l.08-6.73c.1-5.61.2-7.9.63-11.25l.53-4.03a2.95 2.95 0 0 0-.66-2.29c-.09-.18-.2-.34-.33-.5-.09-.18-.2-.34-.33-.5-.09-.18-.2-.34-.33-.5-.09-.18-.2-.34-.33-.5-.09-.18-.2-.34-.33-.5-.09-.18-.2-.34-.33-.5-.09-.18-.2-.34-.33-.5-.09-.18-.2-.34-.33-.5-.09-.18-.2-.34-.33-.5-.09-.18-.2-.34-.33-.5-.09-.18-.2-.34-.33-.5-.09-.18-.2-.34-.33-.5-.09-.18-.2-.34-.33-.5-.09-.18-.2-.34-.33-.5-.09-.18-.2-.34-.33-.5-.09-.18-.2-.34-.33-.5-.09-.18-.2-.34-.33-.5-.09-.18-.2-.34-.33-.5-.09-.18-.2-.34-.33-.5-.09-.18-.2-.34-.33-.5-.09-.18-.2-.34-.33-.5-.09-.18-.2-.34-.33-.5-.09-.18-.2-.34-.33-.5-.09-.18-.2-.34-.33-.5-.09-.18-.2-.34-.33-.5-.09-.18-.2-.34-.33-.5-.09-.18-.2-.34-.33-.5-.09-.18-.2-.34-.33-.5-.09-.18-.2-.34-.33-.5-.09-.18-.2-.34-.33-.5-.09-.18-.2-.34-.33-.5-.09-.18-.2-.34-.33-.5-.09-.18-.2-.34-.33-.5-.09-.18-.2-.34-.33-.5-.09-.18-.2-.34-.33-.5-.09-.18-.2-.34-.33-.5-.09-.18-.2-.34-.33-.5-.09-.18-.2-.34-.33-.5-.09-.18-.2-.34-.33-.5-.09-.18-.2-.34-.33-.5-.09-.18-.2-.34-.33-.5-.09-.18-.2-.34-.33-.5-.09-.18-.2-.34-.33-.5-.09-.18-.2-.34-.33-.5-.09-.18-.2-.34-.33-.5-.09-.18-.2-.34-.33-.5-.15-.28-.34-.53-.57-.76-.56-.54-1.31-.84-2.08-.84-.17 0-.34.01-.51.04l-4.01.69-19.45 3.33-2.86.49c-1.6.27-2.69 1.76-2.47 3.37l.4 2.88c.37 2.68.53 5.54.53 9.57v1.54l-.06 8.05c-.05-.07-.1-.14-.16-.21-.09-.18-.2-.34-.33-.5-.09-.18-.2-.34-.33-.5-.09-.18-.2-.34-.33-.5-.09-.18-.2-.34-.33-.5-.09-.18-.2-.34-.33-.5-.09-.18-.2-.34-.33-.5-.09-.18-.21-.34-.33-.5-.09-.18-.2-.34-.33-.5-.09-.18-.2-.34-.33-.5-.09-.18-.2-.34-.33-.5-.09-.18-.2-.34-.33-.5-.09-.18-.2-.34-.33-.5-.09-.18-.2-.34-.33-.5-.09-.18-.2-.34-.33-.5-.09-.18-.2-.34-.33-.5-.09-.18-.2-.34-.33-.5-.09-.18-.2-.34-.33-.5-.09-.18-.2-.34-.33-.5-.09-.18-.2-.34-.33-.5-.09-.18-.2-.34-.33-.5-.09-.18-.2-.34-.33-.5-.09-.18-.2-.34-.33-.5-.09-.18-.2-.34-.33-.5-.09-.18-.2-.34-.33-.5-.09-.18-.2-.34-.33-.5-.09-.18-.21-.34-.33-.5-.09-.18-.2-.34-.33-.5-.09-.18-.2-.34-.33-.5-.09-.18-.2-.34-.33-.5-.09-.18-.2-.34-.33-.5-.09-.18-.2-.34-.33-.5-.09-.18-.2-.34-.33-.5-.09-.18-.2-.34-.33-.5a3.014 3.014 0 0 0-2.65-1.6c-.24 0-.48.03-.71.09l-3.94.96c-2.57.63-5.11 1.18-10.47 2.12L394.8 83.2c-9.19 1.62-11.99 1.92-16.26 2.06l-2.9.09c-1.62.05-2.9 1.38-2.9 3v10.19c-.05-.07-.1-.15-.16-.22-.09-.18-.2-.34-.33-.5-.09-.18-.21-.34-.33-.5-.09-.18-.2-.34-.33-.5a2.9 2.9 0 0 0-.89-1.02 2.981 2.981 0 0 0-2.69-.42l-3.93 1.27c-1.37.45-2.61.81-3.9 1.14a.138.138 0 0 1-.03-.04c-.09-.18-.2-.34-.33-.5-.09-.18-.2-.34-.33-.5-.09-.18-.2-.34-.33-.5-.09-.18-.2-.34-.33-.5-.09-.18-.2-.34-.33-.5-.09-.18-.2-.34-.33-.5-.09-.18-.2-.34-.33-.5-.09-.18-.2-.34-.33-.5-.09-.18-.2-.34-.33-.5-.09-.18-.2-.34-.33-.5-.09-.18-.2-.34-.33-.5-.09-.18-.2-.34-.33-.5-.09-.18-.2-.34-.33-.5-.09-.18-.2-.34-.33-.5-.09-.18-.2-.34-.33-.5-.09-.18-.2-.34-.33-.5-.09-.18-.21-.34-.33-.5-.09-.18-.2-.34-.33-.5-.09-.18-.2-.34-.33-.5-.09-.18-.2-.34-.33-.5-.09-.18-.2-.34-.33-.5-.09-.18-.2-.34-.33-.5-.09-.18-.2-.34-.33-.5-.09-.18-.2-.34-.33-.5-.16-.3-.37-.57-.62-.81-.56-.51-1.28-.79-2.03-.79-.17 0-.35.02-.52.05l-3.85.68-18.28 3.22-2.76.49c-1.55.27-2.63 1.7-2.46 3.27l.3 2.78c.39 3.68.55 6.48.55 9.92l-25.54 4.5c-6.02 1.06-9.51 1.5-14.39 1.81l-2.81.18c-1.13.07-2.09.77-2.54 1.74-.08-.14-.18-.28-.28-.41-.09-.18-.2-.34-.33-.5-.09-.18-.21-.34-.33-.5-.09-.18-.2-.34-.33-.5-.09-.18-.2-.34-.33-.5-.09-.18-.2-.34-.33-.5-.09-.18-.2-.34-.33-.5-.09-.18-.2-.34-.33-.5-.09-.18-.2-.34-.33-.5-.09-.18-.2-.34-.33-.5-.09-.18-.2-.34-.33-.5-.09-.18-.2-.34-.33-.5-.09-.18-.2-.34-.33-.5-.09-.18-.2-.34-.33-.5-.09-.18-.2-.34-.33-.5-.09-.18-.2-.34-.33-.5-.09-.18-.2-.34-.33-.5-.09-.18-.2-.34-.33-.5-.09-.18-.2-.34-.33-.5-.09-.18-.2-.34-.33-.5-.09-.18-.2-.34-.33-.5a3.006 3.006 0 0 0-2.65-1.59c-.17 0-.35.02-.52.05l-3.79.67-18.96 3.34-2.8.49a3.001 3.001 0 0 0-2.46 3.31l.34 2.82c.46 3.84.54 5.69.54 12.37v9.17c-.04-.06-.09-.12-.14-.18-.09-.18-.2-.34-.33-.5-.09-.18-.2-.34-.33-.5-.09-.18-.2-.34-.33-.5-.09-.18-.2-.34-.33-.5-.09-.18-.2-.34-.33-.5-.09-.18-.2-.34-.33-.5-.09-.18-.2-.34-.33-.5-.09-.18-.2-.34-.33-.5-.09-.18-.2-.34-.33-.5-.09-.18-.2-.34-.33-.5-.09-.18-.2-.34-.33-.5-.09-.18-.2-.34-.33-.5-.09-.18-.2-.34-.33-.5-.09-.18-.2-.34-.33-.5-.09-.18-.2-.34-.33-.5-.09-.18-.2-.34-.33-.5-.09-.18-.2-.34-.33-.5-.09-.18-.2-.34-.33-.5-.09-.18-.2-.34-.33-.5-.09-.18-.2-.34-.33-.5-.09-.18-.2-.34-.33-.5-.09-.18-.2-.34-.33-.5-.09-.18-.2-.34-.33-.5-.09-.18-.2-.34-.33-.5-.09-.18-.2-.34-.33-.5-.09-.18-.2-.34-.33-.5-.09-.18-.2-.34-.33-.5-.09-.18-.2-.34-.33-.5-.09-.18-.2-.34-.33-.5-.09-.18-.2-.34-.33-.5-.09-.18-.2-.34-.33-.5-.09-.18-.2-.34-.33-.5-.09-.18-.2-.34-.33-.5-.09-.18-.2-.34-.33-.5-.09-.18-.2-.34-.33-.5-.09-.18-.21-.34-.33-.5-.09-.18-.2-.34-.33-.5-.09-.18-.2-.34-.33-.5-.09-.18-.2-.34-.33-.5-.09-.18-.2-.34-.33-.5-.09-.18-.2-.34-.33-.5-.09-.18-.2-.34-.33-.5-.09-.18-.2-.34-.33-.5-.09-.18-.2-.34-.33-.5-.09-.18-.2-.34-.33-.5-.16-.3-.37-.57-.62-.81-.56-.51-1.28-.79-2.03-.79-.17 0-.35.02-.52.05l-3.85.68-18.96 3.34-2.79.49a3.01 3.01 0 0 0-2.46 3.31l.33 2.81c.44 3.73.55 6.06.55 11.9v15.34c-.04-.05-.08-.11-.12-.16-.09-.18-.2-.34-.33-.5-.09-.18-.2-.34-.33-.5-.09-.18-.2-.34-.33-.5-.09-.18-.2-.34-.33-.5-.09-.18-.2-.34-.33-.5-.27-.5-.68-.93-1.21-1.22l-2.4-1.31c-7.09-3.87-8.79-5.09-12.98-9.32l-3.35-3.38a3.023 3.023 0 0 0-2.78-.82c-1.01.22-1.83.95-2.17 1.92l-1.61 4.48c-2.76 7.71-5.31 13.18-9.08 19.51-.82 1.4-1.66 2.76-2.53 4.08-.05-.06-.09-.13-.14-.19-.09-.18-.2-.34-.33-.5-.09-.18-.2-.34-.33-.5-.09-.18-.2-.34-.33-.5-.09-.18-.2-.34-.33-.5-.09-.18-.2-.34-.33-.5-.09-.18-.2-.34-.33-.5-.09-.18-.2-.34-.33-.5-.09-.18-.2-.34-.33-.5-.09-.18-.2-.34-.33-.5-.09-.18-.2-.34-.33-.5-.09-.18-.2-.34-.33-.5-.09-.18-.2-.34-.33-.5-.09-.18-.2-.34-.33-.5-.09-.18-.2-.34-.33-.5-.09-.18-.2-.34-.33-.5-.09-.18-.2-.34-.33-.5-.09-.18-.2-.34-.33-.5-.09-.18-.2-.34-.33-.5-.09-.18-.2-.34-.33-.5-.21-.4-.52-.75-.91-1.03l-2.38-1.7c-8.59-6.14-15.16-9.6-28.13-14.81l-2.18-.87c-.36-.15-.74-.22-1.12-.22-.94 0-1.86.44-2.43 1.24l-1.37 1.9-9.36 12.95c-.47-.29-1.01-.43-1.55-.43-.31 0-.62.05-.92.14l-3.92 1.26c-.26.08-.5.16-.75.24 0-.01-.01-.01-.01-.02-.09-.18-.2-.34-.33-.5-.09-.18-.21-.34-.33-.5-.09-.18-.2-.34-.33-.5-.09-.18-.2-.34-.33-.5-.09-.18-.2-.34-.33-.5-.09-.18-.2-.34-.33-.5-.09-.18-.2-.34-.33-.5-.09-.18-.2-.34-.33-.5-.09-.18-.2-.34-.33-.5-.09-.18-.2-.34-.33-.5-.09-.18-.2-.34-.33-.5-.09-.18-.2-.34-.33-.5-.09-.18-.2-.34-.33-.5-.09-.18-.2-.34-.33-.5-.09-.18-.2-.34-.33-.5-.09-.18-.2-.34-.33-.5-.09-.18-.2-.34-.33-.5-.09-.18-.2-.34-.33-.5-.09-.18-.2-.34-.33-.5-.09-.18-.2-.34-.33-.5-.09-.18-.2-.34-.33-.5-.09-.18-.2-.34-.33-.5-.09-.18-.2-.34-.33-.5-.09-.18-.2-.34-.33-.5-.09-.18-.2-.34-.33-.5-.09-.18-.2-.34-.33-.5-.15-.28-.34-.54-.58-.76-.56-.54-1.31-.83-2.08-.83-.17 0-.35.02-.52.05l-4.03.71-17.59 3.1-2.93.52a3.003 3.003 0 0 0-2.44 3.45l.49 2.93c.3 1.79.41 4.33.41 9.71v.41c-.06-.09-.12-.17-.19-.25-.09-.18-.2-.34-.33-.5-.09-.18-.2-.34-.33-.5-.09-.18-.2-.34-.33-.5-.09-.18-.2-.34-.33-.5-.09-.18-.2-.34-.33-.5-.09-.18-.2-.34-.33-.5-.09-.18-.2-.34-.33-.5-.09-.18-.2-.34-.33-.5-.09-.18-.2-.34-.33-.5-.09-.18-.2-.34-.33-.5-.09-.18-.2-.34-.33-.5-.09-.18-.2-.34-.33-.5-.09-.18-.2-.34-.33-.5-.09-.18-.2-.34-.33-.5-.09-.18-.2-.34-.33-.5-.09-.18-.2-.34-.33-.5-.09-.18-.2-.34-.33-.5-.09-.18-.2-.34-.33-.5-.09-.18-.2-.34-.33-.5-.09-.18-.21-.34-.33-.5-.09-.18-.2-.34-.33-.5-.09-.18-.2-.34-.33-.5-.09-.18-.2-.34-.33-.5-.09-.18-.2-.34-.33-.5-.09-.18-.2-.34-.33-.5a2.996 2.996 0 0 0-2.65-1.59c-.17 0-.35.02-.52.05l-3.9.69-17.89 3.15-2.85.5a2.995 2.995 0 0 0-2.45 3.37l.4 2.87c.45 3.23.53 5.06.53 9.26v1.99c-6.09 1.06-7.87 1.27-11.67 1.44l-2.87.13c-1.6.07-2.87 1.39-2.87 3v23.23c0 .7.25 1.37.68 1.91.09.18.2.34.33.5.09.18.21.34.33.5.09.18.2.34.33.5.09.18.21.34.33.5.09.18.2.34.33.5.09.18.21.34.33.5.09.18.21.34.33.5.09.18.2.34.33.5.09.18.21.34.33.5.09.18.2.34.33.5.09.18.21.34.33.5.09.18.2.34.33.5.09.18.21.34.33.5.09.18.2.34.33.5.09.18.21.34.33.5.09.18.2.34.33.5.09.18.2.34.33.5.09.18.21.34.33.5.09.18.2.34.33.5.09.18.21.34.33.5.09.18.2.34.33.5.09.18.21.34.33.5.09.18.2.34.33.5.09.18.21.34.33.5.09.18.2.34.33.5.09.18.21.34.33.5.09.18.2.34.33.5.09.18.21.34.33.5.09.18.2.34.33.5.09.18.2.34.33.5.09.18.2.34.33.5.09.18.2.34.33.5.09.18.21.34.33.5.09.18.2.34.33.5.09.18.2.34.33.5.09.18.2.34.33.5.09.18.21.34.33.5.09.18.2.34.33.5.09.18.2.34.33.5.09.18.2.34.33.5.09.18.21.34.33.5.09.18.2.34.33.5.09.18.21.34.33.5.09.18.2.34.33.5.09.18.21.34.33.5.09.18.2.34.33.5a2.995 2.995 0 0 0 3.42 1.49l2.11-.56.1.13c.09.18.2.34.33.5.09.18.2.34.33.5.09.18.2.34.33.5.09.18.2.34.33.5.06.12.14.24.22.35a3.006 3.006 0 0 0 .59 2.65c.09.18.2.34.33.5.09.18.2.34.33.5.09.18.2.34.33.5.09.18.2.34.33.5.09.18.2.34.33.5.09.18.2.34.33.5.09.18.21.34.33.5.09.18.2.34.33.5.09.18.2.34.33.5.09.18.2.34.33.5.09.18.2.34.33.5.09.18.2.34.33.5.09.18.2.34.33.5.09.18.2.34.33.5.09.18.2.34.33.5.09.18.2.34.33.5.09.18.2.34.33.5.09.18.2.34.33.5.09.18.2.34.33.5.09.18.2.34.33.5.09.18.2.34.33.5.09.18.2.34.33.5.09.18.2.34.33.5.09.18.2.34.33.5.09.18.2.34.33.5.09.18.21.34.33.5.09.18.2.34.33.5.09.18.2.34.33.5.09.18.2.34.33.5.09.18.2.34.33.5.09.18.2.34.33.5.09.18.2.34.33.5.09.18.2.34.33.5.09.18.2.34.33.5.09.18.2.34.33.5.09.18.2.34.33.5.09.18.2.34.33.5.09.18.2.34.33.5.09.18.2.34.33.5.09.18.2.34.33.5.09.18.2.34.33.5.09.18.2.34.33.5.09.18.2.34.33.5.09.18.2.34.33.5.09.18.2.34.33.5.09.18.2.34.33.5.18.34.43.65.74.91l3.64 3.01c1.52 1.26 2.68 2.29 3.63 3.23v.01l.01.02c.09.17.2.33.32.48l.01.02c.09.17.2.33.32.48l.01.02c.09.17.2.33.32.48l.01.02c.09.17.2.33.32.48l.01.02c.09.17.2.33.32.48l.01.02c.09.17.2.33.32.48l.01.02c.09.17.2.33.32.48l.01.02c.09.17.2.33.32.48l.01.02c.09.17.2.33.32.48l.01.02c.09.17.2.33.32.48l.01.02c.09.17.2.33.32.48l.01.02c.09.17.2.33.32.48l.01.02c.09.17.2.33.32.48l.01.02c.09.17.2.33.32.48l.01.02c.09.17.2.33.32.48l.01.02c.09.17.2.33.32.48l.01.02c.09.17.2.33.32.48l.01.02c.09.17.2.33.32.48l.01.02c.09.17.2.33.32.48l.01.02c.09.17.2.33.32.48l.01.02c.09.17.2.33.32.48l.01.02a2.976 2.976 0 0 0 2.64 1.57c.5 0 .99-.12 1.44-.37l2.65-1.45c10.53-5.76 16-9.68 21.67-15.54 9.54-9.8 14.51-20.64 16.12-35.14.28-2.66.42-4.65.53-7.52l4.47 15.48.98 3.37c.11.4.31.76.56 1.07.09.18.21.34.33.5.09.18.21.34.33.5.09.18.21.34.33.5.09.18.21.34.33.5.09.18.21.34.33.5.09.18.21.34.33.5.09.18.21.35.33.5.09.18.21.34.33.5.09.18.21.34.33.5.09.18.21.34.33.5.09.18.21.34.33.5.09.18.21.34.33.5.09.18.21.34.33.5.09.18.21.34.33.5.09.18.21.34.33.5.09.18.21.34.33.5.09.18.21.34.33.5.09.18.21.35.33.5.09.18.21.34.33.5.09.18.21.34.33.5.09.18.21.34.33.5.09.18.21.34.33.5.09.18.21.34.33.5.09.18.21.35.33.5.09.18.21.34.33.5.09.18.21.35.33.5.09.18.21.34.33.5.09.18.21.34.33.5.09.18.21.34.33.5.09.18.21.34.33.5.09.18.21.34.33.5.09.18.21.34.33.5.09.18.21.34.33.5.09.18.21.35.33.5.09.18.21.34.33.5.09.18.21.35.33.5.09.18.21.34.33.5.09.18.21.34.33.5.09.18.21.34.33.5.09.18.21.34.33.5.09.18.21.34.33.5.09.18.21.34.33.5.09.18.21.34.33.5.09.18.21.34.33.5.09.18.21.34.33.5.09.18.21.34.33.5.31.58.8 1.05 1.41 1.33.39.18.82.27 1.24.27.43 0 .87-.09 1.27-.28l3.18-1.49c2.04-.95 2.67-1.21 5.04-2.16l1.69-.68c18.77-7.58 28.38-12.94 39.57-22.06 12.02-9.73 20.8-20.82 28.7-36.44-.01.04-.02.09-.03.14-.19.9.04 1.83.62 2.52.09.18.2.34.33.5.09.18.2.34.33.5.09.18.2.34.33.5.09.18.21.34.33.5.09.18.2.34.33.5.09.18.2.34.33.5.09.18.2.34.33.5.09.18.2.34.33.5.09.18.2.34.33.5.09.18.2.34.33.5.09.18.2.34.33.5.09.18.2.34.33.5.09.18.2.34.33.5.09.18.2.34.33.5.09.18.2.34.33.5.09.18.2.34.33.5.09.18.2.34.33.5.09.18.2.34.33.5.09.18.2.34.33.5.09.18.2.34.33.5.09.18.2.34.33.5.09.18.2.34.33.5.09.18.2.34.33.5.09.18.2.34.33.5.09.18.2.34.33.5.09.18.2.34.33.5.09.18.2.34.33.5.09.18.2.34.33.5.09.18.2.34.33.5.09.18.2.34.33.5.09.18.2.34.33.5.09.18.2.34.33.5.09.18.2.34.33.5.09.18.2.34.33.5.09.18.2.34.33.5.09.18.2.34.33.5.09.18.2.34.33.5.09.18.2.34.33.5.09.18.2.34.33.5.09.18.2.34.33.5.09.18.2.34.33.5.09.18.2.34.33.5.09.18.2.34.33.5.09.18.2.34.33.5.09.18.2.34.33.5.09.18.2.34.33.5.15.28.34.54.58.76l1.33 1.27c.09.16.19.32.31.46.09.18.21.35.33.5.09.18.21.34.33.5.09.18.21.34.33.5.09.18.21.34.33.5.09.18.21.34.33.5.09.18.21.34.33.5.09.18.21.35.33.5.09.18.21.34.33.5.09.18.21.34.33.5.09.18.21.34.33.5.09.18.21.34.33.5.09.18.21.34.33.5.09.18.21.35.33.5.09.18.21.34.33.5.09.18.21.34.33.5.09.18.21.34.33.5.09.18.21.34.33.5.09.18.21.34.33.5.09.18.21.34.33.5.09.18.21.34.33.5.09.18.21.34.33.5.09.18.21.34.33.5.09.18.21.34.33.5.09.18.21.34.33.5.09.18.21.34.33.5.09.18.21.34.33.5.09.18.21.35.33.5.09.18.21.34.33.5.09.18.21.35.33.5.09.18.21.34.33.5.09.18.21.34.33.5.09.18.21.35.33.5.09.18.21.34.33.5.09.18.21.34.33.5.09.18.21.34.33.5.32.61.85 1.1 1.5 1.36.37.15.76.23 1.15.23.43 0 .85-.09 1.25-.27l2.94-1.34c9.89-4.53 15.49-7.7 21.42-12.13 10.99-8.13 18.12-17.49 21.72-28.51.09.17.2.33.33.49.09.18.21.34.33.5.09.18.2.34.33.5.09.18.2.34.33.5.09.18.2.34.33.5.09.18.21.34.33.5.09.18.2.34.33.5.21.4.51.75.89 1.02l3.55 2.58c2.75 1.99 4.46 3.45 5.85 4.96l.05.08c.08.13.16.26.26.37l.07.13c.08.13.16.26.26.37l.07.12c.08.13.16.26.26.37l.07.12c.08.13.16.26.26.38l.07.12c.08.13.16.26.26.37l.07.12c.08.13.16.26.26.37l.07.12c.08.13.16.26.26.37l.07.12c.08.13.16.26.26.37l.07.12c.08.13.16.26.26.38l.07.12c.08.13.16.26.26.37l.07.12c.08.13.16.26.26.38l.07.12c.08.13.16.26.26.37l.07.12c.08.13.16.26.26.37l.07.13c.08.13.16.26.26.37l.07.12c.08.13.16.26.26.37l.07.12c.08.13.16.26.26.38l.07.12c.08.13.16.26.26.37l.07.12a3.023 3.023 0 0 0 2.59 1.49c.62 0 1.23-.19 1.74-.56l2.67-1.91c7.23-5.16 13.57-10.33 19.29-15.71.08.15.18.29.29.42.09.18.2.34.33.5.09.18.2.34.33.5.09.18.2.34.33.5.09.18.2.34.33.5.09.18.2.34.33.5.09.18.2.34.33.5.09.18.2.34.33.5.09.18.2.34.33.5.09.18.2.34.33.5.09.18.2.34.33.5.09.18.2.34.33.5.09.18.2.34.33.5.09.18.2.34.33.5.09.18.2.34.33.5.09.18.2.34.33.5.09.18.2.34.33.5.09.18.2.34.33.5.09.18.2.34.33.5.09.18.2.34.33.5.09.18.2.34.33.5.09.18.2.34.33.5.09.18.2.34.33.5.09.18.2.34.33.5.09.18.2.34.33.5.09.18.2.34.33.5.09.18.2.34.33.5.09.18.2.34.33.5.09.18.2.34.33.5.09.18.2.34.33.5.09.18.2.34.33.5.09.18.2.34.33.5.09.18.2.34.33.5.14.27.32.51.55.73.57.56 1.32.86 2.1.86.17 0 .35-.02.52-.05l4.15-.73 18.77-3.31 2.79-.49a3.001 3.001 0 0 0 2.46-3.31l-.33-2.82c-.39-3.29-.64-8.18-.64-12.46l-.43-36.38 1.24-.22c.89-.16 1.71-.3 2.45-.43v17.22c0 .7.25 1.37.68 1.91.09.18.2.34.33.5.09.18.2.34.33.5.09.18.21.34.33.5.09.18.21.34.33.5.09.18.2.34.33.5.09.18.21.34.33.5.09.18.21.34.33.5.09.18.2.34.33.5.09.18.21.34.33.5.09.18.2.34.33.5.09.18.21.34.33.5.09.18.2.34.33.5.09.18.21.34.33.5.09.18.2.34.33.5.09.18.21.34.33.5.09.18.2.34.33.5.09.18.21.34.33.5.09.18.2.34.33.5.09.18.2.34.33.5.09.18.2.34.33.5.09.18.2.34.33.5.09.18.2.34.33.5.09.18.21.34.33.5.09.18.2.34.33.5.09.18.2.34.33.5.09.18.21.34.33.5.09.18.2.34.33.5.09.18.21.34.33.5.09.18.21.34.33.5.09.18.2.34.33.5.09.18.2.34.33.5.09.18.21.34.33.5.09.18.21.34.33.5.09.18.2.34.33.5.09.18.2.34.33.5.09.18.2.34.33.5.09.18.21.34.33.5.09.18.21.34.33.5.09.18.21.34.33.5.09.18.2.34.33.5.09.18.21.34.33.5.09.18.2.34.33.5.09.18.21.34.33.5.09.18.2.34.33.5.09.18.21.34.33.5.09.18.21.34.33.5.2.38.49.72.84.99a2.982 2.982 0 0 0 2.63.48l3.82-1.09c4.04-1.15 7.05-1.79 16.11-3.38l30.55-5.39c.05.07.1.14.15.2.09.18.21.34.33.5.09.18.2.34.33.5.09.18.2.34.33.5.09.18.2.34.33.5.09.18.2.34.33.5.09.18.2.34.33.5.18.34.42.64.72.89a2.976 2.976 0 0 0 2.45.65l3.52-.62 18.38-3.24 2.71-.48a3.004 3.004 0 0 0 2.47-3.22l-.24-2.74c-.46-5.13-.56-7.16-.56-15.25v-7.3c.07.12.16.24.25.35.09.17.2.34.33.5.09.18.2.34.33.5.09.18.2.34.33.5.09.18.2.34.33.5.09.18.2.34.33.5.09.18.2.34.33.5.09.18.2.34.33.5.09.18.2.34.33.5.09.18.2.34.33.5.09.18.2.34.33.5.09.18.2.34.33.5.09.18.2.34.33.5.09.18.2.34.33.5.09.18.2.34.33.5.09.18.2.34.33.5.09.18.2.34.33.5.09.18.2.34.33.5.09.18.2.34.33.5.09.18.2.34.33.5.09.18.2.34.33.5.09.18.2.34.33.5.09.18.2.34.33.5.09.18.2.34.33.5.09.18.2.34.33.5.09.18.2.34.33.5.09.18.2.34.33.5.09.18.2.34.33.5.09.18.2.34.33.5.14.27.33.52.56.74l1.5 1.46 8.7 8.48 1.85 1.8a2.992 2.992 0 0 0 3.9.24l2.06-1.55c.91-.68.91-.68 4.07-1.83l.22-.08c27.43-9.51 45.63-22.86 59.95-44.22 0 .01.01.01.01.02.09.18.2.34.33.5.09.18.2.34.33.5.09.18.2.34.33.5.09.18.21.34.33.5.09.18.2.34.33.5.09.18.21.34.33.5.09.18.2.34.33.5.09.18.2.34.33.5.09.18.2.34.33.5.09.18.21.34.33.5.09.18.2.34.33.5.09.18.21.34.33.5.09.18.21.34.33.5.09.18.2.34.33.5.09.18.2.34.33.5.09.18.21.34.33.5.09.18.2.34.33.5.09.18.21.34.33.5.09.18.2.34.33.5.09.18.21.34.33.5.09.18.2.34.33.5.09.18.21.34.33.5.09.18.2.34.33.5.09.18.21.34.33.5.09.18.2.34.33.5.09.18.21.34.33.5.09.18.2.34.33.5.09.18.21.34.33.5.09.18.2.34.33.5.22.42.55.79.95 1.07l4.07 2.79c2.54 1.74 4.38 3.29 5.94 5 .05.08.11.15.17.22l.06.1c.08.14.17.27.27.4l.06.1c.08.14.17.27.27.4l.06.1c.08.14.17.27.27.4l.06.1c.08.14.17.27.27.4l.06.1c.08.14.17.27.27.4l.06.1c.08.14.17.27.27.4l.06.1c.08.14.17.27.27.4l.06.1c.08.14.17.27.27.4l.06.1c.08.14.17.27.27.4l.06.1c.08.14.17.27.27.4l.06.1c.08.14.17.27.27.4l.06.1c.08.14.17.27.27.4l.06.1c.08.14.17.27.27.4l.06.1c.08.14.17.27.27.4l.06.1c.08.14.17.27.27.4l.06.1c.08.14.17.27.27.4l.06.1a2.96 2.96 0 0 0 1.87 1.41 2.959 2.959 0 0 0 2.31-.37l2.64-1.65c16.66-10.44 28.24-20.5 37.54-32.61 4.46-5.78 8.37-12.1 11.83-19.16l2.48 8.79.94 3.34c.11.4.31.77.57 1.09.09.18.21.34.33.5.09.18.21.34.33.5.09.18.21.34.33.5.09.18.21.34.33.5.09.18.21.34.33.5.09.18.21.34.33.5.09.18.21.34.33.5.09.18.21.34.33.5.09.18.21.34.33.5.09.18.21.35.33.5.09.18.21.34.33.5.09.18.21.34.33.5.09.18.21.34.33.5.09.18.21.34.33.5.09.18.21.34.33.5.09.18.21.34.33.5.09.18.21.34.33.5.09.18.21.34.33.5.09.18.21.34.33.5.09.18.21.35.33.5.09.18.21.34.33.5.09.18.21.34.33.5.09.18.21.34.33.5.09.18.21.34.33.5.09.18.21.34.33.5.09.18.21.34.33.5.09.18.21.34.33.5.09.18.21.34.33.5.09.18.21.34.33.5.09.18.21.34.33.5.09.18.21.34.33.5.09.18.21.35.33.5.09.18.21.34.33.5.09.18.21.34.33.5.09.18.21.34.33.5.09.18.21.34.33.5.09.18.21.34.33.5.09.18.21.34.33.5.09.18.21.34.33.5.09.18.21.34.33.5.09.18.21.35.33.5.09.18.21.34.33.5.09.18.21.35.33.5.09.18.21.34.33.5.09.18.21.34.33.5.09.18.21.34.33.5.3.57.78 1.03 1.38 1.31.4.19.84.28 1.27.28.42 0 .83-.09 1.22-.26l3.17-1.41c2.17-.97 3.92-1.7 6.46-2.58 8.44-3.04 12.75-4.83 18.48-7.66 16.75-8.18 29.42-18.34 39.84-31.97 1.03-1.33 2.01-2.64 2.93-3.94v2.45c0 .7.25 1.37.68 1.91.09.18.2.34.33.5.09.18.2.34.33.5.09.18.2.34.33.5.09.18.21.34.33.5.09.18.2.34.33.5.09.18.2.34.33.5.09.18.21.34.33.5.09.18.2.34.33.5.09.18.21.34.33.5.09.18.2.34.33.5.09.18.21.34.33.5.09.18.2.34.33.5.09.18.21.34.33.5.09.18.2.34.33.5.09.18.21.34.33.5.09.18.2.34.33.5.09.18.2.34.33.5.09.18.21.34.33.5.09.18.2.34.33.5.09.18.21.34.33.5.09.18.2.34.33.5.09.18.21.34.33.5.09.18.2.34.33.5.09.18.21.34.33.5.09.18.2.34.33.5.09.18.21.34.33.5.09.18.2.34.33.5.09.18.2.34.33.5.09.18.21.34.33.5.09.18.2.34.33.5.09.18.21.34.33.5.09.18.2.34.33.5.09.18.21.34.33.5.09.18.2.34.33.5.09.18.21.34.33.5.09.18.2.34.33.5.09.18.21.34.33.5.09.18.2.34.33.5.09.18.2.34.33.5.09.18.2.34.33.5.09.18.21.34.33.5.09.18.2.34.33.5.09.18.21.34.33.5.09.18.2.34.33.5.09.18.2.34.33.5.09.18.2.34.33.5.2.38.48.71.82.97.53.41 1.17.62 1.83.62.26 0 .52-.03.78-.1l3.78-1.01c2.83-.76 6.08-1.43 11.61-2.41l26.63-4.7c.08.14.18.28.28.41.09.18.2.34.33.5.09.18.2.34.33.5.09.18.2.34.33.5.18.34.42.64.72.89a2.976 2.976 0 0 0 2.45.65l3.52-.62 15.44-2.72 2.72-.48a3.005 3.005 0 0 0 2.47-3.23l-.26-2.75c-.29-3.13-.46-7.25-.46-11.29V93.63c.02.02.03.04.05.07.09.18.21.34.33.5.09.18.21.34.33.5.09.18.21.34.33.5.09.18.21.34.33.5.09.18.21.34.33.5.09.18.21.34.33.5.09.18.21.35.33.5.09.18.21.34.33.5.09.18.21.35.33.5.09.18.21.34.33.5.09.18.21.35.33.5.09.18.21.34.33.5.09.18.21.34.33.5.09.18.21.34.33.5.09.18.21.35.33.5.09.18.21.34.33.5.09.18.21.34.33.5.09.18.21.34.33.5.09.18.21.34.33.5.09.18.21.34.33.5.09.18.21.34.33.5.09.18.21.34.33.5.09.18.21.34.33.5.09.18.21.34.33.5.09.18.21.34.33.5.09.18.21.35.33.5.09.18.21.34.33.5.09.18.21.34.33.5.09.18.21.34.33.5.09.18.21.34.33.5.09.18.21.34.33.5.09.18.21.34.33.5.09.18.21.34.33.5.09.18.21.34.33.5.09.18.21.34.33.5.09.18.21.34.33.5.09.18.21.34.33.5.09.18.21.34.33.5.09.18.21.34.33.5.09.18.21.34.33.5.09.18.21.34.33.5.09.18.21.34.33.5.09.18.21.34.33.5.09.18.21.34.33.5.09.18.21.34.33.5.09.18.21.34.33.5.31.58.8 1.05 1.41 1.33.39.18.82.27 1.24.27.43 0 .87-.09 1.27-.28l3.18-1.49c2.04-.96 2.68-1.21 5.05-2.17l1.68-.68c18.77-7.58 28.38-12.94 39.57-22.06 14.52-11.75 24.25-25.33 33.58-46.87l1.09-2.51c.46-1.06.26-2.25-.44-3.1-.09-.18-.2-.34-.33-.5-.09-.18-.2-.34-.33-.5-.09-.18-.2-.34-.33-.5-.09-.18-.2-.34-.33-.5-.09-.18-.2-.34-.33-.5-.09-.18-.2-.34-.33-.5-.09-.18-.2-.34-.33-.5-.09-.18-.2-.34-.33-.5-.09-.18-.2-.34-.33-.5-.09-.18-.2-.34-.33-.5-.09-.18-.2-.34-.33-.5-.09-.18-.2-.34-.33-.5-.09-.18-.2-.34-.33-.5-.09-.18-.2-.34-.33-.5-.09-.18-.2-.34-.33-.5-.09-.18-.2-.34-.33-.5-.09-.18-.2-.34-.33-.5-.09-.18-.2-.34-.33-.5-.09-.18-.2-.34-.33-.5-.09-.18-.2-.34-.33-.5-.09-.18-.2-.34-.33-.5-.09-.18-.2-.34-.33-.5-.09-.18-.2-.34-.33-.5-.09-.18-.2-.34-.33-.5-.09-.18-.2-.34-.33-.5-.09-.18-.2-.34-.33-.5-.09-.18-.2-.34-.33-.5-.09-.18-.2-.34-.33-.5-.09-.18-.2-.34-.33-.5-.09-.18-.2-.34-.33-.5-.09-.18-.2-.34-.33-.5-.09-.18-.2-.34-.33-.5-.09-.18-.2-.34-.33-.5-.09-.18-.2-.34-.33-.5-.09-.18-.2-.34-.33-.5-.09-.18-.2-.34-.33-.5-.09-.18-.2-.34-.33-.5-.09-.18-.2-.34-.33-.5-.09-.18-.2-.34-.33-.5-.09-.18-.2-.34-.33-.5-.09-.18-.2-.34-.33-.5-.09-.18-.2-.34-.33-.5-.09-.18-.2-.34-.33-.5-.09-.18-.2-.34-.33-.5-.09-.18-.2-.34-.33-.5-.09-.18-.2-.34-.33-.5-.27-.5-.68-.93-1.21-1.23l-2.4-1.31c-7.09-3.87-8.79-5.09-12.98-9.32L897.82.9c.33-.59-.44-.9-1.23-.9zM387.56 138.27v-2.43c.05.07.1.15.16.21.09.18.21.34.33.5.09.18.2.34.33.5.09.18.2.34.33.5.09.17.19.33.31.47-.5.09-.99.17-1.46.25zM285.5 153.46v-2.31c.03.04.06.09.1.13.09.18.2.34.33.5.09.18.21.34.33.5.07.14.16.28.26.4-.33.26-.67.52-1.02.78zm-168.14 33.83v-6.06c2.4.87 4.69 1.83 6.91 2.89-2.27 1.14-4.58 2.2-6.91 3.17z"/><path class="st0" d="M40.95 231.97c-3.01-5.59-5.13-8.14-10.29-12.41l-1.82-1.51 2.14-1.01c9.4-4.43 14.23-7.44 18.46-11.52 6.3-6.04 9.05-12.51 9.81-23.07.08-1.44.09-2.1.15-5.72l.01-.31-17.59 3.1v9.52c0 4.69.1 7.22.38 9.68l.16 1.4-21.31 3.76.29-2.05c.39-2.76.57-5.94.57-10v-8.8l-1.86.33c-6.99 1.23-8.25 1.45-13.66 2.89l-1.88.5v-19.84l1.43-.06c4.33-.19 6.27-.44 13.88-1.79l2.08-.37v-5.77c0-4.38-.08-6.42-.57-9.89l-.2-1.43 21.27-3.75-.2 1.97c-.38 3.85-.38 4.07-.38 9.74v5.62l17.92-3.16v-5.09c0-5.72-.12-8.35-.47-10.45l-.25-1.47 21.07-3.72-.27 2.03c-.36 2.74-.38 2.86-.46 15.23l2.04-.36c7.21-1.27 9.91-1.83 13.88-3.11l1.96-.63v19.88l-1.36.13c-4.67.44-7.35.82-13.66 1.93l-3.09.55c-.18 6.89-.29 8.9-.66 12.4-1.51 13.63-5.96 23.35-14.88 32.51-5.31 5.49-10.5 9.2-20.59 14.72l-1.32.72-.73-1.32z"/><path class="st1" d="M78.34 139.13c-.39 2.96-.39 2.96-.49 17.22l3.81-.67c7.33-1.29 10.07-1.87 14.08-3.16v16.46c-4.69.44-7.43.83-13.78 1.95l-4.3.76c-.19 7.64-.29 9.78-.68 13.5-1.47 13.25-5.86 22.79-14.47 31.62-5.28 5.46-10.36 9.05-20.24 14.45-3.13-5.8-5.38-8.49-10.65-12.85 9.48-4.46 14.47-7.56 18.87-11.8 6.65-6.37 9.48-13.13 10.26-24.05.1-1.75.1-2.42.19-7.93l-20.62 3.64v10.78c0 4.72.1 7.3.39 9.85l-17.89 3.15c.39-2.76.59-5.98.59-10.21v-10.59l-3.62.64c-7.04 1.24-8.31 1.47-13.78 2.91v-16.46c4.4-.2 6.35-.45 14.08-1.81l3.32-.59v-7.03c0-4.52-.1-6.63-.59-10.1l17.89-3.15c-.39 3.92-.39 4.21-.39 9.89v7.41l20.92-3.69v-6.35c0-5.49-.1-8.36-.49-10.69l17.59-3.1m3.51-3.67-4.03.71-17.59 3.1-2.93.52.49 2.93c.33 2 .45 4.57.45 10.2v3.83l-14.92 2.63v-3.84c0-5.6 0-5.82.38-9.59l.39-3.94-3.9.69-17.89 3.15-2.85.5.4 2.87c.48 3.38.56 5.38.56 9.68v4.51l-.84.15c-7.61 1.34-9.4 1.57-13.69 1.77l-2.88.14v23.23l3.77-1c5.35-1.41 6.6-1.64 13.54-2.86l.1-.02v7.02c0 3.99-.18 7.11-.56 9.79l-.58 4.09 4.07-.72 17.89-3.15 2.78-.49-.32-2.81c-.27-2.39-.37-4.88-.37-9.5v-8.26l14.56-2.57c-.04 2.32-.06 2.97-.13 4.18-.73 10.24-3.27 16.22-9.34 22.05-4.11 3.96-8.83 6.9-18.07 11.25l-4.28 2.01 3.64 3.01c5.04 4.17 6.99 6.52 9.93 11.96l1.43 2.66 2.65-1.45c10.23-5.6 15.52-9.38 20.95-14.99 9.05-9.29 13.77-19.59 15.29-33.38.37-3.51.49-5.73.64-11.3l1.89-.33c6.26-1.1 8.92-1.48 13.54-1.92l2.72-.26v-23.3l-3.92 1.26c-3.89 1.25-6.55 1.8-13.68 3.06l-.27.05c.08-10.5.11-10.74.44-13.25l.54-4.07z"/><path class="st0" d="m102.37 196.93 1.5-.38c9.92-2.51 19.96-6.65 29.04-11.96 12.13-7.07 20.8-15.8 28.1-28.29 3.94-6.61 6.6-12.3 9.46-20.31l.8-2.24 1.67 1.69c4.8 4.84 6.94 6.24 14.02 10.1l1.2.66-.54 1.26c-9.02 20.82-18.38 33.91-32.3 45.18-10.79 8.79-20.12 13.98-38.41 21.37l-1.69.68c-2.4.96-3.12 1.25-5.27 2.26l-1.59.74-5.99-20.76zm26.51-28.2c-8.42-7.19-16.48-11.92-26.12-15.35l-1.89-.67 13.1-18.13 1.09.44c12.59 5.06 18.94 8.4 27.19 14.3l1.19.85-13.29 19.65-1.27-1.09z"/><path class="st1" d="M114.51 136.41c12.32 4.95 18.67 8.26 26.88 14.13l-11.53 17.05c-8.5-7.26-16.81-12.15-26.59-15.62l11.24-15.56m57.38.08c4.79 4.83 7.04 6.36 14.37 10.37-8.89 20.53-18.18 33.53-31.87 44.61-10.56 8.6-19.84 13.8-38.02 21.15-3.81 1.54-4.4 1.74-7.04 2.97L104.24 198c9.97-2.53 20.23-6.75 29.42-12.12 12.32-7.18 21.11-15.95 28.64-28.83 4.11-6.88 6.75-12.64 9.59-20.56m-1.22-5.49-1.61 4.48c-2.83 7.9-5.45 13.52-9.33 20.03-7.18 12.28-15.68 20.84-27.57 27.77-8.96 5.24-18.87 9.32-28.65 11.8l-3.01.76.86 2.98 5.08 17.59.98 3.37 3.18-1.49c2.12-.99 2.83-1.28 5.2-2.23l1.69-.68c18.45-7.45 27.87-12.7 38.8-21.6 14.12-11.43 23.6-24.68 32.73-45.74l1.09-2.51-2.4-1.31c-7.35-4.01-9.27-5.39-13.68-9.84l-3.36-3.38zm-57.22 1.75-1.37 1.9-11.24 15.56-2.34 3.24 3.77 1.34c9.46 3.36 17.37 8.01 25.65 15.08l2.55 2.18 1.88-2.78 11.53-17.05 1.64-2.42-2.38-1.7c-8.37-5.98-14.79-9.36-27.51-14.47l-2.18-.88z"/><path class="st0" d="M219.55 200.27c-2.17-5.84-4.5-9.28-9.6-14.14l-1.75-1.67 2.28-.82c9.11-3.29 14.09-5.67 19.01-9.1 8.27-5.81 12.44-11.88 13.95-20.28.6-3.74 1.05-12.49 1.05-20.33v-10.01c0-6.91-.09-8.84-.58-12.91l-.17-1.41 22.25-3.92-.14 1.92c-.38 5.35-.48 6.79-.48 12.98v11.26c0 13.03-.77 22.71-2.29 28.77-3 11.25-9.83 20.69-20.9 28.88-5.71 4.27-10.91 7.2-20.6 11.64l-1.47.67-.56-1.53zm-21.09-35.81c.49-3.59.57-7.05.57-13.96v-19.06c0-5.65-.08-8.24-.58-12.43l-.17-1.41 22.28-3.93-.17 1.95c-.39 4.51-.48 6.24-.48 12.86v19.16c0 6.96.1 9.87.48 13.53l.14 1.39-22.37 3.94.3-2.04z"/><path class="st1" d="M264.36 107.48c-.39 5.46-.49 6.92-.49 13.08v11.26c0 13.19-.78 22.57-2.25 28.41-2.93 11.01-9.58 20.08-20.33 28.04-5.57 4.16-10.75 7.09-20.33 11.48-2.25-6.05-4.69-9.67-9.97-14.7 9.38-3.39 14.37-5.81 19.35-9.28 8.6-6.04 13-12.5 14.57-21.25.59-3.67 1.08-12.22 1.08-20.6v-10.01c0-7.03-.1-9.03-.59-13.08l18.96-3.35m-45.45 8.01c-.39 4.5-.49 6.25-.49 12.99v19.16c0 6.83.1 9.9.49 13.68l-18.96 3.34c.49-3.55.59-6.94.59-14.16v-19.06c0-5.87-.1-8.45-.59-12.6l18.96-3.35m48.72-11.63-3.79.67-18.96 3.34-2.8.49.34 2.82c.48 3.99.57 5.89.57 12.73v10.01c0 8.83-.53 16.93-1.03 20.1-1.43 7.96-5.42 13.73-13.33 19.29-4.79 3.34-9.67 5.68-18.65 8.92l-4.56 1.65 3.51 3.35c4.97 4.74 7.13 7.92 9.23 13.58l1.12 3.03 2.94-1.34c9.67-4.43 15.14-7.52 20.88-11.8 11.34-8.4 18.36-18.1 21.44-29.67 1.56-6.22 2.35-16.03 2.35-29.18v-11.26c0-6.13.1-7.56.48-12.87l.26-3.86zm-45.39 8-3.85.68-18.96 3.34-2.79.49.33 2.81c.46 3.87.57 6.27.57 12.25v19.06c0 6.83-.08 10.25-.56 13.75l-.56 4.08 4.05-.71 18.96-3.34 2.75-.48-.29-2.78c-.37-3.6-.47-6.47-.47-13.37v-19.16c0-6.56.09-8.27.48-12.73l.34-3.89z"/><path class="st0" d="M326.91 179.51c.54-3.39.76-6.76.76-11.64v-1.35l-.2-18.24v-5.89c-9.36 14.07-21.62 26.29-38.2 38.12l-1.33.95-.83-1.42c-3.25-5.55-5.44-7.92-11.12-12.05l-1.77-1.29 1.84-1.19c18.27-11.77 30.05-22.9 38.77-36.74l-16.87 2.98c-7.23 1.28-10.96 2.15-14.63 3.15l-1.89.52V115.5l1.41-.09c5.06-.32 8.68-.77 14.89-1.86l29.33-5.17-.07-3.51c0-3.74-.16-6.72-.58-10.65l-.15-1.39 21.58-3.81-.17 1.95c-.28 3.18-.39 4.8-.39 9.27v4.66l4.4-.77c6.72-1.19 9.81-1.9 13.78-3.19l1.96-.64v19.93l-1.4.09c-3.35.22-6.39.65-13.53 1.91l-5 .88.47 40.13c0 4.46.26 9.55.67 13l.17 1.41-22.24 3.92.34-2.06z"/><path class="st1" d="M346.18 90.84c-.29 3.33-.39 4.98-.39 9.41v6.45l6.16-1.09c6.94-1.22 10.07-1.97 13.98-3.24v16.46c-3.52.24-6.74.71-13.69 1.93l-6.26 1.1.49 41.41c0 4.81.29 9.86.68 13.16l-18.77 3.31c.59-3.66.78-7.17.78-11.88v-1.35l-.2-18.26v-3.85c0-2.41 0-3.75.1-7.33-9.58 15.84-22.38 29.17-40.66 42.21-3.32-5.67-5.67-8.24-11.54-12.5 19.75-12.72 31.96-24.7 40.96-40.05l-20.14 3.55c-6.84 1.21-10.75 2.09-14.76 3.18V116.9c5.08-.32 8.8-.78 15.05-1.88l30.6-5.4-.1-4.8c0-4.04-.2-7.09-.59-10.78l18.3-3.2m3.33-3.64-3.85.68-18.28 3.22-2.76.49.3 2.78c.41 3.87.57 6.8.57 10.46v.06l.04 2.23-28.07 4.95c-6.14 1.08-9.72 1.53-14.72 1.85l-2.81.18v23.31l3.79-1.03c3.63-.99 7.32-1.85 14.49-3.12l13.46-2.37c-8.4 12.33-19.64 22.58-36.42 33.4l-3.68 2.37 3.55 2.58c5.48 3.98 7.58 6.26 10.71 11.59l1.66 2.83 2.67-1.91c15.16-10.82 26.75-21.96 35.82-34.54v1.07l.2 18.29v1.32c0 4.8-.22 8.11-.74 11.41l-.67 4.16 4.15-.73 18.77-3.31 2.79-.49-.33-2.82c-.4-3.4-.66-8.43-.66-12.81l-.46-38.89 3.75-.66c7.08-1.25 10.08-1.67 13.36-1.89l2.8-.19v-23.4L365 99.52c-3.89 1.26-6.93 1.96-13.57 3.13l-2.64.46v-2.87c0-4.41.1-6.01.38-9.14l.34-3.9z"/><path class="st0" d="m375.87 143.96 1.45-.05c4.47-.15 6.98-.48 16.8-2.21l37.86-6.68v-34.59l-36.17 6.38c-9.12 1.61-12.71 2.34-16.68 3.42l-1.89.51V89.81l1.45-.05c4.52-.15 7.44-.46 16.89-2.13l44.87-7.91c5.48-.97 8.09-1.53 10.76-2.18l1.97-.48-.12 2.02c-.2 3.39-.29 5.05-.29 9.78v50.25c0 8.28.11 10.35.58 15.65l.12 1.37-21.49 3.79v-5.68l-37.63 6.64c-9.24 1.63-12.34 2.28-16.56 3.49l-1.91.55v-20.96z"/><path class="st1" d="M451.56 79c-.2 3.4-.29 5.06-.29 9.87v50.25c0 8.09.1 10.28.59 15.78l-18.38 3.24v-5.68l-39.39 6.95c-8.99 1.59-12.32 2.27-16.72 3.52v-17.52c4.69-.15 7.33-.52 17.01-2.23l39.1-6.89V98.65l-37.93 6.69c-8.99 1.59-12.71 2.34-16.81 3.45V91.26c4.69-.15 7.82-.51 17.11-2.15l44.87-7.91c5.27-.93 8.01-1.51 10.84-2.2m3.23-3.88-3.94.96c-2.63.64-5.22 1.2-10.66 2.16l-44.87 7.91c-9.37 1.65-12.25 1.96-16.68 2.11l-2.9.09v24.34l3.78-1.02c3.92-1.06 7.48-1.79 16.55-3.39l34.41-6.07v31.55l-36.62 6.46c-9.83 1.73-12.16 2.04-16.59 2.18l-2.9.09v24.4l3.82-1.09c4.16-1.19 7.23-1.84 16.41-3.45l35.87-6.33v5.68l3.52-.62 18.38-3.24 2.71-.48-.24-2.74c-.47-5.24-.57-7.3-.57-15.52V88.87c0-4.69.09-6.34.28-9.62v-.08l.24-4.05z"/><path class="st0" d="m471.27 144.38.43-.96c.84-1.88.94-2.65 1.04-7.52l.39-53.57V80.8c0-4.24-.17-7.29-.57-10.18l-.2-1.44 22.89-3.92-.26 2.02c-.47 3.57-.57 5.96-.67 11.79l-.56 48.85c18.45-7.83 32.04-20.86 40.42-38.76l1.02-2.17 1.51 1.87c4.52 5.6 7.39 8.1 12.77 11.18l1.32.75-.77 1.31c-14.33 24.32-32.84 39-61.89 49.07l-.2.07c-3.38 1.22-3.81 1.38-5.26 2.47l-1.03.78-10.38-10.11z"/><path class="st1" d="M493.5 67.08c-.49 3.74-.59 6.26-.68 11.96l-.59 51.13c19.75-7.81 34.41-21.37 43.3-40.37 4.5 5.56 7.53 8.3 13.2 11.54-14.17 24.06-32.26 38.42-61.09 48.41-3.62 1.31-4.2 1.51-5.87 2.77l-8.7-8.48c.98-2.19 1.08-3.27 1.17-8.1l.39-53.59v-1.54c0-4.52-.2-7.57-.58-10.39l19.45-3.34m3.5-3.65-4.01.69-19.45 3.33-2.86.49.4 2.88c.39 2.82.56 5.81.56 9.98v1.54l-.39 53.57c-.1 4.77-.21 5.31-.91 6.9l-.85 1.91 1.5 1.46 8.7 8.48 1.85 1.8 2.06-1.55c1.27-.96 1.54-1.06 4.86-2.26l.22-.08c29.38-10.18 48.13-25.05 62.66-49.71l1.54-2.62-2.64-1.51c-5.19-2.97-7.97-5.39-12.35-10.82l-3.02-3.73-2.03 4.34c-7.9 16.86-20.51 29.32-37.53 37.08l.53-46.53c.1-5.75.2-8.11.66-11.61l.5-4.03z"/><path class="st0" d="M578.13 137.87c-3.1-5.37-5.95-8.42-11.28-12.08l-2.03-1.39 2.17-1.17c13.7-7.35 23.63-15.08 32.22-25.05 6.63-7.79 11.76-16.97 15.26-27.3l-22.84 4.28c-6.24 10.72-12.68 18.82-22.11 27.81l-1.03.98-1.04-.98c-4.97-4.69-7.36-6.26-13.43-8.81l-2.22-.93 1.82-1.58c11.69-10.18 19.36-20.19 25.63-33.46 2.51-5.38 3.61-8.6 4.07-11.86l.18-1.29 22.23.02-1.29 2.52c-.37.71-.53 1.03-.93 2.11l-.05.14-.08.12c-.08.13-.15.33-.24.55-.1.25-.21.53-.34.82-.4 1.06-.7 1.79-.9 2.23-.34.8-.58 1.39-.78 1.85l21.72-4.09c3.76-.66 4.64-1 6.79-2.18l.87-.48 9.88 7.87-.61 1.11c-1.12 2.03-1.37 2.55-2.71 7.04-5.04 17.06-11.74 30.86-20.48 42.18-8.96 11.66-20.17 21.39-36.36 31.53l-1.32.83-.77-1.34z"/><path class="st1" d="m584.8 46.55 18.47.02c-.49.95-.68 1.28-1.17 2.61-.2.32-.39.94-.68 1.56-.39 1.03-.68 1.76-.88 2.18-1.27 3.02-1.27 3.02-1.96 4.48l24.54-4.62c3.81-.67 4.89-1.05 7.23-2.33l8.11 6.46c-1.17 2.13-1.47 2.76-2.84 7.33-4.97 16.87-11.62 30.56-20.22 41.7-8.89 11.58-19.94 21.13-35.97 31.18-3.23-5.59-6.26-8.81-11.73-12.56 13.88-7.45 24.05-15.41 32.65-25.4 7.23-8.5 12.71-18.51 16.32-30.22l-26 4.87c-6.35 11.04-12.9 19.22-22.19 28.08-4.99-4.71-7.43-6.39-13.88-9.1 11.93-10.38 19.65-20.5 26-33.95 2.54-5.45 3.71-8.84 4.2-12.29m-2.6-3-.36 2.58c-.44 3.1-1.51 6.21-3.95 11.45-6.17 13.06-13.73 22.92-25.25 32.95l-3.63 3.16 4.44 1.87c5.94 2.5 8.12 3.93 12.98 8.52l2.07 1.95 2.06-1.96c9.36-8.93 15.82-16.99 22.02-27.55l19.61-3.68c-3.39 9.16-8.13 17.35-14.12 24.38-8.45 9.81-18.26 17.43-31.78 24.7l-4.34 2.33 4.07 2.79c5.12 3.51 7.85 6.44 10.83 11.59l1.55 2.7 2.64-1.65c16.35-10.24 27.68-20.08 36.76-31.89 8.85-11.46 15.63-25.42 20.73-42.67 1.34-4.47 1.55-4.86 2.59-6.74l1.22-2.22-1.98-1.58-8.11-6.46-1.56-1.24-1.75.95c-2 1.09-2.77 1.39-6.32 2.01l-19 3.57c.17-.4.36-.9.59-1.51.13-.29.25-.57.35-.83.06-.15.11-.28.16-.38l.12-.2.1-.27c.36-.99.5-1.27.85-1.93l.18-.34 2.24-4.36h-4.9l-18.47-.02-2.64-.02z"/><path class="st0" d="m649.1 102.56 1.59-.32c8.58-1.71 20.54-6.33 29.76-11.52 11.25-6.3 19.79-14.26 26.85-25.04 4.62-7.17 7.39-13.12 10.58-22.73l.7-2.12 1.7 1.45c5.74 4.92 8.4 6.83 13.88 9.18l1.35.58-.54 1.36c-5.08 12.68-9.13 20.05-15.46 28.18-9.98 13.05-22.14 22.79-38.26 30.67-5.56 2.74-9.75 4.48-17.94 7.44-2.7.94-4.62 1.73-6.84 2.72l-1.58.71-5.79-20.56zm26.27-15.35c-8.34-4.64-16.83-7.67-27.52-9.83l-2.06-.42 10.6-18.09 1.06.22c11.57 2.42 18.8 4.74 27.6 8.87l1.39.65-9.7 19.36-1.37-.76zm7.82-26.25c-9.81-4.56-17.83-7.08-27.67-8.7l-2.14-.35 10.31-17.9 1.04.19c11.51 2.1 19.98 4.42 28.34 7.75l1.56.62-10.16 18.99-1.28-.6z"/><path class="st1" d="M664.47 35.68c11.53 2.11 19.84 4.39 28.05 7.66l-8.7 16.26c-10.07-4.67-18.18-7.19-28.05-8.82l8.7-15.1m54.84 7.75c5.86 5.03 8.7 7.03 14.27 9.42-4.98 12.43-8.99 19.78-15.25 27.81-9.87 12.91-21.99 22.55-37.73 30.24-5.77 2.85-9.97 4.55-17.79 7.37-2.83.98-4.79 1.81-6.94 2.77l-4.89-17.33c8.6-1.71 20.72-6.35 30.21-11.68 11.54-6.46 20.23-14.64 27.37-25.52 4.69-7.28 7.52-13.36 10.75-23.08m-62.17 17.13c11.24 2.35 18.48 4.64 27.27 8.76L676.1 85.9c-8.41-4.68-17.01-7.78-27.96-9.99l9-15.35m5.79-28.21-1.06 1.83-8.7 15.11-2.16 3.75 4.27.7c9.69 1.6 17.6 4.08 27.28 8.58l2.57 1.19 1.34-2.5 8.7-16.26 1.58-2.96-3.12-1.24c-8.46-3.37-17.02-5.71-28.62-7.83l-2.08-.37zm54.94 5.9-1.41 4.24c-3.15 9.47-5.87 15.33-10.43 22.39-6.92 10.55-15.28 18.35-26.31 24.53-9.1 5.11-20.88 9.68-29.32 11.35l-3.18.63.88 3.12 4.89 17.33.94 3.34 3.17-1.41c2.24-1 4.06-1.76 6.7-2.67 8.29-2.99 12.52-4.74 18.14-7.52 16.33-7.97 28.65-17.86 38.79-31.11 6.41-8.23 10.51-15.7 15.65-28.52l1.09-2.72-2.69-1.15c-5.3-2.27-7.89-4.13-13.5-8.94l-3.41-2.89zm-62.23 18.93-1.09 1.86-8.99 15.35-2.12 3.63 4.12.83c10.54 2.13 18.89 5.11 27.09 9.67l2.74 1.52 1.4-2.8 8.31-16.58 1.38-2.75-2.79-1.31c-8.92-4.19-16.23-6.54-27.93-8.98l-2.12-.44z"/><path class="st0" d="m746.16 86.64 1.46-.04c3.71-.09 6.23-.44 11.9-1.44l33.36-5.88v-8.31l-28.74 5.07c-5.98 1.05-9.17 1.72-12.19 2.53l-1.89.51v-17.3l1.37-.12c3.94-.34 7.35-.72 12.19-1.58l29.26-5.16v-7.54L761.02 53c-6.57 1.16-9.13 1.71-11.94 2.58l-1.94.6V38.46l1.43-.06c4.37-.2 6.58-.5 11.93-1.44l39.98-7.05c4.58-.81 6.05-1.16 8.7-1.82l1.94-.48-.08 2c-.09 2.33-.19 5.9-.19 8.93V83.4c0 4.18.18 8.45.48 11.71l.13 1.38-18.57 3.27v-4.24l-32.84 5.79c-5.67 1-9.03 1.7-11.99 2.49l-1.89.51V86.64z"/><path class="st1" d="M809.54 29.55c-.1 2.42-.2 6-.2 8.99V83.4c0 4.43.2 8.73.49 11.85l-15.44 2.72v-4.24l-34.6 6.1c-5.47.97-8.99 1.68-12.12 2.52V88.11c3.81-.1 6.35-.45 12.12-1.46l34.6-6.1V69.18l-30.5 5.38c-5.96 1.05-9.19 1.72-12.32 2.56V63.16c4.3-.37 7.72-.78 12.32-1.59l30.5-5.38V45.6l-33.63 5.93c-6.55 1.15-9.19 1.72-12.12 2.62V39.9c4.4-.2 6.65-.5 12.12-1.46l39.98-7.05c4.69-.83 6.16-1.19 8.8-1.84m3.15-3.88-3.88.97c-2.68.67-4.05.99-8.59 1.8l-39.98 7.05c-5.27.93-7.45 1.23-11.73 1.42l-2.87.13v21.18l3.88-1.19c2.74-.84 5.27-1.39 11.76-2.53l30.1-5.31v4.5l-28.02 4.94c-4.78.84-8.16 1.22-12.06 1.56l-2.74.24v20.62l3.78-1.02c2.98-.8 6.13-1.45 12.06-2.5l26.98-4.76v5.27l-32.12 5.66c-5.68 1-8.03 1.33-11.68 1.42l-2.93.07v21.09l3.78-1.01c2.92-.78 6.24-1.47 11.86-2.47l31.08-5.48v4.24l3.52-.62 15.44-2.72 2.72-.48-.26-2.75c-.3-3.22-.48-7.44-.48-11.57V38.53c0-3.01.1-6.55.19-8.87l.19-3.99z"/><path class="st0" d="m828.29 68.93 1.5-.38c9.92-2.51 19.96-6.65 29.04-11.96 12.13-7.07 20.8-15.8 28.1-28.29 3.94-6.61 6.59-12.3 9.46-20.31l.8-2.24 1.67 1.69c4.8 4.84 6.94 6.24 14.02 10.1l1.2.66-.54 1.26c-9.02 20.82-18.38 33.91-32.3 45.18-10.79 8.79-20.12 13.98-38.41 21.37l-1.68.68c-2.4.96-3.13 1.26-5.28 2.27l-1.59.74-5.99-20.77zm26.51-28.2c-8.42-7.19-16.48-11.92-26.12-15.35l-1.89-.67 13.1-18.13 1.09.44c12.59 5.06 18.94 8.4 27.19 14.3l1.19.85-13.29 19.65-1.27-1.09z"/><path class="st1" d="M840.43 8.41c12.32 4.95 18.67 8.26 26.88 14.13l-11.53 17.05c-8.5-7.26-16.81-12.15-26.59-15.62l11.24-15.56m57.38.08c4.79 4.83 7.04 6.36 14.37 10.37-8.9 20.53-18.18 33.53-31.87 44.61-10.56 8.6-19.84 13.8-38.03 21.15-3.81 1.54-4.4 1.74-7.04 2.97L830.16 70c9.97-2.53 20.23-6.75 29.42-12.12 12.32-7.18 21.11-15.95 28.64-28.83 4.11-6.88 6.75-12.65 9.59-20.56M896.59 3l-1.61 4.48c-2.83 7.91-5.45 13.52-9.33 20.03-7.18 12.28-15.68 20.84-27.57 27.77-8.96 5.24-18.87 9.32-28.65 11.8l-3.01.76.86 2.98 5.08 17.59.97 3.37 3.18-1.49c2.12-.99 2.83-1.28 5.21-2.23l1.68-.68c18.45-7.45 27.87-12.7 38.8-21.6 14.12-11.43 23.6-24.68 32.73-45.74l1.09-2.51-2.4-1.31c-7.35-4.01-9.26-5.39-13.68-9.84L896.59 3zm-57.22 1.75L838 6.65 826.75 22.2l-2.34 3.24 3.77 1.34c9.46 3.36 17.37 8.01 25.65 15.08l2.55 2.18 1.88-2.78 11.53-17.05 1.64-2.42-2.38-1.7c-8.37-5.98-14.79-9.36-27.51-14.47l-2.17-.87z"/></svg>