<svg version="1.1" id="Livello_1" xmlns="http://www.w3.org/2000/svg" x="0" y="0" viewBox="0 0 3065.59 843.96" style="enable-background:new 0 0 3065.59 843.96" xml:space="preserve"><style>.st0{fill:#283484}</style><path class="st0" d="M3059.86 473.29c-4.6 19.94-11.17 38.96-18.94 57.49-16.98 44.4-44.96 84.32-76.32 122.4-36.35 40.76-77.6 75.27-121.32 105.94-55.17 36.76-113.87 63.94-177.93 78.79-43.4 9.05-92.57 9.33-132.77-8.81-27.79-10.49-52.05-29.95-75.51-50.61-23.7-21.94-41.96-47.44-57.1-73.91-1.52-2.44-4.56-1.64-6.04-.48-43 19.22-87.73 34.11-132.01 48.29-45.49 13.81-101.54 9.29-133.41-28.83-4.64-5.37-7.49-11.77-12.49-16.74-2.24 0-3.89-.08-4.85.52-43.44 17.38-87.01 35.27-133.53 45.04-35.24 7.53-71.91.48-99.54-18.18-14.09-11.57-26.58-25.46-32.03-41.6-10.01-26.83-7.57-56.74-7.05-84.84 1.44-47.01 6.81-93.17 8.33-140.74-.28-6.81-3.36-14.33-10.57-16.54-9.69-3.4-21.62-1.64-31.83-.68-6.88.96-14.13.88-21.02 2.36-.88-.12-1.52.8-1.92 1.96-21.18 76.44-44.92 152.47-85.48 221.17-20.06 33.79-53.61 74.59-93.93 81.4-51.85 11.01-88.81-39.48-114.39-76.71-17.7-24.94-34.35-51.05-52.41-75.51-3.88-3.76-7.33-7.73-12.93-5.76-6.33 2.28-10.77 8.13-13.93 13.61-29.07 44.68-54.53 90.61-85.12 134.45-5.85 6.81-14.33 9.77-23.1 9.65-10.61-.56-18.42-10.25-23.3-19.18-25.31-43.88-46.89-89.57-69.87-135.05-3.37-4.36-7.21-10.29-13.46-8.37-6.49 2.48-10.73 8.29-14.73 13.21-34.84 43.92-63.98 90.73-101.98 132.41-11.57 11.25-27.22 20.46-42.88 14.33-33.71-13.97-46.45-51.37-67.99-77.44-6.72-9.09-11.13-19.9-20.86-27.35-8.85-2.88-13.58 7.77-19.9 12.49-28.15 33.35-60.38 66.83-98.9 84.8-51.49 20.38-110.99 4.92-149.99-31.83-30.59-33.39-44.6-73.95-48.85-118.44-2.68-57.09 5.72-111.83 25.51-160.51 24.22-62.5 68.42-126.64 130.36-161.6 58.42-34.92 149.63-37.4 207.84-.2 25.1 15.78 40.2 42.32 35.55 72.67-2.24 25.78-19.94 53.29-46.05 61.74-36.67 8.49-61.82-17.46-95.21-20.5-37.44-5.36-67.27 24.14-85.08 53.37-22.06 36.6-37.68 77.11-36.48 121.88 2.48 12.69 6.65 26.39 19.7 32.35 7.97 3.92 17.7 2.56 24.99-.88 25.06-20.98 46.52-46.69 66.1-72.07 17.7-20.86 32.95-46.76 57.13-61.9 10.65-4.76 25.23-4.64 35.6 1.72 19.9 11.81 30.03 33.55 43.6 50.89 8.89 11.45 15.01 26.95 29.87 32.47 7.61 0 12.61-6.88 18.86-11.69 40.72-49.09 78.64-100.14 119.8-149.83 11.77-13.21 27.43-27.23 46.49-22.82 11.69 4.08 21.38 13.3 28.27 24.51 18.81 30.35 35.39 62.26 54.45 93.05 2.36 3.37 5.6 7.29 10.05 7.29 5.88 0 9.41-6.01 13.41-9.05 28.91-35.68 47.97-76.08 82.84-108.3 8.77-7.65 22.94-8.49 33.51-4.6 21.7 11.77 31.31 35.07 45.89 53.37 30.75 44.44 54.89 91.45 88.76 134.61 3.17 2.96 7.33 6.25 12.77 4.81 12.09-5.76 16.66-19.86 22.98-30.63 14.81-27.87 24.5-57.53 31.15-88.81.4-2.48-1.84-4.4-3.92-4.72-35.51-17.18-56.37-54.41-53.93-93.89 1.96-33.19 23.74-65.98 55.1-78.51 32.95-14.01 76.27-12.01 105.02 10.09 14.01 11.01 21.42 26.47 27.47 41.64.72.4.88 1.08 2 1.52 48.45-1.72 94.81-6.56 143.82-2.32 25.34 2.84 49.33 19.78 60.26 43.6 9.81 24.9 5.68 52.85 5.65 81.12-2.16 41.96-5.37 83.48-7.41 125.92 2.04 2.88 0 7.4 1.56 10.89.32 6.4 2.88 11.65 7.29 15.62 8.65 5.81 20.98 3.88 30.19.92 22.58-8.65 44.88-17.22 66.02-29.83.36-.64 1.32-1.6 1.32-2.52.88-68.35-.72-137.21 11.45-202.6 3.76-21.78 23.35-43.76 45.69-47.6 28.55-6.69 58.74-3.84 79.2 15.85 12.05 11.69 14.9 27.55 16.94 43.16-.44 65.78-5.52 130.6-4.6 197.07.28 10.85 2.76 21.98 12.21 28.07 12.69 5.85 26.67-.88 38.76-4.24 15.77-7.29 33.35-11.77 46.92-23.42-10.01-61.62-16.01-131.97.76-192.27 12.13-57.69 56.49-113.15 110.71-139.74 42.4-22.86 101.98-24.14 147.3-5.4 22.38 8.01 43.04 20.3 62.26 35.07 1.44.36 3.6.48 4.81.08 81.44-39 183.1-80.48 275.78-38.2 73.71 34.07 125.56 109.9 126.24 191.06.52 21.05-3.08 39.67-5.68 59.53zm-162.2 14.45c14.37-23.42 16.94-60.5 2.04-83.96-13.25-21.5-36.67-31.35-60.02-28.03-44.64 7.57-82.16 32.23-121.96 51.57-37.63 20.34-80.15 57.9-125.56 30.95-25.38-19.74-37.95-48.33-32.99-80.2-3.93-4-9.25-5.08-14.69-5.08-20.7-.48-41.52 11.65-52.73 30.23-23.06 40.48-13.45 97.05-2.76 140.62 15.26 49.85 38.48 97.85 79.96 135.57 15.46 13.73 40.76 15.37 60.98 9.05 56.1-16.97 110.07-42.64 157.96-80.88 30.99-22.98 59.49-49.21 83.28-79.36 10.63-13.05 18.4-26.71 26.49-40.48z"/><path class="st0" d="M2229.09 255.63c-27.91 16.49-69.83 19.26-98.18 3.08-27.22-14.81-47.56-42.88-46.44-73.87-1.04-31.75 20.82-59.42 47.01-74.11 31.47-16.06 76.8-16.49 104.9 6.81 28.31 19.94 41.72 55.42 32.03 89.41-5.93 20.06-21.22 37.48-39.32 48.68zM595.3 193.21c-22.86 15.53-55.77 14.98-78.11-1-18.54-13.69-35-33.71-56.37-42-46.85-23.34-103.94-6.53-149.99 6.01-37.6 11.25-73.75 31.19-102.82 60.26-7.77 9.25-14.73 19.38-10.85 32.15 3.08 12.29 16.62 18.66 26.22 24.46 18.66 10.93 38.6 17.94 58.54 25.83 52.13 20.54 105.78 39.4 157.95 60.22 41.92 20.62 87.17 37.24 118.48 77.19 25.18 33.71 35.75 77 26.99 121.48-8.89 79.08-75.71 147.71-142.94 185.5-49.4 30.51-105.54 44.64-165.28 50.25-56.85 2.12-112.75-5.4-162.56-23.54-39-15.49-78.88-47.01-98.26-85.92-17.14-34.35-24.62-82.68-3.05-117.44 21.14-38.28 63.3-55.61 105.14-51.09 21.62 3.33 43.56 16.02 51.65 37.36 11.93 20.3-1.16 49.21 10.41 69.27 20.78 38.76 67.9 36.35 106.9 33.92 56.62-9.37 113.79-36.96 143.98-90.41 6.77-13.37 11.37-31.59 1.68-45.56-20.1-23.51-49.24-29.63-74.63-41.4-64.86-22.54-129.33-47.33-193.63-70.39-58.04-21.68-134.07-61.16-141.32-132.5-11.61-75.4 35.31-138.58 96.65-177.26 78.4-50.97 165.08-82.88 259.13-95.37 80.64-9.29 165.12-.44 226.1 51.73 27.06 24.54 37.63 61.82 25.9 96.65-5.87 16.78-20.17 31.84-35.91 41.6z"/></svg>