<svg version="1.1" id="Layer_1" xmlns="http://www.w3.org/2000/svg" x="0" y="0" viewBox="0 0 634.77 205.46" style="enable-background:new 0 0 634.77 205.46" xml:space="preserve"><style>.st0{fill:#283484}</style><path class="st0" d="M60.61 203.96a1.495 1.495 0 0 1-1.2-.59c-.27-.1-.5-.27-.67-.5-.26-.1-.5-.27-.66-.5-.27-.1-.5-.27-.67-.5-.27-.1-.5-.27-.67-.5-.26-.1-.49-.27-.66-.5-.27-.1-.5-.27-.67-.5-.19-.07-.36-.18-.51-.32l-.1-.03c-.31-.09-.58-.28-.77-.53-.27-.1-.5-.27-.67-.5-.26-.1-.5-.27-.66-.5-.27-.1-.5-.27-.67-.5-.26-.1-.49-.27-.66-.5-.27-.1-.5-.27-.67-.5-.27-.1-.5-.27-.67-.5-.27-.1-.5-.27-.67-.5-.27-.1-.5-.27-.67-.5-.26-.1-.49-.27-.66-.5-.27-.1-.5-.27-.67-.5-.26-.1-.5-.27-.66-.5-.27-.1-.5-.27-.67-.5-.27-.1-.5-.27-.67-.5-.26-.1-.49-.27-.66-.5-.27-.1-.5-.27-.67-.5-.27-.1-.5-.27-.67-.5-.26-.1-.5-.27-.67-.5-.26-.1-.49-.27-.66-.5-.34-.13-.62-.37-.79-.69l-.31-.58c-.17-.1-.32-.23-.44-.39-.34-.13-.62-.37-.79-.69l-1.43-2.66c-1.58-2.92-2.81-4.81-4.24-6.49-.98-.98-2.19-2.05-3.77-3.36l-3.64-3.01c-.25-.21-.43-.49-.5-.8l-1.05-.86c-.4-.33-.6-.83-.53-1.34s.38-.95.85-1.17l2.99-1.41c-.05-.05-.1-.11-.14-.16-.19-.07-.36-.18-.51-.32-.06-.05-.11-.11-.16-.17-.19-.07-.36-.18-.51-.32a.797.797 0 0 1-.15-.17c-.19-.07-.36-.18-.51-.32a.934.934 0 0 1-.16-.18c-.19-.07-.36-.18-.51-.32-.06-.05-.11-.11-.16-.17-.19-.07-.36-.18-.51-.32-.06-.05-.11-.11-.16-.17-.19-.07-.36-.18-.51-.32a.934.934 0 0 1-.16-.18c-.19-.07-.36-.18-.51-.32a.797.797 0 0 1-.15-.17c-.19-.07-.36-.18-.51-.32a.934.934 0 0 1-.16-.18c-.19-.07-.36-.18-.51-.32-.06-.05-.11-.11-.16-.17-.19-.07-.36-.18-.51-.32a.797.797 0 0 1-.15-.17c-.19-.07-.36-.18-.51-.32a.797.797 0 0 1-.15-.17c-.19-.07-.36-.18-.51-.32a.934.934 0 0 1-.16-.18c-.19-.07-.36-.18-.51-.32-.24-.24-.4-.55-.44-.88a1.6 1.6 0 0 1-.44-.29.655.655 0 0 1-.15-.18c-.19-.07-.36-.18-.51-.32-.35-.33-.51-.81-.44-1.29l.45-3.17c-.07-.07-.14-.14-.2-.21-.14-.05-.27-.12-.38-.21-.11-.08-.2-.18-.28-.28-.14-.05-.27-.12-.38-.21-.04-.03-.09-.07-.13-.11-.21-.05-.41-.14-.59-.28-.11-.08-.2-.18-.28-.29-.14-.05-.27-.12-.38-.21-.11-.08-.2-.18-.28-.28-.14-.05-.27-.12-.38-.21-.11-.08-.2-.18-.28-.29-.14-.05-.27-.12-.38-.21-.11-.08-.2-.18-.28-.29-.14-.05-.27-.12-.38-.21-.11-.08-.2-.18-.28-.29a1.485 1.485 0 0 1-.66-.49c-.14-.05-.27-.12-.38-.21-.11-.08-.2-.18-.28-.29a1.415 1.415 0 0 1-.66-.5c-.14-.05-.27-.12-.38-.21-.11-.08-.2-.18-.28-.29-.14-.05-.27-.12-.38-.21-.11-.08-.2-.18-.28-.29-.14-.05-.27-.12-.38-.21-.11-.08-.2-.18-.28-.28-.14-.05-.27-.12-.38-.21-.11-.08-.2-.18-.28-.29a1.415 1.415 0 0 1-.66-.5 1.415 1.415 0 0 1-.66-.5c-.14-.05-.27-.12-.38-.21-.11-.08-.2-.18-.28-.28-.14-.05-.27-.12-.38-.21-.11-.08-.2-.18-.28-.29a1.415 1.415 0 0 1-.66-.5c-.14-.05-.27-.12-.38-.21-.11-.08-.2-.18-.28-.29-.14-.05-.27-.12-.38-.21-.11-.08-.2-.18-.28-.29-.14-.05-.27-.12-.38-.21-.31-.24-.52-.6-.57-.98-.11-.05-.21-.11-.31-.18-.11-.08-.2-.18-.28-.29a1.483 1.483 0 0 1-.96-1.4v-23.23c0-.8.63-1.46 1.43-1.5l2.87-.13c4.13-.19 5.91-.41 13.1-1.67v-3.25c0-4.22-.08-6.18-.54-9.47l-.4-2.87c-.11-.8.43-1.55 1.22-1.69l24.64-4.35c.09-.02.17-.02.26-.02.38 0 .74.14 1.02.4.07.06.12.13.18.2.18.07.34.17.49.3.06.06.12.13.18.2.18.07.34.17.49.3.07.06.12.13.18.2.18.07.34.17.49.3.06.06.12.13.18.2.18.07.34.17.49.3.07.06.12.13.18.2.18.07.34.17.49.3.06.06.12.13.18.2.18.07.34.17.49.3.07.06.12.13.18.2.18.07.35.17.49.3l.02.02c.26.06.5.18.7.36.06.06.12.13.18.2.18.07.34.17.49.3.07.06.12.13.18.2.18.07.34.17.49.3.07.06.12.13.18.2.18.07.34.17.49.3.07.06.12.13.18.2.18.07.34.17.49.3.07.06.12.13.18.2.18.07.34.17.49.3.06.06.12.13.18.2.18.07.34.17.49.3.07.06.12.13.18.2.18.07.34.17.49.3.06.06.12.13.18.2.18.07.35.17.49.3.06.06.12.13.18.2.18.07.34.17.49.3.06.06.12.13.18.2.02.01.05.02.07.03-.04-3.27-.16-5.08-.41-6.54l-.49-2.93c-.14-.81.41-1.58 1.22-1.72l24.55-4.33c.09-.02.17-.02.26-.02a1.51 1.51 0 0 1 1.2.6c.19.07.36.18.5.32.06.06.11.12.16.18.19.07.36.18.5.32.06.06.11.12.16.18.19.07.36.18.5.32.06.06.11.12.16.18.19.07.36.18.5.32.06.06.11.12.16.18.19.07.36.18.51.32.06.06.11.12.16.18.19.07.36.18.5.32.06.06.11.12.16.18.19.07.36.18.51.32.26.06.51.19.71.38.06.06.11.12.16.18.19.07.36.18.5.32.06.06.11.12.16.18.19.07.36.18.5.32.06.06.11.12.16.18.19.07.36.18.51.32.06.06.11.12.16.18.19.07.36.18.5.32.06.06.11.12.16.18.19.07.36.18.51.32.06.06.11.12.16.18.19.07.36.18.5.32.06.06.11.12.16.18.19.07.36.18.51.32.06.06.11.12.16.18.19.07.36.18.5.32.06.06.11.12.16.18.19.07.36.18.5.32.06.06.11.12.16.18.19.07.36.18.51.32.06.06.11.12.16.18.19.07.36.18.5.32.06.06.11.12.16.18.19.07.36.18.51.32.06.06.11.12.16.18.19.07.36.18.5.32.06.06.11.12.16.18.19.07.36.18.51.32.06.06.11.12.16.18.19.07.36.18.5.32.06.06.11.12.16.18.19.07.36.18.5.32.06.06.11.12.16.18.19.07.36.18.5.32.06.06.11.12.16.18.19.07.36.18.51.32.06.06.11.12.16.18.16.06.3.14.43.25l11.41-15.8a1.507 1.507 0 0 1 1.78-.51l2.18.87c12.84 5.16 19.34 8.58 27.82 14.64l2.38 1.7c.07.05.13.1.18.15l.48.34c.07.05.13.1.19.16l.48.34a.7.7 0 0 1 .1.08c.52.36 1.04.72 1.57 1.1l2.38 1.7c.07.05.13.1.18.16l.48.34c.07.05.13.1.18.15l.48.34c.07.05.13.1.18.15l.48.34c.07.05.13.1.18.15l.48.34c.07.05.13.1.19.16l.48.34c.07.05.13.1.18.16l.48.34c.07.05.13.1.18.15l.48.34c.07.05.13.1.18.15l.48.34c.07.05.13.1.19.16l.04.03c.41-.65.78-1.27 1.13-1.87 3.84-6.43 6.42-11.97 9.21-19.78l1.61-4.48c.17-.49.58-.85 1.09-.96.11-.02.22-.04.32-.04.4 0 .78.16 1.07.44l.16.16c.19.08.36.19.5.33l.16.16c.19.08.36.19.5.33l.16.16c.19.08.36.19.5.33l.16.16c.19.08.36.19.5.33l.16.16c.19.08.36.19.5.33l.16.16c.19.08.36.19.5.34l.16.16c.17.07.34.18.48.31.28.06.54.2.74.41l.16.16c.19.08.36.19.5.34l.16.16c.19.08.36.19.5.33l.16.16c.19.08.36.19.5.33l.16.16c.19.08.36.19.5.33l.16.16c.19.08.36.19.5.33l.16.16c.19.08.36.19.5.33l.16.16c.19.08.36.19.5.33l.16.16c.19.08.36.19.5.33l.16.16c.19.08.36.19.5.33l.16.16c.19.08.36.19.5.34l.16.16c.19.08.36.19.5.33l.16.16c.19.08.36.19.5.33l.16.16c.19.08.36.19.5.33l.16.16c.19.08.36.19.5.33l.16.16c.19.08.36.19.5.34l.16.16c.19.08.36.19.5.33l.16.16c.19.08.36.19.5.33l.16.16c.19.08.36.19.5.33l.16.16c.19.08.36.19.5.33l.73.73.35.19c.18.1.34.23.46.39l.21.11c.18.1.34.23.46.38l.21.11c.18.1.34.23.46.39l.21.11c.18.1.34.23.46.39l.21.11c.18.1.34.23.46.39l.21.11c.18.1.34.23.46.39l.21.11c.18.1.33.23.45.37l.78.42V83.54c0-5.91-.11-8.28-.56-12.08l-.33-2.81c-.09-.79.45-1.51 1.23-1.65l25.6-4.52c.09-.02.17-.02.26-.02.37 0 .73.14 1.01.39.07.06.13.13.18.2a1.495 1.495 0 0 1 .66.5 1.495 1.495 0 0 1 .66.5 1.495 1.495 0 0 1 .66.5 1.495 1.495 0 0 1 .66.5c.18.07.34.17.48.3.07.06.13.13.19.2.17.07.34.17.48.3.07.06.13.13.18.2.18.07.34.17.48.3l.03.03c.25.06.49.18.69.36.07.06.13.13.18.2a1.495 1.495 0 0 1 .66.5 1.495 1.495 0 0 1 .66.5 1.495 1.495 0 0 1 .66.5 1.495 1.495 0 0 1 .66.5 1.495 1.495 0 0 1 .66.5c.17.07.34.17.48.3.07.06.13.13.18.2.18.07.34.17.48.3.07.06.13.13.19.2a1.495 1.495 0 0 1 .66.5c.18.07.34.17.48.3.07.06.13.13.19.2.17.07.34.17.48.3.07.06.13.13.19.2a1.495 1.495 0 0 1 .66.5c.18.07.34.17.48.3.07.06.13.13.19.2.17.07.34.17.48.3.07.06.13.13.18.2a1.495 1.495 0 0 1 .66.5 1.495 1.495 0 0 1 .66.5 1.495 1.495 0 0 1 .66.5c.17.07.34.17.48.3.07.06.13.13.18.2.18.07.34.17.48.3.07.06.13.13.19.2a1.495 1.495 0 0 1 .71.57V76c0-6.76-.08-8.63-.55-12.55l-.34-2.82c-.1-.79.44-1.52 1.23-1.66l25.55-4.5c.09-.02.17-.02.26-.02a1.477 1.477 0 0 1 1.19.6c.17.06.33.16.47.29.07.06.14.14.19.21.17.06.33.16.47.29.07.06.14.14.19.21.17.07.33.16.47.29.07.06.14.13.19.21.17.06.33.16.47.29.07.06.14.14.19.21.17.07.33.16.47.29.07.06.14.13.19.21.17.06.33.16.47.29.07.06.14.14.19.21.17.07.33.16.47.29.01.01.02.02.04.03.25.06.49.17.68.35.07.06.14.13.19.21.17.06.33.16.47.29.07.06.14.14.19.21.17.07.33.16.47.29.07.06.14.13.19.21.17.06.33.16.47.29.07.06.14.14.19.21.17.07.33.16.47.29.07.06.14.13.19.21.17.06.33.16.47.29.07.06.14.13.19.21.17.07.33.16.47.29.07.06.14.14.19.21.17.07.33.16.47.29.07.06.14.13.19.21.17.06.33.16.47.29.07.06.14.13.19.21.17.07.33.16.47.29.07.06.14.13.19.21.17.06.33.16.47.29.07.06.14.14.19.21.17.07.33.16.47.29.07.06.14.13.19.21.11.04.21.09.3.16l.84-.05c4.93-.31 8.47-.75 14.55-1.83l26.8-4.73-.02-.94c0-3.69-.16-6.57-.56-10.39l-.29-2.78c-.08-.78.45-1.5 1.23-1.64l24.89-4.39c.09-.02.17-.02.26-.02.37 0 .74.14 1.01.4.07.06.13.13.18.2a1.495 1.495 0 0 1 .66.5 1.495 1.495 0 0 1 .66.5 1.495 1.495 0 0 1 .66.5 1.495 1.495 0 0 1 .66.5 1.495 1.495 0 0 1 .66.5 1.495 1.495 0 0 1 .66.5c.18.07.34.17.48.3.01.01.02.02.03.02.25.06.49.18.69.36.07.06.13.13.18.2a1.495 1.495 0 0 1 .66.5 1.495 1.495 0 0 1 .66.5 1.495 1.495 0 0 1 .66.5 1.495 1.495 0 0 1 .66.5 1.495 1.495 0 0 1 .66.5 1.495 1.495 0 0 1 .66.5 1.495 1.495 0 0 1 .66.5 1.495 1.495 0 0 1 .66.5 1.495 1.495 0 0 1 .66.5 1.495 1.495 0 0 1 .66.5 1.495 1.495 0 0 1 .66.5 1.495 1.495 0 0 1 .66.5 1.495 1.495 0 0 1 .66.5 1.495 1.495 0 0 1 .66.5 1.495 1.495 0 0 1 .63.46l2.44-.79a1.496 1.496 0 0 1 1.34.22c.12.09.23.19.32.31a1.568 1.568 0 0 1 .67.5c.08.03.15.06.22.1V38.6c0-.81.65-1.48 1.46-1.5l2.92-.08c4.28-.11 7.54-.51 15.17-1.86l51.22-9.03c5.11-.9 5.24-.98 6.86-1.96l1.92-1.16c.24-.15.51-.22.78-.22.37 0 .73.13 1.01.39l.28.25c.14.06.28.14.39.25l.28.25c.14.06.27.14.39.25l.28.25c.14.06.28.14.39.25l.27.25c.14.06.28.14.39.25l.27.25c.14.06.28.14.39.25l.27.25c.14.06.28.14.39.25l.28.25c.14.06.27.14.39.25l.03.03c.25.06.49.18.69.36l.28.25c.14.06.27.14.39.25l.28.25c.14.06.27.14.39.25l.28.25c.14.06.28.14.39.25l.28.25c.14.06.27.14.39.25l.27.25c.14.06.27.14.39.25l.28.25c.14.06.27.14.39.25l.28.25c.14.06.28.14.39.25l.27.25c.14.06.27.14.39.25l.28.25c.14.06.27.14.39.25l.28.25c.14.06.27.14.39.25l.28.25c.14.06.27.14.39.25l.28.25c.14.06.27.14.39.25l.28.25c.14.06.27.14.39.25l.28.25c.14.06.27.14.39.25l.28.25c.14.06.27.14.39.25l.28.25c.14.06.27.14.39.25l.28.25c.14.06.27.14.39.25l.28.25c.14.06.27.14.39.25l.28.25c.14.06.27.14.39.25l12.94 11.82c.2.18.33.4.41.63l.34.31s24.66-5.01 24.68-5.01c8.14-1.44 11.06-2.12 16.22-3.56l5.4-1.51c.13-.04.27-.06.4-.06.32 0 .64.1.91.31.11.08.21.18.29.29.13.05.26.12.38.21.11.08.21.18.29.29.13.05.26.12.38.21.11.08.21.18.29.29.13.05.26.12.38.21.11.08.21.18.29.29.13.05.26.12.38.21.11.08.21.18.29.29.13.05.26.12.38.21.11.08.21.18.29.29.13.05.26.12.38.21.11.08.21.18.29.29.13.05.26.12.38.21.05.04.09.07.13.11.21.05.41.14.58.27.11.08.21.18.29.29.13.05.26.12.38.21.11.08.21.18.29.29.13.05.26.12.38.21.11.08.21.18.29.29.13.05.26.12.38.21.11.08.21.18.29.29.13.05.26.12.38.21.11.08.21.18.29.29.13.05.26.12.38.21.11.08.21.18.29.29.13.05.26.12.38.21.11.08.21.18.29.29.03.01.05.02.08.03V23.83c0-7.64-.1-8.51-.65-13.32l-.22-2.81c-.09-.79.45-1.51 1.23-1.65l25.7-4.53c.09-.02.17-.02.26-.02a1.51 1.51 0 0 1 1.2.6c.19.07.36.18.51.32.06.06.11.12.16.18a1.515 1.515 0 0 1 .67.5c.19.07.36.18.51.32.06.06.11.12.16.18a1.515 1.515 0 0 1 .67.5 1.515 1.515 0 0 1 .67.5 1.515 1.515 0 0 1 .67.5c.19.07.36.18.51.32.27.06.51.19.72.38.06.06.11.11.16.18a1.515 1.515 0 0 1 .67.5 1.515 1.515 0 0 1 .67.5 1.515 1.515 0 0 1 .67.5 1.515 1.515 0 0 1 .67.5c.19.07.36.18.51.32.06.06.11.12.16.18a1.515 1.515 0 0 1 .67.5c.19.07.36.18.51.32.06.06.11.12.16.18a1.515 1.515 0 0 1 .67.5 1.515 1.515 0 0 1 .67.5 1.515 1.515 0 0 1 .67.5 1.515 1.515 0 0 1 .67.5c.19.07.36.18.51.32.06.06.11.12.16.18a1.515 1.515 0 0 1 .67.5 1.515 1.515 0 0 1 .67.5 1.515 1.515 0 0 1 .67.5c.19.07.36.18.51.32.06.05.11.11.16.18a1.515 1.515 0 0 1 .67.5 1.515 1.515 0 0 1 .67.5c.19.07.36.18.51.32.25.24.4.55.45.88.16.07.31.17.44.29.06.06.11.11.16.18.19.07.36.18.51.32.34.33.51.81.45 1.28l-.56 4.07c-.36 2.64-.43 7.67-.45 12.07 7.19 1.97 14.26 4.41 22.13 7.65l3.03 1.24c.25.1.47.27.63.48l.04.02c.25.1.47.27.63.48l.04.02c.25.1.47.27.63.48l.04.02c.25.1.47.27.63.48l.04.02c.25.1.47.27.63.48l.04.02c.25.1.47.27.63.48l.04.02c.25.1.47.27.63.48l.04.02c.16.06.3.15.42.26l.29.12c.25.1.47.27.63.48l.04.02c.25.1.47.27.63.48l.04.02c.25.1.47.27.63.48l.04.02c.25.1.47.27.63.48l.04.02c.25.1.47.27.63.48l.04.02c.25.1.47.27.63.48l.04.02c.25.1.47.27.63.48l.04.02c.25.1.47.27.63.48l.04.02c.25.1.47.27.63.48l.04.02c.25.1.47.27.63.48l.04.02c.25.1.47.27.63.48l.04.02c.25.1.47.27.63.48l.04.02c.25.1.47.27.63.48l.04.02c.25.1.47.27.63.48l.04.02c.25.1.47.27.63.48l.04.02c.25.1.47.27.63.48l.04.02c.25.1.47.27.63.48l.04.02c.25.1.47.27.63.48l.04.02c.25.1.47.27.63.48l.04.02c.39.16.69.48.84.87.04.1.06.21.08.31.24.1.44.27.59.47l.04.02c.39.16.69.48.84.87.14.39.12.83-.08 1.21l-12.15 23.55a1.492 1.492 0 0 1-2 .65l-2.65-1.34c-8.77-4.42-19.4-8.38-28.67-10.68v19.22c0 6.24.18 10.86.56 14.11l.32 2.81c.09.79-.45 1.51-1.23 1.65l-25.51 4.5c-.09.01-.17.02-.26.02-.37 0-.74-.14-1.01-.39-.07-.06-.13-.13-.18-.2a1.495 1.495 0 0 1-.66-.5 1.495 1.495 0 0 1-.66-.5 1.495 1.495 0 0 1-.66-.5 1.495 1.495 0 0 1-.66-.5 1.495 1.495 0 0 1-.66-.5 1.495 1.495 0 0 1-.66-.5c-.18-.07-.34-.17-.48-.3-.01-.01-.02-.02-.03-.02-.25-.06-.49-.18-.69-.36-.07-.06-.13-.13-.18-.2a1.495 1.495 0 0 1-.66-.5 1.495 1.495 0 0 1-.66-.5 1.495 1.495 0 0 1-.66-.5 1.495 1.495 0 0 1-.66-.5 1.495 1.495 0 0 1-.66-.5 1.495 1.495 0 0 1-.66-.5 1.495 1.495 0 0 1-.66-.5 1.495 1.495 0 0 1-.66-.5 1.495 1.495 0 0 1-.66-.5 1.495 1.495 0 0 1-.66-.5 1.495 1.495 0 0 1-.66-.5 1.495 1.495 0 0 1-.66-.5 1.495 1.495 0 0 1-.66-.5 1.495 1.495 0 0 1-.66-.5 1.495 1.495 0 0 1-.66-.5 1.495 1.495 0 0 1-.66-.5 1.495 1.495 0 0 1-.66-.5 1.495 1.495 0 0 1-.66-.5 1.522 1.522 0 0 1-.95-1.2c-.15-.07-.29-.16-.41-.27-.07-.06-.13-.13-.18-.2a1.52 1.52 0 0 1-.96-1.54l.35-3.9c.33-3.71.51-6.2.55-11.17-2.73.39-6.18.97-11.11 1.84 0 0-25.51 5.18-25.52 5.19-8.98 1.58-11.59 2.12-16.43 3.36l-5.31 1.37c-.12.03-.25.05-.37.05-.33 0-.65-.11-.92-.31-.11-.08-.2-.18-.28-.28-.14-.05-.27-.12-.39-.22-.11-.08-.2-.18-.28-.28-.14-.05-.27-.12-.39-.22-.11-.08-.2-.18-.28-.28-.14-.05-.27-.12-.39-.22-.11-.08-.2-.18-.28-.28-.14-.05-.27-.12-.39-.22-.11-.08-.2-.18-.28-.28-.14-.05-.27-.12-.39-.22-.11-.08-.2-.18-.28-.28-.14-.05-.27-.12-.39-.22-.11-.08-.2-.18-.28-.28-.14-.05-.27-.12-.39-.22-.04-.03-.08-.07-.12-.1-.21-.05-.42-.14-.59-.28-.11-.08-.2-.18-.28-.28-.14-.05-.27-.12-.39-.22-.11-.08-.2-.18-.28-.28-.14-.05-.27-.12-.39-.22-.11-.08-.2-.18-.28-.28-.14-.05-.27-.12-.39-.22-.11-.08-.2-.18-.28-.28-.14-.05-.27-.12-.39-.22-.11-.08-.2-.18-.28-.28-.14-.05-.27-.12-.39-.22-.11-.08-.2-.18-.28-.28-.14-.05-.27-.12-.39-.22-.11-.08-.2-.18-.28-.28-.14-.05-.27-.12-.39-.22-.11-.08-.2-.18-.28-.28-.14-.05-.27-.12-.39-.22-.11-.08-.2-.18-.28-.28-.14-.05-.27-.12-.39-.22-.11-.08-.2-.18-.28-.28-.14-.05-.27-.12-.39-.22-.11-.08-.2-.18-.28-.28-.14-.05-.27-.12-.39-.22-.11-.08-.2-.18-.28-.28-.14-.05-.27-.12-.39-.22-.11-.08-.2-.18-.28-.28-.14-.05-.27-.12-.39-.22-.11-.08-.2-.18-.28-.28-.14-.05-.27-.12-.39-.22-.11-.08-.2-.18-.28-.28-.09-.03-.18-.08-.26-.13-4.1 4.97-8.78 9.52-14.28 13.84l-2.19 1.72c-.27.22-.6.32-.93.32-.41 0-.81-.16-1.11-.49l-.11-.12c-.21-.08-.4-.21-.56-.38l-.11-.12c-.21-.08-.4-.21-.56-.38l-.11-.12c-.21-.08-.4-.21-.56-.38l-.11-.12c-.21-.08-.4-.21-.56-.38l-.11-.12c-.21-.08-.4-.21-.56-.38l-.11-.12c-.21-.08-.4-.21-.56-.38l-.11-.12c-.18-.07-.35-.18-.5-.32-.29-.06-.57-.22-.78-.45l-.11-.12c-.17-.07-.33-.17-.48-.3-.98 6.45-2.62 11.8-5.2 17.05-3.74 7.39-9.24 14.24-16.35 20.37-4.41 3.74-8.12 6.27-14.28 10.21l-2.67 1.71c-.24.16-.52.24-.81.24-.12 0-.24-.01-.36-.04-.33-.08-.63-.28-.83-.55-.26-.1-.5-.27-.67-.5-.26-.1-.5-.27-.67-.5-.26-.1-.49-.27-.66-.5-.26-.1-.5-.27-.67-.5-.26-.1-.5-.27-.67-.5-.26-.1-.5-.27-.67-.5-.19-.07-.36-.18-.51-.32-.01 0-.03-.01-.04-.01-.34-.08-.63-.28-.84-.55-.26-.1-.5-.27-.67-.5-.26-.1-.5-.27-.67-.5-.26-.1-.5-.27-.67-.5-.26-.1-.5-.27-.67-.5-.26-.1-.5-.27-.67-.5-.26-.1-.5-.27-.67-.5-.26-.1-.49-.27-.66-.5-.26-.1-.5-.27-.67-.5-.26-.1-.5-.27-.67-.5-.26-.1-.5-.27-.67-.5-.26-.1-.5-.27-.67-.5-.26-.1-.49-.27-.66-.5-.26-.1-.5-.27-.67-.5-.26-.1-.5-.27-.67-.5-.26-.1-.5-.27-.67-.5-.26-.1-.49-.27-.66-.5-.26-.1-.5-.27-.67-.5-.26-.1-.5-.27-.67-.5-.33-.12-.6-.36-.77-.66l-.35-.62c-.16-.1-.3-.23-.42-.38-.33-.12-.6-.36-.78-.67l-1.56-2.76c-1.9-3.37-3.24-5.55-4.8-7.41-.93-.91-2.05-1.9-3.74-3.3l-1.42-1.17.2 16.78c0 4.35.26 9.31.65 12.65l.33 2.82c.09.79-.45 1.52-1.23 1.65l-25.71 4.53c-.09.01-.17.02-.26.02-.39 0-.77-.15-1.05-.43-.05-.05-.1-.11-.14-.17-.19-.07-.37-.19-.52-.33-.05-.05-.1-.11-.15-.17-.19-.07-.37-.19-.52-.33-.05-.05-.1-.11-.14-.16-.19-.07-.37-.18-.52-.33-.05-.05-.1-.11-.15-.17-.19-.07-.37-.19-.52-.33-.05-.05-.1-.11-.15-.17-.19-.07-.37-.19-.52-.33-.05-.05-.1-.11-.14-.17-.19-.07-.37-.19-.52-.33-.05-.05-.1-.11-.14-.17-.19-.07-.36-.18-.51-.32a1.552 1.552 0 0 1-.88-.57c-.19-.07-.37-.19-.52-.33-.05-.05-.1-.11-.14-.17-.19-.07-.37-.19-.52-.33-.05-.05-.1-.11-.14-.17-.19-.07-.37-.18-.52-.33-.05-.05-.1-.11-.15-.17-.19-.07-.37-.19-.52-.33-.05-.05-.1-.11-.15-.17-.19-.07-.37-.19-.52-.33-.05-.05-.1-.11-.14-.17-.19-.07-.37-.19-.52-.33-.05-.05-.1-.11-.14-.16-.19-.07-.37-.18-.52-.33-.05-.05-.1-.11-.15-.17-.19-.07-.37-.19-.52-.33-.05-.05-.1-.11-.15-.17-.19-.07-.37-.19-.52-.33-.05-.05-.1-.11-.14-.17-.19-.07-.37-.19-.52-.33-.05-.05-.1-.11-.14-.17-.19-.07-.37-.19-.52-.33-.05-.05-.1-.11-.14-.16-.19-.07-.37-.18-.52-.33-.05-.05-.1-.11-.15-.17-.19-.07-.37-.19-.52-.33-.05-.05-.1-.11-.15-.17-.19-.07-.37-.19-.52-.33-.05-.05-.1-.11-.14-.17-.19-.07-.37-.19-.52-.33-.05-.05-.1-.11-.14-.17-.19-.07-.37-.19-.52-.33-.05-.05-.1-.11-.14-.16-.19-.07-.37-.18-.52-.33-.05-.05-.1-.11-.15-.17-.19-.07-.37-.19-.52-.33-.05-.05-.1-.11-.15-.17-.14-.05-.27-.12-.38-.21-4.53 3.97-9.51 7.9-14.81 11.68l-2.67 1.91a1.527 1.527 0 0 1-1.18.25c-.35-.08-.67-.28-.88-.56-.26-.1-.49-.27-.67-.5-.26-.1-.49-.27-.67-.5-.26-.1-.49-.27-.66-.5-.26-.1-.49-.27-.66-.5-.26-.1-.5-.27-.67-.5-.26-.1-.5-.27-.67-.5-.19-.07-.36-.18-.51-.32-.35-.08-.66-.28-.87-.56-.26-.1-.5-.27-.67-.5-.26-.1-.49-.27-.67-.5-.26-.1-.49-.27-.66-.5-.26-.1-.5-.27-.67-.5-.26-.1-.49-.27-.67-.5-.26-.1-.49-.27-.67-.5-.26-.1-.49-.27-.66-.5-.26-.1-.49-.27-.66-.5-.26-.1-.5-.27-.67-.5-.26-.1-.5-.27-.67-.5-.26-.1-.49-.27-.66-.5-.26-.1-.49-.27-.66-.5-.26-.1-.5-.27-.67-.5-.26-.1-.49-.27-.67-.5-.26-.1-.49-.27-.67-.5-.26-.1-.49-.27-.66-.5-.26-.1-.49-.27-.66-.5-.26-.1-.5-.27-.67-.5-.32-.12-.59-.35-.76-.64l-.39-.66c-.15-.1-.29-.22-.4-.37-.32-.12-.59-.35-.76-.64l-1.66-2.83c-.14-.24-.28-.48-.42-.71-3.67 9.99-10.43 18.54-20.57 26.05-5.83 4.35-11.37 7.49-21.15 11.96l-2.94 1.34c-.2.09-.41.14-.62.14a1.469 1.469 0 0 1-1.19-.59c-.01-.01-.03-.01-.04-.02-.25-.1-.46-.27-.62-.48-.01-.01-.03-.01-.04-.02-.25-.1-.46-.27-.62-.48-.01 0-.03-.01-.04-.02-.25-.1-.46-.27-.62-.48-.01-.01-.03-.01-.04-.02-.25-.1-.46-.27-.62-.48-.01 0-.03-.01-.04-.02-.25-.1-.46-.27-.62-.48-.01 0-.03-.01-.04-.02-.25-.1-.46-.27-.62-.48-.01 0-.03-.01-.04-.02-.17-.07-.33-.18-.47-.3-.08-.02-.17-.04-.25-.08-.25-.1-.46-.27-.62-.48-.01 0-.03-.01-.04-.02-.25-.1-.46-.27-.62-.48-.01-.01-.03-.01-.04-.02-.25-.1-.46-.27-.62-.48-.01 0-.03-.01-.04-.02-.25-.1-.46-.27-.62-.48-.01-.01-.03-.01-.04-.02-.25-.1-.46-.27-.62-.48-.01-.01-.03-.01-.04-.02-.25-.1-.46-.27-.62-.48-.01 0-.03-.01-.04-.02-.25-.1-.46-.27-.62-.48-.01 0-.03-.01-.04-.02-.25-.1-.46-.27-.62-.48-.01 0-.03-.01-.04-.02-.25-.1-.46-.27-.62-.48-.01 0-.03-.01-.04-.02-.25-.1-.46-.27-.62-.48-.01 0-.03-.01-.04-.02-.25-.1-.46-.27-.62-.48-.01-.01-.03-.01-.04-.02-.25-.1-.46-.27-.62-.48-.01 0-.03-.01-.04-.02-.25-.1-.46-.27-.62-.48-.01-.01-.03-.01-.04-.02-.25-.1-.46-.27-.62-.48-.01-.01-.03-.01-.04-.02-.25-.1-.46-.27-.62-.48-.01-.01-.03-.01-.04-.02-.25-.1-.46-.27-.62-.48-.01 0-.03-.01-.04-.02-.25-.1-.46-.27-.62-.48-.01-.01-.03-.01-.04-.02-.25-.1-.46-.27-.62-.48-.01 0-.03-.01-.04-.02-.25-.1-.46-.27-.62-.48-.01 0-.03-.01-.04-.02-.39-.16-.69-.47-.83-.86l-.13-.34c-.22-.1-.4-.26-.55-.45-.01 0-.03-.01-.04-.02-.39-.16-.69-.47-.83-.86l-1.12-3.03c-1.54-4.15-3.06-6.77-5.6-9.66-.49-.5-1.08-1.08-1.71-1.68l-3.51-3.35c-.16-.15-.28-.34-.36-.54l-1.19-1.13a1.48 1.48 0 0 1-.43-1.39c.11-.51.47-.92.96-1.1 0 0 4.75-1.71 4.84-1.75-.07-.05-.13-.1-.19-.15-.06-.06-.11-.12-.16-.18-.19-.07-.36-.18-.51-.32-.06-.06-.11-.12-.16-.18-.19-.07-.36-.18-.51-.32-.06-.06-.11-.12-.16-.18-.19-.07-.36-.18-.51-.32a.934.934 0 0 1-.16-.18c-.19-.07-.36-.18-.51-.32-.06-.06-.11-.12-.16-.18-.19-.07-.36-.18-.51-.32-.06-.06-.11-.12-.16-.18-.19-.07-.36-.18-.51-.32-.06-.06-.11-.12-.16-.18-.19-.07-.36-.18-.51-.32a.934.934 0 0 1-.16-.18c-.19-.07-.36-.18-.51-.32-.06-.06-.11-.12-.16-.18-.05-.02-.11-.04-.16-.07-7.43 14.1-15.85 24.53-27.13 33.66-11.06 9.01-20.58 14.31-39.18 21.83l-1.67.67c-2.34.94-3.04 1.22-5.14 2.2l-3.18 1.49c-.2.09-.42.14-.64.14a1.5 1.5 0 0 1-1.2-.59c-.03-.01-.06-.02-.09-.04-.23-.1-.43-.26-.58-.46-.03-.01-.06-.02-.09-.04-.23-.11-.43-.27-.58-.46-.03-.01-.06-.02-.09-.04-.23-.1-.43-.26-.58-.46-.03-.01-.06-.02-.09-.04-.23-.1-.43-.26-.58-.46-.03-.01-.06-.02-.09-.04-.23-.1-.43-.26-.58-.46-.03-.01-.06-.02-.09-.04-.23-.1-.43-.26-.58-.46-.03-.01-.06-.02-.09-.04-.16-.07-.3-.17-.42-.29-.1-.02-.2-.06-.29-.1-.23-.1-.43-.26-.58-.46-.03-.01-.06-.02-.09-.04-.23-.1-.43-.26-.58-.46-.03-.01-.06-.02-.09-.04-.23-.1-.43-.26-.58-.46-.03-.01-.06-.02-.09-.04-.23-.1-.43-.26-.58-.46-.03-.01-.06-.02-.09-.04-.23-.1-.43-.26-.58-.46-.03-.01-.06-.02-.09-.04-.23-.1-.43-.26-.58-.46-.03-.01-.06-.02-.09-.04-.23-.11-.43-.26-.58-.46-.03-.01-.06-.02-.09-.04-.23-.1-.43-.26-.58-.46-.03-.01-.06-.02-.09-.04-.23-.1-.43-.26-.58-.46-.03-.01-.06-.02-.09-.04-.23-.1-.43-.26-.58-.46-.03-.01-.06-.02-.09-.04-.23-.11-.43-.27-.58-.46-.03-.01-.06-.02-.09-.04-.23-.1-.43-.26-.58-.46-.03-.01-.06-.02-.09-.04-.23-.1-.43-.26-.58-.46-.03-.01-.06-.02-.09-.04-.23-.1-.43-.26-.58-.46-.03-.01-.06-.02-.09-.04-.23-.1-.43-.26-.58-.46-.03-.01-.06-.02-.09-.04-.23-.11-.43-.27-.58-.46-.03-.01-.06-.02-.09-.04-.23-.11-.43-.27-.58-.46-.03-.01-.06-.02-.09-.04-.23-.1-.43-.26-.58-.46-.03-.01-.06-.02-.09-.04-.23-.1-.43-.26-.58-.46-.03-.01-.06-.02-.09-.04-.4-.18-.7-.53-.82-.95l-.06-.22c-.23-.1-.43-.26-.57-.46-.03-.01-.06-.02-.09-.04-.4-.18-.7-.53-.82-.95l-5.18-17.91c-1.75 13.35-6.57 23.48-15.52 32.67-5.55 5.73-10.92 9.58-21.31 15.26l-2.65 1.45c-.36.22-.61.28-.86.28zm41-61.36c-.04 1.37-.08 2.53-.12 3.55l1.65-.42c9.65-2.45 19.42-6.47 28.26-11.64 1.69-.98 3.35-2.03 4.96-3.14l-.36-.3a1.55 1.55 0 0 1-.32-.2l-.35-.3a1.55 1.55 0 0 1-.32-.2l-.35-.29a1.55 1.55 0 0 1-.32-.2l-.08-.07a74.82 74.82 0 0 0-12.96-6.06l-1.52-.54v16.05c0 .77-.59 1.42-1.36 1.49l-2.72.26c-4.58.43-7.21.8-13.42 1.9l-.67.11zM370.24 106l.84-.41c9.96-4.88 16.52-9.91 20.67-15.85 2.48-3.59 3.95-7.3 4.75-12.08-.08.02-4.03 1.12-4.03 1.12-.13.04-.27.06-.4.06-.32 0-.64-.1-.91-.31a1.33 1.33 0 0 1-.29-.29c-.13-.05-.26-.12-.38-.21a1.33 1.33 0 0 1-.29-.29c-.08-.03-.15-.06-.22-.1v11.12c0 .79-.61 1.44-1.4 1.5l-2.8.19c-3.23.22-6.19.64-13.21 1.87l-2.49.44.16 13.24zm-82.31-7.06c0 2.31-.03 4.55-.08 6.68 1.75-1.37 3.43-2.74 5.01-4.11a1.5 1.5 0 0 1-.32-.19 1.33 1.33 0 0 1-.29-.29c-.13-.05-.26-.12-.38-.21a1.33 1.33 0 0 1-.29-.29c-.13-.05-.26-.12-.38-.21a1.33 1.33 0 0 1-.29-.29c-.13-.05-.26-.12-.38-.21a1.33 1.33 0 0 1-.29-.29c-.13-.05-.26-.12-.38-.21a1.33 1.33 0 0 1-.29-.29c-.13-.05-.26-.12-.38-.21a1.33 1.33 0 0 1-.29-.29c-.13-.05-.26-.12-.38-.21a1.33 1.33 0 0 1-.29-.29c-.12-.05-.23-.11-.34-.18v1.09z"/><path class="st0" d="m567.59 3-.09.63.75-.13-.09.63.76-.13-.09.63.75-.13-.09.63.76-.13-.09.63.75-.13-.09.63.75-.13-.09.63.75-.13-.07.52.79-.14-.09.63.75-.13-.09.63.75-.13-.09.63.75-.13-.06.62.75-.13-.09.63.75-.13-.08.63.75-.13-.09.63.75-.13-.08.63.75-.13-.09.63.75-.13-.08.63.75-.13-.09.63.75-.13-.09.63.75-.13-.09.63.75-.13-.09.63.75-.13-.09.63.75-.13-.09.63.75-.13-.09.63.75-.13-.09.63.75-.13-.09.63.75-.13-.1.73.32-.06-.09.63.75-.13-.09.63.75-.13-.56 4.07c-.4 2.92-.46 8.39-.46 13.42 7.58 2.02 14.93 4.55 23.06 7.89l3.03 1.24-.1.19.76.31-.1.19.76.31-.1.19.76.31-.1.19.76.31-.1.19.76.31-.1.19.76.31-.1.19.76.31-.04.07.75.31-.06.11h.01l-.04.07.75.31-.06.11h.01l-.04.07.75.31-.06.11h.01l-.04.07.75.31-.06.11h.01l-.04.07.75.31-.06.11h.01l-.04.07.75.31-.06.11h.01l-.04.07.75.31-.06.11h.01l-.04.07.75.31-.06.11h.01l-.04.07.75.31-.06.11h.01l-.04.07.75.31-.06.11h.01l-.04.07.75.31-.06.11h.01l-.04.07.75.31-.06.11h.01l-.04.07.75.31-.1.19.76.31-.1.19.76.31-.1.19.76.31-.1.19.76.31-.1.19.95.39-.1.19.76.31-.1.19.76.31-.25.48.46.19-.1.19.76.31-.1.19.76.31-1.5 2.91-9.29 18-1.36 2.64-2.65-1.34c-9.23-4.65-20.48-8.79-30.11-11.08-.26-.06-.5-.11-.73-.16v21.11c0 6.3.19 10.97.57 14.28l.32 2.81-2.78.49-18.87 3.33-3.86.68.06-.63-.72.13.06-.63-.72.13.06-.63-.72.13.06-.63-.72.13.06-.63-.72.13.06-.63-.72.13.06-.63-.72.13.05-.52-.76.13.06-.63-.72.13.06-.63-.72.13.06-.63-.72.13.06-.63-.72.13.06-.63-.72.13.06-.63-.72.13.06-.63-.72.13.06-.63-.72.13.06-.63-.72.13.06-.63-.72.13.06-.63-.72.13.06-.63-.72.13.06-.63-.72.13.06-.63-.72.13.06-.63-.72.13.06-.63-.72.13.06-.63-.72.13.06-.63-.72.13.06-.63-.72.13.06-.72-.28.05.06-.63-.72.13.06-.63-.72.13.35-3.9c.37-4.16.55-6.82.57-13.02-2.95.36-6.6.97-12.88 2.08l-25.45 5.17-.04.01-.04.01c-9.02 1.59-11.65 2.13-16.54 3.39l-1.57.4-3.75.96v-.67l-.67.17v-.67l-.67.17v-.67l-.67.17v-.67l-.67.17v-.67l-.67.17v-.67l-.67.17v-.67l-.67.17v-.57l-.72.18v-.67l-.67.17v-.67l-.67.17v-.67l-.67.17v-.67l-.67.17v-.67l-.67.17v-.67l-.67.17v-.67l-.67.17v-.67l-.67.17v-.67l-.67.17v-.67l-.67.17v-.67l-.67.17v-.67l-.67.17v-.67l-.67.17v-.59l-.67.17v-.67l-.67.17v-.67l-.67.17v-.67l-.12.03c-4.31 5.48-9.31 10.42-15.22 15.07l-2.19 1.72-.54-.59-.12.09-.54-.59-.12.09-.54-.59-.12.09-.54-.59-.12.09-.54-.59-.12.09-.54-.59-.12.09-.54-.59-.12.09-.51-.55-.21.17-.54-.59-.12.09-.54-.59-.12.09-.54-.59-.12.09-.54-.59-.12.09-.17-.18c-.9 7.46-2.59 13.43-5.41 19.16-3.64 7.2-9.01 13.89-15.98 19.89-4.34 3.68-8.01 6.19-14.11 10.08l-2.67 1.7-.38-.68-.28.18-.38-.68-.28.18-.38-.68-.28.18-.38-.68-.28.18-.38-.68-.28.18-.38-.68-.28.18-.38-.68-.28.18-.35-.62-.37.23-.38-.68-.28.18-.38-.68-.28.18-.38-.68-.28.18-.38-.68-.28.18-.38-.68-.28.18-.38-.68-.28.18-.38-.68-.28.18-.38-.68-.28.18-.38-.68-.28.18-.38-.68-.28.18-.38-.68-.28.18-.38-.68-.28.18-.38-.68-.28.18-.38-.68-.28.18-.38-.68-.28.18-.38-.68-.28.18-.38-.68-.28.18-.38-.68-.28.18-.38-.68-.28.18-.72-1.27-.16.1-.38-.68-.28.18-1.56-2.76c-2.05-3.63-3.4-5.8-5.01-7.69-1.06-1.05-2.29-2.12-3.89-3.44l-3.59-2.96.3-.15-.62-.51.24 20.41c0 4.38.26 9.41.66 12.81l.33 2.82-2.79.49-18.77 3.31-4.15.73.1-.63-.77.14.1-.63-.77.14.1-.63-.77.14.1-.63-.77.14.1-.63-.77.14.1-.63-.77.14.1-.63-.77.14.08-.53-.8.14.1-.63-.77.14.1-.63-.77.14.1-.63-.77.14.1-.63-.77.14.1-.63-.77.14.1-.63-.77.14.1-.63-.77.14.1-.63-.77.14.1-.63-.77.14.1-.63-.77.14.1-.63-.77.14.1-.63-.77.14.1-.63-.77.14.1-.63-.77.14.1-.63-.77.14.1-.63-.77.14.1-.63-.77.14.1-.63-.77.14.1-.63-.77.14.12-.73-.33.06.1-.63-.31.05c-4.89 4.39-10.25 8.67-16.17 12.9l-2.67 1.91-.4-.69-.26.19-.4-.69-.26.19-.4-.69-.26.19-.4-.69-.26.19-.4-.69-.26.19-.4-.69-.26.19-.4-.69-.26.19-.37-.63-.35.25-.4-.69-.26.19-.4-.69-.26.19-.4-.69-.26.19-.4-.69-.26.19-.4-.69-.26.19-.4-.69-.26.19-.4-.69-.26.19-.4-.69-.26.19-.4-.69-.26.19-.4-.69-.26.19-.4-.69-.26.19-.4-.69-.26.19-.4-.69-.26.19-.4-.69-.26.19-.4-.69-.26.19-.4-.69-.26.19-.4-.69-.26.19-.4-.69-.26.19-.4-.69-.26.19-.74-1.27-.14.1-.4-.69-.26.19-1.66-2.83c-.76-1.29-1.46-2.39-2.16-3.38-3.26 10.95-10.15 20.22-21.03 28.28-5.74 4.29-11.2 7.37-20.88 11.8l-2.94 1.34-.26-.69-.41.19-.26-.69-.41.19-.26-.69-.41.19-.26-.69-.41.19-.26-.69-.41.19-.25-.69-.41.19-.26-.69-.41.19-.23-.61-.49.22-.26-.69-.41.19-.25-.69-.41.19-.26-.69-.41.19-.26-.69-.41.19-.26-.69-.41.19-.26-.69-.41.19-.26-.69-.41.19-.26-.69-.41.19-.26-.69-.41.19-.26-.69-.41.19-.26-.69-.41.19-.26-.69-.41.19-.26-.69-.41.19-.26-.69-.41.19-.26-.69-.41.19-.26-.69-.41.19-.25-.69-.41.19-.26-.69-.41.19-.26-.69-.41.19-.5-1.34-.38.18-.26-.69-.41.19-1.12-3.03c-1.56-4.19-3.15-7.02-5.88-10.13a76.97 76.97 0 0 0-1.8-1.78l-3.51-3.35.15-.05-1.69-1.62 4.56-1.65c1.2-.43 2.33-.85 3.39-1.26l.03-.24-.75.13.09-.63-.75.13.09-.63-.75.13.07-.52-.79.14.09-.63-.75.13.09-.63-.75.13.09-.63-.75.13.09-.63-.75.13.09-.63-.75.13.09-.63-.75.13.09-.63-.75.13.09-.63-.75.13.09-.63-.75.13.09-.63-.75.13.09-.63-.58.1c-7.67 14.99-16.1 25.53-27.61 34.85-10.93 8.9-20.35 14.15-38.8 21.6l-1.67.67c-2.38.95-3.1 1.24-5.22 2.24l-3.18 1.49-.21-.71-.46.22-.21-.71-.46.22-.2-.68-.02.01-.01-.03-.44.21-.2-.68-.02.01-.01-.03-.44.21-.2-.68-.02.01-.01-.03-.44.21-.2-.68-.02.01-.01-.03-.44.21-.2-.68-.02.01-.01-.03-.44.21-.18-.63-.53.25-.21-.71-.46.21-.21-.71-.46.21-.2-.68-.02.01-.01-.03-.44.21-.2-.68-.02.01-.01-.03-.44.21-.2-.68-.02.01-.01-.03-.44.21-.2-.68-.02.01-.01-.03-.44.21-.2-.68-.02.01-.01-.03-.44.21-.2-.68-.02.01-.01-.03-.44.21-.2-.68-.02.01-.01-.03-.44.21-.2-.68-.02.01-.01-.03-.44.21-.2-.68-.02.01-.01-.03-.44.21-.2-.68-.02.01-.01-.03-.44.21-.2-.68-.02.01-.01-.03-.44.21-.2-.68-.02.01-.01-.03-.44.21-.2-.68-.02.01-.01-.03-.44.21-.2-.68-.02.01-.01-.03-.44.21-.2-.68-.02.01-.01-.03-.44.21-.2-.68-.02.01-.01-.03-.44.21-.2-.68-.02.01-.01-.03-.44.21-.2-.68-.02.01-.21-.71-.46.22-.21-.71-.46.21-.98-3.37-5.08-17.59-.86-2.98 3.01-.76c9.78-2.48 19.69-6.56 28.65-11.8 2.4-1.4 4.64-2.87 6.78-4.41l-.25-.21-.03.04-.64-.54-.03.04-.64-.54-.03.04-.64-.54-.03.04-.64-.54v-.27l-.59-.5c-.02-.01-.03-.02-.05-.03l-.02.03-.18-.15a76.764 76.764 0 0 0-13.34-6.25l-3.53-1.25v18.18l-2.72.26c-4.62.44-7.28.81-13.54 1.92l-1.89.33c-.15 5.57-.27 7.79-.64 11.3-1.53 13.79-6.24 24.09-15.29 33.38-5.43 5.61-10.72 9.4-20.95 14.99l-2.65 1.45-.36-.67-.31.17-.36-.67-.31.17-.36-.67-.31.17-.36-.67-.31.17-.36-.67-.31.17-.36-.67-.31.17-.36-.67-.31.17-.32-.6-.39.22-.36-.67-.31.17-.36-.67-.31.17-.36-.67-.31.17-.36-.67-.31.17-.36-.67-.31.17-.36-.67-.31.17-.36-.67-.31.17-.36-.67-.31.17-.36-.67-.31.17-.36-.67-.31.17-.36-.67-.31.17-.36-.67-.31.17-.36-.67-.31.17-.36-.67-.31.17-.36-.67-.31.17-.36-.67-.31.17-.36-.67-.31.17-.36-.67-.31.17-.36-.67-.31.17-.69-1.28-.19.11-.36-.67-.31.17-1.43-2.66c-1.56-2.9-2.85-4.91-4.46-6.8-1.09-1.09-2.35-2.21-3.92-3.5l-3.64-3.01.3-.14-1.85-1.53 4.28-2.01c.4-.19.77-.37 1.15-.55l.06-.4-.75.13.09-.63-.75.13.09-.63-.75.13.09-.63-.75.13.09-.63-.75.13.09-.63-.75.13.09-.63-.75.13.09-.63-.75.13.09-.63-.75.13.09-.63-.75.13.09-.63-.75.13.09-.63-.75.13.09-.63-.75.13.09-.63-.75.13.09-.63-.75.13.09-.63-.75.13.1-.73-.32.06.09-.63-.75.13.09-.63-.75.13.58-4.09c.02-.14.03-.28.05-.42v-.17l-.67.18v-.67l-.67.18v-.67l-.67.18v-.57l-.72.19v-.67l-.67.18v-.67l-.67.18v-.67l-.67.18v-.67l-.67.18v-.67l-.67.18v-.67l-.67.18v-.67l-.67.18v-.67l-.67.18v-.67l-.67.18v-.67l-.67.18v-.67l-.67.18v-.67l-.67.18v-.67l-.67.18v-.67l-.67.18v-.67l-.67.18v-.67l-.67.18v-.67l-.67.18v-.67l-.67.18v-.67l-.67.18v-.73l-.22.06v-.67l-.67.18v-.67l-.51.03v-23.23l2.87-.13c4.29-.19 6.08-.42 13.69-1.77l.84-.15v-4.51c0-4.3-.08-6.3-.56-9.68l-.4-2.87 2.85-.5 17.89-3.15 3.9-.69-.06.63.73-.13-.06.63.73-.13-.06.63.73-.13-.06.63.73-.13-.06.63.73-.13-.06.63.73-.13-.06.63.73-.13-.05.52.73-.14-.06.63.73-.13-.06.63.73-.13-.06.63.73-.13-.06.63.73-.13-.06.63.73-.13-.06.63.73-.13-.06.63.73-.13-.06.63.73-.13-.06.63.73-.13-.06.63.73-.13-.06.63.73-.13-.06.63.73-.13-.06.63.73-.13-.06.63.19-.03v-.05c0-5.63-.11-8.2-.45-10.2l-.49-2.93 2.93-.52 17.59-3.1 4.03-.71-.08.63.75-.13-.08.63.75-.13-.08.63.75-.13-.08.63.75-.13-.08.63.75-.13-.08.63.75-.13-.08.63.75-.13-.07.52.79-.14-.08.63.75-.13-.08.63.75-.13-.08.63.75-.13-.08.63.75-.13-.08.63.75-.13-.08.63.75-.13-.08.63.75-.13-.08.63.75-.13-.08.63.75-.13-.08.63.75-.13-.08.63.75-.13-.08.63.75-.13-.08.63.75-.13-.08.63.75-.13-.08.63.75-.13-.08.63.75-.13-.08.63.75-.13-.08.63.75-.13-.08.63.75-.13-.09.69.3-.1v.08h.01l-.01.05v.57l.11-.02.56-.18v.08h.01l-.01.05v.32l.1-.14 11.24-15.56 1.37-1.9 2.18.87c12.71 5.11 19.14 8.49 27.51 14.47l2.38 1.7-.01.02.68.48-.01.02.68.48v.01c.55.38 1.1.77 1.67 1.17l2.38 1.7-.01.02.68.48-.01.02.68.48-.01.02.68.48-.01.02.68.48-.01.02.68.48-.01.02.68.48-.01.02.68.48-.01.02.68.48-.01.02.68.48-.01.02.68.48-.01.02.18.13a87.23 87.23 0 0 0 2.02-3.29c3.88-6.51 6.5-12.13 9.33-20.03l1.61-4.48.62.63.05-.13.62.63.05-.13.62.63.05-.13.62.63.05-.13.62.63.05-.13.62.63.05-.13.62.63.05-.13.62.63.05-.13.01.01.04-.12.61.62.01.01.04-.12.61.62.01.01.04-.12.61.62.01.01.04-.12.61.62.01.01.04-.12.61.62.01.01.04-.12.61.62.01.01.04-.12.61.62.01.01.04-.12.61.62.01.01.04-.12.61.62.01.01.04-.12.61.62.01.01.04-.12.61.62.01.01.04-.12.62.63.05-.13.62.63.05-.13.62.63.05-.13.62.63.05-.13.62.63.05-.13.62.63.05-.13.62.63.05-.13.62.63.05-.13.88.89.54.29-.05.11.71.39-.05.11.71.39-.05.11.71.39-.05.11.71.39-.05.11.71.39-.05.11.71.39-.05.1 1.43.78-.05.11.71.39-.05.11.71.39-.05.11.71.39-.05.11.11.06V83.54c0-5.98-.11-8.39-.57-12.25l-.33-2.81 2.79-.49 18.96-3.34 3.85-.68-.05.63.72-.13-.05.63.72-.13-.05.63.72-.13-.05.63.72-.13-.05.63.72-.13-.05.63.72-.13-.05.63.72-.13-.05.52.76-.13-.05.63.72-.13-.05.63.72-.13-.05.63.72-.13-.05.63.72-.13-.05.63.72-.13-.05.63.72-.13-.05.63.72-.13-.05.63.72-.13-.05.63.72-.13-.05.63.72-.13-.05.63.72-.13-.05.63.72-.13-.05.63.72-.13-.05.63.72-.13-.05.63.72-.13-.05.63.72-.13-.05.63.72-.13-.05.63.72-.13-.05.63.72-.13-.06.72.28-.05-.05.63.72-.13-.05.63.72-.13-.34 3.89c-.39 4.46-.48 6.17-.48 12.73v14.42c.4-1.25.73-2.54.98-3.91.5-3.17 1.03-11.27 1.03-20.1V76.01c0-6.83-.08-8.74-.57-12.73l-.34-2.82 2.8-.49 18.96-3.34 3.79-.67-.04.62.71-.13-.04.62.71-.13-.04.62.71-.13-.04.62.71-.13-.04.62.71-.13-.04.62.71-.13-.04.62.71-.13-.04.52.75-.13-.04.62.71-.13-.04.62.71-.13-.04.62.71-.13-.04.62.71-.13-.04.62.71-.13-.04.62.71-.13-.04.62.71-.13-.04.62.71-.13-.04.62.71-.13-.04.62.71-.13-.04.62.71-.13-.04.62.71-.13-.02.31 1.79-.11c5-.31 8.58-.76 14.72-1.85l28.07-4.95-.04-2.23v-.06c0-3.65-.16-6.59-.57-10.46l-.3-2.78 2.76-.49 18.28-3.22 3.85-.68-.06.63.72-.13-.06.63.72-.13-.06.63.72-.13-.06.63.72-.13-.06.63.72-.13-.06.63.72-.13-.06.63.72-.13-.05.52.76-.13-.06.63.72-.13-.06.63.72-.13-.06.63.72-.13-.06.63.72-.13-.06.63.72-.13-.06.63.72-.13-.06.63.72-.13-.06.63.72-.13-.06.63.72-.13-.06.63.72-.13-.06.63.72-.13-.06.63.72-.13-.06.63.72-.13-.06.63.72-.13-.06.63.72-.13-.06.63.72-.13-.03.3 3.43-1.11v.71l.67-.22v.71l.67-.22v.71l.67-.22v.71l.67-.22v.71l.67-.22v.71l.26-.08V38.6l2.92-.08c4.36-.12 7.67-.52 15.39-1.88l51.22-9.03c5.38-.95 5.61-1.09 7.38-2.15l1.92-1.16.59.54.07-.04.59.54.07-.04.59.54.07-.04.59.54.07-.04.59.54.07-.04.59.54.07-.04.59.54.07-.04.54.49.18-.11.59.54.07-.04.59.54.07-.04.59.54.07-.04.59.54.07-.04.59.54.07-.04.59.54.07-.04.59.54.07-.04.59.54.07-.04.59.54.07-.04.59.54.07-.04.59.54.07-.04.59.54.07-.04.59.54.07-.04.59.54.07-.04.59.54.07-.04.59.54.07-.04.59.54.07-.04.59.54.07-.04.59.54.07-.04 1.66 1.51 9.19 8.39 2.09 1.91-.12.15 1.43 1.31 25.3-5.14.04-.01.04-.01c8.22-1.45 11.16-2.14 16.38-3.59l1.59-.44 3.81-1.06v.68l.67-.19v.68l.66-.19v.68l.67-.19v.68l.67-.19v.68l.67-.19v.68l.67-.19v.68l.67-.19v.58l.72-.2v.68l.67-.19v.68l.67-.19v.68l.67-.19v.68l.67-.19v.68l.67-.19v.68l.67-.19v.68l.67-.19v.68l.67-.19v.68l.66-.19v.68l.67-.19v.68l.11-.03V23.83c0-7.72-.1-8.6-.66-13.5l-.32-2.81 2.78-.49 18.87-3.33 3.75-.7M368.77 108.39l2.98-1.46c10.19-4.99 16.95-10.19 21.24-16.34 2.94-4.26 4.58-8.69 5.32-14.98-.79.21-1.59.42-2.43.66l-3.81 1.06v-.68l-.67.19v-.68l-.67.19v-.68l-.67.19v-.68l-.67.19v-.68l-.67.19v-.68l-.26.07V88.8l-2.8.19c-3.29.22-6.29.64-13.37 1.89l-3.75.66.23 16.85m-82.51.34c3.33-2.49 6.41-4.99 9.24-7.53v-.36l-.67.18v-.58l-.72.2v-.68l-.67.18v-.68l-.67.18v-.68l-.67.18v-.68l-.67.18v-.68l-.67.18v-.68l-.67.18v-.68l-.67.18v-.68l-.67.18v-.68l-.67.18v-.68l-.67.18v-.68l-.67.18v-.68l-.38.1v4.37c.07 3.52.01 6.78-.1 9.8M567.59 0c-.17 0-.35.02-.52.05l-4.05.71-18.87 3.33-2.78.49a3.007 3.007 0 0 0-2.46 3.3l.32 2.81c.56 4.86.64 5.6.64 13.15v19.78c-.1-.07-.21-.14-.32-.2-.09-.09-.19-.18-.3-.26-.12-.09-.24-.17-.36-.24-.09-.09-.19-.18-.3-.26-.12-.09-.24-.17-.36-.24a3.047 3.047 0 0 0-1.07-.68 5.4 5.4 0 0 0-.31-.2c-.09-.09-.19-.18-.3-.26-.12-.09-.24-.17-.36-.24-.09-.09-.19-.18-.3-.26-.12-.09-.24-.17-.36-.24-.09-.09-.19-.18-.3-.26-.12-.09-.24-.17-.36-.24-.09-.09-.19-.18-.3-.26-.12-.09-.24-.17-.36-.24-.09-.09-.19-.18-.3-.26-.12-.09-.24-.17-.36-.24-.09-.09-.19-.18-.3-.26-.12-.09-.24-.17-.36-.24a3.013 3.013 0 0 0-2.11-.87c-.27 0-.54.04-.81.11l-3.81 1.06-1.59.44c-5.11 1.43-7.99 2.1-16.09 3.53-.03 0-.09.02-.12.02l-23.66 4.81c-.11-.14-.23-.27-.36-.39l-2.09-1.91-9.19-8.39-1.66-1.51a3.22 3.22 0 0 0-.56-.41l-.1-.09a3.22 3.22 0 0 0-.56-.41l-.1-.09a3.22 3.22 0 0 0-.56-.41l-.1-.09c-.17-.16-.36-.3-.56-.41l-.1-.09a3.22 3.22 0 0 0-.56-.41l-.1-.09a3.22 3.22 0 0 0-.56-.41l-.1-.09a3.22 3.22 0 0 0-.56-.41l-.1-.09a3.22 3.22 0 0 0-.56-.41l-.1-.09c-.17-.16-.36-.3-.56-.41l-.1-.09a3.22 3.22 0 0 0-.56-.41l-.1-.09a3.22 3.22 0 0 0-.56-.41l-.1-.09a3.22 3.22 0 0 0-.56-.41l-.1-.09a3.22 3.22 0 0 0-.56-.41l-.1-.09a3.22 3.22 0 0 0-.56-.41l-.1-.09a3.22 3.22 0 0 0-.56-.41l-.1-.09a3.22 3.22 0 0 0-.56-.41l-.1-.09a3.22 3.22 0 0 0-.56-.41l-.1-.09a3.22 3.22 0 0 0-.56-.41l-.1-.09a3.22 3.22 0 0 0-.56-.41l-.1-.09c-.29-.27-.62-.47-.98-.6-.1-.07-.2-.14-.3-.19l-.1-.09a3.22 3.22 0 0 0-.56-.41l-.1-.09a3.22 3.22 0 0 0-.56-.41l-.1-.09a3.22 3.22 0 0 0-.56-.41l-.1-.09c-.17-.16-.36-.3-.56-.41l-.1-.09a3.22 3.22 0 0 0-.56-.41l-.1-.09c-.17-.16-.36-.3-.56-.41l-.1-.09c-.57-.52-1.29-.78-2.02-.78a3 3 0 0 0-1.55.43l-1.92 1.16c-1.43.86-1.51.92-6.35 1.77l-51.22 9.03c-7.55 1.33-10.76 1.73-14.95 1.84l-2.92.08a2.993 2.993 0 0 0-2.92 3v8.8c-.19-.04-.39-.06-.58-.06-.31 0-.62.05-.93.15l-1.68.55h-.01c-.03-.03-.06-.06-.09-.08-.18-.16-.37-.3-.58-.42-.03-.03-.06-.06-.09-.08-.18-.16-.37-.3-.58-.42-.03-.03-.06-.06-.09-.08-.18-.16-.37-.3-.58-.42-.03-.03-.06-.06-.09-.08-.18-.16-.37-.3-.58-.41-.03-.03-.06-.06-.09-.08-.18-.16-.37-.3-.58-.42-.03-.03-.06-.06-.09-.08-.18-.16-.37-.3-.58-.42-.03-.03-.06-.06-.09-.08-.18-.16-.37-.3-.58-.42-.03-.03-.06-.06-.09-.08-.18-.16-.37-.3-.58-.42-.03-.03-.06-.06-.09-.08-.18-.16-.37-.3-.58-.42-.03-.03-.06-.06-.09-.08-.18-.16-.37-.3-.58-.42-.03-.03-.06-.06-.09-.08-.18-.16-.37-.3-.58-.42-.03-.03-.06-.06-.09-.08-.18-.16-.37-.3-.58-.42-.03-.03-.06-.06-.09-.08-.18-.16-.37-.3-.58-.41-.03-.03-.06-.06-.09-.08-.18-.16-.37-.3-.58-.42-.03-.03-.06-.06-.09-.08-.29-.26-.62-.47-.98-.6a5.4 5.4 0 0 0-.31-.2c-.03-.03-.06-.06-.09-.08-.18-.16-.37-.3-.58-.42-.03-.03-.06-.06-.09-.08-.18-.16-.37-.3-.58-.42-.03-.03-.06-.06-.09-.08-.18-.16-.37-.3-.58-.42-.03-.03-.06-.06-.09-.08-.18-.16-.37-.3-.58-.42-.03-.03-.06-.06-.09-.08-.18-.16-.37-.3-.58-.41-.03-.03-.06-.06-.09-.08-.18-.16-.37-.3-.58-.42-.03-.03-.06-.06-.09-.08-.56-.51-1.28-.79-2.03-.79-.17 0-.35.02-.52.05l-3.85.68-18.28 3.22-2.76.49c-1.55.27-2.63 1.7-2.46 3.27l.3 2.78c.39 3.68.55 6.48.55 9.92l-25.54 4.5c-6.02 1.06-9.51 1.5-14.39 1.81l-.3.02c-.16-.13-.32-.25-.5-.35-.03-.03-.07-.07-.11-.1-.17-.16-.36-.29-.56-.4-.03-.03-.07-.07-.11-.1-.17-.16-.36-.29-.56-.4-.03-.03-.07-.07-.11-.1-.17-.16-.36-.29-.56-.4-.03-.03-.07-.07-.11-.1-.17-.16-.36-.29-.56-.4-.03-.03-.07-.07-.11-.1-.17-.16-.36-.29-.56-.4-.03-.03-.07-.07-.11-.1-.17-.16-.36-.29-.56-.4-.03-.03-.07-.07-.11-.1-.17-.16-.36-.29-.56-.4-.03-.03-.07-.07-.11-.1-.17-.16-.36-.29-.56-.4-.03-.03-.07-.07-.11-.1-.17-.16-.36-.29-.56-.4-.03-.03-.07-.07-.11-.1-.17-.16-.36-.29-.56-.4-.03-.03-.07-.07-.11-.1-.28-.26-.61-.45-.96-.58a5.4 5.4 0 0 0-.31-.2c-.03-.03-.07-.07-.11-.1-.17-.16-.36-.29-.56-.4-.03-.03-.07-.07-.11-.1-.17-.16-.36-.29-.56-.4-.03-.03-.07-.07-.11-.1-.17-.16-.36-.29-.56-.4-.03-.03-.07-.07-.11-.1-.17-.16-.36-.29-.56-.4-.03-.03-.07-.07-.11-.1-.17-.16-.36-.29-.56-.4-.03-.03-.07-.07-.11-.1-.17-.16-.36-.29-.56-.4-.03-.03-.07-.07-.11-.1-.56-.5-1.27-.77-2.01-.77-.17 0-.35.02-.52.05l-3.79.67-18.96 3.34-2.8.49a3.001 3.001 0 0 0-2.46 3.31l.34 2.82c.39 3.28.51 5.11.54 9.73-.09-.06-.18-.12-.28-.18-.03-.03-.06-.06-.09-.08-.18-.16-.37-.3-.58-.41-.03-.03-.06-.06-.09-.08-.18-.16-.37-.3-.58-.41l-.09-.09c-.18-.16-.37-.3-.58-.41l-.09-.09c-.18-.16-.37-.3-.58-.41-.03-.03-.06-.06-.09-.08-.18-.16-.37-.3-.58-.41l-.09-.09c-.18-.16-.37-.3-.58-.41l-.09-.09c-.18-.16-.37-.3-.58-.41l-.09-.09c-.18-.16-.37-.3-.58-.41l-.09-.09c-.18-.16-.37-.3-.58-.41-.03-.03-.06-.06-.09-.08-.18-.16-.37-.3-.58-.41l-.09-.09c-.18-.16-.37-.3-.58-.41l-.09-.09c-.18-.16-.37-.3-.58-.41l-.09-.09c-.18-.16-.37-.3-.58-.41l-.09-.09c-.18-.16-.37-.3-.58-.41l-.09-.09c-.18-.16-.37-.3-.58-.41-.03-.03-.06-.06-.09-.08-.29-.26-.62-.47-.98-.6a5.4 5.4 0 0 0-.31-.2c-.03-.03-.06-.06-.09-.08-.18-.16-.37-.3-.58-.41l-.09-.09c-.18-.16-.37-.3-.58-.41-.03-.03-.06-.06-.09-.08-.18-.16-.37-.3-.58-.41l-.09-.09c-.18-.16-.37-.3-.58-.41-.03-.03-.06-.06-.09-.08-.18-.16-.37-.3-.58-.41l-.09-.09c-.18-.16-.37-.3-.58-.41-.03-.03-.06-.06-.09-.08-.56-.51-1.28-.79-2.03-.79-.17 0-.35.02-.52.05l-3.85.68-18.96 3.34-2.79.49a3.005 3.005 0 0 0-2.46 3.3l.33 2.81c.44 3.73.55 6.06.55 11.9v13.67a8.9 8.9 0 0 0-.32-.21 3.08 3.08 0 0 0-.67-.5 3.08 3.08 0 0 0-.67-.5 3.08 3.08 0 0 0-.67-.5c-.2-.2-.42-.37-.68-.51l-.15-.08-.57-.58c-.2-.21-.43-.38-.68-.52-.2-.2-.42-.37-.67-.5-.2-.2-.42-.37-.66-.5-.2-.2-.42-.37-.67-.5-.2-.2-.42-.37-.66-.5-.2-.2-.42-.37-.67-.5-.2-.2-.42-.37-.66-.5-.2-.2-.42-.37-.67-.5-.2-.2-.42-.37-.67-.5-.2-.2-.42-.37-.66-.5-.2-.2-.42-.37-.67-.5-.2-.2-.42-.37-.67-.5-.2-.2-.42-.37-.67-.5-.2-.2-.42-.37-.66-.5-.2-.2-.42-.37-.67-.5-.2-.2-.42-.37-.67-.5-.2-.2-.42-.37-.66-.5-.2-.2-.42-.37-.67-.5-.2-.2-.42-.37-.67-.5a2.83 2.83 0 0 0-1.07-.68 5.4 5.4 0 0 0-.31-.2c-.2-.2-.42-.37-.66-.5-.2-.2-.42-.37-.67-.5-.2-.2-.42-.37-.66-.5-.2-.2-.42-.37-.67-.5-.2-.2-.42-.37-.66-.5-.2-.2-.42-.37-.67-.5a3.022 3.022 0 0 0-2.77-.8c-1.01.22-1.83.95-2.17 1.92l-1.61 4.48c-2.76 7.71-5.31 13.18-9.08 19.51-.09.15-.18.3-.27.46-.08-.07-.17-.15-.26-.21l-.4-.29c-.08-.07-.17-.15-.26-.21l-.4-.29c-.08-.07-.17-.15-.26-.21l-.4-.29c-.08-.07-.17-.15-.26-.21l-.4-.29c-.08-.07-.17-.15-.26-.21l-.4-.29c-.08-.07-.17-.15-.26-.21l-.4-.29c-.08-.07-.17-.15-.26-.21l-2.38-1.7c-.52-.37-1.03-.73-1.54-1.08-.04-.03-.08-.06-.13-.1l-.4-.29c-.08-.07-.17-.15-.26-.21l-.4-.29c-.08-.07-.17-.15-.26-.21l-2.38-1.7c-8.59-6.14-15.17-9.6-28.13-14.81l-2.18-.87a2.995 2.995 0 0 0-3.55 1.02l-1.37 1.9-9.15 12.66a3.02 3.02 0 0 0-.52-.36l-.04-.04c-.19-.18-.4-.34-.62-.46l-.04-.04c-.19-.18-.4-.34-.62-.46l-.04-.04c-.19-.18-.4-.34-.62-.46l-.04-.04c-.19-.18-.4-.34-.62-.46l-.04-.04c-.19-.18-.4-.34-.62-.46l-.04-.04c-.19-.18-.4-.34-.62-.46l-.04-.04c-.19-.18-.4-.34-.62-.46l-.04-.04c-.19-.18-.4-.34-.62-.46l-.04-.04c-.19-.18-.4-.34-.62-.46l-.04-.04c-.19-.18-.4-.34-.63-.46l-.04-.04c-.19-.18-.4-.34-.62-.46l-.04-.04c-.19-.18-.4-.34-.62-.46l-.04-.04c-.19-.18-.4-.34-.62-.46l-.04-.04c-.19-.18-.4-.34-.63-.46l-.04-.04c-.19-.18-.4-.34-.62-.46l-.04-.04c-.19-.18-.4-.34-.63-.46l-.04-.04a3.1 3.1 0 0 0-1.03-.65 5.4 5.4 0 0 0-.31-.2l-.04-.04c-.19-.18-.4-.34-.62-.46l-.04-.04c-.19-.18-.4-.34-.62-.46l-.04-.04c-.19-.18-.4-.34-.62-.46l-.04-.04c-.19-.18-.4-.34-.62-.46l-.04-.04c-.19-.18-.4-.34-.62-.46l-.04-.04c-.19-.18-.4-.34-.63-.46l-.04-.04c-.56-.54-1.31-.83-2.07-.83-.17 0-.35.02-.52.05l-4.03.71-17.59 3.1-2.93.52a3.003 3.003 0 0 0-2.44 3.45l.49 2.93c.14.83.24 1.83.3 3.19-.08-.05-.15-.1-.23-.14l-.07-.07a3.07 3.07 0 0 0-.59-.43l-.07-.07a3.07 3.07 0 0 0-.59-.43l-.07-.07a3.07 3.07 0 0 0-.59-.43l-.07-.07a3.07 3.07 0 0 0-.59-.43l-.07-.07a3.07 3.07 0 0 0-.59-.43l-.07-.07a2.92 2.92 0 0 0-.99-.61 5.4 5.4 0 0 0-.31-.2l-.07-.07a3.07 3.07 0 0 0-.59-.43l-.07-.07a3.07 3.07 0 0 0-.59-.43l-.07-.07a3.07 3.07 0 0 0-.59-.43l-.07-.07a3.07 3.07 0 0 0-.59-.43l-.07-.07a3.07 3.07 0 0 0-.59-.43l-.07-.07a3.07 3.07 0 0 0-.59-.43l-.07-.07c-.56-.52-1.29-.8-2.04-.8-.17 0-.35.02-.52.05l-3.9.69-17.89 3.15-2.85.5a2.995 2.995 0 0 0-2.45 3.37l.4 2.87c.45 3.23.53 5.06.53 9.27v1.99c-6.15 1.07-7.83 1.26-11.67 1.44l-2.87.13c-1.6.07-2.87 1.39-2.87 3v23.23a3.003 3.003 0 0 0 1.55 2.63c.07.07.15.14.23.21.2.47.52.89.93 1.21.12.09.25.18.38.25.09.09.18.17.28.25.12.09.25.18.38.25.09.09.18.17.28.25.12.09.25.18.38.25.09.09.18.17.28.25.12.09.25.18.38.25.09.09.18.17.28.25.12.09.25.18.38.25.09.09.18.17.28.25.12.09.25.18.38.25.09.09.18.17.28.25.12.09.25.18.38.25.09.09.18.17.28.25.12.09.25.18.38.25.09.09.18.17.28.25.12.09.25.18.38.25.09.09.18.17.28.25.12.09.25.18.38.25.09.09.18.17.28.25.12.09.25.18.38.25.09.09.18.17.28.25.12.09.25.18.38.25.09.09.18.17.28.25.12.09.25.18.38.25.09.09.18.17.29.25.12.09.25.18.38.25.09.09.18.17.28.25.12.09.25.18.38.25.09.09.18.17.28.25.12.09.25.18.38.25.09.09.18.17.28.25.12.09.25.18.38.25.09.09.18.17.28.25.12.09.25.18.38.25.09.09.18.17.28.25.12.09.25.18.38.25a2.851 2.851 0 0 0 1.06.68c.1.07.21.14.31.2.05.05.11.11.17.16l-.32 2.3c-.13.95.19 1.91.89 2.58.19.19.41.34.63.47l.03.03c.07.06.13.12.2.18.16.37.38.71.68.99.19.19.41.34.63.47l.03.03c.19.19.41.34.63.47l.03.03c.19.19.41.34.63.47l.03.03c.19.19.41.34.63.47l.03.03c.19.19.41.34.63.47l.03.03c.19.19.41.34.63.47l.03.03c.19.19.41.34.63.47l.03.03c.19.19.41.34.63.47l.03.03c.19.19.41.34.63.47l.03.03c.19.19.41.34.63.47l.03.03c.04.04.08.08.12.11l-.72.34a3.007 3.007 0 0 0-.64 5.03l.73.6c.19.41.46.77.82 1.06l3.64 3.01c1.53 1.26 2.68 2.29 3.63 3.23 1.36 1.6 2.49 3.34 4.02 6.18l1.43 2.66c.28.51.69.93 1.19 1.2.07.07.13.13.21.19l.15.28c.28.51.69.93 1.19 1.2.2.2.42.36.66.5.2.2.42.36.67.5.2.2.42.36.67.5.2.2.42.36.67.5.2.2.42.36.66.5.2.2.42.36.67.5.2.2.42.36.66.5.2.2.42.36.67.5.2.2.42.36.67.5.2.2.42.36.66.5.2.2.42.36.67.5.2.2.42.36.66.5.2.2.42.36.67.5.2.2.42.36.66.5.2.2.42.36.67.5.2.2.42.36.66.5.2.2.42.36.67.5.2.2.42.36.67.5.3.3.67.53 1.07.68.1.07.2.14.31.2.2.2.42.36.66.5.2.2.42.36.67.5.2.2.42.36.67.5.2.2.42.36.66.5.2.2.42.36.67.5.2.2.42.36.66.5a2.949 2.949 0 0 0 2.11.87c.5 0 .99-.12 1.44-.37l2.65-1.45c10.53-5.76 16-9.68 21.67-15.54 7.69-7.89 12.41-16.46 14.79-27.07l2.4 8.31.98 3.37c.22.77.74 1.41 1.43 1.79.07.07.15.14.23.21.26.62.72 1.13 1.31 1.46.2.19.42.36.66.5.2.19.42.36.67.5.2.19.42.36.66.5.2.2.42.36.67.5.2.19.42.36.66.5.2.2.42.36.67.5.2.19.42.36.67.5.2.19.42.36.67.5.2.19.42.36.66.5.2.19.42.36.66.5.2.2.42.36.67.5.2.19.42.36.66.5.2.2.42.36.67.5.2.19.42.36.67.5.2.19.42.36.67.5.2.19.42.36.66.5.2.2.42.36.67.5.2.19.42.36.67.5a3.015 3.015 0 0 0 1.07.69c.1.07.2.14.31.2.2.19.42.36.66.5.2.2.42.36.67.5.2.19.42.36.67.5.2.19.42.36.66.5.2.19.42.36.67.5.2.2.42.36.67.5.25.25.55.46.88.6.39.18.82.27 1.24.27.43 0 .87-.09 1.27-.28l3.18-1.49c2.05-.96 2.68-1.22 5.06-2.17l1.67-.67c18.77-7.58 28.38-12.94 39.57-22.06 11.02-8.92 19.35-19.07 26.68-32.57.03.01.05.03.08.04l.03.03c.19.18.4.34.63.46l.03.03c.19.18.4.34.63.46l.03.03c.19.18.4.34.63.47l.03.03c.04.03.07.07.11.1l-2.24.81c-.98.35-1.7 1.19-1.92 2.2-.21 1.02.11 2.07.86 2.79l.99.95c.15.26.33.51.56.72l3.51 3.35c.6.58 1.15 1.12 1.67 1.65 2.38 2.72 3.81 5.2 5.27 9.14l1.12 3.03c.25.68.74 1.24 1.36 1.58.07.07.15.14.23.21.26.62.73 1.14 1.31 1.46.2.2.42.36.66.5.2.2.42.36.66.5.2.2.42.36.67.5.2.2.42.36.67.5.2.2.42.36.66.5.2.2.42.36.67.5.2.2.42.36.67.5.2.2.42.36.66.5.2.2.42.36.67.5.2.2.42.36.66.5.2.2.42.36.67.5.2.2.42.36.66.5.2.2.42.36.67.5.2.2.42.36.67.5.2.2.42.36.67.5.2.2.42.36.66.5.2.2.42.36.67.5.2.2.42.36.66.5.27.27.6.49.97.64.03.01.07.03.1.04.1.07.2.14.31.2.2.2.42.36.67.5.2.2.42.36.66.5.2.2.42.36.67.5.2.2.42.36.66.5.2.2.42.36.67.5.2.2.42.36.67.5.27.27.6.49.97.64.37.15.76.23 1.15.23.43 0 .85-.09 1.25-.27l2.94-1.34c9.89-4.53 15.49-7.7 21.42-12.13 9.4-6.96 15.97-14.81 19.92-23.86l.53.91c.28.47.67.85 1.14 1.11.06.06.12.11.18.16l.23.4c.28.47.67.85 1.14 1.11.2.2.42.36.66.5.2.2.42.36.66.5.2.2.42.36.67.5.2.2.42.36.67.5.2.2.42.36.66.5.2.2.42.36.67.5.2.2.42.36.67.5.2.2.42.36.66.5.2.2.42.36.67.5.2.2.42.36.66.5.2.2.42.36.67.5.2.2.42.36.66.5.2.2.42.36.67.5.2.2.42.36.67.5.2.2.42.36.67.5.2.2.42.36.66.5.2.2.42.36.67.5.2.2.42.36.67.5.3.3.67.53 1.07.68.1.07.2.14.31.2.2.2.42.36.67.5.2.2.42.36.67.5.2.2.42.36.67.5.2.2.42.36.66.5.2.2.42.36.67.5.2.2.42.36.67.5.4.4.92.68 1.49.81.21.04.42.07.63.07.62 0 1.23-.19 1.74-.56l2.67-1.91c5.08-3.62 9.69-7.24 14.03-10.99.01.01.03.02.04.02l.01.01c.2.19.42.36.65.49l.01.01c.2.19.42.36.65.49l.01.01c.2.19.42.36.65.49l.01.01c.2.19.42.36.65.49l.01.01c.2.19.42.36.65.49l.01.01c.2.19.42.36.65.49l.01.01c.2.19.42.36.65.49l.01.01c.2.19.42.36.65.49l.01.01c.2.19.42.36.65.49l.01.01c.2.19.42.36.65.49l.01.01c.2.19.42.36.65.49l.01.01c.2.19.42.36.65.49l.01.01c.2.19.42.36.65.49l.01.01c.2.19.42.36.65.49l.01.01c.2.19.42.36.65.49l.01.01c.2.19.42.36.65.49l.01.01c.2.19.42.36.65.49l.01.01c.31.3.67.53 1.06.67.1.07.2.14.31.2l.01.01c.2.19.42.36.65.49l.01.01c.2.19.42.36.65.49l.01.01c.2.19.42.36.65.49l.01.01c.2.19.42.36.65.49l.01.01c.2.19.42.36.65.49l.01.01c.2.19.42.36.65.49l.01.01c.57.56 1.32.86 2.1.86.17 0 .35-.01.52-.05l4.15-.73 18.77-3.31 2.79-.49a3.001 3.001 0 0 0 2.46-3.31l-.33-2.82c-.39-3.29-.64-8.18-.64-12.46l-.16-13.57c1.06.9 1.85 1.6 2.52 2.26 1.47 1.75 2.76 3.87 4.6 7.13l1.56 2.76c.28.49.68.88 1.16 1.15.06.06.12.12.19.17l.19.34c.28.49.68.88 1.16 1.15.2.2.42.36.66.5.2.2.42.36.67.5.2.2.42.36.66.5.2.2.42.36.67.5.2.2.42.36.66.5.2.2.42.36.67.5.2.2.42.36.66.5.2.2.42.36.67.5.2.2.42.36.67.5.2.2.42.36.66.5.2.2.42.36.67.5.2.2.42.36.66.5.2.2.42.36.67.5.2.2.42.36.66.5.2.2.42.36.67.5.2.2.42.36.66.5.2.2.42.36.67.5.2.2.42.36.67.5.3.3.67.53 1.07.68.1.07.2.14.31.2.2.2.42.36.67.5.2.2.42.36.66.5.2.2.42.36.67.5.2.2.42.36.67.5.2.2.42.36.67.5.2.2.42.36.66.5.38.38.86.65 1.39.78.24.06.48.09.72.09.57 0 1.13-.16 1.62-.47l2.67-1.7c6.22-3.97 9.97-6.53 14.44-10.33 7.28-6.27 12.9-13.27 16.72-20.82 2.35-4.77 3.93-9.6 4.97-15.2.16.14.34.27.53.37.2.2.43.37.67.5.2.2.43.37.67.5.2.2.43.37.67.5.2.2.43.37.66.5.2.2.43.37.66.5.58.58 1.34.87 2.12.87.65 0 1.31-.21 1.85-.64l2.19-1.72c5.17-4.07 9.64-8.34 13.58-12.97.02.01.04.03.05.04.12.1.25.18.39.26.09.09.18.17.28.24.12.1.25.18.39.26.09.09.18.17.28.24.12.1.25.18.39.26.09.09.18.17.28.24.12.1.25.18.39.26.09.09.18.17.28.24.12.1.25.18.39.26.09.09.18.17.28.24.12.1.25.18.39.26.09.09.18.17.28.24.12.1.25.18.39.26.09.09.18.17.28.24.12.1.25.18.39.26.09.09.18.17.28.24.12.1.25.18.39.26.09.09.18.17.28.24.12.1.25.18.39.26.09.09.18.17.28.24.12.1.25.18.39.26.09.09.18.17.28.24.12.1.25.18.39.26.09.09.18.17.28.24.12.1.25.18.39.26.09.09.18.17.28.24.24.19.51.34.79.44.1.07.21.14.31.2.09.09.18.17.28.24.12.1.25.18.39.26.09.09.18.17.28.24.12.1.25.18.39.26.09.09.18.17.28.24.12.1.25.18.39.26.09.09.18.17.28.24.12.1.25.18.39.26.09.09.18.17.28.24.12.1.25.18.39.26.09.09.18.17.28.24.12.1.25.18.39.26.09.09.18.17.28.24.53.41 1.18.63 1.84.63.25 0 .5-.03.75-.09l3.75-.96 1.57-.4c4.79-1.23 7.39-1.76 16.31-3.34.03 0 .09-.02.11-.02l25.45-5.17c3.9-.69 6.87-1.2 9.28-1.57-.07 3.8-.24 6.09-.52 9.3l-.35 3.9a3.008 3.008 0 0 0 1.54 2.9c.03.03.06.06.09.08.05.04.1.09.15.13.17.39.41.75.74 1.04.18.16.37.3.58.42.03.03.06.06.09.08.18.16.37.3.58.42.03.03.06.06.09.08.18.16.37.3.58.42.03.03.06.06.09.08.18.16.37.3.58.42.03.03.06.06.09.08.18.16.37.3.58.42.03.03.06.06.09.08.18.16.37.3.58.42.03.03.06.06.09.08.18.16.37.3.58.42.03.03.06.06.09.08.18.16.37.3.58.42.03.03.06.06.09.08.18.16.37.3.58.42.03.03.06.06.09.08.18.16.37.3.58.42.03.03.06.06.09.08.18.16.37.3.58.42.03.03.06.06.09.08.18.16.37.3.58.42.03.03.06.06.09.08.18.16.37.3.58.42.03.03.06.06.09.08.18.16.37.3.58.42.03.03.06.06.09.08.18.16.37.3.58.42.03.03.06.06.09.08.18.16.37.3.58.42.03.03.06.06.09.08.18.16.37.3.58.42.03.03.06.06.09.08.18.16.37.3.58.42.03.03.06.06.09.08.18.16.37.3.58.42.03.03.06.06.09.08.29.27.62.47.98.6.1.07.2.14.31.2.03.03.06.06.09.08.18.16.37.3.58.42.03.03.06.06.09.08.18.16.37.3.58.42.03.03.06.06.09.08.18.16.37.3.58.42.03.03.06.06.09.08.18.16.37.3.58.42.03.03.06.06.09.08.18.16.37.3.58.42.03.03.06.06.09.08.18.16.37.3.58.42.03.03.06.06.09.08.56.51 1.28.79 2.03.79.17 0 .35-.02.52-.05l3.86-.68 18.87-3.33 2.78-.49a3.007 3.007 0 0 0 2.46-3.3l-.32-2.81c-.37-3.19-.55-7.75-.55-13.94V74.48c8.71 2.33 18.4 6.01 26.49 10.09l2.65 1.34c.43.22.89.32 1.35.32 1.09 0 2.14-.59 2.67-1.63l1.36-2.64 9.29-18 1.5-2.91c.39-.75.44-1.62.15-2.41-.25-.68-.74-1.24-1.37-1.59-.07-.07-.15-.14-.23-.21-.26-.62-.73-1.14-1.31-1.46-.2-.2-.42-.36-.67-.5-.2-.2-.42-.36-.67-.5-.2-.2-.42-.36-.67-.5-.2-.2-.42-.36-.66-.5-.2-.2-.42-.36-.67-.5-.2-.2-.42-.36-.66-.5-.2-.2-.42-.36-.67-.5-.2-.2-.42-.36-.66-.5-.2-.2-.42-.36-.67-.5-.2-.2-.42-.36-.66-.5-.2-.2-.42-.36-.67-.5-.2-.2-.42-.36-.67-.5-.2-.2-.42-.36-.66-.5-.2-.2-.42-.36-.67-.5-.2-.2-.42-.36-.66-.5-.2-.2-.42-.36-.67-.5-.2-.2-.42-.36-.67-.5-.2-.2-.42-.36-.67-.5-.28-.27-.61-.5-.98-.65l-.1-.04c-.1-.07-.2-.14-.31-.19-.2-.2-.42-.36-.66-.5-.2-.2-.42-.36-.67-.5-.2-.2-.42-.36-.67-.5-.2-.2-.42-.36-.67-.5-.2-.2-.42-.36-.66-.5-.2-.2-.42-.36-.67-.5-.28-.27-.61-.5-.98-.65l-3.03-1.24c-7.53-3.09-14.32-5.47-21.2-7.4.02-4.05.11-8.39.43-10.73l.54-3.94a2.99 2.99 0 0 0-1.51-3.17l-.03-.03c-.06-.06-.13-.12-.2-.17-.16-.37-.39-.71-.68-1-.19-.18-.4-.34-.63-.46a.138.138 0 0 0-.04-.03c-.19-.18-.4-.34-.63-.46a.138.138 0 0 0-.04-.03c-.19-.18-.4-.34-.63-.46a.138.138 0 0 0-.04-.03c-.19-.18-.4-.34-.63-.46a.138.138 0 0 0-.04-.03c-.19-.18-.4-.34-.63-.46a.138.138 0 0 0-.04-.03c-.19-.18-.4-.34-.63-.46a.138.138 0 0 0-.04-.03c-.19-.18-.4-.34-.63-.46a.138.138 0 0 0-.04-.03c-.19-.18-.4-.34-.63-.46a.138.138 0 0 0-.04-.03c-.19-.18-.4-.34-.63-.46a.138.138 0 0 0-.04-.03c-.19-.18-.4-.34-.63-.46a.138.138 0 0 0-.04-.03c-.19-.18-.4-.34-.63-.46a.138.138 0 0 0-.04-.03c-.19-.18-.4-.34-.63-.46a.138.138 0 0 0-.04-.03c-.19-.18-.4-.34-.63-.46a.138.138 0 0 0-.04-.03c-.19-.18-.4-.34-.63-.46a.138.138 0 0 0-.04-.03c-.19-.18-.4-.34-.63-.46a.138.138 0 0 0-.04-.03c-.19-.18-.4-.34-.63-.46a.138.138 0 0 0-.04-.03c-.19-.18-.4-.34-.63-.46a.138.138 0 0 0-.04-.03c-.19-.18-.4-.34-.63-.46a.138.138 0 0 0-.04-.03c-.19-.18-.4-.34-.63-.46a.138.138 0 0 0-.04-.03c-.3-.29-.65-.51-1.03-.65a5.4 5.4 0 0 0-.31-.2.138.138 0 0 0-.04-.03c-.19-.18-.4-.34-.63-.46a.138.138 0 0 0-.04-.03c-.19-.18-.4-.34-.63-.46a.138.138 0 0 0-.04-.03c-.19-.18-.4-.34-.63-.46a.138.138 0 0 0-.04-.03c-.19-.18-.4-.34-.63-.46l-.03-.03c-.19-.18-.4-.34-.63-.46a.138.138 0 0 0-.04-.03c-.19-.18-.4-.34-.63-.46a.138.138 0 0 0-.04-.03C569.11.3 568.36 0 567.59 0zm0 6zM392.07 80.34c.27 0 .54-.04.81-.11l1.69-.47c-.67 2.86-1.65 5.28-3.07 7.63v-7.11c.17.04.37.06.57.06zM371.6 94.01l1.24-.22c6.95-1.23 9.88-1.64 13.04-1.85l2.34-.16c-3.79 4.26-9.14 8.08-16.51 11.81l-.11-9.58zm-82.19 8.45c.01-.53.01-1.07.01-1.62.07.06.14.12.22.18.12.09.24.17.37.24.09.09.19.18.29.26.04.03.08.06.13.09-.34.29-.68.57-1.02.85zm-168.12 35.21v-12.76c4.22 1.53 8.19 3.4 12.11 5.7.12.1.24.19.37.26-1.03.67-2.07 1.31-3.13 1.92-3.02 1.77-6.15 3.4-9.35 4.88zm-18.22 6.2c1.2-.21 2.27-.39 3.24-.55-1.08.32-2.17.62-3.25.89 0-.12.01-.23.01-.34z"/><path class="st0" d="M40.95 184.07c-3.01-5.59-5.13-8.14-10.29-12.41l-1.82-1.51 2.14-1.01c9.4-4.42 14.23-7.44 18.46-11.52 6.3-6.04 9.05-12.51 9.81-23.07.08-1.44.09-2.09.15-5.72l.01-.31-17.59 3.1v9.52c0 4.69.1 7.22.38 9.68l.16 1.4-21.31 3.76.29-2.05c.39-2.76.57-5.93.57-10v-8.8l-1.86.33c-6.98 1.23-8.24 1.45-13.66 2.88l-1.88.5V119l1.43-.06c4.33-.19 6.27-.45 13.88-1.79l2.08-.37v-5.77c0-4.38-.08-6.42-.57-9.89l-.2-1.43 21.27-3.75-.2 1.97c-.38 3.85-.38 4.07-.38 9.74v5.62l17.92-3.16v-5.09c0-5.79-.11-8.33-.47-10.45l-.25-1.47 21.07-3.72-.27 2.03c-.36 2.74-.38 2.86-.46 15.24l2.04-.36c7.21-1.27 9.91-1.83 13.88-3.11l1.96-.63v19.88l-1.36.13c-4.67.44-7.35.82-13.66 1.93l-3.09.55c-.18 6.89-.29 8.9-.66 12.39-1.51 13.63-5.96 23.35-14.88 32.51-5.31 5.49-10.5 9.2-20.59 14.72l-1.32.72-.73-1.31zm61.42-35.05 1.5-.38c9.92-2.51 19.96-6.65 29.04-11.96 12.13-7.07 20.8-15.8 28.1-28.29 3.94-6.61 6.6-12.3 9.46-20.31l.8-2.24 1.67 1.69c4.8 4.84 6.94 6.24 14.02 10.1l1.2.66-.54 1.26c-9.02 20.82-18.38 33.91-32.3 45.18-10.79 8.79-20.12 13.98-38.41 21.37l-1.67.67c-2.41.97-3.14 1.26-5.29 2.27l-1.59.75-5.99-20.77zm117.18 3.35c-2.17-5.84-4.5-9.28-9.6-14.14l-1.75-1.67 2.28-.82c9.11-3.29 14.09-5.67 19.01-9.1 8.27-5.81 12.44-11.88 13.95-20.28.6-3.74 1.05-12.49 1.05-20.33V76c0-6.91-.09-8.84-.58-12.91l-.17-1.41L266 57.76l-.14 1.92c-.38 5.35-.48 6.79-.48 12.98v11.26c0 13.03-.77 22.71-2.29 28.77-3 11.25-9.83 20.69-20.9 28.88-5.71 4.27-10.91 7.2-20.6 11.64l-1.47.67-.57-1.51zm107.36-20.76c.54-3.39.76-6.76.76-11.64v-1.35l-.2-18.24v-5.89c-9.36 14.07-21.62 26.29-38.2 38.12l-1.34.95-.83-1.42c-3.26-5.55-5.44-7.92-11.12-12.05l-1.77-1.29 1.84-1.19c18.27-11.77 30.05-22.9 38.77-36.74l-16.87 2.98c-7.23 1.27-10.96 2.15-14.63 3.15l-1.89.52V67.6l1.41-.09c5.06-.32 8.68-.77 14.89-1.86l29.33-5.17-.07-3.51c0-3.74-.16-6.72-.58-10.65l-.15-1.39 21.58-3.81-.17 1.95c-.28 3.18-.39 4.8-.39 9.27V57l4.4-.77c6.73-1.19 9.82-1.9 13.78-3.19l1.96-.64v19.93l-1.4.09c-3.36.22-6.39.65-13.53 1.91l-5 .88.47 40.13c0 4.46.26 9.55.67 13l.17 1.41-22.24 3.92.35-2.06zm55.99-7.62c-3.92-6.94-5.43-8.79-10.79-13.21l-1.79-1.48 2.09-1.02c10.43-5.11 17.37-10.46 21.81-16.84 4.49-6.5 6.08-13.28 6.08-25.87 0-3.11-.11-4.39-.55-6.19l-.37-1.55 22-3.88-.31 2.06c-.28 1.9-.38 2.76-.47 8.17l-.02.45c5.94-4.05 10.98-9.62 14.41-15.91l-43.69 7.7c-7.62 1.35-10.91 2.13-15.4 3.38l-1.9.53V40.06l1.46-.04c4.45-.12 7.81-.53 15.62-1.9l51.22-9.03c5.45-.96 5.91-1.15 7.89-2.35l.96-.58 11.06 10.1-.9 1.1c-1.37 1.68-1.58 2.06-2.8 5.14-6.3 15.66-14.86 27.16-27.74 37.3l-1.09.86-.94-1.02c-2.74-2.99-5.31-5.14-8.51-7.09-.72 9.2-2.45 16.05-5.66 22.56-3.56 7.04-8.81 13.57-15.62 19.43-4.28 3.63-7.91 6.11-13.95 9.97l-1.33.85-.77-1.37zm-254.02-3.17c-8.42-7.19-16.48-11.92-26.12-15.35l-1.89-.67 13.1-18.13 1.09.44c12.58 5.06 18.94 8.4 27.19 14.3l1.19.85-13.29 19.65-1.27-1.09zm69.58-4.27c.49-3.59.57-7.05.57-13.96V83.54c0-5.65-.08-8.24-.58-12.43l-.17-1.41 22.28-3.93-.17 1.95c-.39 4.51-.48 6.24-.48 12.86v19.16c0 6.96.1 9.87.48 13.53l.14 1.39-22.37 3.95.3-2.06zM543.8 94.56c.4-4.54.58-7.3.58-14.7V23.83c0-7.81-.1-8.7-.67-13.67l-.16-1.4 22.28-3.93-.28 2.04c-.42 3.07-.48 8.77-.48 13.94v11.9c16.17 2.47 28.5 5.9 43.55 12.08l1.51.62-10.72 20.78-1.33-.67c-9.33-4.7-20.72-8.89-30.46-11.2-1.2-.26-1.99-.43-2.55-.56v22.99c0 6.36.19 11.09.58 14.45l.16 1.4-22.19 3.91.18-1.95zm-79.24-39.84 2.67-.08c3.54-.1 7.67-.66 16.35-2.19l25.61-5.2c8.32-1.47 11.29-2.16 16.56-3.63l3.49-.98v21.71l-2.55.19c-3.9.29-7.56.86-16.55 2.45l-25.45 5.17c-9.11 1.61-11.75 2.15-16.69 3.42l-3.44.89V54.72z"/><path d="M564.06 6.67c-.39 2.86-.49 7.69-.49 14.14V34c16.62 2.46 29.23 5.92 44.48 12.18l-9.29 18c-9.48-4.78-21.02-9-30.79-11.32-3.42-.75-3.42-.75-4.4-1.15v25.03c0 6.45.2 11.23.59 14.62l-18.87 3.33c.39-4.4.59-7.23.59-14.83V23.83c0-7.8-.1-8.74-.68-13.84l18.86-3.32M450.97 28.02l9.19 8.39c-1.47 1.8-1.76 2.33-3.03 5.54-6.26 15.54-14.66 26.75-27.27 36.67-3.42-3.73-6.65-6.24-10.95-8.56-.59 10.12-2.25 17.44-5.67 24.39-3.42 6.76-8.5 13.15-15.25 18.96-4.01 3.4-7.33 5.72-13.78 9.84-3.91-6.92-5.47-8.95-11.14-13.63 10.75-5.27 17.79-10.74 22.38-17.33 4.69-6.8 6.35-13.92 6.35-26.73 0-3.08-.1-4.51-.59-6.54l18.38-3.24c-.29 1.98-.39 2.86-.49 8.37 0 .1-.1 2.42-.1 3.39.59-.49.59-.49 2.25-1.55 7.14-4.82 12.9-11.61 16.42-19.26l-46.63 8.22c-7.43 1.31-10.85 2.11-15.54 3.41V41.52c4.5-.12 7.82-.51 15.84-1.93l51.22-9.03c5.48-.97 6.17-1.18 8.41-2.54M346.18 42.93c-.29 3.33-.39 4.98-.39 9.41v6.45l6.16-1.08c6.94-1.22 10.07-1.97 13.98-3.24v16.46c-3.52.24-6.74.71-13.69 1.93l-6.26 1.1.49 41.41c0 4.81.29 9.86.68 13.16l-18.77 3.31c.59-3.66.78-7.16.78-11.88v-1.35l-.2-18.26V96.5c0-2.41 0-3.75.1-7.33-9.58 15.84-22.38 29.17-40.66 42.21-3.32-5.67-5.67-8.24-11.54-12.5 19.75-12.72 31.96-24.7 40.96-40.05l-20.14 3.55c-6.84 1.21-10.75 2.09-14.76 3.18V69.01c5.08-.32 8.8-.78 15.05-1.88l30.6-5.39-.1-4.8c0-4.04-.2-7.09-.59-10.78l18.3-3.23m181.57 1.69v18.34l-1.16.09c-3.97.29-7.65.87-16.7 2.47L484.4 70.7c-9.12 1.61-11.78 2.15-16.77 3.44l-1.57.4V56.17l1.22-.04c3.62-.11 7.8-.67 16.57-2.21l25.65-5.21c8.35-1.47 11.34-2.17 16.66-3.66l1.59-.43M264.36 59.58c-.39 5.46-.49 6.92-.49 13.08v11.26c0 13.19-.78 22.57-2.25 28.41-2.93 11.01-9.58 20.08-20.33 28.04-5.57 4.16-10.75 7.09-20.33 11.48-2.25-6.05-4.69-9.67-9.97-14.7 9.38-3.39 14.37-5.81 19.35-9.28 8.6-6.04 13-12.5 14.57-21.25.59-3.67 1.08-12.22 1.08-20.6V76.01c0-7.03-.1-9.03-.59-13.09l18.96-3.34m-45.45 8.01c-.39 4.5-.49 6.25-.49 12.99v19.16c0 6.83.1 9.9.49 13.68l-18.96 3.34c.49-3.55.59-6.94.59-14.16V83.54c0-5.87-.1-8.46-.59-12.6l18.96-3.35M114.51 88.5c12.32 4.95 18.67 8.26 26.88 14.13l-11.53 17.05c-8.5-7.26-16.81-12.15-26.59-15.62l11.24-15.56m57.38.09c4.79 4.83 7.04 6.36 14.37 10.37-8.89 20.53-18.18 33.53-31.87 44.61-10.56 8.6-19.84 13.8-38.02 21.15-3.81 1.54-4.4 1.74-7.04 2.97l-5.08-17.59c9.97-2.53 20.23-6.75 29.42-12.12 12.32-7.18 21.11-15.95 28.64-28.83 4.1-6.89 6.74-12.65 9.58-20.56m-93.55 2.63c-.39 2.96-.39 2.96-.49 17.22l3.81-.67c7.33-1.29 10.07-1.87 14.08-3.16v16.46c-4.69.44-7.43.83-13.78 1.95l-4.3.76c-.19 7.64-.29 9.78-.68 13.5-1.47 13.25-5.86 22.79-14.47 31.62-5.28 5.46-10.36 9.05-20.24 14.45-3.13-5.8-5.38-8.49-10.65-12.85 9.48-4.46 14.47-7.56 18.87-11.8 6.65-6.37 9.48-13.13 10.26-24.05.1-1.75.1-2.42.19-7.93l-20.63 3.64v10.78c0 4.72.1 7.3.39 9.85l-17.89 3.15c.39-2.76.59-5.98.59-10.21v-10.59l-3.62.64c-7.04 1.24-8.31 1.47-13.78 2.91v-16.46c4.4-.2 6.35-.45 14.08-1.81l3.32-.59V111c0-4.52-.1-6.63-.59-10.1l17.89-3.15c-.39 3.92-.39 4.21-.39 9.89v7.41l20.92-3.69v-6.35c0-5.49-.1-8.36-.49-10.7l17.6-3.09M567.59 3l-4.05.71-18.87 3.33-2.78.49.32 2.81c.56 4.89.66 5.77.66 13.5v56.03c0 7.34-.18 10.07-.58 14.57l-.35 3.9 3.86-.68 18.87-3.33 2.78-.49-.32-2.81c-.38-3.31-.57-7.98-.57-14.28V55.63c.23.05.47.1.73.16 9.63 2.29 20.89 6.43 30.11 11.08l2.65 1.34 1.36-2.64 9.29-18 1.5-2.91-3.03-1.24c-14.78-6.07-26.94-9.5-42.62-11.98V20.81c0-5.12.05-10.76.46-13.74l.58-4.07zM451.34 24.29l-1.92 1.16c-1.77 1.07-1.99 1.2-7.38 2.15l-51.22 9.03c-7.72 1.36-11.03 1.77-15.39 1.88l-2.92.08v23.72l3.81-1.06c4.44-1.24 7.7-2.02 15.26-3.35l6.03-1.06.69 2.89c.4 1.69.5 2.83.5 5.84 0 12.25-1.52 18.8-5.82 25.02-4.29 6.15-11.04 11.35-21.24 16.34l-4.18 2.05 3.59 2.96c5.23 4.32 6.6 5.99 10.44 12.79l1.56 2.76 2.67-1.7c6.1-3.9 9.77-6.4 14.11-10.08 6.97-6 12.34-12.69 15.98-19.89 3.01-6.11 4.75-12.47 5.59-20.64 2.18 1.53 4.11 3.27 6.14 5.48l1.88 2.05 2.19-1.72c13.1-10.31 21.8-22 28.2-37.91 1.21-3.05 1.35-3.27 2.57-4.76l1.79-2.2-2.1-1.91L453 25.8l-1.66-1.51zm-28.2 28.05 8.9-1.57c-2.65 4.1-6.02 7.8-9.88 10.85.09-3.26.19-3.95.4-5.38l.58-3.9zM349.51 39.3l-3.85.68-18.28 3.22-2.76.49.3 2.78c.41 3.87.57 6.81.57 10.46v.06l.04 2.23-28.07 4.95c-6.14 1.08-9.72 1.53-14.72 1.85l-2.81.18v23.31l3.79-1.03c3.63-.99 7.32-1.85 14.49-3.12l13.46-2.37c-8.4 12.33-19.64 22.58-36.42 33.4l-3.68 2.37 3.55 2.58c5.48 3.98 7.58 6.26 10.71 11.59l1.66 2.83 2.67-1.91c15.16-10.82 26.75-21.96 35.82-34.54v1.07l.2 18.29v1.32c0 4.8-.22 8.11-.74 11.41l-.67 4.16 4.15-.73 18.77-3.31 2.79-.49-.33-2.82c-.4-3.4-.66-8.43-.66-12.81l-.46-38.89 3.75-.66c7.07-1.25 10.07-1.67 13.37-1.89l2.8-.19V50.34L365 51.62c-3.88 1.26-6.93 1.96-13.57 3.13l-2.64.46v-2.87c0-4.41.1-6.01.38-9.14l.34-3.9zm181.24 1.37-3.81 1.06-1.59.44c-5.22 1.46-8.15 2.14-16.38 3.59l-.04.01-.04.01-25.61 5.2c-8.58 1.51-12.64 2.06-16.1 2.16l-1.22.04-2.91.09v25.14l3.75-.96 1.57-.4c4.89-1.26 7.52-1.8 16.54-3.39l.04-.01.04-.01 25.45-5.17c8.91-1.57 12.53-2.14 16.36-2.42l1.16-.09 2.78-.2V40.67h.01zM267.63 55.95l-3.79.67-18.96 3.34-2.8.49.34 2.82c.48 3.99.57 5.89.57 12.73v10.01c0 8.83-.53 16.93-1.03 20.1-1.43 7.96-5.42 13.73-13.33 19.29-4.79 3.34-9.67 5.68-18.65 8.92l-4.56 1.65 3.51 3.35c4.97 4.74 7.13 7.92 9.23 13.58l1.12 3.03 2.94-1.34c9.67-4.43 15.14-7.52 20.88-11.8 11.34-8.4 18.36-18.1 21.44-29.67 1.56-6.22 2.35-16.03 2.35-29.18V72.66c0-6.13.1-7.56.48-12.87l.26-3.84zm-45.39 8.01-3.85.68-18.96 3.34-2.79.49.33 2.81c.46 3.87.57 6.27.57 12.25v19.06c0 6.83-.08 10.25-.56 13.75l-.56 4.08 4.05-.71 18.96-3.34 2.75-.49-.29-2.78c-.37-3.6-.47-6.47-.47-13.37V80.58c0-6.56.09-8.27.48-12.73l.34-3.89zM170.67 83.1l-1.61 4.48c-2.83 7.9-5.45 13.52-9.33 20.03-7.18 12.28-15.68 20.84-27.57 27.77-8.96 5.24-18.87 9.32-28.65 11.8l-3.01.76.86 2.98 5.08 17.59.97 3.37 3.18-1.49c2.12-.99 2.84-1.28 5.22-2.24l1.67-.67c18.44-7.45 27.87-12.7 38.8-21.6 14.12-11.43 23.6-24.68 32.73-45.74l1.09-2.51-2.4-1.31c-7.35-4.01-9.27-5.39-13.68-9.84l-3.35-3.38zm-57.22 1.74-1.37 1.9-11.24 15.56-2.1 2.9v-4.7l-3.92 1.25c-3.89 1.25-6.55 1.8-13.68 3.06l-.27.05c.08-10.5.11-10.74.44-13.25l.54-4.06-4.03.71-17.59 3.1-2.93.52.49 2.93c.33 2 .45 4.58.45 10.2v3.83l-14.92 2.63v-3.84c0-5.6 0-5.82.38-9.59l.39-3.94-3.9.69-17.89 3.15-2.85.5.4 2.87c.48 3.38.56 5.38.56 9.68v4.51l-.84.15c-7.61 1.34-9.4 1.57-13.69 1.77l-2.88.15v23.23l3.77-1c5.36-1.42 6.61-1.64 13.54-2.86l.1-.02v7.02c0 3.99-.18 7.11-.56 9.79l-.58 4.09 4.07-.72 17.89-3.15 2.78-.49-.32-2.81c-.27-2.39-.37-4.87-.37-9.5v-8.26l14.56-2.57c-.04 2.32-.06 2.97-.13 4.18-.73 10.24-3.27 16.22-9.34 22.05-4.11 3.96-8.83 6.9-18.07 11.25l-4.28 2.01 3.64 3.01c5.04 4.17 6.99 6.52 9.93 11.96l1.43 2.66 2.65-1.45c10.24-5.6 15.52-9.38 20.95-14.99 9.05-9.29 13.77-19.59 15.29-33.38.37-3.51.49-5.73.64-11.3l1.89-.33c6.26-1.1 8.92-1.48 13.54-1.92l2.72-.26v-18.18l3.53 1.25c9.46 3.36 17.37 8.01 25.65 15.08l2.55 2.18 1.88-2.78 11.53-17.05 1.64-2.42-2.38-1.7c-8.37-5.98-14.8-9.36-27.51-14.47l-2.18-.88z" style="fill:#fff"/></svg>