<svg xmlns="http://www.w3.org/2000/svg" viewBox="0 0 545.71 152.1" style="enable-background:new 0 0 545.71 152.1" xml:space="preserve"><path d="M96.03 45.88V36.6c0-8.02-.14-12.23-.71-15.75h25.71c-.57 4.22-.57 4.22-.71 25.03h5.57c10.71 0 14.71-.14 20.56-.98v24.05c-6.85-.56-10.85-.7-20.14-.7h-6.28c-.29 11.11-.43 14.2-1 19.55-2.14 18.98-8.57 31.78-21.14 42.47-7.71 6.61-15.14 10.55-29.56 15.89-4.57-9.28-7.85-13.78-15.57-21.52 13.85-4.08 21.14-7.31 27.56-12.38 9.71-7.59 13.85-16.73 15-32.48.14-2.53.14-3.52.29-11.53H65.47V84c0 6.89.14 10.69.57 14.48H39.91c.57-3.94.86-8.58.86-14.77V68.23h-5.28c-10.28 0-12.14 0-20.14.7V44.89c6.43.84 9.28.98 20.56.98h4.86V35.61c0-6.61-.14-9.7-.86-14.91h26.13c-.57 5.62-.57 6.05-.57 14.34v10.83h30.56zm77.83-19.69c17.99 10.41 27.28 16.88 39.27 27.56l-16.85 21.94c-12.42-12.8-24.56-22.08-38.84-29.67l16.42-19.83zm-15 87.33c14.57-1.12 29.56-4.64 42.98-10.12 17.99-7.31 30.85-17.86 41.84-34.73 6-9 9.85-16.73 14-27.56 7 8.3 10.28 11.11 20.99 18.84-13 27.7-26.56 44.3-46.55 56.95-15.42 9.84-28.99 15.05-55.55 21.09-5.57 1.27-6.43 1.41-10.28 2.53l-7.43-27zm167.51-90.99c-.57 6.47-.71 9-.71 18.84v27.98c0 9.98.14 14.48.71 20.11h-27.7c.71-5.06.86-9.98.86-20.53V41.09c0-8.58-.14-12.38-.86-18.56h27.7zm66.41 0c-.57 7.88-.71 9.98-.71 18.98v16.45c0 19.27-1.14 32.77-3.29 40.92-4.28 15.33-13.99 26.86-29.7 35.72-8.14 4.64-15.71 7.59-29.7 11.53-3.28-9.42-6.85-15.33-14.57-24.05 13.71-2.53 20.99-4.78 28.28-8.58 12.57-6.61 18.99-14.91 21.28-27.28.86-5.2 1.57-17.58 1.57-29.81V41.8c0-10.27-.14-13.22-.86-19.27h27.7zm94.39 70.59c0-3.52 0-5.48.14-10.69-14 20.67-32.7 36.84-59.41 51.19-4.86-9.14-8.28-13.5-16.85-21.23 28.85-13.5 46.7-27.84 59.84-47.95h-29.42c-10 0-15.71.28-21.56.84V41.09c7.43.84 12.85 1.12 21.99 1.12h44.7l-.14-7.03c0-5.91-.29-10.41-.86-15.89h26.71c-.43 4.78-.57 7.17-.57 13.64v9.42h9c10.14 0 14.71-.28 20.42-1.12v24.05c-5.14-.56-9.85-.7-19.99-.7h-9.14l.71 60.61c0 7.03.43 14.48 1 19.41h-27.42c.86-5.2 1.14-10.27 1.14-17.16v-1.97l-.29-26.72v-5.63z" style="fill:#393680"/><path d="M84.86 35.63v-9.28c0-8.02-.14-12.23-.71-15.75h25.71c-.57 4.22-.57 4.22-.71 25.03h5.57c10.71 0 14.71-.14 20.56-.98V58.7c-6.85-.56-10.85-.7-20.14-.7h-6.28c-.29 11.11-.43 14.2-1 19.55-2.14 18.98-8.57 31.78-21.14 42.47-7.71 6.61-15.14 10.55-29.56 15.89-4.57-9.28-7.85-13.78-15.57-21.52 13.85-4.08 21.14-7.31 27.56-12.38 9.71-7.59 13.85-16.73 15-32.48.14-2.53.14-3.52.29-11.53H54.3v15.75c0 6.89.14 10.69.57 14.48H28.74c.57-3.94.86-8.58.86-14.77V57.99h-5.28c-10.28 0-12.14 0-20.14.7V34.65c6.43.84 9.28.98 20.56.98h4.86V25.37c0-6.61-.14-9.7-.86-14.91h26.13c-.57 5.62-.57 6.05-.57 14.34v10.83h30.56zm77.83-19.68c17.99 10.41 27.28 16.88 39.27 27.56l-16.85 21.94c-12.42-12.8-24.56-22.08-38.84-29.67l16.42-19.83zm-15 87.32c14.57-1.12 29.56-4.64 42.98-10.12 17.99-7.31 30.85-17.86 41.84-34.73 6-9 9.85-16.73 14-27.56 7 8.3 10.28 11.11 20.99 18.84-13 27.7-26.56 44.3-46.55 56.95-15.42 9.84-28.99 15.05-55.55 21.09-5.57 1.27-6.43 1.41-10.28 2.53l-7.43-27zM315.2 12.29c-.57 6.47-.71 9-.71 18.84v27.98c0 9.98.14 14.48.71 20.11h-27.7c.71-5.06.86-9.98.86-20.53V30.85c0-8.58-.14-12.38-.86-18.56h27.7zm66.41 0c-.57 7.88-.71 9.98-.71 18.98v16.45c0 19.27-1.14 32.77-3.28 40.92-4.29 15.33-14 26.86-29.7 35.72-8.14 4.64-15.71 7.59-29.7 11.53-3.28-9.42-6.85-15.33-14.57-24.05 13.71-2.53 20.99-4.78 28.28-8.58 12.57-6.61 18.99-14.91 21.28-27.28.86-5.2 1.57-17.58 1.57-29.81V31.56c0-10.27-.14-13.22-.86-19.27h27.69zM476 82.88c0-3.52 0-5.48.14-10.69-14 20.67-32.7 36.84-59.41 51.19-4.86-9.14-8.28-13.5-16.85-21.23 28.85-13.5 46.7-27.84 59.84-47.95H430.3c-10 0-15.71.28-21.56.84V30.85c7.43.84 12.85 1.12 21.99 1.12h44.7l-.14-7.03c0-5.91-.29-10.41-.86-15.89h26.71c-.43 4.78-.57 7.17-.57 13.64v9.42h9c10.14 0 14.71-.28 20.42-1.12v24.05c-5.14-.56-9.85-.7-19.99-.7h-9.14l.71 60.61c0 7.03.43 14.48 1 19.41h-27.42c.86-5.2 1.14-10.27 1.14-17.16v-1.97L476 88.51v-5.63z" style="fill:#fff;stroke:#383680;stroke-width:2.0669;stroke-miterlimit:10"/></svg>