<?xml version="1.0" encoding="utf-8"?>
<!-- Generator: Adobe Illustrator 26.5.0, SVG Export Plug-In . SVG Version: 6.00 Build 0)  -->
<svg version="1.1" id="Layer_1" xmlns="http://www.w3.org/2000/svg" xmlns:xlink="http://www.w3.org/1999/xlink" x="0px" y="0px"
	 viewBox="0 0 30 30" style="enable-background:new 0 0 30 30;" xml:space="preserve">
<style type="text/css">
	.st0{fill-rule:evenodd;clip-rule:evenodd;fill:#4D5E77;}
</style>
<path class="st0" d="M15,30C6.7,30,0,23.3,0,15S6.7,0,15,0s15,6.7,15,15S23.3,30,15,30z M18.4,9.6l-0.4,0c-0.3,0.1-0.5,0.1-0.7,0.2
	c-0.9,0.4-1.6,1.1-1.9,2c-0.1,0.4-0.2,1,0,1.4c-0.5,0-1-0.1-1.5-0.2c-1.7-0.4-2.8-0.9-4-1.8c-0.4-0.2-0.7-0.5-1-0.8
	c-0.1-0.1-0.2-0.2-0.3-0.3l0,0c-0.1,0.2-0.3,0.5-0.4,0.8C7.9,12.1,8.4,13,9,13.7c0.2,0.2,0.4,0.3,0.6,0.5h0c-0.1,0-0.3,0-0.4,0
	c-0.2,0-0.5-0.1-0.7-0.2l-0.3-0.1c0,1.3,0.7,2.1,1.6,2.5c0.3,0.2,0.7,0.4,1.1,0.4c-0.2,0.2-1.1,0.1-1.5,0.1c0.4,0.9,1,1.6,2.1,1.9
	c0.3,0.1,0.6,0.2,1,0.2c-0.2,0.2-0.6,0.4-0.9,0.5c-0.6,0.3-1.2,0.5-2,0.6c-0.3,0.1-0.6,0-0.9,0.1c-0.4,0.1-0.7,0-1.1,0l0.3,0.2
	c0.3,0.2,0.6,0.3,0.9,0.4c0.6,0.2,1.2,0.4,1.9,0.6c1.4,0.3,3.4,0.2,4.7-0.2c3.5-1,5.6-3.2,6.5-6.6c0.1-0.6,0.2-1.2,0.2-1.9l0.5-0.4
	c0.4-0.3,0.8-0.7,1.1-1.2v0c-0.6,0.2-1.1,0.4-1.9,0.5v0c0.1-0.1,0.2-0.2,0.4-0.2c0.5-0.4,0.8-0.8,1.1-1.4l-0.4,0.2
	c-0.4,0.2-1.1,0.5-1.7,0.5C20.4,10,19.7,9.6,18.4,9.6z"/>
</svg>
