<svg version="1.1" id="Layer_1" xmlns="http://www.w3.org/2000/svg" x="0" y="0" viewBox="0 0 161.97 89.45" style="enable-background:new 0 0 161.97 89.45" xml:space="preserve"><style>.st0{fill:#2a3189}</style><path class="st0" d="M19.48 55.19c.62-.21 1.12-.62 1.54-1.04.42-.43.77-.89 1.09-1.39.64-1.01 1.09-2.23 1.36-3.75.08-.41.17-1.03.28-1.79.05-.38.1-.79.16-1.24l.06-.52c.03-.36.06-.73.04-1.12-.01-.77-.22-1.66-.62-2.37-.79-1.44-1.95-2.38-2.9-3.34-.21-.21-.53-.54-.83-.78-.29-.24-.57-.45-.79-.66-.19-.17-.37-.39-.61-.68-.12-.14-.25-.3-.4-.46l-.4-.4c-.47-.46-.91-.99-1.36-1.56-.5-.61-.84-1.02-1.22-1.66-.35-.61-.88-1.38-1.4-1.93a8.68 8.68 0 0 1-.66-.8l-.63-.91c-.45-.63-.93-1.27-1.5-1.87-.28-.3-.59-.6-.93-.87l-.91-.72c-1.19-.94-2.33-1.88-3.2-3.01-.22-.28-.42-.57-.61-.87-.2-.32-.39-.65-.58-.98-.38-.67-.71-1.32-1.02-2.03-.69-1.51-1.41-2.79-1.47-4.16-.1-1.39.24-2.88.84-4.24l.46-1.11.23-.56c.07-.15.16-.3.25-.45.37-.6.87-1.18 1.41-1.8.59-.66 1.06-1.39 1.52-1.86.39-.43 1-.7 1.7-.89.68-.18 1.5-.29 2.22-.31.74-.02 1.45.08 2.15.29 1.34.4 2.63 1.4 3.96 2.39 2.64 1.97 5.13 4.11 6.84 6.81.88 1.39 1.76 2.81 2.43 4.25.68 1.51 1.33 3.09 2.04 4.63.77 1.55 1.68 3.03 2.71 4.42.51.7 1.06 1.37 1.63 2.01.62.7 1.33 1.28 2.07 1.78 1.51.99 3.07 1.73 4.92 2.1.91.15 1.85.2 2.82 0 .49-.1.98-.27 1.46-.55.43-.26.79-.55 1.14-.86.68-.62 1.23-1.31 1.73-1.99.24-.31.54-.78.74-1.16.21-.4.37-.8.53-1.17.31-.76.62-1.28 1.07-2.03l1.23-2.1c.42-.69.79-1.41 1.16-2.12l.14-.26c.03-.06.07-.12.11-.18.08-.12.18-.25.29-.38.22-.27.51-.56.8-.92.97-1.28 1.92-2.42 2.99-3.51 1.05-1.09 2.18-2.05 3.38-2.96.6-.46 1.15-.92 1.77-1.39.65-.47 1.25-.96 1.83-1.46 1.17-1.01 2.21-1.96 3.38-2.86 1.15-.93 2.24-1.84 3.39-2.55 1.13-.71 2.35-1.21 3.5-1.32.53-.04 1 .07 1.48.32.24.12.48.29.71.47.23.19.56.45.82.64.55.41 1.04.78 1.42 1.18.38.39.65.85.88 1.38.23.53.39 1.1.51 1.68.12.55.15 1.09.11 1.65-.08 1.1-.38 2.35-.71 3.41-.36 1.09-.84 2.13-1.37 3.13-1.13 2.02-2.15 4.03-3.33 5.65-.3.41-.6.8-.92 1.17-.34.39-.67.77-1 1.14-.64.73-1.29 1.4-1.94 1.87-.67.48-1.49.86-2.3 1.38-.73.5-1.43.98-2.11 1.44-1.35.92-2.58 1.76-3.69 2.52-2.24 1.47-3.93 2.81-5.1 3.67-.29.22-.55.41-.77.58-.2.15-.36.28-.5.39-.28.21-.43.31-.43.31s-.15.11-.45.32c-.16.11-.35.26-.58.42-.21.17-.46.36-.74.57-.13.1-.27.21-.41.32-.07.06-.15.11-.22.17-.08.06-.23.15-.33.24-.46.36-.84.85-1.15 1.33-.3.5-.57.89-.89 1.57a7.68 7.68 0 0 0-.6 2.09c-.22 1.49-.06 3.15.43 4.81.24.83.64 1.8 1.32 2.59.23.28.44.6.67 1 .24.4.54.84.85 1.24.63.8 1.35 1.53 2.07 2.24.73.71 1.51 1.44 2.38 2.14 1.77 1.45 3.94 2.34 5.76 3.56.47.32.86.62 1.33 1.02.48.4.98.78 1.48 1.15.99.71 2 1.44 3.03 2.17.99.73 1.96 1.54 2.83 2.42.43.44.84.9 1.17 1.39l.52.82c.18.29.36.56.52.82.31.53.51 1.02.58 1.54.07.56.04 1.16-.09 1.74-.25 1.16-.92 2.3-1.71 3.42-.75 1.04-1.79 2.07-2.82 2.85-1.03.73-2.36 1.14-3.79 1.49-1.42.38-2.79.56-4.28.59-1.47.01-3.03-.03-4.49-.19-1.47-.17-2.89-.52-4.09-1.23-1.21-.74-2.36-1.78-3.34-2.93-1-1.15-1.82-2.44-2.6-3.83-.77-1.38-1.46-2.82-2.09-4.3-.64-1.49-1.17-2.98-1.7-4.56-.56-1.58-1.11-3.2-2.19-4.75-.54-.75-1.21-1.48-2.14-1.99-1.12-.56-2.17-.46-3.13-.27-.48.11-.96.27-1.43.53-.5.27-.92.67-1.23 1.06-.63.8-1 1.64-1.35 2.42a46.44 46.44 0 0 0-1.78 4.82c-.51 1.61-.97 3.28-1.32 4.95-.7 3.33-1.16 6.63-2.26 9.64-.28.74-.58 1.48-.96 2.17-.36.7-.77 1.4-1.21 1.96-.45.57-.95 1-1.51 1.19-.34.13-.7.23-1.07.31-.35.08-.75.14-1.17.22-.81.15-1.58.28-2.28.29-.59 0-1.44-.21-2.18-.38l-.64-.15-.32-.07c-.07-.03-.38-.05-.42-.05l-.59-.04c-.18-.02-.45-.02-.48-.04-.74-.15-1.43-.37-2.04-.69-.62-.32-1.09-.74-1.61-1.31-.48-.56-.89-1.14-1.18-1.76-.58-1.21-.69-2.76-.69-4.25.01-.73.07-1.51.2-2.17.07-.35.16-.7.27-1.07.11-.37.21-.77.31-1.06.22-.63.56-1.23.97-1.89.41-.68.78-1.3 1.2-1.95.82-1.28 1.69-2.55 2.44-3.92.38-.71.69-1.29 1.08-1.93.32-.52.64-1.04.96-1.55 1.06-1.66 1.93-3.02 2.36-3.7 1.71-2.63 2.05-4.44 2.4-6.97-1.51 2.1-2.43 3.49-4.02 5.88-.44.68-1.36 2.08-2.4 3.74l-.99 1.59c-.39.63-.78 1.37-1.11 1.99-.7 1.27-1.54 2.51-2.38 3.81-.42.64-.84 1.35-1.22 1.99-.4.66-.85 1.41-1.14 2.26-.15.44-.24.81-.35 1.19-.11.39-.21.79-.3 1.21-.18.87-.23 1.67-.24 2.52-.01.84.03 1.68.15 2.53.11.83.33 1.76.72 2.58.39.83.93 1.58 1.52 2.23.56.63 1.31 1.31 2.14 1.73.83.43 1.7.7 2.56.88.37.08.51.05.74.08l.63.04c.16.01.06 0 .18.02l.28.06.55.13c.85.18 1.61.41 2.67.44.96-.01 1.81-.17 2.63-.32.77-.13 1.73-.3 2.57-.62 1.01-.36 1.8-1.09 2.37-1.82.58-.75 1.02-1.49 1.42-2.27.42-.78.75-1.59 1.06-2.41 1.19-3.29 1.64-6.68 2.33-9.91.33-1.61.77-3.18 1.27-4.77.49-1.58 1.04-3.12 1.71-4.62.33-.75.66-1.45 1.07-1.97.21-.26.41-.44.65-.58.26-.14.59-.26.91-.33.65-.16 1.39-.14 1.76.08.54.29 1.05.8 1.47 1.4.84 1.19 1.4 2.73 1.93 4.26.52 1.55 1.1 3.16 1.75 4.68.65 1.53 1.37 3.04 2.18 4.49.8 1.44 1.72 2.89 2.83 4.16 1.11 1.28 2.34 2.42 3.83 3.33 1.54.91 3.24 1.3 4.86 1.5 1.64.18 3.17.22 4.76.21 1.57-.02 3.24-.24 4.71-.65 1.47-.37 3.05-.81 4.45-1.79 1.31-.99 2.35-2.03 3.29-3.31.85-1.22 1.68-2.55 2.03-4.14.17-.79.22-1.6.12-2.4-.1-.85-.45-1.65-.83-2.28-.19-.32-.38-.61-.56-.89-.18-.27-.33-.54-.56-.87-.42-.62-.9-1.15-1.39-1.65-.98-.99-2.01-1.83-3.06-2.62-1.03-.74-2.05-1.47-3.04-2.18-.48-.35-.95-.71-1.39-1.08-.44-.37-.98-.8-1.49-1.14-2.08-1.38-4.11-2.2-5.64-3.48-.79-.62-1.52-1.31-2.23-2-.71-.7-1.37-1.36-1.9-2.04-.27-.35-.49-.67-.72-1.05-.23-.39-.5-.82-.83-1.22-.48-.55-.74-1.18-.96-1.9-.43-1.45-.53-2.81-.37-3.98.08-.58.23-1.11.44-1.56.18-.4.53-.95.76-1.33.25-.39.48-.67.71-.85.34-.26.65-.5.93-.71.28-.22.53-.41.75-.58.21-.15.38-.28.52-.38.3-.21.45-.32.45-.32s.16-.12.47-.34c.16-.12.35-.27.58-.45.21-.16.46-.34.74-.55 1.13-.83 2.73-2.1 4.97-3.58 1.1-.75 2.33-1.59 3.67-2.5.67-.45 1.36-.93 2.08-1.42.67-.43 1.51-.82 2.38-1.43.89-.64 1.58-1.39 2.27-2.16l1.01-1.16c.36-.41.7-.85 1.03-1.3 1.32-1.82 2.32-3.82 3.48-5.89.56-1.06 1.1-2.2 1.5-3.44.39-1.27.69-2.46.8-3.89.05-.7 0-1.46-.15-2.17-.14-.68-.34-1.37-.63-2.05-.29-.67-.7-1.38-1.25-1.95-.54-.57-1.13-1-1.67-1.41-.28-.21-.49-.38-.79-.62-.3-.24-.63-.47-1.01-.66-.73-.4-1.66-.61-2.53-.54-1.65.16-3.1.81-4.39 1.61-1.3.81-2.44 1.77-3.58 2.68-1.16.89-2.33 1.94-3.43 2.9-.56.48-1.12.94-1.71 1.36-.59.44-1.22.95-1.83 1.43-1.24.94-2.47 1.99-3.58 3.14-1.11 1.13-2.18 2.41-3.12 3.65-.21.26-.48.54-.76.88-.14.17-.29.36-.43.56-.07.1-.14.22-.2.33l-.14.27c-.37.7-.73 1.41-1.15 2.08-.4.68-.8 1.37-1.21 2.06-.38.63-.89 1.51-1.19 2.26-.33.77-.59 1.36-1.05 1.94-.47.63-.95 1.22-1.48 1.71-.26.24-.54.46-.82.62-.23.14-.52.24-.84.31-.64.13-1.38.11-2.09-.01-1.4-.26-2.9-.95-4.16-1.79-.63-.43-1.22-.92-1.7-1.46-.53-.6-1.04-1.23-1.52-1.87-.96-1.3-1.8-2.68-2.53-4.13l-2.01-4.58c-.75-1.6-1.65-3.05-2.56-4.49-1.92-3-4.62-5.29-7.31-7.31-1.34-.98-2.72-2.12-4.58-2.7-.89-.27-1.84-.4-2.76-.37-.88.03-1.72.14-2.64.37-.87.24-1.85.63-2.6 1.42-.68.71-1.09 1.39-1.6 1.94-.53.62-1.11 1.27-1.6 2.07-.12.2-.24.4-.34.62-.1.21-.16.38-.24.58l-.47 1.14c-.7 1.61-1.11 3.35-1 5.17.05.9.31 1.84.63 2.62.32.8.69 1.51 1 2.2.32.74.71 1.49 1.1 2.19.2.35.41.7.62 1.05.23.36.47.72.73 1.05 1.05 1.35 2.32 2.39 3.53 3.34l.89.7c.25.21.5.44.73.69.47.51.91 1.08 1.33 1.67l.65.94c.26.35.53.65.77.93.5.55.8 1 1.2 1.66.36.64.94 1.37 1.37 1.88.46.57.95 1.15 1.5 1.71.33.31.43.41.67.71.21.26.48.61.82.91.3.27.59.49.84.7.25.21.42.38.71.67 1.03 1 2.03 1.88 2.55 2.86.26.48.37.94.39 1.51.01.28-.01.57-.04.88l-.05.47c-.06.44-.11.84-.16 1.21-.1.74-.19 1.32-.25 1.71-.24 1.43-.46 2.48-.74 3.5-.15.52-.29 1.02-.48 1.53-.19.49-.41 1.02-.85 1.49zm100.65 30.59c-.62-.14-1.2-.27-1.75-.4-.53-.13-1.01-.3-1.53-.47-1.01-.34-2.14-.75-3.62-1.05-.39-.09-.98-.21-1.67-.39-.35-.09-.7-.21-1.1-.35-.28-.11-.57-.22-.86-.32a22.272 22.272 0 0 1-3.32-1.65c-1.46-.84-2.78-1.92-4.12-3.15-2.73-2.47-5.37-5.24-8.18-8-1.34-1.34-2.45-2.93-3.57-4.61-.57-.85-1.14-1.7-1.72-2.55-.58-.84-1.11-1.66-1.51-2.51-.39-.81-.66-1.83-.95-2.8-.28-.98-.52-1.96-.71-2.95-.38-1.97-.47-4.01-.46-6.07 0-2.07.22-4.07.44-6.2.12-1.07.18-2.06.36-3.04.17-.98.42-1.96.71-2.93 1.19-3.95 2.52-7.81 4.13-11.43.4-.9.82-1.79 1.26-2.66.45-.89.86-1.71 1.38-2.47.5-.78 1.08-1.53 1.66-2.28l.88-1.15.22-.29.18-.22c.12-.14.26-.28.41-.42.31-.28.64-.53 1.05-.86.39-.32.75-.66 1.08-.99.67-.65 1.28-1.3 1.9-1.72.65-.45 1.48-.88 2.25-1.45.74-.53 1.39-1.06 2.05-1.47 1.26-.8 2.88-1.22 4.39-1.91 1.36-.61 2.81-.96 4.24-1.29 1.42-.34 2.77-.66 4.05-.97 1.23-.3 2.41-.44 3.52-.47 2.22-.09 4.07.48 5.77.84.42.09.82.18 1.21.24.37.07.68.12.99.19.61.13 1.12.27 1.54.38.85.24 1.29.37 1.29.37s.45.14 1.31.39c.88.26 2.13.59 3.75 1.03 1.68.44 3.46.91 5.37 2.14 1.96 1.22 4.1 2.75 6.27 4.63 1.09.95 2.16 1.97 3.26 3.11 1.14 1.17 2.35 2.23 3.19 3.51.43.66.82 1.39 1.21 2.16.41.79.75 1.51 1.06 2.33.6 1.59 1.07 3.37 1.33 5.12.25 1.77.33 3.76.67 5.71.26 1.85.32 3.8.31 5.78-.07 2.06.21 4.15.22 6.09-.01 2.09.15 4.15 0 6.12-.17 1.95-.6 3.99-1.23 5.88-.29.96-.79 1.85-1.23 2.77-.24.46-.47 1.04-.65 1.51-.19.5-.36.91-.59 1.35-.91 1.79-2.07 3.44-3.5 4.77-1.57 1.34-3.14 2.67-4.69 4-.39.33-.78.68-1.17.98-.38.29-.79.57-1.21.84-.84.54-1.72 1.06-2.6 1.64-1.6 1.11-3.37 1.92-5.16 2.63-1.73.64-3.74 1.09-5.58 1.89-.47.2-.89.39-1.39.65-.52.29-.91.63-1.25.85-.17.12-.32.21-.46.27-.12.05-.38.15-.57.22l-.62.2-.43.12c-1.8.47-3.35.51-4.11.5-1.38-.01-2.49-.19-3.62-.23-1.12-.05-2.27-.02-3.52.31 1.26.29 2.19.73 3.25 1.1 1.04.36 2.24.75 3.87.78.86.02 2.59-.02 4.64-.55l.49-.13c.24-.07.47-.15.71-.23.25-.09.44-.15.74-.29.28-.13.53-.29.75-.44.44-.31.78-.58 1.09-.75.34-.18.79-.39 1.2-.56 1.69-.74 3.52-1.14 5.51-1.86 1.89-.75 3.81-1.62 5.55-2.83.81-.54 1.69-1.05 2.58-1.62.44-.29.89-.59 1.33-.92.42-.33.8-.67 1.2-1.01 1.6-1.36 3.17-2.66 4.81-4.1 1.64-1.52 2.92-3.37 3.91-5.32.26-.49.49-1.05.67-1.53.2-.51.35-.91.6-1.38.47-.98.99-1.93 1.32-2.98.7-2.09 1.13-4.17 1.33-6.36.16-2.19-.01-4.26 0-6.27-.01-2.16-.29-4.12-.22-6.07.01-2.03-.04-4.06-.33-6.07-.33-1.9-.39-3.75-.67-5.71-.3-1.96-.78-3.76-1.44-5.54-.33-.87-.75-1.75-1.14-2.51-.4-.79-.82-1.59-1.32-2.35-1.04-1.58-2.36-2.69-3.42-3.8a53.081 53.081 0 0 0-3.38-3.22 51.604 51.604 0 0 0-6.52-4.82 16.83 16.83 0 0 0-3.13-1.55c-1.03-.38-1.94-.59-2.74-.81-1.61-.44-2.9-.78-3.73-1.03-.85-.25-1.3-.39-1.3-.39s-.46-.13-1.33-.39c-.44-.12-.99-.27-1.65-.41-.33-.07-.7-.14-1.07-.21-.35-.06-.72-.14-1.12-.23-.8-.17-1.71-.41-2.75-.61-1.04-.21-2.25-.32-3.48-.28-1.24.03-2.58.19-3.93.52-1.3.31-2.67.64-4.11.99-1.42.33-2.96.7-4.51 1.39-1.37.64-3 1.04-4.64 2.05-.79.49-1.48 1.05-2.16 1.54-.64.48-1.39.86-2.22 1.43-.86.6-1.49 1.3-2.15 1.92-.64.66-1.25 1.08-2.09 1.8-.2.18-.39.38-.58.59-.09.11-.18.22-.26.33l-.21.28c-.29.37-.57.75-.86 1.13-.58.76-1.19 1.54-1.75 2.4-.58.85-1.05 1.79-1.5 2.67-.45.9-.88 1.82-1.3 2.74-1.66 3.72-3.01 7.65-4.22 11.66-.3 1.02-.57 2.07-.76 3.15-.2 1.08-.27 2.19-.38 3.2-.21 2.04-.45 4.23-.45 6.36-.01 2.13.08 4.31.49 6.45.2 1.06.46 2.11.75 3.13.31 1.02.56 2.02 1.06 3.09.48 1.02 1.09 1.93 1.67 2.78.57.85 1.14 1.69 1.7 2.53 1.13 1.7 2.33 3.42 3.8 4.89 2.85 2.79 5.53 5.61 8.27 8.08 1.37 1.26 2.85 2.48 4.44 3.39.78.46 1.58.89 2.38 1.26.4.19.81.36 1.21.52l.61.24.32.12c.43.15.87.29 1.25.39.77.21 1.38.32 1.78.41 1.45.28 2.59.51 3.77.55.58.02 1.18 0 1.76-.11.56-.09 1.12-.26 1.75-.42z"/><path class="st0" d="M131.7 68.4c.01.06.02.12.02.17l.03-.06c-1.23-.09-2.21-.38-3.4-.37-1.19.01-2.32.23-3.75.55-.39.09-.98.23-1.68.37-.36.07-.73.13-1.16.18-.84.11-1.71.23-2.6.35-.92.1-1.85.21-2.78.16l-1.4-.12c-.51-.05-1.03-.11-1.55-.16-.49-.06-.89-.12-1.31-.3-.46-.16-.9-.36-1.34-.59-1.74-.91-3.24-2.37-4.36-4.15-1.13-1.78-1.83-3.81-2.3-5.98-.24-1.08-.42-2.17-.56-3.28-.16-1.12-.21-2.17-.38-3.39-.08-.57-.17-1.11-.22-1.62-.02-.25-.04-.5-.04-.74 0-.26.01-.52.03-.79.06-1.05.21-2.12.36-3.2.15-1.12.25-2.1.5-3.08.11-.5.24-.97.39-1.47.15-.53.27-1.03.39-1.52 1.26-3.76 2.29-7.27 4.19-9.74 1.64-2.58 3.63-4.05 5.1-4.98.73-.45 1.34-.76 1.75-.96l.64-.29s.22-.1.65-.26c.42-.16 1.06-.38 1.9-.59.84-.21 1.89-.42 3.13-.59l4.25-.54c.37-.04.74-.07 1.08-.06l1.22.06c.4.03.82.06 1.14.14.31.07.69.23 1.11.42.21.09.46.19.7.28l.61.24c.41.17.83.36 1.26.57.43.21.87.43 1.32.65.42.21.83.43 1.2.68.37.25.72.53 1.02.85.33.36.66.73 1 1.09l.26.28c.07.09.13.17.19.27.13.19.25.39.36.61.24.47.49.95.73 1.43.25.47.51.94.77 1.42.14.25.24.45.32.66.08.22.16.45.23.7.14.5.26 1.05.45 1.64.18.54.32 1.02.45 1.55.51 2.08.69 4.34.95 6.6.22 2.1-.12 4.28-.49 6.47-.31 2.04-1.33 3.93-2.15 6l-.15.39c-.05.12-.07.19-.12.29-.09.19-.21.39-.34.61-.26.41-.6 1.04-.78 1.53a12 12 0 0 1-.28.66c-.07.16-.18.32-.32.52s-.31.43-.47.72l-.18.35-.11.2c-.22.36-.49.72-.76 1.09-.13.19-.27.37-.39.55-.13.17-.25.3-.36.44l-.08.1-.11.16a4.525 4.525 0 0 0-.4.8c-.11.26-.2.42-.23.46-.03.04-.1.11-.25.25-.15.13-.32.31-.45.46-.26.31-.43.57-.58.77-.13.18-.34.4-.53.61-.19.21-.37.41-.55.6-.73.78-1.43 1.54-2.48 2.29 1.28-.16 2.36-.58 3.37-1.17.25-.15.5-.31.75-.49.24-.18.49-.35.78-.63.26-.26.47-.52.67-.71.1-.1.17-.17.29-.27.12-.1.33-.26.53-.52.22-.29.35-.58.48-.87.06-.14.12-.27.17-.38.03-.05.06-.1.08-.15l.04-.06.09-.11c.12-.15.25-.31.39-.48.11-.16.23-.33.36-.5.26-.35.56-.75.85-1.23l.16-.27.17-.32c.09-.16.21-.33.37-.55.15-.21.33-.48.48-.79.13-.27.24-.53.33-.77.19-.48.36-.78.65-1.27.14-.23.29-.49.43-.78.07-.14.14-.32.19-.45l.14-.36c.74-1.91 1.87-3.97 2.26-6.39.38-2.21.77-4.57.51-7.01-.26-2.25-.44-4.56-1-6.86-.14-.56-.32-1.16-.49-1.68-.15-.48-.27-1.01-.43-1.58-.08-.28-.17-.58-.29-.88-.11-.3-.26-.6-.39-.83-.27-.49-.53-.98-.79-1.47-.25-.49-.5-.97-.74-1.45a13 13 0 0 0-.46-.77c-.09-.13-.18-.26-.28-.38l-.27-.3c-.38-.41-.75-.82-1.12-1.23-.41-.43-.87-.8-1.35-1.12-.47-.31-.95-.58-1.43-.81-.45-.22-.89-.44-1.33-.65-.45-.22-.9-.43-1.36-.62-.23-.1-.47-.19-.7-.27-.2-.07-.38-.15-.59-.24-.42-.18-.87-.39-1.43-.52-.55-.12-1.01-.15-1.47-.18-.44-.02-.88-.04-1.31-.07-.48-.01-.92.03-1.34.07-1.58.2-3.03.38-4.3.55-1.29.18-2.42.4-3.34.63-.92.23-1.63.48-2.11.66-.48.18-.73.29-.73.29s-.25.11-.71.32c-.46.22-1.13.56-1.94 1.06-.81.51-1.77 1.17-2.77 2.08-1.01.89-2.03 2.11-2.93 3.47-.46.7-.88 1.34-1.36 2.17-.47.84-.79 1.71-1.14 2.53-.16.36-.4.91-.55 1.37-.15.45-.3.91-.45 1.37-.07.22-.15.43-.24.63-.09.22-.2.5-.28.75-.18.51-.31 1.02-.44 1.53-.13.5-.25.99-.38 1.46-.14.49-.29 1.03-.42 1.56-.27 1.07-.39 2.23-.53 3.26-.15 1.07-.31 2.19-.37 3.35-.02.29-.02.59-.03.88 0 .32.02.63.04.93.06.61.15 1.18.23 1.72.15 1.01.21 2.23.37 3.36.15 1.15.34 2.3.59 3.44.48 2.27 1.27 4.61 2.55 6.61 1.26 2.02 3.02 3.75 5.1 4.83.52.27 1.05.51 1.59.7.56.23 1.21.33 1.75.4.51.05 1.02.11 1.53.16.54.05 1.08.09 1.62.13 1.07.05 2.09-.06 3.05-.17.9-.12 1.77-.24 2.61-.35.45-.05.9-.13 1.28-.2.78-.15 1.38-.3 1.77-.4 1.42-.34 2.52-.72 3.49-1.01.97-.3 2.07-.48 3.22-.98l.03-.06c-.01.02-.05-.02-.08-.07z"/></svg>